<svg width="589" height="703" viewBox="0 0 589 703" fill="none" xmlns="http://www.w3.org/2000/svg">
<g clip-path="url(#clip0_486_26242)">
<path d="M521.175 221.432H487.449V168.983H414.896L352.861 106.948H236.151L174.116 168.983H101.541V221.432H67.8148C67.8148 221.432 17.1319 450.443 219.37 652.692V671.995C219.37 671.995 242.71 702.168 294.5 702.168C346.291 702.168 369.631 671.995 369.631 671.995V652.692C571.869 450.454 521.186 221.432 521.186 221.432M429.406 300.05L459.623 360.089C461.422 363.489 461.52 367.536 459.875 371.013L396.963 504.515C396.963 504.515 392.378 513.092 382.65 521.636H382.672L382.321 521.921C381.696 522.458 381.06 522.996 380.39 523.533L363.072 538.022C362.162 538.779 361.01 539.185 359.815 539.152L336.87 538.57H336.892H336.881C332.384 542.892 321.065 548.507 321.065 548.507L297.78 545.502L295.422 538.164C273.617 528.118 259.14 511.194 253.513 503.736C253.02 503.078 253.842 502.244 254.511 502.716C267.64 512.116 277.303 514.945 282.425 515.779C280.966 508.781 281.043 499.601 284.322 487.712L287.141 493.503C287.141 493.503 287.931 523.303 304.054 535.784C313.409 539.755 320.089 537.781 323.686 535.839C302.639 527.613 315.142 510.986 315.142 510.986L379.052 422.167C380.226 420.917 382.233 422.288 381.498 423.835L362.096 464.273L350.086 476.228L350.031 476.338C350.031 476.338 331.934 497.813 323.96 511.359C321.536 517.556 321.021 523.127 325.397 525.387C335.257 530.454 348.408 532.286 358.038 524.4L382.167 472.796C382.244 472.631 382.321 472.455 382.398 472.291L382.672 471.71L382.65 471.808C384.734 467.63 387.914 464.076 391.896 461.564C392.587 461.126 393.442 461.828 393.146 462.584C389.373 472.423 371.068 513.925 380.708 509.045C402.304 482.371 452.406 367.821 452.406 367.821L427.048 309.121C427.048 309.121 426.171 305.754 421.652 306.861C417.133 307.969 416.859 307.421 416.859 307.421L415.641 304.317L423.758 302.924C416.99 301.202 404.827 298.855 388.474 298.778C382.902 298.438 380.939 300.204 380.489 302.31L401.493 303.746L402.129 306.927L389.812 307.421L380.434 309.91L376.047 307.519C376.047 307.519 374.555 308.868 374.413 311.764H405.606L404.421 316.722L387.191 317.38L379.678 321.098L373.546 316.085C373.546 316.085 365.704 319.628 371.934 327.36L404.301 321.46L404.739 325.309L391.49 326.955L378.701 334.873L372.921 330.541C372.921 330.541 369.543 332.658 372.713 347.871C375.246 355.482 374.83 354.846 382.014 355.899C389.198 356.952 389.198 355.899 388.562 352.938C387.925 349.976 390.042 346.807 382.43 345.962L379.897 343.001L407.865 337.714L405.891 340.039C405.891 340.039 400.703 341.794 397.018 345.688L403.204 353.695C403.555 354.155 403.05 354.769 402.535 354.528L394.035 350.437C393.146 352.949 393.069 355.943 394.484 359.486C399.979 373.217 404.794 382.946 411.342 377.023C417.89 371.112 417.561 368.37 417.561 368.37L421.816 374.567L391.731 406.396L402.721 386.324L401.449 384.591L324.048 472.719C323.357 473.508 322.107 472.642 322.6 471.721L333.459 449.894L314.1 457.605L290.914 482.656L286.998 481.68L311.457 448.063L340.412 435.943L396.338 377.605L387.52 365.606L368.753 360.911C368.753 360.911 360.045 339.831 362.578 329.06L365.353 328.556L361.471 317.709L367.514 313.014L365.101 307.958L373.437 301.827L374.336 301.893L378.252 292.636C378.252 292.636 413.898 287.284 429.384 300.061M421.29 235.789C421.29 233.409 423.22 231.479 425.6 231.479C427.98 231.479 429.911 233.409 429.911 235.789C429.911 238.169 427.98 240.099 425.6 240.099C423.22 240.099 421.29 238.169 421.29 235.789ZM300.423 620.325C301.213 621.258 302.364 621.949 303.889 622.409C305.414 622.87 307.289 623.111 309.527 623.111C311.336 623.111 312.85 622.947 314.056 622.629C315.263 622.311 316.206 621.85 316.897 621.258C317.577 620.665 318.071 619.974 318.356 619.207H324.421C324.246 621.082 323.576 622.673 322.414 623.967C321.251 625.261 319.595 626.248 317.434 626.917C315.274 627.586 312.641 627.926 309.527 627.926C307.026 627.926 304.766 627.718 302.748 627.301C300.73 626.884 298.997 626.226 297.56 625.349C296.124 624.46 295.016 623.32 294.248 621.916C293.469 620.512 293.086 618.812 293.086 616.827C293.086 614.841 293.469 613.13 294.248 611.705C295.027 610.279 296.124 609.116 297.56 608.206C298.997 607.296 300.73 606.626 302.748 606.177C304.766 605.738 307.037 605.519 309.527 605.519C312.641 605.519 315.285 605.87 317.456 606.583C319.628 607.284 321.284 608.305 322.447 609.632C323.609 610.959 324.267 612.571 324.421 614.479H318.356C318.092 613.613 317.61 612.878 316.93 612.275C316.239 611.661 315.296 611.189 314.078 610.849C312.861 610.509 311.347 610.334 309.537 610.334C307.3 610.334 305.424 610.575 303.9 611.047C302.375 611.518 301.224 612.231 300.434 613.185C299.644 614.139 299.261 615.357 299.261 616.838C299.261 618.318 299.655 619.426 300.434 620.358M287.481 615.346V619.689H271.128V627.422H265.161V606.067H291.1V610.783H271.139V615.357H287.492L287.481 615.346ZM294.5 644.093C296.694 644.093 298.482 645.881 298.482 648.074C298.482 650.268 296.705 652.056 294.5 652.056C292.296 652.056 290.519 650.268 290.519 648.074C290.519 645.881 292.296 644.093 294.5 644.093ZM251.342 493.338L236.239 475.417C236.239 475.417 238.334 475.066 243.598 472.741L259.798 488.82C257.473 490.147 253.842 492.099 251.342 493.349M309.296 528.282L300.138 526.857L308.342 516.547C308.342 516.547 305.863 522.371 309.296 528.282ZM391.973 441.745L408.808 395.91L415.148 394.671L399.628 438.652L391.973 441.745ZM414.358 325.507C414.358 325.507 423.122 323.949 426.182 325.507C426.182 325.507 429.362 330.936 428.924 336.244H426.094C426.094 336.244 424.471 329.861 422.716 328.973C421.663 328.435 414.347 328.26 414.347 328.26V325.496L414.358 325.507ZM413.909 317.281V314.627C413.909 314.627 423.111 311.939 426.171 313.497C426.171 313.497 429.801 318.773 429.362 324.07H426.62C426.62 324.07 424.185 318.049 422.102 317.467C420.972 317.149 413.909 317.27 413.909 317.27M429.395 352.729L432.883 350.174L438.795 362.557L435.417 364.915L429.395 352.729ZM343.582 220.006C343.582 217.813 345.37 216.025 347.563 216.025C349.757 216.025 351.545 217.802 351.545 220.006C351.545 222.211 349.757 223.988 347.563 223.988C345.37 223.988 343.582 222.211 343.582 220.006ZM406.483 212.032C408.863 212.032 410.794 213.963 410.794 216.343C410.794 218.723 408.863 220.653 406.483 220.653C404.103 220.653 402.173 218.723 402.173 216.343C402.173 213.963 404.103 212.032 406.483 212.032ZM406.483 231.49C408.863 231.49 410.794 233.42 410.794 235.8C410.794 238.18 408.863 240.11 406.483 240.11C404.103 240.11 402.173 238.18 402.173 235.8C402.173 233.42 404.103 231.49 406.483 231.49ZM245.09 128.566H343.9L398.992 183.658L392.038 190.601L339.82 138.383H249.159L196.94 190.601L189.998 183.658L245.079 128.566H245.09ZM321.032 201.525L303.878 210.903L294.5 245.561L285.123 210.903L267.969 201.525L285.123 192.148L294.5 169.159L303.878 192.148L321.032 201.525ZM245.408 219.973C245.408 222.167 243.62 223.955 241.426 223.955C239.233 223.955 237.445 222.178 237.445 219.973C237.445 217.769 239.222 215.992 241.426 215.992C243.631 215.992 245.408 217.769 245.408 219.973ZM182.507 212C184.887 212 186.817 213.93 186.817 216.31C186.817 218.69 184.887 220.62 182.507 220.62C180.127 220.62 178.196 218.69 178.196 216.31C178.196 213.93 180.127 212 182.507 212ZM182.507 231.457C184.887 231.457 186.817 233.387 186.817 235.767C186.817 238.147 184.887 240.077 182.507 240.077C180.127 240.077 178.196 238.147 178.196 235.767C178.196 233.387 180.127 231.457 182.507 231.457ZM174.654 286.538C174.972 286.395 175.29 286.242 175.608 286.11C176.705 285.638 177.812 285.189 178.931 284.761C179.172 284.673 179.414 284.596 179.655 284.509C180.532 284.191 181.41 283.873 182.298 283.587C182.737 283.445 183.176 283.313 183.625 283.182C184.064 283.05 184.503 282.896 184.942 282.776H184.963C202.567 277.719 221.289 279.014 237.851 286.11H237.862C237.972 286.154 238.081 286.209 238.191 286.253C238.443 286.362 238.685 286.472 238.926 286.582C239.748 286.944 240.56 287.327 241.372 287.722C241.635 287.854 241.909 287.985 242.172 288.117C243.17 288.622 244.168 289.137 245.145 289.686C245.287 289.762 245.43 289.85 245.572 289.927C246.428 290.409 247.272 290.914 248.117 291.429C248.38 291.594 248.654 291.758 248.918 291.923C249.817 292.493 250.705 293.075 251.583 293.678C251.649 293.722 251.714 293.766 251.78 293.809C252.713 294.457 253.623 295.137 254.533 295.828C254.785 296.025 255.038 296.211 255.29 296.409C256.025 296.99 256.749 297.571 257.473 298.186C257.659 298.339 257.846 298.493 258.032 298.657C258.887 299.392 259.732 300.16 260.566 300.939C260.785 301.147 261.004 301.355 261.224 301.564C261.882 302.189 262.518 302.836 263.154 303.483C263.373 303.714 263.604 303.944 263.823 304.174C264.613 305.008 265.391 305.852 266.148 306.73C266.302 306.916 266.466 307.103 266.62 307.289C267.245 308.013 267.848 308.759 268.452 309.516C268.671 309.79 268.89 310.064 269.11 310.349C269.812 311.259 270.503 312.181 271.172 313.124C271.194 313.157 271.215 313.19 271.248 313.223C272.038 314.352 272.784 315.493 273.508 316.634C273.705 316.952 273.892 317.281 274.089 317.599C274.605 318.443 275.109 319.299 275.592 320.154C275.679 320.308 275.767 320.451 275.855 320.604V320.626C281.361 330.651 284.487 341.465 285.331 352.345L303.955 413.525C304.383 410.838 304.602 403.489 305.074 402.469C305.074 402.469 314.813 412.11 314.813 431.293C314.813 431.293 313.661 437.874 311.928 439.727L313.091 443.544L282.315 380.796C282.194 381.213 282.063 381.619 281.931 382.036C281.767 382.573 281.591 383.111 281.405 383.648C281.229 384.174 281.043 384.712 280.845 385.238C280.659 385.743 280.472 386.258 280.286 386.763C280.078 387.311 279.858 387.86 279.628 388.408C279.43 388.88 279.233 389.362 279.036 389.834C278.783 390.404 278.531 390.975 278.268 391.545C278.059 391.984 277.862 392.422 277.654 392.861C277.368 393.464 277.061 394.057 276.754 394.649C276.546 395.044 276.348 395.439 276.14 395.833C275.8 396.47 275.438 397.095 275.087 397.72C274.89 398.06 274.703 398.411 274.495 398.751C274.089 399.442 273.661 400.122 273.234 400.791C273.058 401.065 272.894 401.328 272.729 401.603C272.214 402.392 271.687 403.16 271.139 403.928C271.029 404.081 270.93 404.235 270.821 404.388C269.483 406.264 268.046 408.085 266.532 409.85C265.731 410.783 264.898 411.704 264.042 412.603L278.509 447.185L254.698 407.756L257.637 404.706C258.986 403.226 260.258 401.701 261.454 400.133L255.795 377.978L269.834 369.093L275.252 352.576C274.341 341.981 270.974 331.473 264.964 321.942L242.238 319.453L237.577 297.056C221.059 288.797 201.624 287.415 183.867 293.7L176.935 313.914L190.086 332.647L188.111 334.029L174.961 315.296L158.608 315.032L144.744 328.896C139.117 340.708 136.957 353.947 138.547 366.944L158.081 378.833L153.485 398.235L155.701 404.498C165.32 415.203 177.747 422.299 191.062 425.414L207.81 412.143L207.075 394.605L209.488 394.506L210.223 412.044L228.035 423.878C232.63 422.387 237.116 420.38 241.416 417.868L249.28 424.844C244.98 427.608 240.505 429.889 235.921 431.72L255.893 466.478C259.03 464.602 262.441 462.354 266.028 459.711L261.86 450.103L270.217 456.486C272.685 454.512 275.186 452.373 277.708 450.048L281.953 453.821L279.233 448.622C285.441 442.71 291.627 435.702 297.188 427.586L307.728 446.44C300.379 456.398 286.231 472.072 266.401 484.762L273.782 497.616L260.62 481.361L250.859 469.319L223.494 435.537C223.264 435.592 223.033 435.636 222.792 435.68C222.726 435.702 222.649 435.713 222.573 435.724C222.244 435.79 221.915 435.855 221.585 435.921C221.344 435.965 221.092 436.009 220.851 436.053C220.675 436.086 220.511 436.119 220.335 436.141C220.116 436.184 219.885 436.217 219.666 436.25C219.381 436.305 219.096 436.349 218.8 436.393C218.383 436.459 217.966 436.524 217.56 436.579C217.473 436.59 217.385 436.601 217.297 436.612C216.924 436.656 216.562 436.711 216.189 436.755C215.751 436.81 215.323 436.853 214.884 436.897C212.976 437.095 211.067 437.226 209.159 437.27L206.757 435.559L194.385 426.763L200.154 434.813L268.682 530.377L239.452 500.862L235.186 530.377L216.145 530.026L234.791 496.157L230.371 491.693L212.592 514.035L200.154 496.42L226.795 488.085L164.19 424.855H164.223C158.278 421.049 152.773 416.387 147.914 410.914H147.892C147.705 410.706 147.541 410.487 147.365 410.278C146.751 409.576 146.159 408.863 145.567 408.139C145.27 407.766 144.963 407.405 144.667 407.032C143.965 406.143 143.285 405.222 142.627 404.29C142.507 404.125 142.375 403.972 142.254 403.796C141.53 402.765 140.839 401.712 140.17 400.659C140.061 400.484 139.951 400.308 139.83 400.122C139.194 399.102 138.58 398.071 137.999 397.029C137.977 396.996 137.966 396.974 137.944 396.941C137.341 395.855 136.759 394.77 136.211 393.662C136.112 393.475 136.024 393.278 135.926 393.091C135.454 392.137 135.004 391.172 134.577 390.196C134.511 390.042 134.434 389.878 134.368 389.724C133.897 388.627 133.447 387.531 133.03 386.423C132.953 386.225 132.888 386.028 132.811 385.831C132.471 384.909 132.142 383.977 131.835 383.045C131.747 382.792 131.67 382.54 131.582 382.277C131.242 381.191 130.913 380.094 130.617 378.998C130.562 378.8 130.519 378.614 130.475 378.427C130.233 377.506 130.014 376.596 129.806 375.674C129.729 375.334 129.652 375.005 129.586 374.665C129.378 373.656 129.18 372.647 129.016 371.638C128.972 371.397 128.939 371.155 128.895 370.914C128.753 369.993 128.621 369.083 128.511 368.161C128.457 367.744 128.413 367.328 128.369 366.911C128.292 366.165 128.226 365.408 128.16 364.651C126.735 346.17 131.857 327.525 142.901 312.28V312.258C143.154 311.907 143.428 311.556 143.691 311.216C143.987 310.821 144.283 310.426 144.579 310.042C145.106 309.373 145.643 308.715 146.192 308.057C146.411 307.794 146.609 307.53 146.828 307.278C147.585 306.39 148.374 305.523 149.175 304.668C149.449 304.372 149.734 304.086 150.02 303.801C150.59 303.22 151.16 302.639 151.742 302.068C152.071 301.75 152.411 301.432 152.751 301.114C153.321 300.577 153.902 300.05 154.495 299.524C154.835 299.217 155.175 298.921 155.526 298.624C156.173 298.076 156.842 297.528 157.511 297.001C157.807 296.76 158.103 296.519 158.41 296.277C159.397 295.51 160.395 294.764 161.426 294.04C162.457 293.316 163.51 292.625 164.563 291.956C164.87 291.758 165.188 291.572 165.495 291.386C166.252 290.925 166.998 290.475 167.766 290.036C168.139 289.817 168.523 289.609 168.906 289.4C169.63 289.005 170.343 288.622 171.078 288.26C171.462 288.062 171.846 287.865 172.23 287.678C173.019 287.295 173.809 286.933 174.61 286.571M197.522 411.879L189.493 418.252C182.353 416.19 175.63 412.856 169.674 408.436C182.068 414.676 192.838 413.097 197.522 411.879ZM161.755 378.625L160.823 376.398L176.803 369.719L177.736 371.945L161.755 378.625ZM180.368 369.543L191.467 336.837L226.006 337.286L236.25 370.278L208.04 390.207L180.368 369.543ZM184.898 310.876L188.989 298.942C194.681 297.253 200.615 296.376 206.658 296.376C207.481 296.376 208.292 296.398 209.104 296.431C197.061 298.811 188.309 307.136 184.898 310.876ZM227.837 337.078L226.049 335.455L238.158 322.118L239.935 323.752L227.837 337.078ZM241.788 359.277C242.019 359.716 242.271 360.166 242.523 360.593L242.655 360.824C244.092 363.215 245.901 365.606 248.172 367.92L241.602 365.31L237.237 351.249L241.777 359.277H241.788ZM251.693 401.46C248.907 404.366 245.803 407.032 242.436 409.401C238.191 412.373 233.661 414.786 228.923 416.607L219.995 410.684C226.883 411.101 240.023 410.421 251.703 401.46M237.226 371.956L238.114 369.708L253.107 375.663L252.219 377.912L237.226 371.956ZM153.398 368.337L144.722 363.05C144.36 358.027 144.623 352.916 145.512 347.827C146.29 343.385 147.53 339.085 149.186 335.005C145.786 350.985 151.226 363.982 153.398 368.337ZM174.928 444.246L208.018 482.272L204.903 488.48L174.928 444.246ZM159.035 235.811C159.035 233.431 160.966 231.501 163.346 231.501C165.726 231.501 167.656 233.431 167.656 235.811C167.656 238.191 165.726 240.121 163.346 240.121C160.966 240.121 159.035 238.191 159.035 235.811ZM499.47 360.341C492.275 405.869 478.455 450.223 458.384 492.165C433.3 544.581 398.279 593.454 354.298 637.435L347.969 643.764V663.177L346.061 664.647C338.35 670.591 321.405 680.572 294.468 680.572C267.53 680.572 250.585 670.591 242.874 664.647L240.966 663.177V643.764L234.637 637.435C190.656 593.454 155.646 544.581 130.551 492.165C110.48 450.223 96.6495 405.869 89.4655 360.341C81.3931 309.219 83.6635 267.695 85.7364 247.503L86.1861 243.094H123.137V190.645H171.637V200.461H132.964V252.91H95.0921C93.2275 273.903 91.8236 312.258 99.1722 358.806C106.214 403.401 119.759 446.834 139.414 487.931C164.015 539.338 198.388 587.301 241.58 630.493L250.793 639.706V658.296C258.218 663.506 272.521 670.767 294.478 670.767C316.436 670.767 330.739 663.495 338.164 658.296V639.706L347.377 630.493C390.569 587.301 424.942 539.338 449.543 487.931C469.209 446.845 482.743 403.401 489.785 358.806C497.133 312.258 495.729 273.903 493.865 252.91H455.993V200.461H417.32V190.645H465.82V243.094H502.771L503.221 247.503C505.293 267.706 507.564 309.219 499.491 360.341" fill="white"/>
<path d="M152.926 85.6377C156.491 84.7274 158.279 84.2887 161.865 83.4441V40.6033C158.29 41.4479 156.502 41.8866 152.926 42.7969V85.6268V85.6377Z" fill="white"/>
<path d="M420.138 81.8209C423.593 82.5996 425.315 82.9944 428.77 83.828V40.9982C425.326 40.1646 423.593 39.7698 420.138 38.991V81.8209Z" fill="white"/>
<path d="M373.7 73.4084C377.166 73.891 378.888 74.1433 382.343 74.6807V31.8399C378.888 31.3025 377.155 31.0502 373.7 30.5676V73.3975V73.4084Z" fill="white"/>
<path d="M323.752 53.392C326.735 53.5455 328.227 53.6333 331.21 53.8197C329.74 41.415 329.006 35.2181 327.525 22.8243C326.022 35.0426 325.266 41.1627 323.752 53.392Z" fill="white"/>
<path d="M468.024 66.4768C471.545 67.5955 473.311 68.1658 476.81 69.3394V54.7849C473.3 53.6114 471.545 53.041 468.024 51.9223V66.4768Z" fill="white"/>
<path d="M29.46 117.456C32.18 116.041 33.551 115.339 36.282 113.957C34.933 102.331 34.253 96.518 32.9039 84.903C31.5219 97.9219 30.831 104.426 29.46 117.456Z" fill="white"/>
<path d="M588.771 123.938C588.584 121.404 588.003 118.761 586.994 115.876C586.489 114.451 585.941 113.145 585.338 111.939C586.643 110.239 587.4 108.111 587.4 105.874V84.3545C587.4 80.768 585.469 77.4666 582.354 75.7008C572.911 70.3594 567.964 67.7052 558.269 62.7915C555.79 61.5412 553.256 60.5979 550.745 60.0057C549.637 59.7424 548.529 59.6218 547.432 59.6218C546.862 59.6218 546.292 59.6547 545.721 59.7205C544.822 57.3624 543.045 55.3662 540.676 54.2585C527.635 48.1383 514.189 42.4898 500.709 37.4556C499.59 37.0388 498.428 36.8414 497.276 36.8414C496.048 36.8414 494.841 37.0717 493.689 37.4994C492.143 35.9639 490.476 34.6916 488.677 33.7155C486.396 32.4761 484.049 31.4451 481.69 30.6445C469.724 26.5973 463.484 24.6669 451.298 21.2778C450.432 21.0365 449.543 20.9159 448.666 20.9159C447.295 20.9159 445.924 21.2011 444.674 21.7494C443.917 21.1462 443.105 20.5978 442.261 20.1043C440.78 19.2488 439.113 18.481 437.303 17.8229C435.691 17.2416 433.859 16.7042 431.852 16.2216C427.267 15.1138 424.877 14.5654 420.226 13.5345C417.66 12.9641 415.071 12.646 412.527 12.5693C412.384 12.5693 412.252 12.5693 412.11 12.5693C408.633 12.5693 405.343 13.699 402.546 15.8048C402.491 15.728 402.436 15.6513 402.37 15.5635C402.315 15.4977 402.261 15.4209 402.206 15.3551C399.376 11.9331 395.987 9.62986 392.104 8.48919C389.768 7.80918 387.476 7.28272 385.293 6.94271C373.283 5.05623 367.042 4.2446 354.956 2.98328C354.627 2.95038 354.287 2.92844 353.958 2.92844C351.72 2.92844 349.56 3.68523 347.805 5.04526C346.149 3.16974 343.812 1.91939 341.18 1.711C330.826 0.877436 325.452 0.570334 315.032 0.208391C314.923 0.208391 314.802 0.208391 314.692 0.208391C309.746 0.208391 305.523 3.83878 304.832 8.77436L299.743 45.0015C297.55 44.9796 295.718 44.9686 293.963 44.9686C292.098 44.9686 290.311 44.9796 288.249 45.0015V39.7479L291.397 26.9263C292.033 24.3159 291.429 21.563 289.751 19.4791C289.729 19.4462 289.696 19.4242 289.675 19.3913L291.408 12.317C292.142 9.31179 291.44 6.13109 289.51 3.71814C287.613 1.34906 284.728 0 281.712 0C281.646 0 281.591 0 281.525 0C271.939 0.219359 266.982 0.42775 257.407 1.03099C256.979 1.05292 256.562 1.11873 256.146 1.19551C255.926 1.18454 255.707 1.17357 255.476 1.17357C255.268 1.17357 255.06 1.17357 254.84 1.19551C245.2 1.85358 240.22 2.2923 230.601 3.34523C230.217 3.3891 229.833 3.4549 229.46 3.54265H229.417C229.044 3.54265 228.671 3.56458 228.309 3.59749C220.291 4.50783 216.145 5.05623 208.139 6.25173C206.647 6.47109 205.287 7.01949 204.092 7.80918C203.214 7.55692 202.293 7.43627 201.372 7.43627C200.834 7.43627 200.297 7.48014 199.77 7.56789C191.775 8.88404 187.629 9.64083 179.644 11.2312C177.297 11.7028 175.213 12.997 173.754 14.8725C172.921 14.6532 172.076 14.4777 171.188 14.39C170.464 14.3132 169.718 14.2803 168.939 14.2803C167.897 14.2803 166.801 14.3461 165.671 14.4777C164.026 14.6751 162.15 15.0151 160.11 15.4977C155.482 16.5945 153.102 17.1758 148.517 18.3604C146.005 19.0075 143.516 19.8849 141.103 20.9707C139.578 21.6617 138.152 22.572 136.825 23.6688C135.652 23.1972 134.39 22.9559 133.129 22.9559C132.208 22.9559 131.264 23.0875 130.354 23.3508C120.998 26.0928 116.184 27.6063 106.916 30.7432C106.532 30.8748 106.159 31.0393 105.797 31.2038C105.402 31.2916 105.007 31.3903 104.623 31.5219C97.5928 33.9348 93.9844 35.24 87.0526 37.8723C83.85 39.0898 81.5577 41.8318 80.8557 45.0783C79.1996 43.9376 77.2253 43.3124 75.2072 43.3124C73.9349 43.3124 72.6517 43.5537 71.4123 44.0692C64.2064 47.0415 60.4992 48.6538 53.37 51.8894C50.8474 53.03 49.0048 55.1249 48.1273 57.5708C47.0306 57.1759 45.868 56.9675 44.7163 56.9675C43.2466 56.9675 41.7769 57.2966 40.4169 57.9547C30.787 62.6051 25.8624 65.1277 16.4629 70.2168C13.6222 71.7523 11.7028 74.5821 11.3189 77.7957C8.88402 98.3496 6.44913 118.904 4.02521 139.458C2.5226 146.126 1.74388 149.625 0.208366 156.469C-0.647134 160.319 0.844508 164.3 4.00328 166.647C5.74718 167.941 7.83109 168.588 9.915 168.588C11.615 168.588 13.3151 168.161 14.8396 167.283C20.9159 163.817 24.0966 162.062 29.8767 159.002C29.9864 161.569 31.2257 164.004 33.3535 165.572C34.8671 166.691 36.6658 167.261 38.4756 167.261C39.9453 167.261 41.415 166.888 42.7531 166.132C48.577 162.808 51.4506 161.229 57.3733 158.103C59.5669 156.94 61.1353 154.911 61.7166 152.542C62.7476 152.959 63.8444 153.167 64.9412 153.167C66.2464 153.167 67.5626 152.871 68.769 152.268C74.7246 149.318 77.6531 147.925 83.6525 145.183C83.8061 145.117 83.9268 145.018 84.0803 144.941C84.3326 144.854 84.5848 144.766 84.8261 144.645C90.8475 141.914 93.8198 140.631 99.9619 138.076C102.759 136.913 104.7 134.401 105.172 131.484C106.663 132.624 108.517 133.261 110.414 133.261C111.434 133.261 112.476 133.074 113.485 132.69C119.869 130.255 122.984 129.126 129.4 126.921C129.762 126.8 130.102 126.647 130.431 126.482C130.749 126.417 131.078 126.351 131.385 126.241C138.657 123.773 142.638 122.501 149.274 120.538C150.327 120.911 151.434 121.097 152.553 121.097C153.376 121.097 154.198 120.998 155.01 120.79C156.611 120.384 157.873 120.066 159.09 119.759C159.66 120.911 160.494 121.942 161.536 122.742C163.061 123.916 164.914 124.53 166.801 124.53C167.514 124.53 168.226 124.442 168.928 124.267C172.372 123.389 174.094 122.962 177.56 122.15C181.454 121.229 184.196 117.752 184.196 113.76V110.996C184.536 110.853 184.876 110.7 185.205 110.535C186.817 109.756 188.375 108.736 189.8 107.519C191.237 106.301 192.509 104.81 193.617 103.11C194.199 103.625 194.791 104.108 195.438 104.514C196.995 105.49 198.619 106.181 200.297 106.576C201.635 106.894 202.94 107.047 204.168 107.047C204.3 107.047 204.421 107.047 204.552 107.047C205.616 107.025 206.45 106.949 207.185 106.817C207.305 106.795 207.426 106.773 207.536 106.773C208.128 106.718 208.731 106.641 209.323 106.543C214.149 105.72 216.54 105.347 221.531 104.623C222.715 104.448 223.889 104.217 225.018 103.943C226.455 103.592 227.87 103.099 229.23 102.463C230.382 101.925 231.49 101.267 232.532 100.51C234.067 101.761 235.986 102.463 237.972 102.463C238.29 102.463 238.597 102.452 238.915 102.408C247.371 101.475 251.506 101.114 259.984 100.532C260.368 100.51 260.741 100.445 261.103 100.379C261.289 100.39 261.465 100.412 261.651 100.412C261.838 100.412 262.035 100.412 262.233 100.39C272.532 99.6987 282.962 99.3477 293.327 99.3477C295.4 99.3477 297.462 99.3587 299.524 99.3916C299.568 99.3916 299.601 99.3916 299.644 99.3916C299.919 99.3916 300.182 99.3806 300.456 99.3477C300.719 99.3806 300.993 99.4025 301.268 99.4025C307.783 99.4903 310.952 99.589 317.434 99.8742C317.577 99.8742 317.709 99.8742 317.84 99.8742C320.144 99.8742 322.249 98.9529 323.807 97.4502C325.266 99.2271 327.437 100.412 329.872 100.576C336.332 101.026 339.48 101.3 345.918 101.947C346.116 101.969 346.302 101.969 346.5 101.98C346.675 102.013 346.85 102.046 347.026 102.068C357.797 103.186 363.028 103.867 373.689 105.556C374.786 105.731 375.916 105.874 377.067 105.994C377.758 106.06 378.46 106.093 379.14 106.093C380.094 106.093 381.027 106.027 381.937 105.896C383.78 105.632 385.545 105.062 387.202 104.228C387.991 103.834 388.715 103.329 389.417 102.781C390.338 103.987 391.358 105.073 392.499 105.994C393.925 107.157 395.46 108.144 397.073 108.934C398.553 109.658 400.089 110.239 401.635 110.667C402.82 110.996 403.939 111.281 405.025 111.511C408.699 112.334 410.541 112.762 414.402 113.694C416.289 114.154 418.285 114.494 420.336 114.703C420.895 114.758 421.454 114.791 422.003 114.791C423.33 114.791 424.613 114.615 425.853 114.286C426.96 116.019 428.671 117.379 430.81 117.971C437.731 119.902 441.098 120.9 447.964 123.082C448.82 123.357 449.697 123.488 450.574 123.488C451.715 123.488 452.856 123.258 453.909 122.819C455.005 124.069 456.3 125.111 457.747 125.89C459.086 126.614 460.775 127.327 462.924 128.084C466.697 129.411 468.54 130.08 472.324 131.495C472.521 131.572 472.73 131.604 472.927 131.659C473.179 131.791 473.432 131.901 473.706 132.01C485.814 136.759 497.473 141.673 509.363 147.036C510.065 147.354 510.81 147.563 511.556 147.683C512.159 148.221 512.839 148.682 513.585 149.044C522.305 153.211 526.527 155.35 535.061 159.946C535.466 160.165 536.135 160.527 537.112 161.053C538.998 162.073 541.038 162.742 543.21 163.05C543.846 163.137 544.471 163.181 545.107 163.181C547.487 163.181 549.834 162.556 551.962 161.328C553.618 160.373 554.989 159.057 556.075 157.39C557.808 158.3 559.662 159.288 561.746 160.417C562.195 160.659 562.952 161.064 564.016 161.646C566.144 162.808 568.458 163.565 570.915 163.916C571.639 164.015 572.363 164.07 573.076 164.07C575.785 164.07 578.45 163.357 580.874 161.964C584.471 159.902 586.917 156.315 588.145 151.336C588.156 151.281 588.167 151.226 588.189 151.171C588.573 149.471 588.804 147.673 588.88 145.819C588.935 144.437 588.968 143.055 588.968 141.673V129.817C588.968 127.864 588.891 125.868 588.749 123.905L588.771 123.938ZM39.364 142.978C38.5962 136.211 38.2123 132.822 37.4336 126.055C33.7703 127.886 31.9387 128.83 28.3083 130.727C27.5734 138.262 27.2115 142.035 26.4766 149.57C19.8191 153.08 16.5177 154.9 9.94791 158.64C11.5163 151.632 12.295 148.133 13.8744 141.136C16.3203 120.417 18.7661 99.6987 21.223 78.9693C30.5567 73.913 35.2729 71.511 44.7712 66.9155C47.3267 85.0784 49.8932 103.23 52.4487 121.393C53.9404 126.811 54.6862 129.521 56.1888 134.95C49.4216 138.043 46.0544 139.644 39.364 142.956V142.978ZM107.903 114.341C100.675 116.82 97.0773 118.125 89.9153 120.856C84.6397 108.747 79.3641 96.6496 74.0666 84.541C74.253 98.6677 74.4395 112.805 74.615 126.932C67.7381 129.784 64.316 131.264 57.5049 134.357C58.9417 127.59 59.6547 124.212 61.1024 117.456V74.6259C59.6656 69.1529 58.9417 66.4219 57.5049 60.9599C64.5573 57.7572 68.111 56.2217 75.2401 53.2823C80.5377 65.5006 85.8242 77.7189 91.0998 89.9372C90.9462 75.6898 90.7817 61.4315 90.6282 47.1841C97.5051 44.5738 100.96 43.3234 107.903 40.9434C106.422 47.568 105.687 50.8803 104.206 57.505V100.335C105.676 105.928 106.422 108.725 107.903 114.33V114.341ZM133.184 106.301C123.927 109.01 119.309 110.469 110.151 113.573C111.632 106.959 112.367 103.658 113.858 97.0444V54.2256C112.378 48.599 111.632 45.7912 110.151 40.1866C119.32 37.0826 123.927 35.6239 133.184 32.9148C131.692 39.4627 130.946 42.7421 129.455 49.3009V92.1308C130.946 97.8012 131.692 100.631 133.184 106.312V106.301ZM177.571 73.2769C177.571 74.6588 177.56 76.1395 177.527 77.7079C177.494 79.2764 177.407 80.8557 177.242 82.4461C177.078 84.0364 176.792 85.6049 176.376 87.1513C175.959 88.6978 175.367 90.1017 174.599 91.374C173.831 92.6463 172.954 93.6992 171.966 94.5437C170.979 95.3773 169.948 96.0573 168.884 96.5728C167.81 97.0883 166.713 97.4941 165.594 97.7903C164.475 98.0864 163.39 98.3496 162.348 98.6019V108.791C158.443 109.712 156.491 110.195 152.597 111.182C152.564 107.113 152.542 105.084 152.509 101.015C151.522 101.267 150.469 101.497 149.362 101.728C148.243 101.947 147.135 102.09 146.049 102.134C144.963 102.177 143.932 102.046 142.945 101.728C141.969 101.41 141.07 100.839 140.258 100.028C138.843 98.547 138.021 96.7044 137.779 94.4889C137.538 92.2734 137.385 89.9262 137.33 87.4365V51.4726C137.33 50.1564 137.341 48.7854 137.374 47.3486C137.396 45.9228 137.505 44.5079 137.703 43.0931C137.889 41.6892 138.174 40.2853 138.558 38.9033C138.942 37.5214 139.501 36.1942 140.269 34.9439C141.684 32.5419 143.34 30.9077 145.238 30.0522C147.146 29.1967 149.076 28.5057 151.04 28.0012C155.591 26.8276 157.862 26.2682 162.435 25.1934C164.135 24.7876 165.616 24.5243 166.866 24.3708C168.128 24.2172 169.235 24.1953 170.201 24.294C171.166 24.3927 171.999 24.656 172.712 25.0947C173.425 25.5334 174.083 26.1366 174.687 26.9044C175.29 27.6721 175.783 28.5276 176.167 29.449C176.551 30.3703 176.836 31.478 177.034 32.7503C177.231 34.0226 177.363 35.4923 177.45 37.1375C177.538 38.7827 177.571 40.6801 177.571 42.8299V73.2879V73.2769ZM225.698 29.2077V67.5845C225.698 68.8349 225.688 70.1181 225.655 71.4343C225.622 72.7504 225.534 74.0995 225.358 75.4705C225.194 76.8415 224.909 78.1576 224.525 79.4189C224.141 80.6803 223.615 81.8758 222.946 82.9945C222.233 84.19 221.443 85.1442 220.609 85.8352C219.776 86.5371 218.887 87.0965 217.944 87.5352C217.001 87.9739 216.025 88.3139 215.027 88.5552C214.029 88.7965 213.031 88.994 212.032 89.1365C206.505 89.9372 203.752 90.3759 198.246 91.3082C197.862 91.374 197.467 91.4288 197.083 91.4508C196.699 91.4837 196.282 91.5385 195.844 91.6153C195.515 91.6701 194.999 91.714 194.308 91.725C193.617 91.7469 192.86 91.6592 192.027 91.4618C191.204 91.2643 190.36 90.9024 189.504 90.365C188.649 89.8275 187.892 89.0049 187.234 87.8752C186.302 86.252 185.775 84.3655 185.665 82.1938C185.556 80.0331 185.501 77.9492 185.501 75.9311V35.5142C183.943 29.7012 183.165 26.7947 181.618 20.9927C189.515 19.4133 193.475 18.6894 201.404 17.3842V75.5034C204.695 74.966 206.34 74.7027 209.63 74.2201V16.1119C217.549 14.9274 221.509 14.4119 229.45 13.5015C227.947 19.7862 227.201 22.934 225.698 29.2186V29.2077ZM255.52 84.519C245.978 85.1661 241.218 85.5939 231.698 86.6358C233.233 80.3512 234.001 77.2144 235.537 70.9407V28.1218C234.001 22.1662 233.233 19.1939 231.698 13.2493C241.207 12.2073 245.978 11.7796 255.52 11.1325C253.985 17.3513 253.206 20.4662 251.671 26.685V69.5149C253.206 75.5144 253.985 78.5196 255.52 84.519ZM300.27 83.2248C286.231 83.0274 272.038 83.4113 258.032 84.3545C259.568 78.1467 260.346 75.0427 261.882 68.8349V26.016C260.346 19.9946 259.568 16.9784 258.032 10.968C267.508 10.3647 272.257 10.1673 281.745 9.94793C280.231 16.09 279.485 19.172 277.972 25.325V68.1658C280.856 68.0781 282.293 68.0452 285.178 68.0013V55.0043C291.21 54.9056 294.237 54.8946 300.27 54.9604V83.2358V83.2248ZM334.533 84.5958C333.7 77.3899 333.283 73.7814 332.439 66.5755C328.457 66.3122 326.461 66.1916 322.469 66.0051C321.668 73.1233 321.262 76.677 320.462 83.7952C313.157 83.4661 309.505 83.3564 302.189 83.2577C303.933 77.1705 304.799 74.1214 306.554 68.0452C309.263 48.7525 311.972 29.449 314.681 10.1563C324.969 10.5183 330.113 10.8144 340.39 11.637C343.154 31.2477 345.907 50.8584 348.671 70.4801C350.272 76.7428 351.073 79.8796 352.685 86.1533C345.436 85.4184 341.805 85.1003 334.544 84.5958H334.533ZM398.257 72.6846C398.257 75.1743 398.137 77.7957 397.884 80.5157C397.632 83.2468 396.908 85.5391 395.691 87.3926C394.978 88.4456 394.155 89.2024 393.245 89.663C392.335 90.1237 391.38 90.4308 390.382 90.5733C389.384 90.7159 388.353 90.7379 387.267 90.6282C386.193 90.5185 385.118 90.3869 384.076 90.2224C372.055 88.3249 366.012 87.5352 353.925 86.2739C355.427 80.3183 356.184 77.346 357.687 71.3904V28.5715C356.184 22.2869 355.438 19.161 353.925 12.8873C365.88 14.1267 371.846 14.9054 383.747 16.781C385.513 17.0552 387.377 17.4829 389.307 18.0423C391.238 18.6126 392.982 19.8301 394.528 21.6946C395.417 22.8243 396.119 24.0747 396.645 25.4457C397.171 26.8276 397.544 28.2425 397.764 29.7012C397.983 31.16 398.126 32.6297 398.181 34.0884C398.235 35.5581 398.268 36.9839 398.268 38.3659V72.6737L398.257 72.6846ZM444.542 81.2067C444.542 82.7971 444.531 84.4752 444.498 86.241C444.465 88.0068 444.334 89.6959 444.092 91.3301C443.851 92.9644 443.434 94.467 442.864 95.838C442.294 97.209 441.427 98.2948 440.286 99.1064C438.872 100.115 437.237 100.532 435.384 100.335C433.53 100.137 431.753 99.8413 430.053 99.4245C425.82 98.3935 423.703 97.8999 419.458 96.9567C418.416 96.7264 417.32 96.4522 416.168 96.1341C415.016 95.816 413.876 95.3773 412.746 94.8289C411.616 94.2805 410.552 93.5895 409.532 92.756C408.512 91.9224 407.624 90.8804 406.845 89.6191C405.573 87.4255 404.838 85.232 404.619 83.0493C404.399 80.8557 404.257 78.5415 404.202 76.1066V40.1317C404.202 38.8156 404.213 37.4446 404.246 36.0297C404.268 34.6149 404.388 33.2548 404.575 31.9387C404.772 30.6225 405.057 29.3612 405.441 28.1547C405.825 26.9483 406.406 25.9063 407.174 25.0179C408.6 23.2959 410.278 22.4624 412.208 22.5172C414.128 22.572 416.08 22.8133 418.054 23.2521C422.628 24.2611 424.92 24.7876 429.483 25.8953C431.172 26.3011 432.653 26.7399 433.914 27.1896C435.164 27.6392 436.272 28.1438 437.226 28.7031C438.181 29.2625 439.014 29.9315 439.716 30.6993C440.418 31.478 441.076 32.3884 441.679 33.4523C442.283 34.5161 442.765 35.602 443.149 36.6988C443.533 37.8065 443.818 39.0459 444.005 40.4169C444.191 41.7879 444.334 43.3124 444.41 45.0015C444.487 46.6906 444.531 48.61 444.531 50.7487V81.2067H444.542ZM484.915 115.679C483.04 115.021 481.581 114.418 480.539 113.847C479.497 113.277 478.652 112.411 478.005 111.215C477.523 110.425 477.205 109.647 477.04 108.868C476.876 108.089 476.799 106.905 476.799 105.303V83.0493C473.289 81.8758 471.534 81.3054 468.013 80.1867V110.02C460.292 107.574 456.409 106.411 448.622 104.25C450.092 98.5471 450.827 95.6954 452.285 90.003V47.1841C450.816 40.6472 450.092 37.3897 448.622 30.8638C460.643 34.209 466.621 36.0517 478.499 40.0659C480.319 40.6801 482.129 41.4808 483.917 42.446C485.705 43.4221 487.328 44.9686 488.765 47.0744C489.565 48.259 490.191 49.4655 490.64 50.661C491.09 51.8674 491.43 53.0739 491.638 54.3023C491.847 55.5198 491.989 56.7701 492.033 58.0314C492.088 59.3037 492.11 60.5541 492.11 61.8044C492.11 64.2283 492.066 66.4329 491.989 68.4181C491.913 70.4033 491.606 72.1033 491.068 73.5401C490.542 74.9769 489.719 76.1176 488.633 76.9731C487.536 77.8286 486.001 78.3221 484.027 78.4538C484.235 78.6731 484.443 78.8267 484.63 78.9254C484.816 79.0241 484.992 79.1338 485.156 79.2654C485.584 79.5506 486.209 80.0551 487.043 80.768C487.865 81.4809 488.677 82.5996 489.489 84.0365C490.52 85.8681 491.2 87.6888 491.408 89.4656C491.616 91.2424 491.748 93.074 491.803 94.9605V102.857C493.306 109.515 494.051 112.849 495.554 119.529C491.309 117.938 489.182 117.171 484.915 115.668V115.679ZM537.298 137.056C524.016 131.067 510.777 125.495 497.221 120.165C498.691 114.604 499.415 111.829 500.884 106.279V63.4496C499.426 56.7701 498.691 53.4359 497.221 46.7673C510.47 51.7029 523.643 57.2527 536.443 63.2522V87.272C531.43 81.448 528.919 78.5744 523.862 72.8711C520.66 71.4781 519.058 70.7872 515.845 69.4491V83.3784C520.385 85.2758 522.645 86.252 527.153 88.2481V101.761C522.645 99.7645 520.385 98.7883 515.845 96.8909V112.279C519.058 113.617 520.66 114.308 523.862 115.701C529.258 114.264 531.946 113.584 537.298 112.301V137.045V137.056ZM579.02 141.706C579.02 142.956 578.998 144.207 578.943 145.457C578.888 146.707 578.746 147.892 578.494 148.989C577.945 151.237 577.09 152.696 575.927 153.365C574.765 154.034 573.558 154.275 572.297 154.1C571.035 153.924 569.862 153.54 568.765 152.948C567.679 152.356 566.901 151.939 566.451 151.698C556.832 146.521 551.973 144.064 542.179 139.381V116.929C547.849 122.512 550.668 125.342 556.284 131.089C559.563 132.767 561.197 133.623 564.466 135.366V120.604C560.166 118.311 558.005 117.193 553.673 114.999C553.267 114.791 552.872 114.582 552.522 114.363C552.16 114.143 551.776 113.935 551.37 113.738C551.063 113.584 550.602 113.299 549.988 112.893C549.374 112.487 548.694 111.906 547.948 111.16C547.202 110.414 546.445 109.526 545.667 108.484C544.899 107.453 544.175 106.181 543.495 104.678C542.563 102.572 542.014 100.609 541.828 98.7883C541.641 96.9677 541.51 95.0263 541.4 92.9644C541.4 88.0946 541.4 85.6707 541.4 80.8009C541.499 78.7718 541.674 76.9511 541.905 75.3279C542.135 73.7046 542.771 72.3446 543.802 71.2478C545.14 69.822 546.687 69.3065 548.441 69.7123C550.185 70.1181 551.962 70.7872 553.75 71.6865C563.314 76.5234 568.052 79.068 577.43 84.3765V105.896C572.275 100.477 569.675 97.8122 564.466 92.5366C561.208 90.8037 559.563 89.9482 556.284 88.2591V101.673C560.243 103.702 562.217 104.733 566.144 106.839C566.55 107.058 566.977 107.289 567.438 107.541C567.899 107.793 568.359 108.111 568.809 108.385C569.083 108.561 569.621 108.879 570.323 109.372C571.035 109.866 571.814 110.535 572.67 111.391C573.525 112.246 574.414 113.31 575.313 114.582C576.223 115.854 576.958 117.423 577.572 119.189C578.241 121.097 578.691 122.94 578.812 124.673C578.932 126.406 578.998 128.139 578.998 129.872V141.728L579.02 141.706Z" fill="white"/>
</g>
<defs>
<clipPath id="clip0_486_26242">
<rect width="588.99" height="702.168" fill="white"/>
</clipPath>
</defs>
</svg>
