<svg xmlns="http://www.w3.org/2000/svg" width="589" height="703" fill="none"><g fill="#fff" clip-path="url(#a)"><path d="M521.175 221.432h-33.726v-52.449h-72.553l-62.035-62.035h-116.71l-62.035 62.035h-72.575v52.449H67.815S17.132 450.443 219.37 652.692v19.303s23.34 30.173 75.13 30.173c51.791 0 75.131-30.173 75.131-30.173v-19.303c202.238-202.238 151.555-431.26 151.555-431.26m-91.78 78.618 30.217 60.039a12.2 12.2 0 0 1 .252 10.924l-62.912 133.502s-4.585 8.577-14.313 17.121h.022l-.351.285a73.133 73.133 0 0 1-1.931 1.612l-17.318 14.489a4.875 4.875 0 0 1-3.257 1.13l-22.945-.582h.022-.011c-4.497 4.322-15.816 9.937-15.816 9.937l-23.285-3.005-2.358-7.338c-21.805-10.046-36.282-26.97-41.909-34.428-.493-.658.329-1.492.998-1.02 13.129 9.4 22.792 12.229 27.914 13.063-1.459-6.998-1.382-16.178 1.897-28.067l2.819 5.791s.79 29.8 16.913 42.281c9.355 3.971 16.035 1.997 19.632.055-21.047-8.226-8.544-24.853-8.544-24.853l63.91-88.819c1.174-1.25 3.181.121 2.446 1.668l-19.402 40.438-12.01 11.955-.055.11s-18.097 21.475-26.071 35.021c-2.424 6.197-2.939 11.768 1.437 14.028 9.86 5.067 23.011 6.899 32.641-.987l24.129-51.604c.077-.165.154-.341.231-.505l.274-.581-.022.098a25.61 25.61 0 0 1 9.246-10.244c.691-.438 1.546.264 1.25 1.02-3.773 9.839-22.078 51.341-12.438 46.461 21.596-26.674 71.698-141.224 71.698-141.224l-25.358-58.7s-.877-3.367-5.396-2.26c-4.519 1.108-4.793.56-4.793.56l-1.218-3.104 8.117-1.393c-6.768-1.722-18.931-4.069-35.284-4.146-5.572-.34-7.535 1.426-7.985 3.532l21.004 1.436.636 3.181-12.317.494-9.378 2.489-4.387-2.391s-1.492 1.349-1.634 4.245h31.193l-1.185 4.958-17.23.658-7.513 3.718-6.132-5.013s-7.842 3.543-1.612 11.275l32.367-5.9.438 3.849-13.249 1.646-12.789 7.918-5.78-4.332s-3.378 2.117-.208 17.33c2.533 7.611 2.117 6.975 9.301 8.028 7.184 1.053 7.184 0 6.548-2.961-.637-2.962 1.48-6.131-6.132-6.976l-2.533-2.961 27.968-5.287-1.974 2.325s-5.188 1.755-8.873 5.649l6.186 8.007c.351.46-.154 1.074-.669.833l-8.5-4.091c-.889 2.512-.966 5.506.449 9.049 5.495 13.731 10.31 23.46 16.858 17.537 6.548-5.911 6.219-8.653 6.219-8.653l4.255 6.197-30.085 31.829 10.99-20.072-1.272-1.733-77.401 88.128c-.691.789-1.941-.077-1.448-.998l10.859-21.827-19.359 7.711-23.186 25.051-3.916-.976 24.459-33.617 28.955-12.12 55.926-58.338-8.818-11.999-18.767-4.695s-8.708-21.08-6.175-31.851l2.775-.504-3.882-10.847 6.043-4.695-2.413-5.056 8.336-6.131.899.066 3.916-9.257s35.646-5.352 51.132 7.425m-8.094-64.272a4.31 4.31 0 1 1 8.62 0 4.31 4.31 0 0 1-8.62 0ZM300.423 620.325c.79.933 1.941 1.624 3.466 2.084 1.525.461 3.4.702 5.638.702 1.809 0 3.323-.164 4.529-.482 1.207-.318 2.15-.779 2.841-1.371.68-.593 1.174-1.284 1.459-2.051h6.065c-.175 1.875-.845 3.466-2.007 4.76-1.163 1.294-2.819 2.281-4.98 2.95-2.16.669-4.793 1.009-7.907 1.009-2.501 0-4.761-.208-6.779-.625-2.018-.417-3.751-1.075-5.188-1.952-1.436-.889-2.544-2.029-3.312-3.433-.779-1.404-1.162-3.104-1.162-5.089 0-1.986.383-3.697 1.162-5.122.779-1.426 1.876-2.589 3.312-3.499 1.437-.91 3.17-1.58 5.188-2.029 2.018-.439 4.289-.658 6.779-.658 3.114 0 5.758.351 7.929 1.064 2.172.701 3.828 1.722 4.991 3.049 1.162 1.327 1.82 2.939 1.974 4.847h-6.065a4.76 4.76 0 0 0-1.426-2.204c-.691-.614-1.634-1.086-2.852-1.426-1.217-.34-2.731-.515-4.541-.515-2.237 0-4.113.241-5.637.713-1.525.471-2.676 1.184-3.466 2.138s-1.173 2.172-1.173 3.653c0 1.48.394 2.588 1.173 3.52m-12.953-5.012v4.343h-16.353v7.733h-5.967v-21.355H291.1v4.716h-19.961v4.574h16.353l-.011-.011Zm7.019 28.747a3.988 3.988 0 0 1 3.982 3.981 3.982 3.982 0 1 1-3.982-3.981Zm-43.158-150.755-15.103-17.921s2.095-.351 7.359-2.676l16.2 16.079a203.809 203.809 0 0 1-8.456 4.529m57.954 34.933-9.158-1.425 8.204-10.31s-2.479 5.824.954 11.735Zm82.677-86.537 16.835-45.835 6.34-1.239-15.52 43.981-7.655 3.093Zm22.385-116.238s8.764-1.558 11.824 0c0 0 3.18 5.429 2.742 10.737h-2.83s-1.623-6.383-3.378-7.271c-1.053-.538-8.369-.713-8.369-.713v-2.764l.011.011Zm-.449-8.226v-2.654s9.202-2.688 12.262-1.13c0 0 3.63 5.276 3.191 10.573h-2.742s-2.435-6.021-4.518-6.603c-1.13-.318-8.193-.197-8.193-.197m15.486 35.459 3.488-2.555 5.912 12.383-3.378 2.358-6.022-12.186Zm-85.813-132.723a3.988 3.988 0 0 1 3.981-3.981 3.981 3.981 0 1 1-3.981 3.981Zm62.901-7.974a4.311 4.311 0 1 1 0 8.62 4.311 4.311 0 0 1 0-8.62Zm0 19.458c2.38 0 4.311 1.93 4.311 4.31a4.311 4.311 0 0 1-8.621 0 4.31 4.31 0 0 1 4.31-4.31ZM245.09 128.566h98.81l55.092 55.092-6.954 6.943-52.218-52.218h-90.661l-52.219 52.218-6.942-6.943 55.081-55.092h.011Zm75.942 72.959-17.154 9.378-9.378 34.658-9.377-34.658-17.154-9.378 17.154-9.377 9.377-22.989 9.378 22.989 17.154 9.377Zm-75.624 18.448a3.989 3.989 0 0 1-3.982 3.982 3.981 3.981 0 0 1-3.981-3.982 3.974 3.974 0 0 1 3.981-3.981 3.974 3.974 0 0 1 3.982 3.981ZM182.507 212a4.31 4.31 0 1 1 0 8.62 4.31 4.31 0 0 1 0-8.62Zm0 19.457a4.31 4.31 0 1 1 0 8.62 4.31 4.31 0 0 1 0-8.62Zm-7.853 55.081c.318-.143.636-.296.954-.428a87.428 87.428 0 0 1 3.323-1.349c.241-.088.483-.165.724-.252a77.194 77.194 0 0 1 2.643-.922c.439-.142.878-.274 1.327-.405.439-.132.878-.286 1.317-.406h.021c17.604-5.057 36.326-3.762 52.888 3.334h.011c.11.044.219.099.329.143.252.109.494.219.735.329a71.12 71.12 0 0 1 2.446 1.14c.263.132.537.263.8.395.998.505 1.996 1.02 2.973 1.569.142.076.285.164.427.241.856.482 1.7.987 2.545 1.502.263.165.537.329.801.494a86.79 86.79 0 0 1 2.665 1.755l.197.131a80.485 80.485 0 0 1 2.753 2.019c.252.197.505.383.757.581a79.287 79.287 0 0 1 2.183 1.777c.186.153.373.307.559.471a82.924 82.924 0 0 1 3.192 2.907c.658.625 1.294 1.272 1.93 1.919.219.231.45.461.669.691a73.68 73.68 0 0 1 2.325 2.556c.154.186.318.373.472.559.625.724 1.228 1.47 1.832 2.227.219.274.438.548.658.833.702.91 1.393 1.832 2.062 2.775.022.033.043.066.076.099a90.538 90.538 0 0 1 2.26 3.411c.197.318.384.647.581.965a86.1 86.1 0 0 1 1.503 2.555c.087.154.175.297.263.45v.022a78.403 78.403 0 0 1 9.476 31.719l18.624 61.18c.428-2.687.647-10.036 1.119-11.056 0 0 9.739 9.641 9.739 28.824 0 0-1.152 6.581-2.885 8.434l1.163 3.817-30.776-62.748c-.121.417-.252.823-.384 1.24-.164.537-.34 1.075-.526 1.612a45.652 45.652 0 0 1-.56 1.59l-.559 1.525a51.227 51.227 0 0 1-.658 1.645c-.198.472-.395.954-.592 1.426-.253.57-.505 1.141-.768 1.711-.209.439-.406.877-.614 1.316a56.353 56.353 0 0 1-.9 1.788c-.208.395-.406.79-.614 1.184-.34.637-.702 1.262-1.053 1.887-.197.34-.384.691-.592 1.031a65.15 65.15 0 0 1-1.261 2.04c-.176.274-.34.537-.505.812a67.654 67.654 0 0 1-1.59 2.325c-.11.153-.209.307-.318.46a77.71 77.71 0 0 1-4.289 5.462 72.232 72.232 0 0 1-2.49 2.753l14.467 34.582-23.811-39.429 2.939-3.05a68.063 68.063 0 0 0 3.817-4.573l-5.659-22.155 14.039-8.885 5.418-16.517a68.255 68.255 0 0 0-10.288-30.634l-22.726-2.489-4.661-22.397c-16.518-8.259-35.953-9.641-53.71-3.356l-6.932 20.214 13.151 18.733-1.975 1.382-13.15-18.733-16.353-.264-13.864 13.864a69.101 69.101 0 0 0-6.197 38.048l19.534 11.889-4.596 19.402 2.216 6.263a68.433 68.433 0 0 0 35.361 20.916l16.748-13.271-.735-17.538 2.413-.099.735 17.538 17.812 11.834a68.357 68.357 0 0 0 13.381-6.01l7.864 6.976a78.595 78.595 0 0 1-13.359 6.876l19.972 34.758a127.35 127.35 0 0 0 10.135-6.767l-4.168-9.608 8.357 6.383a140.767 140.767 0 0 0 7.491-6.438l4.245 3.773-2.72-5.199c6.208-5.912 12.394-12.92 17.955-21.036l10.54 18.854c-7.349 9.958-21.497 25.632-41.327 38.322l7.381 12.854-13.162-16.255-9.761-12.042-27.365-33.782c-.23.055-.461.099-.702.143-.066.022-.143.033-.219.044l-.988.197-.734.132c-.176.033-.34.066-.516.088-.219.043-.45.076-.669.109-.285.055-.57.099-.866.143-.417.066-.834.131-1.24.186l-.263.033c-.373.044-.735.099-1.108.143-.438.055-.866.098-1.305.142a71.424 71.424 0 0 1-5.725.373l-2.402-1.711-12.372-8.796 5.769 8.05 68.528 95.564-29.23-29.515-4.266 29.515-19.041-.351 18.646-33.869-4.42-4.464-17.779 22.342-12.438-17.615 26.641-8.335-62.605-63.23h.033a78.144 78.144 0 0 1-16.309-13.941h-.022c-.187-.208-.351-.427-.527-.636a83.973 83.973 0 0 1-1.798-2.139c-.297-.373-.604-.734-.9-1.107a63.87 63.87 0 0 1-2.04-2.742c-.12-.165-.252-.318-.373-.494a81.547 81.547 0 0 1-2.084-3.137 31.641 31.641 0 0 0-.34-.537 73.58 73.58 0 0 1-1.831-3.093c-.022-.033-.033-.055-.055-.088a77.847 77.847 0 0 1-1.733-3.279c-.099-.187-.187-.384-.285-.571a67.905 67.905 0 0 1-1.349-2.895c-.066-.154-.143-.318-.209-.472a78.067 78.067 0 0 1-1.338-3.301c-.077-.198-.142-.395-.219-.592a84.324 84.324 0 0 1-.976-2.786c-.088-.253-.165-.505-.253-.768a86.486 86.486 0 0 1-.965-3.279c-.055-.198-.098-.384-.142-.571a80.413 80.413 0 0 1-.669-2.753c-.077-.34-.154-.669-.22-1.009a73.147 73.147 0 0 1-.57-3.027c-.044-.241-.077-.483-.121-.724a80.916 80.916 0 0 1-.526-4.003c-.077-.746-.143-1.503-.209-2.26-1.425-18.481 3.697-37.126 14.741-52.371v-.022c.253-.351.527-.702.79-1.042.296-.395.592-.79.888-1.174a90.825 90.825 0 0 1 1.613-1.985c.219-.263.417-.527.636-.779a74.976 74.976 0 0 1 2.347-2.61c.274-.296.559-.582.845-.867.57-.581 1.14-1.162 1.722-1.733.329-.318.669-.636 1.009-.954a78.59 78.59 0 0 1 1.744-1.59c.34-.307.68-.603 1.031-.9a72.61 72.61 0 0 1 1.985-1.623c.296-.241.592-.482.899-.724a77.38 77.38 0 0 1 3.016-2.237 81.547 81.547 0 0 1 3.137-2.084c.307-.198.625-.384.932-.57a94.847 94.847 0 0 1 2.271-1.35c.373-.219.757-.427 1.14-.636a58.428 58.428 0 0 1 2.172-1.14c.384-.198.768-.395 1.152-.582a95.292 95.292 0 0 1 2.38-1.107m22.912 125.308-8.029 6.373a62.29 62.29 0 0 1-19.819-9.816c12.394 6.24 23.164 4.661 27.848 3.443Zm-35.767-33.254-.932-2.227 15.98-6.679.933 2.226-15.981 6.68Zm18.613-9.082 11.099-32.706 34.539.449 10.244 32.992-28.21 19.929-27.672-20.664Zm4.53-58.667 4.091-11.934a62.032 62.032 0 0 1 17.669-2.566c.823 0 1.634.022 2.446.055-12.043 2.38-20.795 10.705-24.206 14.445Zm42.939 26.202-1.788-1.623 12.109-13.337 1.777 1.634-12.098 13.326Zm13.951 22.199c.231.439.483.889.735 1.316l.132.231a38.24 38.24 0 0 0 5.517 7.096l-6.57-2.61-4.365-14.061 4.54 8.028h.011Zm9.905 42.183a62.894 62.894 0 0 1-22.77 15.147l-8.928-5.923c6.888.417 20.028-.263 31.708-9.224m-14.477-29.504.888-2.248 14.993 5.955-.888 2.249-14.993-5.956Zm-83.828-3.619-8.676-5.287a62.399 62.399 0 0 1 .79-15.223 63.01 63.01 0 0 1 3.674-12.822c-3.4 15.98 2.04 28.977 4.212 33.332Zm21.53 75.909 33.09 38.026-3.115 6.208-29.975-44.234Zm-15.893-208.435a4.311 4.311 0 0 1 8.621 0 4.31 4.31 0 0 1-8.621 0Zm340.435 124.53c-7.195 45.528-21.015 89.882-41.086 131.824-25.084 52.416-60.105 101.289-104.086 145.27l-6.329 6.329v19.413l-1.908 1.47c-7.711 5.944-24.656 15.925-51.593 15.925-26.938 0-43.883-9.981-51.594-15.925l-1.908-1.47v-19.413l-6.329-6.329c-43.981-43.981-78.991-92.854-104.086-145.27-20.071-41.942-33.901-86.296-41.085-131.824-8.073-51.122-5.802-92.646-3.73-112.838l.45-4.409h36.951v-52.449h48.5v9.816h-38.673v52.449H95.092c-1.864 20.993-3.268 59.348 4.08 105.896 7.042 44.595 20.587 88.028 40.242 129.125 24.601 51.407 58.974 99.37 102.166 142.562l9.213 9.213v18.59c7.425 5.21 21.728 12.471 43.685 12.471 21.958 0 36.261-7.272 43.686-12.471v-18.59l9.213-9.213c43.192-43.192 77.565-91.155 102.166-142.562 19.666-41.086 33.2-84.53 40.242-129.125 7.348-46.548 5.944-84.903 4.08-105.896h-37.872v-52.449H417.32v-9.816h48.5v52.449h36.951l.45 4.409c2.072 20.203 4.343 61.716-3.73 112.838M152.926 85.638c3.565-.91 5.353-1.35 8.939-2.194v-42.84a444.243 444.243 0 0 0-8.939 2.193V85.637ZM420.138 81.82c3.455.78 5.177 1.174 8.632 2.008v-42.83a468.622 468.622 0 0 0-8.632-2.007v42.83ZM373.7 73.408c3.466.483 5.188.735 8.643 1.273V31.84c-3.455-.538-5.188-.79-8.643-1.272V73.408ZM323.752 53.392c2.983.153 4.475.241 7.458.428-1.47-12.405-2.204-18.602-3.685-30.996a33042.693 33042.693 0 0 1-3.773 30.568ZM468.024 66.477a482.312 482.312 0 0 1 8.786 2.862V54.785a512.743 512.743 0 0 0-8.786-2.863v14.555ZM29.46 117.456a569.885 569.885 0 0 1 6.822-3.499c-1.349-11.626-2.029-17.439-3.378-29.054-1.382 13.019-2.073 19.523-3.444 32.553Z"/><path d="M588.771 123.938c-.187-2.534-.768-5.177-1.777-8.062a34.703 34.703 0 0 0-1.656-3.937 9.975 9.975 0 0 0 2.062-6.065v-21.52a9.947 9.947 0 0 0-5.046-8.653c-9.443-5.342-14.39-7.996-24.085-12.91-2.479-1.25-5.013-2.193-7.524-2.785a14.293 14.293 0 0 0-3.313-.384c-.57 0-1.14.033-1.711.099-.899-2.359-2.676-4.355-5.045-5.462a535.17 535.17 0 0 0-39.967-16.803 9.82 9.82 0 0 0-3.433-.615c-1.228 0-2.435.23-3.587.658-1.546-1.535-3.213-2.807-5.012-3.784a44.908 44.908 0 0 0-6.987-3.07c-11.966-4.048-18.206-5.978-30.392-9.367a9.826 9.826 0 0 0-2.632-.362 9.979 9.979 0 0 0-3.992.833 20.384 20.384 0 0 0-2.413-1.645c-1.481-.855-3.148-1.623-4.958-2.281-1.612-.581-3.444-1.119-5.451-1.601a528.61 528.61 0 0 0-11.626-2.688 41.287 41.287 0 0 0-7.699-.965h-.417c-3.477 0-6.767 1.13-9.564 3.236-.055-.077-.11-.154-.176-.242-.055-.065-.109-.142-.164-.208-2.83-3.422-6.219-5.725-10.102-6.866-2.336-.68-4.628-1.206-6.811-1.546-12.01-1.887-18.251-2.698-30.337-3.96a10.143 10.143 0 0 0-.998-.055 10.05 10.05 0 0 0-6.153 2.117c-1.656-1.875-3.993-3.126-6.625-3.334C330.826.877 325.452.571 315.032.208h-.34c-4.946 0-9.169 3.63-9.86 8.566l-5.089 36.227a572 572 0 0 0-5.78-.032c-1.865 0-3.652.01-5.714.032v-5.253l3.148-12.822a8.616 8.616 0 0 0-1.646-7.447c-.022-.033-.055-.055-.076-.088l1.733-7.074a9.983 9.983 0 0 0-1.898-8.599C287.613 1.35 284.728 0 281.712 0h-.187c-9.586.22-14.543.428-24.118 1.031a9.647 9.647 0 0 0-1.261.165c-.22-.011-.439-.022-.67-.022-.208 0-.416 0-.636.022-9.64.658-14.62 1.096-24.239 2.15-.384.043-.768.109-1.141.197h-.043c-.373 0-.746.022-1.108.054-8.018.91-12.164 1.46-20.17 2.655a9.928 9.928 0 0 0-4.047 1.557 9.871 9.871 0 0 0-2.72-.373c-.538 0-1.075.044-1.602.132-7.995 1.316-12.141 2.073-20.126 3.663a9.934 9.934 0 0 0-5.89 3.642 16.315 16.315 0 0 0-2.566-.483c-.724-.077-1.47-.11-2.249-.11-1.042 0-2.138.066-3.268.198-1.645.197-3.521.537-5.561 1.02a497.472 497.472 0 0 0-11.593 2.862 46.187 46.187 0 0 0-7.414 2.61 19.08 19.08 0 0 0-4.278 2.699 9.935 9.935 0 0 0-6.471-.318c-9.356 2.742-14.17 4.255-23.438 7.392-.384.132-.757.296-1.119.46-.395.089-.79.187-1.174.319-7.03 2.413-10.639 3.718-17.57 6.35a9.957 9.957 0 0 0-6.197 7.206 9.98 9.98 0 0 0-5.649-1.766 9.843 9.843 0 0 0-3.795.757c-7.206 2.972-10.913 4.585-18.042 7.82a9.903 9.903 0 0 0-5.243 5.682 10.113 10.113 0 0 0-3.41-.603c-1.47 0-2.94.329-4.3.987-9.63 4.65-14.555 7.173-23.954 12.262a9.958 9.958 0 0 0-5.144 7.579c-2.435 20.554-4.87 41.108-7.294 61.662-1.502 6.668-2.281 10.167-3.817 17.011a9.98 9.98 0 0 0 3.795 10.178 9.913 9.913 0 0 0 5.912 1.941c1.7 0 3.4-.427 4.925-1.305 6.076-3.466 9.257-5.221 15.037-8.281a8.604 8.604 0 0 0 8.599 8.259c1.47 0 2.939-.373 4.277-1.129 5.824-3.324 8.698-4.903 14.62-8.029a8.622 8.622 0 0 0 4.344-5.561 8.603 8.603 0 0 0 3.224.625 8.567 8.567 0 0 0 3.828-.899c5.956-2.95 8.884-4.343 14.883-7.085.154-.066.275-.165.428-.242.253-.087.505-.175.746-.296 6.022-2.731 8.994-4.014 15.136-6.569a8.628 8.628 0 0 0 5.21-6.592 8.667 8.667 0 0 0 5.242 1.777c1.02 0 2.062-.187 3.071-.571 6.384-2.435 9.499-3.564 15.915-5.769a7.846 7.846 0 0 0 1.031-.439c.318-.065.647-.131.954-.241 7.272-2.468 11.253-3.74 17.889-5.703a9.808 9.808 0 0 0 3.279.559c.823 0 1.645-.099 2.457-.307 1.601-.406 2.863-.724 4.08-1.031a8.544 8.544 0 0 0 2.446 2.983 8.622 8.622 0 0 0 5.265 1.788 8.78 8.78 0 0 0 2.127-.263 379.748 379.748 0 0 1 8.632-2.117 8.621 8.621 0 0 0 6.636-8.39v-2.764c.34-.143.68-.296 1.009-.461a21.567 21.567 0 0 0 4.595-3.016c1.437-1.218 2.709-2.709 3.817-4.409.582.515 1.174.998 1.821 1.404 1.557.976 3.181 1.667 4.859 2.062 1.338.318 2.643.471 3.871.471h.384c1.064-.022 1.898-.098 2.633-.23.12-.022.241-.044.351-.044a25.38 25.38 0 0 0 1.787-.23 412.418 412.418 0 0 1 12.208-1.92 39.083 39.083 0 0 0 3.487-.68 22.621 22.621 0 0 0 4.212-1.48 20.11 20.11 0 0 0 3.302-1.953 8.623 8.623 0 0 0 5.44 1.953c.318 0 .625-.011.943-.055 8.456-.933 12.591-1.294 21.069-1.876a9.137 9.137 0 0 0 1.119-.153c.186.011.362.033.548.033.187 0 .384 0 .582-.022a465.618 465.618 0 0 1 31.094-1.042c2.073 0 4.135.01 6.197.044h.12c.275 0 .538-.011.812-.044.263.033.537.055.812.055 6.515.087 9.684.186 16.166.471h.406a8.577 8.577 0 0 0 5.967-2.424 8.602 8.602 0 0 0 6.065 3.126c6.46.45 9.608.724 16.046 1.371.198.022.384.022.582.033.175.033.35.066.526.088 10.771 1.118 16.002 1.799 26.663 3.488 1.097.175 2.227.318 3.378.438.691.066 1.393.099 2.073.099.954 0 1.887-.066 2.797-.197a17.07 17.07 0 0 0 5.265-1.668c.789-.394 1.513-.899 2.215-1.447.921 1.206 1.941 2.292 3.082 3.213a23.83 23.83 0 0 0 4.574 2.94 26.504 26.504 0 0 0 4.562 1.733 56.36 56.36 0 0 0 3.39.844c3.674.823 5.516 1.251 9.377 2.183 1.887.46 3.883.8 5.934 1.009.559.055 1.118.088 1.667.088 1.327 0 2.61-.176 3.85-.505 1.107 1.733 2.818 3.093 4.957 3.685 6.921 1.931 10.288 2.929 17.154 5.111a8.51 8.51 0 0 0 2.61.406c1.141 0 2.282-.23 3.335-.669a13.829 13.829 0 0 0 3.838 3.071c1.339.724 3.028 1.437 5.177 2.194a422.091 422.091 0 0 1 9.4 3.411c.197.077.406.109.603.164.252.132.505.242.779.351a767.364 767.364 0 0 1 35.657 15.026 8.65 8.65 0 0 0 2.193.647 8.853 8.853 0 0 0 2.029 1.361c8.72 4.167 12.942 6.306 21.476 10.902.405.219 1.074.581 2.051 1.107a18.068 18.068 0 0 0 6.098 1.997 13.667 13.667 0 0 0 8.752-1.722c1.656-.955 3.027-2.271 4.113-3.938 1.733.91 3.587 1.898 5.671 3.027.449.242 1.206.647 2.27 1.229a20.3 20.3 0 0 0 6.899 2.27c.724.099 1.448.154 2.161.154 2.709 0 5.374-.713 7.798-2.106 3.597-2.062 6.043-5.649 7.271-10.628a.916.916 0 0 1 .044-.165c.384-1.7.615-3.498.691-5.352.055-1.382.088-2.764.088-4.146v-11.856c0-1.953-.077-3.949-.219-5.912l.022.033Zm-549.407 19.04c-.768-6.767-1.152-10.156-1.93-16.923a475.092 475.092 0 0 0-9.126 4.672c-.735 7.535-1.096 11.308-1.831 18.843-6.658 3.51-9.96 5.33-16.53 9.07 1.57-7.008 2.348-10.507 3.927-17.504 2.446-20.719 4.892-41.437 7.349-62.167 9.334-5.056 14.05-7.458 23.548-12.053 2.556 18.162 5.122 36.314 7.678 54.477 1.491 5.418 2.237 8.128 3.74 13.557-6.767 3.093-10.135 4.694-16.825 8.006v.022Zm68.539-28.637c-7.228 2.479-10.826 3.784-17.988 6.515a25866.258 25866.258 0 0 0-15.848-36.315c.186 14.127.373 28.264.548 42.391-6.877 2.852-10.299 4.332-17.11 7.425 1.437-6.767 2.15-10.145 3.597-16.901v-42.83c-1.436-5.473-2.16-8.204-3.597-13.666 7.052-3.203 10.606-4.738 17.735-7.678A26333.632 26333.632 0 0 1 91.1 89.937c-.154-14.247-.318-28.505-.472-42.753 6.877-2.61 10.332-3.86 17.275-6.24-1.481 6.624-2.216 9.936-3.697 16.561v42.83c1.47 5.593 2.216 8.39 3.697 13.995v.011Zm25.281-8.04c-9.257 2.709-13.875 4.168-23.033 7.272 1.481-6.614 2.216-9.915 3.707-16.529V54.226c-1.48-5.627-2.226-8.435-3.707-14.04 9.169-3.103 13.776-4.562 23.033-7.271-1.492 6.548-2.238 9.827-3.729 16.386v42.83c1.491 5.67 2.237 8.5 3.729 14.181v-.011Zm44.387-33.024c0 1.382-.011 2.862-.044 4.43a57.599 57.599 0 0 1-.285 4.74 29.876 29.876 0 0 1-.866 4.704 16.35 16.35 0 0 1-1.777 4.223c-.768 1.272-1.645 2.325-2.633 3.17a14.785 14.785 0 0 1-3.082 2.029 18.578 18.578 0 0 1-3.29 1.217c-1.119.296-2.204.56-3.246.812v10.189a503.599 503.599 0 0 0-9.751 2.391c-.033-4.069-.055-6.098-.088-10.167-.987.252-2.04.482-3.147.713a21.914 21.914 0 0 1-3.313.406 8.878 8.878 0 0 1-3.104-.406c-.976-.318-1.875-.889-2.687-1.7-1.415-1.481-2.237-3.324-2.479-5.54a81.956 81.956 0 0 1-.449-7.052V51.473c0-1.317.011-2.688.044-4.124.022-1.426.131-2.841.329-4.256.186-1.404.471-2.808.855-4.19a15.4 15.4 0 0 1 1.711-3.96c1.415-2.401 3.071-4.035 4.969-4.89A36.172 36.172 0 0 1 151.04 28a453.7 453.7 0 0 1 11.395-2.808c1.7-.405 3.181-.669 4.431-.822 1.262-.154 2.369-.176 3.335-.077.965.099 1.798.362 2.511.8.713.44 1.371 1.043 1.975 1.81a10.885 10.885 0 0 1 1.48 2.545c.384.921.669 2.029.867 3.301.197 1.273.329 2.742.416 4.388.088 1.645.121 3.542.121 5.692v30.458-.011Zm48.127-44.07v38.378c0 1.25-.01 2.533-.043 3.85a39.416 39.416 0 0 1-.297 4.035 22.857 22.857 0 0 1-.833 3.949 16.056 16.056 0 0 1-1.579 3.576c-.713 1.195-1.503 2.15-2.337 2.84a11.902 11.902 0 0 1-2.665 1.7c-.943.439-1.919.779-2.917 1.02-.998.241-1.996.439-2.995.581-5.527.801-8.28 1.24-13.786 2.172-.384.066-.779.12-1.163.143a14.29 14.29 0 0 0-1.239.164c-.329.055-.845.099-1.536.11-.691.022-1.448-.066-2.281-.263-.823-.198-1.667-.56-2.523-1.097-.855-.537-1.612-1.36-2.27-2.49-.932-1.623-1.459-3.51-1.569-5.681-.109-2.16-.164-4.245-.164-6.263V35.514c-1.558-5.813-2.336-8.72-3.883-14.521 7.897-1.58 11.857-2.304 19.786-3.609v58.12c3.291-.538 4.936-.801 8.226-1.284V16.112c7.919-1.185 11.879-1.7 19.82-2.61-1.503 6.284-2.249 9.432-3.752 15.717v-.011ZM255.52 84.52c-9.542.647-14.302 1.075-23.822 2.117 1.535-6.285 2.303-9.422 3.839-15.695V28.12c-1.536-5.955-2.304-8.927-3.839-14.872 9.509-1.042 14.28-1.47 23.822-2.117-1.535 6.22-2.314 9.334-3.849 15.553v42.83c1.535 6 2.314 9.005 3.849 15.004Zm44.75-1.294a521.747 521.747 0 0 0-42.238 1.13c1.536-6.208 2.314-9.312 3.85-15.52V26.016c-1.536-6.021-2.314-9.038-3.85-15.048 9.476-.603 14.225-.8 23.713-1.02-1.514 6.142-2.26 9.224-3.773 15.377v42.84a395.29 395.29 0 0 1 7.206-.164V55.004c6.032-.098 9.059-.11 15.092-.044v28.276-.011Zm34.263 1.37c-.833-7.205-1.25-10.814-2.094-18.02a430.356 430.356 0 0 0-9.97-.57c-.801 7.118-1.207 10.672-2.007 17.79-7.305-.329-10.957-.439-18.273-.537 1.744-6.087 2.61-9.137 4.365-15.213l8.127-57.889c10.288.362 15.432.658 25.709 1.481 2.764 19.61 5.517 39.221 8.281 58.843 1.601 6.263 2.402 9.4 4.014 15.673-7.249-.735-10.88-1.053-18.141-1.557h-.011Zm63.724-11.91c0 2.49-.12 5.11-.373 7.83-.252 2.732-.976 5.024-2.193 6.878-.713 1.053-1.536 1.81-2.446 2.27-.91.46-1.865.768-2.863.91a12.79 12.79 0 0 1-3.115.055 59.069 59.069 0 0 1-3.191-.406c-12.021-1.897-18.064-2.687-30.151-3.948 1.502-5.956 2.259-8.928 3.762-14.884V28.571c-1.503-6.284-2.249-9.41-3.762-15.684 11.955 1.24 17.921 2.018 29.822 3.894 1.766.274 3.63.702 5.56 1.261 1.931.57 3.675 1.788 5.221 3.653a14.306 14.306 0 0 1 2.117 3.75 20.517 20.517 0 0 1 1.119 4.256c.219 1.459.362 2.929.417 4.387.054 1.47.087 2.896.087 4.278v34.308l-.011.01Zm46.285 8.522c0 1.59-.011 3.268-.044 5.034a39.736 39.736 0 0 1-.406 5.09 18.879 18.879 0 0 1-1.228 4.507c-.57 1.371-1.437 2.457-2.578 3.268-1.414 1.009-3.049 1.426-4.902 1.229a40.388 40.388 0 0 1-5.331-.91 447.104 447.104 0 0 0-10.595-2.468 65.494 65.494 0 0 1-3.29-.823 20.087 20.087 0 0 1-3.422-1.305 16.348 16.348 0 0 1-3.214-2.073c-1.02-.834-1.908-1.876-2.687-3.137-1.272-2.194-2.007-4.387-2.226-6.57a89.976 89.976 0 0 1-.417-6.942V40.132c0-1.316.011-2.687.044-4.102.022-1.415.142-2.775.329-4.091.197-1.317.482-2.578.866-3.784a8.827 8.827 0 0 1 1.733-3.137c1.426-1.722 3.104-2.556 5.034-2.5 1.92.054 3.872.295 5.846.734a465.036 465.036 0 0 1 11.429 2.643c1.689.406 3.17.845 4.431 1.295 1.25.45 2.358.954 3.312 1.513.955.56 1.788 1.229 2.49 1.996.702.779 1.36 1.69 1.963 2.753a19.818 19.818 0 0 1 1.47 3.247c.384 1.108.669 2.347.856 3.718.186 1.37.329 2.895.405 4.584a127 127 0 0 1 .121 5.748v30.458h.011Zm40.373 34.472c-1.875-.658-3.334-1.261-4.376-1.832-1.042-.57-1.887-1.436-2.534-2.632-.482-.79-.8-1.568-.965-2.347-.164-.779-.241-1.963-.241-3.565V83.049a512.743 512.743 0 0 0-8.786-2.862v29.833c-7.721-2.446-11.604-3.609-19.391-5.77 1.47-5.703 2.205-8.555 3.663-14.247V47.184c-1.469-6.537-2.193-9.794-3.663-16.32 12.021 3.345 17.999 5.188 29.877 9.202 1.82.614 3.63 1.415 5.418 2.38 1.788.976 3.411 2.523 4.848 4.628a17.317 17.317 0 0 1 1.875 3.587c.45 1.206.79 2.413.998 3.641.209 1.218.351 2.468.395 3.73.055 1.272.077 2.522.077 3.772 0 2.424-.044 4.629-.121 6.614-.076 1.985-.383 3.685-.921 5.122-.526 1.437-1.349 2.578-2.435 3.433-1.097.856-2.632 1.35-4.606 1.48.208.22.416.374.603.472.186.1.362.209.526.34.428.286 1.053.79 1.887 1.503.822.713 1.634 1.832 2.446 3.269 1.031 1.831 1.711 3.652 1.919 5.429.208 1.776.34 3.608.395 5.495v7.896c1.503 6.658 2.248 9.992 3.751 16.672a473.256 473.256 0 0 0-10.639-3.861v.011Zm52.383 21.377a883.565 883.565 0 0 0-40.077-16.891c1.47-5.561 2.194-8.336 3.663-13.886v-42.83c-1.458-6.679-2.193-10.013-3.663-16.682a522.723 522.723 0 0 1 39.222 16.485v24.02a1083.025 1083.025 0 0 0-12.581-14.4 462.097 462.097 0 0 0-8.017-3.423v13.93a489.12 489.12 0 0 1 11.308 4.87v13.512a487.402 487.402 0 0 0-11.308-4.87v15.388a461.323 461.323 0 0 1 8.017 3.422 462.318 462.318 0 0 1 13.436-3.4v24.755Zm41.722 4.65c0 1.25-.022 2.501-.077 3.751s-.197 2.435-.449 3.532c-.549 2.248-1.404 3.707-2.567 4.376-1.162.669-2.369.91-3.63.735a10.384 10.384 0 0 1-3.532-1.152 337.161 337.161 0 0 0-2.314-1.25c-9.619-5.177-14.478-7.634-24.272-12.317v-22.452a864.66 864.66 0 0 1 14.105 14.16 456.532 456.532 0 0 1 8.182 4.277v-14.762a480.508 480.508 0 0 0-10.793-5.605 15.699 15.699 0 0 1-1.151-.636c-.362-.22-.746-.428-1.152-.625-.307-.154-.768-.439-1.382-.845-.614-.406-1.294-.987-2.04-1.733-.746-.746-1.503-1.634-2.281-2.676-.768-1.031-1.492-2.303-2.172-3.806-.932-2.106-1.481-4.069-1.667-5.89-.187-1.82-.318-3.762-.428-5.824V80.801c.099-2.03.274-3.85.505-5.473.23-1.623.866-2.983 1.897-4.08 1.338-1.426 2.885-1.942 4.639-1.536 1.744.406 3.521 1.075 5.309 1.974 9.564 4.837 14.302 7.382 23.68 12.69v21.52c-5.155-5.419-7.755-8.084-12.964-13.36a585.323 585.323 0 0 0-8.182-4.277v13.414a497.296 497.296 0 0 1 9.86 5.166c.406.219.833.45 1.294.702.461.252.921.57 1.371.844.274.176.812.494 1.514.987.712.494 1.491 1.163 2.347 2.019.855.855 1.744 1.919 2.643 3.191.91 1.272 1.645 2.841 2.259 4.607.669 1.908 1.119 3.751 1.24 5.484.12 1.733.186 3.466.186 5.199v11.856l.022-.022Z"/></g><defs><clipPath id="a"><path fill="#fff" d="M0 0h588.99v702.168H0z"/></clipPath></defs></svg>
