<svg xmlns="http://www.w3.org/2000/svg" width="1001" height="1000" fill="none"><g clip-path="url(#a)"><path fill="#fff" d="M181.098 810.829V303.754l196.771-88.249c-1.169-58.536 38.397-112.229 95.775-127.604L603.942 53l9.808 36.605a129.114 129.114 0 0 1 24.815-2.405c22.577 0 44.898 6 64.559 17.345l116.805 67.453-67.565 117.028 32.864 14.739V810.84L483.163 946.304 181.098 810.829Z"/><path fill="#4BBAB4" d="m708.679 312.872-12.112-5.433 6.457-11.177 6.457-11.178 18.669-32.329 37.863-65.583-29.602-17.089-51.278-29.602c-13.348-7.704-28.499-11.778-43.807-11.778-2.126 0-4.253.1-6.368.256a87.744 87.744 0 0 0-16.421 2.761c-.946.256-1.87.567-2.805.846-2.371.723-4.709 1.525-6.98 2.449a94.15 94.15 0 0 0-9.218 4.364 90.423 90.423 0 0 0-8.606 5.299c-.735.512-1.503.969-2.215 1.492l-7.192-26.841-4.153-15.497-90.22 24.169a87.237 87.237 0 0 0-8.538 2.761 89.099 89.099 0 0 0-8.061 3.54 88.15 88.15 0 0 0-7.559 4.264c-1.914 1.214-3.751 2.516-5.555 3.852a86.667 86.667 0 0 0-12.279 11.133c-1.448 1.592-2.861 3.206-4.186 4.898a89.013 89.013 0 0 0-3.941 5.455 90.469 90.469 0 0 0-3.151 5.01c-1.18 2.037-2.249 4.13-3.262 6.246-.378.79-.746 1.592-1.102 2.404a89.201 89.201 0 0 0-4.642 13.371 87.37 87.37 0 0 0-2.449 14.06 85.774 85.774 0 0 0-.346 8.472 87.5 87.5 0 0 0 1.169 13.549 88.886 88.886 0 0 0 1.826 8.483l1.147 4.264-12.202 5.466-12.201 5.466-62.6 28.077-59.627 26.741-54.962 24.648v338.792l10.899 4.887 250.387 112.285 244.319-109.568 16.967-7.604V330.15l-26.419-11.845-12.112-5.433h.011Zm-109.09-129.574c7.047-12.213 18.436-20.952 32.063-24.604 13.626-3.64 27.854-1.77 40.066 5.277l50.744 29.302-44.776 77.55-6.457 11.178-6.457 11.177-31.384 54.35-11.043-41.213 14.751-25.539 6.457-11.177 6.457-11.177 31.227-54.095-24.615-14.216c-5.232-3.017-11.322-3.83-17.177-2.26a22.53 22.53 0 0 0-13.738 10.543l-22.054 38.185-11.044-41.213 6.958-12.057.022-.011Zm-103.412-28.433 56.599-15.163 5.889 21.987 16.922 63.167.056.19 4.286 15.997 4.286 15.998 2.416 9.029 18.692 69.746 11.043 41.214 19.104 71.305 17.167 9.652 24.781 13.939c12.692 7.325 21.398 18.914 25.394 31.917a56.067 56.067 0 0 1 2.472 15.185 56.157 56.157 0 0 1-.435 8.528l.869.2-1.147 5.032-25.817 113.298-192.83 86.157-194.645-86.969-2.06-122.338-.234-13.972-.233-13.971-2.639-156.761H425.94c9.641 0 18.67 2.639 26.452 7.181l-.067-.078 10.22 5.744 37.15 20.897 30.493 17.144 6.29 3.54 38.697 21.765 23.535 13.237-14.217-53.07-11.043-41.214-8.127-30.336-11.044-41.214-5.544-20.685-4.286-15.997-4.286-15.998-8.706-32.485-27.454 7.358c-3.451.924-6.434 2.683-8.95 4.899-1.648 1.458-3.14 3.072-4.309 4.92a22.784 22.784 0 0 0-2.393 5.077c-.1.312-.156.646-.245.968-1.047 3.763-1.191 7.827-.111 11.857l.656 2.46 29.513 110.148 3.785 14.138 4.854 18.102-6.312-3.651-30.637-17.69-29.669-110.727-1.336-4.976c-.701-2.616-1.124-5.244-1.414-7.86a52.362 52.362 0 0 1 .345-14.227c3.251-19.872 17.735-37.039 38.408-42.583"/><path fill="#4BBAB4" d="m476.695 374.727-1.047-1.258c.223.634.49 1.247.691 1.892.122-.211.222-.423.345-.634M420.129 534.092h28.433V391.047c0-3.908-1.002-7.581-2.75-10.799-3.841-7.047-11.311-11.834-19.883-11.834h-28.422v143.045c0 12.48 10.153 22.633 22.633 22.633M337.68 487.134c.412.022.801.1 1.224.1h28.422v-118.82h-51.055v59.204l1.047 43.774c1.013 3.229 2.772 6.123 5.021 8.55a22.459 22.459 0 0 0 15.352 7.192"/><path fill="#4BBAB4" d="m566.391 442.669-5.655-3.262-13.905-8.027-6.312-3.652-30.638-17.69-12.747-7.358c-.846 2.638-1.48 5.332-1.981 8.038a64.86 64.86 0 0 0-1.002 13.626 65.833 65.833 0 0 0 2.182 14.829c.022.089.056.178.089.267 4.542 16.666 15.252 30.593 30.225 39.232l1.926 1.113 6.635 3.83 15.987 9.229 50.855 29.368 13.147 7.593-7.559 13.058-7.559 13.059-.044-.022-19.884 34.445c-5.867 2.427-12.68 4.275-19.983 4.442-.367 0-.712.044-1.08.044-3.696 0-7.258-.479-10.654-1.213l-3.763-2.171 29.235-50.643-53.771-31.049-8.561-4.943c-13.538-7.816-24.693-18.592-32.831-31.439v90.899H420.14c-27.097 0-49.474-20.529-52.446-46.847h-28.778a52.496 52.496 0 0 1-20.596-4.186l2.672 112.285 164.943 73.699 150.404-67.197 16.365-7.315 2.059-9.017 5.678-24.915 3.507-15.397 11.222-49.262-.635-.034c.49-2.148.668-4.33.601-6.479a25.976 25.976 0 0 0-1.224-7.158c-1.258-3.886-3.496-7.426-6.48-10.376-1.514-1.492-3.15-2.872-5.076-3.986l-41.403-23.902-9.073-5.232-27.888-16.098-17.59-10.153-.011-.033Z"/><path fill="#010101" d="m802.072 177.497-22.867-13.203-80.879-46.702c-17.356-10.02-37.072-15.319-57.011-15.319a114.534 114.534 0 0 0-35.514 5.656l-2.939-10.955-6.835-25.505-25.505 6.835-90.22 24.169c-55.041 14.751-89.931 67.543-83.975 122.517l-197.384 88.527v487.548l286.97 128.695 286.969-128.695V313.517l-39.199-17.578 55.185-95.575 13.204-22.867Zm-73.933 75.246-18.669 32.33-6.457 11.177-6.457 11.178 12.112 5.432 12.112 5.433 26.418 11.845v338.793l-16.966 7.603-244.319 109.569-250.387-112.296-10.899-4.888V330.15l54.962-24.648 59.627-26.741 62.6-28.077 12.201-5.466 12.202-5.478-1.147-4.263a88.905 88.905 0 0 1-1.826-8.484 87.498 87.498 0 0 1-1.169-13.548 85.9 85.9 0 0 1 .345-8.472c.858-9.552 3.307-18.803 7.092-27.431.356-.813.724-1.603 1.102-2.405 1.013-2.126 2.082-4.219 3.262-6.245a89.729 89.729 0 0 1 3.151-5.01c1.247-1.859 2.549-3.696 3.941-5.455 1.324-1.681 2.738-3.307 4.186-4.899a86.558 86.558 0 0 1 12.279-11.132c1.804-1.347 3.64-2.65 5.555-3.852a85.996 85.996 0 0 1 7.559-4.264 89.882 89.882 0 0 1 8.06-3.54 88.746 88.746 0 0 1 8.539-2.761l90.22-24.17 4.153 15.497 7.192 26.841c.712-.534 1.48-.991 2.215-1.491a88.147 88.147 0 0 1 8.606-5.311c5.956-3.228 12.29-5.867 19.003-7.659a87.908 87.908 0 0 1 16.421-2.761 86.888 86.888 0 0 1 6.368-.256c15.307 0 30.459 4.074 43.807 11.778l51.278 29.602 29.602 17.1-37.863 65.583-.011.011Z"/><path fill="#010101" d="M631.64 158.694c-13.626 3.651-25.004 12.391-32.062 24.603l-6.958 12.057 11.044 41.213 22.054-38.185c3.017-5.243 7.893-8.984 13.738-10.543 5.855-1.569 11.945-.757 17.177 2.26l24.615 14.217-31.227 54.094-6.457 11.177-6.458 11.178-14.75 25.538 11.043 41.214 31.384-54.351 6.457-11.177 6.457-11.177 44.776-77.551-50.744-29.301c-12.212-7.059-26.44-8.929-40.066-5.277"/><path fill="#010101" d="m677.418 471.935-24.781-13.938-17.167-9.652-19.104-71.305-11.043-41.214-18.692-69.735-2.416-9.029-4.286-15.998-4.286-15.998-.056-.189-16.922-63.167-5.889-21.987-56.599 15.162c-20.685 5.545-35.168 22.711-38.408 42.583a52.369 52.369 0 0 0-.345 14.228c.289 2.616.712 5.243 1.414 7.86l1.336 4.976 29.669 110.726 30.637 17.69 6.312 3.652-4.854-18.102-3.785-14.139-29.513-110.147-.657-2.46c-1.079-4.042-.935-8.094.112-11.857.089-.323.144-.657.245-.968a22.51 22.51 0 0 1 2.393-5.077c1.158-1.848 2.65-3.462 4.309-4.921 2.516-2.215 5.499-3.974 8.95-4.898l27.454-7.359 8.705 32.486 4.287 15.997 4.286 15.998 5.544 20.685 11.043 41.213 8.127 30.337 11.044 41.214 14.217 53.069-23.535-13.236-38.697-21.765-6.29-3.54-30.493-17.145-37.15-20.896-10.22-5.744.067.078c-7.793-4.531-16.811-7.181-26.452-7.181H286.102l2.638 156.76.234 13.972.234 13.972 2.06 122.326 194.645 86.97 192.83-86.157 25.817-113.298 1.147-5.032-.869-.2a56.484 56.484 0 0 0-2.037-23.713c-4.008-13.003-12.714-24.592-25.394-31.918m-200.712-97.211c-.123.211-.223.423-.345.635-.201-.646-.468-1.258-.691-1.893l1.047 1.258h-.011ZM322.328 479.929c-2.249-2.427-4.008-5.322-5.021-8.55l-1.046-43.774v-59.204h51.054v118.82h-28.422c-.411 0-.812-.078-1.224-.101a22.476 22.476 0 0 1-15.352-7.191m75.168-19.627v-91.89h28.422c8.572 0 16.042 4.787 19.883 11.834a22.513 22.513 0 0 1 2.75 10.799V534.09h-28.422c-12.48 0-22.633-10.154-22.633-22.633v-51.155Zm186.474-7.493 27.887 16.098 9.074 5.233 41.402 23.902c1.926 1.113 3.563 2.493 5.077 3.985 2.984 2.95 5.232 6.491 6.479 10.376a26.017 26.017 0 0 1 1.225 7.158c.067 2.16-.1 4.342-.601 6.491l.645.033-11.221 49.263-3.507 15.396-5.678 24.915-2.06 9.018-16.365 7.314-150.403 67.197L320.97 625.49l-2.672-112.286a52.47 52.47 0 0 0 20.595 4.186h28.779c2.972 26.318 25.338 46.847 52.446 46.847h58.603v-90.899c8.127 12.847 19.282 23.624 32.819 31.439l8.561 4.943 53.772 31.049-29.235 50.643 3.763 2.171c3.406.746 6.969 1.214 10.654 1.214.367 0 .724-.045 1.08-.045 7.314-.167 14.127-2.026 19.983-4.442l19.883-34.445.045.023 7.559-13.048 7.559-13.048-13.148-7.592-50.854-29.368-15.987-9.229-6.635-3.83-1.926-1.113c-14.974-8.639-25.683-22.578-30.225-39.232-.023-.089-.056-.178-.089-.268a65.816 65.816 0 0 1-2.182-14.828 64.213 64.213 0 0 1 1.001-13.627 62.818 62.818 0 0 1 1.982-8.038l12.747 7.359 30.637 17.69 6.313 3.652 13.905 8.026 5.655 3.262 17.59 10.153h.011Z"/><path fill="#fff" d="M263.369 728.313c.813.357 1.302 1.258 1.302 2.539v3.818c0 1.269-.489 1.748-1.302 1.392L230.527 721.6v22.366l27.932 12.291c.813.356 1.314 1.258 1.314 2.538v3.83c0 1.269-.501 1.736-1.314 1.38l-27.932-12.29v23.044l32.842 14.462c.813.356 1.302 1.258 1.302 2.538v3.819c0 1.269-.489 1.747-1.302 1.391l-37.262-16.398c-.868-.379-1.302-1.258-1.302-2.539v-64.726c0-1.269.434-1.77 1.302-1.38l37.262 16.399v-.012ZM278.053 795.678l30.481 13.415c.802.356 1.303 1.258 1.303 2.538v3.83c0 1.269-.501 1.737-1.303 1.38l-34.901-15.363c-.868-.378-1.302-1.269-1.302-2.538v-64.726c0-1.269.434-1.77 1.302-1.391l3.117 1.369c.869.378 1.303 1.269 1.303 2.538v58.948ZM384.17 815.504c8.339 4.843 11.868 11.111 11.868 20.518v3.629c0 10.988-4.798 13.582-16.377 8.483l-53.938-23.746c-1.469-.645-2.26-1.781-2.26-3.15v-64.337c0-1.369.791-1.814 2.26-1.169l52.959 23.312c11.478 5.055 16.376 11.913 16.376 22.901v3.039c0 9.017-3.329 12.357-10.888 10.509m-40.902-25.65 26.775 11.779c3.818 1.681 5.199 1.013 5.199-2.516v-.98c0-3.529-1.37-5.41-5.199-7.092l-26.775-11.789v10.598Zm0 15.297v11.177l27.654 12.168c3.919 1.726 5.299 1.058 5.299-2.471v-1.57c0-3.529-1.369-5.411-5.299-7.136l-27.654-12.168ZM453.795 869.098l-33.054-14.551-3.729 7.971c-.49 1.158-1.47 1.414-3.139.679l-16.188-7.125c-1.28-.567-1.859-1.803-1.369-2.861l26.975-52.457c.49-1.158 1.469-1.414 3.239-.635l22.366 9.842c1.67.734 2.55 1.803 3.14 3.44l26.963 76.203c.49 1.492-.1 2.216-1.28 1.693l-17.067-7.515c-1.77-.779-2.649-1.859-3.139-3.44l-3.73-11.255.012.011Zm-27.064-27.309 20.985 9.24-10.498-31.684-10.498 22.444h.011ZM557.574 807.032v13.626c0 10.988-4.809 18.792-16.376 23.88l-.29.134 18.837 12.201c.779.546.289 2.026-.779 2.505l-19.327 8.506c-1.859.823-2.649.768-3.729-.034l-16.866-12.58-13.727 6.045v19.516c0 1.369-.88 2.549-2.349 3.195l-15.207 6.691c-1.47.646-2.26.211-2.26-1.169v-64.336c0-1.37.79-2.505 2.26-3.14l53.459-23.523c11.578-5.099 16.376-2.505 16.376 8.483m-52.279 38.497 25.895-11.4c5.689-2.505 6.568-3.774 6.568-8.483v-4.219c0-4.71-.879-5.199-6.568-2.706l-25.895 11.4v15.408ZM637.585 771.809v13.627c0 10.988-4.809 18.792-16.376 23.88l-.289.133 18.836 12.202c.78.534.29 2.026-.779 2.504l-19.326 8.506c-1.86.824-2.65.779-3.73-.022l-16.866-12.58-13.727 6.045v19.515c0 1.37-.879 2.55-2.349 3.196l-15.207 6.69c-1.47.646-2.249.212-2.249-1.169V790c0-1.38.779-2.505 2.249-3.15l53.459-23.524c11.578-5.099 16.377-2.505 16.377 8.483m-52.28 38.497 25.895-11.4c5.689-2.504 6.568-3.774 6.568-8.483v-4.219c0-4.709-.879-5.199-6.568-2.694l-25.895 11.4v15.396ZM665.328 810.393c0 1.381-.879 2.55-2.349 3.195l-15.207 6.691c-1.47.646-2.26.212-2.26-1.169v-64.336c0-1.369.779-2.505 2.26-3.151l15.207-6.69c1.47-.646 2.349-.256 2.349 1.113v64.347ZM746.943 760.942c0 10.988-4.899 17.846-16.377 22.9l-41.881 18.436c-11.378 5.01-16.477 2.538-16.477-8.439v-37.261c0-10.988 5.099-17.935 16.477-22.945l41.881-18.424c11.478-5.055 16.377-2.505 16.377 8.483v37.261-.011Zm-19.817-22.176c0-5.3-1.08-5.801-7.548-2.951l-20.005 8.806c-6.379 2.806-7.548 4.309-7.548 9.597v24.514c0 5.299 1.18 5.767 7.548 2.95l20.005-8.806c6.48-2.85 7.548-4.308 7.548-9.596v-24.514Z"/></g><defs><clipPath id="a"><path fill="#fff" d="M181.098 53h638.82v893.293h-638.82z"/></clipPath></defs></svg>