<svg width="476" height="600" viewBox="0 0 476 600" fill="none" xmlns="http://www.w3.org/2000/svg">
<g clip-path="url(#clip0_486_26113)">
<path d="M415.56 376.56V380.76C415.56 384.34 414.18 385.51 411.64 385.51H407.3V370.7H410.68C414.12 370.7 415.57 372.08 415.57 376.56H415.56ZM475.69 348.84V389.24C465.1 389.24 456.52 397.82 456.52 408.41H438.75C430.5 462.22 398.05 510.18 349.94 537.52L237.85 599.2L128 536.87C79.15 510.02 46.05 462.38 37.23 408.41H19.17C19.17 397.82 10.59 389.24 0 389.24V348.84C10.24 348.84 18.58 340.81 19.12 330.7C18.08 329.88 17.07 329.02 16.13 328.08C13.15 325.1 10.75 321.59 9.02 317.65C7.23 313.57 6.32 309.19 6.32 304.64V183.33H34.86V96.73L107.09 81.1C109.26 76.74 111.66 72.44 114.3 68.23C157.11 0.109985 247.37 -20.48 315.49 22.34C339.11 37.18 357 57.74 368.53 81.09L440.83 96.74V183.7C443.78 184.11 446.63 184.87 449.31 186.04C453.3 187.79 456.83 190.23 459.79 193.29C462.66 196.26 464.97 199.72 466.67 203.59C468.46 207.67 469.38 212.05 469.38 216.6V304.64C469.38 309.19 468.46 313.57 466.67 317.66C464.98 321.51 462.67 324.98 459.8 327.94C458.8 328.98 457.7 329.92 456.57 330.81C457.16 340.86 465.48 348.84 475.69 348.84ZM411.08 187.12C411.78 186.75 412.48 186.36 413.21 186.04C416.64 184.53 420.34 183.69 424.2 183.44V110.15L411.07 107.31V187.12H411.08ZM367.68 249.19V215.18H399.06V194.13H346.64V325.29H399.06V304.25H367.68V270.24H397.56V249.19H367.68ZM369.22 381.38V344.19H361.64V380.9C361.64 388.61 365.5 393.02 372.93 393.02C380.36 393.02 384.22 388.61 384.22 380.9V344.19H377.06V381.38C377.06 384.82 375.54 386.06 373.13 386.06C370.72 386.06 369.21 384.82 369.21 381.38H369.22ZM306.21 355.28V360.44H313.37V355.76C313.37 348.05 309.51 343.64 302.08 343.64C294.65 343.64 290.79 348.05 290.79 355.76V380.83C290.79 388.54 294.65 392.95 302.08 392.95C309.51 392.95 313.37 388.54 313.37 380.83V374.43H306.21V381.32C306.21 384.76 304.69 386 302.28 386C299.87 386 298.36 384.76 298.36 381.32V355.29C298.36 351.85 299.88 350.54 302.28 350.54C304.68 350.54 306.21 351.85 306.21 355.29V355.28ZM323.34 325.29V215.18H338.94V194.13H286.7V215.18H302.3V325.29H323.34ZM328.31 392.4H348.35V385.51H335.89V344.19H328.31V392.4ZM363.48 183.33C363.69 182.66 363.95 182.01 364.15 181.34C362.68 182.03 361.16 182.7 359.69 183.33H363.48ZM335.24 142.58L351.7 179.75C356.14 177.99 362.93 175.14 366.33 173.06C373.5 141.84 369.06 109.15 354.45 81.15L337.01 90.35C340.16 112.81 336.18 137.32 335.24 142.58ZM291.38 57.27C285.33 59.12 259.81 67.11 246.32 74.41L247.16 123.39L287.66 156.43L329.13 140.63C330.22 134.18 333.7 110.6 330.54 90C327.31 86.44 310.58 68.49 291.37 57.26L291.38 57.27ZM191.72 33.33L194.97 56.89L242.69 69.18C256 61.81 280.37 54.03 288.34 51.57C287.65 46.23 285.72 33.8 281.98 27.09C276.69 25.1 251.63 16.06 233.46 16.1C230.46 16.76 206.47 22.34 191.71 33.33H191.72ZM191.32 148.69C188.48 159.02 186.42 172.99 185.16 183.32H280.2L283.67 161.36L243.45 128.54L191.33 148.69H191.32ZM258.13 309.31V325.28H279.17V194.13H258.13V247.87L247.8 211.6V194.13H226.75V325.29H247.8V273.24L258.13 309.32V309.31ZM244.29 385.5V344.18H236.71V392.39H256.75V385.5H244.29ZM198 279.01V298.44H219.04V279.01L211.74 194.13H172.6L165.3 279.01V298.44H186.34V279.01H197.99H198ZM178.75 183.32C180.03 172.71 182.18 157.95 185.24 146.88L157.96 107.63L125.83 118.23C117.41 134.9 118.08 162.27 118.22 166.1C120.19 171.96 123.29 177.87 126.66 183.32H178.75ZM160.83 392.39H172.74C180.32 392.39 184.24 388.39 184.24 380.96V377.03C184.24 371.93 182.66 368.28 178.59 366.7C181.97 365.12 183.48 361.95 183.48 356.99V355.27C183.48 347.83 180.1 344.18 172.25 344.18H160.82V392.39H160.83ZM219.04 325.28V307.87H165.3V325.28H219.04ZM198.49 380.82C198.49 388.53 202.55 392.94 209.99 392.94C217.43 392.94 221.49 388.53 221.49 380.82V355.75C221.49 348.04 217.43 343.63 209.99 343.63C202.55 343.63 198.49 348.04 198.49 355.75V380.82ZM117.15 83.25C117.69 87.41 122.01 101.15 125.59 111.64L157.27 101.19L188.81 58.58L185.56 35.04C179.21 35.09 162.22 36.04 147.09 43.99C138.15 52.04 130.14 61.41 123.42 72.09C121.12 75.74 119.05 79.47 117.15 83.25ZM105.98 170.84C106.88 175.06 108 179.22 109.3 183.33H119.28C116.85 179.09 114.62 174.64 112.94 170.13L105.98 170.84ZM105.37 304.06C105.37 306.94 105.93 309.67 107.06 312.23C108.19 314.8 109.72 317.05 111.66 319C113.6 320.94 115.85 322.47 118.42 323.6C120.99 324.73 123.71 325.29 126.59 325.29H136.55C139.43 325.29 142.15 324.73 144.72 323.6C147.29 322.47 149.54 320.94 151.49 319C153.43 317.06 154.97 314.8 156.09 312.23C157.22 309.66 157.78 306.94 157.78 304.06V194.14H105.35V225.9H126.4V215.19H136.73V304.07L136.54 304.26H126.58C126.45 304.26 126.39 304.2 126.39 304.07V243.94H105.34V304.07L105.37 304.06ZM131.71 351.08V392.4H139.29V351.08H147.21V344.19H123.8V351.08H131.72H131.71ZM99.41 386.07C97 386.07 95.49 384.83 95.49 381.39V344.2H87.91V380.91C87.91 388.62 91.77 393.03 99.2 393.03C106.63 393.03 110.49 388.62 110.49 380.91V344.2H103.33V381.39C103.33 384.83 101.81 386.07 99.4 386.07H99.41ZM76.81 218.59H97.85V193.64H76.81V218.59ZM76.81 325.3H97.85V225.48H76.81V325.3ZM61.81 365.62V351.09H74.27V344.2H54.23V392.41H61.81V372.51H71.59V365.62H61.81ZM51.48 183.34H64.61V107.31L51.48 110.15V183.33V183.34ZM48.07 325.3C50.95 325.3 53.67 324.74 56.24 323.61C58.81 322.48 61.06 320.95 63.01 319.01C64.95 317.07 66.49 314.81 67.61 312.24C68.74 309.67 69.3 306.95 69.3 304.07V194.15H16.87V225.91H37.92V215.2H48.25V304.08L48.06 304.27H38.1C37.97 304.27 37.91 304.21 37.91 304.08V243.95H16.87V304.08C16.87 306.96 17.43 309.69 18.56 312.25C19.69 314.82 21.22 317.07 23.16 319.02C25.1 320.96 27.35 322.49 29.92 323.62C32.49 324.75 35.21 325.31 38.09 325.31H48.05L48.07 325.3ZM421.93 408.43H408.57C404.03 432.98 393.45 455.92 377.99 475.2L353.69 408.43H319.99L353.19 499.65C347.54 504.05 341.56 508.08 335.24 511.67L323.28 518.24L283.31 408.43H249.61L295.19 533.66L264.62 550.44L212.93 408.43H179.23L235.85 563.99L189.6 537.69L142.56 408.43H108.86L147.11 513.52L142.35 510.82C103.04 489.22 75.96 451.48 67.48 408.44H54.12C62.77 456.3 92.51 498.41 136.03 522.33L237.87 580.18L341.75 523.09C384.66 498.7 413.86 456.24 421.96 408.43H421.93ZM423.14 377.05C423.14 371.95 421.56 368.3 417.49 366.72C420.87 365.14 422.38 361.97 422.38 357.01V355.29C422.38 347.85 419 344.2 411.15 344.2H399.72V392.41H411.63C419.21 392.41 423.13 388.41 423.13 380.98V377.05H423.14ZM457.13 312.24C458.26 309.67 458.82 306.95 458.82 304.07V249.2H427.63V215.38C427.63 215.26 427.69 215.19 427.82 215.19H437.59L437.78 215.38V243.94H458.83V215.38C458.83 212.5 458.27 209.78 457.14 207.21C456.01 204.64 454.51 202.39 452.63 200.44C450.75 198.5 448.53 196.96 445.96 195.84C443.39 194.71 440.6 194.15 437.6 194.15H427.83C424.82 194.15 422.03 194.71 419.47 195.84C416.9 196.97 414.68 198.5 412.8 200.44C410.92 202.38 409.42 204.64 408.29 207.21C407.16 209.78 406.6 212.5 406.6 215.38V270.25H437.79V304.07C437.79 304.2 437.73 304.26 437.6 304.26H427.83C427.7 304.26 427.64 304.2 427.64 304.07V275.51H406.59V304.07C406.59 306.95 407.15 309.68 408.28 312.24C409.41 314.81 410.91 317.06 412.79 319.01C414.67 320.95 416.89 322.48 419.46 323.61C422.03 324.74 424.82 325.3 427.82 325.3H437.59C440.6 325.3 443.38 324.74 445.95 323.61C448.52 322.48 450.74 320.95 452.62 319.01C454.5 317.07 456 314.81 457.13 312.24ZM414.81 358.73V356.04C414.81 352.6 413.64 351.08 410.95 351.08H407.3V363.82H410.26C413.08 363.82 414.81 362.58 414.81 358.72V358.73ZM210.01 386.07C212.42 386.07 213.94 384.76 213.94 381.32V355.29C213.94 351.85 212.42 350.54 210.01 350.54C207.6 350.54 206.09 351.85 206.09 355.29V381.32C206.09 384.76 207.61 386.07 210.01 386.07ZM176.68 380.77V376.57C176.68 372.09 175.23 370.71 171.79 370.71H168.41V385.52H172.75C175.3 385.52 176.67 384.35 176.67 380.77H176.68ZM175.92 358.73V356.04C175.92 352.6 174.75 351.08 172.06 351.08H168.41V363.82H171.37C174.19 363.82 175.92 362.58 175.92 358.72V358.73ZM187.95 262.29H196.41L192.09 211.78L187.96 262.29H187.95Z" fill="white"/>
</g>
<defs>
<clipPath id="clip0_486_26113">
<rect width="475.68" height="599.2" fill="white"/>
</clipPath>
</defs>
</svg>
