<svg xmlns="http://www.w3.org/2000/svg" width="476" height="600" fill="none"><g clip-path="url(#a)"><path fill="#fff" d="M415.56 376.56v4.2c0 3.58-1.38 4.75-3.92 4.75h-4.34V370.7h3.38c3.44 0 4.89 1.38 4.89 5.86h-.01Zm60.13-27.72v40.4c-10.59 0-19.17 8.58-19.17 19.17h-17.77c-8.25 53.81-40.7 101.77-88.81 129.11L237.85 599.2 128 536.87c-48.85-26.85-81.95-74.49-90.77-128.46H19.17c0-10.59-8.58-19.17-19.17-19.17v-40.4c10.24 0 18.58-8.03 19.12-18.14-1.04-.82-2.05-1.68-2.99-2.62a34.047 34.047 0 0 1-7.11-10.43c-1.79-4.08-2.7-8.46-2.7-13.01V183.33h28.54v-86.6l72.23-15.63c2.17-4.36 4.57-8.66 7.21-12.87C157.11.11 247.37-20.48 315.49 22.34c23.62 14.84 41.51 35.4 53.04 58.75l72.3 15.65v86.96c2.95.41 5.8 1.17 8.48 2.34 3.99 1.75 7.52 4.19 10.48 7.25 2.87 2.97 5.18 6.43 6.88 10.3 1.79 4.08 2.71 8.46 2.71 13.01v88.04c0 4.55-.92 8.93-2.71 13.02-1.69 3.85-4 7.32-6.87 10.28-1 1.04-2.1 1.98-3.23 2.87.59 10.05 8.91 18.03 19.12 18.03Zm-64.61-161.72c.7-.37 1.4-.76 2.13-1.08 3.43-1.51 7.13-2.35 10.99-2.6v-73.29l-13.13-2.84v79.81h.01Zm-43.4 62.07v-34.01h31.38v-21.05h-52.42v131.16h52.42v-21.04h-31.38v-34.01h29.88v-21.05h-29.88Zm1.54 132.19v-37.19h-7.58v36.71c0 7.71 3.86 12.12 11.29 12.12s11.29-4.41 11.29-12.12v-36.71h-7.16v37.19c0 3.44-1.52 4.68-3.93 4.68s-3.92-1.24-3.92-4.68h.01Zm-63.01-26.1v5.16h7.16v-4.68c0-7.71-3.86-12.12-11.29-12.12s-11.29 4.41-11.29 12.12v25.07c0 7.71 3.86 12.12 11.29 12.12s11.29-4.41 11.29-12.12v-6.4h-7.16v6.89c0 3.44-1.52 4.68-3.93 4.68s-3.92-1.24-3.92-4.68v-26.03c0-3.44 1.52-4.75 3.92-4.75s3.93 1.31 3.93 4.75v-.01Zm17.13-29.99V215.18h15.6v-21.05H286.7v21.05h15.6v110.11h21.04Zm4.97 67.11h20.04v-6.89h-12.46v-41.32h-7.58v48.21Zm35.17-209.07c.21-.67.47-1.32.67-1.99-1.47.69-2.99 1.36-4.46 1.99h3.79Zm-28.24-40.75 16.46 37.17c4.44-1.76 11.23-4.61 14.63-6.69 7.17-31.22 2.73-63.91-11.88-91.91l-17.44 9.2c3.15 22.46-.83 46.97-1.77 52.23Zm-43.86-85.31c-6.05 1.85-31.57 9.84-45.06 17.14l.84 48.98 40.5 33.04 41.47-15.8c1.09-6.45 4.57-30.03 1.41-50.63-3.23-3.56-19.96-21.51-39.17-32.74l.01.01Zm-99.66-23.94 3.25 23.56 47.72 12.29c13.31-7.37 37.68-15.15 45.65-17.61-.69-5.34-2.62-17.77-6.36-24.48-5.29-1.99-30.35-11.03-48.52-10.99-3 .66-26.99 6.24-41.75 17.23h.01Zm-.4 115.36c-2.84 10.33-4.9 24.3-6.16 34.63h95.04l3.47-21.96-40.22-32.82-52.12 20.15h-.01Zm66.81 160.62v15.97h21.04V194.13h-21.04v53.74L247.8 211.6v-17.47h-21.05v131.16h21.05v-52.05l10.33 36.08v-.01Zm-13.84 76.19v-41.32h-7.58v48.21h20.04v-6.89h-12.46ZM198 279.01v19.43h21.04v-19.43l-7.3-84.88H172.6l-7.3 84.88v19.43h21.04v-19.43H198Zm-19.25-95.69c1.28-10.61 3.43-25.37 6.49-36.44l-27.28-39.25-32.13 10.6c-8.42 16.67-7.75 44.04-7.61 47.87 1.97 5.86 5.07 11.77 8.44 17.22h52.09Zm-17.92 209.07h11.91c7.58 0 11.5-4 11.5-11.43v-3.93c0-5.1-1.58-8.75-5.65-10.33 3.38-1.58 4.89-4.75 4.89-9.71v-1.72c0-7.44-3.38-11.09-11.23-11.09h-11.43v48.21h.01Zm58.21-67.11v-17.41H165.3v17.41h53.74Zm-20.55 55.54c0 7.71 4.06 12.12 11.5 12.12s11.5-4.41 11.5-12.12v-25.07c0-7.71-4.06-12.12-11.5-12.12s-11.5 4.41-11.5 12.12v25.07ZM117.15 83.25c.54 4.16 4.86 17.9 8.44 28.39l31.68-10.45 31.54-42.61-3.25-23.54c-6.35.05-23.34 1-38.47 8.95a133.26 133.26 0 0 0-23.67 28.1c-2.3 3.65-4.37 7.38-6.27 11.16Zm-11.17 87.59c.9 4.22 2.02 8.38 3.32 12.49h9.98c-2.43-4.24-4.66-8.69-6.34-13.2l-6.96.71Zm-.61 133.22c0 2.88.56 5.61 1.69 8.17 1.13 2.57 2.66 4.82 4.6 6.77 1.94 1.94 4.19 3.47 6.76 4.6 2.57 1.13 5.29 1.69 8.17 1.69h9.96c2.88 0 5.6-.56 8.17-1.69 2.57-1.13 4.82-2.66 6.77-4.6 1.94-1.94 3.48-4.2 4.6-6.77 1.13-2.57 1.69-5.29 1.69-8.17V194.14h-52.43v31.76h21.05v-10.71h10.33v88.88l-.19.19h-9.96c-.13 0-.19-.06-.19-.19v-60.13h-21.05v60.13l.03-.01Zm26.34 47.02v41.32h7.58v-41.32h7.92v-6.89H123.8v6.89h7.92-.01Zm-32.3 34.99c-2.41 0-3.92-1.24-3.92-4.68V344.2h-7.58v36.71c0 7.71 3.86 12.12 11.29 12.12s11.29-4.41 11.29-12.12V344.2h-7.16v37.19c0 3.44-1.52 4.68-3.93 4.68h.01Zm-22.6-167.48h21.04v-24.95H76.81v24.95Zm0 106.71h21.04v-99.82H76.81v99.82Zm-15 40.32v-14.53h12.46v-6.89H54.23v48.21h7.58v-19.9h9.78v-6.89h-9.78ZM51.48 183.34h13.13v-76.03l-13.13 2.84V183.34ZM48.07 325.3c2.88 0 5.6-.56 8.17-1.69 2.57-1.13 4.82-2.66 6.77-4.6 1.94-1.94 3.48-4.2 4.6-6.77 1.13-2.57 1.69-5.29 1.69-8.17V194.15H16.87v31.76h21.05V215.2h10.33v88.88l-.19.19H38.1c-.13 0-.19-.06-.19-.19v-60.13H16.87v60.13c0 2.88.56 5.61 1.69 8.17 1.13 2.57 2.66 4.82 4.6 6.77 1.94 1.94 4.19 3.47 6.76 4.6 2.57 1.13 5.29 1.69 8.17 1.69h9.96l.02-.01Zm373.86 83.13h-13.36a150.572 150.572 0 0 1-30.58 66.77l-24.3-66.77h-33.7l33.2 91.22c-5.65 4.4-11.63 8.43-17.95 12.02l-11.96 6.57-39.97-109.81h-33.7l45.58 125.23-30.57 16.78-51.69-142.01h-33.7l56.62 155.56-46.25-26.3-47.04-129.26h-33.7l38.25 105.09-4.76-2.7c-39.31-21.6-66.39-59.34-74.87-102.38H54.12c8.65 47.86 38.39 89.97 81.91 113.89l101.84 57.85 103.88-57.09c42.91-24.39 72.11-66.85 80.21-114.66h-.03Zm1.21-31.38c0-5.1-1.58-8.75-5.65-10.33 3.38-1.58 4.89-4.75 4.89-9.71v-1.72c0-7.44-3.38-11.09-11.23-11.09h-11.43v48.21h11.91c7.58 0 11.5-4 11.5-11.43v-3.93h.01Zm33.99-64.81c1.13-2.57 1.69-5.29 1.69-8.17V249.2h-31.19v-33.82c0-.12.06-.19.19-.19h9.77l.19.19v28.56h21.05v-28.56c0-2.88-.56-5.6-1.69-8.17-1.13-2.57-2.63-4.82-4.51-6.77-1.88-1.94-4.1-3.48-6.67-4.6-2.57-1.13-5.36-1.69-8.36-1.69h-9.77c-3.01 0-5.8.56-8.36 1.69-2.57 1.13-4.79 2.66-6.67 4.6-1.88 1.94-3.38 4.2-4.51 6.77-1.13 2.57-1.69 5.29-1.69 8.17v54.87h31.19v33.82c0 .13-.06.19-.19.19h-9.77c-.13 0-.19-.06-.19-.19v-28.56h-21.05v28.56c0 2.88.56 5.61 1.69 8.17 1.13 2.57 2.63 4.82 4.51 6.77 1.88 1.94 4.1 3.47 6.67 4.6 2.57 1.13 5.36 1.69 8.36 1.69h9.77c3.01 0 5.79-.56 8.36-1.69 2.57-1.13 4.79-2.66 6.67-4.6 1.88-1.94 3.38-4.2 4.51-6.77Zm-42.32 46.49v-2.69c0-3.44-1.17-4.96-3.86-4.96h-3.65v12.74h2.96c2.82 0 4.55-1.24 4.55-5.1v.01Zm-204.8 27.34c2.41 0 3.93-1.31 3.93-4.75v-26.03c0-3.44-1.52-4.75-3.93-4.75s-3.92 1.31-3.92 4.75v26.03c0 3.44 1.52 4.75 3.92 4.75Zm-33.33-5.3v-4.2c0-4.48-1.45-5.86-4.89-5.86h-3.38v14.81h4.34c2.55 0 3.92-1.17 3.92-4.75h.01Zm-.76-22.04v-2.69c0-3.44-1.17-4.96-3.86-4.96h-3.65v12.74h2.96c2.82 0 4.55-1.24 4.55-5.1v.01Zm12.03-96.44h8.46l-4.32-50.51-4.13 50.51h-.01Z"/></g><defs><clipPath id="a"><path fill="#fff" d="M0 0h475.68v599.2H0z"/></clipPath></defs></svg>
