<svg xmlns="http://www.w3.org/2000/svg" xml:space="preserve" id="Capa_2" x="0" y="0" style="enable-background:new 0 0 618 251.4" version="1.1" viewBox="0 0 618 251.4"><style>.st0{fill:#fff}</style><path d="M238.5 90V30.3h19.2v25.5L279 30.3h23.8l-21.4 24.6L303.2 90h-22.7l-12.7-22.3-10.2 9.8V90h-19.1zM310.9 90V30.3H330V90h-19.1zM342.9 90V30.3h16.3l18.6 21.4c.5.6 1.2 1.4 2.1 2.5.9 1.1 1.8 2.2 2.6 3.3s1.6 2 2 2.7l.4-.2c-.1-1.6-.1-3.2-.1-4.8v-25h17.5V90h-16.2l-20.9-23.9c-1-1.2-1.8-2.2-2.5-3.2s-1.4-1.9-2-2.7l-.4.2c.1 1.1.1 2.2.1 3.3V90h-17.5zM442.4 91.1c-10 0-17.4-2.6-22.4-7.8s-7.4-12.9-7.4-23.1c0-6.8 1.3-12.5 3.8-17.1 2.5-4.6 6.3-8 11.1-10.3 4.9-2.3 10.7-3.5 17.6-3.5 4.2 0 8.1.5 11.8 1.4s6.9 2.4 9.7 4.2c2.8 1.9 5 4.2 6.5 7.1 1.6 2.8 2.3 6.1 2.3 9.9h-18.3c0-1.3-.3-2.4-.9-3.5-.6-1-1.4-1.9-2.5-2.7-1-.7-2.2-1.3-3.6-1.7-1.4-.4-2.8-.6-4.3-.6-2.3 0-4.3.3-6 .9s-3.2 1.5-4.3 2.7c-1.1 1.2-2 2.7-2.6 4.3s-.9 3.6-.9 5.8v5.6c0 2.9.5 5.4 1.5 7.4 1 2.1 2.5 3.6 4.6 4.7 2 1.1 4.6 1.7 7.6 1.7 2 0 3.9-.3 5.6-.9s3.1-1.5 4.1-2.7 1.6-2.5 1.6-4v-.3h-13.5V56.7h31.9V90h-9.9l-1.9-5.9c-1.8 1.5-3.8 2.8-5.9 3.8-2.1 1-4.5 1.8-7 2.3-2.4.6-5.2.9-8.3.9zM514.3 91.1c-4.1 0-7.9-.3-11.5-.9s-6.7-1.7-9.4-3.1c-2.7-1.5-4.8-3.5-6.3-6.2-1.5-2.6-2.3-5.9-2.3-9.9v-.5c0-.2 0-.4.1-.7H503c-.1.2-.1.4-.1.7v.5c0 1.7.4 3.1 1.2 4 .8.9 2 1.6 3.4 1.9 1.5.3 3.1.5 5 .5h2.2c.8 0 1.5-.1 2.3-.3.7-.1 1.4-.4 2-.7s1.1-.7 1.4-1.2.5-1.1.5-1.9c0-1.1-.5-2-1.5-2.6-1-.6-2.3-1.2-4-1.7-1.7-.5-3.6-.9-5.6-1.3-2.1-.4-4.3-.9-6.5-1.4s-4.4-1.3-6.5-2.1c-2.1-.9-4-2-5.6-3.3-1.7-1.4-3-3.1-4-5.1-1-2-1.5-4.5-1.5-7.4 0-3.5.7-6.4 2.2-8.8s3.4-4.4 6-5.9c2.5-1.5 5.4-2.6 8.6-3.3 3.2-.7 6.6-1 10.1-1s7 .4 10.1 1.1c3.2.7 6 1.8 8.4 3.3 2.4 1.5 4.3 3.4 5.7 5.7 1.4 2.3 2.1 5.1 2.2 8.3v1h-18v-.3c0-1-.3-2-.8-3-.5-.9-1.3-1.7-2.5-2.3-1.1-.6-2.6-.9-4.5-.9-1.7 0-3.2.2-4.4.5-1.2.3-2.1.8-2.6 1.4s-.9 1.3-.9 2c0 1.1.5 2 1.5 2.7 1 .7 2.3 1.3 4 1.7 1.7.5 3.6.9 5.6 1.3 2.1.4 4.3.8 6.5 1.3 2.3.5 4.4 1.1 6.5 2s4 1.9 5.6 3.2c1.7 1.3 3 2.9 4 4.8s1.5 4.3 1.5 7c0 4.9-1.1 8.9-3.4 12-2.3 3.1-5.4 5.3-9.4 6.7-3.8 1.5-8.3 2.2-13.4 2.2zM238.5 167.1v-59.7h19.2v44.4h30.6v15.3h-49.8zM296.7 167.1v-59.7h51.6v14.3h-32.5v8.3h27.8v13.7h-27.8v9.1H349v14.3h-52.3zM353.6 167.1l21.8-59.7h22.3l21.8 59.7h-20.3l-2.5-8.4h-20.9l-2.5 8.4h-19.7zm26.1-21.8h13l-2.9-9.6c-.2-.7-.5-1.5-.8-2.5-.3-1-.6-2-.9-3.1l-.9-3.3c-.3-1.1-.5-2-.8-2.8h-.7c-.2 1-.5 2.2-.9 3.6-.4 1.3-.8 2.7-1.2 4.1-.4 1.4-.8 2.8-1.2 4l-2.7 9.6zM452.2 168.1c-10 0-17.4-2.6-22.4-7.8-5-5.2-7.4-12.9-7.4-23.1 0-6.8 1.3-12.5 3.8-17.1 2.5-4.6 6.3-8 11.1-10.3 4.9-2.3 10.7-3.5 17.6-3.5 4.2 0 8.1.5 11.8 1.4s6.9 2.4 9.7 4.3 5 4.2 6.5 7.1c1.6 2.8 2.3 6.1 2.3 9.9H467c0-1.3-.3-2.4-.9-3.5-.6-1-1.4-1.9-2.5-2.7-1-.7-2.2-1.3-3.6-1.7-1.4-.4-2.8-.6-4.3-.6-2.3 0-4.3.3-6 .9s-3.2 1.5-4.3 2.7c-1.1 1.2-2 2.7-2.6 4.3-.6 1.7-.9 3.6-.9 5.8v5.6c0 2.9.5 5.4 1.5 7.4 1 2.1 2.5 3.6 4.6 4.7 2 1.1 4.6 1.6 7.6 1.6 2 0 3.9-.3 5.6-.9s3.1-1.5 4.1-2.6c1-1.2 1.6-2.5 1.6-4v-.4h-13.5v-12.1h31.9v33.3h-9.9l-1.9-5.9c-1.8 1.5-3.8 2.8-5.9 3.8-2.1 1-4.5 1.8-7 2.3-2.6.9-5.4 1.1-8.4 1.1zM525 168.1c-6.3 0-11.6-.9-16-2.8s-7.8-4.7-10.2-8.4c-2.4-3.7-3.6-8.4-3.6-13.9v-35.7h19.2v35.4c0 3.2.9 5.8 2.6 7.9 1.7 2.1 4.4 3.1 7.9 3.1s6.2-1 7.9-3.1 2.7-4.7 2.7-7.9v-35.4h19.2V143c0 5.5-1.2 10.1-3.5 13.9-2.3 3.7-5.7 6.5-10.2 8.4s-9.8 2.8-16 2.8zM565.8 167.1v-59.7h51.7v14.3H585v8.3h27.8v13.7H585v9.1h33v14.3h-52.2zM238.5 225.7c0 .5.5.9 1.1.9h8.9c.5 0 1.1-.4 1.2-1.1l5.5-46.3v-.2c0-.5-.4-.9-.7-.9h-9.6c-.5 0-.7.4-.7.9l-5.7 46.7zM291 198.9c0 1.4-.2 2.8-.4 4.3l-2.8 22.4c0 .5-.5 1.1-1.1 1.1h-8.2c-.5 0-1.1-.4-1.1-.9v-.2l2.7-21.6c.2-.9.2-1.9.2-2.7 0-1.1-.2-1.9-.7-2.5-.7-.7-1.8-1.1-3.4-1.1-3.2 0-6.9.9-6.9.9l-3.4 27.1c0 .5-.5 1.1-1.2 1.1h-8.2c-.5 0-1.1-.4-1.1-.9v-.2l3.5-29.1c.9-2.7 2.5-3.4 6.6-4.3 3.5-.7 8.9-1.6 13-1.6 4.8 0 8.3.7 10.5 2.7 1.2 1.3 2.1 3 2 5.5zM375.3 179.1c0-.5-.2-.7-.7-.7H365c-.5 0-.9.4-.9.9l-5.9 48.6c-.9 5-3 5-6.4 5.1-1.4 0-2.7 0-3.5.2-1.1 0-1.4.4-1.6 1.4l-.5 3.9v.4c0 .9.5 1.1 1.2 1.1 1.2.2 1.8.4 6.4.4 7.8 0 14.2-2.3 15.4-12.8l6.1-48.5z" class="st0"/><path d="M352.2 217c-2.1 6-6.7 10.1-17.4 10.1-6 0-9.8-1.2-12.1-3.6-2.3-2.3-3-5.7-3-9.4 0-4.3.9-10.6 2.5-14.4 2.3-5.7 6.9-9.4 17-9.4 6 0 9.9 1.4 12.1 3.6 2.3 2.3 3 5.3 3 9.2.1 4.3-.6 10.2-2.1 13.9m-9.4-18.2c-.9-.9-2.1-1.4-4.4-1.4-4.8 0-6.4 2.1-7.3 6.9-.5 3.2-1.1 6.9-1.1 10.3 0 2.1.4 3.6 1.2 4.4s2.1 1.2 4.3 1.2c5 0 6.4-2.3 7.3-7.3.5-3.2 1.1-6.6 1.1-9.8 0-2-.2-3.5-1.1-4.3M409.5 217c-2.1 6-6.7 10.1-17.4 10.1-6 0-9.8-1.2-12.1-3.6-2.3-2.3-3-5.7-3-9.4 0-4.3.9-10.6 2.5-14.4 2.3-5.7 6.9-9.4 17.2-9.4 6 0 9.9 1.4 12.1 3.6 2.3 2.3 3 5.3 3 9.2-.1 4.3-.8 10.2-2.3 13.9m-9.4-18.2c-.9-.9-2.1-1.4-4.4-1.4-4.8 0-6.4 2.1-7.3 6.9-.5 3.2-1.1 6.9-1.1 10.3 0 2.1.2 3.6 1.2 4.4.9.9 2.1 1.2 4.3 1.2 5 0 6.4-2.3 7.3-7.3.5-3.2 1.1-6.6 1.1-9.8.2-2-.2-3.5-1.1-4.3M448.6 216c-2.3 7.4-6.9 11.2-17.6 11.2-5.1 0-9.8-.7-12.2-1.6-2.7-.9-3.2-1.9-3.2-3.7 0-.9.2-1.9.4-3.2l4.6-38.8c0-.9.5-1.4 1.4-1.6h8.2c.5 0 1.1.4 1.1.9v.2l-1.1 8.5-.5 3.9s4.1-1.2 8.3-1.2 7.6.9 9.6 2.8 3 5 3 9.6c-.1 4.1-.8 8.9-2 13m-9.4-17.1c-.9-1.1-2.3-1.4-4.4-1.4-2.7 0-6.2.9-6.2.9l-2.7 21.3s2.3.5 5.1.5c4.8 0 6.7-1.4 8-8.3.5-2.8.9-5.9.9-8.9.2-1.9-.2-3.4-.7-4.1M481.9 197.7c-.2.5-.5.7-1.1.7h-.4c-.7 0-4.4-.9-8-.9-1.6 0-3.7.2-5 1.2-.9.7-1.2 1.8-1.2 2.8 0 2.8 3 2.8 6.2 3.6 2.7.4 5.3 1.1 7.1 2.8 1.4 1.2 2.1 3.2 2.1 6.2 0 3.2-1.1 6.6-3.4 9.1-3 3-7.6 4.3-12.8 4.3-5.7 0-11-1.4-12.1-1.9-.2-.2-.5-.2-.5-.7v-.5l1.4-4.3c.2-.5.5-.9.9-.9h.4c.9.2 5.5 1.6 9.6 1.6 2 0 3.5-.4 4.8-1.4 1.1-.9 1.4-1.9 1.4-3 0-1.4-.5-2.1-1.4-2.7s-2.1-.7-3.7-.9c-2.5-.5-5.9-.9-8-3-1.2-1.4-2.1-3.2-2.1-5.9 0-3 .7-6 2.7-8.3 3.4-4.1 9-4.6 13.3-4.6 5.3 0 9.4 1.1 10.6 1.6.5.2.5.5.5.9v.4l-1.3 3.8zM320.9 179.4c-1.1-.4-4.1-1.1-8.9-1.1-7.8 0-11.9 3.6-12.8 10.6l-.4 4.3-.9 7.3-3.2 23.4v.5l-.2 1.2c0 .5.5.7 1.1.7h7.8c.5 0 1.2-.2 1.4-.9v-.4l3.5-24.5h8.2c.5 0 1.1-.4 1.1-1.1l.7-5.3c0-.5-.4-.9-.9-.9H309l.5-4.3c.4-2.8 1.6-3.6 4.8-3.6 1.8 0 3.9.4 4.6.5h.4c.5 0 .7-.4.9-.9l1.2-4.6v-.4c0-.1-.2-.5-.5-.5zM110.3 67.5s21.6.4 33 1.7V48.4l-8.1-.7 8.1-10.8V19.6l-15.4 19.1-17.6-30.4v23l9 15.3-9-.3v21.2zM89.2 26.2 78.1 21l8.2 10.2zM150.8 112l-4.2-19.1.3 17-24.7 24.6v-4.3l-5.4-7.7-9.4-3.8-9.4 3.8-5.4 7.7v4.3l-24.7-24.7.5-17-4.1 19.4v.1l43.1 43z" class="st0"/><path d="M83 68.4c.9-.1 1.8-.1 2.7-.1 9.6-.5 18.9-.7 18.9-.7V46.5l-9 .3 9-15.3v-23L87.1 38.7 71.7 19.6v17.3l4.6 6.1 3.5 4.6-8.1.7v20.8c2.5-.3 5.5-.5 8.6-.7.9.1 1.8 0 2.7 0z" class="st0"/><path d="m197.5 169.2-.7-11.5-1.1-11.4-.6-7.1v-.6l-.4-6.2c-.2-3.1-.3-6-.4-8.9-.1-2.9-.2-5.6-.2-8.3 0-1.8-.1-3.6-.1-5.3v-2.6c0-3.4 0-6.6.1-9.7.1-4.6.3-9 .5-13 .1-2 .2-4 .3-5.9.3-5 .7-9.6 1-13.8 1.3-16.7 5.4-34.8 5.4-34.8L107 0 12.8 30.4c3.7 15.3 5.5 36.2 6.5 51.7.2 2.7.3 5.2.4 7.5.1 2.9.2 5.4.3 7.4 0 1.2.1 2.6.1 4v7.9c0 1.1 0 2.2-.1 3.4-.2 12.5-.8 25.6-.8 25.6l-3.6 2.6c-.2.2-1.5 1.1-3.3 2.8-.2.2-.5.4-.7.7-.9 1-2 2.1-3.1 3.5-.8 1-1.6 2.1-2.5 3.4-.3.5-.6.9-.9 1.4-.1.2-.2.3-.3.5-.2.4-.4.7-.6 1.1-.2.3-.3.6-.5.9-.1.3-.3.6-.4.9-.1.3-.3.7-.4 1-.1.1-.1.2-.2.4-.5 1.2-.9 2.4-1.3 3.7-.5 1.8-.9 3.5-1 5.3-.8 6.7.1 12.1 1 15.6.3 1.3.7 2.3.9 3l-.9.6c-.9.6-1.4 1-1.4 1l1.4 2.6 5.1 9.4c8 8.4 25.2 12.6 25.2 12.6 5.5 7.7 14 14.7 24.8 20.6 10.7 5.9 30.1 12 36.1 14.1 6 2.1 14.4 5.7 14.4 5.7 2-1.6 36-13.4 48.1-18.6 1.5-.7 3.1-1.4 4.7-2.3 1.6-.9 3.2-1.8 4.9-2.9 2.5-1.6 5-3.4 7.4-5.3.8-.7 1.6-1.3 2.4-2 1.6-1.4 3.2-2.9 4.7-4.4 1.5-1.5 3-3.1 4.3-4.8 2.7-3.3 5.2-6.9 7.1-10.7 1-1.9 1.8-3.8 2.5-5.7.4-.9.7-1.9 1-2.8s.6-1.9.8-2.8c.5-1.8.9-3.6 1.2-5.3.2-.8.3-1.7.4-2.4 1.3-7 1-12.1 1-12.1zM7.6 182.3l.7-.4c.6-.3 1.2-.6 1.8-.8.4-.1.9-.2 1.3-.2h1.4c.2 0 .5.1.7.1 1.4.3 2.7 1 3.9 2.1.4.4.8.8 1.2 1.3.7 1 1.4 1.7 1.8 2.4.2.3.5.6.7.8.2.2.4.5.5.6.2.3.4.5.5.6.2.3.3.4.3.4l6.2 4.8-.2-.3-.3-.6-7.3-13.6c.3-.3 2.2-2.2 5-2.5H27c.2 0 .4 0 .6.1.4.1.9.2 1.3.4.7.2 1.4.6 2.1 1.1.5.3 1 .7 1.5 1.2.3.2.5.5.8.7.5.5 1 1.1 1.5 1.8 1 1.4 2.1 3.1 3.2 5.1l9.2 8.4-7.2-17.2s.9-.7 2.3-1.1c.3-.1.5-.1.8-.2 1-.2 2.2-.2 3.5.2.5.2 1.1.4 1.7.8 1 .6 1.9 1.4 2.9 2.7.4.5.8 1 1.1 1.6.4.6.7 1.3 1.1 2 .3.6.6 1.2.8 1.9.1.3.2.5.3.8l9.2 10.5c.6-.4 1.2-.9 1.7-1.3 1.7-1.4 3.2-2.9 4.6-4.5.5-.5.9-1.1 1.4-1.7.9-1.1 1.7-2.3 2.4-3.6.7-1.2 1.4-2.5 2-3.9.6-1.3 1.1-2.7 1.6-4.1.4-1.4.8-2.9 1.1-4.3.4-2.2.6-4.5.6-6.8 0-8.2-2.6-15.7-7.1-21.8-1.3-1.8-2.7-3.4-4.2-4.9 0 0 2.4.4 14.8 8.3.4.3.9.5 1.3.8.5.3.9.6 1.4.9.1 0 .1.1.2.1.1.1.2.1.3.2l6.1 2.4-1.3-1.2-28.2-26.3-.2-.2h-.1L48.7 131c-.8-.1-1.5-.3-2.3-.4-2-.2-4-.3-5.9-.3-.9 0-1.8.1-2.8.2-1.8.2-3.7.5-5.4 1-1.8.5-3.5 1.1-5.2 1.8-1 .4-2 .9-3 1.4.2-4.8.5-13.7.7-22.2 0-1.1 0-2.3.1-3.4v-8c0-1.5 0-2.9-.1-4.1-.1-2.4-.2-4.9-.3-7.5-.1-2.5-.3-5.1-.4-7.6-.8-13.8-2.5-32.8-5.6-48L107 5.3l88.4 28.4c-1.3 6.5-3.6 19-4.5 31l-.1 1c-.3 3.8-.6 8.2-.9 12.9-.1 2-.2 4-.3 5.9-.2 4.5-.4 8.8-.5 13.2-.1 3.2-.1 6.5-.1 9.8v2.6c0 1.7 0 3.5.1 5.3.1 2.8.1 5.6.2 8.4.1 1.9.2 3.9.3 6l-25.1-7s-1.4-.2-3.5.1c-.2 0-.4 0-.5.1-.8.1-1.6.2-2.5.4-.2.1-.4.1-.7.2-.7.2-1.4.4-2.1.7l-1.5.6c-.5.2-1 .5-1.5.7s-1 .6-1.5.9-1 .7-1.5 1c-.7.6-1.5 1.2-2.2 1.9-7.7 7.6-23.2 23.2-23.2 23.2l30.8-9.8 11.5-7.9s5.8-4.8 14.8-4.8h8.8c0 .9.1 1.9.2 2.8l.4 5.9h-.3c-1.9 0-6.6.4-11.4 3.1-.8.4-1.6 1-2.4 1.5-.8.6-1.5 1.2-2.3 2l-4.1 4.1-1.8 1.8-.8.8-2 2-1.8 1.8 15.8-3.2s.6-.1 1.7-.6c.3-.1.6-.3 1-.4.4-.2.7-.3 1.1-.6 1-.5 2.2-1.2 3.4-2.1 1-.7 2-1.3 3.1-1.6.3-.1.5-.2.8-.3.2 0 .3-.1.5-.1l1.1 11.2v.5c-3.7.8-9.1 2-14.9 4.1-.3.1-.7.2-1 .4-.7.2-1.4.5-2.2.8-.8.3-1.6.5-2.4.8-1.3.4-2.6.8-4 1.1s-2.9.7-4.5 1c-2.1.4-4.4.8-6.8 1-5.4.5-11.7.4-18.9-.8-1.6-.3-3.2-.6-4.9-1-5.1-1.1-10.5-2.8-16.5-5.2.5.5 15.5 17.3 35.5 17.4 18.4.1 26.5-5.5 41.2-8.2 0 1.4 0 5.4-.8 10.6-.1.8-.3 1.5-.4 2.3-.3 1.7-.7 3.3-1.1 4.9-.2.9-.5 1.7-.8 2.6-.3.9-.6 1.7-.9 2.6-.7 1.8-1.4 3.6-2.3 5.2-1.7 3.3-3.8 6.6-6.5 9.8-1.2 1.5-2.6 3-4 4.5-1.4 1.4-2.9 2.8-4.4 4.1-.7.6-1.5 1.3-2.3 1.9-2.2 1.8-4.6 3.5-7 5-1.5 1-3.1 1.9-4.6 2.7-1.5.8-2.9 1.5-4.3 2.1-5.7 2.4-16.6 6.5-26.3 10.1-11.5 4.3-17.1 6.4-20 7.6-2.9-1.2-8.3-3.5-12.6-5-.9-.3-2.2-.7-3.7-1.2-8-2.7-23-7.7-31.7-12.5-10.4-5.7-18.1-12.2-23.1-19.1l-1.1-1.5-1.8-.4c-4.3-1.1-16.4-5-22.3-10.8l-4.1-7.5 1.8-1.3L7 183" class="st0"/><path d="m136.9 21-11.1 5.2 2.9 5zM120.1 208.6c-2.2.1-4.4.1-6.5.1h-2.1c-1.4 0-2.7 0-4-.1-2.6-.1-5.1-.2-7.4-.3-1.1-.1-2.2-.1-3.3-.2-.5 0-1-.1-1.5-.1-1-.1-1.9-.2-2.8-.3-.9-.1-1.7-.2-2.5-.2-1.5-.2-2.8-.3-3.8-.4-1.5-.2-2.3-.3-2.3-.3-6.4 8.8-17.6 17.2-17.6 17.2s12 5.4 22.6 8.7c1.2.4 2.3.7 3.5 1.1.6.2 1.1.4 1.7.6 1.7.6 3.2 1.1 4.7 1.7 1 .4 1.9.7 2.7 1 .8.3 1.6.6 2.3.9 2 .8 3.2 1.3 3.2 1.3.6-.4 3.9-1.5 8.8-3.1.9-.3 1.8-.6 2.8-1 .5-.2 1-.3 1.5-.5 1.5-.5 3.2-1.1 4.9-1.7 3.4-1.2 7.2-2.6 11-4.1 1.3-.5 2.6-1 3.9-1.6 4.6-1.9 9.2-3.9 13.6-6.1 20.3-10 27.6-26.6 27.6-26.6s-25.2 11.4-49.8 13.6c-3.8.1-7.6.3-11.2.4zM97.4 83.7v-.8l-6.3-1-.6.7 2.6 2.2zM128 181.3c-.1-.1-1.6-1-3.8-2.4-.9-.6-1.9-1.3-3-2-1.6-1.1-3.4-2.4-5.3-3.8-.6-.5-1.3-.9-1.9-1.4-1.6-1.2-3.2-2.5-4.7-3.8-1.5-1.3-3-2.7-4.4-4l-17-3.7s2.1 4.9 3.7 13.4l36.4 7.7z" class="st0"/><path d="M101.1 72.2h-.9c-.6 0-1.1.1-1.7.1-.6 0-1.1.1-1.6.1-.8.1-1.5.1-2.3.2-.5 0-.9.1-1.4.1-.4 0-.9.1-1.3.1-.6.1-1.1.1-1.6.2-.3 0-.6.1-.9.1-1.1.1-1.7.2-1.7.2l-2.1 5.4 10.4-.3 4.8 2.4 4.9 2.4.6 17.5c1.3 0 2.2-.3 2.8-.6.2-.1.3-.2.5-.4l.2-.2c.4-.4.4-.8.4-.8s.6.2 1.4.5c.7.2 1.5.5 2.3.7.8.2 1.6.3 2.1.1 1.7-.4 2.5-3 2.5-3l4.9 5.7v9.6l-8.7-8.5-7.2 3.5-4.8-2.3-2.3-1.1-8.8 8.5V123l4.7-5.3 11.3-4.7 11.3 4.7 4.7 5.3 7.3-9.2 3.1-15.2-6.7 1.9 6-11.3-2.1-5.3-6.7 4.7-8.5-2v3.3l-2 2-4.7-8.7 9.7-4.8 10.4.3-2.1-5.4s-9.8-1.2-19.5-1.2h-.1c-1.2 0-2.4 0-3.6.1h-3z" class="st0"/><path d="m81.8 89.1 6 11.3 3.7 1.4 7.7-11.9v-3.3l-8.6 2-6.7-4.8zM117.4 83.7l4.3 1.1 2.7-2.2-.7-.7-6.3 1z" class="st0"/></svg>