<svg xmlns="http://www.w3.org/2000/svg" width="81" height="99" fill="none"><g clip-path="url(#a)"><path fill="#010101" d="M40.687 0 .922 12.622l.442 1.82.552 2.27c.02.08 1.91 7.985 2.623 17.251.015.323.033.682.05 1.072.124 2.586.312 6.494.176 8.407v.04l-.007.093v.04c-.014.376-.32 9.285-.693 13.141-.026.273-.057.567-.091.882l-.003.025c-.25 2.363-.629 5.935-.189 9.908.531 4.807 2.15 9.105 4.811 12.774 7.324 10.102 20.953 14.026 22.483 14.44 3.603.976 6.877 2.682 7.313 2.925l.573.335.471.274 1.238.681 1.237-.68.471-.275.574-.335c.435-.243 3.895-1.957 7.497-2.933 1.53-.414 15.345-4.33 22.668-14.432 2.66-3.669 4.279-7.967 4.812-12.774.438-3.973.061-7.545-.189-9.908l-.003-.025c-.033-.313-.065-.607-.091-.882-.374-3.856-.68-12.765-.692-13.142v-.038l-.007-.095v-.039c-.138-1.913.05-5.821.173-8.407.02-.39.035-.749.05-1.072.713-9.266 2.604-17.173 2.623-17.251l.552-2.27.442-1.82L40.687 0Z"/><path fill="#FAB60A" d="m40.669 95.55-.814-.473c-.585-.326-4.085-2.144-7.991-3.201-.569-.154-13.998-3.877-20.83-13.3-2.35-3.24-3.78-7.053-4.254-11.335-.402-3.648-.045-7.025.19-9.26l.009-.081c.032-.302.061-.587.087-.851.385-3.973.69-12.94.704-13.32l.004-.08c.137-1.935-.003-5.245-.172-8.755l-.057-1.158C6.823 24.33 4.93 16.35 4.85 16.016l-.333-1.373L40.69 3.14l36.502 11.502-.331 1.36c-.08.332-1.977 8.338-2.7 17.733l-.003.047-.052 1.112c-.167 3.506-.307 6.811-.172 8.745l.005.09c.013.38.32 9.364.703 13.32.027.281.06.585.094.908l.003.028c.236 2.233.593 5.608.19 9.255-.472 4.281-1.905 8.095-4.254 11.336-6.831 9.422-20.446 13.137-21.014 13.29-3.908 1.06-7.595 2.885-8.178 3.21l-.814.473ZM9.706 43.803c-.017.494-.323 9.425-.712 13.43-.026.27-.057.561-.089.872l-.008.077c-.228 2.154-.572 5.406-.192 8.844.435 3.944 1.748 7.448 3.897 10.412 6.433 8.873 19.226 12.419 19.767 12.565 3.869 1.048 7.377 2.823 8.298 3.31.923-.487 4.802-2.262 8.672-3.31.541-.146 13.332-3.692 19.766-12.565 2.15-2.964 3.461-6.468 3.896-10.412.38-3.438.038-6.686-.19-8.837l-.003-.028c-.036-.33-.068-.638-.096-.925-.386-3.99-.695-12.93-.711-13.433v-.04c-.143-2.04-.002-5.403.169-8.963l.06-1.217c.651-8.483 2.251-15.867 2.655-17.644L40.68 5.092 6.823 15.94c.4 1.751 2 9.13 2.655 17.645l.007.09.053 1.125c.171 3.565.312 6.934.171 8.975v.028h-.003Z"/><path fill="#FAB60A" d="M42.06 31.616v.049l.01 10.611s10.917.221 16.651.861h.013V32.628l-4.08-.369h-.023l4.09-5.436.013-.016v-8.765l-7.787 9.67-8.878-15.36v.072l-.01 11.58 4.552 7.737h-.043l-4.509-.127v.002ZM27.664 53.2l.004.007 3.022 5.68 1.903.722 3.84-6.009.013-.02v-1.67l-4.314.992-3.4-2.39-1.068 2.687Z"/><path fill="#FAB60A" d="m30.747 45.206-1.053 2.734h.007l5.231-.148 4.896 2.417.295 8.865c1.535 0 1.868-.778 1.932-.986v-.003c.01-.03.013-.049.013-.049s2.062.894 2.904.687c.841-.203 1.247-1.5 1.247-1.5l2.454 2.858v4.865l-.013-.013-4.4-4.287-3.648 1.742-3.63-1.741-4.421 4.307v5.34l2.365-2.68 5.686-2.376 5.706 2.377 2.365 2.68 3.684-4.66.003-.005 1.566-7.696-3.38.947-.016.005 3.006-5.653.018-.034-1.069-2.686-3.4 2.389-4.31-.992v1.67l-.013.012-.994.991-2.358-4.341-.018-.035 4.895-2.416 5.208.146h.032l-1.053-2.732s-4.955-.611-9.872-.611c-4.916 0-9.859.61-9.859.61l-.006.002Z"/><path fill="#FAB60A" d="M45.69 50.097v.357l2.155.554 1.306-1.082.032-.027-.325-.362-3.168.513v.047ZM22.58 32.633v10.51c5.659-.633 16.385-.857 16.652-.862h.013l.01-10.662-4.532.125h-.017l4.535-7.713.013-.021-.01-11.651-8.874 15.359-7.79-9.672v8.766l4.106 5.447-.047.005-4.06.367v.002ZM20.895 55.122l-2.046 9.752L40.62 86.646l21.887-21.887.02-.02-2.12-9.63.002.117.157 8.445-.013.013L48.1 76.135v-2.199l-2.737-3.88-4.752-1.93-4.735 1.93-2.737 3.88V76.135l-.013-.013-12.487-12.487.27-8.574-.014.061ZM35.536 50.458l.013-.004v-.404l-3.169-.513-.324.362.018.014 1.32 1.095 2.142-.55ZM55.442 18.853l.055-.07-5.586 2.607.02.034 1.445 2.482 4.066-5.053Z"/><path fill="#FAB60A" d="m31.377 21.437.024-.044-5.582-2.607.07.09 4.047 5.033 1.44-2.472Z"/></g><defs><clipPath id="a"><path fill="#fff" d="M.922 0h79.866v99H.922z"/></clipPath></defs></svg>