<?xml version="1.0" encoding="UTF-8"?><svg id="Capa_2" xmlns="http://www.w3.org/2000/svg" viewBox="0 0 618.03 251.4"><defs><style>.cls-1{fill:#fab50c;}</style></defs><g id="Capa_3"><g><path class="cls-1" d="M6.54,198.36c7.98,8.36,25.16,12.65,25.16,12.65,5.53,7.72,14.05,14.66,24.76,20.59,10.7,5.94,30.12,11.98,36.13,14.06,6.01,2.07,14.38,5.74,14.38,5.74,1.96-1.59,36-13.42,48.12-18.64,12.13-5.21,27.9-17.23,35.55-32.39,7.66-15.17,6.87-31.17,6.87-31.17-18.06,2.25-25.89,9.08-46.22,9.01-20.33-.08-35.5-17.44-35.5-17.44,31.75,12.63,50.4,5.59,61.16,1.88,10.76-3.7,19.88-4.94,19.88-4.94l-1.12-11.41s-5.46-.26-9.3,2.63c-3.83,2.89-7.13,3.69-7.13,3.69l-15.83,3.2s4.61-4.64,10.52-10.55c5.91-5.91,13.51-6.6,16-6.6h5.13c-2.36-33.83-.53-56.93,.72-73.59,1.26-16.66,5.35-34.76,5.35-34.76L106.98,0,12.76,30.41c5.09,21.23,6.75,53.55,7.17,66.62,.42,13.07-.79,40.86-.79,40.86h.03c2.47-1.91,5.17-3.51,8.08-4.75,6.68-2.88,14.43-3.72,21.62-2.33l13.42-5.08,.09-.03,.18,.17,28.17,26.33,1.28,1.19,.04,.04-6.06-2.37c-.15-.09-.28-.18-.43-.28-.96-.62-1.87-1.2-2.73-1.74-12.39-7.83-14.84-8.27-14.84-8.27h0c1.55,1.5,2.95,3.14,4.22,4.89l-.04-.02c4.44,6.14,7.06,13.68,7.06,21.83,0,12.44-6.1,23.46-15.46,30.24l-9.22-10.45c-.11-.28-.22-.53-.33-.79-.27-.66-.55-1.28-.83-1.85-5.85-11.85-13.42-6.03-13.42-6.03l7.26,17.09-9.16-8.38c-8.61-16.6-16.62-8.61-17.23-7.97l-.04,.04,7.26,13.62,.52,.98-6.18-4.76s-.84-1.04-3.81-4.86c-2.97-3.82-7.2-4.33-10.26-2.48l-.69,.44c-1.97-4.55-3.07-9.57-3.07-14.84-.57-9.19,5.39-21.29,10.9-26.92-.41,.31-5.12,3.77-9.5,10.38h0c-2.87,4.17-5.09,9.73-5.57,15.12v.02c-1.05,9.07,.97,15.98,1.93,18.62-1.36,.94-2.33,1.65-2.33,1.65l6.54,12.01ZM164.43,122.79l25.83,7.19s-.48,.03-9.44,.03-14.81,4.78-14.81,4.78l-11.5,7.95-30.75,9.78s15.54-15.58,23.19-23.19c7.65-7.61,17.48-6.53,17.48-6.53Zm-27.57-101.75l-8.15,10.14-2.9-4.98,11.05-5.16Zm-26.59,10.33l.02-23.05,17.57,30.39,15.41-19.14v17.34l-8.12,10.79,8.12,.74v20.8c-11.34-1.27-32.98-1.71-32.98-1.71l-.02-21.1,9.01,.25-9.01-15.31Zm-2.87,40.75c9.73,0,19.54,1.21,19.54,1.21l2.08,5.41-10.37-.29-9.69,4.78,4.7,8.66,1.99-1.99v-3.31l8.53,1.96,6.73-4.73,2.11,5.32-5.99,11.25,6.72-1.88-3.1,15.23-7.3,9.23-4.68-5.3-11.29-4.7-11.25,4.7-4.68,5.3v-10.57l8.75-8.53,7.18,3.45,7.22-3.45,8.73,8.51v-9.63l-4.86-5.66s-.8,2.57-2.47,2.97c-1.66,.41-5.75-1.36-5.75-1.36,0,0-.34,2.05-3.85,2.05l-.58-17.54-9.69-4.78-10.37,.29,2.08-5.41s9.79-1.21,19.51-1.21Zm16.97,10.49l-2.65,2.19-4.27-1.09v-.8l6.27-1.01,.64,.72Zm-33.74,5.94l8.54-1.96v3.31l-7.63,11.93-3.77-1.43-5.99-11.25,2.11-5.32,6.73,4.73Zm-.15-5.94l.64-.72,6.27,1.01v.8l-4.27,1.09-2.65-2.19Zm-1.29-56.41l-2.9,4.98-8.15-10.14,11.05,5.16Zm-17.46,22.24l8.12-.74-8.12-10.78V19.58l15.42,19.14,17.56-30.39,.02,23.05-9,15.31,9-.25-.02,21.1s-21.64,.44-32.98,1.71v-20.8Zm-7.38,63.8l4.08-19.42-.53,16.97,24.74,24.74v-4.35l5.41-7.68,9.37-3.82,9.41,3.82,5.41,7.68v4.35l24.67-24.66-.32-16.94,4.19,19.06-43.35,43.35-43.08-43.08Zm40.65,51.52c8.6,8.69,22.55,17.24,22.98,17.51l-36.33-7.81c-1.56-8.55-3.7-13.44-3.7-13.44l17.04,3.74Zm-21.1,42.84s22.9,3.54,47.48,1.31c24.59-2.23,49.77-13.62,49.77-13.62,0,0-7.33,16.58-27.64,26.56-20.31,9.98-44.75,17.1-46.61,18.17,0,0-8.63-3.51-18-6.47-10.57-3.34-22.61-8.71-22.61-8.71,0,0,11.24-8.39,17.61-17.23Z"/><g><g><path class="cls-1" d="M238.54,90.02V30.3h19.18v25.52l21.27-25.52h23.78l-21.44,24.56,21.87,35.15h-22.66l-12.67-22.31-10.16,9.81v12.5h-19.18Z"/><path class="cls-1" d="M310.85,90.02V30.3h19.18v59.72h-19.18Z"/><path class="cls-1" d="M342.88,90.02V30.3h16.32l18.58,21.44c.52,.58,1.22,1.42,2.08,2.52,.87,1.1,1.75,2.21,2.65,3.34,.9,1.13,1.58,2.04,2.04,2.73l.43-.17c-.06-1.62-.09-3.23-.09-4.82V30.3h17.45v59.72h-16.23l-20.92-23.87c-.99-1.16-1.82-2.21-2.52-3.17-.69-.95-1.36-1.87-2-2.73l-.43,.17c.06,1.1,.09,2.2,.09,3.3v26.3h-17.45Z"/><path class="cls-1" d="M442.44,91.06c-9.95,0-17.4-2.6-22.35-7.81-4.95-5.21-7.42-12.9-7.42-23.09,0-6.83,1.27-12.53,3.82-17.1,2.55-4.57,6.25-8.01,11.11-10.33,4.86-2.31,10.73-3.47,17.62-3.47,4.17,0,8.09,.48,11.76,1.43,3.67,.95,6.91,2.37,9.72,4.25,2.81,1.88,4.99,4.24,6.55,7.07,1.56,2.84,2.34,6.13,2.34,9.9h-18.32c0-1.27-.3-2.43-.91-3.47-.61-1.04-1.43-1.92-2.47-2.65-1.04-.72-2.24-1.27-3.6-1.65-1.36-.38-2.79-.56-4.3-.56-2.26,0-4.25,.3-5.99,.91-1.74,.61-3.17,1.52-4.3,2.73-1.13,1.22-1.98,2.66-2.56,4.34-.58,1.68-.87,3.62-.87,5.82v5.56c0,2.89,.51,5.37,1.52,7.42,1.01,2.05,2.55,3.63,4.6,4.73,2.05,1.1,4.59,1.65,7.6,1.65,2.02,0,3.89-.3,5.6-.91,1.71-.61,3.08-1.49,4.12-2.65,1.04-1.16,1.56-2.49,1.56-3.99v-.35h-13.54v-12.15h31.86v33.33h-9.9l-1.91-5.9c-1.79,1.51-3.76,2.78-5.9,3.82-2.14,1.04-4.49,1.82-7.03,2.34-2.55,.52-5.35,.78-8.42,.78Z"/><path class="cls-1" d="M514.31,91.06c-4.11,0-7.94-.3-11.5-.91-3.56-.61-6.68-1.65-9.37-3.12-2.69-1.48-4.8-3.53-6.34-6.16-1.53-2.63-2.3-5.95-2.3-9.94v-.48c0-.2,.03-.42,.09-.65h18.14c-.06,.23-.09,.45-.09,.65v.56c0,1.74,.4,3.07,1.22,3.99,.81,.93,1.95,1.55,3.43,1.87,1.48,.32,3.14,.48,4.99,.48,.7,0,1.43-.01,2.21-.04,.78-.03,1.53-.12,2.26-.26,.72-.14,1.39-.36,2-.65,.61-.29,1.08-.68,1.43-1.17,.35-.49,.52-1.11,.52-1.87,0-1.1-.49-1.97-1.48-2.6-.98-.64-2.32-1.19-3.99-1.65-1.68-.46-3.56-.9-5.64-1.3-2.08-.4-4.25-.88-6.51-1.43-2.26-.55-4.43-1.26-6.51-2.13-2.08-.87-3.96-1.98-5.64-3.34-1.68-1.36-3.01-3.07-3.99-5.12-.98-2.05-1.48-4.53-1.48-7.42,0-3.47,.72-6.42,2.17-8.85,1.45-2.43,3.43-4.4,5.95-5.9,2.52-1.5,5.38-2.6,8.59-3.3,3.21-.69,6.58-1.04,10.11-1.04s6.96,.36,10.11,1.09c3.15,.72,5.95,1.84,8.38,3.34,2.43,1.51,4.34,3.41,5.73,5.73,1.39,2.32,2.11,5.06,2.17,8.25v1.04h-17.97v-.35c0-1.04-.26-2.03-.78-2.95-.52-.92-1.35-1.68-2.47-2.26-1.13-.58-2.62-.87-4.47-.87-1.74,0-3.2,.17-4.38,.52-1.19,.35-2.07,.82-2.65,1.43-.58,.61-.87,1.26-.87,1.95,0,1.1,.49,2,1.48,2.69,.98,.69,2.31,1.27,3.99,1.74,1.68,.46,3.56,.9,5.64,1.3,2.08,.41,4.25,.85,6.51,1.35,2.26,.49,4.43,1.14,6.51,1.95,2.08,.81,3.96,1.87,5.64,3.17,1.68,1.3,3.01,2.91,3.99,4.82,.98,1.91,1.48,4.25,1.48,7.03,0,4.92-1.14,8.91-3.43,11.98-2.29,3.07-5.41,5.31-9.37,6.73-3.97,1.42-8.46,2.13-13.5,2.13Z"/></g><g><path class="cls-1" d="M238.54,167.06v-59.72h19.18v44.44h30.64v15.28h-49.82Z"/><path class="cls-1" d="M296.7,167.06v-59.72h51.65v14.32h-32.46v8.25h27.78v13.71h-27.78v9.11h33.07v14.32h-52.25Z"/><path class="cls-1" d="M353.56,167.06l21.79-59.72h22.31l21.79,59.72h-20.31l-2.52-8.42h-20.92l-2.52,8.42h-19.62Zm26.13-21.79h13.02l-2.86-9.55c-.23-.69-.49-1.53-.78-2.52-.29-.98-.58-2.03-.87-3.12-.29-1.1-.58-2.18-.87-3.26-.29-1.07-.55-2.01-.78-2.82h-.69c-.23,1.04-.54,2.23-.91,3.56-.38,1.33-.77,2.71-1.17,4.12-.41,1.42-.81,2.76-1.22,4.04l-2.86,9.55Z"/><path class="cls-1" d="M452.16,168.11c-9.95,0-17.4-2.6-22.35-7.81-4.95-5.21-7.42-12.9-7.42-23.09,0-6.83,1.27-12.53,3.82-17.1,2.55-4.57,6.25-8.01,11.11-10.33,4.86-2.31,10.73-3.47,17.62-3.47,4.17,0,8.09,.48,11.76,1.43,3.67,.95,6.91,2.37,9.72,4.25,2.81,1.88,4.99,4.24,6.55,7.07,1.56,2.84,2.34,6.13,2.34,9.9h-18.32c0-1.27-.3-2.43-.91-3.47-.61-1.04-1.43-1.92-2.47-2.65-1.04-.72-2.24-1.27-3.6-1.65-1.36-.38-2.79-.56-4.3-.56-2.26,0-4.25,.3-5.99,.91-1.74,.61-3.17,1.52-4.3,2.73-1.13,1.22-1.98,2.66-2.56,4.34-.58,1.68-.87,3.62-.87,5.82v5.56c0,2.89,.51,5.37,1.52,7.42,1.01,2.05,2.55,3.63,4.6,4.73,2.05,1.1,4.59,1.65,7.6,1.65,2.02,0,3.89-.3,5.6-.91,1.71-.61,3.08-1.49,4.12-2.65,1.04-1.16,1.56-2.49,1.56-3.99v-.35h-13.54v-12.15h31.86v33.33h-9.9l-1.91-5.9c-1.79,1.51-3.76,2.78-5.9,3.82-2.14,1.04-4.48,1.82-7.03,2.34-2.55,.52-5.35,.78-8.42,.78Z"/><path class="cls-1" d="M524.98,168.11c-6.25,0-11.59-.94-16.01-2.82-4.43-1.88-7.83-4.69-10.2-8.42-2.37-3.73-3.56-8.35-3.56-13.85v-35.68h19.18v35.41c0,3.18,.87,5.82,2.6,7.9,1.74,2.08,4.37,3.12,7.9,3.12s6.18-1.04,7.94-3.12c1.76-2.08,2.65-4.72,2.65-7.9v-35.41h19.18v35.68c0,5.5-1.17,10.11-3.52,13.85-2.34,3.73-5.73,6.54-10.16,8.42-4.43,1.88-9.77,2.82-16.01,2.82Z"/><path class="cls-1" d="M565.78,167.06v-59.72h51.65v14.32h-32.46v8.25h27.78v13.71h-27.78v9.11h33.07v14.32h-52.25Z"/></g><g><path class="cls-1" d="M238.54,225.71c0,.53,.53,.89,1.06,.89h8.87c.53,0,1.06-.35,1.24-1.06l5.5-46.3v-.18c0-.53-.35-.89-.71-.89h-9.58c-.53,0-.71,.35-.71,.89l-5.68,46.65Z"/><path class="cls-1" d="M291.05,198.93c0,1.42-.18,2.84-.35,4.26l-2.84,22.35c0,.53-.53,1.06-1.06,1.06h-8.16c-.53,0-1.06-.35-1.06-.89v-.18l2.66-21.64c.18-.89,.18-1.95,.18-2.66h0c0-1.06-.18-1.95-.71-2.48-.71-.71-1.77-1.06-3.37-1.06-3.19,0-6.92,.89-6.92,.89l-3.37,27.14c0,.53-.53,1.06-1.24,1.06h-8.16c-.53,0-1.06-.35-1.06-.89v-.18l3.55-29.09c.89-2.66,2.48-3.37,6.56-4.26,3.55-.71,8.87-1.6,12.95-1.6,4.79,0,8.34,.71,10.47,2.66,1.06,1.24,1.95,3.02,1.95,5.5h0Z"/><path class="cls-1" d="M375.3,179.06c0-.53-.18-.71-.71-.71h-9.58c-.53,0-.89,.35-.89,.89l-5.85,48.6c-.89,4.97-3.02,4.97-6.39,5.14-1.42,0-2.66,0-3.55,.18-1.06,0-1.42,.35-1.6,1.42l-.53,3.9v.35c0,.89,.53,1.06,1.24,1.06,1.24,.18,1.77,.35,6.39,.35,7.8,0,14.19-2.31,15.43-12.77l6.03-48.43Z"/><path class="cls-1" d="M352.24,217.02c-2.13,6.03-6.74,10.11-17.38,10.11-6.03,0-9.76-1.24-12.06-3.55-2.31-2.31-3.02-5.68-3.02-9.4,0-4.26,.89-10.64,2.48-14.37,2.31-5.68,6.92-9.4,17.03-9.4,6.03,0,9.93,1.42,12.06,3.55,2.31,2.31,3.02,5.32,3.02,9.22,0,4.26-.71,10.11-2.13,13.84m-9.4-18.27c-.89-.89-2.13-1.42-4.43-1.42-4.79,0-6.39,2.13-7.27,6.92-.53,3.19-1.06,6.92-1.06,10.29,0,2.13,.35,3.55,1.24,4.43s2.13,1.24,4.26,1.24c4.97,0,6.39-2.31,7.27-7.27,.53-3.19,1.06-6.56,1.06-9.76,0-2.13-.18-3.55-1.06-4.43"/><path class="cls-1" d="M409.54,217.02c-2.13,6.03-6.74,10.11-17.38,10.11-6.03,0-9.76-1.24-12.06-3.55-2.31-2.31-3.02-5.68-3.02-9.4,0-4.26,.89-10.64,2.48-14.37,2.31-5.68,6.92-9.4,17.21-9.4,6.03,0,9.93,1.42,12.06,3.55,2.31,2.31,3.02,5.32,3.02,9.22-.18,4.26-.89,10.11-2.31,13.84m-9.4-18.27c-.89-.89-2.13-1.42-4.43-1.42-4.79,0-6.39,2.13-7.27,6.92-.53,3.19-1.06,6.92-1.06,10.29,0,2.13,.18,3.55,1.24,4.43,.89,.89,2.13,1.24,4.26,1.24,4.97,0,6.39-2.31,7.27-7.27,.53-3.19,1.06-6.56,1.06-9.76,.18-2.13-.18-3.55-1.06-4.43"/><path class="cls-1" d="M448.56,215.96c-2.31,7.45-6.92,11.18-17.56,11.18-5.14,0-9.76-.71-12.24-1.6-2.66-.89-3.19-1.95-3.19-3.73,0-.89,.18-1.95,.35-3.19l4.61-38.85c0-.89,.53-1.42,1.42-1.6h8.16c.53,0,1.06,.35,1.06,.89v.18l-1.06,8.51-.53,3.9s4.08-1.24,8.34-1.24,7.63,.89,9.58,2.84c1.95,1.95,3.02,4.97,3.02,9.58,0,4.26-.71,9.05-1.95,13.13m-9.4-17.03c-.89-1.06-2.31-1.42-4.43-1.42-2.66,0-6.21,.89-6.21,.89l-2.66,21.29s2.31,.53,5.14,.53c4.79,0,6.74-1.42,7.98-8.34,.53-2.84,.89-5.85,.89-8.87,.18-1.95-.18-3.37-.71-4.08"/><path class="cls-1" d="M481.91,197.69c-.18,.53-.53,.71-1.06,.71h-.35c-.71,0-4.43-.89-7.98-.89-1.6,0-3.73,.18-4.97,1.24-.89,.71-1.24,1.77-1.24,2.84h0c0,2.84,3.02,2.84,6.21,3.55,2.66,.35,5.32,1.06,7.1,2.84,1.42,1.24,2.13,3.19,2.13,6.21,0,3.19-1.06,6.56-3.37,9.05-3.02,3.02-7.63,4.26-12.77,4.26-5.68,0-11-1.42-12.06-1.95-.18-.18-.53-.18-.53-.71v-.53l1.42-4.26c.18-.53,.53-.89,.89-.89h.35c.89,.18,5.5,1.6,9.58,1.6,1.95,0,3.55-.35,4.79-1.42,1.06-.89,1.42-1.95,1.42-3.02,0-1.42-.53-2.13-1.42-2.66s-2.13-.71-3.73-.89c-2.48-.53-5.85-.89-7.98-3.02-1.24-1.42-2.13-3.19-2.13-5.85,0-3.02,.71-6.03,2.66-8.34,3.37-4.08,9.05-4.61,13.3-4.61,5.32,0,9.4,1.06,10.64,1.6,.53,.18,.53,.53,.53,.89v.35l-1.42,3.9Z"/><path class="cls-1" d="M320.85,179.42c-1.06-.35-4.08-1.06-8.87-1.06-7.8,0-11.88,3.55-12.77,10.64l-.35,4.26-.89,7.27-3.19,23.41h0v.53l-.18,1.24h0c0,.53,.53,.71,1.06,.71h7.8c.53,0,1.24-.18,1.42-.89v-.53h0l3.55-24.48h8.16c.53,0,1.06-.35,1.06-1.06l.71-5.32h0c0-.53-.35-.89-.89-.89h-8.51l.53-4.26c.35-2.84,1.6-3.55,4.79-3.55,1.77,0,3.9,.35,4.61,.53h.35c.53,0,.71-.35,.89-.89l1.24-4.61v-.35c0-.35-.18-.71-.53-.71Z"/></g></g></g></g></svg>
