<svg xmlns="http://www.w3.org/2000/svg" width="700" height="700" fill="none"><g fill="#fff" clip-path="url(#a)"><path d="m397.194 265.668-67.131 63.611c-4.56 4.316-1.325 11.702 5.111 11.702h68.125a8.41 8.41 0 0 0 5.829-2.33l77.024-72.994h-88.969l.011.011ZM241.105 350l-76.648 72.63c-4.559 4.316-1.325 11.702 5.111 11.702h71.515l87.346-82.775c.596-.563.198-1.557-.619-1.557h-86.705ZM241.105 265.668l-76.648 72.63c-4.559 4.317-1.325 11.702 5.111 11.702h71.515l88.99-84.332h-88.968ZM397.194 434.332l-67.131-63.611c-4.56-4.316-1.325-11.702 5.111-11.702h68.125a8.41 8.41 0 0 1 5.829 2.33l77.024 72.994h-88.969l.011-.011ZM515.793 265.668h-1.104c0 12.674-10.311 22.985-22.984 22.985v1.104c12.673 0 22.984 10.311 22.984 22.984h1.104c0-12.673 10.311-22.984 22.985-22.984v-1.104c-12.674 0-22.985-10.311-22.985-22.985Z"/><path d="M597.486 102.514C531.381 36.409 443.483 0 350 0S168.619 36.409 102.514 102.514C36.409 168.619 0 256.517 0 350s36.409 181.381 102.514 247.486C168.619 663.591 256.517 700 350 700s181.381-36.409 247.486-102.514C663.591 531.381 700 443.483 700 350s-36.409-181.381-102.514-247.486Zm-491.848 3.135C170.915 40.372 257.698 4.427 350 4.427c92.302 0 179.085 35.945 244.351 101.211 64.747 64.747 100.615 150.669 101.189 242.143h-81.969c-.574-69.583-27.919-134.915-77.178-184.185C486.604 113.807 420.411 86.385 350 86.385s-136.604 27.422-186.393 77.211c-49.27 49.27-76.615 114.602-77.178 184.185H4.46c.574-91.474 36.442-177.396 101.189-242.143m503.528 244.351c0 69.229-26.959 134.308-75.908 183.258-48.95 48.949-114.04 75.908-183.258 75.908s-134.308-26.959-183.258-75.908c-48.949-48.95-75.908-114.04-75.908-183.258s26.959-134.308 75.908-183.258c48.95-48.949 114.04-75.908 183.258-75.908s134.308 26.959 183.258 75.908c48.949 48.95 75.908 114.04 75.908 183.258ZM594.362 594.34c-65.266 65.266-152.049 101.211-244.351 101.211-92.302 0-179.085-35.945-244.351-101.211C40.902 529.604 5.023 443.693 4.46 352.219h81.97c.573 69.583 27.918 134.915 77.177 184.185 49.789 49.789 115.982 77.211 186.393 77.211s136.604-27.422 186.393-77.211c49.27-49.27 76.615-114.602 77.178-184.185h81.969c-.574 91.474-36.442 177.396-101.189 242.143"/><path d="m140.965 151.773-5.321 6.756-19.364.265-12.397 15.764 11.823 9.307-4.438 5.63-28.15-22.156 4.426-5.631 11.26 8.865 12.188-15.488-3.499-18.713 5.31-6.756 4.217 22.455 23.945-.298ZM181.58 108.773s4.283 4.825-.85 9.086l-28.692 23.779c-4.968 4.118-9.086-.85-9.086-.85l-18.745-22.62 5.52-4.57 18.745 22.62 27.588-22.863-18.745-22.62 5.519-4.57 18.746 22.619v-.011ZM187.685 70.974l41.111 9.56-12.397-24.254 6.381-3.257 16.316 31.905-6.381 3.257-41.111-9.56 12.397 24.242-6.381 3.268-16.316-31.905 6.381-3.256ZM249.123 44.078l-6.789 2.291 11.456 33.943 6.789-2.291-11.456-33.943ZM321.705 49.204l1.48 8.467s1.115 6.348-5.951 7.584l-42.348 7.419-1.115-6.348 42.348-7.419-1.479-8.467-35.283 6.182c-7.054 1.237-8.169-5.111-8.169-5.111l-1.358-7.761s-1.115-6.348 5.951-7.584l41.641-7.286 1.115 6.347-41.641 7.287 1.358 7.76 35.282-6.182c7.054-1.236 8.169 5.123 8.169 5.123M389.93 36.265l-.552 11.448s-.309 6.447-7.463 6.094l-35.779-1.711-.552 11.448-7.154-.342 1.712-35.78 42.944 2.054c7.153.342 6.844 6.79 6.844 6.79Zm-42.944-2.053-.552 11.448 35.78 1.711.552-11.448-35.78-1.711ZM457.228 52.77l-6.127 22.1s-1.722 6.216-8.633 4.295l-34.532-9.571c-6.9-1.91-5.178-8.125-5.178-8.125l6.127-22.102s1.723-6.215 8.633-4.305l34.532 9.571c6.9 1.921 5.178 8.125 5.178 8.125m-41.432-11.492-6.127 22.101 34.532 9.572 6.127-22.102-34.521-9.57h-.011ZM500.867 107.139l-2.119-14.174-24.586-13.281-5.453 10.09-6.304-3.411 17.034-31.53 37.833 20.435c6.304 3.411 3.235 9.086 3.235 9.086l-5.454 10.09s-3.069 5.674-9.372 2.274l2.119 14.175-6.933-3.742v-.012Zm13.336-26.197-31.529-17.034-5.454 10.09 31.53 17.035 5.453-10.09ZM571.587 125.333l-16.438-13.855-18.944 22.466-5.476-4.615 18.933-22.466-16.438-13.854 4.162-4.935 38.352 32.335-4.151 4.924ZM601.803 184.869l-6.79 5.277s-5.089 3.964-9.494-1.689l-26.407-33.924 5.09-3.964 26.417 33.925 6.779-5.277-22.013-28.272c-4.405-5.653.684-9.616.684-9.616l6.215-4.846s5.09-3.963 9.495 1.689l25.976 33.362-5.09 3.963-25.976-33.362-6.215 4.846 22.013 28.273c4.405 5.652-.684 9.615-.684 9.615ZM109.513 566.895l-5.222-6.833 4.582-18.812-12.177-15.952-11.967 9.13-4.339-5.697 28.483-21.737 4.349 5.697-11.393 8.699 11.945 15.665 18.999 1.27 5.222 6.844-22.797-1.534-5.685 23.26ZM163.044 606.152s-4.029 5.045-9.097.718l-28.327-24.199c-4.902-4.184-.718-9.097-.718-9.097l19.088-22.333 5.453 4.659-19.087 22.333 27.245 23.272 19.088-22.334 5.454 4.648-19.088 22.333h-.011ZM200.292 594.969l15.731 39.169 12.762-24.056 6.326 3.356L218.33 645.1l-6.336-3.367-15.732-39.158-12.75 24.056-6.337-3.356 16.791-31.662 6.326 3.356ZM249.71 618.273l-11.976 33.762 6.753 2.395 11.976-33.762-6.753-2.395ZM316.119 656.029l-1.611 8.446s-1.204 6.336-8.247 4.989l-42.238-8.047 1.204-6.337 42.237 8.048 1.612-8.446-35.194-6.701c-7.043-1.335-5.829-7.672-5.829-7.672l1.479-7.739s1.204-6.337 8.247-4.99l41.531 7.916-1.203 6.336-41.532-7.904-1.479 7.739 35.194 6.701c7.044 1.347 5.829 7.672 5.829 7.672M384.433 641.457l.375 11.459s.21 6.447-6.955 6.679l-35.813 1.17.376 11.459-7.165.232-1.17-35.812 42.977-1.402c7.165-.232 7.375 6.215 7.375 6.215Zm-42.978 1.402.376 11.459 35.812-1.17-.375-11.459-35.813 1.17ZM446.928 626.664l5.796 22.189s1.633 6.238-5.299 8.048l-34.665 9.064c-6.933 1.81-8.567-4.427-8.567-4.427l-5.795-22.19s-1.634-6.237 5.299-8.048l34.664-9.063c6.933-1.81 8.567 4.427 8.567 4.427Zm-41.597 10.874 5.795 22.189 34.665-9.063-5.796-22.19-34.664 9.064ZM513.718 626.929l-12.928-6.193-24.784 12.916 5.299 10.167-6.359 3.312-16.559-31.783 38.131-19.871c6.359-3.312 9.339 2.407 9.339 2.407l5.299 10.167s2.981 5.719-3.378 9.03l12.928 6.194-6.988 3.643v.011Zm-14.208-25.723-31.784 16.56 5.3 10.167 31.783-16.559-5.299-10.168ZM553.637 560.272l-16.648 13.611 18.602 22.742-5.542 4.537-18.602-22.741-16.637 13.612-4.084-5.001 38.826-31.75 4.085 4.99ZM603.712 522.571l6.701 5.388s5.023 4.04.541 9.626l-26.914 33.527-5.034-4.04 26.914-33.527-6.701-5.377-22.432 27.931c-4.482 5.586-9.516 1.545-9.516 1.545l-6.149-4.935s-5.023-4.04-.541-9.626l26.462-32.964 5.023 4.04-26.462 32.964 6.149 4.935 22.432-27.941c4.482-5.586 9.516-1.546 9.516-1.546"/></g><defs><clipPath id="a"><path fill="#fff" d="M0 0h700v700H0z"/></clipPath></defs></svg>
