<svg width="700" height="700" viewBox="0 0 700 700" fill="none" xmlns="http://www.w3.org/2000/svg">
<g clip-path="url(#clip0_486_26084)">
<path d="M349.822 699.914C156.301 699.814 -0.057112 543.07 1.56493e-05 349.55C0.0571433 158.629 154.616 0.0428546 349.964 8.78018e-06C543.684 -0.042837 700.043 156.73 699.986 350.221C699.929 543.556 543.084 700.029 349.807 699.914H349.822ZM349.822 9.51177C162.128 9.51177 9.74029 161.757 9.52606 349.45C9.31183 537.743 161.5 690.26 349.793 690.445C537.757 690.631 690.388 538.172 690.445 350.179C690.503 161.957 538.086 9.51177 349.807 9.52605L349.822 9.51177Z" fill="white"/>
<path d="M675.107 350.236C674.764 530.088 529.559 675.478 349.636 675.378C169.698 675.278 24.422 529.731 24.5648 349.893C24.7076 169.998 170.255 24.7649 350.15 24.9077C529.774 25.0362 675.178 170.855 675.107 350.236ZM606.011 350.336C606.082 208.973 491.655 94.1465 350.507 93.9465C208.587 93.7323 93.6608 208.259 93.5893 349.964C93.5179 491.455 208.102 606.282 349.436 606.353C491.17 606.425 605.939 491.912 606.011 350.336ZM100.345 505.18C106.557 498.868 107.586 491.841 105.215 484.1C104.444 481.586 103.073 481.215 100.759 482.558C98.2024 484.043 96.7599 486.342 96.0173 489.085C95.4603 491.141 95.1318 493.255 94.5748 495.968C92.6467 492.484 90.9615 489.442 89.2334 486.342C93.3465 483.743 95.7888 480.458 96.4172 476.131C96.9884 472.232 96.8885 468.319 95.5745 464.505C94.8462 462.406 93.5893 461.82 91.6613 462.891C89.6047 464.034 87.8909 465.576 87.1482 467.919C86.2484 470.689 85.4344 473.489 84.4918 476.559C83.2492 474.103 82.2638 471.875 82.3209 469.218C82.5494 460.035 78.679 452.509 72.5235 445.996C71.838 445.268 70.7097 444.968 69.3672 444.239C68.7245 446.81 68.4532 448.767 68.6959 450.866C69.5957 458.721 72.9805 465.391 78.2934 471.118C79.4645 472.389 80.4785 473.66 80.9498 475.817C78.6647 474.374 76.7652 473.174 74.8657 471.975C71.9808 470.161 68.8388 469.076 65.4682 468.719C64.5685 468.619 63.6116 468.961 62.3262 469.161C62.8832 470.518 63.0832 471.446 63.583 472.16C68.6674 479.187 74.9229 484.543 83.7348 486.3C84.7203 486.499 86.1056 486.614 86.5626 487.271C88.1908 489.642 89.7475 492.098 90.8901 495.226C80.3357 488.77 76.8652 487.656 72.7234 489.427C72.9234 490.027 72.9662 490.755 73.3376 491.255C74.7943 493.183 76.1797 495.211 77.8935 496.882C82.7636 501.653 88.2622 505.309 95.3746 505.794C96.3458 505.866 97.6597 506.123 98.1738 506.78C100.088 509.251 101.73 511.936 103.472 514.535C102.387 514.492 101.759 513.992 101.045 513.678C97.474 512.136 93.8893 510.565 90.2617 509.151C89.2191 508.751 87.9765 508.679 86.8483 508.765C86.0342 508.822 84.8202 509.222 84.5917 509.779C84.3489 510.407 84.9059 511.479 85.3487 512.207C85.9485 513.178 86.734 514.064 87.5624 514.863C93.5037 520.633 99.9305 525.303 108.885 524.375C109.628 524.304 110.713 524.375 111.128 524.832C113.184 527.189 115.069 529.702 117.012 532.159C110.799 530.402 105.029 527.631 97.9739 529.417C98.5166 530.602 98.6737 531.573 99.245 532.102C101.502 534.215 103.715 536.486 106.286 538.172C111.442 541.542 117.04 543.456 123.353 541.785C124.067 541.599 125.181 541.513 125.609 541.928C127.466 543.713 129.137 545.698 130.879 547.612C128.923 547.926 127.38 547.44 125.824 547.398C122.967 547.326 120.054 547.226 117.254 547.683C114.698 548.097 114.227 549.968 116.183 551.554C122.882 557.009 130.137 560.537 139.106 557.766C139.863 557.538 141.091 557.581 141.634 558.052C143.333 559.509 144.804 561.223 146.747 563.236C141.262 562.993 136.264 562.037 132.065 565.764C132.436 566.521 132.536 567.035 132.836 567.307C139.263 572.819 146.518 575.147 154.944 573.005C155.973 572.748 157.401 572.462 158.144 572.948C160.129 574.219 161.828 575.919 163.642 577.447C162.328 577.847 161.229 577.761 160.143 577.618C157.215 577.261 154.373 577.647 151.702 578.889C149.175 580.075 149.017 582.003 151.288 583.531C152.145 584.102 153.045 584.645 153.973 585.102C160.357 588.272 166.841 590.215 173.868 587.044C174.511 586.759 175.582 586.63 176.11 586.973C178.481 588.472 180.738 590.172 183.037 591.786C180.838 592.3 178.91 592.1 177.024 592.357C174.539 592.686 171.983 593.043 169.683 593.971C167.084 595.014 167.056 596.585 169.184 598.356C176.139 604.111 186.807 604.554 194.405 599.241C197.233 601.112 200.147 603.026 203.046 604.954C201.818 605.582 200.732 605.511 199.647 605.611C197.59 605.782 195.462 605.782 193.506 606.353C191.792 606.853 190.078 607.782 188.721 608.938C186.979 610.452 187.264 612.052 189.321 612.98C191.52 613.98 193.791 614.88 196.105 615.522C200.532 616.765 205.031 616.979 209.23 614.751C210.887 613.866 212.229 612.409 213.757 611.181C216.757 612.323 221.898 615.365 222.798 616.594C221.384 616.794 220.013 616.951 218.67 617.193C215.571 617.736 212.643 618.807 210.258 620.907C207.802 623.092 208.116 624.791 211.101 626.048C214.657 627.548 218.356 628.39 222.227 628.176C226.74 627.919 230.91 626.891 233.481 622.635C233.709 622.263 234.124 622.021 234.609 621.564C237.723 622.92 240.807 624.277 244.264 625.791C241.293 626.834 238.822 627.619 236.423 628.59C233.952 629.59 232.353 631.561 231.296 633.946C230.696 635.331 230.996 636.488 232.581 636.945C234.466 637.488 236.351 637.988 238.28 638.359C242.007 639.059 245.72 638.702 249.105 637.117C251.919 635.788 254.218 633.646 255.275 630.219C258.931 631.161 262.402 631.918 266.158 633.76C265.087 634.232 264.601 634.532 264.087 634.66C260.159 635.589 257.389 637.988 255.232 641.301C253.233 644.386 253.947 646.257 257.66 646.771C259.931 647.085 262.273 647.271 264.558 647.143C270.414 646.814 274.97 644.386 277.026 638.502C277.398 637.431 277.983 636.574 279.254 636.817C282.611 637.445 285.938 638.145 289.88 638.945C287.738 640.044 286.153 640.744 284.696 641.615C281.168 643.729 278.84 646.7 278.24 650.913C277.983 652.698 278.655 653.512 280.283 653.841C283.967 654.555 287.609 654.498 291.194 653.284C296.221 651.584 299.363 648.299 299.949 642.844C300.035 642.072 300.263 641.301 300.434 640.459C301.134 640.373 301.691 640.23 302.248 640.244C305.476 640.373 308.704 640.601 311.917 640.673C313.988 640.716 316.073 640.616 318.13 640.344C318.672 640.273 319.087 639.359 319.572 638.816C319.087 638.416 318.658 637.831 318.116 637.674C317.487 637.488 316.744 637.702 316.059 637.688C312.146 637.659 308.218 637.459 304.305 637.602C300.949 637.716 298.478 636.774 297.192 633.418C296.793 632.375 295.979 631.461 295.264 630.561C290.609 624.563 285.224 619.436 278.04 616.551C277.041 616.151 275.941 616.022 274.256 615.622C274.498 617.336 274.356 618.564 274.841 619.436C276.569 622.535 278.269 625.705 280.454 628.476C282.468 631.018 285.124 633.075 287.924 635.76C284.582 635.16 281.725 634.846 278.983 634.06C277.998 633.775 276.955 632.504 276.569 631.461C273.213 622.463 266.672 616.322 258.817 611.352C257.831 610.724 256.603 610.481 255.032 609.895C255.032 611.709 254.789 612.98 255.075 614.123C255.975 617.622 257.532 620.835 259.945 623.563C261.945 625.834 264.044 628.033 266.101 630.247C264.058 630.061 262.273 629.333 260.402 628.905C257.089 628.148 254.689 626.648 254.518 622.849C254.49 622.206 254.047 621.564 253.747 620.935C251.519 616.194 248.548 611.952 244.778 608.339C242.807 606.439 240.55 604.782 238.208 603.354C236.623 602.383 235.552 603.211 235.48 605.082C235.452 605.768 235.609 606.453 235.723 607.139C236.637 612.595 239.622 616.908 243.221 620.907C243.692 621.421 244.092 622.006 244.521 622.563C241.864 621.964 239.551 620.992 237.223 620.036C235.352 619.279 234.323 618.022 234.081 615.922C233.895 614.223 233.395 612.523 232.767 610.924C230.696 605.554 227.254 601.069 223.169 597.127C221.698 595.713 220.141 593.942 217.357 594.085C215.7 601.54 219.584 607.139 223.241 612.966C220.97 612.152 219.085 610.909 217.042 610.038C215.071 609.196 214.257 607.867 214.143 605.811C213.829 600.212 211.629 595.285 208.345 590.857C206.645 588.558 204.646 586.444 202.56 584.474C200.847 582.86 199.376 583.517 198.99 585.845C198.919 586.302 198.961 586.759 198.947 587.23C198.776 592.029 200.547 596.242 202.946 600.269C203.303 600.855 203.56 601.498 204.189 602.769C201.561 601.083 199.704 599.712 197.676 598.641C195.905 597.713 195.148 596.499 195.248 594.514C195.505 589.886 194.206 585.545 192.092 581.546C190.492 578.518 188.378 575.747 186.308 572.991C185.779 572.291 184.437 571.663 183.68 571.863C183.037 572.02 182.48 573.348 182.266 574.248C181.152 578.718 182.209 582.931 184.037 587.016C184.437 587.915 184.879 588.787 185.308 589.672C185.122 589.844 184.951 590.015 184.765 590.186C182.066 588.187 179.381 586.202 176.767 584.274C177.71 580.246 177.71 576.633 176.896 572.962C175.782 567.992 173.468 563.693 170.112 559.923C169.298 559.009 168.627 557.281 167.256 558.009C166.256 558.538 165.799 560.123 165.185 561.294C164.985 561.665 165.085 562.194 165.042 562.665C164.599 567.05 165.77 571.12 167.541 575.062C167.898 575.847 168.17 576.647 168.484 577.447C168.341 577.547 168.184 577.661 168.041 577.761C164.985 575.376 161.928 572.977 158.929 570.62C159.458 568.763 160.2 567.15 160.329 565.479C160.9 557.552 157.829 550.825 152.931 544.855C151.303 542.87 149.689 543.327 148.946 545.755C147.675 549.883 147.989 553.953 149.546 557.952C150.317 559.937 151.217 561.879 152.045 563.85C149.032 561.808 146.418 559.452 143.876 557.024C142.933 556.124 142.348 555.038 142.876 553.61C145.004 547.783 143.548 542.228 141.32 536.829C140.448 534.715 139.234 532.716 137.978 530.802C136.764 528.931 135.478 529.045 134.293 530.931C133.922 531.516 133.664 532.159 133.407 532.801C131.879 536.672 132.522 540.499 133.693 544.298C134.007 545.298 134.321 546.284 134.636 547.269C132.293 545.584 130.537 543.641 128.68 541.771C127.209 540.299 126.98 538.886 127.709 536.815C130.094 529.988 128.723 523.375 125.681 517.077C124.524 514.692 122.796 514.706 121.225 516.906C119.368 519.519 118.354 522.39 118.597 525.661C118.697 526.932 118.611 528.217 118.611 530.316C116.355 527.332 114.598 525.004 112.899 522.761C117.354 515.892 117.54 508.979 115.098 501.867C114.255 499.396 112.727 499.025 110.599 500.51C107.7 502.524 106.714 505.523 106.272 508.822C106.115 509.993 106.514 511.307 105.229 512.65C103.487 510.05 101.916 507.694 100.273 505.237L100.345 505.18ZM576.79 550.954C575.104 550.468 573.733 549.897 572.32 549.697C569.206 549.283 566.107 549.583 563.093 550.568C561.994 550.925 560.88 551.211 559.766 551.539C559.623 551.282 559.494 551.025 559.352 550.768C561.137 548.854 563.065 547.041 564.664 544.984C565.921 543.37 567.207 542.927 569.12 543.527C572.562 544.598 575.976 544.184 579.303 542.984C583.474 541.471 587.173 539.1 590.386 536.058C591.514 534.987 593.2 533.987 593.057 531.73C586.144 530.159 580.289 533.416 573.605 535.915C574.248 534.615 574.476 533.873 574.919 533.316C576.118 531.773 577.575 530.388 578.618 528.76C580.032 526.56 581.703 525.803 584.373 526.089C586.587 526.332 589.015 525.96 591.143 525.232C597.67 523.004 602.74 518.719 606.839 513.235C607.067 512.921 607.01 512.393 607.182 511.479C605.511 511.479 604.054 511.264 602.683 511.521C598.684 512.264 594.928 513.692 591.514 515.963C590.143 516.877 588.758 517.734 587.373 518.62C587.23 518.434 587.087 518.234 586.944 518.048C588.972 514.978 590.929 511.864 593.1 508.894C593.628 508.179 594.813 507.594 595.728 507.565C602.112 507.38 607.224 504.366 611.838 500.396C614.651 497.968 617.365 495.311 619.064 491.113C617.165 491.213 615.694 491.084 614.323 491.398C610.338 492.298 606.725 494.055 603.44 496.483C602.526 497.154 601.769 498.353 599.941 497.896C601.555 494.94 602.94 492.169 604.582 489.556C605.039 488.827 606.239 488.313 607.182 488.17C616.008 486.814 622.149 481.429 627.462 474.817C628.133 473.989 628.447 472.86 629.19 471.318C621.149 470.989 615.808 475.302 609.909 479.744C610.538 476.674 611.652 474.674 613.351 472.846C618.679 467.119 622.078 460.449 622.906 452.58C623.106 450.738 623.035 448.981 622.035 447.096C621.278 447.481 620.564 447.653 620.15 448.095C618.75 449.609 617.279 451.109 616.136 452.823C612.28 458.564 609.624 464.662 610.052 471.875C610.238 474.945 608.796 477.73 606.839 480.63C606.596 479.887 606.382 479.573 606.425 479.301C606.882 475.545 605.454 472.218 603.768 469.09C602.954 467.576 601.326 466.376 599.841 465.362C598.498 464.434 597.399 464.919 596.913 466.462C595.171 471.903 594.728 477.416 597.613 482.558C598.855 484.771 600.998 486.485 603.011 488.727C601.483 492.098 599.512 495.583 597.313 498.91C596.784 498.625 596.599 498.568 596.599 498.511C596.556 497.711 596.599 496.911 596.513 496.126C596.042 491.798 595.085 487.685 591.015 485.157C588.901 483.843 587.93 484.1 587.173 486.457C585.759 490.941 585.116 495.497 587.358 499.91C588.629 502.41 590.172 504.78 591.843 507.637C590.3 510.236 588.644 513.407 585.545 516.292C585.416 514.092 585.416 512.493 585.23 510.922C584.83 507.751 583.788 504.88 581.017 502.938C579.189 501.667 578.018 501.867 577.29 503.938C574.99 510.407 574.719 516.834 578.518 522.876C579.446 524.361 579.303 525.446 578.432 526.632C577.133 528.388 575.747 530.102 574.333 531.759C573.962 532.187 573.319 532.387 572.334 532.944C573.391 527.06 573.391 521.89 568.606 517.52C567.849 518.277 566.921 518.834 566.535 519.648C563.65 525.875 562.165 532.316 564.75 539.028C565.55 541.085 565.121 542.57 563.736 544.041C562.322 545.555 560.965 547.126 559.523 548.612C558.595 549.568 557.566 550.425 556.581 551.325C556.352 551.225 556.124 551.139 555.895 551.039C558.58 544.613 561.351 538.172 555.781 531.488C553.296 534.201 551.754 537 550.625 540C548.754 545.027 547.412 550.154 549.497 555.467C550.097 556.995 549.654 558.223 548.583 559.223C545.727 561.894 542.813 564.507 539.885 567.092C539.657 567.292 539.128 567.178 538.386 567.235C542.156 560.394 545.469 553.839 541.57 545.798C540.542 546.498 539.585 546.826 539.157 547.498C537.215 550.611 535.015 553.667 533.673 557.038C531.873 561.537 530.688 566.307 533.173 571.091C533.744 572.177 533.43 573.062 532.459 573.805C529.531 576.047 526.646 578.347 523.704 580.575C523.275 580.903 522.633 580.932 521.547 581.274C522.376 579.832 522.918 578.961 523.39 578.061C525.589 573.791 527.003 569.335 526.489 564.436C526.317 562.836 526.089 561.251 524.575 560.28C517.334 565.25 513.507 576.376 515.563 586.216C512.393 589.544 508.165 592.343 505.58 592.643C508.651 586.701 511.436 580.803 508.436 574.019C507.751 574.233 507.394 574.276 507.108 574.433C506.708 574.662 506.308 574.933 506.008 575.276C500.938 580.932 497.511 587.373 497.197 595.071C497.068 598.056 496.768 600.455 493.555 601.683C492.084 602.24 490.884 603.469 489.513 604.325C488.899 604.711 488.199 604.939 487.499 605.268C487.342 604.768 487.156 604.497 487.228 604.354C487.585 603.64 487.999 602.954 488.427 602.269C490.913 598.298 492.755 594.128 492.598 589.301C492.555 588.015 492.598 586.759 491.155 586.116C490.784 586.244 490.398 586.287 490.17 586.487C484.428 591.429 479.844 597.327 478.816 604.911C478.173 609.581 476.402 612.466 472.189 614.237C470.432 614.98 468.818 616.051 466.29 616.436C471.032 610.31 475.774 604.74 474.117 596.285C471.632 597.284 469.89 598.57 468.418 600.155C463.306 605.611 459.092 611.581 457.907 619.236C457.764 620.193 456.893 621.378 456.022 621.821C453.265 623.235 450.352 624.363 447.481 625.548C447.067 625.72 446.51 625.505 446.01 625.463C445.882 625.248 445.767 625.02 445.639 624.806C446.524 624.106 447.51 623.492 448.281 622.678C452.009 618.65 455.093 614.223 455.865 608.61C455.993 607.696 455.565 606.71 455.393 605.754C454.451 606.011 453.494 606.239 452.551 606.539C452.237 606.639 451.951 606.882 451.68 607.096C444.925 612.58 439.54 619.021 437.084 627.576C436.841 628.405 436.413 629.562 435.784 629.804C431.957 631.275 428.058 632.518 424.173 633.832C424.016 633.575 423.859 633.303 423.716 633.046C424.53 632.346 425.33 631.647 426.158 630.947C430.8 626.991 434.599 622.449 436.384 616.479C436.77 615.194 437.355 613.851 436.098 612.737C435.741 612.78 435.499 612.78 435.284 612.852C434.956 612.966 434.627 613.08 434.327 613.252C426.158 618.207 419.332 624.391 415.918 633.618C415.361 635.117 414.661 636.331 412.962 636.645C410.348 637.131 407.749 637.674 405.135 638.088C404.607 638.174 404.007 637.816 403.236 637.602C413.233 629.119 417.589 622.949 416.775 617.979C414.604 618.922 412.405 619.607 410.491 620.764C403.978 624.706 398.551 629.847 394.795 636.517C393.524 638.788 391.953 639.959 389.339 639.944C384.612 639.944 379.885 640.059 375.172 640.144C374.315 640.159 373.244 639.787 372.915 641.587C375.943 642.687 379.128 642.244 382.241 642.301C385.441 642.358 388.64 642.301 392.21 642.301C392.267 647.443 394.067 651.913 399.194 654.169C403.821 656.197 408.577 656.897 413.862 654.441C413.047 652.256 412.576 650.227 411.605 648.485C409.406 644.558 405.321 643.044 401.379 641.401C401.636 641.016 401.736 640.701 401.893 640.659C405.492 639.873 409.091 639.102 412.705 638.388C413.862 638.159 414.718 638.673 415.161 639.802C415.547 640.759 415.818 641.787 416.347 642.658C419.703 648.171 430.157 651.013 435.913 648C437.041 647.414 437.998 646.429 437.241 645.243C435.541 642.558 434.099 639.545 430.8 638.302C428.915 637.588 427.058 636.817 425.187 636.074C428.957 633.789 432.814 632.604 436.955 631.818C438.855 636.802 442.54 639.302 447.396 640.016C452.009 640.687 456.465 640.087 460.906 637.531C460.135 636.131 459.664 634.96 458.921 633.989C456.793 631.175 453.737 629.961 450.395 629.176C449.195 628.905 447.681 629.219 446.624 627.719C450.023 626.22 453.165 624.834 456.307 623.463C457.479 622.949 458.235 623.506 458.978 624.406C459.921 625.548 460.778 626.962 462.02 627.633C468.59 631.204 475.174 630.176 481.615 627.191C483.157 626.477 483.272 625.448 482.143 624.134C481.486 623.363 480.658 622.692 479.787 622.149C477.016 620.378 473.931 619.521 470.661 619.264C469.718 619.193 468.776 618.964 467.719 618.779C468.019 618.222 468.076 617.922 468.247 617.836C471.146 616.194 474.06 614.565 476.973 612.952C478.244 612.238 479.073 612.909 479.958 613.823C480.972 614.851 482.058 616.008 483.343 616.565C490.641 619.707 497.268 617.508 503.638 613.723C503.795 613.637 503.795 613.309 503.895 613.037C503.538 611.466 502.395 610.609 501.024 609.881C497.968 608.239 494.712 607.824 491.312 608.039C490.184 608.11 488.856 608.696 487.728 607.253C490.784 605.182 493.683 603.169 496.64 601.226C497.682 600.541 498.568 601.055 499.41 601.826C502.352 604.497 505.923 605.111 509.722 604.754C513.921 604.368 517.834 603.011 521.404 600.741C522.404 600.112 523.204 599.17 524.361 598.141C519.034 593.428 513.107 594.871 507.294 594.942C509.565 592.871 511.993 591.215 514.306 589.386C515.863 588.144 517.32 588.015 519.062 588.915C522.276 590.586 525.689 590.643 529.174 589.915C533.058 589.101 536.7 587.716 539.957 585.43C540.714 584.902 541.742 583.888 541.656 583.217C541.556 582.46 540.471 581.617 539.628 581.203C536.486 579.675 533.187 579.703 529.816 580.389C528.817 580.589 527.746 581.26 526.332 580.417C528.888 578.318 531.102 576.333 533.515 574.605C534.215 574.105 535.601 574.005 536.443 574.333C542.542 576.747 548.24 575.276 553.782 572.634C555.924 571.62 557.98 570.32 559.48 568.049C554.753 564.222 549.483 565.493 544.198 565.693C545.798 563.736 547.64 562.194 549.24 560.437C550.44 559.123 551.696 558.766 553.239 559.466C556.109 560.766 559.109 560.594 562.079 560.109C566.021 559.466 569.534 557.709 572.734 555.396C574.176 554.367 575.976 553.582 576.818 550.925L576.79 550.954ZM617.879 310.432C618.264 314.16 618.536 317.244 618.907 320.329C619.164 322.5 619.25 324.742 619.893 326.799C621.564 332.083 627.105 334.74 632.089 332.583C633.903 331.798 635.346 330.17 637.031 328.856C637.174 328.927 637.474 329.084 637.774 329.241C644.1 332.655 651.027 329.241 651.356 322.1C651.57 317.244 650.627 312.317 650.17 307.204C639.187 308.304 628.69 309.361 617.865 310.446L617.879 310.432ZM495.597 82.321C489.898 91.8756 484.486 100.945 478.944 110.228C482.143 112.142 485.071 113.941 488.056 115.669C489.741 116.641 491.427 117.697 493.24 118.354C496.64 119.583 499.91 119.04 502.538 116.526C505.109 114.07 506.323 111.071 505.123 107.457C504.98 107.043 504.966 106.586 504.88 106.058C505.366 105.815 505.766 105.629 506.166 105.429C512.735 102.144 513.749 94.3464 507.908 89.9762C504.166 87.1769 499.939 85.006 495.597 82.3353V82.321ZM385.655 46.8876C376.243 46.7448 368.773 54.0857 368.602 63.6403C368.445 72.8664 376 80.4644 385.498 80.6215C394.681 80.7786 402.293 73.0949 402.365 63.6117C402.436 54.457 395.009 47.0161 385.64 46.8733L385.655 46.8876ZM430.471 89.8762C439.712 89.8762 447.253 82.2496 447.324 72.8236C447.395 63.6831 439.626 56.0137 430.243 55.9709C421.002 55.9423 413.504 63.5832 413.462 73.0663C413.419 82.3924 420.974 89.8619 430.471 89.8762ZM161.386 110.642C167.698 119.326 173.968 127.938 180.352 136.721C182.237 135.321 183.765 134.193 185.494 132.922C181.752 127.709 178.224 122.796 174.268 117.297C175.868 117.712 176.739 117.883 177.581 118.154C182.809 119.94 188.093 121.568 193.234 123.596C196.276 124.795 198.476 124.367 200.547 121.496C194.32 112.927 188.064 104.315 181.666 95.5318C179.738 96.9314 178.195 98.0454 176.496 99.288C180.223 104.472 183.737 109.385 187.25 114.284C185.822 114.441 184.737 114.184 183.694 113.827C178.795 112.17 173.825 110.656 169.026 108.728C166.056 107.529 163.742 107.714 161.4 110.628L161.386 110.642ZM85.4772 289.68C85.4772 280.311 78.022 273.042 68.3817 273.028C59.1128 273.013 51.7005 280.597 51.6862 290.152C51.6576 299.421 59.2699 306.79 68.8531 306.79C78.2363 306.79 85.4772 299.349 85.4915 289.68H85.4772ZM256.318 60.027C246.877 59.9984 239.136 67.5535 239.179 76.7654C239.208 86.1486 246.82 93.9322 255.961 93.9465C265.387 93.9465 273.042 86.4342 273.042 77.1653C273.042 67.6963 265.601 60.0698 256.332 60.0412L256.318 60.027ZM148.503 160.557C157.844 160.586 165.485 152.974 165.456 143.662C165.427 134.536 157.844 126.909 148.718 126.824C139.391 126.738 131.679 134.336 131.651 143.633C131.622 153.074 139.049 160.543 148.503 160.572V160.557ZM101.687 173.483C110.399 180.138 118.811 186.551 127.466 193.149C128.823 191.349 130.023 189.75 131.308 188.05C128.252 185.651 125.467 183.466 122.739 181.323C125.595 176.61 125.352 177.624 129.18 177.91C131.594 178.096 133.979 178.61 136.378 178.81C137.192 178.881 138.349 178.71 138.82 178.181C139.991 176.882 141.334 175.611 141.905 173.597C137.349 172.997 133.05 172.426 128.666 171.84C128.666 170.998 128.666 170.441 128.666 169.884C128.566 164.742 126.052 161.043 121.582 159.486C117.24 157.972 112.613 159.358 109.528 163.228C106.943 166.47 104.472 169.812 101.687 173.468V173.483ZM541.085 113.456C539.799 112.399 538.843 111.57 537.857 110.799C536.815 109.985 535.743 109.214 534.787 108.514C524.961 114.698 515.563 120.625 505.794 126.781C507.937 128.409 509.636 129.708 511.279 130.951C513.135 129.808 514.692 128.837 516.449 127.752C519.862 130.48 523.261 133.193 526.66 135.921C526.032 138.035 525.489 139.891 524.889 141.948C526.503 143.191 528.06 144.39 529.916 145.804C533.744 134.721 537.372 124.21 541.085 113.456ZM641.787 266.615C633.903 268.529 626.348 270.157 618.936 272.242C614.922 273.37 612.666 276.612 612.295 280.711C612.08 283.053 612.337 285.596 613.009 287.852C614.951 294.293 620.135 297.164 626.705 295.679C632.889 294.279 639.059 292.808 645.229 291.337C645.971 291.166 646.657 290.809 647.514 290.48C646.957 288.423 646.471 286.595 645.943 284.653C643.558 285.181 641.53 285.639 639.516 286.096C634.689 287.21 629.876 288.423 625.02 289.409C621.821 290.066 619.95 288.838 618.864 285.838C617.293 281.468 618.764 278.698 623.363 277.584C628.519 276.327 633.689 275.17 638.845 273.956C640.259 273.627 641.672 273.228 643.272 272.813C642.758 270.7 642.344 268.943 641.772 266.615H641.787ZM83.4777 266.115C91.6327 265.815 97.8596 257.26 96.0744 249.391C95.2603 245.792 93.0895 243.464 89.6047 242.421C86.1913 241.407 83.1921 242.321 80.7785 244.878C79.2789 246.463 77.9935 248.248 76.5653 249.905C75.6655 250.948 74.8372 252.162 73.7089 252.862C72.8663 253.376 71.5238 253.504 70.5383 253.247C69.1815 252.89 68.6674 251.576 68.7959 250.205C69.0102 247.891 70.0384 246.006 72.1379 244.892C73.0234 244.421 73.9803 244.092 75.0657 243.65C74.7086 241.736 74.3802 239.965 74.066 238.237C66.6536 237.894 61.2408 246.263 62.7404 253.004C64.1829 259.46 72.7806 263.002 77.9078 257.517C79.3931 255.918 80.6928 254.147 82.121 252.49C83.0921 251.362 84.0062 250.105 85.163 249.22C87.0625 247.777 89.4476 248.748 89.9474 251.076C90.1046 251.833 90.0046 252.69 89.8332 253.461C88.9906 257.346 86.5341 259.645 82.4066 260.288C82.7922 262.359 83.1207 264.144 83.492 266.144L83.4777 266.115ZM225.397 79.2361C218.999 75.1372 210.887 76.2798 205.231 81.864C199.718 87.3054 198.919 95.846 203.289 102.83C207.431 109.457 215.243 112.327 222.512 109.885C229.468 107.543 234.281 101.402 233.666 95.4461H228.082C225.597 102.444 220.027 105.858 214.343 104.001C209.116 102.301 205.745 96.0317 207.159 90.6617C207.873 87.9338 209.587 86.0201 211.958 84.5919C215.257 82.6067 218.67 82.4639 222.198 84.3348C223.383 82.4496 224.398 80.8357 225.412 79.2219L225.397 79.2361ZM283.939 77.8365C288.595 86.2914 301.563 84.4348 305.79 79.0362C309.561 74.2232 307.733 67.0679 301.948 65.097C299.363 64.2116 296.535 64.0687 293.822 63.5546C292.579 63.3118 291.28 63.169 290.151 62.6405C287.781 61.5408 287.595 58.813 289.794 57.4134C290.623 56.8849 291.708 56.6707 292.708 56.4993C295.25 56.0709 297.035 57.6276 298.921 59.2414C300.42 57.9132 301.834 56.6421 303.205 55.4425C298.992 48.8156 289.337 49.0727 284.682 53.4001C280.04 57.7133 281.225 66.8537 287.981 68.4533C290.209 68.9817 292.508 69.2816 294.765 69.6958C296.236 69.9672 297.778 70.0529 299.149 70.5813C301.748 71.581 301.991 74.3517 299.763 76.0227C297.392 77.7937 293.094 77.7937 290.651 75.9799C289.866 75.3943 289.166 74.6945 288.352 73.9804C286.81 75.3372 285.438 76.5369 283.967 77.8365H283.939ZM603.697 228.696C596.342 226.011 593.043 220.813 594.785 215.057C596.427 209.659 602.797 206.131 608.281 207.631C610.852 208.33 612.709 209.973 614.137 212.201C616.294 215.6 616.136 219.142 614.665 222.869C616.408 223.955 618.007 224.955 619.607 225.954C623.577 219.67 622.506 211.544 617.236 205.96C612.066 200.49 603.897 199.404 596.913 203.26C589.986 207.088 586.687 214.572 588.672 221.998C590.586 229.182 596.584 234.338 603.24 234.281C603.383 232.51 603.54 230.71 603.697 228.696ZM343.823 59.0701V51.2864H356.263V45.5451H337.467V77.6366H343.752V65.4969C348.008 65.3398 351.964 65.197 355.905 65.0399V59.0701H343.809H343.823ZM483.043 75.6799C475.545 72.3808 468.533 69.2959 461.306 66.1111C460.435 68.1105 459.706 69.7672 458.878 71.6667C461.577 72.9378 464.02 74.0804 466.619 75.2943C463.063 83.4065 459.649 91.1901 456.122 99.2451C458.193 100.145 460.021 100.93 461.992 101.787C465.605 93.6466 469.047 85.8772 472.589 77.9079C475.317 79.0505 477.83 80.0931 480.544 81.2213C481.401 79.3075 482.143 77.6651 483.029 75.6657L483.043 75.6799ZM93.6322 185.465C89.6047 192.363 85.6914 199.076 81.6639 205.974C83.592 207.088 85.163 207.988 86.9197 208.987C88.4478 206.474 89.8475 204.16 91.3614 201.675C99.045 206.145 106.4 210.416 114.012 214.829C115.155 212.901 116.183 211.187 117.283 209.33C109.571 204.817 102.216 200.518 94.6319 196.077C96.0887 193.477 97.4169 191.106 98.8594 188.536C97.0599 187.479 95.5031 186.565 93.6322 185.465ZM582.217 153.445C573.562 160.329 565.221 166.97 556.766 173.697C560.808 178.781 564.564 183.508 568.449 188.393C570.206 186.993 571.605 185.865 573.205 184.594C570.577 181.266 568.178 178.224 565.578 174.925C572.548 169.369 579.332 163.957 586.187 158.487C584.745 156.658 583.602 155.216 582.217 153.459V153.445ZM73.409 328.213C64.4685 327.556 55.9136 326.928 47.2445 326.285C47.0588 328.67 46.916 330.555 46.7589 332.626C57.6989 333.483 68.2104 334.311 79.0503 335.154C79.5645 328.727 80.0501 322.729 80.5499 316.43H74.5515C74.1945 320.229 73.8232 323.971 73.4233 328.199L73.409 328.213ZM607.424 265.173C609.452 264.416 611.123 263.801 613.066 263.073C611.666 259.088 610.352 255.375 608.981 251.49C617.393 248.391 625.348 245.449 633.603 242.393C632.803 240.293 632.089 238.451 631.332 236.452C621.049 240.222 611.152 243.864 600.983 247.591C603.183 253.59 605.254 259.246 607.424 265.158V265.173ZM545.841 153.074C552.096 146.761 558.166 140.648 564.264 134.507C562.908 133.065 561.579 131.665 560.066 130.066C552.31 137.692 544.784 145.09 537.086 152.645C541.713 157.03 546.112 161.186 550.511 165.356C551.482 164.385 552.753 163.1 554.181 161.657C551.396 158.786 548.697 156.001 545.841 153.059V153.074ZM69.4815 388.811C69.4243 384.141 65.7967 380.556 61.1265 380.528C56.3135 380.499 52.6145 384.227 52.6716 389.054C52.7288 393.853 56.5278 397.466 61.3693 397.337C66.011 397.209 69.5386 393.496 69.4815 388.811ZM638.088 397.337C642.844 397.38 646.743 393.524 646.685 388.854C646.628 384.298 642.858 380.57 638.259 380.542C633.503 380.499 629.604 384.355 629.661 389.025C629.719 393.581 633.489 397.295 638.088 397.337Z" fill="white"/>
<path d="M624.534 316.287C627.362 316.016 629.59 315.788 632.004 315.559C632.318 318.158 632.689 320.401 632.818 322.657C632.946 324.957 631.632 326.47 629.547 326.728C627.219 327.013 625.677 325.871 625.291 323.371C624.948 321.143 624.806 318.887 624.534 316.302V316.287Z" fill="white"/>
<path d="M644.729 314.16C644.986 316.559 645.343 318.587 645.4 320.629C645.457 322.772 644.015 324.143 642.029 324.214C640.201 324.271 638.845 323.143 638.53 321.115C638.23 319.201 638.116 317.273 637.888 315.059C640.13 314.774 642.144 314.502 644.743 314.174L644.729 314.16Z" fill="white"/>
<path d="M487.457 108.371C488.899 106.015 490.084 104.087 491.413 101.916C493.655 103.244 495.769 104.358 497.725 105.686C499.596 106.957 499.996 109 498.968 110.771C497.897 112.613 495.997 113.227 493.941 112.156C491.827 111.056 489.827 109.757 487.457 108.357V108.371Z" fill="white"/>
<path d="M494.354 96.8458C495.697 94.6035 496.754 92.8468 497.982 90.8045C500.067 92.047 501.995 93.0325 503.752 94.2607C505.323 95.3747 505.594 97.2885 504.666 98.8738C503.738 100.459 501.952 101.116 500.21 100.259C498.282 99.3022 496.468 98.0883 494.354 96.8458Z" fill="white"/>
<path d="M385.541 53.1145C391.525 53.2002 396.166 57.8989 395.981 63.7117C395.795 69.8529 391.282 74.366 385.441 74.2518C379.357 74.1232 374.829 69.5244 375.015 63.6546C375.215 57.4705 379.642 53.0288 385.526 53.1145H385.541Z" fill="white"/>
<path d="M440.869 72.5093C440.883 78.6791 436.255 83.5921 430.457 83.5635C424.659 83.535 419.931 79.0504 419.817 73.4805C419.688 67.4535 424.387 62.312 430.1 62.2263C435.984 62.1406 440.854 66.7965 440.869 72.5236V72.5093Z" fill="white"/>
<path d="M79.1789 289.709C79.1789 295.85 74.7944 300.392 68.8817 300.392C62.6119 300.392 57.8132 295.807 57.9132 289.909C58.0131 283.839 62.5262 279.354 68.4532 279.426C74.6516 279.497 79.1789 283.839 79.1647 289.709H79.1789Z" fill="white"/>
<path d="M255.989 87.6767C250.262 87.6767 245.492 82.5924 245.549 76.5368C245.592 70.9383 250.291 66.3681 256.061 66.2967C261.873 66.2253 266.615 71.1097 266.686 77.2366C266.743 82.9208 261.888 87.6767 255.989 87.6767Z" fill="white"/>
<path d="M148.618 154.316C142.748 154.345 137.806 149.432 137.835 143.562C137.863 137.949 142.505 133.208 148.118 133.079C153.831 132.95 159.086 138.006 159.158 143.705C159.229 149.318 154.288 154.288 148.603 154.316H148.618Z" fill="white"/>
<path d="M117.926 177.739C115.298 175.739 113.041 174.011 110.442 172.026C111.927 170.083 113.184 168.198 114.684 166.542C116.255 164.828 118.74 164.799 120.639 166.199C122.682 167.698 123.282 170.126 122.082 172.283C121.811 172.783 121.439 173.24 121.096 173.682C120.125 174.939 119.126 176.182 117.926 177.724V177.739Z" fill="white"/>
<path d="M522.219 124.039C525.589 121.853 528.946 119.683 533.059 117.026C531.902 121.753 530.374 125.481 529.074 129.28C526.518 128.295 524.647 126.866 522.219 124.039Z" fill="white"/>
<path d="M349.807 587.53C215.814 587.13 111.299 478.402 111.442 348.85C111.585 219.527 216.057 110.842 349.993 110.756C481.744 110.671 588.244 217.685 588.115 349.55C587.987 480.93 481.244 587.53 349.821 587.53H349.807ZM322.386 430.943C322.629 430.9 322.886 430.857 323.128 430.829C324.185 433.356 325.199 435.899 326.285 438.412C335.582 460.049 349.079 478.402 368.302 492.327C372.872 495.64 377.814 497.882 383.298 499.125C391.667 501.01 400.165 501.638 408.72 501.767C421.431 501.967 434.07 500.981 446.724 499.896C468.99 497.982 490.727 493.441 512.178 487.342C514.892 486.571 516.82 485.2 518.534 483.015C544.156 450.338 559.409 413.447 563.907 372.13C566.207 350.978 565.478 329.941 561.437 309.089C551.925 260.145 528.217 219.299 490.813 186.365C489.356 185.079 487.856 183.866 486.185 182.466C483.714 184.965 481.901 187.579 480.444 190.464C476.345 198.619 475.102 207.359 475.46 216.343C475.888 227.325 475.588 238.265 473.731 249.105C472.089 258.746 469.19 267.929 463.306 275.941C463.077 276.241 463.02 276.655 462.734 277.384C471.818 275.213 478.701 270.6 483.714 263.216C486.999 258.374 489.184 253.033 490.313 247.349C491.427 241.75 492.098 236.066 493.012 230.168C495.054 237.423 495.383 244.578 493.855 251.776C491.041 265.087 482.172 273.913 471.175 281.283C475.502 283.639 479.73 283.311 483.971 282.611C494.683 280.854 505.723 287.224 509.422 297.607C504.095 293.551 498.096 292.765 491.955 292.508C483.272 292.137 474.703 293.222 466.119 294.422C460.963 295.15 456.336 296.864 452.066 299.778C445.496 304.262 438.741 308.49 432.342 313.217C416.832 324.685 402.479 337.568 388.097 350.393C387.626 350.821 387.24 351.35 386.769 351.878C387.04 351.978 387.154 352.078 387.254 352.049C387.811 351.892 388.354 351.735 388.897 351.535C399.98 347.336 411.434 344.994 423.288 344.366C428.215 344.109 433.185 343.48 438.027 342.481C447.853 340.453 456.322 335.897 461.863 327.242C464.32 323.4 465.976 319.03 467.947 314.874C468.419 313.874 468.733 312.803 469.29 311.246C469.475 312.131 469.59 312.431 469.575 312.731C469.09 322.2 466.99 331.241 461.835 339.324C457.107 346.722 450.609 351.764 441.954 353.835C441.083 354.049 440.226 354.335 438.612 354.806C441.497 355.334 443.639 355.82 445.796 356.12C451.866 356.962 457.936 357.619 464.048 356.463C470.518 355.249 475.402 351.907 477.973 345.794C479.401 342.423 480.587 338.867 481.329 335.282C483.343 325.456 485.043 315.573 486.899 305.719C487.028 305.033 487.385 304.376 487.628 303.719C488.099 312.66 489.913 321.229 491.527 329.841C492.541 335.268 493.483 340.767 493.683 346.265C493.969 354.377 490.184 359.447 482.629 362.461C481.615 362.861 480.572 363.232 479.544 363.618C480.43 364.175 481.201 364.26 481.944 364.161C487.185 363.432 492.512 363.004 497.654 361.818C507.765 359.505 517.163 355.463 525.189 348.693C530.431 344.28 534.33 338.953 535.772 332.083C535.872 331.626 536.129 331.212 536.458 330.455C538.586 334.697 539.228 338.682 538.428 342.923C537.472 347.979 534.915 352.164 531.43 355.806C527.06 360.39 521.747 363.604 515.963 366.06C507.251 369.745 498.111 371.516 488.713 371.944C476.545 372.515 464.505 371.83 452.794 368.117C445.853 365.917 438.755 364.303 431.514 363.604C421.188 362.604 411.019 363.246 401.236 367.188C398.851 368.145 397.623 369.459 397.123 372.044C395.881 378.528 393.81 384.755 390.511 390.525C388.254 394.481 385.441 397.966 381.513 400.408C380.813 400.851 379.971 401.079 378.899 401.536C377.757 379.542 370.902 359.847 358.919 341.909C363.703 334.825 369.145 328.613 375.329 322.429C374.358 321.686 373.629 321.286 373.087 320.715C369.231 316.587 365.246 312.56 361.647 308.218C357.876 303.677 354.934 298.564 353.092 292.894C350.407 284.567 351.207 276.784 356.434 269.557C358.391 266.858 360.119 263.973 361.718 261.045C370.187 245.635 371.23 229.696 364.589 213.401C362.504 208.288 359.904 203.375 357.562 198.362C357.205 197.605 356.962 196.791 356.662 195.991C356.891 195.848 357.134 195.691 357.362 195.548C361.961 201.132 366.688 206.631 371.116 212.358C373.144 214.986 374.801 217.942 376.3 220.927C381.113 230.525 381.17 240.208 376.443 249.891C376.072 250.662 375.772 251.476 375.2 252.847C390.468 249.02 401.893 240.593 411.162 228.782C411.205 229.425 411.119 229.968 410.934 230.467C409.191 235.238 407.52 240.022 405.664 244.735C404.393 247.949 403.079 251.176 401.422 254.19C396.109 263.873 387.726 267.972 376.829 267.229C376.372 267.201 375.9 267.186 375.443 267.143C373.258 266.915 371.744 267.786 370.559 269.671C366.089 276.741 364.532 284.339 366.388 292.522C368.645 302.477 374.401 309.918 382.956 315.488C384.055 314.645 384.941 313.917 385.869 313.26C389.04 310.96 392.039 308.318 395.452 306.462C404.121 301.749 411.405 295.55 417.404 287.738C423.131 280.283 428.258 272.499 430.786 263.316C433.913 251.962 432.814 240.679 429.814 229.482C426.573 217.371 421.26 206.131 415.147 195.234C414.576 194.206 414.033 193.163 413.49 192.12L414.09 191.806C421.931 202.218 429.457 212.844 435.042 224.683C436.47 227.697 437.727 230.81 438.826 233.967C443.354 246.977 442.94 259.845 437.155 272.371C434.785 277.484 432.114 282.525 428.986 287.181C424.487 293.865 419.417 300.178 414.59 306.647C413.876 307.604 413.147 308.561 412.419 309.518C413.105 309.675 413.505 309.518 413.847 309.289C424.502 301.92 434.627 293.922 443.497 284.425C450.066 277.384 455.879 269.771 459.478 260.745C460.835 257.346 462.134 253.761 462.477 250.162C463.134 243.521 463.334 236.794 463.234 230.125C463.077 220.756 461.792 211.515 458.65 202.603C453.68 188.521 444.611 178.41 430.314 173.397C429.757 173.197 429.257 172.84 428.729 172.554C448.809 175.011 463.705 184.208 469.947 204.617C471.532 194.82 475.274 186.508 483.614 180.866C410.962 120.054 296.564 117.769 220.884 177.067C233.781 181.709 240.336 191.235 242.15 205.188C242.721 203.646 243.078 202.932 243.25 202.175C245.121 194.12 249.905 188.807 257.717 185.879C263.544 183.708 269.114 180.895 274.813 178.381C275.227 178.196 275.712 178.167 276.869 177.896C275.513 179.21 274.684 180.009 273.87 180.809C270.585 184.051 267.229 187.222 264.03 190.549C256.303 198.604 251.519 208.116 249.891 219.242C248.591 228.097 248.777 236.923 249.277 245.82C249.634 252.062 251.233 257.846 253.89 263.416C256.846 269.6 260.716 275.184 265.144 280.383C274.798 291.723 286.31 300.92 298.506 309.346C298.821 309.561 299.221 309.646 299.578 309.789C299.035 308.418 298.249 307.433 297.45 306.462C289.595 296.778 281.711 287.11 275.555 276.227C272.842 271.428 270.457 266.372 268.614 261.202C264.944 250.876 266.029 240.779 271.271 231.124C274.37 225.397 278.369 220.342 282.739 215.557C283.225 215.029 283.853 214.629 284.71 213.915C284.639 214.829 284.624 215.286 284.553 215.728C283.339 223.355 281.854 230.939 280.94 238.594C278.098 262.673 287.866 281.911 304.648 298.678C306.59 295.879 308.547 293.194 310.375 290.423C318.701 277.783 324.642 264.101 328.084 249.348C328.57 247.292 328.456 245.549 326.999 243.892C324.942 241.564 323.157 238.965 320.986 236.766C315.673 231.367 309.546 228.011 301.52 229.968C307.09 225.754 313.088 224.055 319.572 227.225C322.414 228.625 324.857 230.853 327.427 232.781C328.313 233.452 329.041 234.338 330.084 235.352C330.984 232.967 331.269 230.953 330.584 228.754C328.327 221.484 326.085 214.215 323.971 206.917C320.958 196.519 322.5 186.75 328.684 177.896C331.641 173.654 335.111 169.755 338.382 165.742C338.91 165.085 339.638 164.585 340.281 164.014C340.324 165.199 339.953 166.142 339.667 167.099C337.825 173.397 335.797 179.652 334.24 186.036C331.483 197.291 332.155 208.045 339.81 217.514C340.167 217.956 340.438 218.485 340.738 218.97C342.866 222.484 344.266 226.24 344.48 230.353C345.165 243.25 343.623 255.704 336.996 267.101C334.911 270.685 332.683 274.199 330.569 277.769C325.856 285.71 321.172 293.651 316.502 301.606C315.93 302.577 315.473 303.634 314.831 304.876C326.699 312.831 337.425 321.886 346.451 332.812C355.591 343.852 362.575 356.106 367.36 369.63C372.358 383.77 376.129 406.078 374.301 410.377C370.616 405.192 367.017 399.822 363.104 394.71C358.105 388.168 352.321 382.384 345.394 377.828C337.939 372.93 329.87 370.259 320.872 371.002C319.158 371.144 317.758 370.702 316.316 369.859C312.103 367.417 307.561 365.746 302.805 364.675C292.365 362.332 281.925 362.918 271.556 365.017C267.272 365.889 262.959 366.846 258.846 368.317C245.478 373.101 231.953 373.23 218.271 370.302C201.175 366.646 185.651 359.647 172.24 348.308C168.255 344.937 164.728 341.124 162.157 336.539C161.843 335.968 161.743 335.268 161.571 334.725C166.199 337.853 170.526 341.138 175.182 343.866C186.279 350.378 198.162 355.134 210.644 358.262C216.814 359.805 223.069 360.904 229.468 360.533C231.024 360.447 232.553 360.104 234.095 359.89C233.609 359.305 233.167 359.19 232.724 359.119C221.256 357.162 210.401 353.421 200.09 348.079C191.006 343.38 182.637 337.696 175.91 329.87C172.254 325.614 169.398 320.915 168.055 315.416C167.784 314.274 167.698 313.088 167.427 311.146C169.384 312.66 170.669 313.603 171.911 314.588C179.952 320.972 187.922 327.456 196.048 333.726C204.56 340.281 213.558 346.137 223.384 350.578C236.052 356.291 249.22 359.033 263.13 357.077C266.429 356.605 269.814 356.32 273.47 354.577C260.916 352.335 249.719 348.136 239.022 342.581C230.696 338.253 222.855 333.212 216.257 326.428C213.172 323.257 210.53 319.772 208.916 315.631C208.416 314.374 208.188 313.017 207.831 311.703C211.715 318.344 217.357 322.857 223.726 326.528C226.911 328.37 230.21 330.055 233.609 331.498C251.733 339.167 270.742 343.18 290.323 344.48C301.463 345.208 312.231 347.422 322.686 351.321C323.614 351.664 324.571 351.949 326.313 352.506C325.085 351.121 324.457 350.336 323.757 349.622C313.688 339.367 302.648 330.284 290.209 323.057C276.941 315.359 263.501 307.947 250.119 300.463C249.134 299.906 248.006 299.521 246.892 299.278C240.136 297.821 233.395 296.15 226.568 295.093C218.556 293.851 210.387 292.308 202.803 297.207C207.745 287.01 215.757 281.797 227.839 282.254C226.24 281.04 225.34 280.34 224.426 279.654C219.156 275.684 214.243 271.342 210.087 266.187C201.289 255.289 199.576 242.936 202.56 229.611C202.632 229.311 202.946 229.082 203.303 228.611C203.874 229.896 204.403 231.024 204.888 232.167C208.173 240.065 212.029 247.677 217 254.661C221.598 261.116 226.997 266.744 233.752 270.985C238.551 273.999 243.678 276.198 249.991 277.526C248.048 275.127 246.577 273.256 245.049 271.428C239.636 264.944 236.466 257.489 235.666 249.12C235.18 243.964 234.923 238.751 235.066 233.581C235.337 224.069 234.538 214.672 232.71 205.374C231.41 198.79 229.596 192.363 226.454 186.393C224.74 183.123 222.727 180.081 219.542 177.724C218.228 178.724 217.042 179.609 215.871 180.538C155.244 228.782 124.838 305.49 137.121 382.956C143.548 423.516 160.415 459.235 187.136 490.37C188.564 492.041 190.192 493.083 192.292 493.569C203.86 496.211 215.4 499.082 227.011 501.496C241.25 504.452 255.646 506.437 270.2 507.151C279.097 507.58 287.924 507.08 296.707 505.337C302.734 504.138 306.904 500.724 309.903 495.64C310.889 493.955 311.732 492.169 312.446 490.356C314.131 486.028 314.959 481.501 315.245 476.859C315.345 475.302 315.459 473.76 315.559 472.203C316.759 473.246 317.344 474.331 317.93 475.431C322.829 484.671 329.555 492.298 338.067 498.368C340.195 499.882 340.21 499.853 342.78 499.325C333.212 490.67 325.628 480.815 321.872 468.404C318.073 455.85 318.844 443.411 322.386 431.014V430.943Z" fill="white"/>
<path d="M322.8 378.685C325.685 377.771 328.256 378.057 330.584 379.028C333.969 380.442 337.453 381.87 340.395 383.984C344.766 387.14 349.022 390.596 352.778 394.453C365.66 407.678 375.572 422.802 381.185 440.526C383.141 446.71 384.269 453.037 383.555 460.164C381.984 459.135 380.613 458.407 379.414 457.436C371.102 450.709 363.975 442.925 358.105 433.971C357.562 433.142 356.991 432.314 356.134 431.657C358.905 445.682 365.032 458.093 374.058 469.09C383.155 480.187 394.324 488.47 407.949 493.326C407.92 493.555 407.906 493.798 407.877 494.026C405.707 494.24 403.536 494.597 401.351 494.626C391.396 494.769 382.27 491.941 373.815 486.757C367.474 482.872 361.804 478.116 356.962 472.518C341.295 454.38 329.727 433.985 323.871 410.605C321.5 401.151 320.386 391.553 322.057 381.827C322.229 380.813 322.514 379.828 322.771 378.671L322.8 378.685Z" fill="white"/>
</g>
<defs>
<clipPath id="clip0_486_26084">
<rect width="700" height="699.914" fill="white"/>
</clipPath>
</defs>
</svg>
