<svg xmlns="http://www.w3.org/2000/svg" width="700" height="700" fill="none"><g fill="#fff" clip-path="url(#a)"><path d="M349.822 699.914C156.301 699.814-.058 543.07 0 349.55.057 158.629 154.616.043 349.964 0c193.72-.043 350.079 156.73 350.022 350.221-.057 193.335-156.902 349.808-350.179 349.693h.015Zm0-690.402C162.128 9.512 9.74 161.757 9.526 349.45 9.312 537.743 161.5 690.26 349.793 690.445c187.964.186 340.595-152.273 340.652-340.266.058-188.222-152.359-340.667-340.638-340.653l.015-.014Z"/><path d="M675.107 350.236c-.343 179.852-145.548 325.242-325.471 325.142-179.938-.1-325.214-145.647-325.071-325.485.143-179.895 145.69-325.128 325.585-324.985 179.624.128 325.028 145.947 324.957 325.328Zm-69.096.1c.071-141.363-114.356-256.19-255.504-256.39-141.92-.214-256.846 114.313-256.918 256.018-.071 141.491 114.513 256.318 255.847 256.389 141.734.072 256.503-114.441 256.575-256.017ZM100.345 505.18c6.212-6.312 7.241-13.339 4.87-21.08-.771-2.514-2.142-2.885-4.456-1.542-2.557 1.485-4 3.784-4.742 6.527-.557 2.056-.885 4.17-1.442 6.883a3529.281 3529.281 0 0 0-5.342-9.626c4.114-2.599 6.556-5.884 7.184-10.211.571-3.899.471-7.812-.843-11.626-.728-2.099-1.985-2.685-3.913-1.614-2.056 1.143-3.77 2.685-4.513 5.028-.9 2.77-1.714 5.57-2.656 8.64-1.243-2.456-2.228-4.684-2.171-7.341.228-9.183-3.642-16.709-9.797-23.222-.686-.728-1.814-1.028-3.157-1.757-.642 2.571-.914 4.528-.671 6.627.9 7.855 4.285 14.525 9.597 20.252 1.171 1.271 2.185 2.542 2.657 4.699l-6.084-3.842a21.758 21.758 0 0 0-9.398-3.256c-.9-.1-1.856.242-3.142.442.557 1.357.757 2.285 1.257 2.999 5.084 7.027 11.34 12.383 20.152 14.14.985.199 2.37.314 2.828.971 1.628 2.371 3.184 4.827 4.327 7.955-10.554-6.456-14.025-7.57-18.167-5.799.2.6.243 1.328.615 1.828 1.456 1.928 2.842 3.956 4.556 5.627 4.87 4.771 10.368 8.427 17.48 8.912.972.072 2.286.329 2.8.986 1.914 2.471 3.556 5.156 5.298 7.755-1.085-.043-1.713-.543-2.427-.857-3.571-1.542-7.156-3.113-10.783-4.527-1.043-.4-2.285-.472-3.414-.386-.814.057-2.028.457-2.256 1.014-.243.628.314 1.7.757 2.428.6.971 1.385 1.857 2.213 2.656 5.942 5.77 12.368 10.44 21.323 9.512.743-.071 1.828 0 2.243.457 2.056 2.357 3.941 4.87 5.884 7.327-6.213-1.757-11.983-4.528-19.038-2.742.543 1.185.7 2.156 1.271 2.685 2.257 2.113 4.47 4.384 7.041 6.07 5.156 3.37 10.754 5.284 17.067 3.613.714-.186 1.828-.272 2.256.143 1.857 1.785 3.528 3.77 5.27 5.684-1.956.314-3.499-.172-5.055-.214-2.857-.072-5.77-.172-8.57.285-2.556.414-3.027 2.285-1.071 3.871 6.699 5.455 13.954 8.983 22.923 6.212.757-.228 1.985-.185 2.528.286 1.699 1.457 3.17 3.171 5.113 5.184-5.485-.243-10.483-1.199-14.682 2.528.371.757.471 1.271.771 1.543 6.427 5.512 13.682 7.84 22.108 5.698 1.029-.257 2.457-.543 3.2-.057 1.985 1.271 3.684 2.971 5.498 4.499-1.314.4-2.413.314-3.499.171-2.928-.357-5.77.029-8.441 1.271-2.527 1.186-2.685 3.114-.414 4.642a24.053 24.053 0 0 0 2.685 1.571c6.384 3.17 12.868 5.113 19.895 1.942.643-.285 1.714-.414 2.242-.071 2.371 1.499 4.628 3.199 6.927 4.813-2.199.514-4.127.314-6.013.571-2.485.329-5.041.686-7.341 1.614-2.599 1.043-2.627 2.614-.499 4.385 6.955 5.755 17.623 6.198 25.221.885 2.828 1.871 5.742 3.785 8.641 5.713-1.228.628-2.314.557-3.399.657-2.057.171-4.185.171-6.141.742a13.342 13.342 0 0 0-4.785 2.585c-1.742 1.514-1.457 3.114.6 4.042 2.199 1 4.47 1.9 6.784 2.542 4.427 1.243 8.926 1.457 13.125-.771 1.657-.885 2.999-2.342 4.527-3.57 3 1.142 8.141 4.184 9.041 5.413-1.414.2-2.785.357-4.128.599-3.099.543-6.027 1.614-8.412 3.714-2.456 2.185-2.142 3.884.843 5.141 3.556 1.5 7.255 2.342 11.126 2.128 4.513-.257 8.683-1.285 11.254-5.541.228-.372.643-.614 1.128-1.071 3.114 1.356 6.198 2.713 9.655 4.227-2.971 1.043-5.442 1.828-7.841 2.799-2.471 1-4.07 2.971-5.127 5.356-.6 1.385-.3 2.542 1.285 2.999 1.885.543 3.77 1.043 5.699 1.414 3.727.7 7.44.343 10.825-1.242 2.814-1.329 5.113-3.471 6.17-6.898 3.656.942 7.127 1.699 10.883 3.541-1.071.472-1.557.772-2.071.9-3.928.929-6.698 3.328-8.855 6.641-1.999 3.085-1.285 4.956 2.428 5.47 2.271.314 4.613.5 6.898.372 5.856-.329 10.412-2.757 12.468-8.641.372-1.071.957-1.928 2.228-1.685 3.357.628 6.684 1.328 10.626 2.128-2.142 1.099-3.727 1.799-5.184 2.67-3.528 2.114-5.856 5.085-6.456 9.298-.257 1.785.415 2.599 2.043 2.928 3.684.714 7.326.657 10.911-.557 5.027-1.7 8.169-4.985 8.755-10.44.086-.772.314-1.543.485-2.385.7-.086 1.257-.229 1.814-.215 3.228.129 6.456.357 9.669.429a40.983 40.983 0 0 0 6.213-.329c.542-.071.957-.985 1.442-1.528-.485-.4-.914-.985-1.456-1.142-.629-.186-1.372.028-2.057.014-3.913-.029-7.841-.229-11.754-.086-3.356.114-5.827-.828-7.113-4.184-.399-1.043-1.213-1.957-1.928-2.857-4.655-5.998-10.04-11.125-17.224-14.01-.999-.4-2.099-.529-3.784-.929.242 1.714.1 2.942.585 3.814 1.728 3.099 3.428 6.269 5.613 9.04 2.014 2.542 4.67 4.599 7.47 7.284-3.342-.6-6.199-.914-8.941-1.7-.985-.285-2.028-1.556-2.414-2.599-3.356-8.998-9.897-15.139-17.752-20.109-.986-.628-2.214-.871-3.785-1.457 0 1.814-.243 3.085.043 4.228.9 3.499 2.457 6.712 4.87 9.44 2 2.271 4.099 4.47 6.156 6.684-2.043-.186-3.828-.914-5.699-1.342-3.313-.757-5.713-2.257-5.884-6.056-.028-.643-.471-1.285-.771-1.914-2.228-4.741-5.199-8.983-8.969-12.596-1.971-1.9-4.228-3.557-6.57-4.985-1.585-.971-2.656-.143-2.728 1.728-.028.686.129 1.371.243 2.057.914 5.456 3.899 9.769 7.498 13.768.471.514.871 1.099 1.3 1.656-2.657-.599-4.97-1.571-7.298-2.527-1.871-.757-2.9-2.014-3.142-4.114-.186-1.699-.686-3.399-1.314-4.998-2.071-5.37-5.513-9.855-9.598-13.797-1.471-1.414-3.028-3.185-5.812-3.042-1.657 7.455 2.227 13.054 5.884 18.881-2.271-.814-4.156-2.057-6.199-2.928-1.971-.842-2.785-2.171-2.899-4.227-.314-5.599-2.514-10.526-5.798-14.954-1.7-2.299-3.699-4.413-5.785-6.383-1.713-1.614-3.184-.957-3.57 1.371-.071.457-.029.914-.043 1.385-.171 4.799 1.6 9.012 3.999 13.039.357.586.614 1.229 1.243 2.5-2.628-1.686-4.485-3.057-6.513-4.128-1.771-.928-2.528-2.142-2.428-4.127.257-4.628-1.042-8.969-3.156-12.968-1.6-3.028-3.714-5.799-5.784-8.555-.529-.7-1.871-1.328-2.628-1.128-.643.157-1.2 1.485-1.414 2.385-1.114 4.47-.057 8.683 1.771 12.768.4.899.842 1.771 1.271 2.656-.186.172-.357.343-.543.514a5018.886 5018.886 0 0 0-7.998-5.912c.943-4.028.943-7.641.129-11.312-1.114-4.97-3.428-9.269-6.784-13.039-.814-.914-1.485-2.642-2.856-1.914-1 .529-1.457 2.114-2.071 3.285-.2.371-.1.9-.143 1.371-.443 4.385.728 8.455 2.499 12.397.357.785.629 1.585.943 2.385-.143.1-.3.214-.443.314a3404.69 3404.69 0 0 1-9.112-7.141c.529-1.857 1.271-3.47 1.4-5.141.571-7.927-2.5-14.654-7.398-20.624-1.628-1.985-3.242-1.528-3.985.9-1.271 4.128-.957 8.198.6 12.197.771 1.985 1.671 3.927 2.499 5.898-3.013-2.042-5.627-4.398-8.169-6.826-.943-.9-1.528-1.986-1-3.414 2.128-5.827.672-11.382-1.556-16.781-.872-2.114-2.086-4.113-3.342-6.027-1.214-1.871-2.5-1.757-3.685.129-.371.585-.629 1.228-.886 1.87-1.528 3.871-.885 7.698.286 11.497.314 1 .628 1.986.943 2.971-2.343-1.685-4.099-3.628-5.956-5.498-1.471-1.472-1.7-2.885-.971-4.956 2.385-6.827 1.014-13.44-2.028-19.738-1.157-2.385-2.885-2.371-4.456-.171-1.857 2.613-2.871 5.484-2.628 8.755.1 1.271.014 2.556.014 4.655-2.256-2.984-4.013-5.312-5.712-7.555 4.455-6.869 4.641-13.782 2.199-20.894-.843-2.471-2.371-2.842-4.499-1.357-2.899 2.014-3.885 5.013-4.327 8.312-.157 1.171.242 2.485-1.043 3.828-1.742-2.6-3.313-4.956-4.956-7.413l.072-.057Zm476.445 45.774c-1.686-.486-3.057-1.057-4.47-1.257-3.114-.414-6.213-.114-9.227.871-1.099.357-2.213.643-3.327.971-.143-.257-.272-.514-.414-.771 1.785-1.914 3.713-3.727 5.312-5.784 1.257-1.614 2.543-2.057 4.456-1.457 3.442 1.071 6.856.657 10.183-.543 4.171-1.513 7.87-3.884 11.083-6.926 1.128-1.071 2.814-2.071 2.671-4.328-6.913-1.571-12.768 1.686-19.452 4.185.643-1.3.871-2.042 1.314-2.599 1.199-1.543 2.656-2.928 3.699-4.556 1.414-2.2 3.085-2.957 5.755-2.671 2.214.243 4.642-.129 6.77-.857 6.527-2.228 11.597-6.513 15.696-11.997.228-.314.171-.842.343-1.756-1.671 0-3.128-.215-4.499.042-3.999.743-7.755 2.171-11.169 4.442-1.371.914-2.756 1.771-4.141 2.657-.143-.186-.286-.386-.429-.572 2.028-3.07 3.985-6.184 6.156-9.154.528-.715 1.713-1.3 2.628-1.329 6.384-.185 11.496-3.199 16.11-7.169 2.813-2.428 5.527-5.085 7.226-9.283-1.899.1-3.37-.029-4.741.285-3.985.9-7.598 2.657-10.883 5.085-.914.671-1.671 1.87-3.499 1.413 1.614-2.956 2.999-5.727 4.641-8.34.457-.729 1.657-1.243 2.6-1.386 8.826-1.356 14.967-6.741 20.28-13.353.671-.828.985-1.957 1.728-3.499-8.041-.329-13.382 3.984-19.281 8.426.629-3.07 1.743-5.07 3.442-6.898 5.328-5.727 8.727-12.397 9.555-20.266.2-1.842.129-3.599-.871-5.484-.757.385-1.471.557-1.885.999-1.4 1.514-2.871 3.014-4.014 4.728-3.856 5.741-6.512 11.839-6.084 19.052.186 3.07-1.256 5.855-3.213 8.755-.243-.743-.457-1.057-.414-1.329.457-3.756-.971-7.083-2.657-10.211-.814-1.514-2.442-2.714-3.927-3.728-1.343-.928-2.442-.443-2.928 1.1-1.742 5.441-2.185 10.954.7 16.096 1.242 2.213 3.385 3.927 5.398 6.169-1.528 3.371-3.499 6.856-5.698 10.183-.529-.285-.714-.342-.714-.399-.043-.8 0-1.6-.086-2.385-.471-4.328-1.428-8.441-5.498-10.969-2.114-1.314-3.085-1.057-3.842 1.3-1.414 4.484-2.057 9.04.185 13.453 1.271 2.5 2.814 4.87 4.485 7.727-1.543 2.599-3.199 5.77-6.298 8.655-.129-2.2-.129-3.799-.315-5.37-.4-3.171-1.442-6.042-4.213-7.984-1.828-1.271-2.999-1.071-3.727 1-2.3 6.469-2.571 12.896 1.228 18.938.928 1.485.785 2.57-.086 3.756a94.742 94.742 0 0 1-4.099 5.127c-.371.428-1.014.628-1.999 1.185 1.057-5.884 1.057-11.054-3.728-15.424-.757.757-1.685 1.314-2.071 2.128-2.885 6.227-4.37 12.668-1.785 19.38.8 2.057.371 3.542-1.014 5.013-1.414 1.514-2.771 3.085-4.213 4.571-.928.956-1.957 1.813-2.942 2.713-.229-.1-.457-.186-.686-.286 2.685-6.426 5.456-12.867-.114-19.551-2.485 2.713-4.027 5.512-5.156 8.512-1.871 5.027-3.213 10.154-1.128 15.467.6 1.528.157 2.756-.914 3.756a409.19 409.19 0 0 1-8.698 7.869c-.228.2-.757.086-1.499.143 3.77-6.841 7.083-13.396 3.184-21.437-1.028.7-1.985 1.028-2.413 1.7-1.942 3.113-4.142 6.169-5.484 9.54-1.8 4.499-2.985 9.269-.5 14.053.571 1.086.257 1.971-.714 2.714-2.928 2.242-5.813 4.542-8.755 6.77-.429.328-1.071.357-2.157.699.829-1.442 1.371-2.313 1.843-3.213 2.199-4.27 3.613-8.726 3.099-13.625-.172-1.6-.4-3.185-1.914-4.156-7.241 4.97-11.068 16.096-9.012 25.936-3.17 3.328-7.398 6.127-9.983 6.427 3.071-5.942 5.856-11.84 2.856-18.624-.685.214-1.042.257-1.328.414-.4.229-.8.5-1.1.843-5.07 5.656-8.497 12.097-8.811 19.795-.129 2.985-.429 5.384-3.642 6.612-1.471.557-2.671 1.786-4.042 2.642-.614.386-1.314.614-2.014.943-.157-.5-.343-.771-.271-.914.357-.714.771-1.4 1.199-2.085 2.486-3.971 4.328-8.141 4.171-12.968-.043-1.286 0-2.542-1.443-3.185-.371.128-.757.171-.985.371-5.742 4.942-10.326 10.84-11.354 18.424-.643 4.67-2.414 7.555-6.627 9.326-1.757.743-3.371 1.814-5.899 2.199 4.742-6.126 9.484-11.696 7.827-20.151-2.485.999-4.227 2.285-5.699 3.87-5.112 5.456-9.326 11.426-10.511 19.081-.143.957-1.014 2.142-1.885 2.585-2.757 1.414-5.67 2.542-8.541 3.727-.414.172-.971-.043-1.471-.085-.128-.215-.243-.443-.371-.657.885-.7 1.871-1.314 2.642-2.128 3.728-4.028 6.812-8.455 7.584-14.068.128-.914-.3-1.9-.472-2.856-.942.257-1.899.485-2.842.785-.314.1-.6.343-.871.557-6.755 5.484-12.14 11.925-14.596 20.48-.243.829-.671 1.986-1.3 2.228-3.827 1.471-7.726 2.714-11.611 4.028a22.769 22.769 0 0 1-.457-.786c.814-.7 1.614-1.399 2.442-2.099 4.642-3.956 8.441-8.498 10.226-14.468.386-1.285.971-2.628-.286-3.742-.357.043-.599.043-.814.115-.328.114-.657.228-.957.4-8.169 4.955-14.995 11.139-18.409 20.366-.557 1.499-1.257 2.713-2.956 3.027-2.614.486-5.213 1.029-7.827 1.443-.528.086-1.128-.272-1.899-.486 9.997-8.483 14.353-14.653 13.539-19.623-2.171.943-4.37 1.628-6.284 2.785-6.513 3.942-11.94 9.083-15.696 15.753-1.271 2.271-2.842 3.442-5.456 3.427-4.727 0-9.454.115-14.167.2-.857.015-1.928-.357-2.257 1.443 3.028 1.1 6.213.657 9.326.714 3.2.057 6.399 0 9.969 0 .057 5.142 1.857 9.612 6.984 11.868 4.627 2.028 9.383 2.728 14.668.272-.815-2.185-1.286-4.214-2.257-5.956-2.199-3.927-6.284-5.441-10.226-7.084.257-.385.357-.7.514-.742a553.215 553.215 0 0 1 10.812-2.271c1.157-.229 2.013.285 2.456 1.414.386.957.657 1.985 1.186 2.856 3.356 5.513 13.81 8.355 19.566 5.342 1.128-.586 2.085-1.571 1.328-2.757-1.7-2.685-3.142-5.698-6.441-6.941-1.885-.714-3.742-1.485-5.613-2.228 3.77-2.285 7.627-3.47 11.768-4.256 1.9 4.984 5.585 7.484 10.441 8.198 4.613.671 9.069.071 13.51-2.485-.771-1.4-1.242-2.571-1.985-3.542-2.128-2.814-5.184-4.028-8.526-4.813-1.2-.271-2.714.043-3.771-1.457 3.399-1.499 6.541-2.885 9.683-4.256 1.172-.514 1.928.043 2.671.943.943 1.142 1.8 2.556 3.042 3.227 6.57 3.571 13.154 2.543 19.595-.442 1.542-.714 1.657-1.743.528-3.057-.657-.771-1.485-1.442-2.356-1.985-2.771-1.771-5.856-2.628-9.126-2.885-.943-.071-1.885-.3-2.942-.485.3-.557.357-.857.528-.943 2.899-1.642 5.813-3.271 8.726-4.884 1.271-.714 2.1-.043 2.985.871 1.014 1.028 2.1 2.185 3.385 2.742 7.298 3.142 13.925.943 20.295-2.842.157-.086.157-.414.257-.686-.357-1.571-1.5-2.428-2.871-3.156-3.056-1.642-6.312-2.057-9.712-1.842-1.128.071-2.456.657-3.584-.786 3.056-2.071 5.955-4.084 8.912-6.027 1.042-.685 1.928-.171 2.77.6 2.942 2.671 6.513 3.285 10.312 2.928 4.199-.386 8.112-1.743 11.682-4.013 1-.629 1.8-1.571 2.957-2.6-5.327-4.713-11.254-3.27-17.067-3.199 2.271-2.071 4.699-3.727 7.012-5.556 1.557-1.242 3.014-1.371 4.756-.471 3.214 1.671 6.627 1.728 10.112 1 3.884-.814 7.526-2.199 10.783-4.485.757-.528 1.785-1.542 1.699-2.213-.1-.757-1.185-1.6-2.028-2.014-3.142-1.528-6.441-1.5-9.812-.814-.999.2-2.07.871-3.484.028 2.556-2.099 4.77-4.084 7.183-5.812.7-.5 2.086-.6 2.928-.272 6.099 2.414 11.797.943 17.339-1.699 2.142-1.014 4.198-2.314 5.698-4.585-4.727-3.827-9.997-2.556-15.282-2.356 1.6-1.957 3.442-3.499 5.042-5.256 1.2-1.314 2.456-1.671 3.999-.971 2.87 1.3 5.87 1.128 8.84.643 3.942-.643 7.455-2.4 10.655-4.713 1.442-1.029 3.242-1.814 4.084-4.471l-.028.029Zm41.089-240.522c.385 3.728.657 6.812 1.028 9.897.257 2.171.343 4.413.986 6.47 1.671 5.284 7.212 7.941 12.196 5.784 1.814-.785 3.257-2.413 4.942-3.727.143.071.443.228.743.385 6.326 3.414 13.253 0 13.582-7.141.214-4.856-.729-9.783-1.186-14.896-10.983 1.1-21.48 2.157-32.305 3.242l.014-.014ZM495.597 82.321a80816.513 80816.513 0 0 1-16.653 27.907c3.199 1.914 6.127 3.713 9.112 5.441 1.685.972 3.371 2.028 5.184 2.685 3.4 1.229 6.67.686 9.298-1.828 2.571-2.456 3.785-5.455 2.585-9.069-.143-.414-.157-.871-.243-1.399.486-.243.886-.429 1.286-.629 6.569-3.285 7.583-11.083 1.742-15.453-3.742-2.8-7.969-4.97-12.311-7.64v-.015ZM385.655 46.888c-9.412-.143-16.882 7.198-17.053 16.752-.157 9.226 7.398 16.824 16.896 16.981 9.183.158 16.795-7.526 16.867-17.01.071-9.154-7.356-16.595-16.725-16.738l.015.015Zm44.816 42.988c9.241 0 16.782-7.626 16.853-17.052.071-9.14-7.698-16.81-17.081-16.853-9.241-.029-16.739 7.612-16.781 17.095-.043 9.326 7.512 16.796 17.009 16.81Zm-269.085 20.766c6.312 8.684 12.582 17.296 18.966 26.079 1.885-1.4 3.413-2.528 5.142-3.799-3.742-5.213-7.27-10.126-11.226-15.625 1.6.415 2.471.586 3.313.857 5.228 1.786 10.512 3.414 15.653 5.442 3.042 1.199 5.242.771 7.313-2.1-6.227-8.569-12.483-17.181-18.881-25.964-1.928 1.4-3.471 2.513-5.17 3.756 3.727 5.184 7.241 10.097 10.754 14.996-1.428.157-2.513-.1-3.556-.457-4.899-1.657-9.869-3.171-14.668-5.099-2.97-1.199-5.284-1.014-7.626 1.9l-.014.014ZM85.477 289.68c0-9.369-7.455-16.638-17.095-16.652-9.27-.015-16.682 7.569-16.696 17.124-.028 9.269 7.584 16.638 17.167 16.638 9.383 0 16.624-7.441 16.639-17.11h-.015ZM256.318 60.027c-9.441-.029-17.182 7.526-17.139 16.738.029 9.384 7.641 17.167 16.782 17.181 9.426 0 17.081-7.512 17.081-16.78 0-9.47-7.441-17.096-16.71-17.125l-.014-.014Zm-107.815 100.53c9.341.029 16.982-7.583 16.953-16.895-.029-9.126-7.612-16.753-16.738-16.838-9.327-.086-17.039 7.512-17.067 16.809-.029 9.441 7.398 16.91 16.852 16.939v-.015Zm-46.816 12.926c8.712 6.655 17.124 13.068 25.779 19.666 1.357-1.8 2.557-3.399 3.842-5.099-3.056-2.399-5.841-4.584-8.569-6.727 2.856-4.713 2.613-3.699 6.441-3.413 2.414.186 4.799.7 7.198.9.814.071 1.971-.1 2.442-.629 1.171-1.299 2.514-2.57 3.085-4.584-4.556-.6-8.855-1.171-13.239-1.757v-1.956c-.1-5.142-2.614-8.841-7.084-10.398-4.342-1.514-8.969-.128-12.054 3.742-2.585 3.242-5.056 6.584-7.841 10.24v.015Zm439.398-60.027c-1.286-1.057-2.242-1.886-3.228-2.657-1.042-.814-2.114-1.585-3.07-2.285-9.826 6.184-19.224 12.111-28.993 18.267 2.143 1.628 3.842 2.927 5.485 4.17 1.856-1.143 3.413-2.114 5.17-3.199 3.413 2.728 6.812 5.441 10.211 8.169-.628 2.114-1.171 3.97-1.771 6.027 1.614 1.243 3.171 2.442 5.027 3.856 3.828-11.083 7.456-21.594 11.169-32.348Zm100.702 153.159c-7.884 1.914-15.439 3.542-22.851 5.627-4.014 1.128-6.27 4.37-6.641 8.469a19.432 19.432 0 0 0 .714 7.141c1.942 6.441 7.126 9.312 13.696 7.827 6.184-1.4 12.354-2.871 18.524-4.342.742-.171 1.428-.528 2.285-.857-.557-2.057-1.043-3.885-1.571-5.827-2.385.528-4.413.986-6.427 1.443-4.827 1.114-9.64 2.327-14.496 3.313-3.199.657-5.07-.571-6.156-3.571-1.571-4.37-.1-7.14 4.499-8.254 5.156-1.257 10.326-2.414 15.482-3.628 1.414-.329 2.827-.728 4.427-1.143-.514-2.113-.928-3.87-1.5-6.198h.015Zm-558.31-.5c8.156-.3 14.383-8.855 12.597-16.724-.814-3.599-2.984-5.927-6.47-6.97-3.413-1.014-6.412-.1-8.826 2.457-1.5 1.585-2.785 3.37-4.213 5.027-.9 1.043-1.728 2.257-2.856 2.957-.843.514-2.185.642-3.17.385-1.358-.357-1.872-1.671-1.743-3.042.214-2.314 1.242-4.199 3.342-5.313.885-.471 1.842-.8 2.928-1.242-.357-1.914-.686-3.685-1-5.413-7.412-.343-12.825 8.026-11.326 14.767 1.443 6.456 10.04 9.998 15.168 4.513 1.485-1.599 2.785-3.37 4.213-5.027.971-1.128 1.885-2.385 3.042-3.27 1.9-1.443 4.285-.472 4.784 1.856.158.757.058 1.614-.114 2.385-.842 3.885-3.299 6.184-7.426 6.827.385 2.071.714 3.856 1.085 5.856l-.014-.029Zm141.92-186.879c-6.398-4.099-14.51-2.956-20.166 2.628-5.513 5.441-6.312 13.982-1.942 20.966 4.142 6.627 11.954 9.497 19.223 7.055 6.956-2.342 11.769-8.483 11.154-14.439h-5.584c-2.485 6.998-8.055 10.412-13.739 8.555-5.227-1.7-8.598-7.97-7.184-13.34.714-2.727 2.428-4.64 4.799-6.07 3.299-1.984 6.712-2.127 10.24-.256l3.214-5.113-.015.014Zm58.542-1.4c4.656 8.455 17.624 6.599 21.851 1.2 3.771-4.813 1.943-11.968-3.842-13.939-2.585-.885-5.413-1.028-8.126-1.542-1.243-.243-2.542-.386-3.671-.914-2.37-1.1-2.556-3.828-.357-5.228.829-.528 1.914-.742 2.914-.914 2.542-.428 4.327 1.129 6.213 2.742 1.499-1.328 2.913-2.599 4.284-3.798-4.213-6.627-13.868-6.37-18.523-2.043-4.642 4.313-3.457 13.454 3.299 15.053 2.228.529 4.527.829 6.784 1.243 1.471.271 3.013.357 4.384.885 2.599 1 2.842 3.77.614 5.442-2.371 1.77-6.669 1.77-9.112-.043-.785-.586-1.485-1.285-2.299-2-1.542 1.357-2.914 2.557-4.385 3.856h-.028Zm319.758 150.86c-7.355-2.685-10.654-7.883-8.912-13.639 1.642-5.398 8.012-8.926 13.496-7.426 2.571.699 4.428 2.342 5.856 4.57 2.157 3.399 1.999 6.941.528 10.668 1.743 1.086 3.342 2.086 4.942 3.085 3.97-6.284 2.899-14.41-2.371-19.994-5.17-5.47-13.339-6.556-20.323-2.7-6.927 3.828-10.226 11.312-8.241 18.738 1.914 7.184 7.912 12.34 14.568 12.283.143-1.771.3-3.571.457-5.585ZM343.823 59.07v-7.784h12.44v-5.74h-18.796v32.09h6.285v-12.14c4.256-.156 8.212-.299 12.153-.456v-5.97h-12.096.014Zm139.22 16.61c-7.498-3.3-14.51-6.384-21.737-9.569-.871 2-1.6 3.656-2.428 5.556a2602.13 2602.13 0 0 0 7.741 3.627c-3.556 8.112-6.97 15.896-10.497 23.951 2.071.9 3.899 1.685 5.87 2.542 3.613-8.14 7.055-15.91 10.597-23.88 2.728 1.144 5.241 2.186 7.955 3.314.857-1.913 1.599-3.556 2.485-5.555l.014.014ZM93.633 185.465c-4.028 6.898-7.942 13.611-11.97 20.509 1.929 1.114 3.5 2.014 5.257 3.013 1.528-2.513 2.927-4.827 4.441-7.312a17151 17151 0 0 0 22.651 13.154c1.143-1.928 2.171-3.642 3.271-5.499-7.712-4.513-15.067-8.812-22.651-13.253 1.457-2.6 2.785-4.971 4.227-7.541l-5.227-3.071Zm488.584-32.02c-8.655 6.884-16.996 13.525-25.451 20.252 4.042 5.084 7.798 9.811 11.683 14.696 1.757-1.4 3.156-2.528 4.756-3.799-2.628-3.328-5.027-6.37-7.627-9.669 6.97-5.556 13.754-10.968 20.609-16.438-1.442-1.829-2.585-3.271-3.97-5.028v-.014ZM73.409 328.213c-8.94-.657-17.495-1.285-26.165-1.928-.185 2.385-.328 4.27-.485 6.341 10.94.857 21.451 1.685 32.291 2.528.514-6.427 1-12.425 1.5-18.724h-5.998c-.358 3.799-.729 7.541-1.129 11.769l-.014.014Zm534.015-63.04c2.028-.757 3.699-1.372 5.642-2.1-1.4-3.985-2.714-7.698-4.085-11.583a16315.57 16315.57 0 0 0 24.622-9.097c-.8-2.1-1.514-3.942-2.271-5.941-10.283 3.77-20.18 7.412-30.349 11.139 2.2 5.999 4.271 11.655 6.441 17.567v.015Zm-61.583-112.099a23506.8 23506.8 0 0 1 18.423-18.567c-1.356-1.442-2.685-2.842-4.198-4.441a34613.99 34613.99 0 0 1-22.98 22.579c4.627 4.385 9.026 8.541 13.425 12.711.971-.971 2.242-2.256 3.67-3.699-2.785-2.871-5.484-5.656-8.34-8.598v.015ZM69.481 388.811c-.057-4.67-3.684-8.255-8.354-8.283-4.814-.029-8.513 3.699-8.455 8.526.057 4.799 3.856 8.412 8.697 8.283 4.642-.128 8.17-3.841 8.112-8.526Zm568.607 8.526c4.756.043 8.655-3.813 8.597-8.483-.057-4.556-3.827-8.284-8.426-8.312-4.756-.043-8.655 3.813-8.598 8.483.058 4.556 3.828 8.27 8.427 8.312Z"/><path d="M624.534 316.287c2.828-.271 5.056-.499 7.47-.728.314 2.599.685 4.842.814 7.098.128 2.3-1.186 3.813-3.271 4.071-2.328.285-3.87-.857-4.256-3.357-.343-2.228-.485-4.484-.757-7.069v-.015ZM644.729 314.16c.257 2.399.614 4.427.671 6.469.057 2.143-1.385 3.514-3.371 3.585-1.828.057-3.184-1.071-3.499-3.099-.3-1.914-.414-3.842-.642-6.056 2.242-.285 4.256-.557 6.855-.885l-.014-.014ZM487.457 108.371c1.442-2.356 2.627-4.284 3.956-6.455 2.242 1.328 4.356 2.442 6.312 3.77 1.871 1.271 2.271 3.314 1.243 5.085-1.071 1.842-2.971 2.456-5.027 1.385-2.114-1.1-4.114-2.399-6.484-3.799v.014ZM494.354 96.846c1.343-2.243 2.4-4 3.628-6.041 2.085 1.242 4.013 2.227 5.77 3.456 1.571 1.114 1.842 3.028.914 4.613-.928 1.585-2.714 2.242-4.456 1.385-1.928-.957-3.742-2.17-5.856-3.413ZM385.541 53.114c5.984.086 10.625 4.785 10.44 10.598-.186 6.14-4.699 10.654-10.54 10.54-6.084-.129-10.612-4.728-10.426-10.597.2-6.184 4.627-10.626 10.511-10.54h.015ZM440.869 72.51c.014 6.17-4.614 11.082-10.412 11.053-5.798-.028-10.526-4.513-10.64-10.082-.129-6.027 4.57-11.169 10.283-11.255 5.884-.085 10.754 4.57 10.769 10.298v-.015ZM79.179 289.709c0 6.141-4.385 10.683-10.297 10.683-6.27 0-11.069-4.585-10.969-10.483.1-6.07 4.613-10.555 10.54-10.483 6.199.071 10.726 4.413 10.712 10.283h.014ZM255.989 87.677c-5.727 0-10.497-5.085-10.44-11.14.043-5.599 4.742-10.169 10.512-10.24 5.812-.072 10.554 4.813 10.625 10.94.057 5.684-4.798 10.44-10.697 10.44ZM148.618 154.316c-5.87.029-10.812-4.884-10.783-10.754.028-5.613 4.67-10.354 10.283-10.483 5.713-.129 10.968 4.927 11.04 10.626.071 5.613-4.87 10.583-10.555 10.611h.015ZM117.926 177.739c-2.628-2-4.885-3.728-7.484-5.713 1.485-1.943 2.742-3.828 4.242-5.484 1.571-1.714 4.056-1.743 5.955-.343 2.043 1.499 2.643 3.927 1.443 6.084-.271.5-.643.957-.986 1.399-.971 1.257-1.97 2.5-3.17 4.042v.015ZM522.219 124.039c3.37-2.186 6.727-4.356 10.84-7.013-1.157 4.727-2.685 8.455-3.985 12.254-2.556-.985-4.427-2.414-6.855-5.241ZM349.807 587.53c-133.993-.4-238.508-109.128-238.365-238.68.143-129.323 104.615-238.008 238.551-238.094 131.751-.085 238.251 106.929 238.122 238.794-.128 131.38-106.871 237.98-238.294 237.98h-.014Zm-27.421-156.587c.243-.043.5-.086.742-.114 1.057 2.527 2.071 5.07 3.157 7.583 9.297 21.637 22.794 39.99 42.017 53.915 4.57 3.313 9.512 5.555 14.996 6.798 8.369 1.885 16.867 2.513 25.422 2.642 12.711.2 25.35-.786 38.004-1.871 22.266-1.914 44.003-6.455 65.454-12.554 2.714-.771 4.642-2.142 6.356-4.327 25.622-32.677 40.875-69.568 45.373-110.885 2.3-21.152 1.571-42.189-2.47-63.041-9.512-48.944-33.22-89.79-70.624-122.724-1.457-1.286-2.957-2.499-4.628-3.899-2.471 2.499-4.284 5.113-5.741 7.998-4.099 8.155-5.342 16.895-4.984 25.879.428 10.982.128 21.922-1.729 32.762-1.642 9.641-4.541 18.824-10.425 26.836-.229.3-.286.714-.572 1.443 9.084-2.171 15.967-6.784 20.98-14.168 3.285-4.842 5.47-10.183 6.599-15.867 1.114-5.599 1.785-11.283 2.699-17.181 2.042 7.255 2.371 14.41.843 21.608-2.814 13.311-11.683 22.137-22.68 29.507 4.327 2.356 8.555 2.028 12.796 1.328 10.712-1.757 21.752 4.613 25.451 14.996-5.327-4.056-11.326-4.842-17.467-5.099-8.683-.371-17.252.714-25.836 1.914-5.156.728-9.783 2.442-14.053 5.356-6.57 4.484-13.325 8.712-19.724 13.439-15.51 11.468-29.863 24.351-44.245 37.176-.471.428-.857.957-1.328 1.485.271.1.385.2.485.171.557-.157 1.1-.314 1.643-.514 11.083-4.199 22.537-6.541 34.391-7.169a98.692 98.692 0 0 0 14.739-1.885c9.826-2.028 18.295-6.584 23.836-15.239 2.457-3.842 4.113-8.212 6.084-12.368.472-1 .786-2.071 1.343-3.628.185.885.3 1.185.285 1.485-.485 9.469-2.585 18.51-7.74 26.593-4.728 7.398-11.226 12.44-19.881 14.511-.871.214-1.728.5-3.342.971 2.885.528 5.027 1.014 7.184 1.314 6.07.842 12.14 1.499 18.252.343 6.47-1.214 11.354-4.556 13.925-10.669 1.428-3.371 2.614-6.927 3.356-10.512 2.014-9.826 3.714-19.709 5.57-29.563.129-.686.486-1.343.729-2 .471 8.941 2.285 17.51 3.899 26.122 1.014 5.427 1.956 10.926 2.156 16.424.286 8.112-3.499 13.182-11.054 16.196-1.014.4-2.057.771-3.085 1.157.886.557 1.657.642 2.4.543 5.241-.729 10.568-1.157 15.71-2.343 10.111-2.313 19.509-6.355 27.535-13.125 5.242-4.413 9.141-9.74 10.583-16.61.1-.457.357-.871.686-1.628 2.128 4.242 2.77 8.227 1.97 12.468-.956 5.056-3.513 9.241-6.998 12.883-4.37 4.584-9.683 7.798-15.467 10.254-8.712 3.685-17.852 5.456-27.25 5.884-12.168.571-24.208-.114-35.919-3.827-6.941-2.2-14.039-3.814-21.28-4.513-10.326-1-20.495-.358-30.278 3.584-2.385.957-3.613 2.271-4.113 4.856-1.242 6.484-3.313 12.711-6.612 18.481-2.257 3.956-5.07 7.441-8.998 9.883-.7.443-1.542.671-2.614 1.128-1.142-21.994-7.997-41.689-19.98-59.627 4.784-7.084 10.226-13.296 16.41-19.48-.971-.743-1.7-1.143-2.242-1.714-3.856-4.128-7.841-8.155-11.44-12.497-3.771-4.541-6.713-9.654-8.555-15.324-2.685-8.327-1.885-16.11 3.342-23.337 1.957-2.699 3.685-5.584 5.284-8.512 8.469-15.41 9.512-31.349 2.871-47.644-2.085-5.113-4.685-10.026-7.027-15.039-.357-.757-.6-1.571-.9-2.371.229-.143.472-.3.7-.443 4.599 5.584 9.326 11.083 13.754 16.81 2.028 2.628 3.685 5.584 5.184 8.569 4.813 9.598 4.87 19.281.143 28.964-.371.771-.671 1.585-1.243 2.956 15.268-3.827 26.693-12.254 35.962-24.065a3.966 3.966 0 0 1-.228 1.685c-1.743 4.771-3.414 9.555-5.27 14.268-1.271 3.214-2.585 6.441-4.242 9.455-5.313 9.683-13.696 13.782-24.593 13.039-.457-.028-.929-.043-1.386-.086-2.185-.228-3.699.643-4.884 2.528-4.47 7.07-6.027 14.668-4.171 22.851 2.257 9.955 8.013 17.396 16.568 22.966 1.099-.843 1.985-1.571 2.913-2.228 3.171-2.3 6.17-4.942 9.583-6.798 8.669-4.713 15.953-10.912 21.952-18.724 5.727-7.455 10.854-15.239 13.382-24.422 3.127-11.354 2.028-22.637-.972-33.834-3.241-12.111-8.554-23.351-14.667-34.248a130.577 130.577 0 0 1-1.657-3.114l.6-.314c7.841 10.412 15.367 21.038 20.952 32.877a93.486 93.486 0 0 1 3.784 9.284c4.528 13.01 4.114 25.878-1.671 38.404-2.37 5.113-5.041 10.154-8.169 14.81-4.499 6.684-9.569 12.997-14.396 19.466-.714.957-1.443 1.914-2.171 2.871.686.157 1.086 0 1.428-.229 10.655-7.369 20.78-15.367 29.65-24.864 6.569-7.041 12.382-14.654 15.981-23.68 1.357-3.399 2.656-6.984 2.999-10.583.657-6.641.857-13.368.757-20.037-.157-9.369-1.442-18.61-4.584-27.522-4.97-14.082-14.039-24.193-28.336-29.206-.557-.2-1.057-.557-1.585-.843 20.08 2.457 34.976 11.654 41.218 32.063 1.585-9.797 5.327-18.109 13.667-23.751-72.652-60.812-187.05-63.097-262.73-3.799 12.897 4.642 19.452 14.168 21.266 28.121.571-1.542.928-2.256 1.1-3.013 1.871-8.055 6.655-13.368 14.467-16.296 5.827-2.171 11.397-4.984 17.096-7.498.414-.185.899-.214 2.056-.485-1.356 1.314-2.185 2.113-2.999 2.913-3.285 3.242-6.641 6.413-9.84 9.74-7.727 8.055-12.511 17.567-14.139 28.693-1.3 8.855-1.114 17.681-.614 26.578.357 6.242 1.956 12.026 4.613 17.596 2.956 6.184 6.826 11.768 11.254 16.967 9.654 11.34 21.166 20.537 33.362 28.963.315.215.715.3 1.072.443-.543-1.371-1.329-2.356-2.128-3.327-7.855-9.684-15.739-19.352-21.895-30.235-2.713-4.799-5.098-9.855-6.941-15.025-3.67-10.326-2.585-20.423 2.657-30.078 3.099-5.727 7.098-10.782 11.468-15.567.486-.528 1.114-.928 1.971-1.642-.071.914-.086 1.371-.157 1.813-1.214 7.627-2.699 15.211-3.613 22.866-2.842 24.079 6.926 43.317 23.708 60.084 1.942-2.799 3.899-5.484 5.727-8.255 8.326-12.64 14.267-26.322 17.709-41.075.486-2.056.372-3.799-1.085-5.456-2.057-2.328-3.842-4.927-6.013-7.126-5.313-5.399-11.44-8.755-19.466-6.798 5.57-4.214 11.568-5.913 18.052-2.743 2.842 1.4 5.285 3.628 7.855 5.556.886.671 1.614 1.557 2.657 2.571.9-2.385 1.185-4.399.5-6.598-2.257-7.27-4.499-14.539-6.613-21.837-3.013-10.398-1.471-20.167 4.713-29.021 2.957-4.242 6.427-8.141 9.698-12.154.528-.657 1.256-1.157 1.899-1.728.043 1.185-.328 2.128-.614 3.085-1.842 6.298-3.87 12.553-5.427 18.937-2.757 11.255-2.085 22.009 5.57 31.478.357.442.628.971.928 1.456 2.128 3.514 3.528 7.27 3.742 11.383.685 12.897-.857 25.351-7.484 36.748-2.085 3.584-4.313 7.098-6.427 10.668a5784.251 5784.251 0 0 0-14.067 23.837c-.572.971-1.029 2.028-1.671 3.27 11.868 7.955 22.594 17.01 31.62 27.936 9.14 11.04 16.124 23.294 20.909 36.818 4.998 14.14 8.769 36.448 6.941 40.747-3.685-5.185-7.284-10.555-11.197-15.667-4.999-6.542-10.783-12.326-17.71-16.882-7.455-4.898-15.524-7.569-24.522-6.826-1.714.142-3.114-.3-4.556-1.143-4.213-2.442-8.755-4.113-13.511-5.184-10.44-2.343-20.88-1.757-31.249.342-4.284.872-8.597 1.829-12.71 3.3-13.368 4.784-26.893 4.913-40.575 1.985-17.096-3.656-32.62-10.655-46.031-21.994-3.985-3.371-7.512-7.184-10.083-11.769-.314-.571-.414-1.271-.586-1.814 4.628 3.128 8.955 6.413 13.611 9.141 11.097 6.512 22.98 11.268 35.462 14.396 6.17 1.543 12.425 2.642 18.824 2.271 1.556-.086 3.085-.429 4.627-.643-.486-.585-.928-.7-1.371-.771-11.468-1.957-22.323-5.698-32.634-11.04-9.084-4.699-17.453-10.383-24.18-18.209-3.656-4.256-6.512-8.955-7.855-14.454-.271-1.142-.357-2.328-.628-4.27 1.957 1.514 3.242 2.457 4.484 3.442 8.041 6.384 16.011 12.868 24.137 19.138 8.512 6.555 17.51 12.411 27.336 16.852 12.668 5.713 25.836 8.455 39.746 6.499 3.299-.472 6.684-.757 10.34-2.5-12.554-2.242-23.751-6.441-34.448-11.996-8.326-4.328-16.167-9.369-22.765-16.153-3.085-3.171-5.727-6.656-7.341-10.797-.5-1.257-.728-2.614-1.085-3.928 3.884 6.641 9.526 11.154 15.895 14.825 3.185 1.842 6.484 3.527 9.883 4.97 18.124 7.669 37.133 11.682 56.714 12.982 11.14.728 21.908 2.942 32.363 6.841.928.343 1.885.628 3.627 1.185-1.228-1.385-1.856-2.17-2.556-2.884-10.069-10.255-21.109-19.338-33.548-26.565-13.268-7.698-26.708-15.11-40.09-22.594-.985-.557-2.113-.942-3.227-1.185-6.756-1.457-13.497-3.128-20.324-4.185-8.012-1.242-16.181-2.785-23.765 2.114 4.942-10.197 12.954-15.41 25.036-14.953-1.599-1.214-2.499-1.914-3.413-2.6-5.27-3.97-10.183-8.312-14.339-13.467-8.798-10.898-10.511-23.251-7.527-36.576.072-.3.386-.529.743-1 .571 1.285 1.1 2.413 1.585 3.556 3.285 7.898 7.141 15.51 12.112 22.494 4.598 6.455 9.997 12.083 16.752 16.324 4.799 3.014 9.926 5.213 16.239 6.541-1.943-2.399-3.414-4.27-4.942-6.098-5.413-6.484-8.583-13.939-9.383-22.308-.486-5.156-.743-10.369-.6-15.539a126.993 126.993 0 0 0-2.356-28.207c-1.3-6.584-3.114-13.011-6.256-18.981-1.714-3.27-3.727-6.312-6.912-8.669-1.314 1-2.5 1.885-3.671 2.814-60.627 48.244-91.033 124.952-78.75 202.418 6.427 40.56 23.294 76.279 50.015 107.414 1.428 1.671 3.056 2.713 5.156 3.199 11.568 2.642 23.108 5.513 34.719 7.927 14.239 2.956 28.635 4.941 43.189 5.655 8.897.429 17.724-.071 26.507-1.814 6.027-1.199 10.197-4.613 13.196-9.697a38.188 38.188 0 0 0 2.543-5.284c1.685-4.328 2.513-8.855 2.799-13.497.1-1.557.214-3.099.314-4.656 1.2 1.043 1.785 2.128 2.371 3.228 4.899 9.24 11.625 16.867 20.137 22.937 2.128 1.514 2.143 1.485 4.713.957-9.568-8.655-17.152-18.51-20.908-30.921-3.799-12.554-3.028-24.993.514-37.39v-.071Z"/><path d="M322.8 378.685c2.885-.914 5.456-.628 7.784.343 3.385 1.414 6.869 2.842 9.811 4.956 4.371 3.156 8.627 6.612 12.383 10.469 12.882 13.225 22.794 28.349 28.407 46.073 1.956 6.184 3.084 12.511 2.37 19.638-1.571-1.029-2.942-1.757-4.141-2.728-8.312-6.727-15.439-14.511-21.309-23.465-.543-.829-1.114-1.657-1.971-2.314 2.771 14.025 8.898 26.436 17.924 37.433 9.097 11.097 20.266 19.38 33.891 24.236-.029.229-.043.472-.072.7-2.17.214-4.341.571-6.526.6-9.955.143-19.081-2.685-27.536-7.869-6.341-3.885-12.011-8.641-16.853-14.239-15.667-18.138-27.235-38.533-33.091-61.913-2.371-9.454-3.485-19.052-1.814-28.778.172-1.014.457-1.999.714-3.156l.029.014Z"/></g><defs><clipPath id="a"><path fill="#fff" d="M0 0h700v699.914H0z"/></clipPath></defs></svg>