<svg width="476" height="720" viewBox="0 0 476 720" fill="none" xmlns="http://www.w3.org/2000/svg">
<g clip-path="url(#clip0_486_26161)">
<path d="M180.455 65.521C180.204 65.2184 179.919 64.985 179.599 64.8034C179.271 64.6391 178.925 64.5527 178.57 64.5527H173.754V71.3053H178.57C178.942 71.3053 179.288 71.2102 179.608 71.02C179.928 70.8298 180.222 70.5791 180.447 70.2592C180.689 69.9392 180.879 69.5847 181.017 69.1611C181.156 68.7547 181.225 68.3224 181.225 67.8642C181.225 67.4059 181.147 66.9563 181.017 66.5586C180.879 66.1609 180.689 65.7977 180.447 65.5037L180.455 65.521Z" fill="white"/>
<path d="M179.323 59.0363C179.634 58.8547 179.919 58.6126 180.153 58.3187C180.395 58.016 180.585 57.6788 180.723 57.2984C180.862 56.9266 180.931 56.5289 180.931 56.1225C180.931 55.7162 180.853 55.3357 180.723 54.9466C180.585 54.5489 180.395 54.1858 180.153 53.8745C179.919 53.546 179.634 53.2952 179.323 53.0963C179.003 52.8975 178.665 52.8024 178.311 52.8024H173.754V59.3043H178.311C178.665 59.3043 179.003 59.2179 179.323 59.0449V59.0363Z" fill="white"/>
<path d="M206.541 68.3916C207.207 69.213 207.993 69.8614 208.91 70.337C209.835 70.8212 210.838 71.0633 211.945 71.0633C213.051 71.0633 214.072 70.8212 214.997 70.337C215.922 69.8614 216.717 69.213 217.383 68.3916C218.049 67.5615 218.55 66.6105 218.922 65.521C219.294 64.423 219.467 63.273 219.467 62.0453C219.467 60.8175 219.277 59.633 218.905 58.5435C218.533 57.4368 218.006 56.4771 217.349 55.6644C216.674 54.843 215.887 54.1945 214.962 53.7103C214.046 53.2348 213.034 52.9927 211.945 52.9927C210.855 52.9927 209.835 53.2348 208.91 53.7103C207.993 54.1945 207.207 54.843 206.541 55.6644C205.875 56.4857 205.348 57.4455 204.976 58.5435C204.604 59.6416 204.414 60.8089 204.414 62.0453C204.414 63.2817 204.604 64.423 204.976 65.521C205.356 66.6191 205.884 67.5615 206.541 68.3916Z" fill="white"/>
<path d="M411.957 70.2678C412.191 69.9479 412.381 69.5934 412.519 69.1697C412.666 68.7634 412.727 68.331 412.727 67.8728C412.727 67.4145 412.666 66.9649 412.519 66.5672C412.381 66.1695 412.191 65.8063 411.949 65.5124C411.707 65.2098 411.421 64.9763 411.093 64.7947C410.764 64.6305 410.418 64.544 410.072 64.544H405.239V71.2967H410.072C410.444 71.2967 410.79 71.2016 411.11 71.0114C411.439 70.8212 411.707 70.5704 411.949 70.2505L411.957 70.2678Z" fill="white"/>
<path d="M410.825 59.0363C411.136 58.8547 411.413 58.6126 411.655 58.3187C411.888 58.016 412.079 57.6788 412.217 57.2984C412.364 56.9266 412.424 56.5289 412.424 56.1225C412.424 55.7162 412.364 55.3357 412.217 54.9466C412.079 54.5489 411.888 54.1858 411.655 53.8745C411.413 53.546 411.136 53.2952 410.825 53.0963C410.496 52.8975 410.159 52.8024 409.805 52.8024H405.248V59.3043H409.805C410.159 59.3043 410.496 59.2179 410.825 59.0449V59.0363Z" fill="white"/>
<path d="M0 0V613.872L237.996 719.815L475.991 613.872V0H0ZM468.633 609.091L238.004 711.748L7.36657 609.091V7.36657H468.633V609.091Z" fill="white"/>
<path d="M385.829 223.712H343.454V577.282L385.829 559.626V223.712Z" fill="white"/>
<path d="M22.0999 22.0998V599.52L237.996 695.622L453.892 599.52V22.0998H22.0999ZM395.928 71.3054H398.893V52.7938H395.928V47.4851L410.081 47.5196C411.387 47.5196 412.597 47.7531 413.687 48.22C414.768 48.6869 415.719 49.3181 416.505 50.1135C417.292 50.9176 417.915 51.8427 418.356 52.9149C418.788 53.9784 419.004 55.111 419.004 56.3042C419.004 57.7135 418.762 58.8721 418.269 59.7973C417.785 60.7138 417.076 61.4487 416.177 62.0193C417.137 62.6332 417.889 63.3854 418.451 64.2846C418.996 65.1925 419.281 66.2819 419.281 67.5702C419.281 68.8585 419.047 70.0949 418.598 71.193C418.148 72.2997 417.526 73.2421 416.748 74.0462C415.961 74.833 415.036 75.4556 413.955 75.8965C412.883 76.3375 411.724 76.5623 410.496 76.5623H395.919V71.314L395.928 71.3054ZM357.002 47.5196H368.649V52.7938H365.986V64.8294C365.986 65.9361 366.115 66.8612 366.357 67.6307C366.608 68.4002 366.954 69.0228 367.404 69.507C367.853 69.9911 368.381 70.3456 369.003 70.5704C369.617 70.7952 370.274 70.9076 371.009 70.9076C371.744 70.9076 372.444 70.8125 373.058 70.6223C373.681 70.4321 374.208 70.0949 374.649 69.6367C375.09 69.1698 375.427 68.5559 375.669 67.7777C375.903 66.9996 376.015 66.0225 376.015 64.838V52.8025H372.929V47.5283H384.575V52.8025H382.249V64.0944C382.249 66.1349 381.964 67.9593 381.376 69.5415C380.788 71.1325 379.975 72.4813 378.955 73.5707C377.926 74.6687 376.716 75.5074 375.332 76.0781C373.94 76.6574 372.462 76.9427 370.879 76.9427C369.297 76.9427 367.836 76.6574 366.47 76.0867C365.104 75.5161 363.911 74.6947 362.899 73.6139C361.879 72.5418 361.075 71.2276 360.487 69.6885C359.907 68.1409 359.613 66.3943 359.613 64.4403V52.8025H356.985V47.5283L357.002 47.5196ZM324.579 71.3054H327.588V52.7938H324.579V47.5196H337.004V52.7938H333.943V71.3054H340.255C340.419 71.3054 340.583 71.2621 340.747 71.167C340.903 71.0633 341.041 70.9422 341.171 70.7866C341.283 70.6396 341.396 70.4753 341.465 70.2938C341.534 70.1122 341.577 69.9393 341.577 69.775V65.8842H347.777V76.5536H324.57V71.3054H324.579ZM237.676 71.3054H240.676V52.7938H237.676V47.5196H250.092V52.7938H247.031V71.3054H253.36C253.524 71.3054 253.689 71.2621 253.844 71.167C254 71.0633 254.147 70.9422 254.268 70.7866C254.398 70.6396 254.493 70.4753 254.562 70.2938C254.648 70.1122 254.674 69.9393 254.674 69.775V65.8842H260.882V76.5536H237.676V71.3054ZM198.405 58.0248C198.742 56.7538 199.209 55.5433 199.805 54.428C200.402 53.3126 201.128 52.301 201.984 51.3845C202.823 50.468 203.774 49.6898 204.812 49.0327C205.849 48.3843 206.973 47.8741 208.166 47.5196C209.368 47.1651 210.631 46.9836 211.945 46.9836C213.259 46.9836 214.521 47.1651 215.723 47.5196C216.934 47.8828 218.058 48.3843 219.095 49.0327C220.133 49.6812 221.084 50.468 221.94 51.3845C222.778 52.301 223.522 53.3126 224.119 54.428C224.732 55.5433 225.191 56.7538 225.528 58.0248C225.857 59.3044 226.021 60.6446 226.021 62.0453C226.021 63.446 225.857 64.7515 225.528 66.0312C225.191 67.3108 224.732 68.5126 224.119 69.628C223.522 70.7434 222.778 71.7636 221.94 72.6715C221.084 73.588 220.141 74.3661 219.095 75.0146C218.066 75.6631 216.934 76.1732 215.723 76.5277C214.521 76.8822 213.259 77.0637 211.945 77.0637C210.631 77.0637 209.368 76.8822 208.166 76.5277C206.965 76.1732 205.849 75.6631 204.812 75.0146C203.765 74.3661 202.823 73.5793 201.984 72.6715C201.128 71.7636 200.402 70.7434 199.805 69.628C199.209 68.5126 198.742 67.3108 198.405 66.0398C198.076 64.7688 197.912 63.4287 197.912 62.0453C197.912 60.6619 198.076 59.3044 198.405 58.0248ZM127.428 47.5196H153.834V56.3474H147.548V52.595H143.553V71.3054H146.614V76.5536H134.189V71.3054H137.198V52.595H133.671V56.3474H127.428V47.5196ZM90.2925 47.5196H101.93V52.7938H99.2673V64.8294C99.2673 65.9361 99.397 66.8612 99.6477 67.6307C99.8898 68.4002 100.236 69.0228 100.694 69.507C101.135 69.9911 101.671 70.3456 102.285 70.5704C102.899 70.7952 103.564 70.9076 104.291 70.9076C105.017 70.9076 105.735 70.8125 106.357 70.6223C106.971 70.4321 107.507 70.0949 107.948 69.6367C108.38 69.1698 108.726 68.5559 108.96 67.7777C109.193 66.9996 109.314 66.0225 109.314 64.838V52.8025H106.228V47.5283H117.865V52.8025H115.548V64.0944C115.548 66.1349 115.254 67.9593 114.666 69.5415C114.078 71.1325 113.274 72.4813 112.245 73.5707C111.216 74.6687 110.015 75.5074 108.623 76.0781C107.248 76.6574 105.752 76.9427 104.17 76.9427C102.587 76.9427 101.126 76.6574 99.7688 76.0867C98.4027 75.5161 97.2095 74.6947 96.1893 73.6139C95.1776 72.5418 94.3822 71.2276 93.7943 69.6885C93.2063 68.1409 92.9123 66.3943 92.9123 64.4403V52.8025H90.2925V47.5283V47.5196ZM59.0192 71.3054H62.0194V53.3558H59.0192V47.5283H81.4734V57.4282H75.2568V53.3558H68.3744V59.4601H74.3316V65.0282H68.3744V71.314H71.4352V76.5623H59.0192V71.314V71.3054ZM174.195 494.537L89.2463 456.572V602.027L47.5284 583.265V181.743H174.187V494.546L174.195 494.537ZM182.418 160.275H47.5111C47.6235 158.926 47.684 157.569 47.684 156.194V97.4775H182.401V160.275H182.418ZM187.121 71.193C186.672 72.2997 186.049 73.2421 185.263 74.0462C184.484 74.833 183.551 75.4556 182.487 75.8965C181.415 76.3375 180.256 76.5623 179.011 76.5623H164.442V71.314H167.408V52.8025H164.442V47.4937L178.588 47.5283C179.902 47.5283 181.104 47.7617 182.202 48.2286C183.3 48.6955 184.234 49.3267 185.029 50.1222C185.816 50.9262 186.43 51.8514 186.871 52.9235C187.312 53.987 187.536 55.1197 187.536 56.3128C187.536 57.7222 187.294 58.8808 186.802 59.8059C186.309 60.7224 185.608 61.4573 184.709 62.028C185.669 62.6419 186.412 63.3941 186.974 64.2933C187.536 65.2011 187.805 66.2906 187.805 67.5789C187.805 68.8671 187.58 70.1035 187.13 71.2016L187.121 71.193ZM259.144 658.729L238.013 667.73H238.004L216.83 658.755V219.147C223.289 222.095 230.448 223.704 238.004 223.704H238.013C245.544 223.704 252.694 222.095 259.144 219.147V658.72V658.729ZM285.074 156.194C285.074 157.569 285.014 158.926 284.893 160.275C282.835 184.363 262.629 203.264 238.013 203.273H237.996C213.371 203.273 193.148 184.363 191.09 160.275C190.978 158.926 190.909 157.569 190.909 156.194V97.4775H285.074V156.194ZM290.158 72.6628C289.32 71.7463 288.593 70.7261 287.988 69.6107C287.392 68.4954 286.925 67.2935 286.587 66.0139C286.25 64.7342 286.095 63.3941 286.095 62.002C286.095 59.9183 286.449 57.9729 287.175 56.1486C287.91 54.3242 288.905 52.742 290.167 51.3845C291.429 50.027 292.917 48.9549 294.62 48.1595C296.323 47.3813 298.165 46.9836 300.127 46.9836C301.71 46.9836 303.024 47.1824 304.096 47.5715C305.168 47.9606 306.353 48.7301 307.641 49.8801H311.921V56.3474H306.007C305.289 55.3272 304.649 54.6009 304.07 54.1772C303.499 53.7449 302.877 53.4423 302.22 53.2521C301.554 53.0705 300.854 52.9754 300.127 52.9754C299.055 52.9754 298.061 53.2175 297.136 53.693C296.219 54.1772 295.433 54.8257 294.758 55.6471C294.084 56.4685 293.556 57.4282 293.176 58.5176C292.795 59.5984 292.597 60.757 292.597 61.9934C292.597 63.2298 292.787 64.3884 293.167 65.4865C293.548 66.5845 294.058 67.527 294.724 68.3484C295.389 69.1698 296.185 69.8096 297.101 70.2938C298.018 70.7693 299.029 71.0114 300.119 71.0114C300.888 71.0114 301.606 70.8817 302.263 70.631C302.929 70.3889 303.534 70.0603 304.07 69.6539C304.615 69.2476 305.09 68.772 305.505 68.2446C305.92 67.7172 306.232 67.1638 306.465 66.5932L312.621 68.3051C312.232 69.5588 311.653 70.7174 310.883 71.7896C310.114 72.853 309.197 73.7782 308.117 74.5564C307.044 75.3345 305.825 75.9484 304.477 76.3893C303.128 76.8389 301.675 77.0637 300.119 77.0637C298.805 77.0637 297.551 76.8822 296.349 76.5277C295.147 76.1732 294.023 75.6631 292.994 75.0146C291.948 74.3575 291.006 73.5793 290.15 72.6542L290.158 72.6628ZM428.161 582.997L301.494 639.474V181.743H428.161V583.006V582.997ZM428.48 160.275H293.591C293.703 158.926 293.764 157.569 293.764 156.194V97.4775H428.48V160.275Z" fill="white"/>
<path d="M93.4654 124.886V117.649H76.5967V121.868H78.8274V135.028H76.5967V138.858H93.4654V131.258H88.9089V135.028H83.4704V130.108H87.6811V126.062H83.4704V121.868H88.9089V124.886H93.4654Z" fill="white"/>
<path d="M114.035 124.86V120.632H112.634C112.427 120.174 112.107 119.715 111.709 119.283C111.303 118.851 110.801 118.462 110.222 118.125C109.634 117.787 108.977 117.519 108.242 117.32C107.507 117.122 106.694 117.018 105.83 117.018C104.723 117.018 103.711 117.165 102.795 117.441C101.87 117.727 101.066 118.133 100.4 118.669C99.7253 119.205 99.2066 119.88 98.8348 120.658C98.463 121.445 98.2728 122.353 98.2728 123.355C98.2728 124.229 98.4025 124.998 98.6619 125.673C98.9126 126.347 99.2584 126.944 99.6908 127.437C100.123 127.938 100.625 128.362 101.187 128.699C101.757 129.036 102.345 129.295 102.942 129.477L106.149 130.523C106.435 130.618 106.729 130.713 107.023 130.826C107.325 130.938 107.593 131.077 107.835 131.241C108.078 131.405 108.276 131.613 108.432 131.837C108.579 132.08 108.666 132.373 108.666 132.728C108.666 133.411 108.441 133.956 108 134.336C107.567 134.725 106.928 134.924 106.08 134.924C105.536 134.924 105.051 134.846 104.636 134.699C104.23 134.552 103.893 134.353 103.616 134.085C103.357 133.826 103.141 133.515 103.002 133.16C102.873 132.814 102.803 132.425 102.803 132.002V131.137H97.7454V135.348H99.1893C99.44 135.944 99.7859 136.498 100.244 136.982C100.685 137.457 101.212 137.864 101.8 138.21C102.397 138.556 103.063 138.824 103.789 138.996C104.507 139.187 105.276 139.273 106.08 139.273C107.239 139.273 108.294 139.1 109.245 138.763C110.196 138.426 111.017 137.968 111.683 137.354C112.366 136.74 112.894 136.014 113.274 135.175C113.654 134.319 113.845 133.385 113.845 132.365C113.845 131.604 113.75 130.921 113.551 130.324C113.352 129.71 113.084 129.174 112.755 128.716C112.409 128.241 112.012 127.852 111.545 127.523C111.069 127.194 110.576 126.935 110.04 126.753L106.201 125.457C105.873 125.353 105.536 125.249 105.19 125.154C104.844 125.059 104.524 124.929 104.239 124.773C103.953 124.618 103.72 124.419 103.547 124.16C103.365 123.918 103.27 123.58 103.27 123.157C103.27 122.819 103.348 122.534 103.469 122.292C103.607 122.05 103.789 121.851 104.014 121.695C104.247 121.548 104.507 121.436 104.827 121.358C105.129 121.28 105.458 121.237 105.812 121.237C106.201 121.237 106.582 121.298 106.936 121.427C107.291 121.54 107.619 121.713 107.905 121.92C108.19 122.128 108.423 122.37 108.596 122.664C108.778 122.949 108.89 123.26 108.942 123.589V124.817H114L114.035 124.86Z" fill="white"/>
<path d="M117.744 117.649V124.099H122.3V121.358H124.886V135.028H122.681V138.858H131.768V135.028H129.52V121.358H132.451V124.099H137.034V117.649H117.744Z" fill="white"/>
<path d="M142.611 135.538C142.472 135.201 142.273 134.907 142.031 134.665C141.78 134.414 141.495 134.224 141.158 134.077C140.829 133.93 140.484 133.869 140.112 133.869C139.74 133.869 139.377 133.93 139.04 134.077C138.702 134.224 138.417 134.423 138.166 134.673C137.924 134.924 137.725 135.209 137.596 135.538C137.457 135.867 137.388 136.212 137.388 136.593C137.388 136.973 137.457 137.328 137.596 137.656C137.725 137.994 137.924 138.279 138.166 138.521C138.417 138.763 138.702 138.953 139.031 139.1C139.368 139.247 139.723 139.325 140.112 139.325C140.501 139.325 140.838 139.247 141.167 139.1C141.495 138.953 141.78 138.763 142.023 138.521C142.265 138.279 142.464 137.994 142.602 137.656C142.749 137.319 142.827 136.965 142.827 136.593C142.827 136.221 142.749 135.875 142.619 135.538" fill="white"/>
<path d="M339.053 128.024C339.632 127.385 340.082 126.71 340.427 126.001C340.765 125.292 340.938 124.531 340.938 123.71C340.938 122.664 340.747 121.756 340.376 120.96C340.012 120.174 339.502 119.499 338.863 118.963C338.223 118.427 337.488 118.012 336.649 117.735C335.819 117.45 334.937 117.312 334.012 117.312C333.035 117.312 332.118 117.467 331.254 117.779C330.398 118.081 329.654 118.54 329.014 119.127C328.375 119.715 327.873 120.45 327.51 121.315C327.156 122.18 326.965 123.157 326.965 124.255H331.185C331.185 123.883 331.263 123.528 331.375 123.191C331.505 122.854 331.669 122.569 331.902 122.318C332.136 122.067 332.421 121.868 332.75 121.721C333.087 121.574 333.485 121.514 333.951 121.514C334.332 121.514 334.678 121.574 334.972 121.695C335.274 121.825 335.542 121.989 335.741 122.197C335.949 122.404 336.122 122.646 336.225 122.915C336.338 123.174 336.39 123.451 336.39 123.727C336.39 124.358 336.225 124.981 335.871 125.603C335.525 126.217 335.041 126.831 334.41 127.445L327.078 135.235V138.875H340.92V134.578H333.018L339.061 128.042L339.053 128.024Z" fill="white"/>
<path d="M361.879 124.013C361.585 122.707 361.118 121.557 360.461 120.58C359.804 119.603 358.965 118.825 357.91 118.254C356.855 117.684 355.584 117.398 354.071 117.398C352.558 117.398 351.252 117.692 350.198 118.263C349.143 118.842 348.296 119.629 347.638 120.623C346.99 121.626 346.514 122.776 346.22 124.099C345.935 125.413 345.788 126.823 345.788 128.318C345.788 129.814 345.944 131.232 346.238 132.546C346.54 133.852 347.024 134.985 347.682 135.953C348.347 136.921 349.195 137.682 350.241 138.227C351.287 138.772 352.558 139.057 354.045 139.057C355.532 139.057 356.812 138.772 357.867 138.192C358.922 137.622 359.786 136.852 360.435 135.875C361.101 134.898 361.576 133.748 361.879 132.425C362.181 131.111 362.328 129.702 362.328 128.197C362.328 126.693 362.181 125.327 361.887 124.013M357.659 130.826C357.59 131.621 357.417 132.322 357.158 132.901C356.907 133.48 356.527 133.947 356.034 134.267C355.55 134.604 354.884 134.768 354.054 134.768C353.224 134.768 352.567 134.596 352.074 134.267C351.59 133.938 351.209 133.48 350.959 132.901C350.708 132.322 350.535 131.63 350.457 130.826C350.379 130.03 350.345 129.148 350.345 128.206C350.345 127.264 350.388 126.425 350.457 125.629C350.543 124.834 350.708 124.134 350.976 123.546C351.227 122.958 351.607 122.491 352.1 122.154C352.593 121.816 353.258 121.652 354.088 121.652C354.918 121.652 355.558 121.816 356.06 122.154C356.544 122.491 356.924 122.949 357.175 123.546C357.435 124.134 357.599 124.825 357.668 125.629C357.746 126.425 357.78 127.281 357.78 128.206C357.78 129.131 357.737 130.03 357.668 130.826" fill="white"/>
<path d="M379.379 128.024C379.958 127.385 380.416 126.71 380.753 126.001C381.099 125.292 381.272 124.531 381.272 123.71C381.272 122.664 381.082 121.756 380.71 120.96C380.33 120.174 379.828 119.499 379.188 118.963C378.557 118.427 377.822 118.012 376.975 117.735C376.145 117.45 375.272 117.312 374.346 117.312C373.369 117.312 372.453 117.467 371.588 117.779C370.732 118.081 369.98 118.54 369.349 119.127C368.709 119.715 368.199 120.45 367.845 121.315C367.473 122.18 367.3 123.157 367.3 124.255H371.511C371.519 123.883 371.588 123.528 371.709 123.191C371.822 122.854 372.003 122.569 372.237 122.318C372.462 122.067 372.738 121.868 373.084 121.721C373.421 121.574 373.819 121.514 374.277 121.514C374.666 121.514 375.004 121.574 375.306 121.695C375.609 121.825 375.86 121.989 376.076 122.197C376.283 122.404 376.447 122.646 376.56 122.915C376.672 123.174 376.724 123.451 376.724 123.727C376.724 124.358 376.543 124.981 376.205 125.603C375.86 126.217 375.367 126.831 374.736 127.445L367.412 135.235V138.875H381.237V134.578H373.335L379.379 128.042V128.024Z" fill="white"/>
<path d="M398.72 128.024C399.299 127.385 399.766 126.71 400.095 126.001C400.441 125.292 400.614 124.531 400.614 123.71C400.614 122.664 400.424 121.756 400.052 120.96C399.671 120.174 399.17 119.499 398.521 118.963C397.89 118.427 397.155 118.012 396.308 117.735C395.478 117.45 394.605 117.312 393.679 117.312C392.702 117.312 391.786 117.467 390.921 117.779C390.057 118.081 389.313 118.54 388.682 119.127C388.042 119.715 387.532 120.45 387.178 121.315C386.806 122.18 386.633 123.157 386.633 124.255H390.844C390.852 123.883 390.921 123.528 391.042 123.191C391.155 122.854 391.336 122.569 391.561 122.318C391.795 122.067 392.08 121.868 392.426 121.721C392.763 121.574 393.161 121.514 393.619 121.514C394.008 121.514 394.345 121.574 394.648 121.695C394.95 121.825 395.201 121.989 395.417 122.197C395.625 122.404 395.789 122.646 395.902 122.915C396.005 123.174 396.066 123.451 396.066 123.727C396.066 124.358 395.884 124.981 395.547 125.603C395.201 126.217 394.708 126.831 394.077 127.445L386.754 135.235V138.875H400.579V134.578H392.677L398.72 128.042V128.024Z" fill="white"/>
<path d="M198.889 105.475V156.194C198.889 157.569 198.967 158.935 199.105 160.275C201.154 179.91 217.798 195.275 237.978 195.275H237.996C258.159 195.266 274.794 179.91 276.852 160.275C276.982 158.935 277.059 157.569 277.059 156.194V105.475H198.889ZM265.473 138.728H259.421V139.731H260.614C261.989 139.731 263.122 140.847 263.122 142.239C263.122 143.631 261.998 144.746 260.614 144.746C260.182 144.746 259.784 144.625 259.421 144.444V157.257C259.421 158.278 259.361 159.289 259.222 160.275C257.856 171.29 249.046 180.04 237.996 181.294C237.088 181.406 236.163 181.467 235.229 181.467C222.908 181.467 212.706 172.207 211.227 160.283C211.089 159.298 211.028 158.286 211.028 157.266C211.028 145.594 219.32 135.841 230.327 133.567V133.498C230.327 129.226 232.73 125.5 236.241 123.606C235.021 122.197 234.269 120.364 234.269 118.358V114.363H242.405C242.751 114.363 243.088 114.398 243.426 114.441C244.783 111.934 247.446 110.231 250.49 110.231H254.484V118.367C254.484 120.468 253.663 122.387 252.34 123.822C255.158 125.327 257.372 127.808 258.531 130.817C262.542 131.007 265.767 134.12 266.105 138.089C266.139 138.443 265.845 138.763 265.473 138.763V138.728Z" fill="white"/>
<path d="M246.114 130.229H241.567C239.777 130.229 238.324 131.69 238.324 133.48C238.324 138.244 242.206 142.126 246.979 142.126H251.441V135.547C251.441 132.607 249.054 130.221 246.114 130.221V130.229ZM245.587 138.858C243.694 138.858 242.163 137.328 242.163 135.434C242.163 133.541 243.694 132.01 245.587 132.01C247.481 132.01 249.011 133.541 249.011 135.434C249.011 137.328 247.481 138.858 245.587 138.858Z" fill="white"/>
<path d="M246.979 150.124C243.676 150.124 240.59 149.156 238.004 147.487C235.618 145.948 233.638 143.821 232.289 141.314C224.758 142.706 219.026 149.32 219.026 157.257C219.026 158.286 219.121 159.298 219.311 160.275C220.729 167.771 227.326 173.46 235.238 173.46C236.18 173.46 237.114 173.374 238.004 173.218C244.645 172.068 249.91 166.872 251.155 160.275C251.345 159.298 251.441 158.286 251.441 157.257V150.133H246.979V150.124ZM235.229 169.12C232.038 169.12 228.839 167.901 226.41 165.471C223.98 163.042 222.752 159.981 222.752 156.652C222.752 153.323 224.049 150.185 226.41 147.833L230.179 151.603C228.831 152.951 228.087 154.75 228.087 156.652C228.087 158.554 228.831 160.353 230.179 161.701C232.964 164.486 237.503 164.486 240.287 161.701L244.057 165.471C241.627 167.901 238.428 169.12 235.238 169.12H235.229Z" fill="white"/>
<path d="M131.198 416.134L88.8313 397.216V223.461H131.198V416.134Z" fill="white"/>
</g>
<defs>
<clipPath id="clip0_486_26161">
<rect width="476" height="719.815" fill="white"/>
</clipPath>
</defs>
</svg>
