<svg xmlns="http://www.w3.org/2000/svg" width="476" height="720" fill="none"><g fill="#fff" clip-path="url(#a)"><path d="M180.455 65.521a3.06 3.06 0 0 0-.856-.718 2.283 2.283 0 0 0-1.029-.25h-4.816v6.752h4.816c.372 0 .718-.095 1.038-.285.32-.19.614-.44.839-.76.242-.32.432-.675.57-1.099a3.98 3.98 0 0 0 .208-1.297c0-.458-.078-.908-.208-1.305a3.428 3.428 0 0 0-.57-1.055l.008.017ZM179.323 59.036a2.99 2.99 0 0 0 .83-.717c.242-.303.432-.64.57-1.02.139-.372.208-.77.208-1.176 0-.407-.078-.787-.208-1.176a3.736 3.736 0 0 0-.57-1.073 2.957 2.957 0 0 0-.83-.778 1.884 1.884 0 0 0-1.012-.294h-4.557v6.502h4.557a2.1 2.1 0 0 0 1.012-.26v-.008ZM206.541 68.392a7.423 7.423 0 0 0 2.369 1.945c.925.484 1.928.726 3.035.726 1.106 0 2.127-.242 3.052-.726a7.4 7.4 0 0 0 2.386-1.945c.666-.83 1.167-1.781 1.539-2.871.372-1.098.545-2.248.545-3.476 0-1.227-.19-2.412-.562-3.502a9.208 9.208 0 0 0-1.556-2.879 7.644 7.644 0 0 0-2.387-1.954 6.471 6.471 0 0 0-3.017-.717c-1.09 0-2.11.242-3.035.717a7.566 7.566 0 0 0-2.369 1.954 9.236 9.236 0 0 0-1.565 2.88 10.843 10.843 0 0 0-.562 3.501c0 1.237.19 2.378.562 3.476a9.656 9.656 0 0 0 1.565 2.87ZM411.957 70.268c.234-.32.424-.675.562-1.098.147-.407.208-.839.208-1.297 0-.459-.061-.908-.208-1.306a3.426 3.426 0 0 0-.57-1.055 2.838 2.838 0 0 0-.856-.717 2.283 2.283 0 0 0-1.021-.251h-4.833v6.753h4.833c.372 0 .718-.095 1.038-.286.329-.19.597-.44.839-.76l.008.017ZM410.825 59.036c.311-.181.588-.423.83-.717a3.77 3.77 0 0 0 .562-1.02 3.18 3.18 0 0 0 .207-1.176c0-.407-.06-.787-.207-1.176a3.952 3.952 0 0 0-.562-1.073 3.069 3.069 0 0 0-.83-.778 1.934 1.934 0 0 0-1.02-.294h-4.557v6.502h4.557c.354 0 .691-.086 1.02-.26v-.008Z"/><path d="M0 0v613.872l237.996 105.943 237.995-105.943V0H0Zm468.633 609.091L238.004 711.748 7.367 609.091V7.367h461.266V609.09Z"/><path d="M385.829 223.712h-42.375v353.57l42.375-17.656V223.712Z"/><path d="M22.1 22.1v577.42l215.896 96.102 215.896-96.102V22.1H22.1Zm373.828 49.205h2.965V52.794h-2.965v-5.309l14.153.035c1.306 0 2.516.233 3.606.7 1.081.467 2.032 1.098 2.818 1.894a8.691 8.691 0 0 1 1.851 2.8 8.93 8.93 0 0 1 .648 3.39c0 1.41-.242 2.568-.735 3.493-.484.917-1.193 1.652-2.092 2.222.96.614 1.712 1.366 2.274 2.266.545.907.83 1.997.83 3.285 0 1.289-.234 2.525-.683 3.623a8.843 8.843 0 0 1-1.85 2.853 8.384 8.384 0 0 1-2.793 1.85 9.027 9.027 0 0 1-3.459.666h-14.577v-5.248l.009-.009ZM357.002 47.52h11.647v5.274h-2.663v12.035c0 1.107.129 2.032.371 2.802.251.77.597 1.392 1.047 1.876.449.484.977.839 1.599 1.063a5.745 5.745 0 0 0 2.006.338c.735 0 1.435-.096 2.049-.286a3.668 3.668 0 0 0 1.591-.985c.441-.467.778-1.081 1.02-1.86.234-.777.346-1.755.346-2.939V52.803h-3.086v-5.275h11.646v5.275h-2.326v11.291c0 2.04-.285 3.865-.873 5.448-.588 1.59-1.401 2.94-2.421 4.029a10.3 10.3 0 0 1-3.623 2.507c-1.392.58-2.87.865-4.453.865-1.582 0-3.043-.286-4.409-.856a10.244 10.244 0 0 1-3.571-2.473c-1.02-1.072-1.824-2.386-2.412-3.925-.58-1.548-.874-3.295-.874-5.249V52.803h-2.628v-5.275l.017-.008Zm-32.423 23.785h3.009V52.794h-3.009V47.52h12.425v5.274h-3.061v18.511h6.312a.967.967 0 0 0 .492-.138c.156-.104.294-.225.424-.38a2.02 2.02 0 0 0 .294-.493c.069-.182.112-.355.112-.519v-3.89h6.2v10.669H324.57v-5.249h.009Zm-86.903 0h3V52.794h-3V47.52h12.416v5.274h-3.061v18.511h6.329a.917.917 0 0 0 .484-.138c.156-.104.303-.225.424-.38a1.58 1.58 0 0 0 .294-.493 1.18 1.18 0 0 0 .112-.519v-3.89h6.208v10.669h-23.206v-5.249Zm-39.271-13.28a16.727 16.727 0 0 1 1.4-3.597 14.37 14.37 0 0 1 2.179-3.043 13.653 13.653 0 0 1 6.182-3.865 13.309 13.309 0 0 1 3.779-.536c1.314 0 2.576.181 3.778.536a13.8 13.8 0 0 1 3.372 1.513 14.142 14.142 0 0 1 2.845 2.352 15.04 15.04 0 0 1 2.179 3.043c.613 1.115 1.072 2.326 1.409 3.597.329 1.28.493 2.62.493 4.02 0 1.401-.164 2.706-.493 3.986-.337 1.28-.796 2.482-1.409 3.597a14.803 14.803 0 0 1-2.179 3.043 13.88 13.88 0 0 1-2.845 2.344 13.348 13.348 0 0 1-3.372 1.513 13.302 13.302 0 0 1-3.778.536c-1.314 0-2.577-.182-3.779-.536a13.517 13.517 0 0 1-3.354-1.513 13.589 13.589 0 0 1-2.828-2.344 14.155 14.155 0 0 1-2.179-3.043 16.657 16.657 0 0 1-1.4-3.588 15.929 15.929 0 0 1-.493-3.995c0-1.383.164-2.74.493-4.02ZM127.428 47.52h26.406v8.827h-6.286v-3.752h-3.995v18.71h3.061v5.249h-12.425v-5.249h3.009v-18.71h-3.527v3.752h-6.243V47.52Zm-37.135 0h11.637v5.274h-2.663v12.035c0 1.107.13 2.032.38 2.802.243.77.589 1.392 1.047 1.876.441.484.977.839 1.591 1.063a5.778 5.778 0 0 0 2.006.338c.726 0 1.444-.096 2.066-.286a3.72 3.72 0 0 0 1.591-.985c.432-.467.778-1.081 1.012-1.86.233-.777.354-1.755.354-2.939V52.803h-3.086v-5.275h11.637v5.275h-2.317v11.291c0 2.04-.294 3.865-.882 5.448-.588 1.59-1.392 2.94-2.421 4.029a10.225 10.225 0 0 1-3.622 2.507c-1.375.58-2.871.865-4.453.865-1.583 0-3.044-.286-4.401-.856a10.351 10.351 0 0 1-3.58-2.473c-1.011-1.072-1.807-2.386-2.395-3.925-.588-1.548-.882-3.295-.882-5.249V52.803h-2.62V47.52ZM59.019 71.305h3v-17.95h-3v-5.827h22.454v9.9h-6.216v-4.072h-6.883v6.104h5.958v5.568h-5.958v6.286h3.061v5.248H59.02V71.305Zm115.176 423.232-84.949-37.965v145.455l-41.718-18.762V181.743h126.659v312.803l.008-.009Zm8.223-334.262H47.511c.112-1.349.173-2.706.173-4.081V97.478h134.717v62.797h.017Zm4.703-89.082a8.717 8.717 0 0 1-1.858 2.853 8.403 8.403 0 0 1-2.776 1.85 9.05 9.05 0 0 1-3.476.666h-14.569v-5.248h2.966V52.803h-2.966v-5.31l14.146.035c1.314 0 2.516.234 3.614.7a8.82 8.82 0 0 1 2.827 1.894 8.667 8.667 0 0 1 1.842 2.801 8.773 8.773 0 0 1 .665 3.39c0 1.41-.242 2.568-.734 3.493-.493.916-1.194 1.651-2.093 2.222a7.168 7.168 0 0 1 2.265 2.265c.562.908.831 1.998.831 3.286s-.225 2.525-.675 3.623l-.009-.009Zm72.023 587.536-21.131 9.001h-.009l-21.174-8.975V219.147c6.459 2.948 13.618 4.557 21.174 4.557h.009c7.531 0 14.681-1.609 21.131-4.557v439.582Zm25.93-502.535c0 1.375-.06 2.732-.181 4.081-2.058 24.088-22.264 42.989-46.88 42.998h-.017c-24.625 0-44.848-18.91-46.906-42.998a49.227 49.227 0 0 1-.181-4.081V97.478h94.165v58.716Zm5.084-83.531a15.376 15.376 0 0 1-2.17-3.052 16.607 16.607 0 0 1-1.401-3.597c-.337-1.28-.492-2.62-.492-4.012 0-2.084.354-4.03 1.08-5.853.735-1.825 1.73-3.407 2.992-4.764a14.248 14.248 0 0 1 4.453-3.225c1.703-.779 3.545-1.176 5.507-1.176 1.583 0 2.897.198 3.969.587 1.072.39 2.257 1.16 3.545 2.31h4.28v6.466h-5.914c-.718-1.02-1.358-1.746-1.937-2.17a5.64 5.64 0 0 0-1.85-.925 7.936 7.936 0 0 0-2.093-.277 6.442 6.442 0 0 0-2.991.718 7.702 7.702 0 0 0-2.378 1.954c-.674.822-1.202 1.781-1.582 2.87a10.383 10.383 0 0 0-.579 3.476c0 1.237.19 2.395.57 3.494.381 1.098.891 2.04 1.557 2.861a7.568 7.568 0 0 0 2.377 1.946 6.475 6.475 0 0 0 3.018.717 5.98 5.98 0 0 0 2.144-.38 6.854 6.854 0 0 0 1.807-.977 7.63 7.63 0 0 0 1.435-1.41c.415-.527.727-1.08.96-1.65l6.156 1.711a12.057 12.057 0 0 1-1.738 3.485 12.181 12.181 0 0 1-2.766 2.766 13.107 13.107 0 0 1-3.64 1.833c-1.349.45-2.802.675-4.358.675-1.314 0-2.568-.182-3.77-.536a13.377 13.377 0 0 1-3.355-1.513 13.961 13.961 0 0 1-2.844-2.36l.008.008Zm138.003 510.334-126.667 56.477V181.743h126.667v401.263-.009Zm.319-422.722H293.591c.112-1.349.173-2.706.173-4.081V97.478H428.48v62.797Z"/><path d="M93.465 124.886v-7.237H76.597v4.219h2.23v13.16h-2.23v3.83h16.868v-7.6H88.91v3.77H83.47v-4.92h4.211v-4.046h-4.21v-4.194h5.438v3.018h4.556ZM114.035 124.86v-4.228h-1.401c-.207-.458-.527-.917-.925-1.349a6.56 6.56 0 0 0-1.487-1.158 8.298 8.298 0 0 0-1.98-.805 9.3 9.3 0 0 0-2.412-.302c-1.107 0-2.119.147-3.035.423-.925.286-1.729.692-2.395 1.228a5.58 5.58 0 0 0-1.565 1.989c-.372.787-.562 1.695-.562 2.697 0 .874.13 1.643.389 2.318.25.674.596 1.271 1.029 1.764.432.501.934.925 1.496 1.262.57.337 1.158.596 1.755.778l3.207 1.046c.286.095.58.19.874.303.302.112.57.251.812.415.243.164.441.372.597.596.147.243.234.536.234.891 0 .683-.225 1.228-.666 1.608-.433.389-1.072.588-1.92.588a4.33 4.33 0 0 1-1.444-.225 2.805 2.805 0 0 1-1.02-.614 2.713 2.713 0 0 1-.614-.925 3.305 3.305 0 0 1-.199-1.158v-.865h-5.058v4.211h1.444c.251.596.597 1.15 1.055 1.634.441.475.968.882 1.556 1.228a7.323 7.323 0 0 0 1.989.786 8.912 8.912 0 0 0 2.291.277c1.159 0 2.214-.173 3.165-.51.951-.337 1.772-.795 2.438-1.409a6.5 6.5 0 0 0 1.591-2.179c.38-.856.571-1.79.571-2.81 0-.761-.095-1.444-.294-2.041a5.806 5.806 0 0 0-.796-1.608 5.13 5.13 0 0 0-1.21-1.193 6.051 6.051 0 0 0-1.505-.77l-3.839-1.296a26.928 26.928 0 0 0-1.011-.303 4.423 4.423 0 0 1-.951-.381 1.893 1.893 0 0 1-.692-.613c-.182-.242-.277-.58-.277-1.003 0-.338.078-.623.199-.865.138-.242.32-.441.545-.597.233-.147.493-.259.813-.337.302-.078.631-.121.985-.121.389 0 .77.061 1.124.19.355.113.683.286.969.493.285.208.518.45.691.744.182.285.294.596.346.925v1.228H114l.035.043ZM117.744 117.649v6.45h4.556v-2.741h2.586v13.67h-2.205v3.83h9.087v-3.83h-2.248v-13.67h2.931v2.741h4.583v-6.45h-19.29ZM142.611 135.538a2.672 2.672 0 0 0-.58-.873 2.775 2.775 0 0 0-.873-.588 2.513 2.513 0 0 0-1.046-.208c-.372 0-.735.061-1.072.208a2.806 2.806 0 0 0-.874.596 2.632 2.632 0 0 0-.57.865 2.659 2.659 0 0 0-.208 1.055c0 .38.069.735.208 1.063.129.338.328.623.57.865.251.242.536.432.865.579a2.659 2.659 0 0 0 2.136 0c.328-.147.613-.337.856-.579.242-.242.441-.527.579-.865.147-.337.225-.691.225-1.063s-.078-.718-.208-1.055M339.053 128.024a8.599 8.599 0 0 0 1.374-2.023 5.25 5.25 0 0 0 .511-2.291c0-1.046-.191-1.954-.562-2.75a5.721 5.721 0 0 0-1.513-1.997 6.674 6.674 0 0 0-2.214-1.228 8.074 8.074 0 0 0-2.637-.423c-.977 0-1.894.155-2.758.467-.856.302-1.6.761-2.24 1.348-.639.588-1.141 1.323-1.504 2.188-.354.865-.545 1.842-.545 2.94h4.22c0-.372.078-.727.19-1.064.13-.337.294-.622.527-.873.234-.251.519-.45.848-.597.337-.147.735-.207 1.201-.207.381 0 .727.06 1.021.181.302.13.57.294.769.502.208.207.381.449.484.718.113.259.165.536.165.812 0 .631-.165 1.254-.519 1.876-.346.614-.83 1.228-1.461 1.842l-7.332 7.79v3.64h13.842v-4.297h-7.902l6.043-6.536-.008-.018ZM361.879 124.013c-.294-1.306-.761-2.456-1.418-3.433a7.098 7.098 0 0 0-2.551-2.326c-1.055-.57-2.326-.856-3.839-.856s-2.819.294-3.873.865a7.145 7.145 0 0 0-2.56 2.36c-.648 1.003-1.124 2.153-1.418 3.476a19.898 19.898 0 0 0-.432 4.219c0 1.496.156 2.914.45 4.228.302 1.306.786 2.439 1.444 3.407a6.969 6.969 0 0 0 2.559 2.274c1.046.545 2.317.83 3.804.83 1.487 0 2.767-.285 3.822-.865 1.055-.57 1.919-1.34 2.568-2.317.666-.977 1.141-2.127 1.444-3.45.302-1.314.449-2.723.449-4.228 0-1.504-.147-2.87-.441-4.184m-4.228 6.813c-.069.795-.242 1.496-.501 2.075-.251.579-.631 1.046-1.124 1.366-.484.337-1.15.501-1.98.501-.83 0-1.487-.172-1.98-.501a3.116 3.116 0 0 1-1.115-1.366c-.251-.579-.424-1.271-.502-2.075a27.207 27.207 0 0 1-.112-2.62c0-.942.043-1.781.112-2.577.086-.795.251-1.495.519-2.083a3.148 3.148 0 0 1 1.124-1.392c.493-.338 1.158-.502 1.988-.502.83 0 1.47.164 1.972.502.484.337.864.795 1.115 1.392.26.588.424 1.279.493 2.083.078.796.112 1.652.112 2.577s-.043 1.824-.112 2.62M379.379 128.024a8.363 8.363 0 0 0 1.374-2.023c.346-.709.519-1.47.519-2.291 0-1.046-.19-1.954-.562-2.75-.38-.786-.882-1.461-1.522-1.997a6.505 6.505 0 0 0-2.213-1.228 8.022 8.022 0 0 0-2.629-.423c-.977 0-1.893.155-2.758.467a6.387 6.387 0 0 0-2.239 1.348 6.057 6.057 0 0 0-1.504 2.188c-.372.865-.545 1.842-.545 2.94h4.211c.008-.372.077-.727.198-1.064.113-.337.294-.622.528-.873a2.34 2.34 0 0 1 .847-.597c.337-.147.735-.207 1.193-.207.389 0 .727.06 1.029.181.303.13.554.294.77.502.207.207.371.449.484.718.112.259.164.536.164.812 0 .631-.181 1.254-.519 1.876-.345.614-.838 1.228-1.469 1.842l-7.324 7.79v3.64h13.825v-4.297h-7.902l6.044-6.536v-.018ZM398.72 128.024c.579-.639 1.046-1.314 1.375-2.023.346-.709.519-1.47.519-2.291 0-1.046-.19-1.954-.562-2.75-.381-.786-.882-1.461-1.531-1.997a6.505 6.505 0 0 0-2.213-1.228 8.022 8.022 0 0 0-2.629-.423c-.977 0-1.893.155-2.758.467a6.316 6.316 0 0 0-2.239 1.348 6.057 6.057 0 0 0-1.504 2.188c-.372.865-.545 1.842-.545 2.94h4.211c.008-.372.077-.727.198-1.064.113-.337.294-.622.519-.873.234-.251.519-.45.865-.597.337-.147.735-.207 1.193-.207.389 0 .726.06 1.029.181.302.13.553.294.769.502.208.207.372.449.485.718.103.259.164.536.164.812 0 .631-.182 1.254-.519 1.876-.346.614-.839 1.228-1.47 1.842l-7.323 7.79v3.64h13.825v-4.297h-7.902l6.043-6.536v-.018ZM198.889 105.475v50.719c0 1.375.078 2.741.216 4.081 2.049 19.635 18.693 35 38.873 35h.018c20.163-.009 36.798-15.365 38.856-35 .13-1.34.207-2.706.207-4.081v-50.719h-78.17Zm66.584 33.253h-6.052v1.003h1.193a2.51 2.51 0 0 1 2.508 2.508 2.503 2.503 0 0 1-2.508 2.507 2.66 2.66 0 0 1-1.193-.302v12.813c0 1.021-.06 2.032-.199 3.018-1.366 11.015-10.176 19.765-21.226 21.019-.908.112-1.833.173-2.767.173-12.321 0-22.523-9.26-24.002-21.184a21.791 21.791 0 0 1-.199-3.017c0-11.672 8.292-21.425 19.299-23.699v-.069c0-4.272 2.403-7.998 5.914-9.892a8 8 0 0 1-1.972-5.248v-3.995h8.136c.346 0 .683.035 1.021.078a8.035 8.035 0 0 1 7.064-4.21h3.994v8.136c0 2.101-.821 4.02-2.144 5.455a13.41 13.41 0 0 1 6.191 6.995 7.962 7.962 0 0 1 7.574 7.272.63.63 0 0 1-.632.674v-.035Z"/><path d="M246.114 130.229h-4.547a3.251 3.251 0 0 0-3.243 3.251c0 4.764 3.882 8.646 8.655 8.646h4.462v-6.579a5.329 5.329 0 0 0-5.327-5.326v.008Zm-.527 8.629a3.42 3.42 0 0 1-3.424-3.424 3.421 3.421 0 0 1 3.424-3.424 3.42 3.42 0 0 1 3.424 3.424 3.42 3.42 0 0 1-3.424 3.424ZM246.979 150.124c-3.303 0-6.389-.968-8.975-2.637a16.895 16.895 0 0 1-5.715-6.173c-7.531 1.392-13.263 8.006-13.263 15.943 0 1.029.095 2.041.285 3.018 1.418 7.496 8.015 13.185 15.927 13.185.942 0 1.876-.086 2.766-.242 6.641-1.15 11.906-6.346 13.151-12.943.19-.977.286-1.989.286-3.018v-7.124h-4.462v-.009Zm-11.75 18.996c-3.191 0-6.39-1.219-8.819-3.649-2.43-2.429-3.658-5.49-3.658-8.819a12.37 12.37 0 0 1 3.658-8.819l3.769 3.77a7.105 7.105 0 0 0-2.092 5.049c0 1.902.744 3.701 2.092 5.049 2.785 2.785 7.324 2.785 10.108 0l3.77 3.77a12.445 12.445 0 0 1-8.819 3.649h-.009ZM131.198 416.134l-42.367-18.918V223.461h42.367v192.673Z"/></g><defs><clipPath id="a"><path fill="#fff" d="M0 0h476v719.815H0z"/></clipPath></defs></svg>
