<svg width="700" height="700" viewBox="0 0 700 700" fill="none" xmlns="http://www.w3.org/2000/svg">
<g clip-path="url(#clip0_486_26221)">
<path d="M350.008 0C156.706 0 0 156.706 0 350.008C0 543.309 156.706 700.015 350.008 700.015C543.309 700.015 700.015 543.309 700.015 350.008C700.015 156.706 543.309 0 350.008 0ZM350.008 685.685C164.612 685.685 14.3298 535.388 14.3298 350.008C14.3298 164.627 164.612 14.3147 350.008 14.3147C535.404 14.3147 685.685 164.612 685.685 349.992C685.685 535.373 535.388 685.67 350.008 685.67V685.685Z" fill="white"/>
<path d="M41.2058 351.02L84.7243 347.77L86.508 371.593C87.0371 378.637 83.7569 382.416 76.6978 382.945L70.5003 383.414C63.4412 383.943 59.6471 380.678 59.1181 373.634L57.803 356.024L41.6593 357.233L41.1907 351.005L41.2058 351.02ZM64.0458 355.57L65.3307 372.848C65.4516 374.51 65.9051 375.674 66.6911 376.354C67.4771 377.035 68.7015 377.307 70.3492 377.186L75.9269 376.763C77.5896 376.642 78.7536 376.188 79.4338 375.402C80.114 374.616 80.3861 373.392 80.2651 371.744L78.9803 354.467L64.0458 355.585V355.57Z" fill="white"/>
<path d="M69.0944 387.026C65.3759 387.026 62.3528 386.029 60.0552 384.064C57.425 381.811 55.9285 378.395 55.596 373.906L54.553 359.848L38.4093 361.057L37.4116 347.755L88.0195 343.976L90.0601 371.336C90.7252 380.3 85.9637 385.817 76.9849 386.497L70.7874 386.966C70.213 387.011 69.6537 387.026 69.1096 387.026H69.0944ZM69.0491 373.619C69.2305 373.649 69.563 373.679 70.0921 373.634L75.6698 373.21C76.1989 373.165 76.5314 373.089 76.6977 373.029C76.728 372.848 76.7582 372.53 76.7128 371.986L75.685 358.261L67.8247 358.85L68.8526 372.576C68.8979 373.105 68.9735 373.437 69.034 373.603L69.0491 373.619Z" fill="white"/>
<path d="M77.9676 476.86C77.1815 477.192 76.3804 477.343 75.549 477.343C74.7176 477.343 73.9316 477.177 73.1909 476.875C72.4503 476.573 71.7852 476.119 71.1956 475.545C70.6061 474.97 70.1375 474.29 69.8201 473.504L60.2518 450.483C59.9192 449.697 59.7681 448.895 59.7681 448.064C59.7681 447.233 59.9343 446.447 60.2367 445.706C60.539 444.965 60.9924 444.3 61.5669 443.711C62.1413 443.121 62.8215 442.653 63.6075 442.335L92.3881 430.378C93.1741 430.046 93.9904 429.895 94.8066 429.895C95.638 429.895 96.4089 430.061 97.1496 430.378C97.8751 430.696 98.5553 431.134 99.1449 431.709C99.7495 432.283 100.203 432.963 100.536 433.749L110.104 456.771C110.436 457.557 110.588 458.373 110.572 459.204C110.557 460.036 110.391 460.822 110.104 461.563C109.802 462.303 109.363 462.968 108.789 463.558C108.214 464.147 107.534 464.616 106.748 464.933L77.9676 476.89V476.86ZM94.7915 436.122L66.0109 448.079L75.5792 471.101L104.36 459.144L94.7915 436.122Z" fill="white"/>
<path d="M75.6094 480.896H75.5187C74.2338 480.896 72.9943 480.639 71.8455 480.155C70.6816 479.671 69.6386 478.976 68.7165 478.084C67.7793 477.177 67.0538 476.089 66.5398 474.864L56.9715 451.843C56.4576 450.619 56.2006 449.334 56.2157 448.034C56.2157 446.749 56.4727 445.525 56.9564 444.361C57.4401 443.197 58.1354 442.139 59.0273 441.232C59.9342 440.294 61.0226 439.569 62.2469 439.055L91.0275 427.098C92.2519 426.584 93.5368 426.343 94.8518 426.343C96.1367 426.343 97.3762 426.615 98.5401 427.098C99.6738 427.582 100.702 428.262 101.609 429.124C102.561 430.031 103.317 431.134 103.831 432.374L113.399 455.395C113.913 456.635 114.155 457.935 114.14 459.265C114.109 460.519 113.868 461.729 113.414 462.878C112.946 464.057 112.25 465.115 111.343 466.037C110.436 466.974 109.348 467.7 108.124 468.213L79.343 480.17C78.1488 480.669 76.8942 480.926 75.6245 480.926L75.6094 480.896ZM70.6514 449.999L77.4988 466.46L99.7191 457.224L92.8717 440.763L70.6514 449.999Z" fill="white"/>
<path d="M149.677 540.709C145.082 544.7 140.759 545.017 136.708 541.646L128.757 559.423L124.222 554.208L132.082 536.658L123.119 526.334L109.953 537.762L105.856 533.045L138.824 504.446L154.484 522.494C159.109 527.83 158.747 532.819 153.411 537.459L149.662 540.709H149.677ZM127.85 522.253L139.202 535.328C140.29 536.582 141.348 537.248 142.376 537.323C143.404 537.399 144.553 536.885 145.807 535.796L149.103 532.94C150.357 531.851 151.022 530.793 151.098 529.765C151.174 528.737 150.66 527.589 149.571 526.334L138.219 513.259L127.85 522.253Z" fill="white"/>
<path d="M129.739 565.953L120.08 554.812L127.94 537.263L122.801 531.337L109.635 542.765L100.898 532.683L139.232 499.428L157.22 520.152C163.115 526.939 162.586 534.224 155.784 540.12L152.035 543.37C146.563 548.116 141.817 548.04 138.37 546.695L129.769 565.937L129.739 565.953ZM132.883 522.6L141.907 533C142.255 533.408 142.512 533.62 142.663 533.726C142.83 533.65 143.102 533.469 143.51 533.121L146.805 530.264C147.213 529.916 147.425 529.659 147.531 529.508C147.455 529.342 147.274 529.07 146.926 528.662L137.902 518.262L132.898 522.6H132.883Z" fill="white"/>
<path d="M195.644 567.238C196.083 566.512 196.642 565.892 197.307 565.409C197.972 564.925 198.698 564.592 199.469 564.396C200.24 564.214 201.041 564.169 201.872 564.275C202.704 564.381 203.474 564.653 204.2 565.091L224.501 577.29C225.226 577.728 225.831 578.287 226.315 578.967C226.798 579.648 227.131 580.373 227.327 581.144C227.524 581.915 227.569 582.716 227.463 583.532C227.342 584.349 227.07 585.12 226.632 585.86L223.73 590.682L218.379 587.463L221.281 582.641L200.98 570.442L184.927 597.152L205.228 609.35L208.115 604.543L213.466 607.763L210.579 612.57C210.141 613.296 209.581 613.915 208.916 614.399C208.251 614.883 207.526 615.23 206.739 615.412C205.953 615.608 205.152 615.654 204.336 615.533C203.52 615.412 202.734 615.14 202.008 614.701L181.708 602.503C180.982 602.064 180.362 601.505 179.879 600.84C179.395 600.175 179.047 599.449 178.866 598.663C178.669 597.877 178.624 597.091 178.745 596.26C178.851 595.444 179.138 594.673 179.576 593.932L195.629 567.222L195.644 567.238Z" fill="white"/>
<path d="M205.243 619.16C204.789 619.16 204.321 619.13 203.852 619.07C202.552 618.888 201.328 618.45 200.194 617.77L179.894 605.571C178.745 604.891 177.777 603.999 177.022 602.941C176.266 601.913 175.737 600.764 175.434 599.54C175.132 598.331 175.072 597.061 175.238 595.791C175.419 594.506 175.858 593.267 176.538 592.118L192.591 565.408C193.271 564.275 194.163 563.307 195.221 562.536C196.264 561.781 197.413 561.252 198.637 560.949C199.816 560.662 201.056 560.602 202.31 560.753C203.626 560.919 204.88 561.357 206.029 562.053L226.33 574.251C227.478 574.947 228.446 575.838 229.217 576.927C229.942 577.955 230.471 579.073 230.774 580.252C231.091 581.477 231.167 582.746 230.985 584.016C230.804 585.316 230.365 586.54 229.685 587.689L224.954 595.549L213.526 588.672L216.429 583.85L202.22 575.309L189.825 595.942L204.034 604.483L206.921 599.676L218.348 606.554L213.632 614.399C212.952 615.533 212.06 616.5 211.002 617.271C209.959 618.027 208.825 618.556 207.601 618.858C206.83 619.055 206.044 619.145 205.243 619.145V619.16Z" fill="white"/>
<path d="M281.744 599.676L270.03 641.728L264.013 640.05L275.728 597.998L281.744 599.676Z" fill="white"/>
<path d="M273.271 593.582L259.65 642.464L272.508 646.047L286.128 597.165L273.271 593.582Z" fill="white"/>
<path d="M337.9 652.4L331.657 652.506L330.947 608.866L337.189 608.761L363.975 642.182L363.43 608.337L369.673 608.232L370.384 651.871L364.141 651.977L337.356 618.556L337.9 652.4Z" fill="white"/>
<path d="M328.165 656.103L327.349 605.36L338.867 605.178L360.256 631.858L359.818 604.831L373.15 604.619L373.981 655.363L362.448 655.544L341.059 628.865L341.497 655.892L328.165 656.103Z" fill="white"/>
<path d="M466.143 623.453C466.415 624.254 466.536 625.071 466.475 625.902C466.415 626.733 466.203 627.504 465.856 628.23C465.508 628.955 465.024 629.59 464.405 630.15C463.785 630.709 463.074 631.117 462.273 631.404L438.708 639.521C437.906 639.794 437.09 639.914 436.259 639.854C435.427 639.794 434.657 639.597 433.931 639.234C433.205 638.887 432.571 638.403 432.011 637.783C431.452 637.163 431.044 636.453 430.757 635.652L420.614 606.176C420.342 605.375 420.221 604.558 420.281 603.727C420.342 602.896 420.553 602.14 420.901 601.414C421.249 600.704 421.732 600.069 422.352 599.495C422.957 598.935 423.667 598.512 424.484 598.225L448.049 590.108C448.85 589.836 449.667 589.73 450.498 589.79C451.329 589.866 452.1 590.062 452.826 590.41C453.551 590.758 454.186 591.226 454.73 591.846C455.29 592.466 455.698 593.176 455.985 593.977L466.128 623.453H466.143ZM426.524 604.135L436.667 633.611L460.233 625.494L450.09 596.018L426.524 604.135Z" fill="white"/>
<path d="M436.697 643.406C436.47 643.406 436.244 643.406 436.002 643.376C434.717 643.285 433.508 642.953 432.374 642.409C431.255 641.864 430.243 641.093 429.381 640.141C428.504 639.174 427.839 638.04 427.416 636.785L417.273 607.31C416.835 606.055 416.669 604.755 416.759 603.455C416.85 602.17 417.183 600.946 417.742 599.812C418.286 598.724 419.027 597.726 419.964 596.88C420.931 595.988 422.065 595.308 423.335 594.869L446.9 586.752C448.17 586.314 449.485 586.147 450.8 586.253C452.055 586.359 453.249 586.676 454.352 587.205C455.486 587.75 456.499 588.505 457.376 589.458C458.252 590.425 458.917 591.559 459.341 592.813L469.483 622.289C469.922 623.544 470.088 624.844 469.997 626.144C469.907 627.429 469.574 628.638 469.03 629.772C468.471 630.905 467.715 631.918 466.763 632.765C465.795 633.641 464.661 634.306 463.407 634.73L439.841 642.847C438.798 643.21 437.74 643.376 436.667 643.376L436.697 643.406ZM431.044 606.342L438.874 629.091L455.728 623.287L447.898 600.538L431.044 606.342Z" fill="white"/>
<path d="M517.567 580.403C516.886 580.917 516.146 581.28 515.345 581.477C514.543 581.673 513.742 581.718 512.941 581.628C512.155 581.537 511.399 581.28 510.674 580.872C509.948 580.464 509.328 579.92 508.815 579.239L501.226 569.323C500.712 568.643 500.35 567.903 500.138 567.101C499.926 566.3 499.881 565.499 500.002 564.713C500.108 563.927 500.365 563.171 500.773 562.431C501.181 561.705 501.71 561.085 502.39 560.556L519.214 547.678C519.894 547.164 520.635 546.801 521.436 546.604C522.237 546.408 523.039 546.362 523.84 546.453C524.626 546.559 525.381 546.801 526.107 547.209C526.833 547.617 527.452 548.161 527.966 548.841L529.553 550.927L524.595 554.722L523.008 552.636L506.184 565.514L513.773 575.43L530.596 562.552C531.277 562.038 532.017 561.675 532.819 561.463C533.62 561.252 534.421 561.206 535.222 561.312C536.023 561.418 536.779 561.675 537.489 562.083C538.215 562.491 538.835 563.035 539.349 563.715L546.922 573.601C547.436 574.281 547.798 575.022 548.01 575.823C548.222 576.624 548.267 577.426 548.161 578.227C548.055 579.028 547.798 579.784 547.39 580.494C546.982 581.22 546.438 581.839 545.758 582.353L528.45 595.595C527.77 596.109 527.029 596.471 526.228 596.683C525.427 596.895 524.626 596.94 523.825 596.834C523.023 596.728 522.268 596.471 521.542 596.063C520.817 595.655 520.197 595.111 519.683 594.431L517.824 592.027L522.782 588.233L524.641 590.637L541.948 577.395L534.375 567.51L517.552 580.388L517.567 580.403Z" fill="white"/>
<path d="M524.656 600.462C524.233 600.462 523.794 600.432 523.371 600.371C522.132 600.205 520.938 599.797 519.819 599.177C518.685 598.542 517.703 597.681 516.886 596.623L512.866 591.408L523.462 583.306L525.321 585.709L537.006 576.776L533.756 572.528L519.758 583.245C518.685 584.061 517.506 584.636 516.221 584.953C514.997 585.256 513.757 585.331 512.548 585.18C511.294 585.029 510.099 584.621 508.966 583.986C507.832 583.351 506.85 582.489 506.033 581.431L498.445 571.515C497.644 570.457 497.07 569.278 496.737 568.023C496.42 566.769 496.344 565.514 496.525 564.26C496.692 563.05 497.085 561.871 497.704 560.768C498.339 559.604 499.201 558.606 500.274 557.79L517.098 544.911C518.171 544.095 519.365 543.521 520.65 543.203C521.875 542.901 523.114 542.825 524.323 542.976C525.578 543.128 526.772 543.536 527.906 544.171C529.04 544.805 530.022 545.667 530.838 546.725L534.572 551.638L523.976 559.74L522.389 557.654L511.218 566.21L514.483 570.487L528.48 559.77C529.538 558.969 530.717 558.395 531.972 558.062C533.212 557.745 534.466 557.669 535.706 557.835C536.96 558.002 538.139 558.41 539.258 559.029C540.392 559.679 541.389 560.541 542.19 561.584L549.763 571.47C550.565 572.528 551.139 573.692 551.472 574.962C551.789 576.201 551.865 577.456 551.698 578.71C551.532 579.95 551.124 581.159 550.504 582.263C549.869 583.396 549.008 584.379 547.95 585.195L530.642 598.437C529.584 599.238 528.405 599.812 527.15 600.145C526.334 600.356 525.518 600.462 524.686 600.462H524.656Z" fill="white"/>
<path d="M572.135 518.217L577.652 510.976L584.893 516.494L579.375 523.734L572.135 518.217Z" fill="white"/>
<path d="M580.055 528.707L567.162 518.897L576.972 506.003L589.866 515.813L580.055 528.707ZM577.108 517.552L578.695 518.761L579.904 517.174L578.317 515.965L577.108 517.552Z" fill="white"/>
<path d="M589.548 457.768L601.626 428.338L607.4 430.711L597.696 454.367L609.244 459.114L617.528 438.919L623.302 441.292L615.019 461.487L632.311 468.591L629.938 474.366L589.563 457.784L589.548 457.768Z" fill="white"/>
<path d="M631.858 478.991L584.923 459.703L599.706 423.712L612.041 428.791L602.321 452.433L607.309 454.473L615.593 434.293L627.927 439.357L619.644 459.552L636.937 466.641L631.858 478.991Z" fill="white"/>
<path d="M618.843 382.96C617.996 382.9 617.195 382.673 616.469 382.28C615.744 381.902 615.109 381.403 614.61 380.783C614.111 380.164 613.703 379.468 613.431 378.682C613.159 377.896 613.053 377.08 613.129 376.234L615.003 352.623C615.064 351.776 615.305 350.975 615.698 350.249C616.091 349.524 616.59 348.889 617.195 348.375C617.8 347.846 618.495 347.453 619.266 347.196C620.037 346.939 620.868 346.833 621.715 346.909L627.323 347.362L626.824 353.575L621.216 353.121L619.341 376.732L650.404 379.211L652.279 355.6L646.701 355.162L647.2 348.934L652.778 349.373C653.624 349.433 654.425 349.66 655.151 350.053C655.876 350.431 656.511 350.93 657.025 351.549C657.539 352.154 657.932 352.864 658.204 353.65C658.461 354.436 658.567 355.253 658.491 356.099L656.617 379.71C656.557 380.557 656.33 381.358 655.937 382.083C655.559 382.809 655.06 383.444 654.44 383.958C653.836 384.487 653.125 384.865 652.339 385.137C651.553 385.394 650.737 385.5 649.89 385.424L618.827 382.945L618.843 382.96Z" fill="white"/>
<path d="M650.42 389.006C650.163 389.006 649.891 389.006 649.619 388.976L618.54 386.497C617.21 386.391 615.956 386.029 614.807 385.424C613.673 384.819 612.675 384.033 611.874 383.066C611.088 382.129 610.484 381.04 610.06 379.861C609.622 378.607 609.456 377.307 609.562 375.961L611.436 352.35C611.542 351.005 611.92 349.735 612.539 348.572C613.129 347.468 613.9 346.501 614.837 345.699C615.789 344.868 616.893 344.248 618.117 343.84C619.357 343.432 620.657 343.266 621.972 343.372L631.117 344.097L630.059 357.399L624.451 356.946L623.136 373.467L647.124 375.372L648.44 358.85L642.862 358.412L643.92 345.11L653.035 345.836C654.365 345.941 655.62 346.304 656.768 346.909C657.902 347.498 658.885 348.284 659.701 349.237C660.517 350.189 661.137 351.292 661.545 352.502C661.953 353.741 662.119 355.041 662.014 356.356L660.139 379.967C660.033 381.297 659.671 382.552 659.066 383.701C658.477 384.834 657.69 385.817 656.738 386.633C655.786 387.449 654.682 388.069 653.473 388.477C652.491 388.81 651.463 388.976 650.405 388.976L650.42 389.006Z" fill="white"/>
<path d="M414.084 332.186C405.271 336.6 397.925 339.049 391.803 340.167C392.06 341.376 392.362 342.51 392.665 343.387C396.957 355.691 412.723 362.856 428.565 359.682C443.046 356.779 450.709 347.967 451.979 332.73C452.493 326.608 449.908 319.519 447.807 314.893C441.383 318.113 431.543 323.449 414.084 332.186Z" fill="white"/>
<path d="M625.555 236.578C623.438 236.019 622.002 234.069 622.078 231.892L623.212 201.736C616.545 206.74 606.085 213.738 592.587 219.951C581.25 225.181 567.464 226.829 552.878 228.582C535.494 230.668 517.506 232.83 500.017 240.932C494.923 243.29 491.19 247.567 488.529 253.055V269.153C488.529 271.042 487.426 272.766 485.718 273.567C483.798 274.459 437.574 295.485 349.584 295.485C261.595 295.485 221.432 274.338 219.769 273.446C218.197 272.599 217.23 270.952 217.23 269.168V259.645C214.6 251.135 210.201 244.378 203.263 241.158C185.774 233.071 167.801 230.91 150.403 228.809C135.816 227.055 122.045 225.393 110.693 220.178C96.7567 213.753 84.9512 206.921 77.4991 202.295L81.1722 231.711C81.4594 234.024 79.9932 236.2 77.7258 236.79L68.8679 239.118C77.1363 246.766 90.9371 261.852 102.047 285.538C116.634 316.647 142.059 335.92 173.999 340.303C177.082 329.904 181.028 319.368 185.819 308.741C182.781 304.539 176.432 302.257 171.051 301.078C167.59 300.322 163.916 299.899 160.198 299.732C156.464 299.566 152.67 299.672 148.846 300.035C152.186 298.13 155.693 296.422 159.351 294.941C166.365 292.235 173.848 290.134 181.315 290.073C178.579 277.3 168.602 268.155 156.404 261.217C151.053 258.118 145.369 255.397 139.61 252.843C159.079 256.032 180.272 260.915 192.667 278.147C197.05 284.223 199.877 291.479 201.313 298.735H201.283L201.449 298.886C200.633 300.397 199.832 301.909 199.061 303.466C192.742 316.224 187.694 328.8 183.884 341.18C183.612 342.042 183.355 342.918 183.098 343.78C183.083 343.855 183.053 343.916 183.038 343.992C182.297 346.546 181.602 349.086 180.967 351.625C180.937 351.776 180.891 351.927 180.861 352.063C180.257 354.512 179.697 356.961 179.183 359.395C179.138 359.591 179.093 359.803 179.062 359.999C178.896 360.785 178.745 361.571 178.594 362.342C178.594 362.387 178.579 362.433 178.564 362.478C178.276 364.005 178.004 365.532 177.747 367.058C177.702 367.315 177.657 367.572 177.611 367.829C177.49 368.54 177.385 369.25 177.279 369.961C177.233 370.263 177.188 370.565 177.143 370.883C176.961 372.107 176.795 373.331 176.644 374.556C176.599 374.888 176.553 375.236 176.523 375.569C176.447 376.203 176.372 376.838 176.311 377.473C176.266 377.896 176.221 378.335 176.175 378.758C176.115 379.363 176.054 379.967 175.994 380.572C175.918 381.449 175.843 382.34 175.782 383.217C175.737 383.761 175.707 384.305 175.677 384.85C175.646 385.379 175.616 385.908 175.586 386.437C175.556 386.966 175.525 387.48 175.51 387.994C175.48 388.825 175.435 389.641 175.42 390.473C175.404 390.987 175.389 391.501 175.389 392.03C175.389 392.68 175.359 393.33 175.359 393.98C175.359 394.433 175.359 394.871 175.359 395.325C175.359 396.081 175.359 396.837 175.374 397.592C175.374 397.985 175.374 398.378 175.389 398.771C175.404 399.648 175.435 400.54 175.465 401.417C175.465 401.794 175.495 402.172 175.51 402.55C175.54 403.321 175.586 404.077 175.631 404.848C175.646 405.15 175.661 405.437 175.677 405.74C175.737 406.753 175.813 407.765 175.903 408.763C175.933 409.065 175.964 409.368 175.979 409.67C176.054 410.471 176.13 411.272 176.221 412.058C176.251 412.345 176.281 412.648 176.311 412.935C176.432 413.963 176.553 414.991 176.689 416.019C176.72 416.215 176.75 416.412 176.765 416.593C176.886 417.47 177.007 418.331 177.143 419.208C177.188 419.495 177.233 419.782 177.279 420.07C177.445 421.113 177.626 422.14 177.808 423.183C183.189 452.599 196.506 473.806 207.178 483.858C218.938 494.923 231.681 503.645 246.751 510.674C246.902 486.534 261.066 457.542 285.871 434.898C311.432 411.559 347.483 412.285 350.945 412.406C354.421 412.285 390.443 411.559 416.019 434.898C440.99 457.693 455.184 486.942 455.138 511.173C470.693 504.053 483.783 495.18 495.815 483.858C506.487 473.806 519.804 452.599 525.185 423.183C525.382 422.156 525.548 421.113 525.714 420.07C525.76 419.782 525.805 419.495 525.85 419.208C525.986 418.346 526.107 417.485 526.228 416.623C526.258 416.412 526.289 416.215 526.319 416.019C526.455 414.991 526.576 413.978 526.697 412.95C526.727 412.663 526.757 412.36 526.788 412.073C526.878 411.287 526.954 410.486 527.029 409.7C527.06 409.383 527.09 409.08 527.12 408.763C527.211 407.765 527.286 406.753 527.347 405.74C527.362 405.453 527.377 405.15 527.392 404.863C527.438 404.107 527.483 403.336 527.513 402.581C527.528 402.188 527.543 401.81 527.558 401.417C527.589 400.6 527.619 399.769 527.634 398.938C527.634 398.499 527.649 398.061 527.664 397.623C527.664 396.867 527.679 396.111 527.679 395.34C527.679 394.871 527.679 394.418 527.679 393.949C527.679 393.33 527.664 392.71 527.649 392.105C527.649 391.622 527.634 391.138 527.619 390.669C527.589 389.777 527.558 388.901 527.513 388.009C527.483 387.465 527.453 386.936 527.422 386.391C527.392 385.893 527.362 385.394 527.332 384.895C527.301 384.321 527.256 383.761 527.211 383.187C527.181 382.688 527.135 382.189 527.09 381.69C526.999 380.693 526.908 379.68 526.818 378.682C526.772 378.289 526.742 377.911 526.697 377.518C526.621 376.853 526.546 376.188 526.47 375.538C526.44 375.251 526.395 374.949 526.364 374.662C526.198 373.346 526.017 372.016 525.82 370.686C525.79 370.459 525.76 370.233 525.714 370.006C525.608 369.265 525.488 368.525 525.367 367.784C525.336 367.557 525.291 367.33 525.261 367.119C524.868 364.73 524.414 362.327 523.916 359.908C523.885 359.742 523.855 359.591 523.81 359.425C523.281 356.916 522.706 354.391 522.071 351.867C522.056 351.791 522.041 351.716 522.011 351.64C521.119 348.133 520.137 344.596 519.048 341.059C515.254 328.755 510.221 316.239 503.947 303.557C502.542 300.715 501.03 297.933 499.458 295.213C505.701 263.212 532.562 253.614 561.161 249.321C550.066 254.279 538.502 259.978 529.871 268.337C524.399 273.536 520.907 279.749 519.471 286.566C530.823 286.612 542.417 291.237 551.925 296.513C544.503 295.817 536.87 296.029 529.705 297.556C524.55 298.689 518.474 300.851 515.315 304.736C520.938 316.707 525.488 328.543 528.964 340.213C561.025 335.905 586.556 316.602 601.188 285.402C612.298 261.716 626.099 246.63 634.367 238.982L625.509 236.654L625.555 236.578ZM372.636 379.499C358.881 373.543 344.249 372.364 331.37 381.071C338.504 364.942 363.567 365.411 372.636 379.499ZM280.278 399.739C284.889 395.431 289.363 391.002 293.399 386.316C296.724 382.522 299.672 378.561 302.03 374.42C294.2 378.259 285.161 379.453 276.681 380.708C284.647 376.808 293.913 372.53 299.642 365.834C290.708 369.961 278.948 370.852 267.007 366.605C245.769 359.047 240.826 341.407 242.882 326.986C244.03 318.96 245.859 314.667 246.963 312.596C244.106 311.689 241.778 311.492 238.377 311.538C227.599 311.674 219.875 313.321 219.875 313.321L249.245 291.66C249.245 291.66 274.323 302.861 292.023 315.967C309.724 329.087 314.198 332.609 322.482 333.184C330.78 333.758 339.684 331.642 339.684 331.642C339.684 331.642 336.282 340.197 324.039 341.996C324.25 347.513 323.676 353.137 322.104 358.412C316.042 378.758 297.616 390.306 280.278 399.708V399.739ZM351.247 396.428C338.247 396.534 326.412 400.661 315.544 408.43C325.097 388.115 353.182 382.733 372.228 392.317C378.698 395.431 384.442 399.92 388.477 405.649C376.385 400.071 364.292 396.262 351.262 396.428H351.247ZM464.813 310.147C461.396 310.102 459.069 310.298 456.227 311.205C457.33 313.276 459.159 317.569 460.308 325.595C462.364 340.016 457.421 357.656 436.183 365.214C424.242 369.462 412.481 368.585 403.548 364.443C409.277 371.14 418.543 375.417 426.509 379.317C418.029 378.048 408.99 376.868 401.16 373.029C403.518 377.156 406.465 381.131 409.791 384.925C413.827 389.611 418.301 394.04 422.911 398.348C405.558 388.946 387.147 377.398 381.086 357.052C379.499 351.776 378.924 346.153 379.151 340.636C366.907 338.837 363.506 330.281 363.506 330.281C363.506 330.281 372.409 332.398 380.708 331.823C389.007 331.249 393.466 327.727 411.166 314.606C428.867 301.486 453.944 290.3 453.944 290.3L483.314 311.961C483.314 311.961 475.59 310.298 464.828 310.177L464.813 310.147Z" fill="white"/>
<path d="M289.091 333.577C271.632 324.84 261.791 319.519 255.367 316.284C253.266 320.91 250.666 327.999 251.18 334.121C252.465 349.358 260.129 358.185 274.595 361.072C290.436 364.247 306.202 357.082 310.495 344.777C310.797 343.916 311.099 342.767 311.356 341.558C305.249 340.424 297.903 337.975 289.076 333.577H289.091Z" fill="white"/>
<path d="M222.067 99.417C290.602 64.454 372.863 57.3193 448.125 86.0092C460.036 90.3928 471.539 95.5927 482.604 101.533L494.379 89.8033C406.994 40.2838 298.085 39.4675 209.99 87.3848L222.067 99.417Z" fill="white"/>
<path d="M333.078 160.576L352.94 208.765L373.649 160.591L352.94 134.637L333.078 160.576Z" fill="white"/>
<path d="M437.271 160.425C444.935 166.955 449.515 176.931 449.515 187.724C449.515 206.921 435.049 222.536 417.258 222.536C399.467 222.536 385.001 206.921 385.001 187.724C385.001 176.478 389.898 166.199 398.076 159.714L353.378 103.634L308.681 159.714C316.858 166.199 321.756 176.478 321.756 187.724C321.756 206.921 307.29 222.536 289.499 222.536C271.707 222.536 257.241 206.921 257.241 187.724C257.241 176.916 261.806 166.955 269.485 160.425L201.721 92.9171L227.085 234.598C241.461 238.83 297.435 254.264 350.552 254.264C403.669 254.264 466.641 237.908 479.732 234.235L505.036 92.9171L437.271 160.425ZM381.721 161.513L356.447 220.329C355.827 221.765 354.421 222.687 352.864 222.687H352.834C351.262 222.687 349.856 221.719 349.267 220.283L325.021 161.467C324.492 160.183 324.688 158.716 325.535 157.613L349.781 125.945C350.506 124.993 351.64 124.434 352.834 124.419H352.879C354.059 124.419 355.177 124.963 355.918 125.885L381.191 157.553C382.083 158.671 382.295 160.198 381.721 161.513Z" fill="white"/>
<path d="M593.448 209.188C597.741 207.042 601.656 204.835 605.163 202.688C581.492 159.85 549.763 126.142 513.395 101.578L510.341 118.614C544.276 142.346 572.679 173.469 593.448 209.188Z" fill="white"/>
<path d="M636.906 296.059C634.926 283.543 632.13 271.133 628.532 258.965C625.781 262.366 622.909 266.266 620.037 270.664C623.877 283.588 626.809 296.845 628.729 310.328C629.802 316.889 639.189 315.634 638.615 309.074L636.906 296.044V296.059Z" fill="white"/>
<path d="M106.96 208.296C129.12 169.736 159.896 138.068 195.75 114.669L192.697 97.603C153.97 122.348 120.141 157.19 95.1846 202.099C98.7821 204.094 102.727 206.18 106.96 208.296Z" fill="white"/>
<path d="M72.3898 255.896C68.3539 269.047 65.24 282.485 63.0936 296.044L61.3855 309.074C61.0378 311.704 62.8366 314.168 65.4819 314.621C68.1876 315.09 70.7573 313.261 71.2259 310.555L71.2712 310.328L73.4026 297.843C75.4432 287.549 78.0129 277.315 81.1117 267.248C78.1036 262.895 75.1409 259.131 72.3898 255.911V255.896Z" fill="white"/>
<path d="M409.761 441.746C386.361 420.372 351.534 421.672 351.187 421.687C351.051 421.687 350.9 421.687 350.748 421.687C350.416 421.672 315.589 420.372 292.19 441.746C256.834 474.033 249.14 514.211 262.306 532.924C269.153 542.644 279.734 546.65 293.898 544.911C301.168 565.937 322.663 581.204 347.967 581.204C373.271 581.204 395.098 565.696 402.203 544.412C414.9 547.133 430.061 546.498 439.614 532.909C452.78 514.196 445.102 474.018 409.73 441.731L409.761 441.746ZM304.055 471.872C313.805 462.575 332.534 462.923 333.32 462.938C334.544 462.968 335.617 463.754 336.01 464.903C336.403 466.052 336.041 467.337 335.088 468.108C335.013 468.168 327.349 474.487 323.404 481.969C317.176 493.805 309.739 506.124 301.833 507.651C301.274 507.757 300.73 507.817 300.186 507.817C298.221 507.817 296.362 507.107 294.744 505.746C291.978 503.403 290.466 500.244 290.361 496.571C290.119 488.197 297.268 478.311 304.04 471.856L304.055 471.872ZM346.501 563.186C330.236 563.186 316.33 553.92 310.631 540.8C312.127 540.271 313.639 539.711 315.196 539.092C315.317 539.046 315.438 538.986 315.559 538.941C316.209 538.684 316.874 538.412 317.539 538.139C318.34 537.807 319.156 537.459 319.988 537.096C329.087 533.091 340.575 531.08 351.791 531.08C363.007 531.08 374.163 533.121 382.204 537.202C382.386 537.293 382.582 537.399 382.794 537.505C382.824 537.505 382.839 537.535 382.87 537.535C383.066 537.641 383.278 537.731 383.504 537.852C378.713 552.515 363.96 563.186 346.501 563.186ZM408.884 496.571C408.778 500.229 407.267 503.403 404.5 505.746C402.883 507.122 401.024 507.817 399.059 507.817C398.514 507.817 397.97 507.757 397.411 507.651C389.505 506.109 382.068 493.805 375.841 481.969C371.895 474.487 364.232 468.168 364.156 468.108C363.204 467.337 362.841 466.052 363.249 464.903C363.642 463.754 364.715 462.968 365.94 462.938C366.726 462.908 385.454 462.59 395.204 471.872C401.976 478.326 409.126 488.197 408.884 496.586V496.571Z" fill="white"/>
<path d="M151.521 219.543C155.678 220.041 159.88 220.54 164.098 221.13C171.761 210.095 180.438 199.711 190.082 190.082C195.539 184.625 201.237 179.486 207.148 174.649L204.563 160.228C196.294 166.577 188.419 173.5 180.952 180.952C169.161 192.742 158.747 205.576 149.753 219.331C150.342 219.407 150.932 219.467 151.521 219.543Z" fill="white"/>
<path d="M536.069 221.372C540.86 220.661 545.637 220.072 550.368 219.497C541.344 205.681 530.884 192.788 519.048 180.952C513.395 175.299 507.5 169.963 501.378 164.944L498.748 179.637C502.572 182.977 506.305 186.469 509.918 190.082C519.623 199.786 528.36 210.246 536.069 221.372Z" fill="white"/>
<path d="M308.923 578.635C305.37 576.201 302.09 573.45 299.143 570.442C286.476 567.525 274.05 563.504 261.973 558.395C235.036 546.997 210.851 530.703 190.082 509.918C169.313 489.149 153.003 464.964 141.605 438.027C129.815 410.154 123.829 380.527 123.829 349.993C123.829 343.1 124.131 336.252 124.751 329.45C120.579 326.17 116.649 322.542 112.961 318.567C111.6 328.921 110.92 339.396 110.92 349.993C110.92 382.265 117.239 413.57 129.709 443.046C141.757 471.509 158.989 497.085 180.937 519.033C202.885 540.981 228.461 558.229 256.924 570.261C280.308 580.147 304.857 586.178 330.115 588.233C322.542 586.268 315.377 583.034 308.908 578.605L308.923 578.635Z" fill="white"/>
<path d="M575.43 331.596C575.914 337.688 576.171 343.825 576.171 350.008C576.171 380.542 570.185 410.154 558.395 438.042C546.997 464.979 530.703 489.164 509.918 509.933C489.149 530.702 464.964 547.012 438.027 558.41C424.302 564.214 410.154 568.613 395.688 571.576C393.103 574.085 390.306 576.398 387.283 578.484C380.285 583.306 372.47 586.737 364.201 588.672C391.455 587.085 417.923 580.932 443.046 570.291C471.509 558.244 497.085 541.011 519.033 519.063C540.981 497.115 558.229 471.539 570.261 443.076C582.731 413.6 589.05 382.295 589.05 350.023C589.05 340.409 588.49 330.871 587.357 321.439C583.608 325.172 579.617 328.573 575.4 331.612L575.43 331.596Z" fill="white"/>
<path d="M226.965 244.695V266.069C236.926 270.513 276.363 285.735 349.584 285.735C422.806 285.735 467.594 270.332 478.795 265.903V244.59C460.051 249.669 402.475 263.998 350.552 263.998C298.629 263.998 245.073 249.895 226.949 244.695H226.965Z" fill="white"/>
<path d="M451.722 133.216C431.422 120.912 402.717 112.447 370.202 110.164L405.196 154.061C406.707 155.95 407.387 158.354 407.115 160.757C406.843 163.16 405.619 165.337 403.729 166.849C397.607 171.716 394.085 179.319 394.085 187.739C394.085 201.918 404.485 213.466 417.258 213.466C430.031 213.466 440.431 201.933 440.431 187.739C440.431 179.682 437.135 172.245 431.391 167.348C429.457 165.7 428.308 163.327 428.202 160.787C428.096 158.248 429.064 155.784 430.862 154L451.722 133.216Z" fill="white"/>
<path d="M336.675 110.058C303.995 112.114 275.063 120.428 254.46 132.626L275.925 154C277.723 155.799 278.691 158.248 278.585 160.787C278.479 163.327 277.33 165.7 275.396 167.348C269.652 172.245 266.356 179.667 266.356 187.739C266.356 201.918 276.756 213.466 289.529 213.466C302.302 213.466 312.702 201.933 312.702 187.739C312.702 179.319 309.18 171.701 303.058 166.849C301.168 165.352 299.944 163.16 299.672 160.757C299.4 158.354 300.095 155.95 301.591 154.061L336.675 110.058Z" fill="white"/>
</g>
<defs>
<clipPath id="clip0_486_26221">
<rect width="700" height="700" fill="white"/>
</clipPath>
</defs>
</svg>
