<svg width="700" height="700" viewBox="0 0 700 700" fill="none" xmlns="http://www.w3.org/2000/svg">
<g clip-path="url(#clip0_486_26110)">
<path d="M84.6745 269.246C81.5437 268.643 78.9156 269.218 76.8045 270.97C74.6934 272.707 73.2572 275.594 72.4961 279.601L70.4568 290.271L90.218 294.034L92.2573 283.363C93.0184 279.342 92.7312 276.14 91.3956 273.741C90.06 271.343 87.8196 269.835 84.6745 269.246Z" fill="white"/>
<path d="M147.29 517.051C146.471 515.902 145.495 514.997 144.374 514.308C143.254 513.619 142.033 513.188 140.712 513.001C139.405 512.814 138.041 512.929 136.605 513.317C135.183 513.705 133.761 514.423 132.354 515.443C130.932 516.462 129.812 517.582 128.993 518.803C128.175 520.024 127.643 521.288 127.399 522.595C127.155 523.901 127.184 525.194 127.471 526.472C127.758 527.75 128.318 528.971 129.137 530.105C129.956 531.24 130.932 532.159 132.052 532.848C133.173 533.538 134.393 533.969 135.7 534.155C137.007 534.342 138.386 534.227 139.807 533.839C141.229 533.437 142.651 532.734 144.058 531.714C145.48 530.694 146.6 529.574 147.419 528.353C148.252 527.133 148.783 525.869 149.013 524.562C149.257 523.255 149.228 521.963 148.941 520.684C148.64 519.406 148.094 518.186 147.275 517.051H147.29Z" fill="white"/>
<path d="M412.73 68.087L407.402 66.7658L404.875 76.9336L410.203 78.2549C412.228 78.7575 413.836 78.6713 415.028 78.0107C416.22 77.3501 417.024 76.2299 417.412 74.6502C417.8 73.0848 417.628 71.7205 416.881 70.5716C416.134 69.4227 414.755 68.5897 412.73 68.087Z" fill="white"/>
<path d="M389.551 635.115C387.871 635.36 386.679 635.834 385.975 636.509C385.286 637.198 385.013 638.06 385.171 639.108C385.329 640.199 385.846 640.961 386.708 641.391C387.569 641.822 388.833 641.923 390.528 641.664L397.479 640.645L396.516 634.067L389.566 635.087L389.551 635.115Z" fill="white"/>
<path d="M87.2307 231.964L104.163 248.911L111.171 230.959L87.2307 231.964Z" fill="white"/>
<path d="M87.561 428.24L99.4809 430.079L97.6427 421.62L87.561 428.24Z" fill="white"/>
<path d="M132.067 169.536C133.058 171.546 134.494 173.356 136.361 174.964C138.228 176.573 140.238 177.736 142.393 178.44C144.547 179.143 146.715 179.402 148.927 179.229C151.139 179.057 153.25 178.44 155.26 177.406C157.285 176.371 159.095 174.907 160.703 173.04C162.34 171.144 163.532 169.105 164.265 166.95C164.997 164.796 165.285 162.628 165.112 160.43C164.954 158.233 164.365 156.136 163.36 154.111C162.355 152.086 160.904 150.277 159.037 148.654C157.17 147.046 155.16 145.897 153.034 145.207C150.895 144.518 148.726 144.26 146.529 144.403C144.317 144.547 142.206 145.15 140.181 146.184C138.156 147.218 136.332 148.697 134.695 150.593C133.086 152.46 131.909 154.47 131.176 156.625C130.444 158.779 130.157 160.962 130.329 163.188C130.501 165.414 131.076 167.525 132.067 169.536Z" fill="white"/>
<path d="M395.051 624.244L394.032 617.293L385.056 618.614C383.419 618.858 382.227 619.332 381.494 620.05C380.762 620.754 380.475 621.688 380.647 622.822C380.819 623.957 381.351 624.761 382.255 625.235C383.16 625.709 384.438 625.824 386.076 625.579L395.051 624.258V624.244Z" fill="white"/>
<path d="M282.459 625.378C281.267 626.039 280.463 627.159 280.075 628.739C279.687 630.304 279.859 631.669 280.606 632.818C281.353 633.967 282.732 634.8 284.757 635.302L290.085 636.623L292.612 626.456L287.284 625.134C285.259 624.632 283.651 624.718 282.459 625.378Z" fill="white"/>
<path d="M337.692 639.927L342.575 628.897L333.93 628.466L337.692 639.927Z" fill="white"/>
<path d="M354.926 74.4922L363.572 74.923L359.809 63.4627L354.926 74.4922Z" fill="white"/>
<path d="M550.226 186.338C551.044 187.473 552.021 188.392 553.141 189.081C554.261 189.771 555.482 190.201 556.803 190.388C558.11 190.575 559.474 190.46 560.91 190.072C562.332 189.684 563.754 188.966 565.161 187.947C566.583 186.927 567.703 185.807 568.522 184.586C569.341 183.365 569.872 182.102 570.116 180.795C570.36 179.488 570.331 178.195 570.044 176.917C569.743 175.639 569.197 174.418 568.364 173.284C567.545 172.149 566.569 171.23 565.449 170.541C564.328 169.851 563.108 169.421 561.801 169.234C560.494 169.047 559.115 169.162 557.693 169.55C556.272 169.938 554.85 170.656 553.443 171.675C552.021 172.695 550.901 173.815 550.082 175.036C549.249 176.257 548.718 177.52 548.488 178.827C548.244 180.134 548.272 181.427 548.56 182.705C548.861 183.983 549.407 185.204 550.24 186.338H550.226Z" fill="white"/>
<path d="M612.827 434.129C615.957 434.732 618.586 434.157 620.697 432.405C622.808 430.668 624.244 427.781 625.019 423.774L627.059 413.104L607.298 409.327L605.258 419.997C604.497 424.018 604.784 427.221 606.12 429.619C607.455 432.018 609.696 433.526 612.827 434.114V434.129Z" fill="white"/>
<path d="M609.955 275.134L598.035 273.311L599.873 281.755L609.955 275.134Z" fill="white"/>
<path d="M610.285 471.411L593.338 454.464L586.344 472.43L610.285 471.411Z" fill="white"/>
<path d="M488.012 574.18C484.925 576.234 482.656 578.589 481.191 581.261C479.712 583.932 479.065 586.732 479.238 589.662C479.396 592.592 480.401 595.45 482.239 598.207C484.106 601.007 486.346 603.032 488.989 604.296C491.617 605.56 494.446 606.034 497.477 605.704C500.507 605.373 503.566 604.181 506.639 602.128L516.678 595.435L498.051 567.488L488.012 574.18Z" fill="white"/>
<path d="M209.489 129.195C212.576 127.141 214.846 124.786 216.325 122.114C217.79 119.443 218.45 116.643 218.278 113.713C218.12 110.783 217.115 107.925 215.276 105.168C213.409 102.368 211.169 100.343 208.527 99.0789C205.898 97.8151 203.069 97.3411 200.039 97.6715C197.009 98.0018 193.95 99.1938 190.876 101.247L180.838 107.94L199.465 135.901L209.503 129.209L209.489 129.195Z" fill="white"/>
<path d="M565.449 533.839C564.458 531.829 563.022 530.019 561.155 528.411C559.288 526.802 557.277 525.639 555.123 524.935C552.969 524.232 550.8 523.973 548.589 524.16C546.377 524.332 544.266 524.95 542.255 525.984C540.245 527.018 538.421 528.483 536.812 530.35C535.175 532.245 533.983 534.285 533.251 536.424C532.518 538.579 532.231 540.747 532.403 542.944C532.561 545.142 533.15 547.238 534.155 549.263C535.175 551.288 536.611 553.112 538.478 554.721C540.345 556.329 542.356 557.478 544.496 558.167C546.621 558.857 548.804 559.115 551.001 558.972C553.213 558.828 555.324 558.225 557.349 557.191C559.374 556.157 561.198 554.678 562.835 552.782C564.443 550.915 565.621 548.904 566.353 546.75C567.086 544.596 567.373 542.413 567.201 540.187C567.028 537.961 566.454 535.85 565.463 533.839H565.449Z" fill="white"/>
<path d="M302.464 79.131L303.484 86.0818L312.459 84.7606C314.097 84.5165 315.289 84.0425 316.021 83.3245C316.753 82.6208 317.041 81.6873 316.868 80.5527C316.696 79.4182 316.165 78.6139 315.26 78.14C314.355 77.6661 313.077 77.5512 311.44 77.7953L302.464 79.1166V79.131Z" fill="white"/>
<path d="M307.964 68.2594C309.645 68.0152 310.837 67.5413 311.54 66.8663C312.23 66.177 312.503 65.3153 312.345 64.2669C312.187 63.1755 311.67 62.4143 310.808 61.9691C309.946 61.5383 308.682 61.4378 306.988 61.6963L300.037 62.7159L300.999 69.2934L307.95 68.2738L307.964 68.2594Z" fill="white"/>
<path d="M672.484 213.754C654.862 172.077 629.615 134.652 597.489 102.511C565.348 70.3705 527.922 45.1377 486.246 27.5163C443.076 9.26306 397.249 0 350 0C302.751 0 256.924 9.26306 213.754 27.5163C172.077 45.152 134.652 70.3849 102.511 102.511C70.3705 134.652 45.1377 172.077 27.5163 213.754C9.26306 256.924 0 302.751 0 350C0 397.249 9.26306 443.076 27.5163 486.246C45.1377 527.922 70.3849 565.348 102.511 597.489C134.652 629.629 172.077 654.862 213.754 672.484C256.91 690.737 302.751 700 350 700C397.249 700 443.076 690.737 486.246 672.484C527.922 654.862 565.348 629.615 597.489 597.489C629.629 565.348 654.862 527.922 672.484 486.246C690.737 443.09 700 397.249 700 350C700 302.751 690.737 256.924 672.484 213.754ZM665.734 483.374C648.471 524.174 623.77 560.824 592.304 592.29C560.839 623.756 524.189 648.457 483.388 665.719C441.137 683.585 396.258 692.647 350 692.647C303.742 692.647 258.863 683.585 216.612 665.719C175.811 648.457 139.161 623.756 107.696 592.29C76.2299 560.824 51.5141 524.174 34.2661 483.374C16.4006 441.123 7.33864 396.243 7.33864 349.986C7.33864 303.728 16.4006 258.849 34.2661 216.598C51.5285 175.797 76.2299 139.147 107.696 107.681C139.161 76.2156 175.811 51.5141 216.612 34.2518C258.863 16.3863 303.742 7.32428 350 7.32428C396.258 7.32428 441.137 16.3863 483.388 34.2518C524.189 51.5141 560.839 76.2156 592.304 107.681C623.77 139.147 648.486 175.797 665.734 216.598C683.599 258.849 692.661 303.728 692.661 349.986C692.661 396.243 683.599 441.123 665.734 483.374Z" fill="white"/>
<path d="M454.752 276.312C467.059 294.364 475.001 315.619 477.055 338.583L477.758 338.453L477.098 339.014C477.428 342.805 477.6 346.654 477.6 350.531C477.6 423.401 418.532 482.469 345.663 482.469C334.188 482.469 323.073 480.99 312.459 478.247L292.871 494.805C309.329 500.837 327.108 504.126 345.663 504.126C430.481 504.126 499.257 435.364 499.257 350.531C499.257 315.719 487.668 283.608 468.136 257.858L454.752 276.326V276.312Z" fill="white"/>
<path d="M257.168 476.035L267.552 456.82C234.923 432.807 213.754 394.132 213.754 350.517C213.754 286.451 259.423 233.07 319.97 221.107L335.825 197.253C255.603 202.337 192.097 269.002 192.097 350.517C192.097 402.376 217.818 448.232 257.183 476.035" fill="white"/>
<path d="M660.549 218.795C643.574 178.655 619.275 142.608 588.326 111.659C557.378 80.7107 521.331 56.4113 481.191 39.4362C439.629 21.858 395.497 12.9396 350 12.9396C304.503 12.9396 260.357 21.858 218.809 39.4362C178.669 56.4113 142.622 80.7107 111.674 111.659C80.725 142.608 56.4256 178.655 39.4505 218.795C21.8722 260.357 12.9539 304.489 12.9539 349.986C12.9539 395.482 21.8722 439.629 39.4505 481.176C56.4256 521.316 80.725 557.363 111.674 588.312C142.622 619.261 178.669 643.56 218.809 660.535C260.371 678.113 304.503 687.032 350 687.032C395.497 687.032 439.643 678.113 481.191 660.535C521.331 643.56 557.378 619.261 588.326 588.312C619.275 557.363 643.574 521.316 660.549 481.176C678.128 439.615 687.046 395.482 687.046 349.986C687.046 304.489 678.128 260.342 660.549 218.795ZM597.747 197.583L602.759 208.914L591.055 232.682L609.638 224.453L615.584 237.881L575.875 255.474L622.837 264.88L625.982 279.357L586.459 307.964L583.142 292.741L590.121 288.16L586.502 271.544L578.259 270.28L575.114 255.818L574.712 256.005L569.7 244.674L581.404 220.906L562.82 229.135L556.875 215.707L597.747 197.598V197.583ZM553.242 155.39C556.272 154.758 559.302 154.729 562.332 155.332C565.362 155.935 568.249 157.142 570.978 158.98C573.706 160.818 576.133 163.202 578.259 166.132C580.399 169.105 581.907 172.164 582.754 175.323C583.616 178.483 583.846 181.599 583.458 184.658C583.07 187.717 582.079 190.589 580.528 193.26C578.963 195.932 576.808 198.273 574.037 200.254C571.308 202.222 568.421 203.529 565.362 204.175C562.318 204.821 559.273 204.85 556.243 204.247C553.213 203.644 550.341 202.437 547.612 200.628C544.883 198.818 542.471 196.434 540.345 193.505C538.205 190.532 536.697 187.458 535.836 184.285C534.96 181.111 534.73 177.994 535.117 174.921C535.505 171.862 536.496 168.99 538.076 166.304C539.656 163.619 541.81 161.292 544.539 159.325C547.296 157.328 550.197 156.022 553.227 155.39H553.242ZM445.474 178.899C461.832 188.047 476.724 199.465 489.764 212.72L411.466 226.952L445.474 178.885V178.899ZM335.251 284.857L266.36 396.976L312.531 388.919L244.43 515.026C190.101 480.2 154.097 419.293 154.097 349.971C154.097 241.773 241.802 154.068 350 154.068C368.138 154.068 385.702 156.539 402.376 161.163L363.83 168.315L278.093 297.294L335.251 284.843V284.857ZM451.779 350.819L382.155 364.017L490.913 213.926C524.95 249.169 545.903 297.136 545.903 350C545.903 458.198 458.198 545.903 350 545.903C314.326 545.903 280.879 536.367 252.07 519.708L451.764 350.833L451.779 350.819ZM543.174 127.328L520.254 151.096L534.773 165.098L526.659 173.514L501.282 149.042L532.303 116.858L543.16 127.313L543.174 127.328ZM523.887 109.692L517.396 119.027L499.731 106.733L496.744 111.027L512.269 121.827L506.065 130.746L490.54 119.946L487.179 124.771L505.533 137.538L499.042 146.873L468.524 125.647L494.044 88.9397L523.873 109.692H523.887ZM435.766 85.335C437.202 82.2043 439.083 79.5905 441.395 77.5225C443.708 75.4401 446.307 73.9178 449.208 72.9556C452.109 71.9934 455.182 71.6343 458.414 71.8785C461.645 72.1226 464.891 72.9843 468.151 74.4779C472.129 76.3018 475.346 78.6283 477.787 81.4288C480.229 84.2292 481.851 87.4174 482.656 90.9647L470.463 94.713C469.96 92.6593 469.17 90.8785 468.093 89.3706C467.03 87.877 465.58 86.7137 463.756 85.8664C462.32 85.2058 460.927 84.8468 459.548 84.7749C458.169 84.7031 456.863 84.9186 455.628 85.4356C454.392 85.9382 453.244 86.7137 452.21 87.7621C451.176 88.8105 450.285 90.103 449.581 91.654C448.863 93.2051 448.461 94.713 448.346 96.1778C448.231 97.6427 448.389 99.0214 448.806 100.3C449.237 101.563 449.912 102.698 450.86 103.703C451.807 104.708 452.999 105.527 454.436 106.188C456.259 107.021 458.083 107.351 459.907 107.193C461.745 107.035 463.598 106.461 465.494 105.513L470.592 117.203C467.389 118.869 463.928 119.702 460.209 119.702C456.489 119.702 452.626 118.783 448.648 116.959C445.402 115.465 442.631 113.569 440.333 111.272C438.035 108.974 436.312 106.417 435.148 103.588C433.985 100.759 433.439 97.7863 433.511 94.6843C433.583 91.5822 434.33 88.4515 435.766 85.3207V85.335ZM353.26 48.3115L368.052 49.044L385.099 93.9806L395.554 51.8444L416.435 57.0289C420.485 58.0342 423.817 59.5708 426.445 61.6245C429.073 63.6782 430.883 66.1339 431.888 68.9919C432.894 71.8498 432.98 74.9518 432.147 78.298C431.314 81.6442 429.792 84.3298 427.58 86.3403C425.655 88.0924 423.3 89.2701 420.557 89.9019L426.359 105.541L410.734 101.664L406.081 88.9254L402.089 87.9344L399.374 98.8491L384.74 95.2156L384.884 94.6268L369.747 93.88L367.147 85.9526L350.172 85.1053L346.797 92.7455L331.488 91.9843L353.217 48.2972L353.26 48.3115ZM307.476 50.954C313.58 50.0493 318.247 50.4801 321.478 52.2178C324.71 53.9555 326.562 56.5119 327.065 59.8868C327.395 62.1128 327.065 64.1952 326.074 66.1339C325.255 67.7424 323.992 69.1355 322.326 70.3418C322.455 70.3705 322.584 70.3705 322.699 70.3993C325.342 71.0024 327.496 72.1083 329.133 73.7454C330.77 75.3826 331.775 77.4794 332.163 80.0501C332.723 83.8846 331.574 87.1015 328.716 89.7296C325.859 92.3434 321.363 94.0955 315.26 95.0002L290.372 98.6624L283.866 54.4295L307.49 50.954H307.476ZM251.05 64.1664L253.219 69.2791L230.054 79.0879L235.411 91.7258L256.048 82.9798L258.159 87.9775L237.522 96.7236L243.152 110.008L267.149 99.8543L269.318 104.967L239.446 117.619L222.012 76.4454L251.065 64.1521L251.05 64.1664ZM188.09 96.3933C192.054 93.7508 196.075 92.1998 200.139 91.7402C204.204 91.2806 208.009 91.8838 211.557 93.5641C215.104 95.2444 218.105 97.9299 220.561 101.606C223.017 105.297 224.338 109.089 224.525 113.009C224.712 116.93 223.807 120.678 221.811 124.254C219.814 127.83 216.842 130.947 212.878 133.589L197.195 144.03L172.408 106.834L188.09 96.3933ZM125.504 155.16C126.523 152.216 128.16 149.444 130.415 146.83C132.641 144.245 135.126 142.235 137.869 140.77C140.612 139.319 143.455 138.458 146.414 138.185C149.372 137.926 152.288 138.257 155.16 139.19C158.032 140.124 160.718 141.66 163.202 143.8C165.715 145.969 167.64 148.396 168.975 151.096C170.311 153.796 171.058 156.61 171.23 159.583C171.402 162.542 170.972 165.486 169.938 168.415C168.904 171.345 167.266 174.102 165.055 176.687C162.829 179.273 160.33 181.283 157.558 182.748C154.786 184.213 151.914 185.074 148.97 185.333C146.012 185.592 143.096 185.276 140.224 184.371C137.352 183.466 134.666 181.944 132.182 179.804C129.697 177.664 127.801 175.237 126.48 172.537C125.159 169.823 124.412 166.994 124.24 164.035C124.067 161.077 124.484 158.118 125.504 155.174V155.16ZM94.081 200.455L121.669 200.125L108.672 175.768L111.889 170.325L128.031 200.484L141.344 208.354L138.127 213.797L124.728 205.884L90.6056 206.344L94.081 200.455ZM82.3335 226.636L131.363 223.951L128.922 230.198L116.729 230.715L108.098 252.86L116.729 261.491L114.345 267.623L80.05 232.524L82.3478 226.636H82.3335ZM67.0674 278.38C67.7998 274.531 69.0349 271.372 70.7582 268.873C72.4959 266.388 74.6501 264.636 77.2208 263.602C79.8059 262.583 82.6781 262.367 85.852 262.97C89.0258 263.574 91.6252 264.823 93.6215 266.733C95.6177 268.629 96.9676 271.056 97.657 274C97.7575 274.416 97.8006 274.862 97.8724 275.307L114.589 267.681L113.282 274.517L98.0017 281.396C97.9011 282.301 97.7719 283.234 97.5852 284.211L95.5172 295.068L108.873 297.624L107.681 303.9L63.7642 295.527L67.0386 278.409L67.0674 278.38ZM54.8315 362.222L65.344 354.251L61.5239 341.627L72.3523 349.167L83.1808 341.627L79.3606 354.251L89.8732 362.222L76.6751 362.494L72.338 374.96L68.0008 362.494L54.8028 362.222H54.8315ZM99.7394 505.792L94.7273 494.461L106.432 470.693L87.8482 478.922L81.9026 465.494L121.597 447.916L74.6358 438.509L71.4906 424.033L111.013 395.425L114.33 410.648L107.351 415.229L110.97 431.845L119.213 433.109L122.358 447.571L122.761 447.384L127.773 458.715L116.068 482.483L134.652 474.254L140.597 487.682L99.725 505.777L99.7394 505.792ZM144.245 547.985C141.215 548.617 138.185 548.646 135.154 548.043C132.124 547.44 129.238 546.233 126.509 544.395C123.78 542.557 121.353 540.173 119.228 537.243C117.088 534.27 115.594 531.211 114.733 528.052C113.871 524.892 113.641 521.776 114.029 518.717C114.417 515.658 115.408 512.786 116.959 510.115C118.524 507.443 120.678 505.117 123.45 503.121C126.179 501.153 129.065 499.846 132.124 499.2C135.169 498.554 138.213 498.525 141.244 499.128C144.274 499.731 147.146 500.938 149.875 502.747C152.603 504.571 155.016 506.941 157.142 509.885C159.281 512.858 160.789 515.931 161.651 519.105C162.527 522.279 162.757 525.395 162.369 528.468C161.981 531.527 160.99 534.4 159.411 537.085C157.831 539.771 155.677 542.097 152.948 544.065C150.191 546.061 147.29 547.368 144.26 548L144.245 547.985ZM154.241 575.976L177.161 552.222L162.642 538.205L170.756 529.789L196.118 554.261L165.083 586.431L154.241 575.961V575.976ZM173.6 593.697L180.091 584.363L197.755 596.656L200.743 592.362L185.218 581.562L191.422 572.644L206.947 583.443L210.307 578.618L191.953 565.865L198.445 556.53L228.963 577.756L203.443 614.464L173.614 593.712L173.6 593.697ZM261.721 618.054C260.285 621.185 258.403 623.784 256.091 625.867C253.779 627.949 251.18 629.457 248.264 630.419C245.363 631.382 242.29 631.741 239.059 631.496C235.813 631.252 232.582 630.391 229.322 628.897C225.344 627.073 222.127 624.747 219.685 621.946C217.244 619.146 215.621 615.958 214.817 612.41L227.01 608.662C227.512 610.716 228.302 612.496 229.379 614.004C230.456 615.498 231.892 616.676 233.716 617.509C235.152 618.169 236.545 618.528 237.924 618.6C239.303 618.672 240.61 618.456 241.845 617.939C243.08 617.437 244.229 616.661 245.263 615.613C246.297 614.564 247.187 613.272 247.891 611.721C248.609 610.17 249.011 608.662 249.126 607.197C249.241 605.732 249.083 604.354 248.666 603.09C248.236 601.826 247.561 600.677 246.613 599.686C245.665 598.681 244.473 597.862 243.037 597.202C241.213 596.369 239.389 596.038 237.565 596.196C235.727 596.369 233.874 596.929 231.979 597.891L226.88 586.201C230.083 584.535 233.544 583.702 237.278 583.702C241.012 583.702 244.861 584.621 248.839 586.445C252.084 587.939 254.856 589.834 257.154 592.118C259.452 594.415 261.175 596.972 262.338 599.801C263.502 602.63 264.047 605.603 263.976 608.705C263.904 611.807 263.157 614.938 261.721 618.069V618.054ZM344.212 655.063L329.42 654.331L312.373 609.394L301.918 651.531L281.037 646.346C276.987 645.341 273.641 643.804 271.027 641.75C268.399 639.697 266.575 637.241 265.584 634.383C264.579 631.525 264.493 628.423 265.326 625.077C266.158 621.731 267.681 619.045 269.892 617.035C271.817 615.283 274.172 614.105 276.915 613.473L271.113 597.833L286.738 601.711L291.391 614.45L295.384 615.44L298.084 604.54L312.718 608.174L312.574 608.763L327.711 609.509L330.311 617.437L347.286 618.284L350.661 610.644L365.97 611.405L344.241 655.092L344.212 655.063ZM389.996 652.421C383.893 653.311 379.225 652.895 375.994 651.157C372.763 649.419 370.91 646.863 370.407 643.488C370.077 641.262 370.407 639.165 371.398 637.241C372.217 635.633 373.481 634.24 375.147 633.033C375.017 633.004 374.888 633.004 374.773 632.976C372.131 632.372 369.977 631.267 368.339 629.63C366.702 627.992 365.697 625.896 365.309 623.325C364.749 619.49 365.898 616.259 368.756 613.645C371.614 611.032 376.109 609.279 382.212 608.375L407.115 604.713L413.621 648.945L389.996 652.421ZM446.422 639.208L444.253 634.096L467.418 624.287L462.061 611.635L441.424 620.381L439.313 615.383L459.95 606.637L454.321 593.338L430.323 603.506L428.154 598.394L458.026 585.741L475.461 626.915L446.408 639.223L446.422 639.208ZM509.382 606.982C505.418 609.624 501.397 611.175 497.333 611.635C493.269 612.094 489.463 611.491 485.916 609.811C482.368 608.131 479.367 605.445 476.911 601.768C474.455 598.078 473.134 594.286 472.962 590.351C472.775 586.431 473.68 582.682 475.676 579.106C477.672 575.53 480.645 572.414 484.609 569.771L500.291 559.331L525.079 596.527L509.396 606.982H509.382ZM571.969 548.215C570.949 551.159 569.312 553.931 567.057 556.545C564.831 559.13 562.347 561.14 559.604 562.605C556.861 564.056 554.017 564.917 551.059 565.19C548.1 565.449 545.185 565.118 542.313 564.185C539.44 563.251 536.755 561.715 534.27 559.575C531.757 557.406 529.833 554.979 528.497 552.294C527.161 549.594 526.415 546.765 526.242 543.806C526.07 540.848 526.501 537.904 527.535 534.974C528.569 532.044 530.206 529.287 532.418 526.716C534.644 524.131 537.143 522.121 539.914 520.656C542.686 519.191 545.558 518.329 548.502 518.071C551.446 517.812 554.376 518.128 557.248 519.033C560.121 519.938 562.806 521.46 565.291 523.6C567.775 525.74 569.671 528.167 570.992 530.867C572.313 533.581 573.06 536.41 573.232 539.383C573.405 542.341 572.988 545.285 571.969 548.229V548.215ZM603.391 502.919L575.803 503.25L588.8 527.607L585.583 533.05L569.441 502.891L556.128 495.021L559.345 489.578L572.744 497.491L606.852 497.031L603.377 502.919H603.391ZM615.139 476.753L566.109 479.439L568.551 473.191L580.743 472.674L589.375 450.529L580.743 441.898L583.142 435.766L617.437 470.865L615.139 476.753ZM630.405 425.009C629.673 428.858 628.437 432.018 626.7 434.516C624.962 437.001 622.808 438.753 620.237 439.787C617.652 440.807 614.78 441.022 611.606 440.419C608.432 439.816 605.833 438.552 603.836 436.656C601.84 434.746 600.49 432.334 599.787 429.375C599.686 428.959 599.643 428.513 599.571 428.068L582.855 435.694L584.161 428.858L599.442 421.979C599.542 421.074 599.672 420.141 599.858 419.164L601.926 408.307L588.57 405.751L589.762 399.475L633.679 407.847L630.419 424.981L630.405 425.009ZM622.722 351.838L618.385 364.304L614.047 351.838L600.849 351.565L611.362 343.595L607.542 330.971L618.37 338.511L629.199 330.971L625.378 343.595L635.891 351.565L622.693 351.838H622.722Z" fill="white"/>
</g>
<defs>
<clipPath id="clip0_486_26110">
<rect width="700" height="700" fill="white"/>
</clipPath>
</defs>
</svg>
