<svg width="589" height="844" viewBox="0 0 589 844" fill="none" xmlns="http://www.w3.org/2000/svg">
<g clip-path="url(#clip0_486_26124)">
<path d="M204.542 590.138C203.71 591.392 203.432 593.6 203.891 595.036C206.364 602.781 209.091 610.454 211.878 618.091C212.433 619.611 213.41 621.228 214.665 622.217C223.906 629.552 233.22 636.779 242.63 643.897C243.439 644.513 245.477 644.573 246.262 643.982C254.9 637.467 263.454 630.819 271.887 624.039C271.959 623.979 272.019 623.894 272.092 623.822C249.724 617.464 227.453 597.63 227.453 566.841C227.453 566.684 227.453 566.539 227.453 566.382C218.972 573.476 210.744 580.836 204.554 590.138H204.542Z" fill="white"/>
<path d="M133.53 690.913L129.344 694.508L144.28 711.941L148.466 708.346C151.675 705.595 153.473 702.796 153.835 699.949C154.209 697.102 153.147 694.23 150.674 691.335C145.691 685.52 139.973 685.375 133.518 690.913H133.53Z" fill="white"/>
<path d="M262.862 754.252C255.298 753.045 250.858 756.653 249.519 765.037L248.65 770.491L271.332 774.098L272.2 768.645C272.864 764.47 272.418 761.177 270.849 758.764C269.281 756.351 266.627 754.843 262.862 754.252Z" fill="white"/>
<path d="M588.34 409.085L526.437 408.385L548.611 284.301L499.798 319.445C502.645 280.549 500.51 222 472.448 170.87L450.104 130.152L438.957 175.238C435.012 191.187 430.705 202.045 426.904 209.368C418.23 184.165 406.262 142.977 406.262 107.568V78.2266L380.021 91.3528C373.458 94.6344 366.871 98.4588 360.344 102.79C353.793 80.5791 338.845 51.4553 305.499 22.3677L277.147 0L275.458 35.9524C275.458 36.5435 274.191 95.0325 227.163 135.907C216.848 144.871 207.824 153.57 200.175 161.93C200.368 159.433 200.67 157.213 201.092 155.319L209.597 104.781L170.846 138.284C125.833 181.391 91.4372 296.933 90.0016 301.831L88.9278 305.474L92.1008 330.521C89.157 325.429 85.972 319.457 82.5819 312.46L50.0196 251.944L48.1376 380.359L0 351.814L48.5236 448.826C29.7753 486.672 20.2805 527.438 20.2805 570.05C20.2805 720.99 143.086 843.795 294.025 843.795C444.965 843.795 567.77 720.99 567.77 570.05C567.77 531.745 560.024 494.755 544.727 460.009L588.34 409.073V409.085ZM560.302 570.05C560.302 716.767 441.358 835.712 294.641 835.712C147.923 835.712 28.967 716.779 28.967 570.062C28.967 526.545 39.427 485.478 57.9702 449.236L15.0686 368.15L56.3053 395.38V276.592L75.4035 315.983C87.4921 340.92 97.3006 353.829 104.141 360.513L97.2524 306.126L97.8435 304.111C99.2671 299.297 133.072 185.722 176.529 144.111L200.489 121.176L193.298 153.558C191.501 161.665 191.694 172.873 192.695 183.791C200.839 172.559 213.362 158.673 232.556 142C282.781 98.3623 283.638 36.64 283.638 36.0127L283.734 14.0431L300.299 28.4603C338.833 62.048 351.428 95.4547 355.422 116.206C362.866 110.644 372.614 104.141 383.749 98.5795L398.299 91.3045V107.568C398.299 152.11 416.299 204.639 424.769 226.886C430.692 220.709 439.536 207.04 446.919 177.18L453.096 152.182L465.487 174.755C497.301 232.713 494.647 300.769 490.05 337.011L539.165 299.961L516.737 416.637L524.905 416.493L574.2 415.817L535.618 458.127C551.447 492.149 560.302 530.068 560.302 570.05Z" fill="white"/>
<path d="M551.145 426.18L525.073 426.53L508.075 426.832C507.17 425.481 506.241 424.141 505.3 422.814L524.338 323.716L475.85 360.296C475.85 360.296 500.16 258.857 456.655 179.581C441.828 239.53 419.822 241.677 419.822 241.677C419.822 241.677 388.225 168.361 388.225 107.555C364.386 119.475 347.025 136.173 347.025 136.173C347.025 136.173 351.79 86.6959 293.675 36.0368C293.675 36.0368 293.675 102.199 239.132 149.588C184.588 196.978 187.942 218.429 187.942 218.429C187.942 218.429 178.109 175.515 183.466 151.374C141.445 191.609 107.471 306.946 107.471 306.946L116.411 377.584C116.411 377.584 96.8542 383.315 66.343 320.362V397.262L83.0886 424.057C82.9197 424.298 82.7508 424.54 82.5819 424.793L36.8331 394.583L67.4891 449.694C48.4151 485.61 37.5931 526.569 37.5931 570.062C37.5931 712.014 152.665 827.085 294.616 827.085C436.568 827.085 551.64 712.014 551.64 570.062C551.64 528.801 541.903 489.821 524.615 455.256L551.121 426.18H551.145ZM430.668 293.362C435.518 294.11 471.519 296.571 459.491 202.516C459.491 202.516 468.527 224.232 472.062 259.509C475.729 296.197 472.617 334.188 456.619 367.414C450.165 380.818 442.974 387.043 442.974 387.043C442.974 387.043 447.45 383.158 456.004 353.974C459.623 341.632 461.59 324.766 461.59 324.766L442.274 345.903C442.274 345.903 465.294 311.712 463.46 271.259C456.318 296.438 434.372 293.977 430.668 293.362C430.318 293.313 430.125 293.265 430.125 293.265C430.125 293.265 430.318 293.301 430.668 293.362ZM379.901 125.737C379.901 153.847 378.139 181.366 408.011 248.12C395.573 230.119 384.135 197.605 377.693 177.252C375.111 169.097 373.205 160.76 371.576 152.351C370.358 146.041 367.354 141.191 355.579 155.717C355.579 155.717 357.05 140.962 379.889 125.737H379.901ZM379.708 355.048C385.378 365.122 390.723 375.895 394.668 384.232C398.939 393.244 400.085 404.211 397.804 414.405L394.113 430.861L395.645 407.565C396.055 401.376 394.969 395.174 392.556 389.83L390.94 386.271L385.052 413.887L385.619 377.138C385.619 377.138 383.942 387.936 355.603 412.077C355.603 412.077 385.897 385.547 379.732 355.048H379.708ZM287.136 147.26C279.005 271.899 347.954 345.951 347.954 345.951C347.954 345.951 287.136 289.392 287.136 256.082C280.621 279.306 287.136 330.46 287.136 330.46C287.136 330.46 268.159 252.982 268.159 206.497C244.138 225.86 232.52 285.52 232.52 285.52C232.52 285.52 230.192 218.887 287.136 147.26ZM193.817 311.181C189.076 384.256 230.421 367.257 230.421 367.257C230.421 367.257 207.45 377.476 199.898 365.906C198.257 389.13 220.371 397.274 220.371 397.274L201.828 394.607L213.144 421.535C213.144 421.535 213.024 421.439 212.795 421.258C197.738 408.904 189.088 390.409 189.076 370.937C189.064 342.766 193.817 311.181 193.817 311.181ZM172.053 179.726C140.866 252.704 153.895 284.41 166.889 295.473C158.311 289.598 149.226 278.703 149.226 260.401C135.159 302.627 149.226 345.686 149.226 345.686C149.226 345.686 129.006 329.676 129.634 313.461C120.67 332.909 129.537 381.288 129.887 382.905C129.549 381.747 118.51 340.305 118.51 307.429C118.51 280.368 172.053 179.726 172.053 179.726ZM73.9678 593.142L81.4357 584.95C83.7039 582.465 85.0913 579.279 85.2723 575.913C85.2723 575.793 85.2723 575.66 85.2843 575.539C85.405 571.703 83.9452 567.987 81.3272 565.176L73.8351 557.105L82.799 565.429C83.6797 566.25 84.6932 566.925 85.8031 567.384C89.6034 568.952 93.8864 568.964 97.6867 567.42C97.6867 567.42 97.6987 567.42 97.7108 567.42C98.8449 566.962 99.8824 566.274 100.787 565.441L109.751 557.117L102.464 564.959C98.5433 569.169 97.2644 575.25 99.3033 580.631C99.3516 580.739 99.3878 580.86 99.436 580.969C99.7377 581.716 100.112 582.452 100.534 583.164L109.667 593.117L101.547 585.481C99.0017 583.08 95.6719 581.656 92.1732 581.572C92.0646 581.572 91.944 581.572 91.8354 581.572C88.1919 581.572 84.7052 583.007 82.051 585.517L73.9798 593.166L73.9678 593.142ZM99.7135 677.328C97.4454 676.785 95.31 675.53 93.3193 673.552C91.3287 671.573 89.6034 669.016 88.1678 665.867C86.4425 662.103 85.4532 658.278 85.1878 654.393C84.9224 650.521 85.417 646.829 86.6476 643.33C86.9613 642.486 87.4801 641.907 88.216 641.569C89.0605 641.183 90.0498 641.195 91.1718 641.617C92.0646 641.955 92.6799 642.486 93.0177 643.21C93.3676 643.982 93.3435 645.104 92.9574 646.588C92.1249 649.157 91.8354 651.884 92.0646 654.779C92.2938 657.675 93.0177 660.45 94.2242 663.104C95.3824 665.65 96.7215 667.423 98.2417 668.449C99.7618 669.474 101.306 669.631 102.887 668.907C104.539 668.147 105.529 666.772 105.842 664.769C106.156 662.766 105.879 659.726 104.998 655.672C103.61 649.278 103.357 644.295 104.226 640.712C105.094 637.129 107.169 634.583 110.439 633.099C112.514 632.146 114.686 631.99 116.954 632.629C119.222 633.268 121.369 634.62 123.408 636.683C125.447 638.746 127.197 641.376 128.656 644.573C130.297 648.144 131.166 651.594 131.262 654.924C131.359 658.254 130.695 661.125 129.248 663.55C128.668 664.419 128.089 664.986 127.51 665.251C126.533 665.65 125.483 665.553 124.373 664.938C123.794 664.6 123.36 664.093 123.058 663.442C122.516 662.247 122.528 661.053 123.095 659.871C123.927 658.145 124.301 656.167 124.229 653.947C124.144 651.727 123.601 649.531 122.6 647.336C121.345 644.609 119.97 642.667 118.45 641.533C116.93 640.386 115.434 640.157 113.974 640.821C112.514 641.484 111.645 642.775 111.38 644.693C111.115 646.6 111.392 649.58 112.224 653.621C113.105 658.097 113.503 661.849 113.419 664.865C113.334 667.882 112.719 670.331 111.585 672.225C110.451 674.119 108.726 675.591 106.421 676.64C104.226 677.642 101.994 677.871 99.7256 677.328H99.7135ZM136.969 729.326C136.064 730.098 135.111 730.412 134.11 730.279C133.096 730.147 132.179 729.592 131.359 728.627C130.538 727.661 130.128 726.66 130.152 725.61C130.177 724.561 130.623 723.668 131.479 722.92L139.334 716.188L124.398 698.755L116.544 705.487C115.675 706.235 114.722 706.524 113.684 706.392C112.647 706.247 111.718 705.704 110.885 704.739C110.065 703.774 109.655 702.784 109.679 701.771C109.691 700.757 110.161 699.853 111.054 699.093L127.92 684.651C132.577 680.658 137.367 678.872 142.277 679.283C147.188 679.693 151.688 682.275 155.765 687.028C158.432 690.141 160.145 693.35 160.917 696.643C161.677 699.937 161.46 703.158 160.241 706.283C159.023 709.408 156.887 712.279 153.835 714.897L136.981 729.338L136.969 729.326ZM184.829 718.987L161.81 749.305C161.098 750.246 160.205 750.741 159.168 750.801C158.118 750.849 157.105 750.512 156.127 749.764C155.114 748.992 154.511 748.111 154.318 747.109C154.125 746.108 154.378 745.143 155.102 744.202L178.121 713.884C178.833 712.943 179.702 712.424 180.715 712.352C181.728 712.279 182.742 712.617 183.755 713.389C184.732 714.137 185.336 715.018 185.565 716.043C185.794 717.069 185.553 718.058 184.841 718.999L184.829 718.987ZM233.666 745.324L230.867 751.368C228.503 756.471 225.281 760.031 221.228 762.033C217.174 764.048 212.686 764.326 207.764 762.878L203.034 773.06C202.552 774.098 201.816 774.761 200.802 775.063C199.801 775.365 198.727 775.256 197.569 774.713C196.423 774.182 195.639 773.446 195.229 772.505C194.818 771.576 194.867 770.563 195.373 769.489L200.103 759.307C195.784 756.459 193.069 752.852 191.983 748.473C190.885 744.093 191.537 739.34 193.926 734.2L196.725 728.156C197.219 727.082 197.955 726.395 198.932 726.105C199.91 725.815 200.971 725.936 202.117 726.467C203.264 726.998 204.048 727.746 204.47 728.711C204.88 729.676 204.856 730.678 204.374 731.715L201.49 737.928C199.644 741.922 199.15 745.408 200.018 748.4C200.887 751.392 203.071 753.697 206.557 755.313C210.044 756.93 213.217 757.111 216.064 755.844C218.911 754.577 221.264 751.947 223.11 747.966L225.993 741.753C226.476 740.715 227.212 740.052 228.225 739.738C229.227 739.436 230.3 739.545 231.458 740.088C232.605 740.619 233.389 741.355 233.799 742.284C234.209 743.225 234.161 744.226 233.654 745.3L233.666 745.324ZM280.513 770.153L277.026 792.074C276.845 793.244 276.314 794.101 275.458 794.656C274.601 795.199 273.54 795.38 272.297 795.187C271.042 794.982 270.089 794.475 269.426 793.667C268.762 792.858 268.521 791.881 268.702 790.759L270.318 780.552L247.637 776.945L246.02 787.164C245.839 788.286 245.309 789.142 244.428 789.709C243.547 790.276 242.473 790.457 241.219 790.264C239.964 790.071 239.011 789.577 238.371 788.78C237.72 787.996 237.491 787.019 237.684 785.849L241.17 763.927C242.136 757.871 244.621 753.407 248.626 750.536C252.632 747.664 257.735 746.711 263.912 747.701C267.966 748.34 271.344 749.679 274.07 751.694C276.785 753.709 278.703 756.303 279.801 759.476C280.899 762.649 281.14 766.22 280.513 770.189V770.153ZM338.519 790.614C337.844 791.374 336.878 791.833 335.624 791.99C334.369 792.146 333.307 791.917 332.439 791.326C331.582 790.735 331.075 789.866 330.943 788.732L328.011 764.808C327.577 761.237 326.274 758.631 324.114 756.978C321.955 755.325 319.023 754.722 315.331 755.181C311.639 755.639 308.937 756.918 307.236 759.041C305.535 761.165 304.907 764.012 305.342 767.583L308.273 791.507C308.406 792.641 308.141 793.606 307.441 794.39C306.753 795.175 305.776 795.645 304.509 795.802C303.255 795.959 302.205 795.742 301.36 795.163C300.528 794.583 300.033 793.703 299.889 792.532L296.981 768.789C296.293 763.204 297.5 758.631 300.6 755.048C303.701 751.477 308.334 749.305 314.511 748.557C320.676 747.809 325.695 748.786 329.567 751.513C333.44 754.24 335.708 758.39 336.396 763.976L339.303 787.719C339.448 788.889 339.183 789.866 338.507 790.626L338.519 790.614ZM394.728 765.411C394.125 767.667 392.822 769.767 390.795 771.709C388.768 773.651 386.162 775.304 382.977 776.668C379.165 778.296 375.316 779.189 371.431 779.346C367.547 779.515 363.867 778.924 360.416 777.597C359.584 777.259 359.005 776.728 358.691 775.98C358.329 775.123 358.365 774.146 358.812 773.036C359.174 772.155 359.717 771.552 360.453 771.227C361.237 770.901 362.359 770.949 363.831 771.371C366.376 772.264 369.091 772.638 371.986 772.481C374.882 772.324 377.681 771.673 380.359 770.527C382.929 769.429 384.739 768.138 385.812 766.654C386.874 765.17 387.067 763.626 386.391 762.033C385.68 760.356 384.316 759.343 382.326 758.969C380.335 758.607 377.295 758.812 373.205 759.584C366.787 760.803 361.792 760.935 358.233 759.97C354.674 759.005 352.188 756.87 350.777 753.564C349.884 751.465 349.775 749.293 350.475 747.037C351.175 744.781 352.574 742.67 354.698 740.691C356.821 738.713 359.487 737.023 362.721 735.648C366.34 734.104 369.815 733.332 373.132 733.308C376.462 733.296 379.322 734.044 381.71 735.54C382.567 736.143 383.122 736.734 383.363 737.313C383.737 738.302 383.605 739.34 382.977 740.438C382.615 741.005 382.109 741.427 381.445 741.705C380.239 742.223 379.044 742.175 377.874 741.572C376.161 740.691 374.206 740.269 371.986 740.293C369.766 740.317 367.547 740.812 365.339 741.753C362.576 742.935 360.609 744.262 359.427 745.758C358.245 747.254 357.979 748.738 358.607 750.21C359.234 751.694 360.501 752.587 362.407 752.9C364.313 753.214 367.293 753.009 371.359 752.297C375.859 751.525 379.611 751.223 382.627 751.38C385.643 751.549 388.08 752.213 389.938 753.395C391.796 754.577 393.232 756.339 394.221 758.667C395.162 760.887 395.343 763.119 394.74 765.375L394.728 765.411ZM294.641 719.156C212.421 719.156 145.523 652.258 145.523 570.038C145.523 555.995 147.477 542.398 151.121 529.501L101.294 498.556L58.3683 422.428L117.316 458.73L77.9853 396.272L71.3256 344.431L83.0403 393.027L141.01 479.976L87.6852 457.862L104.889 495.202L151.434 528.439C169.483 466.391 226.85 420.908 294.641 420.908C362.431 420.908 418.278 465.185 437.111 525.966L453.157 514.155L518.848 441.177L478.83 441.768L482.691 427.194L497.494 363.734L424.6 437.038L475.452 375.75L511.646 344.419L493.006 421.596L489.785 434.806L536.474 432.731L455.823 515.88L437.545 527.474C441.563 540.962 443.734 555.235 443.734 570.014C443.734 652.234 376.836 719.132 294.616 719.132L294.641 719.156ZM445.918 730.219C446.738 731.015 447.124 731.932 447.076 732.982C447.028 734.031 446.569 735.009 445.677 735.914C444.796 736.818 443.843 737.313 442.829 737.385C441.816 737.458 440.887 737.084 440.03 736.251L417.216 714.029C415.093 711.965 414.043 709.746 414.055 707.369C414.068 704.992 415.141 702.712 417.265 700.528L431.03 686.401C431.911 685.496 432.804 684.989 433.684 684.905C434.565 684.82 435.386 685.146 436.146 685.882C436.87 686.594 437.195 687.39 437.123 688.295C437.038 689.188 436.58 690.08 435.723 690.961L422.971 704.051C422.38 704.654 422.115 705.33 422.163 706.054C422.211 706.79 422.597 707.489 423.285 708.165L430.053 714.764L441.345 703.182C442.226 702.278 443.119 701.771 444 701.686C444.88 701.602 445.701 701.928 446.461 702.664C447.185 703.375 447.51 704.172 447.438 705.077C447.366 705.969 446.895 706.862 446.039 707.743L434.746 719.325L445.93 730.219H445.918ZM468.068 710.494C467.139 711.652 466.017 712.315 464.678 712.496C463.339 712.677 462.169 712.352 461.143 711.531C460.058 710.662 459.442 709.552 459.31 708.189C459.177 706.838 459.575 705.583 460.492 704.425C461.421 703.267 462.555 702.628 463.906 702.495C465.257 702.362 466.464 702.712 467.526 703.556C468.551 704.377 469.13 705.451 469.263 706.766C469.396 708.093 468.997 709.335 468.068 710.482V710.494ZM493.73 668.243C493.223 671.815 491.944 675.422 489.893 679.077C487.553 683.24 484.73 686.413 481.412 688.572C478.106 690.744 474.499 691.793 470.602 691.733C466.705 691.673 462.712 690.49 458.622 688.186C454.532 685.882 451.443 683.071 449.356 679.765C447.269 676.447 446.28 672.828 446.388 668.883C446.497 664.938 447.716 660.908 450.032 656.782C451.962 653.356 454.339 650.521 457.15 648.277C459.973 646.033 462.748 644.754 465.487 644.452C466.319 644.344 467.055 644.452 467.682 644.814C468.599 645.333 469.154 646.298 469.335 647.71C469.42 648.337 469.275 648.988 468.901 649.652C468.587 650.207 468.153 650.69 467.61 651.112C467.055 651.534 466.464 651.799 465.812 651.92C463.665 652.367 461.807 653.235 460.226 654.526C458.646 655.817 457.186 657.663 455.835 660.064C453.579 664.081 453.048 667.918 454.279 671.561C455.497 675.205 458.344 678.293 462.796 680.803C467.224 683.288 471.302 684.096 475.042 683.228C478.782 682.347 481.798 679.886 484.078 675.832C486.696 671.187 487.42 666.723 486.238 662.416C485.815 660.667 485.864 659.316 486.407 658.363C486.781 657.699 487.348 657.216 488.096 656.915C489.314 656.481 490.364 656.517 491.244 657.011C491.908 657.385 492.415 657.989 492.777 658.821C493.911 661.548 494.224 664.696 493.718 668.268L493.73 668.243ZM503.792 646.986C503.285 648.373 502.428 649.375 501.222 649.966C500.015 650.557 498.797 650.629 497.566 650.183C496.251 649.7 495.322 648.844 494.755 647.613C494.188 646.37 494.164 645.055 494.671 643.668C495.177 642.281 496.046 641.303 497.289 640.736C498.531 640.169 499.786 640.121 501.053 640.591C502.284 641.038 503.176 641.87 503.719 643.089C504.262 644.307 504.286 645.598 503.78 646.998L503.792 646.986ZM506.506 580.607C506.554 580.715 506.591 580.836 506.639 580.944C506.94 581.692 507.314 582.428 507.737 583.14L516.87 593.093L508.75 585.456C506.204 583.056 502.875 581.632 499.376 581.548C499.267 581.548 499.147 581.548 499.038 581.548C495.395 581.548 491.908 582.983 489.254 585.493L481.183 593.142L488.651 584.95C490.919 582.465 492.306 579.279 492.487 575.913C492.487 575.793 492.487 575.66 492.499 575.539C492.62 571.703 491.16 567.987 488.542 565.176L481.05 557.105L490.014 565.429C490.895 566.25 491.908 566.925 493.018 567.384C496.818 568.952 501.101 568.964 504.902 567.42C504.902 567.42 504.914 567.42 504.926 567.42C506.06 566.962 507.097 566.274 508.002 565.441L516.966 557.117L509.679 564.959C505.758 569.169 504.479 575.25 506.518 580.631L506.506 580.607Z" fill="white"/>
<path d="M266.277 446.135C269.968 447.402 273.105 447.028 276.664 445.218C288.753 439.041 301.385 434.288 315.005 432.828C317.829 432.526 320.712 432.78 324.199 432.78C315.319 440.211 306.874 447.269 297.934 454.737C300.962 455.98 303.52 456.921 305.993 458.043C313.292 461.361 320.507 464.908 327.902 467.996C330.134 468.937 332.861 468.78 335.37 468.985C345.879 469.854 356.061 472.134 365.773 476.248C368.729 477.503 370.273 476.851 371.311 473.992C372.939 469.54 374.653 465.113 376.342 460.673C376.8 459.454 377.271 458.236 377.741 457.005C378.055 456.933 378.368 456.848 378.682 456.764C355.205 439.319 326.129 428.991 294.628 428.991C274.022 428.991 254.441 433.419 236.791 441.357C243.74 442.13 250.098 442.685 256.396 443.614C259.75 444.096 263.068 445.013 266.277 446.111V446.135Z" fill="white"/>
<path d="M379.02 457.041C381.674 462.663 384.533 468.213 386.85 473.968C388.382 477.768 389.432 481.858 390.047 485.912C390.554 489.23 392.279 490.931 394.981 492.463C407.179 499.364 416.83 509.003 425.167 521.044C416.589 520.236 408.494 519.475 400.229 518.703C400.796 526.618 401.979 534.013 401.713 541.348C401.17 556.212 405.924 570.472 405.996 585.227C405.996 587.278 405.996 589.341 405.996 592.575C415.527 589.064 424.31 585.831 433.805 582.332C432.454 585.698 431.404 588.81 429.981 591.754C425.179 601.756 418.338 610.249 410.448 617.995C409.435 618.984 408.759 620.89 408.844 622.326C409.338 630.783 410.098 639.228 410.774 647.685C410.412 647.951 410.038 648.228 409.676 648.494C403.487 645.502 397.213 642.667 391.133 639.457C388.623 638.142 386.802 638.311 384.172 639.361C374.822 643.077 365.254 646.238 355.82 649.749C354.77 650.135 353.31 651.401 353.286 652.294C353.093 660.655 353.166 669.016 353.166 678.233C365.761 676.254 377.415 674.433 389.528 672.538C388.515 674.312 387.127 676.122 385.438 677.919C416.131 652.053 435.627 613.326 435.627 570.05C435.627 523.807 413.368 482.763 378.984 457.041H379.02Z" fill="white"/>
<path d="M297.307 678.354C296.872 677.883 296.004 677.569 295.352 677.606C286.388 678.064 277.412 678.595 267.664 679.162C268.183 688.838 268.69 698.236 269.269 708.817C277.497 710.313 285.966 711.097 294.628 711.097C296.595 711.097 298.537 711.049 300.48 710.964C298.61 710.807 296.86 710.542 295.292 710.132C301.566 705.04 307.767 700.009 313.039 695.739C307.405 689.501 302.386 683.903 297.307 678.366V678.354Z" fill="white"/>
<path d="M399.24 552.87C392.315 542.422 385.607 531.842 378.658 521.406C377.97 520.38 376.113 519.463 374.906 519.572C368.729 520.139 362.564 520.947 356.435 521.9C351.187 522.721 345.963 523.783 340.148 524.88L339.521 524.398C340.353 523.264 340.932 522.455 341.523 521.671C347.049 514.408 352.562 507.121 358.136 499.895C359.439 498.206 359.777 496.903 357.943 495.262C349.245 487.456 340.739 479.457 331.932 471.796C330.303 470.385 327.577 469.564 325.381 469.613C312.967 469.89 300.564 470.421 288.174 471.121C286.738 471.205 284.627 472.544 284.132 473.823C280.042 484.187 276.254 494.671 272.442 505.155C272.394 505.288 272.369 505.456 272.357 505.625L270.113 506.482C270.137 506.325 270.15 506.168 270.174 506.024C270.27 505.203 269.92 504.178 269.426 503.478C264.455 496.287 259.279 489.23 254.478 481.931C252.958 479.614 251.63 478.709 248.928 479.638C240.531 482.522 232.098 485.248 223.665 488.023C222.989 488.24 222.289 488.349 220.938 487.818C224.714 483.354 228.322 478.734 232.327 474.475C235.488 471.109 239.023 468.093 242.582 465.137C244.211 463.786 244.356 462.784 243.511 460.854C241.363 455.956 239.542 450.925 237.672 445.906C237.262 444.808 237.189 443.602 236.755 441.418C187.725 463.508 153.594 512.804 153.594 570.062C153.594 638.348 202.118 695.28 266.554 708.298C264.769 707.453 263.2 706.717 262.211 705.511C255.358 697.15 248.723 688.608 242.353 679.886C240.809 677.762 239.518 676.858 236.912 676.737C222.434 676.061 208.536 672.888 194.734 666C197.159 665.288 198.884 664.769 200.634 664.262C202.504 663.719 204.446 663.357 206.244 662.646C212.228 660.281 218.151 657.771 224.099 655.347C226.222 654.478 226.657 653.163 225.704 651.039C221.505 641.726 217.415 632.364 213.253 623.038C212.976 622.398 212.481 621.735 211.902 621.385C204.627 616.993 197.328 612.674 189.462 607.981C183.84 617.066 178.302 626.018 172.547 635.319C169.447 632.183 167.408 628.479 167.782 624.087C168.578 614.773 169.652 605.472 170.967 596.206C171.329 593.636 170.943 592.249 168.819 590.789C165.128 588.243 161.641 585.372 158.166 582.513C157.105 581.632 156.405 580.305 155.44 579.05C161.653 574.719 168.421 572.728 175.334 571.281C177.868 570.75 178.736 569.471 179.665 567.215C183.454 558.034 187.604 548.997 191.947 539.165C188.448 534.834 184.141 529.477 179.062 523.191C172.439 529.561 165.96 535.775 160.024 541.469C154.861 527.378 187.025 471.193 206.883 462.41C204.518 471.06 202.154 479.723 199.644 488.928H220.48C218.767 490.243 217.838 490.907 216.957 491.643C210.273 497.301 203.541 502.923 196.978 508.714C196.025 509.558 195.506 511.199 195.313 512.55C193.298 526.497 193.238 540.432 195.687 554.354C196.363 558.167 196.701 562.039 197.231 566.129C203.324 565.369 209.187 564.042 215.063 564.054C219.406 564.054 223.544 563.62 227.562 562.715C229.601 528.403 256.939 521.502 272.104 521.502C287.269 521.502 297.029 530.153 301.529 535.352C296.86 532.409 291.311 531.456 285.773 531.456C266.494 531.456 253.754 547.465 253.754 564.428C253.754 581.391 264.31 604.422 299.804 604.422C335.298 604.422 347.242 572.572 347.242 572.572C347.242 603.035 319.542 626.066 287.342 626.066C283.107 626.066 278.667 625.499 274.215 624.401C272.635 635.549 271.103 646.696 269.45 657.832C269.16 659.822 269.691 660.944 271.465 661.922C276.037 664.467 280.718 666.892 284.953 669.933C292.722 675.518 301.131 678.619 310.759 678.209C311.857 678.161 312.955 678.209 314.04 678.209C314.04 678.342 314.04 678.474 314.04 678.607C318.058 678.607 322.099 678.848 326.081 678.498C327.903 678.342 330.086 677.461 331.305 676.17C345.408 661.029 357.147 644.223 366.557 625.788C367.583 623.774 367.04 622.989 365.58 621.614C358.257 614.701 351.091 607.619 343.828 600.634L344.612 597.075C344.708 597.075 344.805 597.087 344.889 597.087C356.327 597.473 367.764 597.618 379.201 598.016C381.397 598.088 382.567 597.425 383.424 595.506C388.841 583.418 394.27 571.329 399.807 559.301C400.905 556.924 400.7 555.078 399.252 552.894L399.24 552.87ZM291.311 599.898C306.03 596.785 316.417 580.86 316.417 580.86C316.417 580.86 296.679 581.379 285.085 564.416H344.117C344.117 564.416 337.88 605.098 291.323 599.898H291.311ZM316.236 556.972C305.499 509.197 263.261 513.865 245.26 524.422C255.817 509.703 277.979 505.903 288.886 505.903C339.955 505.903 347.218 556.972 347.218 556.972H316.236Z" fill="white"/>
</g>
<defs>
<clipPath id="clip0_486_26124">
<rect width="588.34" height="843.807" fill="white"/>
</clipPath>
</defs>
</svg>
