<svg width="551" height="368" viewBox="0 0 551 368" fill="none" xmlns="http://www.w3.org/2000/svg">
<g clip-path="url(#clip0_486_26037)">
<path d="M535.21 213.52C525.1 198.98 511.01 188 492.93 180.55C489.67 179.21 486.31 177.99 482.87 176.89C497.25 169.46 508.77 159.43 517.39 146.8C526.96 132.78 531.75 116.25 531.75 97.21C531.75 68.83 519.96 45.98 496.38 28.67C472.79 11.36 437.61 2.71 390.8 2.71H369.68L324.39 66.06H380.16C401.08 66.06 417.13 69.61 428.29 76.7C439.46 83.8 445.04 94.44 445.04 108.63C445.04 122.82 439.46 133.99 428.29 141.08C417.12 148.18 401.07 151.72 380.16 151.72H231.38L339.12 0H263.36L173.84 124.77L136.19 73.95H54.11L133.46 181.05L0 367.08H78.47L172.83 234.19L201.13 272.38H283.2L239.21 213H395.06C417.4 213 434.33 216.72 445.85 224.16C457.37 231.61 463.14 242.94 463.14 258.17C463.14 273.4 457.37 285.09 445.85 292.18C434.32 299.28 417.39 302.82 395.06 302.82H155.13L109.84 366.17H401.44C450.37 366.17 487.42 357.43 512.6 339.95C537.77 322.47 550.36 298.15 550.36 267C550.36 245.89 545.31 228.06 535.2 213.52" fill="white"/>
</g>
<defs>
<clipPath id="clip0_486_26037">
<rect width="550.36" height="367.08" fill="white"/>
</clipPath>
</defs>
</svg>
