<svg xmlns="http://www.w3.org/2000/svg" width="551" height="368" fill="none"><g clip-path="url(#a)"><path fill="#fff" d="M535.21 213.52c-10.11-14.54-24.2-25.52-42.28-32.97-3.26-1.34-6.62-2.56-10.06-3.66 14.38-7.43 25.9-17.46 34.52-30.09 9.57-14.02 14.36-30.55 14.36-49.59 0-28.38-11.79-51.23-35.37-68.54C472.79 11.36 437.61 2.71 390.8 2.71h-21.12l-45.29 63.35h55.77c20.92 0 36.97 3.55 48.13 10.64 11.17 7.1 16.75 17.74 16.75 31.93 0 14.19-5.58 25.36-16.75 32.45-11.17 7.1-27.22 10.64-48.13 10.64H231.38L339.12 0h-75.76l-89.52 124.77-37.65-50.82H54.11l79.35 107.1L0 367.08h78.47l94.36-132.89 28.3 38.19h82.07L239.21 213h155.85c22.34 0 39.27 3.72 50.79 11.16 11.52 7.45 17.29 18.78 17.29 34.01 0 15.23-5.77 26.92-17.29 34.01-11.53 7.1-28.46 10.64-50.79 10.64H155.13l-45.29 63.35h291.6c48.93 0 85.98-8.74 111.16-26.22 25.17-17.48 37.76-41.8 37.76-72.95 0-21.11-5.05-38.94-15.16-53.48"/></g><defs><clipPath id="a"><path fill="#fff" d="M0 0h550.36v367.08H0z"/></clipPath></defs></svg>
