<svg xmlns="http://www.w3.org/2000/svg" width="161" height="161" fill="none"><g clip-path="url(#a)"><path fill="#E62D4F" d="M80.222 154.632c10.976 0 15.924-6.395 15.924-6.395v-4.093c42.867-42.867 32.124-91.41 32.124-91.41h-7.148v-11.12h-15.38l-13.15-13.15h-24.74l-13.15 13.15H39.323v11.12h-7.149s-10.744 48.543 32.124 91.412v4.093s4.947 6.395 15.923 6.395l.001-.002Z"/><path fill="#fff" d="m116.971 81.224-6.398-12.712a1.997 1.997 0 0 0-.506-.633c-3.848-3.175-11.52-2.131-12.38-2.002a1.971 1.971 0 0 0-1.52 1.18l-.527 1.241-1.617 1.189a1.966 1.966 0 0 0-.748 2.048l-.065.051a1.968 1.968 0 0 0-.647 2.218l.317.883a1.963 1.963 0 0 0-.145.408c-.65 2.761 1.056 7.11 1.404 7.955a1.973 1.973 0 0 0 1.341 1.158l3.288.824.469.639-10.426 10.875-2.342.98c.016-.1.027-.202.027-.305 0-4.75-2.377-7.241-2.648-7.509a1.985 1.985 0 0 0-.856-.497l-2.771-9.104a18.453 18.453 0 0 0-2.17-7.187 1.965 1.965 0 0 0-.124-.23c-.112-.2-.23-.398-.35-.593l-.04-.067-.098-.163a18.497 18.497 0 0 0-.54-.815l-.025-.035c-.154-.217-.314-.43-.472-.637l-.157-.2c-.142-.179-.286-.355-.432-.526l-.112-.133a18.01 18.01 0 0 0-.55-.605l-.16-.164a17.88 17.88 0 0 0-.463-.458l-.15-.144a17.303 17.303 0 0 0-.602-.54c-.035-.031-.072-.062-.109-.092l-.024-.02a19.056 19.056 0 0 0-.515-.417 16.722 16.722 0 0 0-.832-.616l-.05-.033a18.34 18.34 0 0 0-.638-.421l-.185-.115a19.576 19.576 0 0 0-.623-.368l-.081-.048a17.295 17.295 0 0 0-.844-.44l-.052-.026a18.005 18.005 0 0 0-.586-.274l-.243-.108a1.318 1.318 0 0 0-.101-.04 18.74 18.74 0 0 0-12.307-.783 3.911 3.911 0 0 0-.363.103l-.138.043a12.26 12.26 0 0 0-.878.296l-.036.013c-.05.016-.097.033-.144.05-.256.098-.52.206-.785.32l-.16.071-.067.03a14.72 14.72 0 0 0-.832.399 16.189 16.189 0 0 0-.784.42c-.181.103-.36.21-.535.32l-.059.036a20.04 20.04 0 0 0-.907.595 17.822 17.822 0 0 0-.88.661l-.048.038a15.803 15.803 0 0 0-.715.6c-.14.124-.276.248-.41.373-.082.077-.163.152-.242.229-.139.136-.275.274-.408.411l-.054.056a18.217 18.217 0 0 0-.7.771c-.04.045-.076.09-.113.136l-.041.052c-.13.155-.258.31-.384.472-.058.075-.114.148-.17.224l-.091.12c-.047.059-.091.12-.136.18-.027.037-.051.076-.077.114a18.71 18.71 0 0 0-3.334 13.133c.027.217.057.435.09.657l.028.167a18.237 18.237 0 0 0 .346 1.61l.033.135c.07.261.147.52.229.78l.06.179c.071.22.148.441.226.653l.055.145c.099.263.206.525.317.781l.05.114c.102.23.209.459.32.686l.068.136a17.677 17.677 0 0 0 .856 1.528l.08.126c.18.285.338.522.5.752.025.037.052.072.08.108a18.767 18.767 0 0 0 .663.873l.03.037c.14.173.282.342.426.509l.018.022a2.497 2.497 0 0 0 .197.22 18.542 18.542 0 0 0 3.584 3.086l1.744 1.761a1.967 1.967 0 0 0 .161 1.919l5.723 8.445a1.965 1.965 0 0 0-.358 2.652l2.637 3.735c.238.339.576.589.957.723l-.32.582a1.967 1.967 0 0 0 1.688 2.917l4.035.075h.037c.976 0 1.808-.716 1.947-1.686l.339-2.344 3.413 3.446a1.964 1.964 0 0 0 2.669.12c.028-.024.056-.051.083-.076a23.095 23.095 0 0 0 2.694 1.622l.242.754a1.97 1.97 0 0 0 1.622 1.35l4.936.637a1.952 1.952 0 0 0 1.125-.189c.368-.182 1.98-1 3.162-1.882l4.128.106a3.017 3.017 0 0 0 2.004-.699l3.658-3.061c.149-.12.293-.242.434-.363l.062-.051c.038-.032.075-.066.11-.1 2.252-2.001 3.344-4.022 3.391-4.108.016-.029.03-.06.045-.088l13.334-28.296a4.576 4.576 0 0 0-.085-4.055l.003-.005Z"/><path fill="#E62D4F" d="M142.599 32.07a6.608 6.608 0 0 0-.376-1.708 7.01 7.01 0 0 0-.351-.834c.279-.361.437-.81.437-1.286V23.68c0-.76-.408-1.46-1.07-1.835-2-1.133-3.05-1.696-5.106-2.736a7.193 7.193 0 0 0-1.595-.59c-.36-.085-.717-.1-1.064-.061a2.112 2.112 0 0 0-1.069-1.159 112.179 112.179 0 0 0-8.472-3.561 2.117 2.117 0 0 0-1.488.01 4.635 4.635 0 0 0-1.064-.802 9.543 9.543 0 0 0-1.48-.65 104.672 104.672 0 0 0-6.442-1.986 2.093 2.093 0 0 0-1.404.101 4.275 4.275 0 0 0-.512-.348 6.322 6.322 0 0 0-1.052-.484 11.598 11.598 0 0 0-1.155-.34c-.971-.236-1.478-.352-2.464-.57a8.81 8.81 0 0 0-1.633-.205c-.77-.02-1.498.22-2.114.685l-.037-.05-.035-.043c-.6-.725-1.318-1.213-2.141-1.454-.496-.146-.98-.255-1.443-.328-2.545-.4-3.867-.573-6.429-.84a2.123 2.123 0 0 0-1.515.44 2.097 2.097 0 0 0-1.405-.707 104.663 104.663 0 0 0-5.542-.32 2.112 2.112 0 0 0-2.163 1.814l-1.079 7.678c-.958-.008-1.584-.01-2.436 0v-1.113l.667-2.717a1.827 1.827 0 0 0-.35-1.58l-.015-.017.368-1.5a2.106 2.106 0 0 0-.403-1.821 2.124 2.124 0 0 0-1.693-.79c-2.03.044-3.082.089-5.112.218-.09.007-.18.02-.267.036a1.975 1.975 0 0 0-.275 0c-2.044.139-3.1.232-5.138.456-.082.01-.162.024-.242.041-.081 0-.163.003-.245.013-1.699.194-2.577.309-4.273.563a2.126 2.126 0 0 0-.856.33 2.13 2.13 0 0 0-.917-.053c-1.696.278-2.573.438-4.267.778-.498.099-.94.374-1.248.77a3.53 3.53 0 0 0-.542-.102 5.332 5.332 0 0 0-1.169.02 10.64 10.64 0 0 0-1.177.216c-.98.232-1.486.356-2.456.606a9.868 9.868 0 0 0-1.571.553c-.324.146-.626.34-.906.572a2.11 2.11 0 0 0-1.373-.067c-1.984.58-3.005.902-4.968 1.568-.081.027-.16.062-.236.099a1.962 1.962 0 0 0-.248.067c-1.49.512-2.257.789-3.725 1.347a2.112 2.112 0 0 0-1.314 1.528 2.107 2.107 0 0 0-2.003-.213c-1.528.63-2.315.972-3.826 1.656a2.101 2.101 0 0 0-1.112 1.205 2.105 2.105 0 0 0-1.635.082c-2.042.987-3.086 1.52-5.078 2.598a2.11 2.11 0 0 0-1.092 1.607c-.516 4.356-1.031 8.711-1.545 13.068l-.808 3.605a2.108 2.108 0 0 0 3.102 2.293 95.208 95.208 0 0 1 3.19-1.755 1.827 1.827 0 0 0 2.729 1.51 88.44 88.44 0 0 1 3.099-1.7c.464-.245.798-.678.922-1.18.48.194 1.025.176 1.494-.058a87.121 87.121 0 0 1 3.155-1.5c.032-.015.06-.036.09-.052.053-.017.107-.038.158-.062a91.038 91.038 0 0 1 3.208-1.392 1.826 1.826 0 0 0 1.104-1.397c.488.373 1.15.49 1.763.256a90.69 90.69 0 0 1 3.373-1.222c.077-.026.149-.058.22-.093.068-.014.135-.029.203-.051a85.954 85.954 0 0 1 3.79-1.208 2.099 2.099 0 0 0 1.214.054l.866-.217a1.814 1.814 0 0 0 1.633 1.01c.15 0 .303-.018.452-.057.73-.185 1.096-.275 1.828-.45a1.828 1.828 0 0 0 1.407-1.778v-.586a4.61 4.61 0 0 0 1.189-.738c.304-.257.574-.574.808-.934.123.109.25.211.387.296.33.206.675.354 1.029.437.283.067.56.1.82.1h.08a3.84 3.84 0 0 0 .557-.047.691.691 0 0 1 .075-.01c.127-.011.255-.027.378-.048a84.38 84.38 0 0 1 2.587-.406c.251-.037.501-.085.741-.145a4.87 4.87 0 0 0 .891-.312c.245-.113.479-.252.7-.414a1.822 1.822 0 0 0 1.353.402 88.848 88.848 0 0 1 4.467-.397c.08-.005.16-.018.239-.034.038.004.078.007.117.007.038 0 .081 0 .123-.005a97.945 97.945 0 0 1 7.905-.211h.026c.057 0 .115-.003.171-.008.056.006.114.01.171.012 1.381.02 2.055.039 3.427.101a1.815 1.815 0 0 0 1.353-.512c.31.378.767.628 1.284.664 1.368.096 2.037.152 3.402.291.041.005.082.005.123.007.037.006.074.014.112.018a88.7 88.7 0 0 1 5.651.739c.232.037.472.067.717.093a4.267 4.267 0 0 0 1.034-.02 3.588 3.588 0 0 0 1.115-.353c.166-.085.32-.19.469-.307.195.256.412.486.652.681.303.246.629.456.97.622.315.154.64.277.966.367.25.069.49.13.719.18.779.173 1.169.265 1.987.463.402.098.824.17 1.256.215a3.162 3.162 0 0 0 1.171-.088c.234.367.599.654 1.05.78a85.88 85.88 0 0 1 3.635 1.084c.418.132.864.108 1.259-.058.234.266.507.486.813.651.283.152.642.306 1.098.466.8.28 1.19.422 1.992.723.041.016.084.022.126.035.053.027.107.053.165.075a166.913 166.913 0 0 1 7.558 3.184c.151.068.306.112.464.136.128.114.272.212.431.287a90.384 90.384 0 0 1 4.552 2.31l.435.235c.398.216.832.359 1.291.424.134.02.269.03.402.03a2.9 2.9 0 0 0 1.454-.395c.35-.201.64-.481.872-.835a187.648 187.648 0 0 1 1.683.901c.451.245.943.408 1.464.482a3.31 3.31 0 0 0 2.111-.414c.763-.44 1.281-1.197 1.54-2.254a6.263 6.263 0 0 0 .156-1.168c.011-.292.017-.587.017-.88v-2.511c0-.415-.016-.837-.045-1.255l.004-.002Z"/><path fill="#fff" d="M27.29 19.989c.542 3.85 1.084 7.697 1.628 11.547.317 1.149.476 1.723.792 2.875a99.349 99.349 0 0 0-3.566 1.698l-.408-3.587c-.776.388-1.163.587-1.934.99l-.39 3.994c-1.41.744-2.111 1.13-3.503 1.923.332-1.485.497-2.227.832-3.709.517-4.392 1.037-8.784 1.558-13.176 1.98-1.07 2.978-1.58 4.992-2.554l-.002-.001Zm-3.247 10.707c.578-.3.867-.448 1.447-.74l-.717-6.16-.732 6.9h.002ZM39.891 17.99v9.079l.783 2.968c-1.533.526-2.295.803-3.813 1.382a4663.834 4663.834 0 0 0-3.358-7.696l.116 8.986a100.38 100.38 0 0 0-3.625 1.573l.761-3.583v-9.078l-.761-2.898a102.125 102.125 0 0 1 3.76-1.629c1.123 2.59 2.243 5.18 3.361 7.772l-.1-9.063c1.457-.553 2.19-.819 3.66-1.323l-.782 3.51h-.002ZM46.032 12.776l-.792 3.474v9.078l.792 3.005c-1.963.575-2.94.883-4.883 1.541.313-1.402.47-2.102.785-3.502v-9.079c-.313-1.192-.47-1.787-.785-2.976 1.942-.659 2.92-.966 4.883-1.54ZM55.44 21.335c0 .294-.003.606-.008.939-.006.331-.026.667-.06 1.005-.036.337-.097.67-.185.996a3.44 3.44 0 0 1-.376.895c-.163.27-.349.493-.558.672-.21.177-.427.321-.654.432-.228.109-.46.195-.698.257a33.06 33.06 0 0 1-.688.172v2.16c-.829.195-1.242.297-2.067.507l-.018-2.155c-.208.052-.432.104-.667.15-.237.046-.47.077-.7.086-.231.01-.45-.019-.659-.086a1.448 1.448 0 0 1-.57-.36 1.954 1.954 0 0 1-.525-1.174c-.052-.47-.084-.968-.095-1.495v-7.624c0-.278.003-.57.008-.873a8.04 8.04 0 0 1 .069-.901c.04-.298.1-.594.18-.888a3.25 3.25 0 0 1 .364-.84c.3-.509.651-.856 1.054-1.039a7.507 7.507 0 0 1 1.23-.433c.964-.248 1.447-.368 2.415-.597.36-.085.674-.142.94-.174.268-.032.503-.037.707-.016.203.02.38.078.532.17.15.09.291.22.42.383.127.163.233.344.315.54.081.195.142.428.184.699.04.27.07.58.088.93.017.348.025.751.025 1.206v6.456h-.003Zm-5.225-6.463v9.079a108.98 108.98 0 0 1 1.894-.466v-9.078c-.759.18-1.138.273-1.895.465ZM60.491 9.487v12.318c.696-.114 1.045-.17 1.742-.274V9.215a97.958 97.958 0 0 1 4.202-.552l-.795 3.332v8.132c0 .264-.003.537-.01.816a8.838 8.838 0 0 1-.062.856 4.85 4.85 0 0 1-.176.836 3.464 3.464 0 0 1-.336.759 2.35 2.35 0 0 1-.495.603 2.562 2.562 0 0 1-.564.362 3.33 3.33 0 0 1-.618.216 6.838 6.838 0 0 1-.635.123c-1.171.17-1.755.262-2.922.459a3.244 3.244 0 0 1-.246.032c-.082.006-.17.018-.264.034-.07.012-.18.02-.325.024a1.924 1.924 0 0 1-.483-.058 1.816 1.816 0 0 1-.536-.232 1.505 1.505 0 0 1-.482-.526 2.632 2.632 0 0 1-.332-1.204c-.025-.457-.036-.9-.036-1.326v-8.573l-.822-3.077c1.673-.334 2.512-.488 4.194-.763l.001-.001ZM71.963 8.159l-.816 3.297v9.079l.816 3.18c-2.022.138-3.032.228-5.05.448l.815-3.326V11.76l-.814-3.152a98.904 98.904 0 0 1 5.05-.448V8.16ZM77.52 7.91l-.8 3.258v9.079c.611-.018.917-.024 1.528-.034V17.46c1.28-.021 1.92-.023 3.198-.01v5.994a110.69 110.69 0 0 0-8.953.238l.816-3.288v-9.078l-.816-3.19c2.008-.129 3.014-.172 5.025-.217h.002ZM89.952 8.269c.586 4.157 1.17 8.313 1.754 12.472l.85 3.323a99.899 99.899 0 0 0-3.846-.33l-.443-3.82a103.77 103.77 0 0 0-2.112-.122l-.425 3.77c-1.55-.07-2.324-.093-3.874-.114l.925-3.224 1.723-12.27c2.18.076 3.272.139 5.448.313v.002Zm-3.531 8.848c.632.032.947.05 1.579.091l-.78-6.571-.8 6.48ZM99.143 9.357c.376.06.768.149 1.179.269.409.12.779.379 1.107.774.187.239.336.504.448.797.11.291.19.594.237.902.046.31.077.621.088.931.011.31.017.613.017.908v7.272c0 .528-.025 1.081-.078 1.66-.053.578-.208 1.064-.466 1.458a1.421 1.421 0 0 1-.518.482c-.194.099-.395.163-.606.193-.212.03-.431.034-.66.012a11.49 11.49 0 0 1-.676-.087c-2.55-.402-3.828-.57-6.39-.835l.796-3.154v-9.078c-.318-1.331-.478-1.995-.797-3.325 2.535.264 3.8.429 6.32.826l-.001-.005ZM97.01 12.28v9.079c.734.102 1.1.155 1.833.268V12.55c-.732-.114-1.099-.166-1.833-.269ZM112.031 23.013c0 .337-.003.693-.008 1.065a8.3 8.3 0 0 1-.087 1.079 4.052 4.052 0 0 1-.259.955 1.568 1.568 0 0 1-.545.693 1.474 1.474 0 0 1-1.04.26 8.52 8.52 0 0 1-1.13-.191c-.898-.218-1.346-.322-2.246-.523a13.04 13.04 0 0 1-.698-.177 4.273 4.273 0 0 1-.725-.275 3.556 3.556 0 0 1-.681-.438 2.58 2.58 0 0 1-.568-.666 3.495 3.495 0 0 1-.474-1.393 20.077 20.077 0 0 1-.088-1.472v-7.624c0-.279.003-.568.008-.87.006-.298.029-.588.07-.866.04-.279.103-.546.184-.802a1.87 1.87 0 0 1 .368-.666c.304-.364.66-.542 1.068-.53.408.01.82.063 1.24.156.969.215 1.454.325 2.42.56.359.086.672.18.938.275.266.096.501.204.702.322.202.118.38.26.528.422.151.163.29.359.416.584.127.224.231.455.312.69.08.234.141.498.183.787.04.29.069.614.086.971.018.357.026.763.026 1.22v6.456-.002Zm-5.176-8.949v9.078c.733.165 1.097.25 1.829.425v-9.079a92.558 92.558 0 0 0-1.829-.424ZM119.226 14.295c.385.131.769.299 1.149.505.379.207.721.535 1.027.981.169.251.302.506.398.762.096.254.167.512.211.771.045.26.074.523.085.792.011.269.018.534.018.8 0 .515-.008.98-.026 1.402-.017.42-.081.782-.195 1.086a1.625 1.625 0 0 1-.517.728c-.232.18-.557.285-.976.315a.508.508 0 0 0 .128.1c.04.02.077.044.111.071.089.061.224.167.398.319.174.15.346.387.517.693.217.387.361.774.406 1.15.045.376.074.765.085 1.166v1.676l.795 3.532c-.899-.336-1.35-.499-2.254-.817a6.614 6.614 0 0 1-.927-.387c-.22-.12-.4-.306-.536-.557a1.534 1.534 0 0 1-.204-.498 4.074 4.074 0 0 1-.052-.755v-4.715a85.78 85.78 0 0 0-1.864-.607v6.325a103.063 103.063 0 0 0-4.11-1.224l.776-3.02v-9.087l-.776-3.46c2.549.711 3.816 1.102 6.331 1.953h.002Zm-2.221 5.597c.747.236 1.12.358 1.864.606v-3.085a87.594 87.594 0 0 0-1.864-.606v3.085ZM131.509 19.21V24.3a221.791 221.791 0 0 0-2.666-3.051 95.806 95.806 0 0 0-1.699-.725v2.952c.962.402 1.442.608 2.397 1.032v2.864a97.262 97.262 0 0 0-2.397-1.032v3.26c.682.286 1.021.431 1.699.726 1.144-.304 1.714-.448 2.847-.72v5.245a185.571 185.571 0 0 0-8.495-3.58l.776-2.944V19.25l-.776-3.536a110.625 110.625 0 0 1 8.314 3.494v.002ZM140.198 28.242a181.014 181.014 0 0 0-2.747-2.832 93.383 93.383 0 0 0-1.734-.906v2.843c.838.43 1.256.65 2.089 1.096l.274.147c.096.053.195.122.29.18.059.036.171.104.321.208.151.104.317.248.498.428.182.181.369.407.561.677.192.269.349.602.48.976.143.405.237.795.264 1.163.028.368.04.736.04 1.103v2.512c0 .264-.004.53-.016.795a4.16 4.16 0 0 1-.096.749c-.116.477-.297.785-.544.926-.246.141-.502.192-.769.155a2.217 2.217 0 0 1-.747-.244l-.492-.266a100.924 100.924 0 0 0-5.144-2.611v-4.76c1.202 1.182 1.8 1.784 2.991 3.001a104.2 104.2 0 0 1 1.734.906v-3.13a96.015 96.015 0 0 0-2.288-1.187 6.011 6.011 0 0 1-.245-.134 3.86 3.86 0 0 0-.244-.133 2.864 2.864 0 0 1-.728-.547 5.289 5.289 0 0 1-.484-.567 4.315 4.315 0 0 1-.459-.806 4.142 4.142 0 0 1-.353-1.25 23.507 23.507 0 0 1-.09-1.233v-2.578c.022-.43.058-.817.107-1.161.05-.344.184-.632.402-.864.285-.303.611-.413.982-.325.371.086.746.227 1.127.419a102.126 102.126 0 0 1 5.019 2.69v4.561l.001-.001ZM102.371 44.73l-1.473 1.47-11.067-11.069H70.612l-11.067 11.07-1.472-1.471L69.75 33.05h20.942L102.37 44.73Z"/><path fill="#fff" d="m124.466 58.253-.096-.934h-7.832V46.2H106.26v2.082h8.198V59.4h8.029c.395 4.45.693 12.58-.866 22.447a99.264 99.264 0 0 1-8.531 27.369c-5.214 10.898-12.501 21.064-21.656 30.218l-1.952 1.952v3.939c-1.575 1.104-4.605 2.643-9.26 2.643-4.654 0-7.684-1.541-9.258-2.643v-3.939l-1.953-1.952c-9.155-9.155-16.44-19.322-21.655-30.218a99.23 99.23 0 0 1-8.532-27.37C37.266 71.98 37.565 63.85 37.96 59.4h8.028V48.282h8.199V46.2H43.907V57.32h-7.831l-.096.934c-.44 4.282-.922 13.082.79 23.918a101.352 101.352 0 0 0 8.709 27.943c5.316 11.11 12.739 21.469 22.06 30.79l1.343 1.343v4.115l.405.312c1.633 1.261 5.225 3.374 10.936 3.374 5.71 0 9.302-2.115 10.936-3.374l.404-.312v-4.115l1.343-1.343c9.322-9.321 16.744-19.681 22.061-30.79a101.356 101.356 0 0 0 8.709-27.943c1.712-10.835 1.23-19.636.79-23.918Z"/><path fill="#FCDDAC" d="M79.501 134.251v.999h-4.232v.969h3.466v.922h-3.466v1.638h-1.266v-4.528h5.498ZM86.567 137.042c-.037.398-.18.734-.426 1.008-.247.275-.597.483-1.055.625-.457.143-1.016.215-1.676.215-.53 0-1.008-.045-1.437-.133a3.384 3.384 0 0 1-1.1-.415 1.95 1.95 0 0 1-.703-.727c-.163-.298-.247-.658-.247-1.08 0-.423.082-.785.247-1.087a2 2 0 0 1 .702-.741 3.445 3.445 0 0 1 1.1-.429 6.87 6.87 0 0 1 1.438-.14c.66 0 1.22.075 1.68.225.459.151.813.365 1.057.647.245.281.386.624.418 1.027h-1.287a1.006 1.006 0 0 0-.302-.467c-.145-.13-.347-.229-.605-.303a3.597 3.597 0 0 0-.963-.109c-.474 0-.872.052-1.195.151-.323.101-.568.253-.734.454-.167.202-.25.459-.25.773s.083.549.25.746c.166.196.41.344.734.443.323.098.722.147 1.195.147.384 0 .704-.034.96-.102a1.48 1.48 0 0 0 .602-.292c.145-.126.248-.271.308-.435h1.287l.002-.001ZM56.485 52.563a.914.914 0 1 0 0-1.827.914.914 0 0 0 0 1.828ZM56.485 56.688a.914.914 0 1 0 0-1.827.914.914 0 0 0 0 1.827ZM68.973 53.269a.843.843 0 1 0 0-1.686.843.843 0 0 0 0 1.686ZM91.47 53.269a.843.843 0 1 0 0-1.686.843.843 0 0 0 0 1.686ZM80.223 144a.843.843 0 1 0 0-1.686.843.843 0 0 0 0 1.686ZM52.429 56.688a.914.914 0 1 0 0-1.827.914.914 0 0 0 0 1.827Z"/><path fill="#F8C6B5" d="m98.147 68.81 7.647-.197 3.115 1.774 5.709 13.29-14.082 29.627-7.067 5.443h-5.13l-2.665 2.483-4.255-.896-2.785-2.216s-3.47 1.1-10.759-8.124c-5.382-6.812-11.46-12.674-11.46-12.674l3.814-2.144s4.208 2.614 7.645.976c3.582-1.709 7.505-4.54 9.573-12.718l2.263 2.46s4.028 6.412 5.6 14.695l6.562-2.106 10.679-12.262-2.453-3.947-3.73-.952-.944-4.54.54-1.707-.585-1.768 1.123-1.173v-1.33l1.305-.655.34-1.341v.002Z"/><path fill="#FCE0D9" d="m98.147 68.81 7.647-.197 3.115 1.774 5.709 13.29-14.082 29.627-7.067 5.443h-5.13l-2.665 2.483-4.255-.896-2.785-2.216s-3.47 1.1-10.759-8.124c-5.382-6.812-11.46-12.674-11.46-12.674l3.814-2.144s4.208 2.614 7.645.976c3.582-1.709 7.505-4.54 9.573-12.718l2.263 2.46s4.028 6.412 5.6 14.695l6.562-2.106 10.679-12.262-2.453-3.947-3.73-.952-.944-4.54.54-1.707-.585-1.768 1.123-1.173v-1.33l1.305-.655.34-1.341v.002Z" style="mix-blend-mode:multiply"/><path fill="#CEDDE2" d="M50.688 78.39c0-2.282.504-4.513 1.458-6.543-2.683 2.545-4.247 6.096-4.247 9.94 0 7.57 6.157 13.728 13.725 13.728 2.479 0 4.888-.673 6.983-1.91C59.355 95.2 50.6 87.794 50.688 78.391Z" opacity=".94"/><path fill="url(#b)" d="M97.88 75.848s-1.334 2.029.267 5.63l-1.456.1-.856-5.58 2.044-.15h.001Z" opacity=".83" style="mix-blend-mode:hard-light"/><path fill="#FCDDAC" d="M103.959 52.563a.913.913 0 1 0 0-1.826.913.913 0 0 0 0 1.826ZM103.959 56.688a.913.913 0 1 0 0-1.827.913.913 0 0 0 0 1.827ZM108.015 56.688a.913.913 0 1 0 0-1.827.913.913 0 0 0 0 1.827Z"/><path fill="#fff" d="m77.565 101.992-8.31-7.372 2.529-2.388 5.78 9.76ZM82.21 46.526l3.637 1.99-3.637 1.986-1.987 7.348-1.99-7.348-3.634-1.987 3.635-1.989 1.989-4.873 1.987 4.873Z"/><path fill="url(#c)" d="M96.502 75.166s.167-2.134 1.335-2.404-1.509-.565-1.509-.565l-1.184 1.992 1.357.976.001.001Z" opacity=".83" style="mix-blend-mode:hard-light"/><path fill="url(#d)" d="M97.571 70.42s-1.013.787-.638 1.716l.406-.041s.816-1.652.722-1.676c-.095-.024-.49 0-.49 0Z"/><path fill="url(#e)" d="m98.277 73.858 6.483-.86-.989-1.12-5.267.853-.227 1.127Z" opacity=".83" style="mix-blend-mode:hard-light"/><path fill="url(#f)" d="M98.437 71.487h5.16v-1.324l-4.915-.112-.245 1.436Z" opacity=".83" style="mix-blend-mode:hard-light"/><path fill="#E62D4F" d="m67.886 84.277-2.17-6.992-7.32-.096-2.355 6.933 5.866 4.38 5.98-4.225Z"/><path fill="#E62D4F" d="m60.229 97.963-1.222-1.705 2.622 1.864.51.361c.405-.01.81-.038 1.213-.08.093-.01.186-.019.277-.03l.235-.03a.59.59 0 0 0 .056-.008l.264-.039a8.797 8.797 0 0 0 .327-.054l.108-.02.157-.028c.07-.013.14-.028.208-.042.015-.003.03-.005.045-.01.05-.01.1-.02.147-.031l5.8 7.161 2.069 2.554 2.79 3.446-1.564-2.723c4.201-2.688 7.201-6.011 8.76-8.122l-2.234-3.995a28.177 28.177 0 0 1-3.805 4.459l.576 1.103-.9-.799c-.533.493-1.065.947-1.588 1.365l-1.773-1.354.884 2.036a26.377 26.377 0 0 1-2.148 1.433l-4.233-7.368c.973-.389 1.92-.872 2.83-1.456l-1.667-1.478c-.912.534-1.862.958-2.835 1.275l-3.776-2.507-.157-3.717-.512.02.157 3.718-3.55 2.814a14.503 14.503 0 0 1-7.495-4.432l-.47-1.326.974-4.114-4.14-2.52c-.34-2.757.12-5.562 1.311-8.066l2.938-2.937 3.467.056 2.789 3.971.419-.294-2.789-3.971 1.47-4.285a14.602 14.602 0 0 1 11.386.712l.987 4.747 4.818.528a14.472 14.472 0 0 1 2.18 6.494l-1.15 3.503-2.974 1.881 1.2 4.698a14.93 14.93 0 0 1-.808.971l-.624.647 5.048 8.356-3.066-7.33c.181-.19.359-.385.528-.583h.002a16.9 16.9 0 0 0 .909-1.159c.024-.032.045-.065.067-.097.115-.163.227-.327.336-.493.037-.056.072-.114.107-.171.091-.144.183-.288.269-.434.043-.072.083-.145.125-.218.077-.132.152-.265.224-.4.045-.083.086-.167.131-.25.064-.127.13-.252.19-.38.045-.093.087-.186.13-.278a14.785 14.785 0 0 0 .429-1.015c.041-.107.08-.214.12-.323a14.166 14.166 0 0 0 .227-.678l.08-.263 6.523 13.301-.246-.808c.366-.394.611-1.789.611-1.789 0-4.065-2.066-6.11-2.066-6.11-.1.214-.148 1.773-.238 2.342L78.28 80.491a16.62 16.62 0 0 0-2.01-6.723v-.003c-.015-.032-.035-.063-.054-.094a18.42 18.42 0 0 0-.317-.543c-.041-.069-.081-.138-.124-.205a18.866 18.866 0 0 0-.479-.725l-.014-.019a18.157 18.157 0 0 0-.437-.59l-.138-.176c-.128-.16-.257-.319-.388-.474l-.1-.116c-.16-.186-.324-.365-.492-.541l-.141-.146c-.135-.14-.272-.275-.411-.408l-.138-.133a15.47 15.47 0 0 0-.54-.483l-.118-.1a14.873 14.873 0 0 0-.622-.498 16.542 16.542 0 0 0-.584-.43l-.042-.026c-.187-.13-.376-.253-.568-.375l-.168-.105a15.35 15.35 0 0 0-.539-.319l-.091-.052c-.208-.117-.42-.228-.632-.333-.056-.03-.112-.055-.17-.084a16.966 16.966 0 0 0-.52-.243l-.155-.069-.07-.031h-.003a16.757 16.757 0 0 0-11.212-.703L57 65.741c-.093.027-.186.058-.279.086-.093.03-.187.056-.28.087-.187.06-.374.126-.56.195-.051.02-.102.035-.153.054-.237.09-.47.186-.704.287-.068.028-.135.06-.202.09a23.62 23.62 0 0 0-.504.234 17.517 17.517 0 0 0-.704.367c-.08.045-.162.088-.242.134-.161.091-.321.188-.481.287l-.199.121a14.727 14.727 0 0 0-1.306.917c-.063.05-.126.103-.19.152a17.908 17.908 0 0 0-.64.536 18.4 18.4 0 0 0-.582.538c-.125.121-.246.245-.366.368a14.693 14.693 0 0 0-.677.74c-.047.053-.09.11-.136.164-.117.139-.23.278-.343.42l-.188.25c-.056.074-.114.147-.168.222v.005a16.756 16.756 0 0 0-3.08 11.58c.01.087.019.177.03.265a18.287 18.287 0 0 0 .106.736 15.072 15.072 0 0 0 .168.855c.043.195.09.39.14.584.012.04.02.081.03.121.063.232.132.464.206.695l.052.163c.066.198.133.395.207.59l.046.126c.09.234.184.468.283.7l.045.1c.091.207.186.41.285.613.02.04.038.082.06.122.116.233.238.465.366.694.003.007.008.013.01.02.124.22.255.438.39.654l.07.114c.142.224.288.446.442.665l.076.104c.141.199.287.392.434.583.062.08.126.156.189.235.125.155.253.305.382.454.039.043.074.091.112.135h.005a16.652 16.652 0 0 0 3.458 2.956H52.6l13.27 13.4-5.646 1.768 2.637 3.735 3.768-4.736.938.947-3.952 7.179 4.035.075.904-6.257 6.195 6.257-14.525-20.256.005-.008Z"/><path fill="#E62D4F" d="m115.221 82.125-6.406-12.727c-3.283-2.707-10.837-1.572-10.837-1.572l-.83 1.961-.192-.013-1.768 1.3.51 1.072-1.282.995.823 2.3-.589.106c-.538 2.285 1.309 6.752 1.309 6.752l3.977.997 1.869 2.544-11.853 12.365-6.137 2.569-5.183 7.127.83.206 4.916-5.31 4.104-1.634-2.3 4.626c-.105.197.158.379.305.211l16.405-18.68.268.367-2.329 4.254 6.377-6.746-.902-1.313s.069.579-1.32 1.833c-1.389 1.255-2.41-.806-3.573-3.718-.299-.749-.283-1.386-.096-1.917l1.802.866c.11.053.216-.079.142-.176l-1.31-1.696c.782-.826 1.881-1.199 1.881-1.199l.42-.493-5.928 1.12.537.628c1.613.179 1.165.85 1.299 1.478.135.627.135.851-1.388.627-1.524-.224-1.434-.09-1.972-1.702-.672-3.226.045-3.672.045-3.672l1.226.918 2.71-1.68 2.808-.349-.094-.816-6.86 1.252c-1.32-1.642.343-2.39.343-2.39l1.3 1.062 1.594-.788 3.652-.14.249-1.05h-6.611c.03-.614.346-.9.346-.9l.93.508 1.986-.528 2.612-.104-.136-.675-4.453-.304c.094-.447.512-.82 1.693-.749 3.467.016 6.044.514 7.478.879l-1.72.295.258.658s.059.119 1.016-.117c.958-.235 1.144.479 1.144.479l5.374 12.443s-10.619 24.281-15.197 29.934c-2.045 1.034 1.837-7.761 2.635-9.848.063-.161-.118-.31-.265-.217a5.41 5.41 0 0 0-1.96 2.169l.006-.021-.057.124c-.018.035-.034.07-.05.107l-5.115 10.937c-2.042 1.672-4.827 1.284-6.919.21-.928-.477-.817-1.659-.304-2.973 1.688-2.872 5.527-7.424 5.527-7.424l.013-.024 2.547-2.533 4.112-8.57c.157-.329-.27-.62-.519-.354l-13.547 18.827s-2.65 3.525 1.811 5.269c-.763.412-2.179.83-4.163-.012-3.417-2.646-3.585-8.963-3.585-8.963l-.597-1.229c-.696 2.522-.712 4.468-.403 5.951-1.087-.178-3.135-.778-5.917-2.768-.141-.101-.315.077-.211.216 1.193 1.582 4.26 5.169 8.883 7.297l.499 1.556 4.936.636s2.4-1.188 3.354-2.105l4.864.125c.25.006.496-.08.69-.24l3.67-3.072c.14-.114.276-.228.408-.343l.075-.062h-.005c2.062-1.81 3.034-3.626 3.034-3.626l13.334-28.296a2.595 2.595 0 0 0-.054-2.315l.001-.003ZM67.874 106.559l3.2 3.8c.528-.266 1.299-.679 1.791-.96l-3.433-3.408c-1.115.494-1.558.568-1.558.568Z"/><path fill="#E62D4F" d="M108.115 77.06h.6c.093-1.126-.58-2.276-.58-2.276-.648-.331-2.506 0-2.506 0v.584s1.55.037 1.773.15c.371.19.715 1.541.715 1.541h-.002ZM107.271 73.082c.44.121.957 1.398.957 1.398h.58c.093-1.125-.676-2.242-.676-2.242-.648-.33-2.599.24-2.599.24v.564s1.496-.026 1.738.04ZM109.556 80.016l-.74.54 1.277 2.583.715-.499-1.252-2.624ZM105.794 89.443l-1.343.263-3.569 9.715 1.622-.654 3.29-9.324ZM65.722 76.897l.379.343 2.566-2.822-.377-.348-2.568 2.828ZM68.278 84.154l-.19.475 3.18 1.264.189-.476-3.18-1.263ZM55.293 84.155l-3.389 1.415.198.473 3.388-1.416-.197-.472ZM81.416 117.461l1.94.304c-.727-1.255-.2-2.488-.2-2.488l-1.74 2.184ZM61.9 108.014l-7.017-8.059 6.355 9.376.661-1.317ZM48.648 79.517a13.286 13.286 0 0 0-.168 3.227l1.839 1.12c-.461-.921-1.613-3.678-.893-7.064a13.277 13.277 0 0 0-.78 2.717h.002ZM59.679 93.096c-.992.258-3.275.594-5.903-.73a13.249 13.249 0 0 0 4.202 2.08l1.7-1.35ZM69.194 92.57a13.328 13.328 0 0 0 1.963-1.683c-2.477 1.897-5.26 2.041-6.72 1.955l1.893 1.256a13.211 13.211 0 0 0 2.865-1.528h-.001ZM57.867 69.157 57 71.687c.723-.792 2.58-2.557 5.131-3.061a13.17 13.17 0 0 0-4.262.531h-.002ZM69.216 82.226a9.957 9.957 0 0 1-.157-.277l-.961-1.704.924 2.98 1.392.553a8.03 8.03 0 0 1-1.17-1.504l-.026-.048h-.002Z"/></g><defs><linearGradient id="b" x1="95.178" x2="98.021" y1="76.717" y2="79.408" gradientUnits="userSpaceOnUse"><stop stop-color="#fff" stop-opacity="0"/><stop offset=".21" stop-color="#fff" stop-opacity=".25"/><stop offset=".5" stop-color="#fff" stop-opacity=".57"/><stop offset=".73" stop-color="#fff" stop-opacity=".8"/><stop offset=".91" stop-color="#fff" stop-opacity=".95"/><stop offset="1" stop-color="#fff"/></linearGradient><linearGradient id="c" x1="95.146" x2="98.133" y1="73.682" y2="73.682" gradientUnits="userSpaceOnUse"><stop stop-color="#fff" stop-opacity="0"/><stop offset=".21" stop-color="#fff" stop-opacity=".25"/><stop offset=".5" stop-color="#fff" stop-opacity=".57"/><stop offset=".73" stop-color="#fff" stop-opacity=".8"/><stop offset=".91" stop-color="#fff" stop-opacity=".95"/><stop offset="1" stop-color="#fff"/></linearGradient><linearGradient id="d" x1="96.85" x2="98.069" y1="71.272" y2="71.272" gradientUnits="userSpaceOnUse"><stop stop-color="#fff" stop-opacity="0"/><stop offset=".21" stop-color="#fff" stop-opacity=".25"/><stop offset=".5" stop-color="#fff" stop-opacity=".57"/><stop offset=".73" stop-color="#fff" stop-opacity=".8"/><stop offset=".91" stop-color="#fff" stop-opacity=".95"/><stop offset="1" stop-color="#fff"/></linearGradient><linearGradient id="e" x1="99.771" x2="103.259" y1="72.523" y2="73.482" gradientUnits="userSpaceOnUse"><stop stop-color="#fff"/><stop offset=".09" stop-color="#fff" stop-opacity=".95"/><stop offset=".27" stop-color="#fff" stop-opacity=".8"/><stop offset=".5" stop-color="#fff" stop-opacity=".57"/><stop offset=".79" stop-color="#fff" stop-opacity=".25"/><stop offset="1" stop-color="#fff" stop-opacity="0"/></linearGradient><linearGradient id="f" x1="102.517" x2="100.216" y1="72.634" y2="69.859" gradientUnits="userSpaceOnUse"><stop stop-color="#fff" stop-opacity="0"/><stop offset=".21" stop-color="#fff" stop-opacity=".25"/><stop offset=".5" stop-color="#fff" stop-opacity=".57"/><stop offset=".73" stop-color="#fff" stop-opacity=".8"/><stop offset=".91" stop-color="#fff" stop-opacity=".95"/><stop offset="1" stop-color="#fff"/></linearGradient><clipPath id="a"><path fill="#fff" d="M17.8 5.8h124.843v148.832H17.8z"/></clipPath></defs></svg>