<svg width="98" height="37" viewBox="0 0 98 37" fill="none" xmlns="http://www.w3.org/2000/svg">
<g clip-path="url(#clip0_747_35718)">
<path fill-rule="evenodd" clip-rule="evenodd" d="M2.46116 29.1294H3.03871C3.88805 29.1294 4.61121 29.4595 4.61121 30.4204C4.61121 31.3814 3.86379 31.6532 3.03871 31.6532H2.46116V29.1343V29.1294ZM0.806152 36.0843H2.46116V32.9491H3.16004C4.93153 32.9491 6.34387 32.2502 6.34387 30.3234C6.34387 28.3966 4.69857 27.8287 2.90282 27.8287H0.806152V36.0843Z" fill="white"/>
<path fill-rule="evenodd" clip-rule="evenodd" d="M6.9895 33.0802C6.9895 34.8322 8.15917 36.2252 10.1733 36.2252C12.1875 36.2252 13.3669 34.8274 13.3669 33.0802C13.3669 31.0709 11.9836 29.8527 10.1733 29.8527C8.36301 29.8527 6.9895 31.0709 6.9895 33.0802ZM8.64451 32.8909C8.64451 31.9784 9.13955 31.0806 10.1733 31.0806C11.2071 31.0806 11.7118 31.9542 11.7118 32.8909C11.7118 33.9101 11.3915 34.9973 10.1733 34.9973C8.95512 34.9973 8.64451 33.8955 8.64451 32.8909Z" fill="white"/>
<path fill-rule="evenodd" clip-rule="evenodd" d="M14.6431 36.0844H16.2301V33.8519C16.2301 32.9734 16.2301 31.3669 17.5211 31.3669C17.8026 31.3669 18.089 31.4155 18.2297 31.498V29.9012C18.0647 29.8527 17.8997 29.8527 17.7444 29.8527C16.798 29.8527 16.1476 30.8088 16.0797 31.3766H16.0554V29.9934H14.6479V36.0844H14.6431Z" fill="white"/>
<path fill-rule="evenodd" clip-rule="evenodd" d="M19.7297 34.2499C19.7297 35.4583 20.4141 36.2252 21.6565 36.2252C22.1273 36.2252 22.4962 36.1766 22.8262 36.0844L22.7825 34.8323C22.6175 34.939 22.3457 34.9973 22.0593 34.9973C21.4575 34.9973 21.3168 34.5119 21.3168 33.9926V31.1534H22.7243V29.9934H21.3168V28.2656L19.7297 28.7752V29.9934H18.5601V31.1534H19.7297V34.2547V34.2499Z" fill="white"/>
<path fill-rule="evenodd" clip-rule="evenodd" d="M28.3591 33.022C28.3591 32.2066 28.6454 31.0806 29.6695 31.0806C30.6936 31.0806 31.0915 32.1678 31.0915 33.022C31.0915 33.8762 30.7469 34.9973 29.6938 34.9973C28.6406 34.9973 28.3542 33.8616 28.3542 33.022H28.3591ZM31.1498 36.0845H32.6883V27.2125H31.1012V30.702H31.077C30.6013 30.1245 30.0481 29.8479 29.2521 29.8479C27.3835 29.8479 26.6992 31.3378 26.6992 33.0171C26.6992 34.6964 27.3835 36.2252 29.2521 36.2252C29.9995 36.2252 30.6499 35.9874 31.1207 35.3953H31.1449V36.0796L31.1498 36.0845Z" fill="white"/>
<path fill-rule="evenodd" clip-rule="evenodd" d="M35.4447 32.4444C35.5175 31.629 35.964 31.0126 36.8522 31.0126C37.7403 31.0126 38.0946 31.6727 38.1432 32.4444H35.4447ZM39.2061 34.4537C38.6139 34.7837 37.9539 35.07 37.1822 35.07C36.2018 35.07 35.5175 34.5119 35.4447 33.5315H39.6574C39.6574 31.4009 39.0168 29.8527 36.7599 29.8527C34.8671 29.8527 33.9304 31.3087 33.9304 33.0705C33.9304 35.0701 35.1001 36.23 37.1142 36.23C37.9636 36.23 38.6285 36.065 39.2061 35.7447V34.4537Z" fill="white"/>
<path fill-rule="evenodd" clip-rule="evenodd" d="M46.9375 32.3958H47.7189C48.5439 32.3958 49.4224 32.5608 49.4224 33.6382C49.4224 34.5944 48.4857 34.7836 47.7189 34.7836H46.9375V32.3958ZM46.9375 29.1294H47.5781C48.3353 29.1294 49.1749 29.2022 49.1749 30.1584C49.1749 31.0126 48.311 31.163 47.6121 31.163H46.9375V29.1294ZM45.2825 36.0843H48.1702C49.2137 36.0843 51.0774 35.7786 51.0774 33.6965C51.0774 32.6773 50.3106 31.9201 49.1846 31.8134V31.7891C50.165 31.6095 50.8299 30.9252 50.8299 29.9448C50.8299 28.1345 49.2331 27.8287 48.1702 27.8287H45.2825V36.0843Z" fill="white"/>
<path fill-rule="evenodd" clip-rule="evenodd" d="M52.6837 31.6727C53.2176 31.2698 53.8873 31.0126 54.5668 31.0126C55.4987 31.0126 55.9355 31.3427 55.9355 32.323H55.0619C54.4018 32.323 53.6204 32.3813 53.0137 32.6773C52.4119 32.9734 51.9751 33.5073 51.9751 34.4148C51.9751 35.5748 53.0283 36.2252 54.1009 36.2252C54.824 36.2252 55.6151 35.8466 55.984 35.172H56.0083C56.018 35.3613 56.018 35.7641 56.0762 36.0844H57.474C57.4352 35.6088 57.4157 35.1865 57.4012 34.7255C57.3866 34.2789 57.3769 33.813 57.3769 33.2015V32.4201C57.3769 30.6243 56.6101 29.8527 54.7512 29.8527C54.0766 29.8527 53.2515 30.0322 52.6352 30.3137L52.6837 31.6727ZM53.4894 34.3226C53.4894 33.3859 54.5425 33.2694 55.2511 33.2694H55.9355C55.9355 33.7451 55.8675 34.1819 55.6054 34.5216C55.3579 34.8516 54.9793 35.0652 54.494 35.0652C53.9262 35.0652 53.4894 34.8419 53.4894 34.3226Z" fill="white"/>
<path fill-rule="evenodd" clip-rule="evenodd" d="M58.9787 36.0844H60.5609V33.8519C60.5609 32.9734 60.5609 31.3669 61.8519 31.3669C62.1383 31.3669 62.4198 31.4155 62.5605 31.498V29.9012C62.3955 29.8527 62.2305 29.8527 62.0752 29.8527C61.1288 29.8527 60.4784 30.8088 60.4056 31.3766H60.3814V29.9934H58.9739V36.0844H58.9787Z" fill="white"/>
<path fill-rule="evenodd" clip-rule="evenodd" d="M67.4186 30.0516C66.9818 29.9206 66.5207 29.8478 65.8801 29.8478C63.9776 29.8478 62.9341 31.2456 62.9341 33.0073C62.9341 34.8662 63.9387 36.2251 65.9383 36.2251C66.5887 36.2251 67.0595 36.1669 67.5205 36.0213L67.4477 34.706C67.1759 34.8225 66.6809 34.9924 66.2295 34.9924C65.1181 34.9924 64.5842 34.1285 64.5842 33.0025C64.5842 31.8765 65.2103 31.0757 66.1956 31.0757C66.6809 31.0757 66.9867 31.1728 67.273 31.2989L67.4138 30.0468L67.4186 30.0516Z" fill="white"/>
<path fill-rule="evenodd" clip-rule="evenodd" d="M69.7 32.4444C69.7728 31.629 70.2194 31.0126 71.1075 31.0126C71.9957 31.0126 72.35 31.6727 72.3985 32.4444H69.7ZM73.4614 34.4537C72.8693 34.7837 72.2092 35.07 71.4376 35.07C70.4572 35.07 69.7728 34.5119 69.7 33.5315H73.9128C73.9128 31.4009 73.2721 29.8527 71.0153 29.8527C69.1225 29.8527 68.1858 31.3087 68.1858 33.0705C68.1858 35.0701 69.3555 36.23 71.3696 36.23C72.219 36.23 72.8839 36.065 73.4614 35.7447V34.4537Z" fill="white"/>
<path d="M76.776 27.2125H75.189V36.0845H76.776V27.2125Z" fill="white"/>
<path fill-rule="evenodd" clip-rule="evenodd" d="M78.0479 33.0802C78.0479 34.8322 79.2175 36.2252 81.2268 36.2252C83.2361 36.2252 84.4204 34.8274 84.4204 33.0802C84.4204 31.0709 83.0371 29.8527 81.2268 29.8527C79.4165 29.8527 78.0479 31.0709 78.0479 33.0802ZM79.7029 32.8909C79.7029 31.9784 80.1979 31.0806 81.2268 31.0806C82.2557 31.0806 82.7653 31.9542 82.7653 32.8909C82.7653 33.9101 82.445 34.9973 81.2268 34.9973C80.0086 34.9973 79.7029 33.8955 79.7029 32.8909Z" fill="white"/>
<path fill-rule="evenodd" clip-rule="evenodd" d="M85.6677 36.0844H87.2548V33.1044C87.2548 32.323 87.5023 31.0806 88.6526 31.0806C89.6669 31.0806 89.6815 32.0852 89.6815 32.8326V36.0844H91.2685V32.2405C91.2685 30.867 90.6424 29.8527 89.201 29.8527C88.3711 29.8527 87.7013 30.1245 87.2014 30.8233H87.1771V29.9934H85.6774V36.0844H85.6677Z" fill="white"/>
<path fill-rule="evenodd" clip-rule="evenodd" d="M93.2098 31.6727C93.7388 31.2698 94.4183 31.0126 95.0929 31.0126C96.0248 31.0126 96.4664 31.3427 96.4664 32.323H95.588C94.9279 32.323 94.1465 32.3813 93.5399 32.6773C92.938 32.9734 92.5012 33.5073 92.5012 34.4148C92.5012 35.5748 93.5544 36.2252 94.6319 36.2252C95.355 36.2252 96.1461 35.8466 96.515 35.172H96.5392C96.5538 35.3613 96.5538 35.7641 96.612 36.0844H98.0098C97.971 35.6088 97.9516 35.1865 97.9419 34.7255C97.9273 34.2789 97.9176 33.813 97.9176 33.2015V32.4201C97.9176 30.6243 97.1508 29.8527 95.2919 29.8527C94.6173 29.8527 93.7922 30.0322 93.1758 30.3137L93.2244 31.6727H93.2098ZM94.0155 34.3226C94.0155 33.3859 95.0687 33.2694 95.7773 33.2694H96.4664C96.4664 33.7451 96.3985 34.1819 96.1364 34.5216C95.8889 34.8516 95.5103 35.0652 95.025 35.0652C94.4571 35.0652 94.0203 34.8419 94.0203 34.3226H94.0155Z" fill="white"/>
<path fill-rule="evenodd" clip-rule="evenodd" d="M39.1868 11.4L49.7041 0.790527L54.1449 5.1877L43.5839 15.7972L39.1868 11.4Z" fill="white"/>
<path fill-rule="evenodd" clip-rule="evenodd" d="M50.068 22.2766L45.5786 17.7435C47.0298 10.4925 52.1986 13.5744 54.9651 5.91095L59.5903 10.3518C56.8239 18.1512 51.9754 14.7053 50.0729 22.2717L50.068 22.2766Z" fill="white"/>
</g>
<defs>
<clipPath id="clip0_747_35718">
<rect width="97.1939" height="35.4394" fill="white" transform="translate(0.806396 0.790527)"/>
</clipPath>
</defs>
</svg>
