<svg width="92" height="28" viewBox="0 0 92 28" fill="none" xmlns="http://www.w3.org/2000/svg">
<path d="M14.2476 0.416565C6.69284 0.416565 0.568115 6.54128 0.568115 14.0961C0.568115 21.6509 6.69284 27.7756 14.2476 27.7756C21.8025 27.7756 27.9272 21.6509 27.9272 14.0961C27.9272 6.54128 21.8025 0.416565 14.2476 0.416565ZM20.5203 20.1468C20.2737 20.5512 19.751 20.6745 19.3466 20.4328C16.1363 18.4702 12.0926 18.0264 7.32898 19.1162C6.87036 19.2197 6.41175 18.9337 6.30819 18.4751C6.20463 18.0165 6.49065 17.5579 6.94926 17.4543C12.1617 16.2609 16.6295 16.7738 20.2343 18.9781C20.6387 19.2247 20.7619 19.7474 20.5154 20.1518L20.5203 20.1468ZM22.192 16.4237C21.8813 16.9267 21.2255 17.0845 20.7225 16.7738C17.0437 14.5152 11.4417 13.8594 7.09228 15.181C6.5301 15.3536 5.93341 15.033 5.76081 14.4709C5.59314 13.9087 5.90875 13.312 6.47092 13.1394C11.4417 11.6304 17.6157 12.3603 21.837 14.9591C22.34 15.2697 22.4978 15.9256 22.1871 16.4237H22.192ZM22.335 12.5427C17.9264 9.92418 10.6527 9.68254 6.44134 10.9598C5.76574 11.1669 5.05071 10.7822 4.84359 10.1066C4.63647 9.43104 5.02112 8.716 5.69671 8.50888C10.5294 7.04428 18.5626 7.32537 23.6369 10.3384C24.2435 10.6984 24.4456 11.4825 24.0857 12.094C23.7257 12.7005 22.9367 12.9027 22.3301 12.5427H22.335Z" fill="#1ED760"/>
<path d="M37.7899 13.0456C35.4278 12.4835 35.0086 12.089 35.0086 11.2556C35.0086 10.4715 35.7483 9.94383 36.848 9.94383C37.9477 9.94383 38.9685 10.3433 40.078 11.1717C40.1125 11.1964 40.152 11.2063 40.1964 11.2013C40.2358 11.1964 40.2753 11.1717 40.2999 11.1372L41.4539 9.50988C41.5032 9.44084 41.4884 9.35207 41.4243 9.29783C40.1076 8.24252 38.6233 7.72473 36.8875 7.72473C34.338 7.72473 32.5577 9.25345 32.5577 11.443C32.5577 13.7903 34.0963 14.6237 36.7494 15.2647C39.0079 15.7875 39.3926 16.2214 39.3926 17.0006C39.3926 17.8636 38.6233 18.4011 37.3806 18.4011C35.9998 18.4011 34.8755 17.9375 33.618 16.8477C33.5884 16.823 33.544 16.8083 33.5046 16.8083C33.4651 16.8083 33.4257 16.8329 33.3961 16.8625L32.1041 18.4011C32.0498 18.4652 32.0548 18.5589 32.1189 18.618C33.5835 19.9249 35.3834 20.6152 37.3263 20.6152C40.0731 20.6152 41.8484 19.1112 41.8484 16.7885C41.8484 14.8259 40.6747 13.736 37.7948 13.0358L37.7899 13.0456Z" fill="#1ED760"/>
<path d="M48.0571 10.7181C46.8637 10.7181 45.8873 11.1866 45.0835 12.1482V11.0683C45.0835 10.9844 45.0145 10.9154 44.9306 10.9154H42.8151C42.7313 10.9154 42.6622 10.9844 42.6622 11.0683V23.0909C42.6622 23.1747 42.7313 23.2437 42.8151 23.2437H44.9306C45.0145 23.2437 45.0835 23.1747 45.0835 23.0909V19.2937C45.8873 20.1962 46.8687 20.64 48.0571 20.64C50.2713 20.64 52.5101 18.9337 52.5101 15.6791C52.5101 12.4244 50.2713 10.7181 48.0571 10.7181ZM50.0543 15.6791C50.0543 17.336 49.0335 18.4949 47.5689 18.4949C46.1043 18.4949 45.0293 17.2867 45.0293 15.6791C45.0293 14.0714 46.1191 12.8633 47.5689 12.8633C49.0187 12.8633 50.0543 14.0468 50.0543 15.6791Z" fill="#1ED760"/>
<path d="M58.2551 10.7181C55.4048 10.7181 53.1709 12.9126 53.1709 15.7136C53.1709 18.5146 55.39 20.6597 58.2206 20.6597C61.0512 20.6597 63.3196 18.4702 63.3196 15.6791C63.3196 12.8879 61.0956 10.7181 58.2551 10.7181ZM58.2551 18.5146C56.7412 18.5146 55.5971 17.2965 55.5971 15.6791C55.5971 14.0616 56.7017 12.8781 58.2206 12.8781C59.7394 12.8781 60.8983 14.0961 60.8983 15.7136C60.8983 17.3311 59.7887 18.5096 58.2551 18.5096V18.5146Z" fill="#1ED760"/>
<path d="M69.4097 10.9105H67.0821V8.52866C67.0821 8.44483 67.013 8.37579 66.9292 8.37579H64.8137C64.7298 8.37579 64.6608 8.44483 64.6608 8.52866V10.9105H63.6449C63.5611 10.9105 63.4921 10.9795 63.4921 11.0634V12.883C63.4921 12.9669 63.5611 13.0359 63.6449 13.0359H64.6608V17.7404C64.6608 19.639 65.6076 20.6055 67.4717 20.6055C68.2311 20.6055 68.8574 20.4477 69.454 20.1124C69.5034 20.0877 69.5329 20.0335 69.5329 19.9792V18.2483C69.5329 18.1941 69.5034 18.1448 69.459 18.1152C69.4146 18.0856 69.3554 18.0856 69.3061 18.1102C68.8968 18.3174 68.5023 18.4111 68.0634 18.4111C67.3829 18.4111 67.0821 18.1053 67.0821 17.4149V13.0408H69.4097C69.4935 13.0408 69.5625 12.9718 69.5625 12.888V11.0683C69.5625 10.9845 69.4935 10.9154 69.4097 10.9154V10.9105Z" fill="#1ED760"/>
<path d="M77.5169 10.9203V10.6293C77.5169 9.77127 77.8473 9.38662 78.587 9.38662C79.0259 9.38662 79.381 9.47539 79.7804 9.60854C79.8297 9.62333 79.879 9.6184 79.9185 9.58881C79.9579 9.55922 79.9826 9.51484 79.9826 9.46059V7.68038C79.9826 7.61134 79.9382 7.55217 79.8741 7.53244C79.4549 7.40916 78.9174 7.28094 78.1185 7.28094C76.1657 7.28094 75.1301 8.38063 75.1301 10.4617V10.9104H74.1143C74.0305 10.9104 73.9614 10.9794 73.9614 11.0633V12.8879C73.9614 12.9717 74.0305 13.0407 74.1143 13.0407H75.1301V20.2947C75.1301 20.3786 75.1992 20.4476 75.283 20.4476H77.3986C77.4824 20.4476 77.5514 20.3786 77.5514 20.2947V13.0407H79.524L82.5469 20.2947C82.2017 21.0591 81.8664 21.207 81.4028 21.207C81.028 21.207 80.6384 21.0936 80.239 20.8766C80.1996 20.8569 80.1552 20.852 80.1157 20.8668C80.0763 20.8816 80.0418 20.9112 80.022 20.9506L79.307 22.5237C79.2725 22.5977 79.3021 22.6864 79.376 22.7259C80.1256 23.1303 80.8012 23.3028 81.6346 23.3028C83.1978 23.3028 84.0608 22.573 84.8202 20.6202L88.4891 11.1372C88.5089 11.0879 88.5039 11.0337 88.4743 10.9942C88.4448 10.9548 88.4004 10.9252 88.3461 10.9252H86.1468C86.0826 10.9252 86.0235 10.9647 85.9988 11.0288L83.7452 17.4691L81.2746 11.0238C81.2499 10.9647 81.1957 10.9252 81.1316 10.9252H77.5169V10.9203Z" fill="#1ED760"/>
<path d="M72.8172 10.9105H70.6967C70.6123 10.9105 70.5438 10.9789 70.5438 11.0633V20.2948C70.5438 20.3792 70.6123 20.4477 70.6967 20.4477H72.8172C72.9016 20.4477 72.97 20.3792 72.97 20.2948V11.0633C72.97 10.9789 72.9016 10.9105 72.8172 10.9105Z" fill="#1ED760"/>
<path d="M71.7669 6.70892C70.9286 6.70892 70.248 7.38945 70.248 8.22284C70.248 9.05624 70.9286 9.74169 71.7669 9.74169C72.6052 9.74169 73.2857 9.06117 73.2857 8.22284C73.2857 7.38452 72.6052 6.70892 71.7669 6.70892Z" fill="#1ED760"/>
<path d="M90.299 13.8791C89.4606 13.8791 88.8097 13.2084 88.8097 12.3898C88.8097 11.5712 89.4705 10.8956 90.3039 10.8956C91.1373 10.8956 91.7932 11.5663 91.7932 12.3849C91.7932 13.2035 91.1323 13.884 90.299 13.884V13.8791ZM90.3088 11.0436C89.5445 11.0436 88.9675 11.6501 88.9675 12.3898C88.9675 13.1295 89.5395 13.7311 90.299 13.7311C91.0584 13.7311 91.6403 13.1246 91.6403 12.3849C91.6403 11.6452 91.0682 11.0436 90.3088 11.0436ZM90.6392 12.5378L91.0584 13.1295H90.7033L90.3236 12.5871H89.9981V13.1295H89.7023V11.5663H90.3976C90.7625 11.5663 90.9992 11.7537 90.9992 12.0644C90.9992 12.3208 90.8513 12.4786 90.6343 12.5378H90.6392ZM90.3877 11.8326H89.9981V12.3257H90.3877C90.58 12.3257 90.6984 12.232 90.6984 12.0792C90.6984 11.9164 90.585 11.8326 90.3877 11.8326Z" fill="#1ED760"/>
</svg>
