<svg width="120" height="32" viewBox="0 0 120 32" fill="none" xmlns="http://www.w3.org/2000/svg">
<g clip-path="url(#clip0_747_35384)">
<path d="M0 24.0019C0 24.2639 0.259405 24.4358 0.518809 24.4358H4.83088C5.09028 24.4358 5.34969 24.2596 5.43474 23.9117L8.10958 1.1696V1.08368C8.10958 0.821637 7.93523 0.645508 7.76513 0.645508H3.10435C2.84495 0.645508 2.75989 0.821637 2.75989 1.07939L0 24.0019Z" fill="white"/>
<path d="M25.5364 10.8438C25.5364 11.5397 25.4514 12.2399 25.3621 12.9359L23.98 23.916C23.98 24.178 23.7206 24.4401 23.4612 24.4401H19.4936C19.2342 24.4401 18.9748 24.2639 18.9748 24.0062V23.9203L20.2676 13.2881C20.3526 12.8542 20.3526 12.3301 20.3526 11.9822C20.3526 11.4581 20.2676 11.0242 20.0082 10.7622C19.6637 10.4142 19.1449 10.2381 18.3709 10.2381C16.8188 10.2381 15.0072 10.672 15.0072 10.672L13.3699 24.0062C13.3699 24.2682 13.1105 24.5303 12.7661 24.5303H8.79847C8.53907 24.5303 8.27966 24.3542 8.27966 24.0964V24.0105L10.0062 9.71829C10.4357 8.41236 11.2139 8.0644 13.1998 7.62622C14.9264 7.27826 17.5119 6.84009 19.4978 6.84009C21.8282 6.84009 23.5505 7.18805 24.5881 8.14602C25.1069 8.75602 25.5364 9.62808 25.5364 10.8481V10.8438Z" fill="white"/>
<path d="M66.5139 1.07935C66.5139 0.817301 66.4289 0.731384 66.1695 0.731384H61.5129C61.2535 0.731384 61.0834 0.907513 61.0834 1.16526L58.2385 25.0457C57.809 27.4858 56.7714 27.4858 55.1341 27.5717C54.4452 27.5717 53.8414 27.5717 53.4076 27.6576C52.8888 27.6576 52.7187 27.8337 52.6294 28.3535L52.37 30.2695V30.4456C52.37 30.8795 52.6294 30.9697 52.9739 30.9697C53.5777 31.0556 53.8371 31.1458 56.0782 31.1458C59.8757 31.1458 62.9801 30.0117 63.5839 24.8696L66.5182 1.07935H66.5139Z" fill="white"/>
<path d="M55.2999 19.7319C54.2666 22.696 52.0212 24.6978 46.8459 24.6978C43.9116 24.6978 42.1001 24.0878 40.9817 22.9537C39.859 21.8196 39.5145 20.1657 39.5145 18.3357C39.5145 16.2436 39.944 13.1077 40.7222 11.2777C41.8449 8.48969 44.086 6.65967 49.0062 6.65967C51.9404 6.65967 53.8371 7.35559 54.8704 8.40377C55.9931 9.53787 56.3376 11.0199 56.3376 12.9359C56.3376 15.0279 55.9931 17.9018 55.3042 19.7319M50.7327 10.7536C50.3032 10.3197 49.6993 10.0577 48.5767 10.0577C46.2463 10.0577 45.4723 11.1015 45.0386 13.4557C44.7792 15.0236 44.5198 16.8537 44.5198 18.5118C44.5198 19.5557 44.6941 20.2559 45.1236 20.6898C45.5531 21.1237 46.157 21.2998 47.1946 21.2998C49.61 21.2998 50.299 20.1657 50.7327 17.7257C50.9921 16.1577 51.2515 14.4995 51.2515 12.9316C51.2515 11.8877 51.1665 11.1875 50.7327 10.7536Z" fill="white"/>
<path d="M83.1625 19.7319C82.1291 22.696 79.8838 24.6978 74.7084 24.6978C71.7742 24.6978 69.9626 24.0878 68.8442 22.9537C67.7215 21.8196 67.3771 20.1657 67.3771 18.3357C67.3771 16.2436 67.8066 13.1077 68.5848 11.2777C69.7075 8.48969 71.9486 6.65967 76.9538 6.65967C79.888 6.65967 81.7847 7.35559 82.818 8.40377C83.9407 9.53787 84.2852 11.0199 84.2852 12.9359C84.2001 15.0279 83.8556 17.9018 83.1625 19.7319ZM78.591 10.7536C78.1615 10.3197 77.5576 10.0577 76.435 10.0577C74.1046 10.0577 73.3306 11.1015 72.8969 13.4557C72.6375 15.0236 72.3781 16.8537 72.3781 18.5118C72.3781 19.5557 72.4631 20.2559 72.9819 20.6898C73.4114 21.1237 74.0153 21.2998 75.0529 21.2998C77.4683 21.2998 78.1572 20.1657 78.591 17.7257C78.8504 16.1577 79.1098 14.4995 79.1098 12.9316C79.1949 11.8877 79.0248 11.1875 78.591 10.7536Z" fill="white"/>
<path d="M102.142 19.2078C101.019 22.8678 98.7779 24.6978 93.6025 24.6978C91.102 24.6978 88.8567 24.3499 87.649 23.9117C86.3562 23.4778 86.0968 22.9537 86.0968 22.0817C86.0968 21.6478 86.1818 21.1237 86.2712 20.5137L88.5122 1.42737C88.5122 0.993493 88.7716 0.731448 89.2011 0.641235H93.1688C93.4282 0.641235 93.6876 0.817364 93.6876 1.07511V1.16103L93.1688 5.34516L92.9094 7.2611C92.9094 7.2611 94.8953 6.65109 96.962 6.65109C99.0288 6.65109 100.67 7.08497 101.619 8.04723C102.567 9.0052 103.086 10.4873 103.086 12.7512C103.086 14.8432 102.741 17.1973 102.137 19.1992M97.5659 10.8309C97.1364 10.3068 96.4432 10.135 95.4099 10.135C94.1171 10.135 92.3905 10.5689 92.3905 10.5689L91.0978 21.0249C91.0978 21.0249 92.2205 21.287 93.5983 21.287C95.9287 21.287 96.877 20.591 97.4808 17.193C97.7402 15.7969 97.9103 14.3191 97.9103 12.8371C97.9954 11.8791 97.8253 11.1832 97.5659 10.8309Z" fill="white"/>
<path d="M118.361 10.2338C118.276 10.4958 118.101 10.5817 117.842 10.5817H117.668C117.323 10.5817 115.512 10.1479 113.785 10.1479C113.007 10.1479 111.974 10.2338 111.37 10.7579C110.94 11.1058 110.766 11.6299 110.766 12.154C110.766 13.5502 112.233 13.5502 113.785 13.8981C115.078 14.0742 116.375 14.4222 117.234 15.2943C117.923 15.9043 118.267 16.8622 118.267 18.3443C118.267 19.9123 117.748 21.5705 116.63 22.7905C115.163 24.2725 112.922 24.8825 110.417 24.8825C107.657 24.8825 105.067 24.1866 104.553 23.9246C104.468 23.8386 104.293 23.8386 104.293 23.5766V23.3146L104.982 21.2225C105.067 20.9604 105.242 20.7886 105.412 20.7886H105.586C106.016 20.8745 108.261 21.5747 110.243 21.5747C111.191 21.5747 111.969 21.3986 112.573 20.8788C113.092 20.4449 113.262 19.9209 113.262 19.3968C113.262 18.7008 113.003 18.3529 112.573 18.0908C112.144 17.8288 111.54 17.7429 110.762 17.657C109.554 17.3949 107.917 17.2231 106.879 16.1749C106.275 15.479 105.846 14.6069 105.846 13.301C105.846 11.8189 106.19 10.3369 107.138 9.20707C108.776 7.20093 111.54 6.94318 113.607 6.94318C116.196 6.94318 118.178 7.46727 118.782 7.72931C119.041 7.81523 119.041 7.99136 119.041 8.16319V8.33932L118.352 10.2553L118.361 10.2338Z" fill="white"/>
<path d="M40.0293 1.25547C39.5105 1.07935 38.0434 0.731384 35.7172 0.731384C31.9197 0.731384 29.938 2.47549 29.5043 5.9594L29.3299 8.05147L28.9004 11.6256L27.3482 23.1298V23.3918L27.2632 24.0019C27.2632 24.2639 27.5226 24.3498 27.782 24.3498H31.5795C31.8389 24.3498 32.1834 24.2639 32.2684 23.9159V23.6539L33.9949 11.6256H37.9626C38.222 11.6256 38.4814 11.4495 38.4814 11.1015L38.8258 8.48534C38.8258 8.2233 38.6515 8.05147 38.3963 8.05147H34.2544L34.5138 5.9594C34.6881 4.56326 35.292 4.2153 36.8441 4.2153C37.7074 4.2153 38.7408 4.39143 39.0852 4.47734H39.2596C39.519 4.47734 39.604 4.30121 39.6891 4.04346L40.2929 1.77956V1.60344C40.2929 1.42731 40.2079 1.25547 40.0335 1.25547H40.0293Z" fill="white"/>
</g>
<defs>
<clipPath id="clip0_747_35384">
<rect width="119.05" height="30.5003" fill="white" transform="translate(0 0.645508)"/>
</clipPath>
</defs>
</svg>
