<svg xmlns="http://www.w3.org/2000/svg" width="476" height="677" fill="none"><g fill="#fff" clip-path="url(#a)"><path d="M340.813 68.699c-10.728 2.87-19.694 9.756-25.255 19.384l-5.487 9.5 8.7 32.46 17.367-30.08a17.667 17.667 0 0 1 10.812-8.304 17.67 17.67 0 0 1 13.524 1.782l19.395 11.197-24.604 42.611-5.08 8.806-5.081 8.806-11.614 20.121 8.7 32.46 24.71-42.803 5.081-8.806 5.081-8.806 35.267-61.077-39.974-23.078c-9.618-5.55-20.825-7.023-31.564-4.152"/><path d="m376.859 315.408-19.523-10.972-13.513-7.6-15.051-56.167-8.699-32.46-14.719-54.929-1.9-7.109-3.373-12.606-3.374-12.596-.042-.149-13.332-49.752-4.643-17.324-44.575 11.944c-16.289 4.366-27.7 17.89-30.251 33.538a41.012 41.012 0 0 0-.267 11.208c.225 2.06.566 4.131 1.111 6.191l1.046 3.928 23.365 87.218 24.134 13.93 4.974 2.871-3.821-14.26-2.989-11.144-23.248-86.759-.523-1.943c-.854-3.181-.736-6.383.086-9.34.074-.256.106-.512.192-.768a18.202 18.202 0 0 1 1.878-3.992c.918-1.452 2.092-2.733 3.395-3.875 1.985-1.74 4.333-3.127 7.055-3.853l21.626-5.796 6.853 25.585 3.373 12.596 3.373 12.606 4.365 16.289 8.7 32.459 6.404 23.9 8.7 32.46 11.197 41.799-18.541-10.428-30.485-17.143-4.953-2.786-24.017-13.503-29.257-16.459-8.049-4.526.054.064c-6.138-3.576-13.236-5.657-20.836-5.657H68.645l2.082 123.478.181 11.005.181 11.005 1.623 96.355 153.312 68.506 151.881-67.866 20.334-89.235.908-3.96-.683-.16a44.37 44.37 0 0 0 .341-6.714 44.132 44.132 0 0 0-1.953-11.966c-3.149-10.247-10.013-19.374-20.004-25.138m-279.671 6.309c-1.772-1.911-3.149-4.195-3.95-6.735l-.821-34.478v-46.635h40.209v93.591h-22.384c-.331 0-.64-.065-.96-.075a17.671 17.671 0 0 1-12.083-5.668m59.198-15.467v-72.381h22.394c6.757 0 12.638 3.768 15.659 9.319a17.727 17.727 0 0 1 2.167 8.507V364.36h-22.394c-9.831 0-17.826-7.995-17.826-17.826V306.25Zm146.875-5.903 21.968 12.681 7.141 4.12 32.609 18.829c1.516.876 2.807 1.965 3.992 3.139 2.348 2.327 4.12 5.113 5.102 8.165.587 1.826.907 3.726.972 5.647a20.275 20.275 0 0 1-.47 5.113l.502.021-8.839 38.8-2.764 12.126-4.473 19.63-1.622 7.109-12.884 5.753-118.461 52.933L96.12 436.367l-2.103-88.435a41.271 41.271 0 0 0 16.214 3.299h22.672c2.338 20.729 19.961 36.9 41.309 36.9h46.154V316.54c6.405 10.119 15.19 18.605 25.853 24.764l6.746 3.896 42.355 24.454-23.024 39.889 2.957 1.708c2.679.587 5.486.961 8.389.961.289 0 .566-.032.854-.043 5.754-.139 11.123-1.59 15.745-3.501l15.659-27.134.032.022 5.956-10.279 5.956-10.279-10.354-5.978-40.06-23.131-12.585-7.269-5.23-3.021-1.516-.875c-11.795-6.81-20.227-17.783-23.803-30.901-.021-.075-.043-.139-.064-.203a51.647 51.647 0 0 1-1.718-11.678 50.792 50.792 0 0 1 .789-10.727 50.353 50.353 0 0 1 1.559-6.33l10.033 5.796 24.135 13.93 4.974 2.871 10.951 6.319 4.451 2.573 13.855 7.995v-.022ZM261.686 588.569l-20.398 8.977v12.126l20.398-8.977c4.483-1.975 5.177-2.968 5.177-6.682v-3.32c0-3.704-.694-4.099-5.177-2.124ZM138.87 573.123v-.779c0-2.775-1.078-4.259-4.099-5.582l-21.092-9.287v8.347l21.092 9.276c3.01 1.324 4.099.801 4.099-1.985v.01ZM179.41 606.726l16.534 7.269-8.272-24.946-8.262 17.677ZM135.465 587.459l-21.786-9.586v8.806l21.786 9.586c3.095 1.355 4.173.832 4.173-1.954v-1.238c0-2.775-1.078-4.259-4.173-5.614ZM324.716 560.827l-20.398 8.977v12.125l20.398-8.976c4.483-1.975 5.177-2.968 5.177-6.682v-3.32c0-3.704-.694-4.099-5.177-2.124ZM410.077 523.265l-15.755 6.938c-5.017 2.21-5.945 3.394-5.945 7.557v19.31c0 4.173.928 4.536 5.945 2.327l15.755-6.938c5.102-2.242 5.945-3.395 5.945-7.568v-19.31c0-4.173-.843-4.568-5.945-2.327v.011Z"/><path d="m475.05 83.503-18.007-10.397-63.703-36.782c-13.674-7.9-29.204-12.073-44.906-12.073a89.921 89.921 0 0 0-23.334 3.085 89.01 89.01 0 0 0-4.643 1.377l-2.316-8.635-5.38-20.089-20.088 5.38L221.615 24.4c-43.347 11.613-70.833 53.2-66.136 96.504L-.001 190.639V574.65l226.035 101.361L452.069 574.65V190.639l-30.87-13.844 43.465-75.285 10.397-18.007h-.011ZM51.77 522.357c0 1.004-.385 1.377-1.026 1.1l-25.873-11.389v17.612l21.999 9.681c.64.278 1.035.993 1.035 1.996v3.01c0 1.004-.395 1.367-1.035 1.089l-22-9.681v18.156l25.875 11.389c.64.278 1.024.993 1.024 1.997v3.01c0 1.003-.384 1.377-1.024 1.099L21.39 558.51c-.683-.298-1.025-.992-1.025-1.996v-50.979c0-1.003.342-1.388 1.025-1.089l29.354 12.916c.64.277 1.024.993 1.024 1.996v3.01-.011Zm35.576 63.628c0 1.004-.395 1.367-1.025 1.089l-27.485-12.093c-.684-.299-1.025-.993-1.025-1.997v-50.979c0-1.003.341-1.398 1.025-1.089l2.455 1.078c.683.299 1.024.993 1.024 1.996v46.422l24.006 10.567c.63.278 1.025.993 1.025 1.996v3.01Zm67.898 19.064c0 8.646-3.779 10.696-12.905 6.682L99.856 593.03c-1.153-.512-1.772-1.398-1.772-2.476v-50.67c0-1.078.62-1.43 1.772-.918l41.714 18.36c9.041 3.981 12.895 9.382 12.895 18.039v2.401c0 7.109-2.626 9.735-8.572 8.273 6.565 3.811 9.351 8.742 9.351 16.16v2.861-.011Zm64.343 40.679-13.439-5.913c-1.387-.609-2.092-1.462-2.476-2.711l-2.935-8.86-26.034-11.453-2.936 6.276c-.384.908-1.153 1.11-2.476.534l-12.745-5.615c-1.003-.448-1.473-1.419-1.078-2.252l21.241-41.319c.385-.907 1.164-1.11 2.551-.502l17.613 7.749c1.313.577 2.006 1.42 2.476 2.712l21.242 60.02c.384 1.174-.075 1.74-1.004 1.334Zm63.97-25.137-15.221 6.703c-1.473.641-2.082.609-2.936-.021l-13.289-9.906-10.813 4.761v15.371c0 1.078-.694 2.006-1.857 2.519l-11.976 5.273c-1.153.512-1.772.16-1.772-.918v-50.67c0-1.078.619-1.975 1.772-2.476l42.098-18.531c9.116-4.013 12.905-1.974 12.905 6.682v10.738c0 8.646-3.789 14.805-12.905 18.808l-.235.107 14.837 9.607c.619.427.235 1.601-.619 1.974l.011-.021Zm63.02-27.742-15.222 6.693c-1.473.651-2.081.608-2.935-.022l-13.289-9.905-10.813 4.76v15.371c0 1.078-.694 2.007-1.857 2.519l-11.977 5.273c-1.152.512-1.771.16-1.771-.918v-50.67c0-1.088.619-1.974 1.771-2.476l42.099-18.53c9.116-4.014 12.905-1.975 12.905 6.682v10.738c0 8.646-3.789 14.805-12.905 18.807l-.235.107 14.837 9.618c.619.427.224 1.601-.619 1.974l.011-.021Zm20.771-10.845c0 1.089-.693 2.007-1.857 2.519l-11.976 5.273c-1.153.513-1.772.16-1.772-.918v-50.67c0-1.078.619-1.974 1.772-2.476l11.976-5.273c1.153-.512 1.857-.203 1.857.875v50.67Zm64.28-38.95c0 8.646-3.854 14.058-12.894 18.04l-32.983 14.516c-8.967 3.939-12.98 2.007-12.98-6.65v-29.343c0-8.646 4.013-14.132 12.98-18.071l32.983-14.517c9.04-3.981 12.894-1.974 12.894 6.682v29.354-.011Zm-14.805-400.278-14.709 25.469-5.081 8.806-5.081 8.806 9.532 4.28 9.532 4.28 20.815 9.33v266.841l-13.364 5.988-192.443 86.3L28.82 474.441l-8.582-3.853V203.747l43.294-19.417 46.966-21.059 49.314-22.117 9.607-4.313 9.607-4.312-.897-3.352a70.473 70.473 0 0 1-1.441-6.681 68.396 68.396 0 0 1-.918-10.675 69.446 69.446 0 0 1 .267-6.671 69.212 69.212 0 0 1 5.593-21.604c.278-.64.566-1.27.865-1.89.8-1.675 1.644-3.32 2.572-4.92a71.621 71.621 0 0 1 2.477-3.95 64.449 64.449 0 0 1 3.106-4.301 70.596 70.596 0 0 1 3.298-3.854 79.77 79.77 0 0 1 2.252-2.359 69.988 69.988 0 0 1 7.419-6.415 69.136 69.136 0 0 1 4.376-3.031 64.872 64.872 0 0 1 5.956-3.363 67.765 67.765 0 0 1 6.351-2.785 65.908 65.908 0 0 1 6.725-2.167l71.057-19.043 3.267 12.211 5.668 21.146c.565-.417 1.174-.78 1.739-1.175a65.615 65.615 0 0 1 6.778-4.173c4.697-2.54 9.682-4.622 14.966-6.042a69.398 69.398 0 0 1 12.937-2.177c1.675-.118 3.341-.203 5.016-.203 12.062 0 23.996 3.213 34.51 9.276l40.39 23.323 23.323 13.46-29.823 51.652-.032.01Z"/></g><defs><clipPath id="a"><path fill="#fff" d="M0 0h475.05v676.011H0z"/></clipPath></defs></svg>
