<svg xmlns="http://www.w3.org/2000/svg" width="1001" height="1000" fill="none"><path fill="#E2E3E2" d="M332.339 857.966c-68.823-37.825-116.864-100.496-135.416-176.541l-2.153-8.817h-28.713v-15.034c0-7.135-5.802-12.937-12.936-12.937h-15.023v-88.969h28.254l-10.259-17.427a65.915 65.915 0 0 1-3.573-7.004c-3.453-7.877-5.212-16.29-5.212-25.009V314.325h41.606V190.96l110.188-23.84 2.557-4.513a221.381 221.381 0 0 1 5.419-9.079C348.99 86.825 421.221 47 500.281 47c42.775 0 84.578 12.062 120.885 34.876 31.893 20.049 58.519 47.953 76.984 80.698l2.546 4.524L810.96 190.96v126.795l6.381 3.202a62.867 62.867 0 0 1 17.033 12.466c5.431 5.627 9.812 12.183 13.002 19.448 3.464 7.867 5.212 16.28 5.212 24.999v128.38c0 8.719-1.759 17.142-5.223 25.031a67.662 67.662 0 0 1-3.572 6.993l-10.183 17.394h28.167v88.969h-15.024c-7.134 0-12.936 5.802-12.936 12.937v15.034h-28.189l-2.108 8.883c-17.821 74.941-66.179 139.611-132.707 177.415L499.822 953l-167.483-95.034Z"/><path fill="#22294D" d="M833.621 358.895c-2.48-5.649-5.845-10.697-10.03-15.024-4.316-4.457-9.462-8.019-15.285-10.576-3.912-1.715-8.064-2.819-12.369-3.42V203.08l-105.435-22.824c-16.815-34.046-42.906-64.015-77.345-85.67-99.327-62.42-230.93-32.396-293.361 66.942a215.298 215.298 0 0 0-10.511 18.76l-105.336 22.803v126.271h-41.617v176.891c0 6.632 1.333 13.023 3.944 18.967a49.49 49.49 0 0 0 10.369 15.22c4.359 4.359 9.483 7.856 15.23 10.379 3.857 1.694 7.911 2.787 12.074 3.387v61.076c0 95.591 52.04 183.578 135.82 229.62l160.185 90.893 163.452-89.943c81.759-46.468 132.553-133.755 132.553-227.784v-63.829c4.305-.59 8.457-1.693 12.368-3.42 5.835-2.567 10.981-6.118 15.286-10.576 4.184-4.327 7.561-9.374 10.019-14.99 2.622-5.966 3.955-12.358 3.955-18.99V377.884c0-6.632-1.333-13.013-3.955-18.968"/><path fill="#fff" d="M507.022 162.889c19.416-10.741 54.947-22.093 66.572-25.676-1.005-7.791-3.824-25.906-9.276-35.695-7.714-2.907-44.25-16.083-70.745-16.018-4.371.973-39.356 9.102-60.88 25.13l4.742 34.351 69.587 17.919v-.011ZM382.445 209.587l45.988-62.136-4.742-34.318c-9.265.076-34.045 1.464-56.094 13.045-13.035 11.735-24.725 25.403-34.504 40.973a195.099 195.099 0 0 0-9.145 16.268c.776 6.064 7.091 26.102 12.303 41.399l46.194-15.231ZM478.627 329.348h83.069l5.07-32.024-58.65-47.855-76.001 29.38c-4.141 15.056-7.146 35.421-8.992 50.499h55.504ZM513.534 241.971l59.066 48.184 60.475-23.043c1.584-9.407 6.665-43.78 2.065-73.838-4.709-5.189-29.107-31.368-57.121-47.735-8.828 2.688-46.031 14.346-65.708 24.999l1.223 71.433ZM665.973 324.138c6.468-2.556 16.378-6.719 21.338-9.746 10.456-45.528 3.988-93.198-17.317-134.017l-25.436 13.417c4.6 32.745-1.213 68.495-2.589 76.154l23.993 54.203.011-.011ZM684.121 326.453a221.66 221.66 0 0 1-6.501 2.906h5.529c.306-.972.677-1.933.972-2.906ZM401.882 329.347h11.91c1.868-15.471 4.993-36.995 9.461-53.133l-39.781-57.23-46.85 15.45c-12.281 24.31-11.309 64.211-11.101 69.805 2.874 8.544 7.386 17.165 12.314 25.108h64.058-.011ZM327.051 329.35c-3.551-6.173-6.785-12.674-9.244-19.241l-10.15 1.027c1.311 6.152 2.95 12.216 4.84 18.214h14.554Z"/><path fill="#D2283D" d="M181.08 542.742h637.725c0 15.439 12.521 27.96 27.959 27.96v58.912c-15.438 0-27.959 12.521-27.959 27.96H181.08c0-15.439-12.521-27.96-27.959-27.96v-58.912c15.438 0 27.959-12.521 27.959-27.96Z"/><path fill="#fff" d="M243.26 595.151h14.258v10.041H243.26v29.02h-11.046v-70.298h29.227v10.041H243.26v21.196ZM292.372 563.914v54.225c0 5.026 2.207 6.829 5.725 6.829 3.519 0 5.726-1.803 5.726-6.829v-54.225h10.445v53.526c0 11.254-5.627 17.678-16.466 17.678-10.838 0-16.465-6.424-16.465-17.678v-53.526h11.046-.011ZM333.639 563.914h34.144v10.041h-11.549v60.257h-11.046v-60.257h-11.549v-10.041ZM420.697 580.089v2.513c0 7.222-2.207 11.844-7.135 14.16 5.922 2.306 8.238 7.637 8.238 15.067v5.725c0 10.839-5.725 16.673-16.771 16.673h-17.372V563.93h16.673c11.45 0 16.367 5.321 16.367 16.17m-21.994-6.129v18.574h4.316c4.119 0 6.632-1.803 6.632-7.43v-3.922c0-5.015-1.705-7.233-5.627-7.233h-5.321v.011Zm0 28.626v21.589h6.326c3.715 0 5.725-1.704 5.725-6.927v-6.129c0-6.534-2.108-8.533-7.123-8.533h-4.928ZM442.582 580.788c0-11.254 5.922-17.679 16.771-17.679 10.85 0 16.772 6.425 16.772 17.679v36.558c0 11.253-5.922 17.678-16.772 17.678-10.849 0-16.771-6.425-16.771-17.678v-36.558Zm11.046 37.257c0 5.026 2.207 6.927 5.725 6.927s5.725-1.912 5.725-6.927v-37.957c0-5.026-2.207-6.927-5.725-6.927s-5.725 1.912-5.725 6.927v37.957ZM498.314 563.914h11.047v60.257h18.169v10.041h-29.216v-70.298ZM610.076 608.004v9.342c0 11.253-5.627 17.678-16.465 17.678-10.839 0-16.466-6.425-16.466-17.678v-36.558c0-11.254 5.627-17.679 16.466-17.679 10.838 0 16.465 6.425 16.465 17.679v6.828h-10.445v-7.528c0-5.026-2.207-6.927-5.725-6.927-3.519 0-5.726 1.912-5.726 6.927v37.957c0 5.026 2.207 6.829 5.726 6.829 3.518 0 5.725-1.803 5.725-6.829v-10.041h10.445ZM631.862 563.914h11.047v60.257h18.169v10.041h-29.216v-70.298ZM691.507 563.914v54.225c0 5.026 2.207 6.829 5.725 6.829s5.725-1.803 5.725-6.829v-54.225h10.446v53.526c0 11.254-5.627 17.678-16.466 17.678-10.838 0-16.465-6.424-16.465-17.678v-53.526h11.046-.011ZM769.026 580.089v2.513c0 7.222-2.207 11.844-7.134 14.16 5.922 2.306 8.238 7.637 8.238 15.067v5.725c0 10.839-5.725 16.673-16.771 16.673h-17.373V563.93h16.673c11.451 0 16.367 5.321 16.367 16.17m-21.993-6.129v18.574h4.315c4.119 0 6.632-1.803 6.632-7.43v-3.922c0-5.015-1.704-7.233-5.627-7.233h-5.32v.011Zm0 28.626v21.589h6.326c3.714 0 5.725-1.704 5.725-6.927v-6.129c0-6.534-2.109-8.533-7.124-8.533h-4.927Z"/><path fill="#D2283D" d="M755.664 333.307c5.004-2.197 10.39-3.431 16.028-3.792V222.649l-19.142-4.141V334.88c1.027-.546 2.032-1.104 3.114-1.573ZM748.89 657.57a219.507 219.507 0 0 1-44.599 97.361l-35.433-97.361h-49.145l48.413 133.024a216.05 216.05 0 0 1-26.179 17.525l-17.448 9.582-58.279-160.12h-49.145l66.462 182.605-44.578 24.474-75.367-207.079h-49.144l82.556 226.833-67.446-38.36-68.604-188.484h-49.145l55.777 153.236-6.938-3.944c-57.317-31.499-96.803-86.533-109.183-149.292h-19.481c12.609 69.795 55.974 131.199 119.432 166.074l148.505 84.36 151.466-83.245c62.573-35.564 105.151-97.47 116.962-167.189h-19.481.022ZM247.335 329.351V218.508l-19.142 4.141v106.702h19.142Z"/><path fill="#fff" d="M177.726 342.841h76.449v160.295c0 4.206-.82 8.172-2.469 11.92-1.639 3.748-3.879 7.036-6.709 9.866a32.02 32.02 0 0 1-9.866 6.709c-3.748 1.649-7.725 2.469-11.92 2.469H208.69c-4.206 0-8.172-.82-11.92-2.469-3.748-1.65-7.036-3.879-9.866-6.709-2.83-2.83-5.07-6.118-6.709-9.866-1.649-3.748-2.469-7.714-2.469-11.92v-87.681h30.691v87.681c0 .185.087.273.273.273h14.521l.273-.273V373.532h-15.067v15.613h-30.691v-46.304Zm87.397 45.693h30.691v145.555h-30.691V388.534Zm0-46.425h30.691v36.384h-30.691v-36.384Zm41.649.732h76.449v160.295c0 4.206-.819 8.172-2.469 11.92-1.639 3.748-3.879 7.036-6.709 9.866-2.83 2.83-6.118 5.07-9.866 6.709-3.748 1.649-7.714 2.469-11.92 2.469h-14.521c-4.206 0-8.172-.82-11.92-2.469-3.747-1.65-7.036-3.879-9.866-6.709-2.83-2.83-5.07-6.118-6.708-9.866-1.65-3.748-2.47-7.714-2.47-11.92v-87.681h30.691v87.681c0 .185.088.273.273.273h14.521l.273-.273V373.532h-15.067v15.613h-30.691v-46.304Zm165.768 123.78v28.331h-30.69v-28.331h-16.99v28.331h-30.691v-28.331l10.653-123.78h57.066l10.642 123.78h.01Zm-33.018-24.408-6.304-73.663-6.031 73.663H439.522Zm90.008-99.372h30.691v191.248H529.53v-23.294l-15.067-52.609v75.892h-30.691V342.83h30.691v25.48l15.067 52.881V342.83v.011Zm41.65 0h76.175v30.691h-22.737V534.1h-30.69V373.532h-22.737v-30.691h-.011Zm163.845 0v30.691h-45.758v49.593h43.562v30.691h-43.562v49.593h45.758V534.1h-76.449V342.852h76.449v-.011Zm68.364 2.47c3.747 1.649 6.992 3.889 9.724 6.719 2.742 2.83 4.927 6.119 6.577 9.866 1.65 3.748 2.469 7.714 2.469 11.92v41.65h-30.691v-41.65l-.273-.273h-14.247c-.186 0-.273.099-.273.273v49.32h45.484v80.011c0 4.206-.819 8.172-2.469 11.92-1.639 3.747-3.835 7.036-6.577 9.866-2.743 2.83-5.988 5.07-9.724 6.708-3.748 1.65-7.812 2.47-12.194 2.47h-14.247c-4.381 0-8.457-.82-12.194-2.47-3.747-1.649-6.981-3.878-9.724-6.708-2.742-2.83-4.938-6.119-6.577-9.866-1.639-3.748-2.469-7.714-2.469-11.92v-41.65h30.691v41.65c0 .185.087.273.273.273h14.247c.175 0 .273-.088.273-.273v-49.32h-45.484v-80.011c0-4.195.819-8.172 2.469-11.92 1.65-3.747 3.835-7.036 6.577-9.866 2.743-2.83 5.977-5.07 9.724-6.719 3.748-1.65 7.813-2.47 12.194-2.47h14.247c4.382 0 8.446.82 12.194 2.47ZM472.54 508.708h-78.36V534.1h78.36v-25.392Z"/></svg>