<svg xmlns="http://www.w3.org/2000/svg" width="1001" height="1000" fill="none"><g clip-path="url(#a)"><path fill="#101820" d="M936.588 499.75c0 241.204-195.536 436.751-436.751 436.751-241.214 0-436.74-195.547-436.74-436.751C63.098 258.547 258.635 63 499.849 63c241.214 0 436.751 195.536 436.751 436.75"/><path fill="#FB91A3" d="m555.973 399.461-79.839 75.658c-5.423 5.132-1.577 13.915 6.082 13.915h81.017a10.09 10.09 0 0 0 6.936-2.765l91.605-86.808H555.973ZM370.334 499.75l-91.151 86.376c-5.413 5.131-1.578 13.915 6.082 13.915h85.047l103.877-98.444c.703-.669.227-1.847-.734-1.847H370.334ZM370.333 399.461l-91.15 86.376c-5.413 5.131-1.578 13.915 6.082 13.915h85.047l105.833-100.291H370.333ZM555.973 600.042l-79.839-75.658c-5.423-5.132-1.577-13.915 6.082-13.915h81.017c2.583 0 5.067.994 6.936 2.765l91.605 86.808H555.973ZM697.016 399.461h-1.318c0 15.071-12.262 27.333-27.333 27.333v1.318c15.071 0 27.333 12.263 27.333 27.334h1.318c0-15.071 12.262-27.334 27.344-27.334v-1.318c-15.071 0-27.344-12.262-27.344-27.333Z"/><path fill="#FB91A3" d="M794.162 205.428c-78.618-78.619-183.144-121.92-294.314-121.92-111.17 0-215.707 43.301-294.325 121.92-78.619 78.618-121.92 183.144-121.92 294.325 0 111.181 43.301 215.707 121.909 294.325 78.619 78.619 183.144 121.909 294.325 121.909 111.181 0 215.707-43.301 294.325-121.909 78.619-78.618 121.909-183.144 121.909-294.325 0-111.181-43.29-215.707-121.909-294.325Zm-584.923 3.727C286.864 131.53 390.072 88.78 499.848 88.78c109.776 0 212.973 42.75 290.598 120.375 76.998 76.998 119.662 179.179 120.342 287.962h-97.481c-.681-82.746-33.2-160.446-91.789-219.035-59.204-59.204-137.931-91.82-221.67-91.82-83.739 0-162.455 32.605-221.67 91.82-58.589 58.589-91.108 136.289-91.789 219.035H88.908c.68-108.794 43.333-210.964 120.342-287.962m598.817 290.598c0 82.324-32.066 159.733-90.276 217.943-58.21 58.21-135.619 90.276-217.943 90.276-82.324 0-159.733-32.066-217.943-90.276-58.21-58.21-90.276-135.619-90.276-217.943 0-82.324 32.055-159.733 90.276-217.943 58.21-58.211 135.619-90.276 217.943-90.276 82.324 0 159.733 32.065 217.943 90.276 58.21 58.21 90.276 135.619 90.276 217.943Zm-17.621 290.598c-77.625 77.624-180.822 120.375-290.598 120.375-109.776 0-212.973-42.751-290.598-120.375-77.009-77.009-119.662-179.18-120.342-287.973h97.481c.681 82.746 33.2 160.446 91.789 219.034 59.215 59.215 137.931 91.821 221.67 91.821 83.739 0 162.455-32.606 221.67-91.821 58.589-58.588 91.108-136.288 91.789-219.034h97.481c-.68 108.793-43.333 210.964-120.342 287.962"/><path fill="#FB91A3" d="m251.244 264.006-6.32 8.028-23.023.324-14.758 18.744 14.067 11.074-5.272 6.698-33.481-26.35 5.261-6.698 13.397 10.533 14.498-18.409-4.17-22.256 6.32-8.038 5.003 26.707 28.478-.357ZM299.547 212.867s5.089 5.748-1.004 10.804l-34.118 28.273c-5.91 4.894-10.804-1.005-10.804-1.005l-22.299-26.901 6.558-5.434 22.299 26.901 32.811-27.193-22.299-26.901 6.558-5.434 22.298 26.901v-.011ZM306.808 167.908l48.897 11.376-14.747-28.835 7.584-3.879 19.404 37.932-7.584 3.889-48.887-11.376 14.736 28.835-7.584 3.879-19.404-37.932 7.585-3.889ZM379.87 135.93l-8.076 2.726 13.626 40.373 8.077-2.726-13.627-40.373ZM466.194 142.028l1.761 10.069s1.318 7.552-7.065 9.022l-50.356 8.815-1.318-7.551 50.356-8.816-1.761-10.069-41.962 7.346c-8.394 1.47-9.712-6.082-9.712-6.082l-1.621-9.237s-1.329-7.552 7.066-9.022l49.524-8.675 1.329 7.552-49.524 8.664 1.62 9.238 41.962-7.347c8.394-1.469 9.712 6.083 9.712 6.083M547.33 126.637l-.648 13.613s-.367 7.659-8.88 7.249l-42.556-2.031-.648 13.623-8.514-.41 2.031-42.556 51.069 2.442c8.514.41 8.146 8.07 8.146 8.07Zm-51.069-2.442-.648 13.613 42.556 2.031.648-13.613-42.556-2.031ZM627.364 146.266l-7.282 26.275s-2.052 7.39-10.263 5.11l-41.065-11.387c-8.211-2.28-6.158-9.669-6.158-9.669l7.282-26.275s2.052-7.39 10.263-5.11l41.065 11.387c8.211 2.28 6.158 9.669 6.158 9.669ZM578.088 132.6l-7.281 26.274 41.065 11.387 7.281-26.274-41.065-11.387ZM679.265 210.923l-2.517-16.853-29.246-15.795-6.482 11.992-7.498-4.052 20.257-37.488 44.987 24.308c7.498 4.051 3.857 10.804 3.857 10.804l-6.482 11.992s-3.641 6.752-11.15 2.701l2.518 16.853-8.254-4.451.01-.011Zm15.86-31.147-37.489-20.257-6.482 12.003 37.489 20.257 6.482-12.003ZM763.361 232.567l-19.555-16.476-22.515 26.718-6.525-5.499 22.526-26.707-19.544-16.487 4.937-5.866 45.613 38.45-4.937 5.867ZM799.305 303.364l-8.07 6.277s-6.05 4.71-11.29-2.01l-31.406-40.351 6.05-4.711 31.406 40.341 8.07-6.277-26.177-33.621c-5.229-6.72.821-11.43.821-11.43l7.401-5.759s6.05-4.71 11.29 2.01l30.887 39.671-6.05 4.711-30.888-39.672-7.389 5.759 26.177 33.621c5.24 6.731-.821 11.441-.821 11.441M213.842 757.685l-6.202-8.124 5.435-22.375-14.467-18.971-14.228 10.858-5.175-6.774 33.88-25.854 5.165 6.774-13.548 10.339 14.217 18.637 22.591 1.512 6.212 8.135-27.117-1.825-6.763 27.668ZM277.508 804.371s-4.786 5.996-10.815.853l-33.686-28.781c-5.834-4.98-.853-10.814-.853-10.814l22.698-26.567 6.483 5.532-22.699 26.566 32.4 27.679 22.699-26.566 6.482 5.532-22.698 26.566h-.011ZM321.803 791.083l18.712 46.575 15.169-28.608 7.53 3.986-19.966 37.651-7.53-3.997-18.701-46.575-15.179 28.608-7.52-3.997 19.966-37.64 7.519 3.997ZM380.579 818.779l-14.245 40.159 8.034 2.849 14.245-40.158-8.034-2.85ZM459.55 863.685l-1.912 10.048s-1.437 7.53-9.81 5.942l-50.226-9.572 1.437-7.541 50.226 9.572 1.912-10.048-41.853-7.973c-8.373-1.599-6.936-9.129-6.936-9.129l1.75-9.205s1.437-7.53 9.81-5.942l49.394 9.41-1.436 7.53-49.395-9.41-1.75 9.205 41.853 7.973c8.373 1.599 6.936 9.129 6.936 9.129M540.794 846.366l.443 13.623s.249 7.671-8.265 7.941l-42.588 1.394.443 13.623-8.513.281-1.394-42.588 51.102-1.664c8.524-.281 8.772 7.39 8.772 7.39Zm-51.101 1.664.443 13.634 42.588-1.394-.443-13.623-42.588 1.394v-.011ZM615.113 828.77l6.903 26.382s1.945 7.423-6.309 9.573l-41.227 10.782c-8.243 2.16-10.188-5.262-10.188-5.262l-6.903-26.382s-1.945-7.423 6.309-9.572l41.227-10.783c8.243-2.149 10.188 5.262 10.188 5.262Zm-49.47 12.932 6.903 26.383 41.227-10.772-6.903-26.382-41.227 10.782v-.011ZM694.541 829.082l-15.373-7.368-29.473 15.362 6.299 12.09-7.563 3.943-19.684-37.791 45.343-23.628c7.563-3.943 11.106 2.863 11.106 2.863l6.299 12.089s3.543 6.807-4.008 10.739l15.373 7.368-8.308 4.333h-.011Zm-16.907-30.596-37.792 19.684 6.299 12.089 37.791-19.695-6.298-12.089v.011ZM742.013 749.814l-19.792 16.184 22.115 27.042-6.59 5.401-22.116-27.052-19.792 16.184-4.862-5.931 46.175-37.759 4.862 5.931ZM801.574 704.981l7.973 6.406s5.985 4.797.648 11.441l-32.011 39.866-5.985-4.797 32.011-39.865-7.973-6.396-26.674 33.221c-5.337 6.644-11.312 1.837-11.312 1.837l-7.314-5.867s-5.985-4.796-.648-11.441l31.471-39.206 5.974 4.807-31.471 39.207 7.314 5.866 26.675-33.221c5.337-6.644 11.311-1.847 11.311-1.847"/></g><defs><clipPath id="a"><path fill="#fff" d="M63.098 63h873.49v873.49H63.098z"/></clipPath></defs></svg>