<svg xmlns="http://www.w3.org/2000/svg" width="1001" height="1000" fill="none"><g clip-path="url(#a)"><path fill="#010101" d="M215.098 74v726.05l285 126.86 285-126.86V74h-570Z"/><path fill="#fff" d="m775.358 793.728-275.26 122.52-275.26-122.52V83.738h550.52v709.99Z"/><path fill="#010101" d="M233.358 92.262v695.94l266.74 118.73 266.74-118.73V92.262h-533.48Z"/><path fill="#fff" d="m749.798 777.131-249.7 111.15-249.7-111.15v-667.83h499.4v667.83Z"/><path fill="#010101" d="M279.798 293.93v464.39l48.25 21.7V611.79l98.25 43.91V293.93h-146.5Zm97.94 271.38-49-21.88V342.47h49v222.84ZM573.518 293.93v529.41l146.5-65.32V293.93h-146.5Zm97.56 437.05-49.01 20.42V342.47h49.01v388.52-.01ZM524.538 337.199v508.4l-24.44 10.41h-.01l-24.49-10.38v-508.43c7.47 3.41 15.75 5.27 24.49 5.27h.01c8.71 0 16.98-1.86 24.44-5.27Z"/><path fill="#FDCF1F" d="M445.828 269.11h-166.04v-72.63h165.83v67.91c0 1.59.08 3.16.21 4.72ZM720.388 196.48v72.63h-166.07c.14-1.56.21-3.13.21-4.72v-67.91h165.86Z"/><path fill="#010101" d="M293.078 138.699v6.75h3.47v20.76h-3.47v6.07h14.36v-6.07h-3.54v-7.27h6.89v-6.43h-6.89v-7.06h7.96v4.71h7.19v-11.46h-25.97ZM347.678 138.701v6.1h3.57v13.92c0 1.36-.15 2.49-.41 3.4-.27.9-.67 1.62-1.17 2.15-.51.54-1.13.93-1.84 1.14-.72.22-1.51.33-2.39.33-.88 0-1.62-.13-2.32-.39-.71-.26-1.33-.67-1.84-1.23-.52-.56-.92-1.28-1.21-2.17-.29-.89-.44-1.96-.44-3.24v-13.92h3.08v-6.1h-13.46v6.1h3.03v13.46c0 2.26.34 4.28 1.02 6.07.68 1.78 1.61 3.3 2.78 4.54 1.18 1.25 2.56 2.2 4.14 2.86 1.57.66 3.27.99 5.09.99 1.82 0 3.55-.33 5.15-1 1.61-.66 2.99-1.63 4.19-2.9 1.19-1.27 2.12-2.82 2.8-4.66.68-1.84 1.02-3.94 1.02-6.3v-13.06h2.68v-6.1h-13.46l-.01.01ZM372.208 138.699v10.22h7.21v-4.35h4.08v21.64h-3.48v6.07h14.37v-6.07h-3.54v-21.64h4.63v4.35h7.26v-10.22h-30.53ZM441.058 158.088a8.397 8.397 0 0 0-2.62-2.62 6.777 6.777 0 0 0 2.42-2.57c.57-1.07.85-2.41.85-4.04 0-1.38-.26-2.69-.77-3.92-.51-1.24-1.22-2.31-2.13-3.24-.92-.92-2.01-1.65-3.27-2.19-1.27-.55-2.65-.82-4.17-.82l-16.36-.04v6.14h3.43v21.41h-3.43v6.07h16.85c1.44 0 2.77-.26 4.02-.77a9.713 9.713 0 0 0 3.21-2.14c.91-.92 1.63-2.02 2.15-3.3.52-1.27.78-2.67.78-4.19 0-1.52-.32-2.75-.96-3.8m-15.26-13.29h5.27c.41 0 .8.11 1.17.34.36.23.69.52.96.9.28.36.5.78.66 1.24.16.45.24.91.24 1.36a4.093 4.093 0 0 1-.9 2.54c-.27.34-.6.62-.96.83-.37.21-.76.3-1.17.3h-5.27v-7.52.01Zm8.41 18.94c-.16.49-.38.9-.66 1.27-.27.36-.6.66-.97.88-.38.22-.78.33-1.21.33h-5.57v-7.81h5.57c.41 0 .82.1 1.19.29.36.21.69.47.99.83.28.34.5.76.66 1.22.16.46.24.97.24 1.51s-.09 1.02-.24 1.5M485.658 150.85c-.39-1.47-.92-2.87-1.63-4.16-.69-1.29-1.55-2.46-2.52-3.52-.99-1.06-2.08-1.96-3.29-2.71-1.19-.76-2.49-1.34-3.89-1.75-1.39-.41-2.85-.62-4.37-.62s-2.98.21-4.37.62c-1.39.42-2.68 1-3.88 1.75-1.2.75-2.3 1.66-3.27 2.71-.99 1.06-1.83 2.23-2.52 3.52s-1.23 2.69-1.62 4.16c-.38 1.48-.57 3.03-.57 4.65 0 1.62.2 3.15.57 4.62.39 1.47.93 2.86 1.62 4.15.69 1.29 1.53 2.47 2.52 3.52a15.67 15.67 0 0 0 3.27 2.71c1.2.75 2.49 1.34 3.88 1.75 1.39.41 2.85.62 4.37.62s2.98-.21 4.37-.62c1.4-.41 2.7-1 3.89-1.75 1.21-.76 2.3-1.66 3.29-2.71.97-1.05 1.83-2.23 2.52-3.52.71-1.29 1.24-2.68 1.63-4.16.38-1.48.57-3.02.57-4.61 0-1.59-.2-3.17-.57-4.65Zm-7.63 8.66c-.43 1.27-1.01 2.36-1.78 3.32a8.66 8.66 0 0 1-2.76 2.25c-1.07.56-2.25.84-3.53.84-1.28 0-2.43-.28-3.51-.84a8.588 8.588 0 0 1-2.74-2.25c-.77-.96-1.38-2.06-1.81-3.32-.42-1.27-.65-2.6-.65-4.02 0-1.42.22-2.79.65-4.05.44-1.28 1.05-2.39 1.81-3.33.77-.95 1.68-1.7 2.74-2.26 1.07-.55 2.23-.83 3.51-.83 1.28 0 2.43.28 3.49.83 1.07.56 1.98 1.31 2.76 2.26.77.95 1.38 2.06 1.8 3.33.43 1.27.65 2.62.65 4.05 0 1.43-.21 2.75-.63 4.02ZM519.378 159.939v4.5c0 .18-.04.39-.13.6-.09.21-.2.4-.34.57-.13.18-.3.32-.49.44-.18.11-.36.16-.56.16h-7.32v-21.41h3.54v-6.1h-14.36v6.1h3.47v21.41h-3.47v6.07h26.84v-12.34h-7.18ZM579.268 160.768c-.27.66-.63 1.3-1.11 1.91-.47.61-1.02 1.16-1.66 1.63-.62.48-1.33.85-2.09 1.13-.77.29-1.59.44-2.48.44-1.27 0-2.43-.28-3.49-.83a8.76 8.76 0 0 1-2.75-2.25c-.77-.95-1.36-2.04-1.8-3.31-.44-1.27-.66-2.61-.66-4.04 0-1.43.23-2.76.67-4.02.44-1.26 1.05-2.37 1.83-3.32.78-.95 1.69-1.71 2.75-2.27 1.07-.55 2.21-.83 3.46-.83.84 0 1.65.11 2.42.32.77.22 1.48.57 2.14 1.07.67.49 1.41 1.33 2.24 2.51h6.84v-7.48h-4.95c-1.5-1.33-2.86-2.22-4.1-2.67-1.24-.45-2.76-.68-4.59-.68-2.26 0-4.39.46-6.37 1.36a16.17 16.17 0 0 0-5.15 3.73c-1.46 1.57-2.6 3.41-3.46 5.51-.84 2.11-1.25 4.36-1.25 6.77 0 1.61.18 3.15.57 4.64.39 1.49.93 2.87 1.62 4.16.69 1.29 1.53 2.47 2.51 3.53.99 1.07 2.08 1.97 3.29 2.73 1.19.75 2.49 1.34 3.88 1.75 1.39.41 2.84.62 4.36.62 1.8 0 3.48-.26 5.04-.78 1.56-.51 2.97-1.22 4.21-2.12 1.25-.9 2.31-1.97 3.2-3.2a13.96 13.96 0 0 0 2.01-4.03l-7.12-1.98h-.01ZM619.898 159.939v4.5c0 .18-.05.39-.13.6-.08.21-.21.4-.34.57-.15.18-.3.32-.49.44-.19.11-.38.16-.57.16h-7.3v-21.41h3.54v-6.1h-14.37v6.1h3.48v21.41h-3.48v6.07h26.84v-12.34h-7.18ZM656.158 138.701v6.1h3.57v13.92c0 1.36-.13 2.49-.4 3.4-.28.9-.67 1.62-1.18 2.15-.51.54-1.12.93-1.84 1.14-.72.22-1.51.33-2.37.33-.86 0-1.62-.13-2.32-.39a4.63 4.63 0 0 1-1.85-1.23c-.51-.56-.91-1.28-1.2-2.17-.28-.89-.43-1.96-.43-3.24v-13.92h3.08v-6.1h-13.47v6.1h3.04v13.46c0 2.26.34 4.28 1.01 6.07.68 1.78 1.61 3.3 2.79 4.54 1.17 1.25 2.54 2.2 4.13 2.86 1.58.66 3.27.99 5.1.99 1.83 0 3.54-.33 5.15-1 1.59-.66 2.99-1.63 4.19-2.9 1.18-1.27 2.12-2.82 2.8-4.66.68-1.84 1.01-3.94 1.01-6.3v-13.06h2.69v-6.1h-13.47l-.03.01ZM708.808 158.088a8.432 8.432 0 0 0-2.63-2.62c1.05-.66 1.86-1.51 2.42-2.57.57-1.07.85-2.41.85-4.04 0-1.38-.26-2.69-.76-3.92-.51-1.24-1.23-2.31-2.14-3.24-.91-.92-2.01-1.65-3.26-2.19-1.27-.55-2.67-.82-4.17-.82l-16.37-.04v6.14h3.43v21.41h-3.43v6.07h16.86c1.42 0 2.76-.26 4.01-.77a9.756 9.756 0 0 0 3.22-2.14c.9-.92 1.62-2.02 2.14-3.3.52-1.27.79-2.67.79-4.19 0-1.52-.33-2.75-.96-3.8m-15.28-13.29h5.27c.41 0 .8.11 1.18.34.36.23.68.52.96.9.27.36.49.78.65 1.24.17.45.24.91.24 1.36 0 .47-.07.94-.24 1.36-.16.44-.38.83-.65 1.18-.28.34-.6.62-.96.83-.38.21-.77.3-1.18.3h-5.27v-7.52.01Zm8.41 18.94c-.16.49-.38.9-.65 1.27-.28.36-.6.66-.97.88-.38.22-.78.33-1.2.33h-5.59v-7.81h5.59c.4 0 .8.1 1.18.29.38.21.71.47.99.83.28.34.5.76.66 1.22.17.46.24.97.24 1.51s-.07 1.02-.24 1.5M332.938 228.169v-8.36h-19.51v4.88h2.58v15.22h-2.58v4.43h19.51v-8.79h-5.27v4.36h-6.29v-5.69h4.87v-4.68h-4.87v-4.85h6.29v3.48h5.27ZM356.718 228.148v-4.89h-1.62c-.24-.53-.61-1.06-1.07-1.56a7.59 7.59 0 0 0-1.72-1.34c-.68-.39-1.44-.7-2.29-.93-.85-.23-1.79-.35-2.79-.35-1.28 0-2.45.17-3.51.49-1.07.33-2 .8-2.77 1.42-.78.62-1.38 1.4-1.81 2.3-.43.91-.65 1.96-.65 3.12 0 1.01.15 1.9.45 2.68.29.78.69 1.47 1.19 2.04.5.58 1.08 1.07 1.73 1.46.66.39 1.34.69 2.03.9l3.71 1.21c.33.11.67.22 1.01.35.35.13.66.29.94.48.28.19.51.43.69.69.17.28.27.62.27 1.03 0 .79-.26 1.42-.77 1.86-.5.45-1.24.68-2.22.68-.63 0-1.19-.09-1.67-.26-.47-.17-.86-.4-1.18-.71-.3-.3-.55-.66-.71-1.07-.15-.4-.23-.85-.23-1.34v-1h-5.85v4.87h1.67c.29.69.69 1.33 1.22 1.89.51.55 1.12 1.02 1.8 1.42.69.4 1.46.71 2.3.91.83.22 1.72.32 2.65.32 1.34 0 2.56-.2 3.66-.59 1.1-.39 2.05-.92 2.82-1.63.79-.71 1.4-1.55 1.84-2.52.44-.99.66-2.07.66-3.25 0-.88-.11-1.67-.34-2.36-.23-.71-.54-1.33-.92-1.86-.4-.55-.86-1-1.4-1.38-.55-.38-1.12-.68-1.74-.89l-4.44-1.5c-.38-.12-.77-.24-1.17-.35-.4-.11-.77-.26-1.1-.44-.33-.18-.6-.41-.8-.71-.21-.28-.32-.67-.32-1.16 0-.39.09-.72.23-1 .16-.28.37-.51.63-.69.27-.17.57-.3.94-.39.35-.09.73-.14 1.14-.14.45 0 .89.07 1.3.22.41.13.79.33 1.12.57.33.24.6.52.8.86.21.33.34.69.4 1.07v1.42h5.85l.04.05ZM361.018 219.809v7.46h5.27v-3.17h2.98v15.81h-2.54v4.43h10.5v-4.43h-2.59v-15.81h3.38v3.17h5.31v-7.46h-22.31ZM389.778 240.5c-.16-.39-.39-.73-.67-1.01-.29-.29-.62-.51-1.01-.68-.38-.17-.78-.24-1.21-.24-.43 0-.85.07-1.24.24-.39.17-.72.4-1.01.69-.28.29-.51.62-.66 1-.16.38-.24.78-.24 1.22 0 .44.08.85.24 1.23.15.39.38.72.66 1 .29.28.62.5 1 .67.39.17.8.26 1.25.26.45 0 .84-.09 1.22-.26s.71-.39.99-.67.51-.61.67-1c.17-.39.26-.8.26-1.23 0-.43-.09-.83-.24-1.22M616.978 231.812a9.99 9.99 0 0 0 1.59-2.34c.39-.82.59-1.7.59-2.65 0-1.21-.22-2.26-.65-3.18a6.588 6.588 0 0 0-1.75-2.31c-.74-.62-1.59-1.1-2.56-1.42-.96-.33-1.98-.49-3.05-.49-1.13 0-2.19.18-3.19.54-.99.35-1.85.88-2.59 1.56-.74.68-1.32 1.53-1.74 2.53-.41 1-.63 2.13-.63 3.4h4.88c0-.43.09-.84.22-1.23.15-.39.34-.72.61-1.01.27-.29.6-.52.98-.69.39-.17.85-.24 1.39-.24.44 0 .84.07 1.18.21.35.15.66.34.89.58.24.24.44.52.56.83.13.3.19.62.19.94 0 .73-.19 1.45-.6 2.17-.4.71-.96 1.42-1.69 2.13l-8.48 9.01v4.21h16.01v-4.97h-9.14l6.99-7.56-.01-.02ZM643.378 227.162c-.34-1.51-.88-2.84-1.64-3.97a8.207 8.207 0 0 0-2.95-2.69c-1.22-.66-2.69-.99-4.44-.99-1.75 0-3.26.34-4.48 1-1.22.67-2.2 1.58-2.96 2.73-.75 1.16-1.3 2.49-1.64 4.02-.33 1.52-.5 3.15-.5 4.88s.18 3.37.52 4.89c.35 1.51.91 2.82 1.67 3.94.77 1.12 1.75 2 2.96 2.63 1.21.63 2.68.96 4.4.96 1.72 0 3.2-.33 4.42-1 1.22-.66 2.22-1.55 2.97-2.68.77-1.13 1.32-2.46 1.67-3.99.35-1.52.52-3.15.52-4.89 0-1.74-.17-3.32-.51-4.84m-4.89 7.88c-.08.92-.28 1.73-.58 2.4-.29.67-.73 1.21-1.3 1.58-.56.39-1.33.58-2.29.58s-1.72-.2-2.29-.58c-.56-.38-1-.91-1.29-1.58-.29-.67-.49-1.47-.58-2.4-.09-.92-.13-1.94-.13-3.03 0-1.09.05-2.06.13-2.98.1-.92.29-1.73.6-2.41.29-.68.73-1.22 1.3-1.61.57-.39 1.34-.58 2.3-.58.96 0 1.7.19 2.28.58.56.39 1 .92 1.29 1.61.3.68.49 1.48.57 2.41.09.92.13 1.91.13 2.98s-.05 2.11-.13 3.03M663.618 231.812c.67-.74 1.2-1.52 1.59-2.34.4-.82.6-1.7.6-2.65 0-1.21-.22-2.26-.65-3.18-.44-.91-1.02-1.69-1.76-2.31-.73-.62-1.58-1.1-2.56-1.42a9.27 9.27 0 0 0-3.04-.49c-1.13 0-2.19.18-3.19.54-.99.35-1.86.88-2.59 1.56-.74.68-1.33 1.53-1.74 2.53-.43 1-.63 2.13-.63 3.4h4.87c.01-.43.09-.84.23-1.23.13-.39.34-.72.61-1.01.26-.29.58-.52.98-.69.39-.17.85-.24 1.38-.24.45 0 .84.07 1.19.21.35.15.64.34.89.58.24.24.43.52.56.83.13.3.19.62.19.94 0 .73-.21 1.45-.6 2.17-.4.71-.97 1.42-1.7 2.13l-8.47 9.01v4.21h15.99v-4.97h-9.14l6.99-7.56v-.02ZM685.988 231.812c.67-.74 1.21-1.52 1.59-2.34.4-.82.6-1.7.6-2.65 0-1.21-.22-2.26-.65-3.18-.44-.91-1.02-1.69-1.77-2.31-.73-.62-1.58-1.1-2.56-1.42a9.27 9.27 0 0 0-3.04-.49c-1.13 0-2.19.18-3.19.54-1 .35-1.86.88-2.59 1.56-.74.68-1.33 1.53-1.74 2.53-.43 1-.63 2.13-.63 3.4h4.87c.01-.43.09-.84.23-1.23.13-.39.34-.72.6-1.01.27-.29.6-.52 1-.69.39-.17.85-.24 1.38-.24.45 0 .84.07 1.19.21.35.15.64.34.89.58.24.24.43.52.56.83.12.3.19.62.19.94 0 .73-.21 1.45-.6 2.17-.4.71-.97 1.42-1.7 2.13l-8.47 9.01v4.21h15.99v-4.97h-9.14l6.99-7.56v-.02Z"/><path fill="#FFFCEF" d="M545.278 264.39c0 1.59-.09 3.17-.24 4.72-2.38 22.71-21.62 40.47-44.94 40.48h-.02c-23.34 0-42.59-17.77-44.96-40.48-.16-1.55-.25-3.13-.25-4.72v-58.66h90.41v58.66Z"/><path fill="#010101" d="M445.618 196.48v67.91c0 1.59.08 3.16.21 4.72 2.38 27.86 25.77 49.73 54.25 49.73h.02c28.47-.01 51.84-21.87 54.22-49.73.14-1.56.21-3.13.21-4.72v-67.91h-108.91Zm54.48 113.11h-.02c-23.34 0-42.59-17.77-44.96-40.48-.16-1.55-.25-3.13-.25-4.72v-58.66h90.41v58.66c0 1.59-.09 3.17-.24 4.72-2.38 22.71-21.62 40.47-44.94 40.48Z"/><path fill="#FFFCEF" d="M545.278 205.73v58.66c0 1.59-.09 3.17-.24 4.72-2.38 22.71-21.62 40.47-44.94 40.48h-.02c-23.34 0-42.59-17.77-44.96-40.48-.16-1.55-.25-3.13-.25-4.72v-58.66h90.41Z"/><path fill="#010101" d="M508.878 244.33c2.19 0 3.96-1.77 3.96-3.96s-1.77-3.96-3.96-3.96-3.96 1.77-3.96 3.96 1.77 3.96 3.96 3.96Z"/><path fill="#010101" d="M523.848 234.999a15.46 15.46 0 0 0-7.16-8.09 9.257 9.257 0 0 0 2.48-6.3v-9.41h-4.62c-3.52 0-6.6 1.97-8.17 4.87-.39-.05-.78-.09-1.18-.09h-9.41v4.62c0 2.33.86 4.44 2.28 6.07-4.07 2.19-6.84 6.5-6.84 11.44v.09c-12.73 2.63-22.32 13.91-22.32 27.41 0 1.18.07 2.35.23 3.49 1.71 13.79 13.51 24.5 27.76 24.5 1.08 0 2.15-.06 3.2-.2 12.78-1.45 22.97-11.56 24.55-24.31.16-1.14.23-2.31.23-3.49v-14.82c.41.22.88.35 1.38.35 1.59 0 2.9-1.3 2.9-2.9 0-1.6-1.3-2.9-2.9-2.9h-1.38v-1.16h7c.43 0 .77-.36.73-.78-.39-4.59-4.13-8.19-8.76-8.41m-19.62-.64h5.26c3.4 0 6.16 2.76 6.16 6.16v7.61h-5.16c-5.51 0-10.01-4.49-10.01-10.01a3.76 3.76 0 0 1 3.75-3.76Zm-4.13 49.72c-1.04.18-2.11.28-3.2.28-9.14 0-16.77-6.59-18.41-15.25-.22-1.13-.33-2.3-.33-3.49 0-9.18 6.62-16.83 15.34-18.44 1.56 2.91 3.85 5.37 6.61 7.14 2.99 1.93 6.56 3.05 10.38 3.05h5.16v8.24c0 1.19-.11 2.36-.33 3.49-1.45 7.63-7.53 13.64-15.21 14.97"/><path fill="#010101" d="M491.048 270.759a8.216 8.216 0 0 1-2.42-5.84c0-2.2.86-4.28 2.42-5.84l-4.36-4.36a14.327 14.327 0 0 0-4.23 10.2c0 3.85 1.5 7.48 4.23 10.2 2.81 2.81 6.51 4.22 10.2 4.22 3.69 0 7.39-1.41 10.2-4.22l-4.36-4.36c-3.22 3.22-8.47 3.22-11.69 0"/></g><defs><clipPath id="a"><path fill="#fff" d="M215.098 74h570v852.91h-570z"/></clipPath></defs></svg>