<svg xmlns="http://www.w3.org/2000/svg" width="700" height="700" fill="none"><g fill="#fff" clip-path="url(#a)"><path d="M350.008 0C156.706 0 0 156.706 0 350.008c0 193.301 156.706 350.007 350.008 350.007 193.301 0 350.007-156.706 350.007-350.007C700.015 156.706 543.309 0 350.008 0Zm0 685.685c-185.396 0-335.678-150.297-335.678-335.677 0-185.381 150.282-335.693 335.678-335.693s335.677 150.297 335.677 335.677c0 185.381-150.297 335.678-335.677 335.678v.015Z"/><path d="m41.206 351.02 43.518-3.25 1.784 23.823c.53 7.044-2.751 10.823-9.81 11.352l-6.198.469c-7.059.529-10.853-2.736-11.382-9.78l-1.315-17.61-16.144 1.209-.468-6.228.015.015Zm22.84 4.55 1.285 17.278c.12 1.662.574 2.826 1.36 3.506.786.681 2.01.953 3.658.832l5.578-.423c1.663-.121 2.827-.575 3.507-1.361.68-.786.952-2.01.831-3.658l-1.285-17.277-14.934 1.118v-.015Z"/><path d="M69.094 387.026c-3.718 0-6.741-.997-9.039-2.962-2.63-2.253-4.127-5.669-4.459-10.158l-1.043-14.058-16.144 1.209-.997-13.302 50.607-3.779 2.041 27.36c.665 8.964-4.096 14.481-13.075 15.161l-6.198.469c-.574.045-1.133.06-1.677.06h-.016Zm-.045-13.407c.181.03.514.06 1.043.015l5.578-.424c.529-.045.861-.121 1.028-.181.03-.181.06-.499.015-1.043l-1.028-13.725-7.86.589 1.028 13.726c.045.529.12.861.181 1.027l.015.016ZM77.968 476.86a6.125 6.125 0 0 1-2.419.483 6.196 6.196 0 0 1-2.358-.468 6.24 6.24 0 0 1-1.995-1.33 5.941 5.941 0 0 1-1.376-2.041l-9.568-23.021a6.118 6.118 0 0 1-.484-2.419c0-.831.166-1.617.469-2.358a6.224 6.224 0 0 1 1.33-1.995 5.937 5.937 0 0 1 2.04-1.376l28.781-11.957a6.178 6.178 0 0 1 2.419-.483c.831 0 1.602.166 2.343.483a6.684 6.684 0 0 1 1.995 1.331 5.975 5.975 0 0 1 1.391 2.04l9.568 23.022c.332.786.484 1.602.468 2.433a6.829 6.829 0 0 1-.468 2.359 6.204 6.204 0 0 1-1.315 1.995 5.942 5.942 0 0 1-2.041 1.375l-28.78 11.957v-.03Zm16.823-40.738-28.78 11.957 9.568 23.022 28.781-11.957-9.569-23.022Z"/><path d="M75.61 480.896h-.091a9.43 9.43 0 0 1-3.674-.741 9.997 9.997 0 0 1-3.129-2.071 9.623 9.623 0 0 1-2.176-3.22l-9.569-23.021a9.519 9.519 0 0 1-.755-3.809 9.49 9.49 0 0 1 .74-3.673 9.822 9.822 0 0 1 2.071-3.129 9.616 9.616 0 0 1 3.22-2.177l28.78-11.957a9.805 9.805 0 0 1 3.825-.755 9.59 9.59 0 0 1 3.688.755 10.319 10.319 0 0 1 3.069 2.026 9.505 9.505 0 0 1 2.222 3.25l9.568 23.021c.514 1.24.756 2.54.741 3.87a10.479 10.479 0 0 1-.726 3.613 9.457 9.457 0 0 1-2.071 3.159 9.615 9.615 0 0 1-3.219 2.176L79.343 480.17a9.617 9.617 0 0 1-3.719.756l-.015-.03Zm-4.959-30.897L77.5 466.46l22.22-9.236-6.847-16.461-22.22 9.236ZM149.677 540.709c-4.595 3.991-8.918 4.308-12.969.937l-7.951 17.777-4.535-5.215 7.86-17.55-8.963-10.324-13.166 11.428-4.097-4.717 32.968-28.599 15.66 18.048c4.625 5.336 4.263 10.325-1.073 14.965l-3.749 3.25h.015Zm-21.827-18.456 11.352 13.075c1.088 1.254 2.146 1.92 3.174 1.995 1.028.076 2.177-.438 3.431-1.527l3.296-2.856c1.254-1.089 1.919-2.147 1.995-3.175.076-1.028-.438-2.176-1.527-3.431l-11.352-13.075-10.369 8.994Z"/><path d="m129.739 565.953-9.659-11.141 7.86-17.549-5.139-5.926-13.166 11.428-8.737-10.082 38.334-33.255 17.988 20.724c5.895 6.787 5.366 14.072-1.436 19.968l-3.749 3.25c-5.472 4.746-10.218 4.67-13.665 3.325l-8.601 19.242-.03.016Zm3.144-43.353 9.024 10.4c.348.408.605.62.756.726.167-.076.439-.257.847-.605l3.295-2.857c.408-.348.62-.605.726-.756-.076-.166-.257-.438-.605-.846l-9.024-10.4-5.004 4.338h-.015ZM195.644 567.238a6.221 6.221 0 0 1 1.663-1.829 6.271 6.271 0 0 1 2.162-1.013 6.692 6.692 0 0 1 2.403-.121 5.888 5.888 0 0 1 2.328.816l20.301 12.199c.725.438 1.33.997 1.814 1.677a6.498 6.498 0 0 1 1.012 2.177c.197.771.242 1.572.136 2.388a6.338 6.338 0 0 1-.831 2.328l-2.902 4.822-5.351-3.219 2.902-4.822-20.301-12.199-16.053 26.71 20.301 12.198 2.887-4.807 5.351 3.22-2.887 4.807a6.22 6.22 0 0 1-1.663 1.829 5.97 5.97 0 0 1-2.177 1.013 6.24 6.24 0 0 1-4.731-.711l-20.3-12.198a6.221 6.221 0 0 1-1.829-1.663 5.96 5.96 0 0 1-1.013-2.177 6.092 6.092 0 0 1-.121-2.403c.106-.816.393-1.587.831-2.328l16.053-26.71.015.016Z"/><path d="M205.243 619.16c-.454 0-.922-.03-1.391-.09a9.67 9.67 0 0 1-3.658-1.3l-20.3-12.199a9.38 9.38 0 0 1-2.872-2.63 9.61 9.61 0 0 1-1.588-3.401 10.071 10.071 0 0 1-.196-3.749 9.907 9.907 0 0 1 1.3-3.673l16.053-26.71a9.759 9.759 0 0 1 6.046-4.459 10.3 10.3 0 0 1 3.673-.196 9.419 9.419 0 0 1 3.719 1.3l20.301 12.198a9.588 9.588 0 0 1 2.887 2.676 10.153 10.153 0 0 1 1.557 3.325 9.555 9.555 0 0 1 .211 3.764 9.814 9.814 0 0 1-1.3 3.673l-4.731 7.86-11.428-6.877 2.903-4.822-14.209-8.541-12.395 20.633 14.209 8.541 2.887-4.807 11.427 6.878-4.716 7.845a9.747 9.747 0 0 1-2.63 2.872 9.713 9.713 0 0 1-3.401 1.587 9.48 9.48 0 0 1-2.358.287v.015ZM281.744 599.676l-11.714 42.052-6.017-1.678 11.715-42.052 6.016 1.678Z"/><path d="m273.271 593.582-13.621 48.882 12.858 3.583 13.62-48.882-12.857-3.583ZM337.9 652.4l-6.243.106-.71-43.64 6.242-.105 26.786 33.421-.545-33.845 6.243-.105.711 43.639-6.243.106-26.785-33.421.544 33.844Z"/><path d="m328.165 656.103-.816-50.743 11.518-.182 21.389 26.68-.438-27.027 13.332-.212.831 50.744-11.533.181-21.389-26.679.438 27.027-13.332.211ZM466.143 623.453c.272.801.393 1.618.332 2.449a6.412 6.412 0 0 1-.619 2.328 6.174 6.174 0 0 1-1.451 1.92 6.312 6.312 0 0 1-2.132 1.254l-23.565 8.117a6.161 6.161 0 0 1-2.449.333 6.104 6.104 0 0 1-2.328-.62 6.132 6.132 0 0 1-1.92-1.451 6.308 6.308 0 0 1-1.254-2.131l-10.143-29.476a6.177 6.177 0 0 1-.333-2.449 6.336 6.336 0 0 1 .62-2.313 6.507 6.507 0 0 1 1.451-1.919 6.048 6.048 0 0 1 2.132-1.27l23.565-8.117a6.165 6.165 0 0 1 2.449-.318 6.728 6.728 0 0 1 2.328.62c.725.348 1.36.816 1.904 1.436.56.62.968 1.33 1.255 2.131l10.143 29.476h.015Zm-39.619-19.318 10.143 29.476 23.566-8.117-10.143-29.476-23.566 8.117Z"/><path d="M436.697 643.406c-.227 0-.453 0-.695-.03a9.949 9.949 0 0 1-3.628-.967 9.89 9.89 0 0 1-2.993-2.268 9.483 9.483 0 0 1-1.965-3.356l-10.143-29.475a9.624 9.624 0 0 1-.514-3.855 9.754 9.754 0 0 1 .983-3.643 9.906 9.906 0 0 1 2.222-2.932 9.538 9.538 0 0 1 3.371-2.011l23.565-8.117a9.552 9.552 0 0 1 3.9-.499c1.255.106 2.449.423 3.552.952a9.95 9.95 0 0 1 3.024 2.253 9.518 9.518 0 0 1 1.965 3.355l10.142 29.476a9.589 9.589 0 0 1 .514 3.855 9.929 9.929 0 0 1-.967 3.628 9.76 9.76 0 0 1-2.267 2.993 9.53 9.53 0 0 1-3.356 1.965l-23.566 8.117a9.576 9.576 0 0 1-3.174.529l.03.03Zm-5.653-37.064 7.83 22.749 16.854-5.804-7.83-22.749-16.854 5.804ZM517.567 580.403a6.076 6.076 0 0 1-2.222 1.074 6.83 6.83 0 0 1-2.404.151 6.007 6.007 0 0 1-2.267-.756 5.969 5.969 0 0 1-1.859-1.633l-7.589-9.916a6.34 6.34 0 0 1-1.088-2.222 5.812 5.812 0 0 1-.136-2.388 6.483 6.483 0 0 1 .771-2.282 6.169 6.169 0 0 1 1.617-1.875l16.824-12.878a6.068 6.068 0 0 1 2.222-1.074 6.805 6.805 0 0 1 2.404-.151 6.288 6.288 0 0 1 2.267.756 5.99 5.99 0 0 1 1.859 1.632l1.587 2.086-4.958 3.795-1.587-2.086-16.824 12.878 7.589 9.916 16.823-12.878a6.356 6.356 0 0 1 2.223-1.089 6.167 6.167 0 0 1 2.403-.151 6.122 6.122 0 0 1 2.267.771 5.993 5.993 0 0 1 1.86 1.632l7.573 9.886a6.35 6.35 0 0 1 1.088 2.222c.212.801.257 1.603.151 2.404a6.122 6.122 0 0 1-.771 2.267 5.99 5.99 0 0 1-1.632 1.859l-17.308 13.242a6.35 6.35 0 0 1-2.222 1.088 6.148 6.148 0 0 1-2.403.151 6.293 6.293 0 0 1-2.283-.771 6 6 0 0 1-1.859-1.632l-1.859-2.404 4.958-3.794 1.859 2.404 17.307-13.242-7.573-9.885-16.823 12.878.015.015Z"/><path d="M524.656 600.462c-.423 0-.862-.03-1.285-.091a10.077 10.077 0 0 1-3.552-1.194 9.662 9.662 0 0 1-2.933-2.554l-4.02-5.215 10.596-8.102 1.859 2.403 11.685-8.933-3.25-4.248-13.998 10.717a9.597 9.597 0 0 1-3.537 1.708 10.066 10.066 0 0 1-3.673.227c-1.254-.151-2.449-.559-3.582-1.194a9.665 9.665 0 0 1-2.933-2.555l-7.588-9.916a10.03 10.03 0 0 1-1.708-3.492 9.616 9.616 0 0 1-.212-3.763 9.877 9.877 0 0 1 1.179-3.492 9.332 9.332 0 0 1 2.57-2.978l16.824-12.879a9.678 9.678 0 0 1 3.552-1.708 10.09 10.09 0 0 1 3.673-.227c1.255.152 2.449.56 3.583 1.195a9.633 9.633 0 0 1 2.932 2.554l3.734 4.913-10.596 8.102-1.587-2.086-11.171 8.556 3.265 4.277 13.997-10.717a10.03 10.03 0 0 1 3.492-1.708 9.766 9.766 0 0 1 3.734-.227c1.254.167 2.433.575 3.552 1.194a9.885 9.885 0 0 1 2.932 2.555l7.573 9.886a9.89 9.89 0 0 1 1.709 3.492 9.8 9.8 0 0 1 .226 3.748 9.976 9.976 0 0 1-1.194 3.553 9.658 9.658 0 0 1-2.554 2.932l-17.308 13.242a10.03 10.03 0 0 1-3.492 1.708 9.775 9.775 0 0 1-2.464.317h-.03ZM572.135 518.217l5.517-7.241 7.241 5.518-5.518 7.24-7.24-5.517Z"/><path d="m580.055 528.707-12.893-9.81 9.81-12.894 12.894 9.81-9.811 12.894Zm-2.947-11.155 1.587 1.209 1.209-1.587-1.587-1.209-1.209 1.587ZM589.548 457.768l12.078-29.43 5.774 2.373-9.704 23.656 11.548 4.747 8.284-20.195 5.774 2.373-8.283 20.195 17.292 7.104-2.373 5.775-40.375-16.582-.015-.016Z"/><path d="m631.858 478.991-46.935-19.288 14.783-35.991 12.335 5.079-9.72 23.642 4.988 2.04 8.284-20.18 12.334 5.064-8.283 20.195 17.293 7.089-5.079 12.35ZM618.843 382.96a5.817 5.817 0 0 1-2.374-.68 5.812 5.812 0 0 1-1.859-1.497 6.97 6.97 0 0 1-1.179-2.101 5.815 5.815 0 0 1-.302-2.448l1.874-23.611a5.85 5.85 0 0 1 .695-2.374 6.505 6.505 0 0 1 1.497-1.874 6.003 6.003 0 0 1 2.071-1.179 6.031 6.031 0 0 1 2.449-.287l5.608.453-.499 6.213-5.608-.454-1.875 23.611 31.063 2.479 1.875-23.611-5.578-.438.499-6.228 5.578.439c.846.06 1.647.287 2.373.68a6.05 6.05 0 0 1 1.874 1.496 6.513 6.513 0 0 1 1.179 2.101c.257.786.363 1.603.287 2.449l-1.874 23.611a5.808 5.808 0 0 1-.68 2.373 6.03 6.03 0 0 1-1.497 1.875c-.604.529-1.315.907-2.101 1.179a6.062 6.062 0 0 1-2.449.287l-31.063-2.479.016.015Z"/><path d="M650.42 389.006c-.257 0-.529 0-.801-.03l-31.079-2.479a9.595 9.595 0 0 1-3.733-1.073c-1.134-.605-2.132-1.391-2.933-2.358a10.492 10.492 0 0 1-1.814-3.205 9.45 9.45 0 0 1-.498-3.9l1.874-23.611a9.603 9.603 0 0 1 1.103-3.778 9.902 9.902 0 0 1 2.298-2.873 9.53 9.53 0 0 1 3.28-1.859 9.777 9.777 0 0 1 3.855-.468l9.145.725-1.058 13.302-5.608-.453-1.315 16.521 23.988 1.905 1.316-16.522-5.578-.438 1.058-13.302 9.115.726a9.573 9.573 0 0 1 3.733 1.073 9.771 9.771 0 0 1 5.246 9.447l-1.875 23.611a9.6 9.6 0 0 1-1.073 3.734 9.795 9.795 0 0 1-2.328 2.932 9.821 9.821 0 0 1-3.265 1.844 9.511 9.511 0 0 1-3.068.499l.015.03ZM414.084 332.186c-8.813 4.414-16.159 6.863-22.281 7.981.257 1.209.559 2.343.862 3.22 4.292 12.304 20.058 19.469 35.9 16.295 14.481-2.903 22.144-11.715 23.414-26.952.514-6.122-2.071-13.211-4.172-17.837-6.424 3.22-16.264 8.556-33.723 17.293Z"/><path d="M625.555 236.578a4.675 4.675 0 0 1-3.477-4.686l1.134-30.156c-6.667 5.004-17.127 12.002-30.625 18.215-11.337 5.23-25.123 6.878-39.709 8.631-17.384 2.086-35.372 4.248-52.861 12.35-5.094 2.358-8.827 6.635-11.488 12.123v16.098a4.887 4.887 0 0 1-2.811 4.414c-1.92.892-48.144 21.918-136.134 21.918-87.989 0-128.152-21.147-129.815-22.039a4.85 4.85 0 0 1-2.539-4.278v-9.523c-2.63-8.51-7.029-15.267-13.967-18.487-17.489-8.087-35.462-10.248-52.86-12.349-14.587-1.754-28.358-3.416-39.71-8.631-13.936-6.425-25.742-13.257-33.194-17.883l3.673 29.416a4.653 4.653 0 0 1-3.446 5.079l-8.858 2.328c8.268 7.648 22.07 22.734 33.179 46.42 14.587 31.109 40.012 50.382 71.952 54.765 3.083-10.399 7.029-20.935 11.82-31.562-3.038-4.202-9.387-6.484-14.768-7.663-3.461-.756-7.135-1.179-10.853-1.346a81.755 81.755 0 0 0-11.352.303 87.424 87.424 0 0 1 10.505-5.094c7.014-2.706 14.497-4.807 21.964-4.868-2.736-12.773-12.713-21.918-24.911-28.856-5.351-3.099-11.035-5.82-16.794-8.374 19.469 3.189 40.662 8.072 53.057 25.304 4.383 6.076 7.21 13.332 8.646 20.588h-.03l.166.151a145.394 145.394 0 0 0-2.388 4.58c-6.319 12.758-11.367 25.334-15.177 37.714-.272.862-.529 1.738-.786 2.6-.015.075-.045.136-.06.212a211.968 211.968 0 0 0-2.071 7.633c-.03.151-.076.302-.106.438a223.487 223.487 0 0 0-1.678 7.332c-.045.196-.09.408-.121.604-.166.786-.317 1.572-.468 2.343a.444.444 0 0 1-.03.136c-.288 1.527-.56 3.054-.817 4.58l-.136.771c-.121.711-.226 1.421-.332 2.132-.046.302-.091.604-.136.922a148.454 148.454 0 0 0-.499 3.673c-.045.332-.091.68-.121 1.013a81.461 81.461 0 0 0-.212 1.904c-.045.423-.09.862-.136 1.285l-.181 1.814a156.97 156.97 0 0 0-.212 2.645 59.376 59.376 0 0 0-.105 1.633l-.091 1.587c-.03.529-.061 1.043-.076 1.557-.03.831-.075 1.647-.09 2.479a49.61 49.61 0 0 0-.031 1.557c0 .65-.03 1.3-.03 1.95v1.345c0 .756 0 1.512.015 2.267 0 .393 0 .786.015 1.179.015.877.046 1.769.076 2.646 0 .377.03.755.045 1.133.03.771.076 1.527.121 2.298l.046.892c.06 1.013.136 2.025.226 3.023.03.302.061.605.076.907.075.801.151 1.602.242 2.388l.09.877c.121 1.028.242 2.056.378 3.084.031.196.061.393.076.574a156.75 156.75 0 0 0 .514 3.477c.166 1.043.347 2.07.529 3.113 5.381 29.416 18.698 50.623 29.37 60.675 11.76 11.065 24.503 19.787 39.573 26.816.151-24.14 14.315-53.132 39.12-75.776 25.561-23.339 61.612-22.613 65.074-22.492 3.476-.121 39.498-.847 65.074 22.492 24.971 22.795 39.165 52.044 39.119 76.275 15.555-7.12 28.645-15.993 40.677-27.315 10.672-10.052 23.989-31.259 29.37-60.675.197-1.027.363-2.07.529-3.113l.136-.862c.136-.862.257-1.723.378-2.585.03-.211.061-.408.091-.604.136-1.028.257-2.041.378-3.069.03-.287.06-.59.091-.877.09-.786.166-1.587.241-2.373l.091-.937c.091-.998.166-2.01.227-3.023l.045-.877c.046-.756.091-1.527.121-2.282l.045-1.164c.031-.817.061-1.648.076-2.479 0-.439.015-.877.03-1.315 0-.756.015-1.512.015-2.283v-1.391c0-.619-.015-1.239-.03-1.844 0-.483-.015-.967-.03-1.436-.03-.892-.061-1.768-.106-2.66l-.091-1.618-.09-1.496c-.031-.574-.076-1.134-.121-1.708-.03-.499-.076-.998-.121-1.497l-.272-3.008c-.046-.393-.076-.771-.121-1.164-.076-.665-.151-1.33-.227-1.98-.03-.287-.075-.589-.106-.876a186.294 186.294 0 0 0-.544-3.976 9.99 9.99 0 0 0-.106-.68c-.106-.741-.226-1.481-.347-2.222-.031-.227-.076-.454-.106-.665a183.559 183.559 0 0 0-1.345-7.211 5.963 5.963 0 0 0-.106-.483 200.633 200.633 0 0 0-1.739-7.558 1.27 1.27 0 0 0-.06-.227 221.629 221.629 0 0 0-2.963-10.581c-3.794-12.304-8.827-24.82-15.101-37.502a146.104 146.104 0 0 0-4.489-8.344c6.243-32.001 33.104-41.599 61.703-45.892-11.095 4.958-22.659 10.657-31.29 19.016-5.472 5.199-8.964 11.412-10.4 18.229 11.352.046 22.946 4.671 32.454 9.947-7.422-.696-15.055-.484-22.22 1.043-5.155 1.133-11.231 3.295-14.39 7.18 5.623 11.971 10.173 23.807 13.649 35.477 32.061-4.308 57.592-23.611 72.224-54.811 11.11-23.686 24.911-38.772 33.179-46.42l-8.858-2.328.046-.076ZM372.636 379.499c-13.755-5.956-28.387-7.135-41.266 1.572 7.134-16.129 32.197-15.66 41.266-1.572Zm-92.358 20.24c4.611-4.308 9.085-8.737 13.121-13.423 3.325-3.794 6.273-7.755 8.631-11.896-7.83 3.839-16.869 5.033-25.349 6.288 7.966-3.9 17.232-8.178 22.961-14.874-8.934 4.127-20.694 5.018-32.635.771-21.238-7.558-26.181-25.198-24.125-39.619 1.148-8.026 2.977-12.319 4.081-14.39-2.857-.907-5.185-1.104-8.586-1.058-10.778.136-18.502 1.783-18.502 1.783l29.37-21.661s25.078 11.201 42.778 24.307c17.701 13.12 22.175 16.642 30.459 17.217 8.298.574 17.202-1.542 17.202-1.542s-3.402 8.555-15.645 10.354c.211 5.517-.363 11.141-1.935 16.416-6.062 20.346-24.488 31.894-41.826 41.296v.031Zm70.969-3.311c-13 .106-24.835 4.233-35.703 12.002 9.553-20.315 37.638-25.697 56.684-16.113 6.47 3.114 12.214 7.603 16.249 13.332-12.092-5.578-24.185-9.387-37.215-9.221h-.015Zm113.566-86.281c-3.417-.045-5.744.151-8.586 1.058 1.103 2.071 2.932 6.364 4.081 14.39 2.056 14.421-2.887 32.061-24.125 39.619-11.941 4.248-23.702 3.371-32.635-.771 5.729 6.697 14.995 10.974 22.961 14.874-8.48-1.269-17.519-2.449-25.349-6.288 2.358 4.127 5.305 8.102 8.631 11.896 4.036 4.686 8.51 9.115 13.12 13.423-17.353-9.402-35.764-20.95-41.825-41.296-1.587-5.276-2.162-10.899-1.935-16.416-12.244-1.799-15.645-10.355-15.645-10.355s8.903 2.117 17.202 1.542c8.299-.574 12.758-4.096 30.458-17.217 17.701-13.12 42.778-24.306 42.778-24.306l29.37 21.661s-7.724-1.663-18.486-1.784l-.015-.03Z"/><path d="M289.091 333.577c-17.459-8.737-27.3-14.058-33.724-17.293-2.101 4.626-4.701 11.715-4.187 17.837 1.285 15.237 8.949 24.064 23.415 26.951 15.841 3.175 31.607-3.99 35.9-16.295.302-.861.604-2.01.861-3.219-6.107-1.134-13.453-3.583-22.28-7.981h.015ZM222.067 99.417c68.535-34.963 150.796-42.098 226.058-13.408a270.083 270.083 0 0 1 34.479 15.524l11.775-11.73c-87.385-49.52-196.294-50.335-284.389-2.418l12.077 12.032ZM333.078 160.576l19.862 48.189 20.709-48.174-20.709-25.954-19.862 25.939Z"/><path d="M437.271 160.425c7.664 6.53 12.244 16.506 12.244 27.299 0 19.197-14.466 34.812-32.257 34.812-17.791 0-32.257-15.615-32.257-34.812 0-11.246 4.897-21.525 13.075-28.01l-44.698-56.08-44.697 56.08c8.177 6.485 13.075 16.764 13.075 28.01 0 19.197-14.466 34.812-32.257 34.812-17.792 0-32.258-15.615-32.258-34.812 0-10.808 4.565-20.769 12.244-27.299l-67.764-67.508 25.364 141.681c14.376 4.232 70.35 19.666 123.467 19.666 53.117 0 116.089-16.356 129.18-20.029l25.304-141.318-67.765 67.508Zm-55.55 1.088-25.274 58.816a3.898 3.898 0 0 1-3.583 2.358h-.03a3.87 3.87 0 0 1-3.567-2.404l-24.246-58.816a3.891 3.891 0 0 1 .514-3.854l24.246-31.668a3.902 3.902 0 0 1 3.053-1.526h.045c1.18 0 2.298.544 3.039 1.466l25.273 31.668a3.875 3.875 0 0 1 .53 3.96ZM593.448 209.188a156.376 156.376 0 0 0 11.715-6.5c-23.671-42.838-55.4-76.546-91.768-101.11l-3.054 17.036c33.935 23.732 62.338 54.855 83.107 90.574ZM636.906 296.059a291.582 291.582 0 0 0-8.374-37.094 142.608 142.608 0 0 0-8.495 11.699 275.837 275.837 0 0 1 8.692 39.664c1.073 6.561 10.46 5.306 9.886-1.254l-1.709-13.03v.015ZM106.96 208.296c22.16-38.56 52.936-70.228 88.79-93.627l-3.053-17.066c-38.727 24.745-72.556 59.587-97.512 104.496a312.13 312.13 0 0 0 11.775 6.197ZM72.39 255.896a293.245 293.245 0 0 0-9.296 40.148l-1.709 13.03a4.977 4.977 0 0 0 4.097 5.547c2.706.469 5.275-1.36 5.744-4.066l.045-.227 2.132-12.485a306.999 306.999 0 0 1 7.709-30.595 139.657 139.657 0 0 0-8.722-11.337v-.015ZM409.761 441.746c-23.4-21.374-58.227-20.074-58.574-20.059h-.439c-.332-.015-35.159-1.315-58.558 20.059-35.356 32.287-43.05 72.465-29.884 91.178 6.847 9.72 17.428 13.726 31.592 11.987 7.27 21.026 28.765 36.293 54.069 36.293 25.304 0 47.131-15.508 54.236-36.792 12.697 2.721 27.858 2.086 37.411-11.503 13.166-18.713 5.488-58.891-29.884-91.178l.031.015Zm-105.706 30.126c9.75-9.297 28.479-8.949 29.265-8.934a2.915 2.915 0 0 1 2.69 1.965 2.914 2.914 0 0 1-.922 3.205c-.075.06-7.739 6.379-11.684 13.861-6.228 11.836-13.665 24.155-21.571 25.682a8.804 8.804 0 0 1-1.647.166c-1.965 0-3.824-.71-5.442-2.071-2.766-2.343-4.278-5.502-4.383-9.175-.242-8.374 6.907-18.26 13.679-24.715l.015.016Zm42.446 91.314c-16.265 0-30.171-9.266-35.87-22.386a125.85 125.85 0 0 0 4.565-1.708c.121-.046.242-.106.363-.151a144.223 144.223 0 0 0 4.429-1.845c9.099-4.005 20.587-6.016 31.803-6.016 11.216 0 22.372 2.041 30.413 6.122.182.091.378.197.59.303.03 0 .045.03.076.03.196.106.408.196.634.317-4.791 14.663-19.544 25.334-37.003 25.334Zm62.383-66.615c-.106 3.658-1.617 6.832-4.384 9.175-1.617 1.376-3.476 2.071-5.441 2.071-.545 0-1.089-.06-1.648-.166-7.906-1.542-15.343-13.846-21.57-25.682-3.946-7.482-11.609-13.801-11.685-13.861a2.885 2.885 0 0 1-.907-3.205 2.916 2.916 0 0 1 2.691-1.965c.786-.03 19.514-.348 29.264 8.934 6.772 6.454 13.922 16.325 13.68 24.714v-.015ZM151.521 219.543c4.157.498 8.359.997 12.577 1.587a226.085 226.085 0 0 1 25.984-31.048 231.02 231.02 0 0 1 17.066-15.433l-2.585-14.421a242.508 242.508 0 0 0-23.611 20.724 239.78 239.78 0 0 0-31.199 38.379c.589.076 1.179.136 1.768.212ZM536.069 221.372c4.791-.711 9.568-1.3 14.299-1.875a240.285 240.285 0 0 0-31.32-38.545 241.62 241.62 0 0 0-17.67-16.008l-2.63 14.693a226.998 226.998 0 0 1 11.17 10.445 227.313 227.313 0 0 1 26.151 31.29Z"/><path d="M308.923 578.635a65.59 65.59 0 0 1-9.78-8.193 224.9 224.9 0 0 1-37.17-12.047c-26.937-11.398-51.122-27.692-71.891-48.477-20.769-20.769-37.079-44.954-48.477-71.891-11.79-27.873-17.776-57.5-17.776-88.034 0-6.893.302-13.741.922-20.543a102.44 102.44 0 0 1-11.79-10.883 240.876 240.876 0 0 0-2.041 31.426c0 32.272 6.319 63.577 18.789 93.053 12.048 28.463 29.28 54.039 51.228 75.987 21.948 21.948 47.524 39.196 75.987 51.228 23.384 9.886 47.933 15.917 73.191 17.972a67.474 67.474 0 0 1-21.207-9.628l.015.03ZM575.43 331.596c.484 6.092.741 12.229.741 18.412 0 30.534-5.986 60.146-17.776 88.034-11.398 26.937-27.692 51.122-48.477 71.891-20.769 20.769-44.954 37.079-71.891 48.477a223.984 223.984 0 0 1-42.339 13.166 65.337 65.337 0 0 1-8.405 6.908c-6.998 4.822-14.813 8.253-23.082 10.188 27.254-1.587 53.722-7.74 78.845-18.381 28.463-12.047 54.039-29.28 75.987-51.228 21.948-21.948 39.196-47.524 51.228-75.987 12.47-29.476 18.789-60.781 18.789-93.053 0-9.614-.56-19.152-1.693-28.584a98.915 98.915 0 0 1-11.957 10.173l.03-.016ZM226.965 244.695v21.374c9.961 4.444 49.398 19.666 122.619 19.666 73.222 0 118.01-15.403 129.211-19.832V244.59c-18.744 5.079-76.32 19.408-128.243 19.408s-105.479-14.103-123.603-19.303h.016ZM451.722 133.216c-20.3-12.304-49.005-20.769-81.52-23.052l34.994 43.897a9.064 9.064 0 0 1 1.919 6.696 9.113 9.113 0 0 1-3.386 6.092c-6.122 4.867-9.644 12.47-9.644 20.89 0 14.179 10.4 25.727 23.173 25.727 12.773 0 23.173-11.533 23.173-25.727 0-8.057-3.296-15.494-9.04-20.391a9.102 9.102 0 0 1-3.189-6.561 9.032 9.032 0 0 1 2.66-6.787l20.86-20.784ZM336.675 110.058c-32.68 2.056-61.612 10.37-82.215 22.568L275.925 154a9.054 9.054 0 0 1 2.66 6.787 9.102 9.102 0 0 1-3.189 6.561c-5.744 4.897-9.04 12.319-9.04 20.391 0 14.179 10.4 25.727 23.173 25.727 12.773 0 23.173-11.533 23.173-25.727 0-8.42-3.522-16.038-9.644-20.89a9.08 9.08 0 0 1-3.386-6.092 9.13 9.13 0 0 1 1.919-6.696l35.084-44.003Z"/></g><defs><clipPath id="a"><path fill="#fff" d="M0 0h700v700H0z"/></clipPath></defs></svg>
