<svg xmlns="http://www.w3.org/2000/svg" width="1001" height="1000" fill="none"><g clip-path="url(#a)"><path fill="#000" d="M500.058 933.921c239.67 0 433.961-194.291 433.961-433.96C934.019 260.291 739.728 66 500.058 66c-239.67 0-433.96 194.291-433.96 433.961 0 239.669 194.29 433.96 433.96 433.96Z"/><path fill="#D50D4C" d="M500.058 916.167c229.866 0 416.209-186.343 416.209-416.208 0-229.866-186.343-416.209-416.209-416.209-229.865 0-416.208 186.343-416.208 416.209 0 229.865 186.343 416.208 416.208 416.208Z"/><path fill="#000" d="M500.058 788.379c159.288 0 288.416-129.129 288.416-288.416 0-159.288-129.128-288.416-288.416-288.416-159.287 0-288.416 129.128-288.416 288.416 0 159.287 129.129 288.416 288.416 288.416Z"/><path fill="#000" d="M500.058 757.87c142.441 0 257.912-115.471 257.912-257.912 0-142.44-115.471-257.911-257.912-257.911-142.44 0-257.911 115.471-257.911 257.911 0 142.441 115.471 257.912 257.911 257.912Z"/><path fill="#fff" d="m117.197 501.239 53.969-4.028 2.201 29.542c.651 8.733-3.404 13.421-12.155 14.08l-7.682.571c-8.76.65-13.457-3.387-14.107-12.12l-1.631-21.825-20.025 1.497-.57-7.717Zm28.312 5.65 1.595 21.415c.152 2.058.713 3.502 1.685 4.34.971.837 2.486 1.176 4.545 1.024l6.924-.516c2.059-.152 3.502-.713 4.34-1.685.838-.971 1.176-2.486 1.025-4.545l-1.595-21.414-18.519 1.381Z"/><path fill="#fff" d="M151.774 545.865c-4.607 0-8.368-1.23-11.211-3.672-3.261-2.798-5.124-7.031-5.534-12.592l-1.301-17.44-20.024 1.497-1.23-16.495 62.747-4.679 2.53 33.936c.829 11.113-5.079 17.966-16.219 18.794l-7.682.571c-.712.053-1.408.08-2.085.08h.009Zm-.062-16.629c.222.036.632.08 1.292.027l6.924-.517c.669-.054 1.061-.152 1.275-.223.035-.223.08-.624.026-1.292l-1.274-17.03-9.741.73 1.275 17.022c.053.668.151 1.06.223 1.274v.009ZM162.762 657.257a7.492 7.492 0 0 1-3.003.597 7.75 7.75 0 0 1-2.923-.588 7.743 7.743 0 0 1-2.478-1.649 7.618 7.618 0 0 1-1.711-2.54l-11.861-28.544a7.492 7.492 0 0 1-.597-3.003 7.711 7.711 0 0 1 2.237-5.4 7.596 7.596 0 0 1 2.54-1.712l35.682-14.828a7.7 7.7 0 0 1 3.003-.598 7.57 7.57 0 0 1 2.905.589 8.213 8.213 0 0 1 2.486 1.648 7.44 7.44 0 0 1 1.729 2.531l11.862 28.544c.401.971.597 1.978.579 3.012a8.037 8.037 0 0 1-.588 2.923 7.495 7.495 0 0 1-1.631 2.478 7.618 7.618 0 0 1-2.54 1.711l-35.682 14.829h-.009Zm20.853-50.511-35.682 14.828 11.861 28.544 35.683-14.828-11.862-28.544Z"/><path fill="#fff" d="M159.839 662.259h-.116a12.235 12.235 0 0 1-4.563-.918 12.214 12.214 0 0 1-3.876-2.567 11.772 11.772 0 0 1-2.7-4.001l-11.862-28.544a12.06 12.06 0 0 1-.935-4.732 12.133 12.133 0 0 1 3.484-8.439 12.013 12.013 0 0 1 3.992-2.7l35.683-14.829a12.062 12.062 0 0 1 4.732-.927c1.595.018 3.137.33 4.571.936a12.622 12.622 0 0 1 3.814 2.521 11.78 11.78 0 0 1 2.754 4.029l11.862 28.544c.641 1.541.944 3.145.909 4.785a12.825 12.825 0 0 1-.901 4.474 12.017 12.017 0 0 1-2.566 3.912 11.999 11.999 0 0 1-4.001 2.7l-35.683 14.829a12.02 12.02 0 0 1-4.616.927h.018Zm-6.149-38.302 8.484 20.416 27.555-11.451-8.484-20.417-27.555 11.452ZM251.691 736.413c-5.703 4.946-11.059 5.33-16.076 1.159l-9.857 22.038-5.614-6.47 9.758-21.753-11.104-12.797-16.335 14.17-5.07-5.846 40.877-35.469 19.419 22.377c5.739 6.613 5.293 12.797-1.337 18.554l-4.643 4.028-.018.009Zm-27.055-22.894 14.071 16.22c1.355 1.559 2.665 2.379 3.948 2.477 1.274.089 2.7-.544 4.251-1.889l4.072-3.538c1.56-1.355 2.38-2.665 2.478-3.948.089-1.274-.544-2.7-1.89-4.251l-14.071-16.219-12.859 11.157v-.009Z"/><path fill="#fff" d="m226.953 767.718-11.978-13.804 9.75-21.753-6.381-7.352-16.335 14.169-10.846-12.494 47.526-41.234 22.297 25.701c7.299 8.413 6.657 17.44-1.782 24.766l-4.643 4.028c-6.782 5.881-12.664 5.792-16.95 4.117l-10.667 23.856h.009Zm3.885-53.746 11.184 12.895c.437.508.749.767.936.891.196-.098.552-.311 1.051-.748l4.082-3.538c.508-.437.766-.749.891-.936-.098-.196-.312-.552-.748-1.051l-11.193-12.895-6.203 5.382ZM308.672 769.309a7.516 7.516 0 0 1 2.068-2.264 7.613 7.613 0 0 1 2.691-1.247 8.295 8.295 0 0 1 2.976-.152 7.467 7.467 0 0 1 2.897 1.007l25.166 15.123a7.272 7.272 0 0 1 2.246 2.077 8.109 8.109 0 0 1 1.265 2.7c.25.953.303 1.943.161 2.959a7.567 7.567 0 0 1-1.025 2.878l-3.6 5.989-6.631-3.984 3.601-5.988-25.167-15.124-19.908 33.125 25.166 15.123 3.574-5.953 6.63 3.984-3.574 5.953a7.496 7.496 0 0 1-2.067 2.263 7.819 7.819 0 0 1-2.7 1.266 7.77 7.77 0 0 1-2.977.151 7.544 7.544 0 0 1-2.878-1.025l-25.167-15.123a7.598 7.598 0 0 1-2.263-2.058 7.755 7.755 0 0 1-1.417-5.677 7.532 7.532 0 0 1 1.025-2.879l19.908-33.124Z"/><path fill="#fff" d="M320.578 833.679a12.055 12.055 0 0 1-6.265-1.729l-25.166-15.123a12.235 12.235 0 0 1-3.565-3.253 12.316 12.316 0 0 1-1.969-4.215 12.284 12.284 0 0 1-.241-4.643 11.919 11.919 0 0 1 1.622-4.545l19.909-33.125a11.936 11.936 0 0 1 3.252-3.555 12.085 12.085 0 0 1 4.242-1.961 12.387 12.387 0 0 1 4.554-.232c1.631.205 3.182.749 4.607 1.605l25.167 15.123a11.642 11.642 0 0 1 3.573 3.315 12.713 12.713 0 0 1 1.934 4.126 11.91 11.91 0 0 1 .259 4.669 11.86 11.86 0 0 1-1.622 4.545l-5.864 9.759-14.178-8.52 3.6-5.98-17.618-10.587-15.373 25.577 17.618 10.587 3.574-5.953 14.178 8.519-5.846 9.723a12.042 12.042 0 0 1-3.253 3.556 12.159 12.159 0 0 1-4.215 1.969c-.953.241-1.934.357-2.923.357l.009-.009ZM415.433 809.537l-14.525 52.133-7.451-2.076 14.526-52.133 7.45 2.076Z"/><path fill="#fff" d="m404.906 801.962-16.89 60.616 15.933 4.44 16.89-60.616-15.933-4.44ZM485.051 874.895l-7.735.125-.873-54.112 7.735-.125 33.205 41.431-.678-41.956 7.736-.125.873 54.111-7.735.125-33.205-41.43.677 41.956Z"/><path fill="#fff" d="m472.985 879.49-1.025-62.907 14.294-.241 26.512 33.08-.543-33.498 16.54-.268 1.025 62.916-14.295.232-26.512-33.08.544 33.499-16.54.267ZM644.061 839.021a7.54 7.54 0 0 1 .41 3.03 7.736 7.736 0 0 1-2.567 5.258 7.564 7.564 0 0 1-2.637 1.551l-29.222 10.061a7.394 7.394 0 0 1-3.03.401 7.965 7.965 0 0 1-2.878-.767 7.832 7.832 0 0 1-2.379-1.8 7.61 7.61 0 0 1-1.551-2.638l-12.583-36.537a7.378 7.378 0 0 1-.401-3.03 7.408 7.408 0 0 1 .775-2.861 8.092 8.092 0 0 1 1.8-2.37 7.5 7.5 0 0 1 2.629-1.569l29.221-10.061a7.393 7.393 0 0 1 3.039-.392 8.244 8.244 0 0 1 2.879.766 7.512 7.512 0 0 1 2.37 1.783 7.621 7.621 0 0 1 1.551 2.637l12.583 36.538h-.009Zm-49.121-23.954 12.583 36.537 29.222-10.061-12.584-36.538-29.221 10.062Z"/><path fill="#fff" d="M607.55 863.739a12.141 12.141 0 0 1-5.347-1.23 11.963 11.963 0 0 1-3.707-2.807 11.799 11.799 0 0 1-2.442-4.162l-12.583-36.538a12.082 12.082 0 0 1 .588-9.295 12.774 12.774 0 0 1 2.745-3.644 11.76 11.76 0 0 1 4.188-2.496l29.222-10.061a11.763 11.763 0 0 1 4.839-.615c1.55.125 3.03.526 4.402 1.176a12.054 12.054 0 0 1 3.743 2.799 11.946 11.946 0 0 1 2.442 4.161l12.583 36.538c.535 1.56.749 3.164.633 4.777a12.142 12.142 0 0 1-4.011 8.207 11.93 11.93 0 0 1-4.161 2.442l-29.222 10.061a11.929 11.929 0 0 1-3.93.669l.018.018Zm-7.013-45.958 9.713 28.215 20.898-7.192-9.713-28.214-20.898 7.191ZM707.824 785.643a7.304 7.304 0 0 1-2.763 1.328 8.434 8.434 0 0 1-2.976.187 7.692 7.692 0 0 1-2.807-.936 7.633 7.633 0 0 1-2.3-2.014l-9.401-12.289a7.62 7.62 0 0 1-1.346-2.754 7.393 7.393 0 0 1-.169-2.958 8.268 8.268 0 0 1 .953-2.825 7.43 7.43 0 0 1 2.005-2.317l20.854-15.97a7.277 7.277 0 0 1 2.762-1.328 8.415 8.415 0 0 1 2.977-.187c.98.125 1.916.437 2.807.936a7.508 7.508 0 0 1 2.299 2.014l1.97 2.593-6.141 4.705-1.969-2.593-20.853 15.97 9.402 12.289 20.853-15.97a7.64 7.64 0 0 1 2.753-1.346 8.038 8.038 0 0 1 2.977-.187 7.77 7.77 0 0 1 5.124 2.968l9.384 12.253a7.636 7.636 0 0 1 1.346 2.754 7.83 7.83 0 0 1 .187 2.977 7.652 7.652 0 0 1-.954 2.825 7.63 7.63 0 0 1-2.014 2.299l-21.459 16.424a7.669 7.669 0 0 1-2.745 1.346 7.845 7.845 0 0 1-2.976.187 7.813 7.813 0 0 1-2.825-.954 7.617 7.617 0 0 1-2.299-2.014l-2.3-2.985 6.141-4.706 2.299 2.986 21.459-16.424-9.384-12.254-20.853 15.97h-.018Z"/><path fill="#fff" d="M716.602 810.495a12.06 12.06 0 0 1-5.989-1.595 12.006 12.006 0 0 1-3.636-3.173l-4.99-6.469 13.136-10.053 2.299 2.986 14.481-11.086-4.028-5.267-17.36 13.287a11.879 11.879 0 0 1-4.393 2.112 12.685 12.685 0 0 1-4.554.276 11.932 11.932 0 0 1-4.438-1.479 12.003 12.003 0 0 1-3.636-3.172l-9.402-12.29a12.098 12.098 0 0 1-2.112-4.331 11.988 11.988 0 0 1-.267-4.669 12.732 12.732 0 0 1 1.452-4.323 11.637 11.637 0 0 1 3.191-3.689l20.853-15.97a11.86 11.86 0 0 1 4.402-2.112 12.708 12.708 0 0 1 4.554-.276c1.551.196 3.048.686 4.438 1.479a12.02 12.02 0 0 1 3.636 3.173l4.634 6.104-13.136 10.053-1.969-2.594-13.858 10.605 4.055 5.294 17.36-13.287a11.986 11.986 0 0 1 4.34-2.112 12.139 12.139 0 0 1 4.634-.286 12.23 12.23 0 0 1 4.411 1.48 12.019 12.019 0 0 1 3.636 3.172l9.384 12.263a12.026 12.026 0 0 1 2.112 4.331c.392 1.533.49 3.101.285 4.643a12.056 12.056 0 0 1-1.488 4.402 12.003 12.003 0 0 1-3.172 3.636l-21.46 16.424a12.098 12.098 0 0 1-4.331 2.112 12.263 12.263 0 0 1-3.056.392l-.018.009ZM775.481 708.522l6.835-8.983 8.983 6.835-6.835 8.983-8.974-6.835h-.009Z"/><path fill="#fff" d="m785.293 721.527-15.979-12.165 12.165-15.987 15.987 12.164-12.164 15.988h-.009Zm-3.645-13.84 1.969 1.506 1.506-1.969-1.969-1.506-1.506 1.969ZM797.074 633.594l14.98-36.485 7.156 2.941-12.039 29.328 14.312 5.882 10.275-25.033 7.156 2.941-10.275 25.033 21.432 8.805-2.941 7.156-50.065-20.56.009-.008Z"/><path fill="#fff" d="m849.537 659.889-58.202-23.901 18.322-44.621 15.301 6.274-12.039 29.328 6.167 2.531 10.275-25.024 15.301 6.274-10.275 25.033 21.432 8.804-6.282 15.302ZM833.38 540.818a7.568 7.568 0 0 1-2.941-.838 7.49 7.49 0 0 1-2.317-1.854 8.233 8.233 0 0 1-1.462-2.593 7.44 7.44 0 0 1-.383-3.039l2.326-29.265a7.293 7.293 0 0 1 .856-2.941 8.225 8.225 0 0 1 1.853-2.335 7.585 7.585 0 0 1 2.576-1.462 7.59 7.59 0 0 1 3.039-.365l6.96.553-.615 7.708-6.96-.552-2.326 29.265 38.525 3.066 2.326-29.266-6.925-.552.615-7.709 6.925.553a7.567 7.567 0 0 1 2.94.837 7.783 7.783 0 0 1 2.335 1.854 7.907 7.907 0 0 1 1.462 2.593c.33.972.445 1.988.365 3.039l-2.326 29.266a7.571 7.571 0 0 1-.837 2.941 7.811 7.811 0 0 1-1.854 2.335 7.774 7.774 0 0 1-2.593 1.461 7.558 7.558 0 0 1-3.039.365l-38.525-3.065Z"/><path fill="#fff" d="M872.546 548.314c-.329 0-.659-.018-.989-.036l-38.525-3.066a11.994 11.994 0 0 1-4.634-1.327 11.896 11.896 0 0 1-3.645-2.923 12.685 12.685 0 0 1-2.245-3.975 11.647 11.647 0 0 1-.615-4.83l2.326-29.275a11.84 11.84 0 0 1 1.372-4.678 12.481 12.481 0 0 1 2.843-3.565 12.001 12.001 0 0 1 4.064-2.308 11.87 11.87 0 0 1 4.785-.579l11.345.9-1.31 16.486-6.96-.552-1.631 20.496 29.747 2.371 1.631-20.497-6.925-.552 1.31-16.487 11.309.9c1.649.134 3.208.58 4.634 1.328a12.158 12.158 0 0 1 3.636 2.896 12.01 12.01 0 0 1 2.282 4.055c.516 1.533.712 3.146.579 4.786l-2.326 29.274a12.03 12.03 0 0 1-1.328 4.634 12.019 12.019 0 0 1-2.896 3.636 12.305 12.305 0 0 1-4.055 2.282c-1.221.41-2.495.615-3.796.615l.017-.009ZM845.66 450.769c-17.841-125.235-105.157-234.366-223.949-278.114-160.374-61.142-346.359 8.894-427.616 159.884-17.734 31.859-29.907 66.971-36.992 102.733l-2.638 15.488-.044.286c-.571 3.359-3.761 5.614-7.121 5.044a6.175 6.175 0 0 1-5.079-6.88l2.112-16.148c5.962-37.598 17.823-74.376 35.308-108.223 135.866-259.114 505.031-259.043 640.844.009 17.475 33.838 29.363 70.634 35.308 108.223l2.112 16.148c.721 8.136-10.926 9.678-12.254 1.55h.009Z"/><path fill="#F078A8" d="M664.897 474.25s-22.574-95.639 18.75-114.773c41.314-19.124 85.694-12.627 114.772-26.013 29.079-13.394 46.653-29.925 46.653-29.925l-1.89 50.199 21.807 5.739s-27.929 19.508-48.203 62.738c-20.274 43.23-55.858 68.103-100.238 71.926-44.38 3.823-51.651-19.891-51.651-19.891Z"/><path fill="#000" d="M707.209 500.343c-39.871 0-47.508-23.331-47.838-24.4-.035-.125-.071-.241-.098-.366-.962-4.09-23.134-100.47 21.941-121.341 23.339-10.8 47.606-13.723 69.011-16.29 17.155-2.059 33.357-4.01 45.77-9.723 27.778-12.788 44.942-28.731 45.111-28.882a5.768 5.768 0 0 1 6.354-1.043 5.782 5.782 0 0 1 3.378 5.472l-1.711 45.574 17.333 4.563a5.774 5.774 0 0 1 4.215 4.58 5.776 5.776 0 0 1-2.379 5.748c-.259.178-26.985 19.312-46.279 60.457-20.862 44.478-58.139 71.195-104.97 75.232-3.475.303-6.755.436-9.829.436l-.009-.017Zm-36.752-27.716c.758 1.961 8.431 18.964 45.592 15.765 42.544-3.672 76.462-28.036 95.497-68.619 13.769-29.364 30.879-48.07 41.145-57.552l-10.979-2.887a5.779 5.779 0 0 1-4.304-5.811l1.408-37.393c-8.252 6.203-21.237 14.874-37.973 22.582-14.062 6.479-31.146 8.529-49.227 10.703-21.567 2.594-43.863 5.276-65.536 15.31-30.229 13.992-21.584 82.335-15.623 107.902Z"/><path fill="#F078A8" d="M339.301 474.514s22.574-95.64-18.75-114.773c-41.323-19.133-85.694-12.628-114.773-26.013-29.078-13.394-50.849-28.517-50.849-28.517l6.095 48.791-21.806 5.739s27.929 19.508 48.203 62.738c20.273 43.23 55.858 68.103 100.237 71.926 44.38 3.823 51.652-19.891 51.652-19.891h-.009Z"/><path fill="#000" d="M296.998 500.609c-3.084 0-6.354-.142-9.839-.436-46.83-4.037-84.107-30.755-104.97-75.232-19.391-41.35-46.01-60.27-46.278-60.457a5.79 5.79 0 0 1-2.379-5.748 5.787 5.787 0 0 1 4.215-4.58l16.914-4.456-5.462-43.774a5.767 5.767 0 0 1 2.744-5.659 5.778 5.778 0 0 1 6.292.196c.214.151 21.744 15.007 49.976 28.009 12.414 5.713 28.616 7.664 45.77 9.723 21.415 2.575 45.673 5.489 69.012 16.29 45.084 20.871 22.912 117.251 21.941 121.341a4.319 4.319 0 0 1-.099.365c-.329 1.07-7.975 24.4-47.837 24.4v.018ZM151.516 362.488c10.257 9.482 27.367 28.187 41.145 57.551 19.035 40.584 52.952 64.948 95.497 68.62 37.232 3.208 45.012-14.268 45.591-15.729 5.962-25.55 14.624-93.929-15.613-107.929-21.673-10.035-43.97-12.717-65.536-15.31-18.082-2.175-35.165-4.224-49.228-10.703-17.279-7.958-31.912-16.442-41.162-22.172l4.553 36.484a5.787 5.787 0 0 1-4.259 6.309l-10.98 2.888-.008-.009Z"/><path fill="#F078A8" d="M696.381 439.571c-51.562-104.096-181.984-115.886-193.97-116.751v-.062s-.152 0-.446.027a72.125 72.125 0 0 0-.445-.027v.062c-11.987.874-142.408 12.655-193.971 116.751-60.75 122.651-14.668 206.207 11.354 230.696 26.013 24.489 57.007 41.697 109.033 53.434 47.9 10.801 70.714-3.895 74.029-6.301 3.324 2.406 26.129 17.102 74.029 6.301 52.026-11.737 83.021-28.945 109.034-53.434 26.013-24.489 72.104-108.036 11.353-230.696Z"/><path fill="#000" d="M543.306 733.656c-21.61 0-35.031-5.615-41.341-9.135-9.125 5.098-33.187 14.58-75.356 5.071-49.3-11.122-82.754-27.546-111.841-54.931-14.633-13.769-32.822-42.5-40.014-81.845-8.911-48.773.303-101.236 27.395-155.926 51.928-104.837 179.97-118.596 198.15-120.031a5.999 5.999 0 0 1 1.55-.125h.25a6.055 6.055 0 0 1 1.604.134C522.07 318.32 649.916 332.16 701.8 436.899c27.091 54.69 36.306 107.153 27.394 155.926-7.192 39.345-25.38 68.076-40.013 81.845-29.097 27.385-62.542 43.809-111.841 54.931-13.038 2.941-24.347 4.064-34.016 4.064l-.018-.009Zm-41.341-22.288a6.01 6.01 0 0 1 3.538 1.149c2.255 1.631 23.34 15.631 69.163 5.303 47.045-10.605 78.815-26.147 106.227-51.937 13.234-12.459 29.747-38.757 36.413-75.223 8.439-46.154-.428-96.085-26.334-148.397-20.898-42.196-57.453-73.877-108.642-94.16-39.487-15.649-73.868-18.786-80.356-19.258h-.018c-6.487.472-40.868 3.609-80.356 19.258-51.188 20.283-87.744 51.964-108.641 94.16-25.915 52.312-34.774 102.234-26.334 148.397 6.666 36.466 23.179 62.773 36.413 75.223 27.412 25.799 59.173 41.332 106.226 51.937 45.824 10.337 66.918-3.672 69.163-5.303a6.015 6.015 0 0 1 3.538-1.149Z"/><path fill="#F078A8" d="M497.554 791.551c41.549 0 75.232-31.061 75.232-69.377 0-38.316-33.683-69.377-75.232-69.377-41.55 0-75.232 31.061-75.232 69.377 0 38.316 33.682 69.377 75.232 69.377Z"/><path fill="#000" d="M497.554 796.467c-44.202 0-80.16-33.329-80.16-74.296 0-40.967 35.958-74.296 80.16-74.296s80.16 33.329 80.16 74.296c0 40.967-35.958 74.296-80.16 74.296Zm0-138.745c-38.775 0-70.313 28.91-70.313 64.449 0 35.54 31.547 64.458 70.313 64.458 38.766 0 70.313-28.909 70.313-64.458 0-35.548-31.539-64.449-70.313-64.449Z"/><path fill="#000" d="M495.718 764.28c26.46 0 47.909-19.778 47.909-44.175 0-24.398-21.449-44.175-47.909-44.175-26.459 0-47.909 19.777-47.909 44.175 0 24.397 21.45 44.175 47.909 44.175Z"/><path fill="#F078A8" d="M578.053 609.438c-31.227-28.508-76.783-26.378-76.783-26.378s-45.556-2.139-76.782 26.378c-43.997 40.174-57.258 93.091-37.875 120.637 19.383 27.546 54.851 17.574 78.556 7.138 19.953-8.787 52.908-9.785 72.202 0 23.099 11.71 59.173 20.408 78.556-7.138 19.383-27.546 6.122-80.472-37.874-120.637Z"/><path fill="#000" d="M578.873 754.156h-.901c-17.867-.24-34.737-7.485-43.203-11.772-16.861-8.555-47.659-8.493-67.256.134-49.985 21.994-74.145 7.191-85.605-9.108-22.315-31.716-5.312-88.038 38.703-128.229 31.699-28.945 76.382-28.045 80.677-27.894 4.304-.151 48.978-1.051 80.677 27.894 44.023 40.191 61.018 96.522 38.703 128.229-9.562 13.59-23.999 20.755-41.787 20.755l-.008-.009Zm-76.587-29.675c14.045 0 27.733 2.531 37.705 7.583 11.665 5.918 51.278 23.019 71.213-5.311 16.317-23.197 6.799-73.013-37.046-113.044-29.016-26.494-72.193-24.89-72.621-24.872h-.534c-.419-.018-43.596-1.622-72.612 24.872-43.845 40.031-53.372 89.847-37.046 113.044 13.065 18.572 37.126 20.31 71.498 5.178 11.291-4.973 25.532-7.45 39.434-7.45h.009Z"/><path fill="#000" d="M433.907 690.305c10.346 8.76 24.685-18.313 29.988-28.401 5.311-10.088 15.39-18.314 15.39-18.314s-22.555-.534-33.704 10.088c-11.148 10.623-22.029 27.867-11.674 36.627Z"/><path fill="#000" d="M438.318 695.645c-2.432 0-4.732-.873-6.746-2.575-3.422-2.897-5.302-6.827-5.436-11.372-.303-10.39 8.555-22.635 16.95-30.638 12.093-11.514 35.308-11.104 36.288-11.086a3.618 3.618 0 0 1 2.21 6.417c-.089.08-9.589 7.904-14.481 17.19-7.726 14.678-16.941 29.943-26.744 31.85a10.66 10.66 0 0 1-2.041.196v.018Zm31.343-47.784c-6.916.918-15.997 3.137-21.575 8.439-7.486 7.121-14.936 17.672-14.714 25.176.072 2.504 1.016 4.482 2.879 6.06.891.757 1.711.989 2.727.793 5.124-.998 12.423-10.454 21.718-28.116 2.486-4.724 5.899-9.019 8.965-12.361v.009ZM565.291 690.305c-10.346 8.76-24.685-18.313-29.987-28.401-5.312-10.088-15.391-18.314-15.391-18.314s22.556-.534 33.704 10.088c11.149 10.614 22.03 27.867 11.674 36.627Z"/><path fill="#000" d="M560.889 695.64c-.668 0-1.355-.071-2.041-.196-9.803-1.907-19.017-17.172-26.744-31.85-4.883-9.286-14.383-17.119-14.481-17.19a3.627 3.627 0 0 1-1.132-3.984 3.618 3.618 0 0 1 3.342-2.442c.98-.035 24.195-.436 36.288 11.086 8.395 7.994 17.262 20.248 16.95 30.639-.134 4.544-2.014 8.474-5.436 11.371-2.014 1.702-4.313 2.575-6.746 2.575v-.009Zm-31.342-47.784c3.065 3.342 6.478 7.637 8.965 12.361 9.295 17.662 16.602 27.118 21.717 28.116 1.016.196 1.836-.036 2.727-.793 1.863-1.578 2.799-3.556 2.879-6.06.223-7.504-7.227-18.055-14.713-25.176-5.57-5.311-14.651-7.521-21.575-8.439v-.009ZM457.327 572.395c11.844-25.194 46.661-31.868 70.277-19.98 8.012 3.858 15.141 9.428 20.14 16.531-14.998-6.916-29.978-11.648-46.153-11.434-16.13.134-30.79 5.249-44.273 14.874l.009.009ZM476.95 538.495c8.85-19.998 39.916-19.409 51.162-1.952-17.066-7.387-35.201-8.849-51.162 1.952Z"/><path fill="#F078A8" d="m337.876 399.048 19.026 74.528-83.787-75.606 62.96-8.306 1.801 9.384Z"/><path fill="#000" d="M291.687 438.505c1.951-22.814-12.708-37.857-31.637-48.631-6.63-3.841-13.679-7.218-20.826-10.382 24.141 3.966 50.413 10.008 65.785 31.378 5.428 7.53 8.939 16.531 10.73 25.532l-24.043 2.112-.009-.009Z"/><path fill="#000" d="M297.158 449.751c-3.44-5.819-11.879-8.911-18.946-10.453-4.295-.936-8.84-1.462-13.465-1.667-4.625-.205-9.34-.08-14.081.366a104.648 104.648 0 0 1 13.029-6.31c15.373-5.926 32.554-9.535 48.381-.909l-14.918 18.982v-.009Z"/><path fill="#F078A8" d="m663.23 394.54-19.026 74.537 83.787-75.615-62.961-8.306-1.8 9.384Z"/><path fill="#000" d="M685.384 431.916c7.736-39.665 41.038-51.58 76.516-56.9-13.751 6.149-28.099 13.207-38.793 23.589-10.079 9.598-14.757 21.931-13.679 35.432l-24.044-2.112v-.009Z"/><path fill="#000" d="M689.047 426.295c19.739-10.756 43.524-2.673 61.41 7.219-9.197-.856-18.67-.597-27.546 1.301-7.058 1.542-15.515 4.643-18.946 10.453l-14.918-18.982v.009ZM559.579 482.688c-.659 11.362-1.248 23.072 4.964 32.732 6.79 9.731 19.561 15.586 30.362 20.889-15.177-2.264-31.77-4.322-43.257-16.353-9.01-9.437-13.145-23.028-16.122-35.156l24.044-2.112h.009Z"/><path fill="#000" d="M560.238 486.945c-9.321 20.916-.401 39.933 13.947 56.313 5.008 5.81 10.56 11.3 16.273 16.638-21.504-11.657-44.345-25.986-51.866-51.206-2.665-8.894-3.021-18.545-1.765-27.635l23.411 5.89Z"/><path fill="#000" d="M630.631 449.93c-.454.142-85.043 29.31-85.979 29.479-.303 3.583 2.504 16.941 3.77 20.328 6.603 17.698 32.162 28.463 58.487 19.088 26.325-9.375 32.465-31.244 29.907-49.12-2.023-14.17-5.766-18.964-6.185-19.775Z"/><path fill="#fff" stroke="#000" stroke-miterlimit="10" stroke-width="4.456" d="M620.49 451.352c-.366.124-70.09 29.051-70.839 29.203-.24 3.057.909 8.805 1.916 11.692 5.267 15.114 24.899 25.434 46.198 21.165 22.03-4.402 28.892-18.91 30.22-34.746 1.007-12.022-7.174-26.619-7.504-27.314h.009Z"/><path fill="#000" d="M516.794 475.491s11.166 28.16 62.729 2.379c49.62-24.81 49.54-27.483 62.889-27.323 13.35.16 22.93 2.21 22.93 2.21l-36.404-26.851s-31.093 13.885-53.051 30.148c-21.949 16.264-27.483 20.631-37.767 21.344-10.284.713-21.326-1.907-21.326-1.907ZM444.476 484.422c.66 11.362 1.248 23.072-4.963 32.732-6.791 9.732-19.561 15.587-30.362 20.889 15.176-2.263 31.77-4.322 43.257-16.353 9.009-9.437 13.144-23.027 16.121-35.156l-24.044-2.112h-.009Z"/><path fill="#000" d="M443.817 488.68c9.321 20.915.401 39.933-13.947 56.312-5.008 5.811-10.56 11.3-16.272 16.638 21.503-11.656 44.344-25.986 51.865-51.206 2.665-8.894 3.021-18.545 1.765-27.635l-23.411 5.891Z"/><path fill="#000" d="M373.424 451.656c.454.143 85.043 29.311 85.979 29.48.303 3.582-2.504 16.941-3.769 20.327-6.604 17.699-32.162 28.464-58.487 19.089-26.325-9.375-32.465-31.244-29.908-49.121 2.023-14.169 5.766-18.964 6.185-19.775Z"/><path fill="#fff" stroke="#000" stroke-miterlimit="10" stroke-width="4.456" d="M383.565 453.086c.366.125 70.09 29.052 70.839 29.203.241 3.057-.909 8.805-1.916 11.692-5.267 15.115-24.899 25.434-46.198 21.166-22.03-4.403-28.891-18.911-30.219-34.747-1.007-12.022 7.174-26.619 7.503-27.314h-.009Z"/><path fill="#000" d="M487.261 477.225s-11.166 28.161-62.729 2.379c-49.62-24.81-49.54-27.483-62.889-27.323-13.359.161-22.93 2.21-22.93 2.21l36.404-26.85s31.093 13.884 53.051 30.148c21.949 16.263 27.484 20.63 37.768 21.343 10.284.722 21.325-1.907 21.325-1.907Z"/><path fill="#B92025" d="M503.275 369.054c89.246 0 161.595-37.433 161.595-83.609 0-46.176-72.349-83.609-161.595-83.609s-161.594 37.433-161.594 83.609c0 46.176 72.348 83.609 161.594 83.609Z"/><path fill="#000" d="M503.275 375.808c-44.219 0-85.908-8.965-117.366-25.247-32.875-17.012-50.983-40.137-50.983-65.126 0-24.988 18.108-48.114 50.983-65.126 31.467-16.281 73.147-25.247 117.366-25.247 44.22 0 85.908 8.966 117.366 25.247 32.875 17.012 50.984 40.138 50.984 65.126 0 24.989-18.109 48.114-50.984 65.126-31.467 16.282-73.146 25.247-117.366 25.247Zm0-167.218c-42.098 0-81.577 8.431-111.154 23.732-28.17 14.571-43.676 33.436-43.676 53.122s15.515 38.543 43.676 53.122c29.577 15.302 69.056 23.732 111.154 23.732 42.099 0 81.577-8.43 111.155-23.732 28.17-14.57 43.676-33.436 43.676-53.122s-15.515-38.543-43.676-53.122c-29.578-15.301-69.056-23.732-111.155-23.732Z"/><path fill="#FFCF00" d="M598.915 265.72c10.979 6.149 18.491 18.634 18.491 33.044 0 20.505-15.203 37.126-33.953 37.126-18.75 0-33.953-16.621-33.953-37.126 0-14.642 7.753-27.296 19.008-33.339l-64.252-80.596-64.253 80.596c11.255 6.043 19.008 18.697 19.008 33.339 0 20.505-15.203 37.126-33.953 37.126-18.75 0-33.953-16.621-33.953-37.126 0-14.41 7.521-26.895 18.491-33.044L306.899 163.414l37.117 207.338s28.517 13.581 74.242 20.372c45.031 6.684 75.74 5.944 86.015 5.944 10.275 0 40.923.749 85.953-5.944 45.726-6.791 74.243-20.372 74.243-20.372l37.117-207.338L598.888 265.72h.027Z"/><path fill="#000" d="M496.618 403.116c-14.534 0-42-.508-79.215-6.033-46.091-6.844-74.751-20.318-75.954-20.889a6.024 6.024 0 0 1-3.342-4.384L300.99 164.472a6.035 6.035 0 0 1 3.146-6.408 6.045 6.045 0 0 1 7.058 1.07l102.698 102.305a6.045 6.045 0 0 1 1.72 5.098 6.062 6.062 0 0 1-3.03 4.447c-9.509 5.329-15.408 15.969-15.408 27.786 0 17.137 12.52 31.084 27.92 31.084 15.399 0 27.92-13.947 27.92-31.084 0-11.861-6.212-22.858-15.827-28.018a6.033 6.033 0 0 1-3.057-4.099 6.047 6.047 0 0 1 1.194-4.973l64.253-80.597a6.026 6.026 0 0 1 9.429 0l64.252 80.597a6.055 6.055 0 0 1 1.195 4.973 6.016 6.016 0 0 1-3.057 4.099c-9.616 5.16-15.827 16.157-15.827 28.018 0 17.137 12.521 31.084 27.92 31.084 15.399 0 27.92-13.947 27.92-31.084 0-11.817-5.908-22.457-15.408-27.786a6.04 6.04 0 0 1-1.31-9.545l102.697-102.305a6.032 6.032 0 0 1 7.058-1.07 6.034 6.034 0 0 1 3.146 6.408L670.466 371.81a6.019 6.019 0 0 1-3.342 4.384c-1.194.571-29.862 14.045-75.953 20.889-41.929 6.229-71.445 6.078-84.055 6.015-1.051 0-1.987-.008-2.789-.008s-1.738 0-2.789.008c-1.417 0-3.057.018-4.893.018h-.027Zm-147.202-36.6c8.119 3.431 33.535 13.252 69.76 18.634 41.021 6.087 69.93 5.944 82.281 5.882 1.079 0 2.023-.009 2.852-.009.829 0 1.774 0 2.852.009 12.334.071 41.207.205 82.218-5.882 36.217-5.382 61.633-15.203 69.761-18.634l33.178-185.308-84.028 83.707c9.509 8.092 15.176 20.461 15.176 33.855 0 23.794-17.939 43.159-39.986 43.159-22.047 0-39.986-19.356-39.986-43.159 0-13.938 6.077-26.681 16.219-34.729l-55.431-69.519-55.43 69.519c10.141 8.048 16.219 20.782 16.219 34.729 0 23.794-17.939 43.159-39.986 43.159-22.048 0-39.987-19.356-39.987-43.159 0-13.394 5.668-25.763 15.177-33.855l-84.028-83.707 33.178 185.308h-.009Z"/><path fill="#B92025" d="m534.956 264.359-31.342 72.933-30.059-72.933 30.059-39.273 31.342 39.273Z"/><path fill="#000" d="M503.614 342.123h-.036a4.84 4.84 0 0 1-4.429-2.985l-30.068-72.933a4.815 4.815 0 0 1 .633-4.777l30.068-39.273a4.814 4.814 0 0 1 3.787-1.889h.045c1.47 0 2.861.668 3.77 1.818l31.342 39.273a4.818 4.818 0 0 1 .659 4.919l-31.342 72.933a4.822 4.822 0 0 1-4.438 2.923l.009-.009Zm-24.543-77.032 24.632 59.761 25.674-59.743-25.683-32.18-24.623 32.162Z"/><path fill="#FFCF00" d="M665.797 399.713s-57.231 26.601-166.247 26.601c-109.016 0-158.065-26.601-158.065-26.601v-38.401s81.461 25.987 159.277 25.987c77.817 0 165.035-25.987 165.035-25.987v38.401Z"/><path fill="#000" d="M499.55 432.345c-109.292 0-158.885-26.218-160.944-27.332a6.036 6.036 0 0 1-3.154-5.303v-38.4c0-1.925.917-3.734 2.477-4.875a6.01 6.01 0 0 1 5.391-.873c.811.258 81.506 25.701 157.451 25.701s162.45-25.478 163.315-25.737a6.028 6.028 0 0 1 7.753 5.784v38.4a6.039 6.039 0 0 1-3.494 5.472c-2.388 1.105-59.699 27.163-168.786 27.163h-.009Zm-152.032-36.449c12.36 5.516 61.258 24.373 152.032 24.373s146.32-19.106 160.213-24.587v-26.423c-23.241 6.292-94.632 24.062-159.001 24.062-64.368 0-130.778-17.494-153.244-23.928v26.503Z"/></g><defs><clipPath id="a"><path fill="#fff" d="M66.098 66h867.93v867.93H66.098z"/></clipPath></defs></svg>