<svg xmlns="http://www.w3.org/2000/svg" width="700" height="700" fill="none"><g fill="#fff" clip-path="url(#a)"><path d="M84.674 269.246c-3.13-.603-5.758-.028-7.87 1.724-2.11 1.737-3.547 4.624-4.308 8.631l-2.04 10.67 19.762 3.763 2.04-10.671c.76-4.021.473-7.223-.862-9.622-1.336-2.398-3.576-3.906-6.722-4.495ZM147.29 517.051a9.956 9.956 0 0 0-2.916-2.743 9.427 9.427 0 0 0-3.662-1.307c-1.307-.187-2.671-.072-4.107.316-1.422.388-2.844 1.106-4.251 2.126-1.422 1.019-2.542 2.139-3.361 3.36-.818 1.221-1.35 2.485-1.594 3.792a9.53 9.53 0 0 0 .072 3.877c.287 1.278.847 2.499 1.666 3.633.819 1.135 1.795 2.054 2.915 2.743a9.418 9.418 0 0 0 3.648 1.307c1.307.187 2.686.072 4.107-.316 1.422-.402 2.844-1.105 4.251-2.125 1.422-1.02 2.542-2.14 3.361-3.361.833-1.22 1.364-2.484 1.594-3.791a9.536 9.536 0 0 0-.072-3.878 10.135 10.135 0 0 0-1.666-3.633h.015ZM412.73 68.087l-5.328-1.321-2.527 10.168 5.328 1.32c2.025.503 3.633.417 4.825-.243 1.192-.66 1.996-1.781 2.384-3.36.388-1.566.216-2.93-.531-4.08-.747-1.148-2.126-1.981-4.151-2.484ZM389.551 635.115c-1.68.245-2.872.719-3.576 1.394-.689.689-.962 1.551-.804 2.599.158 1.091.675 1.853 1.537 2.283.861.431 2.125.532 3.82.273l6.951-1.019-.963-6.578-6.95 1.02-.015.028ZM87.23 231.964l16.933 16.947 7.008-17.952-23.94 1.005ZM87.561 428.24l11.92 1.839-1.838-8.459-10.082 6.62ZM132.067 169.536c.991 2.01 2.427 3.82 4.294 5.428 1.867 1.609 3.877 2.772 6.032 3.476 2.154.703 4.322.962 6.534.789 2.212-.172 4.323-.789 6.333-1.823 2.025-1.035 3.835-2.499 5.443-4.366 1.637-1.896 2.829-3.935 3.562-6.09.732-2.154 1.02-4.322.847-6.52-.158-2.197-.747-4.294-1.752-6.319-1.005-2.025-2.456-3.834-4.323-5.457-1.867-1.608-3.877-2.757-6.003-3.447a17.35 17.35 0 0 0-6.505-.804c-2.212.144-4.323.747-6.348 1.781-2.025 1.034-3.849 2.513-5.486 4.409-1.609 1.867-2.786 3.877-3.519 6.032-.732 2.154-1.019 4.337-.847 6.563a17.212 17.212 0 0 0 1.738 6.348ZM395.051 624.244l-1.019-6.951-8.976 1.321c-1.637.244-2.829.718-3.562 1.436-.732.704-1.019 1.638-.847 2.772.172 1.135.704 1.939 1.608 2.413.905.474 2.183.589 3.821.344l8.975-1.321v-.014ZM282.459 625.378c-1.192.661-1.996 1.781-2.384 3.361-.388 1.565-.216 2.93.531 4.079.747 1.149 2.126 1.982 4.151 2.484l5.328 1.321 2.527-10.167-5.328-1.322c-2.025-.502-3.633-.416-4.825.244ZM337.692 639.927l4.883-11.03-8.645-.431 3.762 11.461ZM354.926 74.492l8.646.431-3.763-11.46-4.883 11.03ZM550.226 186.338c.818 1.135 1.795 2.054 2.915 2.743a9.411 9.411 0 0 0 3.662 1.307c1.307.187 2.671.072 4.107-.316 1.422-.388 2.844-1.106 4.251-2.125 1.422-1.02 2.542-2.14 3.361-3.361.819-1.221 1.35-2.484 1.594-3.791a9.535 9.535 0 0 0-.072-3.878 9.928 9.928 0 0 0-1.68-3.633c-.819-1.135-1.795-2.054-2.915-2.743a9.434 9.434 0 0 0-3.648-1.307c-1.307-.187-2.686-.072-4.108.316-1.421.388-2.843 1.106-4.25 2.125-1.422 1.02-2.542 2.14-3.361 3.361-.833 1.221-1.364 2.484-1.594 3.791a9.518 9.518 0 0 0 .072 3.878 9.928 9.928 0 0 0 1.68 3.633h-.014ZM612.827 434.129c3.13.603 5.759.028 7.87-1.724 2.111-1.737 3.547-4.624 4.322-8.631l2.04-10.67-19.761-3.777-2.04 10.67c-.761 4.021-.474 7.224.862 9.622 1.335 2.399 3.576 3.907 6.707 4.495v.015ZM609.955 275.134l-11.92-1.823 1.838 8.444 10.082-6.621ZM610.285 471.411l-16.947-16.947-6.994 17.966 23.941-1.019ZM488.012 574.18c-3.087 2.054-5.356 4.409-6.821 7.081-1.479 2.671-2.126 5.471-1.953 8.401.158 2.93 1.163 5.788 3.001 8.545 1.867 2.8 4.107 4.825 6.75 6.089 2.628 1.264 5.457 1.738 8.488 1.408 3.03-.331 6.089-1.523 9.162-3.576l10.039-6.693-18.627-27.947-10.039 6.692ZM209.489 129.195c3.087-2.054 5.357-4.409 6.836-7.081 1.465-2.671 2.125-5.471 1.953-8.401-.158-2.93-1.163-5.788-3.002-8.545-1.867-2.8-4.107-4.825-6.749-6.09-2.629-1.263-5.458-1.737-8.488-1.407-3.03.33-6.089 1.523-9.163 3.576l-10.038 6.693 18.627 27.961 10.038-6.692-.014-.014ZM565.449 533.839c-.991-2.01-2.427-3.82-4.294-5.428-1.867-1.609-3.878-2.772-6.032-3.476a16.372 16.372 0 0 0-6.534-.775c-2.212.172-4.323.79-6.334 1.824-2.01 1.034-3.834 2.499-5.443 4.366-1.637 1.895-2.829 3.935-3.561 6.074-.733 2.155-1.02 4.323-.848 6.52.158 2.198.747 4.294 1.752 6.319 1.02 2.025 2.456 3.849 4.323 5.458 1.867 1.608 3.878 2.757 6.018 3.446 2.125.69 4.308.948 6.505.805 2.212-.144 4.323-.747 6.348-1.781 2.025-1.034 3.849-2.513 5.486-4.409 1.608-1.867 2.786-3.878 3.518-6.032.733-2.154 1.02-4.337.848-6.563a17.231 17.231 0 0 0-1.738-6.348h-.014ZM302.464 79.131l1.02 6.95 8.975-1.32c1.638-.245 2.83-.718 3.562-1.436.732-.704 1.02-1.638.847-2.772-.172-1.135-.703-1.94-1.608-2.413-.905-.474-2.183-.589-3.82-.345l-8.976 1.322v.014ZM307.964 68.26c1.681-.245 2.873-.719 3.576-1.394.69-.689.963-1.55.805-2.6-.158-1.09-.675-1.852-1.537-2.297-.862-.43-2.126-.531-3.82-.273l-6.951 1.02.962 6.577 6.951-1.02.014-.014Z"/><path d="M672.484 213.754c-17.622-41.677-42.869-79.102-74.995-111.243-32.141-32.14-69.567-57.373-111.243-74.995C443.076 9.263 397.249 0 350 0c-47.249 0-93.076 9.263-136.246 27.516-41.677 17.636-79.102 42.869-111.243 74.995-32.14 32.141-57.373 69.566-74.995 111.243C9.263 256.924 0 302.751 0 350c0 47.249 9.263 93.076 27.516 136.246 17.622 41.676 42.869 79.102 74.995 111.243 32.141 32.14 69.566 57.373 111.243 74.995C256.91 690.737 302.751 700 350 700c47.249 0 93.076-9.263 136.246-27.516 41.676-17.622 79.102-42.869 111.243-74.995 32.14-32.141 57.373-69.567 74.995-111.243C690.737 443.09 700 397.249 700 350c0-47.249-9.263-93.076-27.516-136.246Zm-6.75 269.62c-17.263 40.8-41.964 77.45-73.43 108.916-31.465 31.466-68.115 56.167-108.916 73.429-42.251 17.866-87.13 26.928-133.388 26.928-46.258 0-91.137-9.062-133.388-26.928-40.801-17.262-77.451-41.963-108.916-73.429-31.466-31.466-56.182-68.116-73.43-108.916C16.401 441.123 7.34 396.243 7.34 349.986c0-46.258 9.062-91.137 26.927-133.388 17.263-40.801 41.964-77.451 73.43-108.917 31.465-31.465 68.115-56.167 108.916-73.43C258.863 16.387 303.742 7.325 350 7.325c46.258 0 91.137 9.062 133.388 26.928 40.801 17.262 77.451 41.964 108.916 73.429 31.466 31.466 56.182 68.116 73.43 108.917 17.865 42.251 26.927 87.13 26.927 133.388 0 46.257-9.062 91.137-26.927 133.388Z"/><path d="M454.752 276.312c12.307 18.052 20.249 39.307 22.303 62.271l.703-.13-.66.561c.33 3.791.502 7.64.502 11.517 0 72.87-59.068 131.938-131.937 131.938-11.475 0-22.59-1.479-33.204-4.222l-19.588 16.558c16.458 6.032 34.237 9.321 52.792 9.321 84.818 0 153.594-68.762 153.594-153.595 0-34.812-11.589-66.923-31.121-92.673l-13.384 18.468v-.014ZM257.168 476.035l10.384-19.215c-32.629-24.013-53.798-62.688-53.798-106.303 0-64.066 45.669-117.447 106.216-129.41l15.855-23.854c-80.222 5.084-143.728 71.749-143.728 153.264 0 51.859 25.721 97.715 65.086 125.518"/><path d="M660.549 218.795c-16.975-40.14-41.274-76.187-72.223-107.136-30.948-30.948-66.995-55.248-107.135-72.223C439.629 21.858 395.497 12.94 350 12.94s-89.643 8.918-131.191 26.496c-40.14 16.975-76.187 41.275-107.135 72.223-30.949 30.949-55.248 66.996-72.224 107.136-17.578 41.562-26.496 85.694-26.496 131.191 0 45.496 8.918 89.643 26.496 131.19 16.976 40.14 41.275 76.187 72.224 107.136 30.948 30.949 66.995 55.248 107.135 72.223 41.562 17.578 85.694 26.497 131.191 26.497s89.643-8.919 131.191-26.497c40.14-16.975 76.187-41.274 107.135-72.223 30.949-30.949 55.248-66.996 72.223-107.136 17.579-41.561 26.497-85.694 26.497-131.19 0-45.497-8.918-89.644-26.497-131.191Zm-62.802-21.212 5.012 11.331-11.704 23.768 18.583-8.229 5.946 13.428-39.709 17.593 46.962 9.406 3.145 14.477-39.523 28.607-3.317-15.223 6.979-4.581-3.619-16.616-8.243-1.264-3.145-14.462-.402.187-5.012-11.331 11.704-23.768-18.584 8.229-5.945-13.428 40.872-18.109v-.015Zm-44.505-42.193c3.03-.632 6.06-.661 9.09-.058 3.03.603 5.917 1.81 8.646 3.648 2.728 1.838 5.155 4.222 7.281 7.152 2.14 2.973 3.648 6.032 4.495 9.191.862 3.16 1.092 6.276.704 9.335-.388 3.059-1.379 5.931-2.93 8.602-1.565 2.672-3.72 5.013-6.491 6.994-2.729 1.968-5.616 3.275-8.675 3.921a22.43 22.43 0 0 1-9.119.072c-3.03-.603-5.902-1.81-8.631-3.619-2.729-1.81-5.141-4.194-7.267-7.123-2.14-2.973-3.648-6.047-4.509-9.22-.876-3.174-1.106-6.291-.719-9.364.388-3.059 1.379-5.931 2.959-8.617 1.58-2.685 3.734-5.012 6.463-6.979 2.757-1.997 5.658-3.303 8.688-3.935h.015Zm-107.768 23.509a197.12 197.12 0 0 1 44.29 33.821l-78.298 14.232 34.008-48.067v.014ZM335.251 284.857 266.36 396.976l46.171-8.057-68.101 126.107c-54.329-34.826-90.333-95.733-90.333-165.055 0-108.198 87.705-195.903 195.903-195.903 18.138 0 35.702 2.471 52.376 7.095l-38.546 7.152-85.737 128.979 57.158-12.451v.014Zm116.528 65.962-69.624 13.198 108.758-150.091c34.037 35.243 54.99 83.21 54.99 136.074 0 108.198-87.705 195.903-195.903 195.903-35.674 0-69.121-9.536-97.93-26.195l199.694-168.875.015-.014Zm91.395-223.491-22.92 23.768 14.519 14.002-8.114 8.416-25.377-24.472 31.021-32.184 10.857 10.455.014.015Zm-19.287-17.636-6.491 9.335-17.665-12.294-2.987 4.294 15.525 10.8-6.204 8.919-15.525-10.8-3.361 4.825 18.354 12.767-6.491 9.335-30.518-21.226 25.52-36.707 29.829 20.752h.014Zm-88.121-24.357c1.436-3.13 3.317-5.744 5.629-7.813 2.313-2.082 4.912-3.604 7.813-4.566 2.901-.963 5.974-1.322 9.206-1.078 3.231.245 6.477 1.106 9.737 2.6 3.978 1.824 7.195 4.15 9.636 6.95 2.442 2.801 4.064 5.99 4.869 9.537l-12.193 3.748c-.503-2.054-1.293-3.834-2.37-5.342-1.063-1.494-2.513-2.657-4.337-3.505-1.436-.66-2.829-1.02-4.208-1.091-1.379-.072-2.685.144-3.92.66-1.236.503-2.384 1.279-3.418 2.327-1.034 1.049-1.925 2.341-2.629 3.892-.718 1.551-1.12 3.059-1.235 4.524-.115 1.465.043 2.843.46 4.122a9.251 9.251 0 0 0 2.054 3.403c.947 1.005 2.139 1.824 3.576 2.485 1.823.833 3.647 1.163 5.471 1.005 1.838-.158 3.691-.732 5.587-1.68l5.098 11.69c-3.203 1.666-6.664 2.499-10.383 2.499-3.72 0-7.583-.919-11.561-2.743-3.246-1.494-6.017-3.39-8.315-5.687-2.298-2.298-4.021-4.855-5.185-7.684a21.85 21.85 0 0 1-1.637-8.904c.072-3.102.819-6.233 2.255-9.363v.014ZM353.26 48.312l14.792.732 17.047 44.937 10.455-42.137 20.881 5.185c4.05 1.005 7.382 2.542 10.01 4.595 2.628 2.054 4.438 4.51 5.443 7.368 1.006 2.858 1.092 5.96.259 9.306-.833 3.346-2.355 6.032-4.567 8.042-1.925 1.752-4.28 2.93-7.023 3.562l5.802 15.639-15.625-3.877-4.653-12.739-3.992-.99-2.715 10.914-14.634-3.633.144-.59-15.137-.746-2.6-7.927-16.975-.848-3.375 7.64-15.309-.76 21.729-43.688.043.015Zm-45.784 2.642c6.104-.905 10.771-.474 14.002 1.264 3.232 1.737 5.084 4.294 5.587 7.669.33 2.226 0 4.308-.991 6.247-.819 1.608-2.082 3.001-3.748 4.208.129.029.258.029.373.057 2.643.603 4.797 1.71 6.434 3.346 1.637 1.638 2.642 3.734 3.03 6.305.56 3.835-.589 7.052-3.447 9.68-2.857 2.613-7.353 4.365-13.456 5.27l-24.888 3.662-6.506-44.233 23.624-3.475h-.014ZM251.05 64.166l2.169 5.113-23.165 9.809 5.357 12.638 20.637-8.746 2.111 4.998-20.637 8.746 5.63 13.284 23.997-10.154 2.169 5.113-29.872 12.652-17.434-41.174 29.053-12.293-.015.014Zm-62.96 32.227c3.964-2.642 7.985-4.193 12.049-4.653 4.065-.46 7.87.144 11.418 1.824 3.547 1.68 6.548 4.366 9.004 8.042 2.456 3.691 3.777 7.483 3.964 11.403.187 3.921-.718 7.669-2.714 11.245-1.997 3.576-4.969 6.693-8.933 9.335l-15.683 10.441-24.787-37.196 15.682-10.44Zm-62.586 58.767c1.019-2.944 2.656-5.716 4.911-8.33 2.226-2.585 4.711-4.595 7.454-6.06 2.743-1.451 5.586-2.312 8.545-2.585a21.86 21.86 0 0 1 8.746 1.005c2.872.934 5.558 2.47 8.042 4.61 2.513 2.169 4.438 4.596 5.773 7.296a21.733 21.733 0 0 1 2.255 8.487c.172 2.959-.258 5.903-1.292 8.832-1.034 2.93-2.672 5.687-4.883 8.272-2.226 2.586-4.725 4.596-7.497 6.061-2.772 1.465-5.644 2.326-8.588 2.585a22.342 22.342 0 0 1-8.746-.962c-2.872-.905-5.558-2.427-8.042-4.567-2.485-2.14-4.381-4.567-5.702-7.267-1.321-2.714-2.068-5.543-2.24-8.502-.173-2.958.244-5.917 1.264-8.861v-.014Zm-31.423 45.295 27.588-.33-12.997-24.357 3.217-5.443 16.142 30.159 13.313 7.87-3.217 5.443-13.399-7.913-34.122.46 3.475-5.889Zm-11.748 26.181 49.03-2.685-2.441 6.247-12.193.517-8.631 22.145 8.631 8.631-2.384 6.132-34.295-35.099 2.298-5.888h-.014ZM67.067 278.38c.733-3.849 1.968-7.008 3.691-9.507 1.738-2.485 3.892-4.237 6.463-5.271 2.585-1.019 5.457-1.235 8.631-.632 3.174.604 5.773 1.853 7.77 3.763 1.996 1.896 3.346 4.323 4.035 7.267.1.416.144.862.215 1.307l16.717-7.626-1.307 6.836-15.28 6.879c-.1.905-.23 1.838-.417 2.815l-2.068 10.857 13.356 2.556-1.192 6.276-43.917-8.373 3.275-17.118.028-.029Zm-12.235 83.842 10.512-7.971-3.82-12.624 10.828 7.54 10.829-7.54-3.82 12.624 10.512 7.971-13.198.272-4.337 12.466-4.337-12.466-13.198-.272h.029Zm44.907 143.57-5.012-11.331 11.705-23.768-18.584 8.229-5.945-13.428 39.694-17.578-46.961-9.407-3.145-14.476 39.522-28.608 3.317 15.223-6.979 4.581 3.619 16.616 8.243 1.264 3.145 14.462.403-.187 5.012 11.331-11.705 23.768 18.584-8.229 5.945 13.428-40.872 18.095.014.015Zm44.506 42.193a22.54 22.54 0 0 1-9.091.058c-3.03-.603-5.916-1.81-8.645-3.648-2.729-1.838-5.156-4.222-7.281-7.152-2.14-2.973-3.634-6.032-4.495-9.191-.862-3.16-1.092-6.276-.704-9.335.388-3.059 1.379-5.931 2.93-8.602 1.565-2.672 3.719-4.998 6.491-6.994 2.729-1.968 5.615-3.275 8.674-3.921a22.436 22.436 0 0 1 9.12-.072c3.03.603 5.902 1.81 8.631 3.619 2.728 1.824 5.141 4.194 7.267 7.138 2.139 2.973 3.647 6.046 4.509 9.22.876 3.174 1.106 6.29.718 9.363a22.405 22.405 0 0 1-2.958 8.617c-1.58 2.686-3.734 5.012-6.463 6.98-2.757 1.996-5.658 3.303-8.688 3.935l-.015-.015Zm9.996 27.991 22.92-23.754-14.519-14.017 8.114-8.416 25.362 24.472-31.035 32.17-10.842-10.47v.015Zm19.359 17.721 6.491-9.334 17.664 12.293 2.988-4.294-15.525-10.8 6.204-8.918 15.525 10.799 3.36-4.825-18.354-12.753 6.492-9.335 30.518 21.226-25.52 36.708-29.829-20.752-.014-.015Zm88.121 24.357c-1.436 3.131-3.318 5.73-5.63 7.813a21.725 21.725 0 0 1-7.827 4.552c-2.901.963-5.974 1.322-9.205 1.077-3.246-.244-6.477-1.105-9.737-2.599-3.978-1.824-7.195-4.15-9.637-6.951-2.441-2.8-4.064-5.988-4.868-9.536l12.193-3.748c.502 2.054 1.292 3.834 2.369 5.342 1.077 1.494 2.513 2.672 4.337 3.505 1.436.66 2.829 1.019 4.208 1.091 1.379.072 2.686-.144 3.921-.661 1.235-.502 2.384-1.278 3.418-2.326 1.034-1.049 1.924-2.341 2.628-3.892.718-1.551 1.12-3.059 1.235-4.524.115-1.465-.043-2.843-.46-4.107a9.12 9.12 0 0 0-2.053-3.404c-.948-1.005-2.14-1.824-3.576-2.484-1.824-.833-3.648-1.164-5.472-1.006-1.838.173-3.691.733-5.586 1.695l-5.099-11.69c3.203-1.666 6.664-2.499 10.398-2.499s7.583.919 11.561 2.743c3.245 1.494 6.017 3.389 8.315 5.673 2.298 2.297 4.021 4.854 5.184 7.683a21.852 21.852 0 0 1 1.638 8.904c-.072 3.102-.819 6.233-2.255 9.364v-.015Zm82.491 37.009-14.792-.732-17.047-44.937-10.455 42.137-20.881-5.185c-4.05-1.005-7.396-2.542-10.01-4.596-2.628-2.053-4.452-4.509-5.443-7.367-1.005-2.858-1.091-5.96-.258-9.306.832-3.346 2.355-6.032 4.566-8.042 1.925-1.752 4.28-2.93 7.023-3.562l-5.802-15.64 15.625 3.878 4.653 12.739 3.993.99 2.7-10.9 14.634 3.634-.144.589 15.137.746 2.6 7.928 16.975.847 3.375-7.64 15.309.761-21.729 43.687-.029-.029Zm45.784-2.642c-6.103.89-10.771.474-14.002-1.264s-5.084-4.294-5.587-7.669c-.33-2.226 0-4.323.991-6.247.819-1.608 2.083-3.001 3.749-4.208-.13-.029-.259-.029-.374-.057-2.642-.604-4.796-1.709-6.434-3.346-1.637-1.638-2.642-3.734-3.03-6.305-.56-3.835.589-7.066 3.447-9.68 2.858-2.613 7.353-4.366 13.456-5.27l24.903-3.662 6.506 44.232-23.625 3.476Zm56.426-13.213-2.169-5.112 23.165-9.809-5.357-12.652-20.637 8.746-2.111-4.998 20.637-8.746-5.629-13.299-23.998 10.168-2.169-5.112 29.872-12.653 17.435 41.174-29.053 12.308.014-.015Zm62.96-32.226c-3.964 2.642-7.985 4.193-12.049 4.653-4.064.459-7.87-.144-11.417-1.824-3.548-1.68-6.549-4.366-9.005-8.043-2.456-3.69-3.777-7.482-3.949-11.417-.187-3.92.718-7.669 2.714-11.245 1.996-3.576 4.969-6.692 8.933-9.335l15.682-10.44 24.788 37.196-15.683 10.455h-.014Zm62.587-58.767c-1.02 2.944-2.657 5.716-4.912 8.33-2.226 2.585-4.71 4.595-7.453 6.06-2.743 1.451-5.587 2.312-8.545 2.585a21.858 21.858 0 0 1-8.746-1.005c-2.873-.934-5.558-2.47-8.043-4.61-2.513-2.169-4.437-4.596-5.773-7.281a21.819 21.819 0 0 1-2.255-8.488c-.172-2.958.259-5.902 1.293-8.832 1.034-2.93 2.671-5.687 4.883-8.258 2.226-2.585 4.725-4.595 7.496-6.06 2.772-1.465 5.644-2.327 8.588-2.585a22.371 22.371 0 0 1 8.746.962c2.873.905 5.558 2.427 8.043 4.567 2.484 2.14 4.38 4.567 5.701 7.267 1.321 2.714 2.068 5.543 2.24 8.516.173 2.958-.244 5.902-1.263 8.846v-.014Zm31.422-45.296-27.588.331 12.997 24.357-3.217 5.443-16.142-30.159-13.313-7.87 3.217-5.443 13.399 7.913 34.108-.46-3.475 5.888h.014Zm11.748-26.166-49.03 2.686 2.442-6.248 12.192-.517 8.632-22.145-8.632-8.631 2.399-6.132 34.295 35.099-2.298 5.888Zm15.266-51.744c-.732 3.849-1.968 7.009-3.705 9.507-1.738 2.485-3.892 4.237-6.463 5.271-2.585 1.02-5.457 1.235-8.631.632-3.174-.603-5.773-1.867-7.77-3.763-1.996-1.91-3.346-4.322-4.049-7.281-.101-.416-.144-.862-.216-1.307l-16.716 7.626 1.306-6.836 15.281-6.879c.1-.905.23-1.838.416-2.815l2.068-10.857-13.356-2.556 1.192-6.276 43.917 8.372-3.26 17.134-.014.028Zm-7.683-73.171-4.337 12.466-4.338-12.466-13.198-.273 10.513-7.97-3.82-12.624 10.828 7.54 10.829-7.54-3.821 12.624 10.513 7.97-13.198.273h.029Z"/></g><defs><clipPath id="a"><path fill="#fff" d="M0 0h700v700H0z"/></clipPath></defs></svg>
