<svg xmlns="http://www.w3.org/2000/svg" width="161" height="161" fill="none"><g clip-path="url(#a)"><path fill="#fff" d="M147.64 80.76c0-36.938-29.944-66.881-66.88-66.881-36.937 0-66.88 29.943-66.88 66.88s29.944 66.881 66.881 66.881 66.881-29.944 66.881-66.88"/><path fill="#010101" d="M80.761 149.92c-9.336 0-18.393-1.829-26.922-5.435a68.937 68.937 0 0 1-21.983-14.821 68.91 68.91 0 0 1-14.82-21.983C13.426 99.154 11.6 90.096 11.6 80.759c0-9.336 1.83-18.393 5.435-26.921a68.939 68.939 0 0 1 14.82-21.984 68.922 68.922 0 0 1 21.984-14.82c8.527-3.607 17.586-5.436 26.922-5.436 9.336 0 18.393 1.83 26.922 5.435a68.971 68.971 0 0 1 21.983 14.821 68.917 68.917 0 0 1 14.821 21.984c3.608 8.527 5.435 17.585 5.435 26.921 0 9.337-1.829 18.393-5.435 26.922a68.93 68.93 0 0 1-14.821 21.983 68.93 68.93 0 0 1-21.983 14.821c-8.528 3.608-17.586 5.435-26.922 5.435"/><path fill="#010101" d="M80.761 10.12c-9.535 0-18.787 1.868-27.497 5.552a70.413 70.413 0 0 0-22.453 15.139 70.394 70.394 0 0 0-15.139 22.453c-3.684 8.71-5.552 17.96-5.552 27.495s1.868 18.787 5.552 27.497a70.403 70.403 0 0 0 15.139 22.453 70.395 70.395 0 0 0 22.453 15.139c8.71 3.684 17.962 5.552 27.497 5.552s18.787-1.868 27.497-5.552a70.415 70.415 0 0 0 22.453-15.139 70.406 70.406 0 0 0 15.138-22.453c3.684-8.71 5.553-17.962 5.553-27.497s-1.869-18.786-5.553-27.497a70.394 70.394 0 0 0-15.138-22.453 70.42 70.42 0 0 0-22.453-15.138c-8.71-3.683-17.962-5.551-27.497-5.551Z"/><path fill="#F8AF3E" d="M80.761 11.6c-9.336 0-18.393 1.829-26.922 5.435a68.94 68.94 0 0 0-21.983 14.82 68.92 68.92 0 0 0-14.82 21.984C13.426 62.366 11.6 71.424 11.6 80.761c0 9.336 1.83 18.393 5.435 26.921a68.937 68.937 0 0 0 14.82 21.984 68.935 68.935 0 0 0 21.984 14.821c8.527 3.607 17.586 5.435 26.922 5.435 9.336 0 18.393-1.829 26.922-5.435a68.957 68.957 0 0 0 21.983-14.821 68.923 68.923 0 0 0 14.821-21.984c3.608-8.527 5.435-17.585 5.435-26.921 0-9.337-1.829-18.393-5.435-26.922a68.936 68.936 0 0 0-14.821-21.983 68.933 68.933 0 0 0-21.983-14.821C99.155 13.427 90.097 11.6 80.761 11.6"/><path fill="#010101" d="M80.761 12.733c-9.182 0-18.092 1.799-26.479 5.347A67.763 67.763 0 0 0 32.66 32.658a67.793 67.793 0 0 0-14.578 21.623c-3.548 8.387-5.347 17.296-5.347 26.478 0 9.182 1.799 18.093 5.347 26.479A67.76 67.76 0 0 0 32.66 128.86a67.796 67.796 0 0 0 21.622 14.578c8.388 3.548 17.297 5.347 26.479 5.347 9.182 0 18.093-1.799 26.479-5.347a67.77 67.77 0 0 0 21.622-14.578 67.792 67.792 0 0 0 14.578-21.622c3.548-8.388 5.347-17.297 5.347-26.479 0-9.182-1.799-18.092-5.347-26.478a67.764 67.764 0 0 0-14.578-21.623A67.799 67.799 0 0 0 107.24 18.08c-8.388-3.548-17.297-5.347-26.479-5.347"/><path fill="#2B2B2B" d="M80.761 14.213c36.753 0 66.546 29.794 66.546 66.546 0 36.752-29.794 66.546-66.546 66.546-36.752 0-66.548-29.792-66.548-66.546 0-36.753 29.795-66.546 66.548-66.546Z"/><path fill="#F1F1F1" d="M80.761 41.221c21.836 0 39.538 17.702 39.538 39.538 0 21.836-17.702 39.538-39.538 39.538-21.836 0-39.538-17.702-39.538-39.538 0-21.836 17.702-39.538 39.538-39.538"/><path fill="#F8AF3E" d="m24.726 80.59 2.187-1.523-.772 2.55 2.123 1.61-2.663.054-.875 2.515-.874-2.515-2.663-.055 2.123-1.608-.772-2.55 2.186 1.522ZM134.935 78.44l2.186-1.52-.772 2.548 2.122 1.608-2.662.055-.874 2.515-.876-2.515-2.662-.055 2.123-1.608-.772-2.549 2.187 1.52ZM101.903 65.887a26.471 26.471 0 0 1 4.502 12.568l.141-.027-.134.112c.066.765.101 1.54.101 2.324 0 14.707-11.922 26.628-26.628 26.628-2.314 0-4.56-.297-6.7-.853l-3.954 3.343a30.942 30.942 0 0 0 10.654 1.88c17.12 0 31-13.88 31-31 0-7.026-2.34-13.505-6.281-18.704l-2.701 3.728v.001ZM62.024 106.198l2.094-3.878c-6.584-4.848-10.859-12.65-10.859-21.456 0-12.93 9.216-23.704 21.439-26.119l3.2-4.814C61.706 50.958 48.89 64.413 48.89 80.864c0 10.469 5.19 19.722 13.136 25.334"/><path fill="#F8AF3E" d="m83.55 44.097 20.708-3.845L93.165 55.93l16.27-2.958L87.248 83.59l14.052-2.663L57.223 118.2l15.975-29.582-9.318 1.627 13.903-22.63-11.537 2.515L83.55 44.097Z"/><path fill="#fff" d="m32.102 70.186-2.696-.515.417-2.19c.037-.195.064-.384.085-.567l3.083-1.388.263-1.38-3.375 1.54c-.014-.089-.024-.179-.044-.264-.14-.595-.412-1.084-.816-1.467-.404-.384-.927-.637-1.568-.759-.642-.122-1.222-.08-1.743.127-.52.207-.955.562-1.305 1.064-.35.503-.599 1.142-.747 1.918l-.66 3.456 8.863 1.692.241-1.266.002-.001Zm-7.351-3.633c.154-.812.444-1.392.87-1.743.426-.351.956-.467 1.589-.346.633.12 1.084.424 1.356.907.271.486.329 1.132.174 1.944l-.41 2.151-3.988-.76.41-2.152-.001-.001ZM33.68 62.898l-1.741-1.743 1.743-4.47 2.462-.103.492-1.261-9.895.541-.463 1.19 6.922 7.084.482-1.237-.002-.002Zm-2.537-2.54-3.418-3.422 4.832-.203-1.414 3.624ZM38 53.27l.649-1.099-2.688-1.588-3.258-6.085-.649 1.098 2.624 4.917-5.568.067-.7 1.186 6.885-.094L38 53.27ZM35.649 44.943c.266.546.65 1.036 1.15 1.467a4.49 4.49 0 0 0 5.121.594 5.197 5.197 0 0 0 1.514-1.223 5.21 5.21 0 0 0 .986-1.668c.209-.59.295-1.187.261-1.784a4.41 4.41 0 0 0-.456-1.712 4.683 4.683 0 0 0-1.164-1.471 4.705 4.705 0 0 0-1.623-.93 4.376 4.376 0 0 0-1.764-.202 4.544 4.544 0 0 0-1.726.52c-.553.294-1.056.702-1.504 1.223a5.147 5.147 0 0 0-.989 1.681 4.62 4.62 0 0 0-.256 1.787c.036.597.187 1.171.451 1.718h-.001Zm.945-3.21a3.67 3.67 0 0 1 .71-1.218c.33-.383.7-.68 1.107-.89.407-.211.835-.33 1.281-.36a3.47 3.47 0 0 1 1.316.163c.43.139.834.371 1.213.695.378.326.668.693.872 1.1.204.409.322.833.355 1.276.034.443-.024.88-.172 1.315a3.694 3.694 0 0 1-.718 1.227 3.672 3.672 0 0 1-1.1.882 3.38 3.38 0 0 1-1.279.37 3.366 3.366 0 0 1-1.318-.158 3.508 3.508 0 0 1-1.217-.7 3.5 3.5 0 0 1-.867-1.097 3.46 3.46 0 0 1-.351-1.28 3.3 3.3 0 0 1 .171-1.324h-.003ZM53.086 37.086c.8-.533 1.402-1.161 1.804-1.884a4.195 4.195 0 0 0 .548-2.27c-.038-.791-.304-1.56-.8-2.303-.495-.743-1.1-1.285-1.817-1.624a4.178 4.178 0 0 0-2.306-.368c-.821.093-1.632.405-2.433.94l-3.165 2.107 5.002 7.51 3.165-2.108h.002Zm-4.446-6.533c.623-.415 1.239-.655 1.85-.722a3.099 3.099 0 0 1 1.713.284c.532.254.986.665 1.363 1.23.372.558.574 1.134.608 1.724a3.082 3.082 0 0 1-.396 1.695c-.297.538-.756 1.015-1.378 1.43l-2.027 1.351-3.76-5.642 2.027-1.35ZM64.474 31.311l-.438-1.032-4.843 2.05-1.135-2.68 4.166-1.766-.426-1.008-4.168 1.764-1.079-2.553 4.677-1.98-.438-1.032-5.863 2.483 3.518 8.308 6.03-2.554ZM73.748 29.295c1.232-.181 2.138-.536 2.716-1.064.58-.528.81-1.18.696-1.953-.076-.52-.28-.942-.61-1.27-.332-.33-.764-.556-1.299-.676l-.076-.014c.336-.244.592-.526.757-.85.198-.389.264-.81.198-1.26-.1-.681-.475-1.197-1.127-1.548-.651-.352-1.593-.436-2.825-.255l-4.768.703 1.313 8.925 5.025-.74v.002Zm.154-2.355c-.148.144-.389.24-.72.288l-1.81.267-.207-1.404 1.81-.266c.331-.05.59-.025.773.07.183.095.291.256.325.485.034.229-.023.416-.17.56Zm-1.822-4.37c.339-.05.597-.03.77.056.173.087.277.241.309.464a.583.583 0 0 1-.163.526c-.14.137-.38.232-.721.281l-1.404.207-.195-1.327 1.404-.207ZM97.345 25.923c.168-.675.151-1.301-.05-1.878-.204-.577-.57-1.073-1.1-1.488-.532-.414-1.204-.723-2.021-.927l-4.216-1.045-2.11 8.505-3.442-9.07-2.987-.148-4.384 8.817 3.09.153.682-1.54 3.428.169.526 1.6 3.056.151-.029.119 2.953.733.546-2.2.804.2.939 2.57 3.153.783-1.171-3.157c.551-.129 1.028-.365 1.417-.72.446-.407.753-.948.921-1.623l-.005-.004Zm-15.59-.768.985-2.227.76 2.313-1.745-.086Zm12.507-.793c.15.233.186.506.108.823-.08.318-.239.543-.48.677-.24.134-.567.151-.976.051l-1.076-.266.51-2.052 1.076.267c.408.102.687.268.838.5ZM98.993 32.582a5.753 5.753 0 0 0 1.678 1.147c.804.37 1.583.553 2.335.553.751 0 1.451-.168 2.097-.505l-1.03-2.359a3.091 3.091 0 0 1-1.128.34 2.148 2.148 0 0 1-1.105-.203c-.29-.132-.529-.3-.721-.5a1.847 1.847 0 0 1-.416-.687 2.079 2.079 0 0 1-.093-.83c.023-.297.105-.6.249-.913.143-.312.321-.574.531-.786.211-.21.441-.368.691-.47.249-.102.514-.148.791-.132.278.013.56.086.85.219.368.168.658.404.874.706.215.302.375.661.478 1.077l2.461-.757a4.373 4.373 0 0 0-.981-1.926c-.492-.566-1.14-1.033-1.945-1.403a5.742 5.742 0 0 0-1.963-.526 4.733 4.733 0 0 0-1.858.217 4.437 4.437 0 0 0-1.578.922c-.467.419-.845.945-1.135 1.578a4.756 4.756 0 0 0-.457 1.89 4.427 4.427 0 0 0 .331 1.797c.234.57.584 1.088 1.047 1.551h-.003ZM110.842 39.762l1.308-1.884-3.702-2.576.677-.974 3.132 2.179 1.251-1.799-3.132-2.179.604-.867 3.565 2.48 1.31-1.884-6.021-4.186-5.152 7.407 6.16 4.283ZM116.418 45.141l1.638-1.699-2.933-2.827 4.625-4.797-2.19-2.11-6.261 6.495 5.121 4.938ZM118.721 43.687a4.522 4.522 0 0 0-.597 1.74 4.785 4.785 0 0 0 .146 1.89c.174.64.48 1.26.911 1.86a5.743 5.743 0 0 0 1.464 1.44c.55.366 1.13.61 1.741.731a4.544 4.544 0 0 0 3.589-.806 4.587 4.587 0 0 0 1.31-1.412c.316-.54.513-1.118.593-1.737a4.79 4.79 0 0 0-.143-1.884 5.738 5.738 0 0 0-.908-1.856 5.785 5.785 0 0 0-1.468-1.444 4.788 4.788 0 0 0-1.746-.737 4.54 4.54 0 0 0-1.834.012 4.637 4.637 0 0 0-1.755.794 4.612 4.612 0 0 0-1.305 1.409h.002Zm2.097 2.525c.048-.263.157-.518.323-.766.166-.246.392-.473.679-.678.285-.206.571-.348.858-.428.287-.08.564-.1.828-.065.265.038.511.124.737.264.227.139.422.322.589.553.164.23.278.475.337.733.06.26.065.52.016.782-.05.263-.157.518-.323.765a2.703 2.703 0 0 1-.679.68c-.285.205-.571.349-.858.427-.287.08-.564.1-.828.064a1.914 1.914 0 0 1-.739-.263 2.02 2.02 0 0 1-.588-.553 2.024 2.024 0 0 1-.338-.733 1.892 1.892 0 0 1-.015-.782h.001ZM123.715 56.364l3.752-1.66-2.362 4.796 1.013 2.286.081-.036.635 2.92 1.665.255.729 3.353-1.408.925.668 3.073 7.978-5.772-.637-2.923-9.479-1.899 8.013-3.55-1.201-2.71-3.752 1.662 2.362-4.797L130.759 50l-8.249 3.653 1.202 2.71h.003Zm7.105 8.918 2.406.37-2.034 1.337-.372-1.707ZM129.157 90.752l-.241 1.266 2.697.514-.418 2.191a7.78 7.78 0 0 0-.085.567l-3.083 1.388-.263 1.38 3.375-1.54c.014.089.024.179.044.263.141.596.413 1.085.816 1.468.404.384.927.637 1.568.759.642.122 1.222.08 1.743-.127.521-.207.955-.562 1.305-1.064.35-.503.599-1.142.747-1.918l.658-3.457-8.863-1.69Zm7.108 4.9c-.154.81-.444 1.39-.87 1.742-.426.351-.955.468-1.588.346-.633-.12-1.085-.424-1.356-.908-.272-.485-.329-1.131-.175-1.943l.411-2.151 3.987.76-.41 2.152.001.001Z"/><path fill="#fff" d="m127.336 99.305 1.741 1.743-1.743 4.469-2.462.104-.492 1.26 9.897-.541.463-1.189-6.922-7.085-.482 1.237v.002Zm2.539 2.54 3.417 3.421-4.832.204 1.413-3.625h.002ZM123.018 108.933l-.649 1.098 2.687 1.588 3.258 6.087.65-1.099-2.624-4.916 5.566-.067.703-1.187-6.887.093-2.704-1.597ZM125.368 117.261a4.6 4.6 0 0 0-1.151-1.467 4.578 4.578 0 0 0-1.622-.922 4.528 4.528 0 0 0-1.765-.193 4.563 4.563 0 0 0-1.734.521 5.199 5.199 0 0 0-1.514 1.223 5.217 5.217 0 0 0-.985 1.668 4.495 4.495 0 0 0-.26 1.784c.036.597.187 1.169.456 1.712a4.688 4.688 0 0 0 1.164 1.471 4.68 4.68 0 0 0 1.624.93c.581.188 1.17.256 1.765.202a4.519 4.519 0 0 0 1.726-.521 5.203 5.203 0 0 0 1.503-1.222 5.168 5.168 0 0 0 .99-1.681c.205-.594.29-1.19.256-1.787a4.51 4.51 0 0 0-.453-1.718Zm-.945 3.211c-.148.434-.384.84-.71 1.218-.331.384-.7.681-1.108.891a3.22 3.22 0 0 1-1.281.36 3.448 3.448 0 0 1-2.527-.859 3.554 3.554 0 0 1-.872-1.099 3.384 3.384 0 0 1-.354-1.276 3.26 3.26 0 0 1 .171-1.315 3.69 3.69 0 0 1 .718-1.227 3.71 3.71 0 0 1 1.099-.883 3.348 3.348 0 0 1 2.598-.212c.435.141.839.375 1.217.701.378.326.667.691.867 1.096.2.406.317.833.351 1.281a3.31 3.31 0 0 1-.171 1.324h.002ZM107.93 125.118c-.801.533-1.401 1.163-1.804 1.884a4.183 4.183 0 0 0-.548 2.269c.038.792.302 1.559.798 2.302.495.743 1.101 1.285 1.817 1.624.716.34 1.485.462 2.306.368.822-.093 1.633-.405 2.434-.94l3.164-2.109-5.002-7.507-3.165 2.107v.002Zm4.446 6.532c-.623.415-1.239.655-1.85.721a3.093 3.093 0 0 1-1.713-.284c-.532-.254-.986-.665-1.363-1.23-.372-.558-.574-1.133-.608-1.724a3.08 3.08 0 0 1 .396-1.695c.297-.54.755-1.015 1.378-1.431l2.028-1.35 3.76 5.642-2.028 1.351ZM96.544 130.891l.438 1.032 4.841-2.05 1.137 2.683-4.168 1.765.428 1.008 4.166-1.765 1.081 2.552-4.677 1.98.438 1.034 5.863-2.483-3.518-8.31-6.03 2.554ZM87.27 132.907c-1.231.182-2.138.536-2.716 1.064-.579.528-.81 1.179-.696 1.953.076.518.28.942.61 1.271.332.329.764.553 1.299.676l.076.013a2.44 2.44 0 0 0-.757.85c-.198.389-.264.81-.198 1.261.1.681.475 1.196 1.127 1.548.651.351 1.593.436 2.825.254l4.77-.702-1.313-8.926-5.025.74-.002-.002Zm-.154 2.355c.148-.144.389-.239.72-.288l1.81-.266.207 1.403-1.81.266c-.331.05-.59.026-.773-.069-.183-.095-.291-.257-.325-.487-.034-.229.023-.416.171-.559Zm1.823 4.37c-.34.051-.598.032-.77-.056-.174-.088-.278-.241-.31-.462a.582.582 0 0 1 .163-.526c.141-.137.38-.232.721-.281l1.404-.207.195 1.327-1.403.205ZM80.893 133.36l-.682 1.541-3.428-.17-.526-1.6-3.056-.151.029-.119-2.953-.733-.546 2.201-.804-.2-.939-2.571-3.153-.782 1.171 3.156c-.551.129-1.028.365-1.417.72-.446.407-.753.948-.921 1.623-.168.676-.151 1.302.05 1.879.203.577.57 1.072 1.1 1.488.53.414 1.204.723 2.021.927l4.216 1.047 2.11-8.505 3.442 9.07 2.986.147 4.385-8.817-3.09-.153.005.002Zm-14.137 4.482c-.149-.233-.186-.508-.108-.825.08-.317.239-.543.48-.677.24-.134.567-.151.976-.051l1.076.266-.51 2.052-1.075-.266c-.41-.102-.688-.269-.839-.501v.002Zm12.507-.793-.985 2.227-.76-2.313 1.745.086ZM62.027 129.622a5.731 5.731 0 0 0-1.678-1.146c-.804-.37-1.583-.553-2.333-.553-.75 0-1.451.168-2.098.506l1.03 2.359a3.098 3.098 0 0 1 1.129-.341c.37-.034.738.033 1.104.201.29.133.53.299.722.501.191.2.329.429.415.687.085.257.117.533.094.83a2.65 2.65 0 0 1-.25.915c-.142.312-.32.573-.53.785a2.11 2.11 0 0 1-.691.47 1.79 1.79 0 0 1-.793.133 2.284 2.284 0 0 1-.849-.221 2.154 2.154 0 0 1-.875-.706 3.113 3.113 0 0 1-.477-1.077l-2.46.757c.163.717.488 1.359.98 1.926.492.565 1.14 1.033 1.945 1.403.657.3 1.31.475 1.963.526a4.745 4.745 0 0 0 1.858-.217 4.438 4.438 0 0 0 1.579-.92 4.763 4.763 0 0 0 1.135-1.578c.29-.633.443-1.263.456-1.89a4.426 4.426 0 0 0-.33-1.797 4.708 4.708 0 0 0-1.048-1.551l.002-.002ZM50.176 122.44l-1.309 1.886 3.703 2.574-.677.974-3.133-2.179-1.25 1.799 3.132 2.179-.604.867-3.565-2.479-1.31 1.883 6.02 4.188 5.153-7.409-6.16-4.283ZM44.588 117.048l-1.638 1.697 2.93 2.828-4.625 4.796 2.19 2.113 6.264-6.495-5.121-4.939ZM42.297 118.515c.32-.541.518-1.121.597-1.739a4.796 4.796 0 0 0-.146-1.889 5.82 5.82 0 0 0-.91-1.861 5.751 5.751 0 0 0-1.465-1.439 4.808 4.808 0 0 0-1.741-.731 4.524 4.524 0 0 0-1.84.015 4.618 4.618 0 0 0-1.75.791 4.606 4.606 0 0 0-1.31 1.411 4.564 4.564 0 0 0-.591 1.738 4.795 4.795 0 0 0 .142 1.884c.173.636.475 1.255.908 1.856a5.807 5.807 0 0 0 1.468 1.444 4.8 4.8 0 0 0 1.746.737 4.516 4.516 0 0 0 3.589-.806 4.606 4.606 0 0 0 1.305-1.409l-.002-.002Zm-2.097-2.523a2.008 2.008 0 0 1-.323.765 2.69 2.69 0 0 1-.678.679 2.72 2.72 0 0 1-.86.428c-.286.08-.563.102-.827.064a1.887 1.887 0 0 1-.737-.263 2.044 2.044 0 0 1-.588-.553 2.036 2.036 0 0 1-.338-.733 1.897 1.897 0 0 1-.015-.782c.049-.263.156-.518.322-.766.166-.247.392-.473.679-.678.285-.207.572-.35.858-.428.287-.08.564-.1.828-.064.265.037.511.123.739.263.227.137.422.322.588.553.165.229.279.475.338.733.06.26.065.519.015.784l-.001-.002ZM37.303 105.838l-3.752 1.661 2.362-4.797-1.013-2.286-.081.036-.635-2.919-1.664-.256-.73-3.353 1.408-.925-.668-3.073-7.978 5.773.637 2.922 9.477 1.899-8.013 3.55 1.202 2.71 3.752-1.662-2.363 4.796 1.014 2.286 8.248-3.654-1.201-2.71-.002.002Zm-7.105-8.916-2.406-.37 2.034-1.337.372 1.707Z"/></g><defs><clipPath id="a"><path fill="#fff" d="M10.12 10.12H151.4V151.4H10.12z"/></clipPath></defs></svg>