<svg xmlns="http://www.w3.org/2000/svg" width="161" height="161" fill="none"><g clip-path="url(#a)"><path fill="#252E5B" d="M80.681 159.222c-28.074 0-50.914-22.839-50.914-50.914 0-7.926 1.768-15.508 5.254-22.548l-9.026-18.044 8.95 5.309.35-23.885 6.056 11.254a52.03 52.03 0 0 0 1.77 3.36l-.589-4.659.2-.677c.267-.91 6.665-22.402 15.037-30.419l7.208-6.231-1.582 9.4a8.928 8.928 0 0 0-.172 1.229c1.423-1.555 3.101-3.173 5.021-4.84 8.748-7.602 8.983-18.482 8.984-18.59l.314-6.687 5.273 4.16c6.204 5.409 8.982 10.826 10.201 14.958a34.951 34.951 0 0 1 3.66-2.127l4.882-2.44v5.456c0 6.587 2.225 14.248 3.838 18.935.709-1.363 1.509-3.38 2.243-6.348l2.073-8.385 4.156 7.573c5.221 9.51 5.617 20.4 5.088 27.634l9.079-6.536-4.126 23.08 11.513.131-8.111 9.474c2.844 6.462 4.285 13.343 4.285 20.466 0 28.075-22.84 50.914-50.916 50.914"/><path fill="#fff" d="M130.206 108.308c0 27.29-22.122 49.413-49.413 49.413-27.29 0-49.41-22.124-49.41-49.413 0-27.289 22.122-49.413 49.412-49.413s49.413 22.123 49.413 49.413"/><path fill="#252E5B" d="M128.599 108.308c0 26.402-21.403 47.805-47.805 47.805S32.99 134.71 32.99 108.308s21.403-47.805 47.805-47.805S128.6 81.906 128.6 108.308"/><path fill="#fff" d="M54.695 141.239c-.037-.185.012-.365.145-.542l4.281-5.638c.133-.175.295-.27.483-.285.19-.014.378.05.565.192a.845.845 0 0 1 .337.492.65.65 0 0 1-.136.55l-4.28 5.638a.647.647 0 0 1-.493.278.858.858 0 0 1-.565-.192c-.188-.142-.301-.307-.337-.493ZM56.136 106.266l-13.119-8.64-14.22-26.873 7.67 5.065V53.725l3.552 7.326c2.248 4.638 4.072 7.04 5.344 8.283l-1.28-10.115.11-.375c.264-.896 6.553-22.02 14.635-29.759l4.456-4.266-1.338 6.022c-.335 1.508-.297 3.592-.112 5.623 1.515-2.088 3.845-4.671 7.413-7.773 9.342-8.117 9.5-19.598 9.5-19.713l.019-4.086 3.08 2.681c7.167 6.247 9.51 12.462 10.252 16.32 1.385-1.035 3.198-2.243 5.269-3.28l2.705-1.353v3.024c0 8.285 3.348 18.054 4.922 22.192 1.102-1.148 2.747-3.692 4.12-9.245l1.149-4.649 2.304 4.199c5.916 10.778 5.425 23.44 4.57 30.178l9.135-6.891-4.171 21.7 1.52-.025 9.17-.126-19.239 21.102-8.396 6.446-49.022-.902.002.003Z"/><path fill="#F6A018" d="m104.523 105.297 7.76-5.96 16.22-17.79-4.849.066-3.822.067 3.688-19.192-9.019 6.804s4.523-18.865-3.571-33.611c-2.757 11.15-6.851 11.55-6.851 11.55s-5.877-13.638-5.877-24.945c-4.433 2.218-7.662 5.322-7.662 5.322s.887-9.201-9.922-18.625c0 0 0 12.306-10.144 21.12-10.144 8.812-9.522 12.804-9.522 12.804s-1.83-7.983-.83-12.472C52.304 37.917 45.985 59.37 45.985 59.37l1.663 13.137s-3.636 1.065-9.313-10.643v14.302l3.326 5.322-8.813-5.82L44.503 96.62l12.132 8.676h47.89l-.002.001Z"/><path fill="#F6EB64" d="M57.037 57.235c-1.597-1.092-3.286-3.118-3.286-6.523-2.616 7.854 0 15.862 0 15.862s-3.762-2.977-3.645-5.992c-1.668 3.616-.018 12.614.047 12.916-.062-.215-2.115-7.924-2.115-14.037 0-5.034 9.958-23.753 9.958-23.753-5.801 13.574-3.376 19.47-.96 21.529M111.457 39.949s1.682 4.04 2.337 10.6c.683 6.824.103 13.89-2.872 20.07-1.199 2.492-2.538 3.65-2.538 3.65s.833-.725 2.425-6.152c.674-2.297 1.038-5.433 1.038-5.433l-3.592 3.933s4.281-6.359 3.941-13.884c-1.455 5.122-6.2 4.094-6.2 4.094s7.859 1.863 5.461-16.877M92.133 31.244s.275-2.745 4.521-5.577c0 5.228-.326 10.346 5.229 22.763-2.313-3.348-4.442-9.395-5.638-13.181-.48-1.518-.836-3.068-1.138-4.632-.226-1.174-.785-2.075-2.974.627ZM45.502 94.389l11.13 7.951-11.799-7.329-7.984-14.158 10.963 6.751-7.315-11.617-1.238-9.642 2.178 9.04L52.22 91.558l-9.919-4.115 3.201 6.946ZM114.427 72.171l6.731-5.826-3.467 14.356-.598 2.456 8.685-.385-15.001 15.466-6.815 4.324 6.317-4.647 12.218-13.572-7.443.11.717-2.712 2.754-11.802-13.556 13.632 9.458-11.4ZM90.714 66.623S77.888 52.85 79.402 29.669c-10.591 13.322-10.16 25.714-10.16 25.714s2.162-11.096 6.63-14.697c0 8.645 3.53 23.056 3.53 23.056s-1.212-9.514 0-13.833c0 6.196 11.312 16.715 11.312 16.715M92.133 78.926s5.635-4.934 4.487-10.608c1.055 1.873 2.048 3.877 2.782 5.428.795 1.675 1.008 3.716.582 5.61l-.686 3.06.284-4.332c.076-1.151-.125-2.305-.576-3.298l-.299-.661-1.095 5.136.104-6.834s-.312 2.007-5.582 6.497M62.044 60.157s-.885 5.875-.882 11.114a12.107 12.107 0 0 0 4.476 9.412l-2.104-5.008 3.447.495s-4.113-1.515-3.808-5.834c1.405 2.153 5.678.252 5.678.252s-7.69 3.16-6.807-10.43"/><path fill="#fff" d="M80.795 82.074c14.487 0 26.233 11.744 26.233 26.233s-11.744 26.232-26.233 26.232-26.233-11.743-26.233-26.232c0-14.49 11.744-26.233 26.233-26.233Zm0-1.503c-15.293 0-27.735 12.442-27.735 27.734 0 15.293 12.442 27.735 27.735 27.735s27.734-12.442 27.734-27.735c0-15.292-12.441-27.734-27.734-27.734Z"/><path fill="#F4941D" d="M107.026 108.305c0 14.488-11.744 26.233-26.233 26.233S54.56 122.794 54.56 108.305s11.745-26.233 26.233-26.233c14.49 0 26.233 11.744 26.233 26.233Z"/><path fill="#fff" d="M41.838 123.994a5.092 5.092 0 0 1 .272-2.058.554.554 0 0 1 .291-.328c.157-.072.34-.069.549.009.166.062.28.162.343.298.065.143.062.352-.011.628-.154.478-.21.985-.166 1.523.042.538.177 1.055.403 1.547.216.473.465.804.747.996.282.19.569.219.862.086.308-.141.491-.398.55-.771.059-.373.006-.936-.157-1.692-.258-1.189-.305-2.116-.144-2.782.163-.667.547-1.139 1.156-1.417.387-.177.79-.206 1.212-.088.421.119.821.37 1.2.755.38.384.705.873.976 1.467.304.665.466 1.307.485 1.926.019.618-.105 1.154-.374 1.606-.108.162-.216.268-.324.316-.182.074-.376.056-.584-.058a.59.59 0 0 1-.243-.277.751.751 0 0 1 .007-.665 2.3 2.3 0 0 0 .21-1.101 3.232 3.232 0 0 0-.302-1.23c-.233-.508-.49-.869-.773-1.08-.283-.212-.561-.257-.833-.132-.272.124-.432.364-.482.719-.05.355.003.91.156 1.661.165.832.239 1.528.222 2.09-.017.561-.13 1.017-.341 1.369-.212.352-.532.625-.961.822a1.873 1.873 0 0 1-1.245.128c-.423-.101-.819-.335-1.19-.701-.37-.367-.69-.843-.96-1.43a6.122 6.122 0 0 1-.554-2.133M46.392 132.804a.659.659 0 0 1 .255-.499l3.137-2.687c.865-.742 1.757-1.076 2.67-.999.914.076 1.751.556 2.508 1.44.497.578.816 1.175.958 1.788.142.614.1 1.212-.125 1.794-.227.581-.623 1.116-1.19 1.602l-3.137 2.686c-.168.144-.344.203-.532.177-.187-.026-.358-.128-.512-.307-.154-.179-.228-.365-.225-.56a.657.657 0 0 1 .248-.5l1.46-1.251-2.779-3.243-1.46 1.251a.651.651 0 0 1-.532.167c-.194-.025-.368-.128-.52-.308-.154-.18-.228-.364-.225-.553m6.44 1.895.78-.668c.596-.512.93-1.032.998-1.564.07-.53-.127-1.063-.588-1.601-.926-1.082-1.99-1.107-3.19-.079l-.78.668 2.78 3.244ZM69.48 140.348c.076.174.066.361-.026.561l-.52 1.123c-.442.949-1.039 1.611-1.794 1.984-.754.375-1.59.426-2.505.157l-.879 1.894a.651.651 0 0 1-.414.374c-.187.057-.387.034-.601-.065-.215-.1-.358-.236-.434-.41-.075-.173-.066-.361.026-.56l.88-1.895c-.804-.528-1.309-1.201-1.511-2.015-.204-.814-.084-1.699.36-2.656l.522-1.124a.664.664 0 0 1 .41-.382c.182-.054.38-.031.594.067.215.099.36.238.437.417a.656.656 0 0 1-.018.557l-.536 1.156c-.345.742-.435 1.391-.274 1.949.162.555.568.985 1.218 1.287.65.302 1.238.334 1.769.099.53-.235.967-.723 1.311-1.465l.536-1.156a.652.652 0 0 1 .414-.373c.186-.057.387-.035.602.065.214.1.359.236.433.41M70.329 148.988a.661.661 0 0 1-.128-.546l.648-4.079c.178-1.126.64-1.957 1.386-2.491.747-.534 1.694-.71 2.844-.528.753.119 1.383.367 1.89.741.505.375.86.858 1.066 1.448.205.59.25 1.253.131 1.992l-.648 4.079c-.034.218-.131.378-.291.479-.16.103-.357.134-.59.098-.232-.038-.41-.131-.534-.282a.653.653 0 0 1-.135-.541l.302-1.899-4.217-.671-.302 1.899a.654.654 0 0 1-.297.473c-.164.106-.362.139-.595.103-.233-.037-.41-.129-.53-.275Zm6.132-2.73.161-1.014c.124-.776.04-1.39-.25-1.838-.292-.449-.786-.728-1.485-.839-1.407-.223-2.233.446-2.48 2.008l-.162 1.014 4.217.67-.001-.001ZM82.047 150.178c-.155-.107-.247-.27-.273-.489l-.54-4.416c-.126-1.038.097-1.89.674-2.555.578-.664 1.439-1.068 2.587-1.207 1.148-.14 2.081.043 2.8.549.72.506 1.144 1.278 1.27 2.317l.542 4.416c.027.219-.023.399-.148.541-.126.142-.305.228-.54.256-.234.029-.432-.012-.592-.123a.655.655 0 0 1-.28-.484l-.543-4.45c-.082-.663-.323-1.15-.725-1.457-.402-.306-.947-.418-1.633-.335-.688.085-1.19.323-1.505.719-.316.396-.434.925-.352 1.588l.544 4.45a.658.658 0 0 1-.154.537c-.129.146-.31.234-.544.262-.234.029-.429-.01-.585-.119M95.078 147.237a5.093 5.093 0 0 1-2.05-.325.556.556 0 0 1-.32-.299c-.068-.159-.06-.342.023-.549a.578.578 0 0 1 .305-.335c.145-.062.353-.053.627.027.472.166.979.234 1.518.206a4.56 4.56 0 0 0 1.557-.363c.478-.204.816-.444 1.014-.72.198-.277.234-.564.107-.86-.133-.311-.385-.5-.755-.57-.372-.068-.937-.03-1.697.115-1.194.227-2.122.251-2.784.073-.663-.18-1.125-.576-1.386-1.192a1.715 1.715 0 0 1-.056-1.215c.13-.418.39-.812.785-1.181.394-.369.891-.681 1.493-.938.672-.287 1.319-.432 1.936-.435.62-.003 1.15.136 1.596.415.158.112.261.222.308.331.07.184.045.378-.073.582a.616.616 0 0 1-.284.237.754.754 0 0 1-.664-.024 2.29 2.29 0 0 0-1.096-.239 3.196 3.196 0 0 0-1.237.272c-.513.219-.88.467-1.1.745-.219.278-.27.552-.152.829.118.275.353.441.707.5.353.059.91.021 1.664-.113.838-.144 1.535-.2 2.096-.17.56.031 1.014.156 1.36.377.345.22.611.547.797.982.177.412.209.829.097 1.247-.112.42-.355.81-.731 1.171-.377.361-.862.669-1.455.922a6.088 6.088 0 0 1-2.147.498M108.356 139.431c-.189.014-.363-.056-.52-.21l-4.242-4.133c-.394-.384-.591-.798-.588-1.239.003-.442.201-.867.597-1.272l2.561-2.628c.164-.17.329-.262.492-.278.163-.017.316.043.458.181a.545.545 0 0 1 .181.449c-.015.167-.101.332-.261.495l-2.372 2.434a.467.467 0 0 0-.149.373c.01.136.08.267.21.394l1.258 1.227 2.1-2.156c.164-.169.329-.261.492-.278.163-.016.316.044.458.181a.546.546 0 0 1 .181.449c-.015.168-.101.332-.26.496l-2.099 2.155 2.078 2.026a.65.65 0 0 1 .215.514c-.009.195-.095.376-.26.545-.165.169-.341.26-.53.274M112.421 134.801a.83.83 0 0 1-.657-.18.877.877 0 0 1-.342-.621.936.936 0 0 1 .221-.699.904.904 0 0 1 .636-.36.895.895 0 0 1 .672.198.84.84 0 0 1 .322.598.931.931 0 0 1-.222.692.95.95 0 0 1-.63.372ZM115.533 130.351a3.489 3.489 0 0 1-2.011.587c-.725-.01-1.469-.231-2.228-.658-.762-.428-1.336-.951-1.724-1.567a3.54 3.54 0 0 1-.553-2.024c.02-.733.246-1.484.678-2.251a5.368 5.368 0 0 1 1.325-1.583c.524-.419 1.041-.655 1.552-.712a.636.636 0 0 1 .408.068c.172.097.273.276.306.538a.582.582 0 0 1-.081.361.867.867 0 0 1-.241.27.774.774 0 0 1-.335.15 2.373 2.373 0 0 0-1.038.485c-.293.241-.566.584-.817 1.03-.42.748-.517 1.461-.29 2.139.227.678.755 1.251 1.585 1.718.821.464 1.581.613 2.278.45.696-.163 1.257-.621 1.681-1.375.487-.864.621-1.695.403-2.494-.08-.325-.068-.575.032-.754a.604.604 0 0 1 .314-.269c.227-.08.422-.074.587.019a.673.673 0 0 1 .284.336c.211.508.268 1.093.175 1.757-.094.665-.333 1.336-.715 2.014-.436.775-.961 1.363-1.577 1.766M119.219 123.172a.838.838 0 0 1-.68.04.878.878 0 0 1-.522-.478.944.944 0 0 1-.016-.735.911.911 0 0 1 .487-.544.899.899 0 0 1 .701-.027.848.848 0 0 1 .497.464.928.928 0 0 1 .012.727.952.952 0 0 1-.477.554M44.693 110.742a2.66 2.66 0 0 1-.204-.408l-.024-.062a2.824 2.824 0 0 1 .588-2.915l1.355-1.458-1.667 1.548c-.167.156-.36.283-.57.369h-.005a2.925 2.925 0 0 1-2.212-.008 1.9 1.9 0 0 1-.559-.362l-1.666-1.549 1.394 1.502c.487.523.757 1.214.736 1.927l-.003.07a2.724 2.724 0 0 1-.713 1.68l-1.39 1.524 1.502-1.421a2.643 2.643 0 0 1 1.819-.733h.063c.651.015 1.27.281 1.745.726l1.51 1.421-1.699-1.851ZM120.43 110.742a2.679 2.679 0 0 1-.204-.408l-.024-.062a2.825 2.825 0 0 1 .588-2.915l1.355-1.458-1.666 1.548c-.168.156-.36.283-.571.369h-.005a2.923 2.923 0 0 1-2.211-.008 1.892 1.892 0 0 1-.559-.362l-1.667-1.549 1.395 1.502a2.716 2.716 0 0 1 .732 1.997 2.717 2.717 0 0 1-.713 1.68l-1.39 1.524 1.502-1.421a2.644 2.644 0 0 1 1.819-.733h.063a2.648 2.648 0 0 1 1.745.726l1.509 1.421-1.698-1.851Z"/><path fill="#E36C24" d="M101.512 112.472c0-.602.002-.984 0-1.368-.013-2.743-.899-5.396-.798-8.16.05-1.366-.17-2.741-.276-4.212l4.639.435c-1.55-2.239-3.346-4.032-5.613-5.316-.494-.28-.813-.59-.913-1.184-.107-.635-.226-1.27-.451-1.874-.455-1.214-1.06-2.368-1.612-3.544l-.233.01-.26.68c-.313.826-.633 1.649-.935 2.477-.195.532-.482.652-1.03.42-1.805-.766-3.7-1.19-5.655-1.35-.466-.039-.973-.01-1.39-.184-1.374-.575-2.716-1.235-4.074-1.852-.459-.208-.935-.385-1.498-.616 1.661-1.39 3.233-2.703 4.884-4.083-.65 0-1.186-.049-1.71.007-2.535.272-4.885 1.154-7.132 2.304-.656.335-1.236.405-1.914.177-.602-.203-1.21-.377-1.839-.469-1.18-.173-2.37-.276-3.674-.423.082.41.095.636.172.84.348.932.688 1.869 1.087 2.78.157.358.13.544-.174.796-.662.548-1.32 1.112-1.908 1.737-.743.792-1.416 1.653-2.118 2.482.25.099.382.079.506.038 1.568-.516 3.138-1.024 4.698-1.56.503-.173.75-.003 1.034.427.894 1.357 1.856 2.67 2.78 4.008.067.097.121.227.137.35l.465-.123c.695-1.911 1.388-3.824 2.133-5.715.094-.236.485-.487.752-.502 2.305-.13 4.612-.23 6.92-.28.409-.01.918.143 1.22.406 1.639 1.424 3.222 2.914 4.838 4.365.342.307.277.549.037.863-1.037 1.344-2.062 2.7-3.091 4.05-.133.174-.259.352-.467.636 1.168-.216 2.2-.432 3.239-.592a55.841 55.841 0 0 1 3.435-.434c.225-.02.571.15.698.34 1.293 1.94 2.543 3.908 3.83 5.853.269.406.305.749.102 1.19a735.614 735.614 0 0 0-3.047 6.735c-.16.356-.377.48-.785.466-2.127-.074-4.254-.101-6.381-.172-.263-.009-.597-.069-.793-.222l-.166.243c.208.059.415.2.574.351 1.451 1.391 2.88 2.807 4.343 4.187.272.257.373.402.181.777a41.082 41.082 0 0 1-6.558 9.372c-.225.242-.633.405-.971.434-.742.065-1.493.019-2.239.019V128.418c-.204 0-.408-.007-.61 0-1.79.077-3.354-.5-4.8-1.539-.787-.565-1.658-1.018-2.507-1.491a.743.743 0 0 1-.375-.758c.317-2.143.61-4.288.915-6.431a.723.723 0 0 1 .1-.278l.04-.064-.475-.113c.001.211-.098.488-.236.598a194.15 194.15 0 0 1-4.764 3.71c-.145.111-.525.098-.676-.015a278.57 278.57 0 0 1-5.2-4.032c-.232-.184-.415-.483-.519-.767a108.532 108.532 0 0 1-1.486-4.289c-.087-.269-.034-.678.12-.912 1.218-1.83 2.86-3.256 4.532-4.647a.893.893 0 0 1 .171-.106l-.193-.431c-.818.203-1.663.301-2.553.301-1.091 0-2.182.246-3.316.387-.098-.76-.163-1.481-.287-2.189-.457-2.589-.446-5.182-.071-7.776.036-.25.131-.557.31-.713 1.221-1.077 2.472-2.12 3.716-3.174.161-.137.337-.26.654-.506h-3.877l1.348-4.932c-3.695 1.633-9.677 12.082-8.717 14.703l3.541-3.399 2.396 2.972c-.808 1.829-1.578 3.509-2.284 5.218-.174.42-.334.658-.805.757-1.286.267-2.543.639-3.7 1.444.18.232.309.479.506.643.644.534 1.294 1.065 1.98 1.54.308.211.462.581.409.95-.25 1.74-.45 3.49-.602 5.242-.069.817.31 1.506.886 2.089l3.146-5.083c1.464.871 2.822 1.677 4.176 2.492.107.065.2.191.252.309.775 1.734 1.537 3.476 2.316 5.207.178.394.098.64-.297.802-1.087.444-2.167.899-3.256 1.332-.12.049-.245.09-.372.123-.667.178-1.063.299-1.833.527 2.56 1.277 5.137 1.867 7.825 1.996.402.019.77.228 1.007.554a107.312 107.312 0 0 0 3.718 4.799c.275.336.789.475 1.322.778l-.307-5.678c1.813-.104 3.48-.204 5.15-.289a.546.546 0 0 1 .375.154c.941 1.026 1.87 2.062 2.914 3.22l-3.3 2.677c4.335 1.13 15.402-3.236 17.533-6.992l-6.763 1.061c0-1.713-.015-3.269.021-4.825.005-.167.275-.401.472-.475 1.776-.66 3.577-1.255 5.337-1.956.406-.162.864-.15 1.25.054 1.122.591 2.277 1.114 3.419 1.665.096-.065.118-.082.215-.147-.125-1.572-.267-3.142-.36-4.716-.015-.266.112-.621.299-.805 1.467-1.44 2.739-3.02 3.632-4.88.263-.548.459-1.128.71-1.752l-5.171 1.905v.005Z"/><path fill="#A61916" d="M79.593 107.205h11.532s-1.217 7.948-10.315 6.933c2.875-.609 4.904-3.721 4.904-3.721s-3.855.101-6.121-3.213v.001ZM85.68 105.751h6.053s-1.42-9.977-11.397-9.977c-2.13 0-6.46.745-8.522 3.618 3.517-2.063 11.77-2.976 13.867 6.359h-.002Z"/><path fill="#A61916" d="M91.733 108.795s-2.335 6.222-9.267 6.222c-6.932 0-8.996-4.497-8.996-7.812 0-3.314 2.491-6.443 6.257-6.443 1.082 0 2.165.186 3.077.762-.879-1.015-2.672-2.706-5.75-2.706-3.076 0-8.725 1.455-8.725 8.86 0 7.406 6.594 11.566 11.702 11.566 6.29 0 11.701-4.497 11.701-10.449Z"/></g><defs><clipPath id="a"><path fill="#fff" d="M25.996 2.28h109.427v156.942H25.996z"/></clipPath></defs></svg>