<svg xmlns="http://www.w3.org/2000/svg" width="589" height="844" fill="none"><g fill="#fff" clip-path="url(#a)"><path d="M204.542 590.138c-.832 1.254-1.11 3.462-.651 4.898 2.473 7.745 5.2 15.418 7.987 23.055.555 1.52 1.532 3.137 2.787 4.126a1517.457 1517.457 0 0 0 27.965 21.68c.809.616 2.847.676 3.632.085a1049.069 1049.069 0 0 0 25.625-19.943c.072-.06.132-.145.205-.217-22.368-6.358-44.639-26.192-44.639-56.981v-.459c-8.481 7.094-16.709 14.454-22.899 23.756h-.012ZM133.53 690.913l-4.186 3.595 14.936 17.433 4.186-3.595c3.209-2.751 5.007-5.55 5.369-8.397.374-2.847-.688-5.719-3.161-8.614-4.983-5.815-10.701-5.96-17.156-.422h.012ZM262.862 754.252c-7.564-1.207-12.004 2.401-13.343 10.785l-.869 5.454 22.682 3.607.868-5.453c.664-4.175.218-7.468-1.351-9.881-1.568-2.413-4.222-3.921-7.987-4.512Z"/><path d="m588.34 409.085-61.903-.7 22.174-124.084-48.813 35.144c2.847-38.896.712-97.445-27.35-148.575l-22.344-40.718-11.147 45.086c-3.945 15.949-8.252 26.807-12.053 34.13-8.674-25.203-20.642-66.391-20.642-101.8V78.227l-26.241 13.126c-6.563 3.281-13.15 7.106-19.677 11.437-6.551-22.21-21.499-51.335-54.845-80.422L277.147 0l-1.689 35.952c0 .592-1.267 59.08-48.295 99.955-10.315 8.964-19.339 17.663-26.988 26.023.193-2.497.495-4.717.917-6.611l8.505-50.538-38.751 33.503c-45.013 43.107-79.409 158.649-80.844 163.547l-1.074 3.643 3.173 25.047c-2.944-5.092-6.129-11.064-9.52-18.061L50.02 251.944l-1.882 128.415L0 351.814l48.524 97.012C29.775 486.672 20.28 527.438 20.28 570.05c0 150.94 122.806 273.745 273.745 273.745 150.94 0 273.745-122.805 273.745-273.745 0-38.305-7.746-75.295-23.043-110.041l43.613-50.936v.012ZM560.302 570.05c0 146.717-118.944 265.662-265.661 265.662-146.718 0-265.674-118.933-265.674-265.65 0-43.517 10.46-84.584 29.003-120.826L15.07 368.15l41.236 27.23V276.592l19.098 39.391c12.09 24.937 21.898 37.846 28.738 44.53l-6.889-54.387.592-2.015c1.423-4.814 35.228-118.389 78.685-160l23.96-22.935-7.191 32.382c-1.797 8.107-1.604 19.315-.603 30.233 8.144-11.232 20.667-25.118 39.861-41.791 50.225-43.638 51.082-105.36 51.082-105.987l.096-21.97 16.565 14.417c38.534 33.588 51.129 66.995 55.123 87.746 7.444-5.562 17.192-12.065 28.327-17.627l14.55-7.274v16.263c0 44.542 18 97.071 26.47 119.318 5.923-6.177 14.767-19.846 22.15-49.706l6.177-24.998 12.391 22.573c31.814 57.958 29.16 126.014 24.563 162.256l49.115-37.05-22.428 116.676 8.168-.144 49.295-.676-38.582 42.31c15.829 34.022 24.684 71.941 24.684 111.923Z"/><path d="m551.145 426.18-26.072.35-16.998.302a183.738 183.738 0 0 0-2.775-4.018l19.038-99.098-48.488 36.58s24.31-101.439-19.195-180.715c-14.827 59.949-36.833 62.096-36.833 62.096s-31.597-73.316-31.597-134.122c-23.839 11.92-41.2 28.618-41.2 28.618s4.765-49.477-53.35-100.136c0 0 0 66.162-54.543 113.551-54.544 47.39-51.19 68.841-51.19 68.841s-9.833-42.914-4.476-67.055c-42.021 40.235-75.995 155.572-75.995 155.572l8.94 70.638s-19.557 5.731-50.068-57.222v76.9l16.746 26.795a39.11 39.11 0 0 0-.507.736l-45.749-30.21 30.656 55.111c-19.074 35.916-29.896 76.875-29.896 120.368 0 141.952 115.072 257.023 257.023 257.023 141.952 0 257.024-115.071 257.024-257.023 0-41.261-9.737-80.241-27.025-114.806l26.506-29.076h.024ZM430.668 293.362c4.85.748 40.851 3.209 28.823-90.846 0 0 9.036 21.716 12.571 56.993 3.667 36.688.555 74.679-15.443 107.905-6.454 13.404-13.645 19.629-13.645 19.629s4.476-3.885 13.03-33.069c3.619-12.342 5.586-29.208 5.586-29.208l-19.316 21.137s23.02-34.191 21.186-74.644c-7.142 25.179-29.088 22.718-32.792 22.103-.35-.049-.543-.097-.543-.097s.193.036.543.097Zm-50.767-167.625c0 28.11-1.762 55.629 28.11 122.383-12.438-18.001-23.876-50.515-30.318-70.868-2.582-8.155-4.488-16.492-6.117-24.901-1.218-6.31-4.222-11.16-15.997 3.366 0 0 1.471-14.755 24.31-29.98h.012Zm-.193 229.311c5.67 10.074 11.015 20.847 14.96 29.184 4.271 9.012 5.417 19.979 3.136 30.173l-3.691 16.456 1.532-23.296c.41-6.189-.676-12.391-3.089-17.735l-1.616-3.559-5.888 27.616.567-36.749s-1.677 10.798-30.016 34.939c0 0 30.294-26.53 24.129-57.029h-.024ZM287.136 147.26c-8.131 124.639 60.818 198.691 60.818 198.691s-60.818-56.559-60.818-89.869c-6.515 23.224 0 74.378 0 74.378s-18.977-77.478-18.977-123.963c-24.021 19.363-35.639 79.023-35.639 79.023s-2.328-66.633 54.616-138.26Zm-93.319 163.921c-4.741 73.075 36.604 56.076 36.604 56.076s-22.971 10.219-30.523-1.351c-1.641 23.224 20.473 31.368 20.473 31.368l-18.543-2.667 11.316 26.928-.349-.277c-15.057-12.354-23.707-30.849-23.719-50.321-.012-28.171 4.741-59.756 4.741-59.756Zm-21.764-131.455c-31.187 72.978-18.158 104.684-5.164 115.747-8.578-5.875-17.663-16.77-17.663-35.072-14.067 42.226 0 85.285 0 85.285s-20.22-16.01-19.592-32.225c-8.964 19.448-.097 67.827.253 69.444-.338-1.158-11.377-42.6-11.377-75.476 0-27.061 53.543-127.703 53.543-127.703ZM73.968 593.142l7.468-8.192c2.268-2.485 3.655-5.671 3.836-9.037 0-.12 0-.253.012-.374.121-3.836-1.339-7.552-3.957-10.363l-7.492-8.071 8.964 8.324c.88.821 1.894 1.496 3.004 1.955a15.71 15.71 0 0 0 11.884.036h.024c1.134-.458 2.171-1.146 3.076-1.979l8.964-8.324-7.287 7.842c-3.92 4.21-5.2 10.291-3.16 15.672.048.108.084.229.132.338.302.747.676 1.483 1.098 2.195l9.133 9.953-8.12-7.636c-2.545-2.401-5.875-3.825-9.374-3.909h-.338c-3.643 0-7.13 1.435-9.784 3.945l-8.071 7.649-.012-.024Zm25.745 84.186c-2.268-.543-4.403-1.798-6.394-3.776-1.99-1.979-3.716-4.536-5.151-7.685-1.726-3.764-2.715-7.589-2.98-11.474-.266-3.872.229-7.564 1.46-11.063.313-.844.832-1.423 1.568-1.761.845-.386 1.834-.374 2.956.048.893.338 1.508.869 1.846 1.593.35.772.326 1.894-.06 3.378-.833 2.569-1.123 5.296-.893 8.191a24.68 24.68 0 0 0 2.16 8.325c1.157 2.546 2.497 4.319 4.017 5.345 1.52 1.025 3.064 1.182 4.645.458 1.652-.76 2.642-2.135 2.955-4.138.314-2.003.037-5.043-.844-9.097-1.388-6.394-1.641-11.377-.772-14.96.868-3.583 2.943-6.129 6.213-7.613 2.075-.953 4.247-1.109 6.515-.47s4.415 1.991 6.454 4.054c2.039 2.063 3.789 4.693 5.248 7.89 1.641 3.571 2.51 7.021 2.606 10.351.097 3.33-.567 6.201-2.014 8.626-.58.869-1.159 1.436-1.738 1.701-.977.399-2.027.302-3.137-.313-.579-.338-1.013-.845-1.315-1.496-.542-1.195-.53-2.389.037-3.571.832-1.726 1.206-3.704 1.134-5.924-.085-2.22-.628-4.416-1.629-6.611-1.255-2.727-2.63-4.669-4.15-5.803-1.52-1.147-3.016-1.376-4.476-.712-1.46.663-2.329 1.954-2.594 3.872-.265 1.907.012 4.887.844 8.928.881 4.476 1.279 8.228 1.195 11.244-.085 3.017-.7 5.466-1.834 7.36-1.134 1.894-2.859 3.366-5.164 4.415-2.195 1.002-4.427 1.231-6.695.688h-.013Zm37.256 51.998c-.905.772-1.858 1.086-2.859.953-1.014-.132-1.931-.687-2.751-1.652-.821-.966-1.231-1.967-1.207-3.017.025-1.049.471-1.942 1.327-2.69l7.855-6.732-14.936-17.433-7.854 6.732c-.869.748-1.822 1.037-2.86.905-1.037-.145-1.966-.688-2.799-1.653-.82-.965-1.23-1.955-1.206-2.968.012-1.014.482-1.918 1.375-2.678l16.866-14.442c4.657-3.993 9.447-5.779 14.357-5.368 4.911.41 9.411 2.992 13.488 7.745 2.667 3.113 4.38 6.322 5.152 9.615.76 3.294.543 6.515-.676 9.64-1.218 3.125-3.354 5.996-6.406 8.614l-16.854 14.441-.012-.012Zm47.86-10.339-23.019 30.318c-.712.941-1.605 1.436-2.642 1.496-1.05.048-2.063-.289-3.041-1.037-1.013-.772-1.616-1.653-1.809-2.655-.193-1.001.06-1.966.784-2.907l23.019-30.318c.712-.941 1.581-1.46 2.594-1.532 1.013-.073 2.027.265 3.04 1.037.977.748 1.581 1.629 1.81 2.654.229 1.026-.012 2.015-.724 2.956l-.012-.012Zm48.837 26.337-2.799 6.044c-2.364 5.103-5.586 8.663-9.639 10.665-4.054 2.015-8.542 2.293-13.464.845l-4.73 10.182c-.482 1.038-1.218 1.701-2.232 2.003-1.001.302-2.075.193-3.233-.35-1.146-.531-1.93-1.267-2.34-2.208-.411-.929-.362-1.942.144-3.016l4.73-10.182c-4.319-2.848-7.034-6.455-8.12-10.834-1.098-4.38-.446-9.133 1.943-14.273l2.799-6.044c.494-1.074 1.23-1.761 2.207-2.051.978-.29 2.039-.169 3.185.362 1.147.531 1.931 1.279 2.353 2.244.41.965.386 1.967-.096 3.004l-2.884 6.213c-1.846 3.994-2.34 7.48-1.472 10.472.869 2.992 3.053 5.297 6.539 6.913 3.487 1.617 6.66 1.798 9.507.531 2.847-1.267 5.2-3.897 7.046-7.878l2.883-6.213c.483-1.038 1.219-1.701 2.232-2.015 1.002-.302 2.075-.193 3.233.35 1.147.531 1.931 1.267 2.341 2.196.41.941.362 1.942-.145 3.016l.012.024Zm46.847 24.829-3.487 21.921c-.181 1.17-.712 2.027-1.568 2.582-.857.543-1.918.724-3.161.531-1.255-.205-2.208-.712-2.871-1.52-.664-.809-.905-1.786-.724-2.908l1.616-10.207-22.681-3.607-1.617 10.219c-.181 1.122-.711 1.978-1.592 2.545-.881.567-1.955.748-3.209.555-1.255-.193-2.208-.687-2.848-1.484-.651-.784-.88-1.761-.687-2.931l3.486-21.922c.966-6.056 3.451-10.52 7.456-13.391 4.006-2.872 9.109-3.825 15.286-2.835 4.054.639 7.432 1.978 10.158 3.993 2.715 2.015 4.633 4.609 5.731 7.782 1.098 3.173 1.339 6.744.712 10.713v-.036Zm58.006 20.461c-.675.76-1.641 1.219-2.895 1.376-1.255.156-2.317-.073-3.185-.664-.857-.591-1.364-1.46-1.496-2.594l-2.932-23.924c-.434-3.571-1.737-6.177-3.897-7.83-2.159-1.653-5.091-2.256-8.783-1.797-3.692.458-6.394 1.737-8.095 3.86-1.701 2.124-2.329 4.971-1.894 8.542l2.931 23.924c.133 1.134-.132 2.099-.832 2.883-.688.785-1.665 1.255-2.932 1.412-1.254.157-2.304-.06-3.149-.639-.832-.58-1.327-1.46-1.471-2.631l-2.908-23.743c-.688-5.585.519-10.158 3.619-13.741 3.101-3.571 7.734-5.743 13.911-6.491 6.165-.748 11.184.229 15.056 2.956 3.873 2.727 6.141 6.877 6.829 12.463l2.907 23.743c.145 1.17-.12 2.147-.796 2.907l.012-.012Zm56.209-25.203c-.603 2.256-1.906 4.356-3.933 6.298-2.027 1.942-4.633 3.595-7.818 4.959-3.812 1.628-7.661 2.521-11.546 2.678-3.884.169-7.564-.422-11.015-1.749-.832-.338-1.411-.869-1.725-1.617-.362-.857-.326-1.834.121-2.944.362-.881.905-1.484 1.641-1.809.784-.326 1.906-.278 3.378.144 2.545.893 5.26 1.267 8.155 1.11a24.523 24.523 0 0 0 8.373-1.954c2.57-1.098 4.38-2.389 5.453-3.873 1.062-1.484 1.255-3.028.579-4.621-.711-1.677-2.075-2.69-4.065-3.064-1.991-.362-5.031-.157-9.121.615-6.418 1.219-11.413 1.351-14.972.386-3.559-.965-6.045-3.1-7.456-6.406-.893-2.099-1.002-4.271-.302-6.527.7-2.256 2.099-4.367 4.223-6.346 2.123-1.978 4.789-3.668 8.023-5.043 3.619-1.544 7.094-2.316 10.411-2.34 3.33-.012 6.19.736 8.578 2.232.857.603 1.412 1.194 1.653 1.773.374.989.242 2.027-.386 3.125a3.25 3.25 0 0 1-1.532 1.267c-1.206.518-2.401.47-3.571-.133-1.713-.881-3.668-1.303-5.888-1.279-2.22.024-4.439.519-6.647 1.46-2.763 1.182-4.73 2.509-5.912 4.005-1.182 1.496-1.448 2.98-.82 4.452.627 1.484 1.894 2.377 3.8 2.69 1.906.314 4.886.109 8.952-.603 4.5-.772 8.252-1.074 11.268-.917 3.016.169 5.453.833 7.311 2.015 1.858 1.182 3.294 2.944 4.283 5.272.941 2.22 1.122 4.452.519 6.708l-.012.036Zm-100.087-46.255c-82.22 0-149.118-66.898-149.118-149.118 0-14.043 1.954-27.64 5.598-40.537l-49.827-30.945-42.926-76.128 58.948 36.302-39.33-62.458-6.66-51.841 11.714 48.596 57.97 86.949-53.325-22.114 17.204 37.34 46.545 33.237c18.049-62.048 75.416-107.531 143.207-107.531 67.79 0 123.637 44.277 142.47 105.058l16.046-11.811 65.691-72.978-40.018.591 3.861-14.574 14.803-63.46-72.894 73.304 50.852-61.288 36.194-31.331-18.64 77.177-3.221 13.21 46.689-2.075-80.651 83.149-18.278 11.594a148.76 148.76 0 0 1 6.189 42.54c0 82.22-66.898 149.118-149.118 149.118l.025.024Zm151.277 11.063c.82.796 1.206 1.713 1.158 2.763-.048 1.049-.507 2.027-1.399 2.932-.881.904-1.834 1.399-2.848 1.471-1.013.073-1.942-.301-2.799-1.134l-22.814-22.222c-2.123-2.064-3.173-4.283-3.161-6.66.013-2.377 1.086-4.657 3.21-6.841l13.765-14.127c.881-.905 1.774-1.412 2.654-1.496.881-.085 1.702.241 2.462.977.724.712 1.049 1.508.977 2.413-.085.893-.543 1.785-1.4 2.666l-12.752 13.09c-.591.603-.856 1.279-.808 2.003.048.736.434 1.435 1.122 2.111l6.768 6.599 11.292-11.582c.881-.904 1.774-1.411 2.655-1.496.88-.084 1.701.242 2.461.978.724.711 1.049 1.508.977 2.413-.072.892-.543 1.785-1.399 2.666l-11.293 11.582 11.184 10.894h-.012Zm22.15-19.725c-.929 1.158-2.051 1.821-3.39 2.002-1.339.181-2.509-.144-3.535-.965-1.085-.869-1.701-1.979-1.833-3.342-.133-1.351.265-2.606 1.182-3.764.929-1.158 2.063-1.797 3.414-1.93s2.558.217 3.62 1.061c1.025.821 1.604 1.895 1.737 3.21.133 1.327-.266 2.569-1.195 3.716v.012Zm25.662-42.251c-.507 3.572-1.786 7.179-3.837 10.834-2.34 4.163-5.163 7.336-8.481 9.495-3.306 2.172-6.913 3.221-10.81 3.161-3.897-.06-7.89-1.243-11.98-3.547-4.09-2.304-7.179-5.115-9.266-8.421-2.087-3.318-3.076-6.937-2.968-10.882.109-3.945 1.328-7.975 3.644-12.101 1.93-3.426 4.307-6.261 7.118-8.505 2.823-2.244 5.598-3.523 8.337-3.825.832-.108 1.568 0 2.195.362.917.519 1.472 1.484 1.653 2.896.085.627-.06 1.278-.434 1.942a4.923 4.923 0 0 1-1.291 1.46 4.18 4.18 0 0 1-1.798.808c-2.147.447-4.005 1.315-5.586 2.606-1.58 1.291-3.04 3.137-4.391 5.538-2.256 4.017-2.787 7.854-1.556 11.497 1.218 3.644 4.065 6.732 8.517 9.242 4.428 2.485 8.506 3.293 12.246 2.425 3.74-.881 6.756-3.342 9.036-7.396 2.618-4.645 3.342-9.109 2.16-13.416-.423-1.749-.374-3.1.169-4.053.374-.664.941-1.147 1.689-1.448 1.218-.434 2.268-.398 3.148.096.664.374 1.171.978 1.533 1.81 1.134 2.727 1.447 5.875.941 9.447l.012-.025Zm10.062-21.257c-.507 1.387-1.364 2.389-2.57 2.98-1.207.591-2.425.663-3.656.217-1.315-.483-2.244-1.339-2.811-2.57-.567-1.243-.591-2.558-.084-3.945.506-1.387 1.375-2.365 2.618-2.932 1.242-.567 2.497-.615 3.764-.145 1.231.447 2.123 1.279 2.666 2.498.543 1.218.567 2.509.061 3.909l.012-.012Zm2.714-66.379c.048.108.085.229.133.337a16.07 16.07 0 0 0 1.098 2.196l9.133 9.953-8.12-7.637c-2.546-2.4-5.875-3.824-9.374-3.908h-.338c-3.643 0-7.13 1.435-9.784 3.945l-8.071 7.649 7.468-8.192c2.268-2.485 3.655-5.671 3.836-9.037 0-.12 0-.253.012-.374.121-3.836-1.339-7.552-3.957-10.363l-7.492-8.071 8.964 8.324a10.078 10.078 0 0 0 3.004 1.955 15.711 15.711 0 0 0 11.884.036h.024c1.134-.458 2.171-1.146 3.076-1.979l8.964-8.324-7.287 7.842c-3.921 4.21-5.2 10.291-3.161 15.672l-.012-.024Z"/><path d="M266.277 446.135c3.691 1.267 6.828.893 10.387-.917 12.089-6.177 24.721-10.93 38.341-12.39 2.824-.302 5.707-.048 9.194-.048a38694.96 38694.96 0 0 1-26.265 21.957c3.028 1.243 5.586 2.184 8.059 3.306 7.299 3.318 14.514 6.865 21.909 9.953 2.232.941 4.959.784 7.468.989 10.509.869 20.691 3.149 30.403 7.263 2.956 1.255 4.5.603 5.538-2.256 1.628-4.452 3.342-8.879 5.031-13.319.458-1.219.929-2.437 1.399-3.668.314-.072.627-.157.941-.241-23.477-17.445-52.553-27.773-84.054-27.773-20.606 0-40.187 4.428-57.837 12.366 6.949.773 13.307 1.328 19.605 2.257 3.354.482 6.672 1.399 9.881 2.497v.024ZM379.02 457.041c2.654 5.622 5.513 11.172 7.83 16.927 1.532 3.8 2.582 7.89 3.197 11.944.507 3.318 2.232 5.019 4.934 6.551 12.198 6.901 21.849 16.54 30.186 28.581a31736.89 31736.89 0 0 0-24.938-2.341c.567 7.915 1.75 15.31 1.484 22.645-.543 14.864 4.211 29.124 4.283 43.879v7.348c9.531-3.511 18.314-6.744 27.809-10.243-1.351 3.366-2.401 6.478-3.824 9.422-4.802 10.002-11.643 18.495-19.533 26.241-1.013.989-1.689 2.895-1.604 4.331.494 8.457 1.254 16.902 1.93 25.359l-1.098.809c-6.189-2.992-12.463-5.827-18.543-9.037-2.51-1.315-4.331-1.146-6.961-.096-9.35 3.716-18.918 6.877-28.352 10.388-1.05.386-2.51 1.652-2.534 2.545-.193 8.361-.12 16.722-.12 25.939 12.595-1.979 24.249-3.8 36.362-5.695-1.013 1.774-2.401 3.584-4.09 5.381 30.693-25.866 50.189-64.593 50.189-107.869 0-46.243-22.259-87.287-56.643-113.009h.036ZM297.307 678.354c-.435-.471-1.303-.785-1.955-.748-8.964.458-17.94.989-27.688 1.556.519 9.676 1.026 19.074 1.605 29.655a141.619 141.619 0 0 0 25.359 2.28c1.967 0 3.909-.048 5.852-.133-1.87-.157-3.62-.422-5.188-.832 6.274-5.092 12.475-10.123 17.747-14.393-5.634-6.238-10.653-11.836-15.732-17.373v-.012Z"/><path d="M399.24 552.87c-6.925-10.448-13.633-21.028-20.582-31.464-.688-1.026-2.545-1.943-3.752-1.834-6.177.567-12.342 1.375-18.471 2.328-5.248.821-10.472 1.883-16.287 2.98l-.627-.482c.832-1.134 1.411-1.943 2.002-2.727 5.526-7.263 11.039-14.55 16.613-21.776 1.303-1.689 1.641-2.992-.193-4.633-8.698-7.806-17.204-15.805-26.011-23.466-1.629-1.411-4.355-2.232-6.551-2.183-12.414.277-24.817.808-37.207 1.508-1.436.084-3.547 1.423-4.042 2.702-4.09 10.364-7.878 20.848-11.69 31.332a1.822 1.822 0 0 0-.085.47l-2.244.857c.024-.157.037-.314.061-.458.096-.821-.254-1.846-.748-2.546-4.971-7.191-10.147-14.248-14.948-21.547-1.52-2.317-2.848-3.222-5.55-2.293-8.397 2.884-16.83 5.61-25.263 8.385-.676.217-1.376.326-2.727-.205 3.776-4.464 7.384-9.084 11.389-13.343 3.161-3.366 6.696-6.382 10.255-9.338 1.629-1.351 1.774-2.353.929-4.283-2.148-4.898-3.969-9.929-5.839-14.948-.41-1.098-.483-2.304-.917-4.488-49.03 22.09-83.161 71.386-83.161 128.644 0 68.286 48.524 125.218 112.96 138.236-1.785-.845-3.354-1.581-4.343-2.787a581.174 581.174 0 0 1-19.858-25.625c-1.544-2.124-2.835-3.028-5.441-3.149-14.478-.676-28.376-3.849-42.178-10.737 2.425-.712 4.15-1.231 5.9-1.738 1.87-.543 3.812-.905 5.61-1.616 5.984-2.365 11.907-4.875 17.855-7.299 2.123-.869 2.558-2.184 1.605-4.308-4.199-9.313-8.289-18.675-12.451-28.001-.277-.64-.772-1.303-1.351-1.653-7.275-4.392-14.574-8.711-22.44-13.404l-16.915 27.338c-3.1-3.136-5.139-6.84-4.765-11.232a503.842 503.842 0 0 1 3.185-27.881c.362-2.57-.024-3.957-2.148-5.417-3.691-2.546-7.178-5.417-10.653-8.276-1.061-.881-1.761-2.208-2.726-3.463 6.213-4.331 12.981-6.322 19.894-7.769 2.534-.531 3.402-1.81 4.331-4.066 3.789-9.181 7.939-18.218 12.282-28.05-3.499-4.331-7.806-9.688-12.885-15.974-6.623 6.37-13.102 12.584-19.038 18.278-5.163-14.091 27.001-70.276 46.859-79.059-2.365 8.65-4.729 17.313-7.239 26.518h20.836c-1.713 1.315-2.642 1.979-3.523 2.715-6.684 5.658-13.416 11.28-19.979 17.071-.953.844-1.472 2.485-1.665 3.836-2.015 13.947-2.075 27.882.374 41.804.676 3.813 1.014 7.685 1.544 11.775 6.093-.76 11.956-2.087 17.832-2.075 4.343 0 8.481-.434 12.499-1.339 2.039-34.312 29.377-41.213 44.542-41.213 15.165 0 24.925 8.651 29.425 13.85-4.669-2.943-10.218-3.896-15.756-3.896-19.279 0-32.019 16.009-32.019 32.972s10.556 39.994 46.05 39.994 47.438-31.85 47.438-31.85c0 30.463-27.7 53.494-59.9 53.494-4.235 0-8.675-.567-13.127-1.665-1.58 11.148-3.112 22.295-4.765 33.431-.29 1.99.241 3.112 2.015 4.09 4.572 2.545 9.253 4.97 13.488 8.011 7.769 5.585 16.178 8.686 25.806 8.276 1.098-.048 2.196 0 3.281 0v.398c4.018 0 8.059.241 12.041-.109 1.822-.156 4.005-1.037 5.224-2.328 14.103-15.141 25.842-31.947 35.252-50.382 1.026-2.014.483-2.799-.977-4.174-7.323-6.913-14.489-13.995-21.752-20.98l.784-3.559c.096 0 .193.012.277.012 11.438.386 22.875.531 34.312.929 2.196.072 3.366-.591 4.223-2.51 5.417-12.088 10.846-24.177 16.383-36.205 1.098-2.377.893-4.223-.555-6.407l-.012-.024Zm-107.929 47.028c14.719-3.113 25.106-19.038 25.106-19.038s-19.738.519-31.332-16.444h59.032s-6.237 40.682-52.794 35.482h-.012Zm24.925-42.926c-10.737-47.775-52.975-43.107-70.976-32.55 10.557-14.719 32.719-18.519 43.626-18.519 51.069 0 58.332 51.069 58.332 51.069h-30.982Z"/></g><defs><clipPath id="a"><path fill="#fff" d="M0 0h588.34v843.807H0z"/></clipPath></defs></svg>
