<svg xmlns="http://www.w3.org/2000/svg" width="543" height="618" fill="none"><g fill="#fff" clip-path="url(#a)"><path d="m516.531 58.63-1.401-5.517-5.213-2.271C432.279 17.115 351.952 0 271.159 0c-80.794 0-161.12 17.115-238.733 50.854l-5.213 2.272-1.401 5.516C9.87 121.348.227 183.978 0 226.174c-.215 42.927 6.008 84.82 18.504 124.491 12.08 38.345 30.065 74.709 53.48 108.082 22.959 32.754 51.232 62.757 84.011 89.162 34.938 28.248 76.313 53.719 110.683 68.121l4.481 1.881 4.48-1.881c34.358-14.402 75.733-39.873 110.658-68.108 32.792-26.418 61.065-56.421 84.037-89.175 23.401-33.373 41.4-69.737 53.479-108.082 12.496-39.671 18.719-81.551 18.504-124.491-.227-42.183-9.87-104.826-25.799-167.545h.013ZM183.6 519.37a397.607 397.607 0 0 1-66.405-85.439C98.78 402.087 84.58 367.301 75.063 330.659c-9.87-37.992-14.755-78.029-14.591-119.051.164-36.793 6.765-93.756 19.072-154.493a591.327 591.327 0 0 1 44.682-14.074c-1.111 10.06-2.562 23.805-3.446 33.31 1.553 2.65 3.156 5.175 5.137 7.598 2.386-2.032 4.418-4.216 6.437-6.513.947-10.098 2.512-24.992 3.648-35.114 0 0 .164-1.401.278-2.436 44.543-11.095 89.641-16.7 134.866-16.7 45.225 0 90.323 5.592 134.866 16.7a2287.524 2287.524 0 0 1 3.257 30.52l.34 3.508c.026.581.253 2.083.202 2.638-.05.303-.151.606.064.884.467.543.959 1.098 1.438 1.64 1.591 1.718 3.232 3.358 5.062 4.86 1.54-1.805 2.852-3.723 4.102-5.717a74.5 74.5 0 0 0 1.111-1.894c.151-.315 0-.593-.101-.883-.152-.543-.227-2.083-.29-2.65l-.341-3.535a2794.838 2794.838 0 0 0-2.765-26.229 597.294 597.294 0 0 1 44.682 14.087c12.307 60.737 18.908 117.7 19.072 154.493.164 41.034-4.72 81.059-14.591 119.051-9.517 36.642-23.717 71.428-42.132 103.273a398.044 398.044 0 0 1-66.404 85.439c-24.399 23.918-57.431 50.084-87.559 65.407-30.129-15.323-63.161-41.489-87.559-65.407Zm-92.633-73.94c-22.038-31.429-38.977-65.66-50.337-101.734-11.764-37.373-17.633-76.88-17.43-117.397.201-38.598 9.239-98.086 23.69-156.412A607.813 607.813 0 0 1 73.17 59.45C60.674 120.54 53.96 177.73 53.795 214.776c-.177 41.64 4.872 82.283 15.045 120.843 9.82 37.197 24.474 72.489 43.471 104.826 18.693 31.808 41.728 60.977 68.512 86.726 22.038 21.255 50.905 44.265 78.61 60.093-28.778-14.111-60.901-34.786-88.872-57.392-31.1-25.055-57.884-53.467-79.594-84.429v-.012ZM501.7 343.685c-11.36 36.086-28.299 70.304-50.337 101.746-21.71 30.962-48.494 59.374-79.607 84.441-27.945 22.593-60.068 43.268-88.846 57.38 27.705-15.828 56.572-38.838 78.61-60.094 26.784-25.749 49.819-54.918 68.512-86.726 18.996-32.324 33.65-67.628 43.47-104.825 10.174-38.561 15.222-79.191 15.046-120.843-.165-37.046-6.879-94.236-19.375-155.327a621.112 621.112 0 0 1 26.279 10.439c14.452 58.338 23.489 117.826 23.691 156.411.202 40.53-5.667 80.024-17.431 117.398h-.012Z"/><path d="M441.379 329.662c2.726-4.077-3.585 17.847-12.571 37.033-8.798 18.794-20.032 35.278-21.357 37.209a.334.334 0 0 1-.366.139c-2.07-.48-17.166-4.91-6.109-29.99 9.366-21.23-10.729-32.956-19.589-36.932-.379-.176-.19-.744.214-.656 6.766 1.414 20.486 3.951 30.52 3.572 13.834-.53 23.679-2.045 29.245-10.375h.013ZM279.287 196.474c-30.065 26.014-11.208 78.863 48.822 88.985a1.102 1.102 0 0 1 .682 1.755c-4.557 5.932-7.195 20.384.669 34.193 11.461 20.107 38.396 24.487 43.066 39.873 27.655 91.042-112.5 40.049-106.807 184.546.037 1.073-1.099 1.326-1.982.707-110.985-76.666-33.209-161.372 7.081-175.862 1.022-.366.959-1.818-.088-2.096-10.414-2.802-33.903-5.313-53.846 10.047-25.597 19.716-33.284 45.061-32.502 82.574.026.934-1.186 1.388-1.943.82-5.844-4.367-44.228-29.876-37.791-82.598 3.572-29.195 22.934-65.584 82.952-76.717.997-.189 1.224-1.502.354-2.032-9.757-5.895-43.016-9.605-75.316 12.104-30.558 20.536-35.809 60.611-36.919 71.706-.101 1.035-1.452 1.363-2.02.492-17.974-27.023-6.652-81.689 12.938-117.851 24.625-45.44 86.738-78.711 151.994-72.552.959.089 1.363 1.288.631 1.919l.025-.013Z"/><path d="M446.554 265.466c-2.991-2.31-16.383-12.685-23.527-19.867-6.98-7.018-14.907-16.333-26.494-25.547-4.569-3.635-2.726-10.06-12.559-19.943-9.832-9.883-15.739-14.452-21.886-20.637-3.004-3.016-4.153-8.646-4.544-13.606-.467-6.008-26.784-21.306-85.3-21.306-58.515 0-94.261 12.092-105.835 22.429-.493.442 0 1.225.605.959 8.369-3.748 23.086-9.239 41.653-8.254.455.025.505.681.063.77-9.529 1.855-46.146 8.141-69.421 39.948-17.305 23.654-23.893 39.33-25.724 46.323-.239.896.922 1.477 1.515.757 11.612-14.212 68.576-71.781 142.389-69.825 27.39.72 44.455 5.239 62.517 15.513.341.189.214.719-.189.719-6.097.038-23.503 1.288-29.574 21.47-6.26 20.764 3.698 41.148 36.97 52.735 9.454 3.156 20.99 5.137 31.252 4.834 1.124-.038 1.856 1.162 1.3 2.133-3.496 6.173-11.511 22.039-6.652 30.079 6.286 10.413 28.476 24.045 70.179 15.702 25.231-5.049 31.517-14.39 30.608-28.35-.505-7.724-18.769 1.881-28.955-7.85-1.805-1.73-4.758-13.556-2.903-12.597 13.279 3.143 28.766 6.109 34.976 3.597 2.411-1.123-7.712-8.028-10.476-10.161l.012-.025Zm-65.458-29.914c-7.447-4.594-30.154-17.873-50.033-22.038-.442-.088-.366-.732.076-.732 17.506.038 35.101.909 39.304 1.123.19 0 .493 2.562 3.711 9.265 3.219 6.702 7.132 12.496 6.942 12.382ZM352.836 83.596c-.101 0-.19.012-.291.012-6.121 0-11.082-4.607-11.082-10.3 0-4.038 2.512-7.535 6.16-9.213.517-.24.757-.82.492-1.3-1.174-2.146-3.13-3.85-5.528-4.772.05-.252.088-.505.088-.782 0-2.184-1.906-3.963-4.266-3.963-2.361 0-4.267 1.78-4.267 3.963v.139a.953.953 0 0 1-.568.908c-2.107.972-3.824 2.55-4.884 4.507-.265.48-.038 1.06.492 1.3 3.648 1.678 6.16 5.175 6.16 9.214 0 5.68-4.961 10.3-11.083 10.3-.101 0-.189 0-.29-.013-.05.467-.088.946-.088 1.438 0 1.843.896 5.706 2.247 10.464.176.644-.379 1.262-1.111 1.224a1305.1 1305.1 0 0 0-6.841-.366c-.682-.037-1.162-.63-.972-1.236 2.183-7.132 3.837-13.342 3.837-15.854 0-.48-.025-.96-.089-1.439-.1 0-.201.013-.29.013-6.122 0-11.082-4.607-11.082-10.3 0-4.039 2.512-7.535 6.16-9.214.517-.24.757-.82.492-1.3-1.174-2.146-3.13-3.85-5.529-4.77.051-.253.089-.506.089-.77 0-2.184-1.906-3.964-4.266-3.964-2.361 0-4.267 1.78-4.267 3.963v.139a.953.953 0 0 1-.568.909c-2.108.972-3.824 2.55-4.884 4.506-.266.48-.038 1.06.492 1.3 3.648 1.679 6.159 5.175 6.159 9.214 0 5.68-4.96 10.3-11.082 10.3-.101 0-.202 0-.29-.013-.051.467-.088.947-.088 1.439 0 2.41 1.514 8.204 3.559 14.957.189.631-.341 1.262-1.06 1.237-3.32-.088-6.652-.152-9.972-.202-.706 0-1.211-.618-1.022-1.237 2.524-8.217 4.418-15.374 4.418-18.277 0-.555-.038-1.11-.101-1.653-.114 0-.228.012-.341.012-7.056 0-12.786-5.313-12.786-11.877 0-4.708 2.953-8.772 7.232-10.69.53-.24.758-.821.505-1.3-1.325-2.513-3.585-4.507-6.361-5.605-.404-.164-.657-.53-.657-.934 0-2.196-1.906-3.963-4.266-3.963-2.36 0-4.266 1.78-4.266 3.963 0 .404-.253.783-.657.934-2.776 1.098-5.036 3.092-6.361 5.604-.252.48-.025 1.06.505 1.3 4.279 1.919 7.232 5.983 7.232 10.691 0 6.564-5.718 11.877-12.786 11.877-.113 0-.227 0-.341-.012a14.383 14.383 0 0 0-.101 1.653c0 2.89 1.906 10.047 4.418 18.277.189.618-.315 1.237-1.022 1.237-3.32.05-6.652.114-9.972.202-.719.013-1.262-.606-1.06-1.237 2.045-6.753 3.559-12.546 3.559-14.957 0-.48-.025-.96-.088-1.44-.101 0-.189.014-.29.014-6.122 0-11.082-4.607-11.082-10.3 0-4.039 2.511-7.535 6.159-9.214.518-.24.758-.82.492-1.3-1.06-1.944-2.776-3.534-4.884-4.506a.974.974 0 0 1-.568-.909v-.139c0-2.183-1.906-3.963-4.266-3.963-2.361 0-4.267 1.78-4.267 3.963 0 .265.026.53.089.77-2.399.934-4.368 2.638-5.529 4.771-.265.48-.038 1.06.492 1.3 3.648 1.679 6.16 5.175 6.16 9.214 0 5.68-4.96 10.3-11.082 10.3-.101 0-.202 0-.29-.013-.051.467-.089.947-.089 1.44 0 2.511 1.654 8.721 3.837 15.853.19.605-.29 1.199-.972 1.236-2.284.114-4.569.24-6.841.367-.732.037-1.287-.581-1.11-1.225 1.35-4.758 2.246-8.62 2.246-10.464 0-.48-.038-.959-.088-1.438-.101 0-.189.012-.29.012-6.122 0-11.083-4.607-11.083-10.3 0-4.038 2.512-7.535 6.16-9.213.518-.24.757-.82.492-1.3-1.06-1.944-2.777-3.535-4.884-4.507a.974.974 0 0 1-.568-.908v-.14c0-2.183-1.906-3.962-4.267-3.962-2.36 0-4.266 1.78-4.266 3.963 0 .265.025.53.088.782-2.398.934-4.367 2.638-5.528 4.771-.265.48-.038 1.06.492 1.3 3.648 1.68 6.16 5.176 6.16 9.215 0 5.68-4.961 10.3-11.082 10.3-.101 0-.202 0-.291-.013-.05.48-.075.959-.075 1.438v.96c0 24.045 9.239 42.132 9.239 42.132 36.048-7.144 83.596-7.598 144.989 0 0 0 9.239-18.1 9.239-42.132v-.96c0-.48-.038-.959-.075-1.438h.063ZM137.365 102.011c0-.341-.139-.631-.404-.858-.265-.227-.984-.379-2.133-.48v-.883h18.706v.883c-1.149.101-1.855.265-2.133.48a1.04 1.04 0 0 0-.404.858v19.88c0 3.269-.656 6.008-1.956 8.229-1.3 2.222-3.093 4.001-5.365 5.339-2.272 1.338-4.935 2.26-7.989 2.777-3.055.518-6.311.783-9.77.783-3.458 0-6.702-.265-9.769-.783-3.055-.517-5.718-1.451-7.99-2.777-2.272-1.338-4.052-3.117-5.364-5.339-1.3-2.221-1.957-4.973-1.957-8.229v-19.88c0-.341-.139-.631-.404-.858-.277-.227-.984-.379-2.133-.48v-.883h18.706v.883c-1.149.101-1.868.265-2.133.48a1.059 1.059 0 0 0-.404.858v19.88c0 2.865.997 4.922 2.991 6.159 1.995 1.237 4.809 1.856 8.445 1.856 3.635 0 6.449-.619 8.444-1.856 1.994-1.237 2.991-3.281 2.991-6.159v-19.88h.025ZM427.722 137.908c1.035-.101 1.666-.265 1.919-.48.252-.214.366-.504.366-.858v-27.289l-.164-.151-14.503 28.778-14.339-29.068h-.164v27.743c0 .341.126.631.366.858.24.227.884.379 1.919.48v.883h-14.339v-.883c1.035-.101 1.666-.265 1.919-.48.252-.215.366-.505.366-.858v-34.559c0-.341-.126-.631-.366-.859-.24-.227-.884-.378-1.919-.479v-.884h21.256v.884c-1.3.05-1.957.492-1.957 1.338 0 .05.164.441.493 1.186.328.745.744 1.654 1.262 2.739a204.685 204.685 0 0 0 1.716 3.522c.619 1.262 1.225 2.474 1.793 3.635.568 1.161 1.073 2.183 1.502 3.08.429.896.732 1.489.896 1.779a124.52 124.52 0 0 1 2.852-5.49 585.44 585.44 0 0 0 2.651-4.898 182.443 182.443 0 0 0 1.919-3.71c.492-.985.732-1.603.732-1.856 0-.846-.657-1.287-1.957-1.338v-.883h22.076v.883c-1.035.101-1.666.265-1.918.48-.253.214-.366.505-.366.858v34.559c0 .341.126.631.366.858.239.228.883.379 1.918.48v.884h-16.295v-.884Z"/></g><defs><clipPath id="a"><path fill="#fff" d="M0 0h542.33v617.911H0z"/></clipPath></defs></svg>
