<svg xmlns="http://www.w3.org/2000/svg" width="1001" height="1000" fill="none"><path fill="#73233E" d="M822.375 158.727c-98.07-42.63-206.02-68.75-322.62-68.75s-224.54 26.12-322.61 68.75c-22.61 89.01-34.77 173.34-35.05 227.01-.29 57.44 8.01 113.48 24.76 166.66 16.16 51.3 40.26 99.98 71.53 144.57 30.76 43.86 68.67 84.1 112.74 119.61 41.41 33.48 97.49 70.12 148.64 91.56 51.15-21.44 107.23-58.08 148.64-91.56 44.07-35.5 81.98-75.75 112.74-119.61 31.26-44.58 55.37-93.27 71.53-144.57 16.75-53.18 25.05-109.22 24.76-166.66-.28-53.67-12.44-138-35.05-227.01h-.01Z"/><path fill="#C4914F" d="M769.935 143.127c-82.13-42.59-172.53-68.69-270.18-68.69s-188.04 26.1-270.17 68.69c-18.94 88.941-29.12 173.191-29.36 226.821-.24 57.39 6.71 113.379 20.74 166.509 13.53 51.251 33.72 99.891 59.9 144.441 25.76 43.82 57.51 84.029 94.41 119.5 34.68 33.45 81.65 70.06 124.48 91.48 42.83-21.43 89.8-58.03 124.48-91.48 36.91-35.471 68.65-75.68 94.41-119.5 26.18-44.55 46.37-93.19 59.9-144.441 14.02-53.13 20.97-109.129 20.74-166.509-.24-53.63-10.42-137.88-29.35-226.821Z"/><path fill="#000" d="M761.625 142.107c-79.6-41.96-167.22-67.67-261.87-67.67s-182.26 25.71-261.86 67.67c-18.36 87.621-28.23 170.631-28.46 223.461-.23 56.54 6.5 111.699 20.1 164.049 13.12 50.49 32.68 98.42 58.06 142.31a548.457 548.457 0 0 0 91.51 117.74c33.62 32.961 79.14 69.021 120.65 90.13 41.52-21.109 87.04-57.169 120.65-90.13a548.457 548.457 0 0 0 91.51-117.74c25.38-43.89 44.94-91.81 58.06-142.31 13.59-52.35 20.33-107.509 20.1-164.049-.23-52.83-10.1-135.84-28.45-223.461Z"/><path fill="#C4914F" d="m499.755 925.46-6.18-2.59c-47.35-19.85-104.36-54.94-152.51-93.87-45.17-36.39-84.13-77.73-115.77-122.86-32.25-45.99-57.04-96.1-73.68-148.94-17.22-54.67-25.8-112.38-25.51-171.54.31-58.15 13.6-144.45 35.55-230.87l1.93-7.6 7.19-3.12C277.745 97.58 388.425 74 499.755 74c111.33 0 222.01 23.58 328.99 70.07l7.19 3.12 1.93 7.6c21.95 86.42 35.24 172.73 35.54 230.86.29 59.16-8.28 116.88-25.5 171.54-16.65 52.84-41.44 102.95-73.69 148.94-31.64 45.13-70.6 86.47-115.79 122.88-48.13 38.91-105.14 74-152.49 93.85l-6.18 2.59v.01Zm-309.03-755.17c-19.92 80.38-32.37 162.35-32.65 215.54-.28 55.84 7.81 110.27 24.02 161.77 15.66 49.71 39 96.88 69.37 140.19 29.92 42.67 66.82 81.81 109.68 116.34 43.86 35.46 95.15 67.47 138.62 86.61 43.47-19.15 94.76-51.15 138.6-86.6 42.88-34.54 79.78-73.69 109.7-116.36 30.37-43.31 53.71-90.48 69.37-140.19 16.22-51.5 24.3-105.93 24.02-161.78-.28-53.17-12.73-135.15-32.65-215.53-100.69-42.68-204.62-64.32-309.05-64.32s-208.36 21.64-309.03 64.33Z"/><path fill="#C4914F" d="M734.305 528.257c3.76-5.61-4.94 24.6-17.32 51.03-12.13 25.9-27.6 48.62-29.44 51.28a.46.46 0 0 1-.5.19c-2.85-.66-23.66-6.76-8.42-41.32 12.9-29.26-14.79-45.41-26.99-50.9-.52-.24-.27-1.03.3-.91 9.33 1.95 28.23 5.44 42.06 4.92 19.06-.73 32.63-2.82 40.3-14.29h.01ZM510.945 344.726c-41.44 35.85-15.45 108.66 67.27 122.61 1.12.19 1.64 1.51.94 2.41-6.28 8.17-9.92 28.09.93 47.12 15.79 27.71 52.91 33.74 59.35 54.94 38.11 125.46-155.02 55.19-147.18 254.29.06 1.49-1.51 1.83-2.73.98-152.92-105.65-45.75-222.37 9.76-242.34 1.4-.5 1.32-2.51-.12-2.89-14.34-3.85-46.72-7.32-74.19 13.84-35.27 27.17-45.86 62.1-44.79 113.79.03 1.29-1.64 1.91-2.68 1.14-8.05-6.02-60.95-41.17-52.07-113.82 4.92-40.23 31.61-90.37 114.31-105.72 1.38-.26 1.69-2.08.49-2.8-13.45-8.12-59.27-13.23-103.78 16.67-42.11 28.29-49.35 83.52-50.88 98.8-.14 1.42-1.99 1.88-2.78.69-24.76-37.24-9.17-112.56 17.83-162.39 33.92-62.61 119.52-108.46 209.43-99.96 1.33.13 1.88 1.78.88 2.65l.01-.01Z"/><path fill="#C4914F" d="M741.435 439.807c-4.12-3.179-22.58-17.48-32.42-27.38-9.62-9.67-20.53-22.5-36.51-35.21-6.3-5.01-3.75-13.86-17.3-27.48-13.55-13.62-21.68-19.919-30.15-28.439-4.13-4.16-5.72-11.911-6.25-18.761-.65-8.27-36.92-29.349-117.54-29.349s-129.89 16.66-145.83 30.91c-.68.6.02 1.689.84 1.319 11.52-5.16 31.81-12.729 57.4-11.369.63.03.7.939.08 1.059-13.13 2.56-63.6 11.22-95.66 55.04-23.85 32.59-32.93 54.201-35.45 63.831-.32 1.24 1.27 2.039 2.08 1.039 15.99-19.58 94.5-98.899 196.21-96.219 37.75 1 61.26 7.219 86.14 21.379.47.27.29.99-.25 1-8.4.05-32.38 1.78-40.76 29.59-8.62 28.61 5.09 56.71 50.95 72.66 13.03 4.34 28.93 7.07 43.06 6.671 1.54-.04 2.55 1.59 1.79 2.929-4.82 8.5-15.86 30.36-9.17 41.44 8.67 14.36 39.23 33.13 96.7 21.64 34.76-6.95 43.43-19.819 42.17-39.069-.69-10.65-25.87 2.59-39.89-10.821-2.49-2.38-6.56-18.69-4-17.36 18.3 4.33 39.63 8.421 48.19 4.961 3.32-1.55-10.63-11.06-14.44-14l.01-.011Zm-90.2-41.209c-10.26-6.33-41.54-24.641-68.95-30.361-.6-.13-.5-1.019.11-1.009 24.12.06 48.37 1.25 54.16 1.56.25.01.68 3.519 5.12 12.759s9.82 17.22 9.56 17.06v-.009ZM612.295 189.188c-.13 0-.27.02-.41.02-8.43 0-15.27-6.35-15.27-14.19 0-5.57 3.46-10.38 8.49-12.7.72-.33 1.03-1.13.68-1.79-1.61-2.95-4.32-5.3-7.62-6.58.07-.35.12-.7.12-1.07 0-3.01-2.63-5.46-5.88-5.46s-5.87 2.44-5.87 5.46v.2c.02.52-.26 1.02-.78 1.25-2.9 1.34-5.27 3.52-6.73 6.2-.36.66-.05 1.45.68 1.79 5.03 2.32 8.49 7.13 8.49 12.7 0 7.83-6.84 14.19-15.27 14.19-.14 0-.27-.01-.4-.02-.07.65-.12 1.31-.12 1.98 0 2.55 1.24 7.87 3.09 14.42.25.89-.52 1.74-1.53 1.69-3.14-.18-6.29-.35-9.43-.51-.94-.05-1.6-.88-1.34-1.7 3.01-9.82 5.29-18.38 5.29-21.84 0-.67-.04-1.33-.12-1.98-.14 0-.27.02-.41.02-8.43 0-15.27-6.35-15.27-14.19 0-5.57 3.46-10.38 8.49-12.7.72-.33 1.04-1.13.68-1.79-1.61-2.95-4.32-5.3-7.62-6.58.07-.35.12-.7.12-1.07 0-3.01-2.63-5.46-5.87-5.46s-5.88 2.44-5.88 5.46v.2c.02.52-.26 1.02-.78 1.25-2.9 1.34-5.27 3.52-6.73 6.2-.36.66-.05 1.46.68 1.79 5.03 2.32 8.49 7.13 8.49 12.7 0 7.83-6.84 14.19-15.27 14.19-.14 0-.27-.01-.41-.02-.08.65-.12 1.31-.12 1.98 0 3.31 2.09 11.3 4.91 20.6.27.87-.47 1.73-1.47 1.71-4.58-.12-9.16-.21-13.74-.28-.97-.01-1.66-.86-1.4-1.71 3.47-11.33 6.09-21.19 6.09-25.18 0-.77-.05-1.53-.14-2.28-.16 0-.31.02-.47.02-9.73 0-17.61-7.33-17.61-16.36 0-6.49 4.08-12.09 9.97-14.73.73-.33 1.05-1.12.7-1.79-1.82-3.45-4.94-6.2-8.76-7.72-.55-.22-.9-.73-.9-1.28 0-3.02-2.63-5.47-5.87-5.47s-5.87 2.44-5.87 5.46c0 .56-.34 1.07-.9 1.29-3.82 1.51-6.94 4.27-8.76 7.72-.35.67-.03 1.46.7 1.79 5.9 2.64 9.97 8.24 9.97 14.73 0 9.04-7.89 16.36-17.61 16.36-.16 0-.31-.02-.47-.02-.09.75-.14 1.51-.14 2.28 0 3.99 2.62 13.85 6.09 25.18.26.85-.43 1.7-1.4 1.71-4.58.07-9.16.16-13.74.28-.99.02-1.73-.83-1.47-1.71 2.82-9.3 4.91-17.29 4.91-20.6 0-.67-.04-1.33-.12-1.98-.14 0-.27.02-.41.02-8.43 0-15.27-6.35-15.27-14.19 0-5.57 3.46-10.38 8.49-12.7.72-.33 1.04-1.13.68-1.79-1.46-2.68-3.83-4.86-6.73-6.2-.51-.24-.8-.73-.78-1.25v-.2c0-3.01-2.63-5.46-5.88-5.46s-5.87 2.44-5.87 5.46c0 .37.04.72.12 1.07-3.3 1.28-6.01 3.63-7.62 6.58-.36.66-.05 1.46.68 1.79 5.03 2.32 8.49 7.13 8.49 12.7 0 7.83-6.84 14.19-15.27 14.19-.14 0-.27-.01-.41-.02-.08.65-.12 1.31-.12 1.98 0 3.46 2.27 12.02 5.29 21.84.25.83-.4 1.66-1.34 1.7-3.14.16-6.29.33-9.43.51-1.01.06-1.78-.8-1.53-1.69 1.85-6.55 3.09-11.87 3.09-14.42 0-.67-.05-1.33-.12-1.98-.13 0-.27.02-.4.02-8.43 0-15.27-6.35-15.27-14.19 0-5.57 3.46-10.38 8.49-12.7.72-.33 1.03-1.13.68-1.79-1.46-2.68-3.83-4.87-6.73-6.2-.51-.24-.8-.73-.78-1.25v-.2c0-3.01-2.63-5.46-5.87-5.46s-5.88 2.44-5.88 5.46c0 .37.04.72.12 1.07-3.3 1.28-6.01 3.63-7.62 6.58-.36.66-.05 1.45.68 1.79 5.03 2.32 8.49 7.13 8.49 12.7 0 7.83-6.84 14.19-15.27 14.19-.14 0-.27-.01-.41-.02-.06.66-.11 1.32-.11 1.98 0 .31.02.76.02 1.32 0 33.12 12.74 58.06 12.74 58.06 49.67-9.84 115.19-10.47 199.79 0 0 0 12.74-24.94 12.74-58.06 0-.56.02-1.01.02-1.32 0-.67-.05-1.33-.11-1.98h-.05ZM315.395 214.568c0-.48-.19-.87-.56-1.17-.37-.3-1.36-.53-2.94-.66v-1.23h25.78v1.23c-1.59.14-2.56.36-2.94.66-.38.31-.56.7-.56 1.17v27.39c0 4.5-.9 8.28-2.69 11.34-1.79 3.07-4.25 5.52-7.38 7.36-3.13 1.84-6.8 3.12-11.01 3.83s-8.7 1.07-13.45 1.07-9.24-.36-13.45-1.07c-4.21-.72-7.88-1.99-11.01-3.83s-5.59-4.29-7.38-7.36c-1.79-3.07-2.69-6.85-2.69-11.34v-27.39c0-.48-.19-.87-.56-1.17-.38-.31-1.36-.53-2.94-.66v-1.23h25.78v1.23c-1.59.14-2.57.36-2.94.66-.37.3-.56.7-.56 1.17v27.39c0 3.95 1.38 6.78 4.13 8.48 2.75 1.7 6.63 2.55 11.64 2.55 5.01 0 8.89-.85 11.64-2.55 2.75-1.7 4.13-4.53 4.13-8.48v-27.39h-.04ZM715.495 264.028c1.42-.14 2.3-.36 2.64-.66.34-.3.5-.7.5-1.18v-37.61l-.22-.2-19.98 39.65-19.75-40.06h-.22v38.22c0 .48.17.87.5 1.18.33.31 1.21.53 2.64.66v1.23h-19.75v-1.23c1.42-.14 2.3-.36 2.64-.66.34-.3.5-.7.5-1.18v-47.62c0-.48-.17-.87-.5-1.17-.33-.3-1.22-.53-2.64-.66v-1.23h29.29v1.23c-1.8.07-2.69.68-2.69 1.84 0 .07.22.61.67 1.64.45 1.02 1.03 2.28 1.74 3.78s1.5 3.12 2.36 4.85c.86 1.74 1.68 3.41 2.47 5.01.79 1.6 1.48 3.01 2.08 4.24.6 1.23 1.01 2.04 1.23 2.45 1.27-2.59 2.58-5.11 3.93-7.56 1.35-2.45 2.56-4.7 3.65-6.75 1.08-2.04 1.96-3.75 2.64-5.11.67-1.36 1.01-2.21 1.01-2.55 0-1.16-.9-1.77-2.69-1.84v-1.23h30.41v1.23c-1.42.14-2.3.36-2.64.66-.34.3-.5.7-.5 1.17v47.62c0 .48.17.87.5 1.18.33.31 1.21.53 2.64.66v1.23h-22.45v-1.23h-.01ZM699.895 189.653c-2.53-2.07-4.79-4.33-6.98-6.7-.67-.75-1.34-1.5-1.98-2.26-.29-.38-.16-.8-.09-1.21.07-.76-.24-2.83-.29-3.64l-.47-4.84c-1.38-13.96-3.58-34.48-5.21-48.36 2.07-3.68 4.17-7.2 6.81-10.62 3.37 2.7 6.26 5.64 9.12 8.76 1.65 13.95 3.85 34.63 5.25 48.66l.47 4.87c.1.78.2 2.9.41 3.65.15.4.36.79.14 1.22-.49.87-1.01 1.73-1.53 2.6-1.71 2.74-3.52 5.39-5.65 7.88v-.01ZM307.835 112.023c2.04 2.55 3.78 5.24 5.43 8.01.49.88 1 1.75 1.47 2.62.2.43 0 .81-.17 1.2-.22.73-.35 2.82-.48 3.62l-.55 4.83c-1.57 13.94-3.73 34.46-5.03 48.38-2.79 3.16-5.58 6.17-8.88 8.97-2.74-3.34-4.94-6.82-7.09-10.47 1.3-13.98 3.49-34.67 5.06-48.68l.56-4.86c.06-.78.41-2.88.36-3.65-.06-.42-.19-.84.11-1.22.66-.74 1.35-1.48 2.04-2.22 2.25-2.32 4.57-4.53 7.17-6.52v-.01Z"/></svg>