<svg xmlns="http://www.w3.org/2000/svg" width="1001" height="1000" fill="none"><mask id="a" width="958" height="640" x="5.098" y="180" fill="#000" maskUnits="userSpaceOnUse"><path fill="#fff" d="M5.098 180h958v640h-958z"/><path d="M905.178 546.35c-15.73-22.63-37.67-39.73-65.82-51.32-5.08-2.09-10.3-3.99-15.66-5.7 22.39-11.57 40.31-27.17 53.74-46.84 14.9-21.82 22.35-47.55 22.35-77.19 0-44.17-18.36-79.74-55.05-106.68-36.71-26.94-91.48-40.41-164.34-40.41h-32.88l-70.49 98.6h86.81c32.56 0 57.54 5.53 74.92 16.57 17.39 11.05 26.08 27.62 26.08 49.71s-8.69 39.48-26.08 50.51c-17.39 11.05-42.36 16.57-74.92 16.57h-231.59L599.958 214h-117.93l-139.34 194.22-58.6-79.1h-127.76l123.51 166.7-207.74 289.55h122.14l146.88-206.85 44.05 59.45h127.75l-68.48-92.42h242.59c34.77 0 61.12 5.8 79.06 17.38 17.93 11.59 26.91 29.23 26.91 52.94 0 23.71-8.98 41.9-26.91 52.94-17.94 11.05-44.29 16.57-79.06 16.57h-373.47l-70.49 98.6h453.89c76.17 0 133.83-13.6 173.03-40.82 39.18-27.2 58.78-65.06 58.78-113.55 0-32.86-7.87-60.62-23.6-83.25"/></mask><path fill="#010101" d="M905.178 546.35c-15.73-22.63-37.67-39.73-65.82-51.32-5.08-2.09-10.3-3.99-15.66-5.7 22.39-11.57 40.31-27.17 53.74-46.84 14.9-21.82 22.35-47.55 22.35-77.19 0-44.17-18.36-79.74-55.05-106.68-36.71-26.94-91.48-40.41-164.34-40.41h-32.88l-70.49 98.6h86.81c32.56 0 57.54 5.53 74.92 16.57 17.39 11.05 26.08 27.62 26.08 49.71s-8.69 39.48-26.08 50.51c-17.39 11.05-42.36 16.57-74.92 16.57h-231.59L599.958 214h-117.93l-139.34 194.22-58.6-79.1h-127.76l123.51 166.7-207.74 289.55h122.14l146.88-206.85 44.05 59.45h127.75l-68.48-92.42h242.59c34.77 0 61.12 5.8 79.06 17.38 17.93 11.59 26.91 29.23 26.91 52.94 0 23.71-8.98 41.9-26.91 52.94-17.94 11.05-44.29 16.57-79.06 16.57h-373.47l-70.49 98.6h453.89c76.17 0 133.83-13.6 173.03-40.82 39.18-27.2 58.78-65.06 58.78-113.55 0-32.86-7.87-60.62-23.6-83.25"/><path fill="#fff" d="m839.358 495.03 12.944-31.44-.008-.003-12.936 31.443Zm-15.66-5.7-15.609-30.205-72.883 37.662 78.158 24.935 10.334-32.392Zm53.74-46.84-28.078-19.173-.002.001 28.08 19.172Zm-32.7-183.87 20.123-27.406-.008-.005-20.115 27.411Zm-197.22-40.41v-34h-17.489l-10.17 14.226 27.659 19.774Zm-70.49 98.6-27.659-19.774-38.443 53.774h66.102v-34Zm161.73 16.57 18.234-28.697-.004-.002-18.23 28.699Zm0 100.22-18.211-28.712-.012.008-.012.007 18.235 28.697Zm-306.51 16.57-27.722-19.686-38.123 53.686h65.845v-34ZM599.958 214l27.721 19.686L665.802 180h-65.844v34Zm-117.93 0v-34h-17.453l-10.173 14.18L482.028 214Zm-139.34 194.22-27.32 20.239 27.761 37.472 27.184-37.891-27.625-19.82Zm-58.6-79.1 27.319-20.239-10.194-13.761h-17.125v34Zm-127.76 0v-34H88.821l40.188 54.241 27.319-20.241Zm123.51 166.7 27.625 19.82 14.451-20.142-14.758-19.919-27.318 20.241ZM72.098 785.37l-27.626-19.82L5.86 819.37h66.239v-34Zm122.14 0v34h17.557l10.165-14.315-27.722-19.685Zm146.88-206.85 27.318-20.242-27.904-37.659-27.136 38.216 27.722 19.685Zm44.05 59.45-27.318 20.242 10.194 13.758h17.124v-34Zm127.75 0v34h67.509l-40.191-54.242-27.318 20.242Zm-68.48-92.42v-34h-67.51l40.192 54.242 27.318-20.242Zm321.65 17.38 18.457-28.554-.009-.006-.01-.006-18.438 28.566Zm0 105.88-17.827-28.952-.004.003 17.831 28.949Zm-452.53 16.57v-34H296.07l-10.171 14.227 27.659 19.773Zm-70.49 98.6-27.659-19.774-38.443 53.774h66.102v-34Zm626.92-40.82-19.39-27.929-.003.002 19.393 27.927Zm63.108-216.216c-19.85-28.556-47.262-49.548-80.794-63.354l-25.889 62.88c22.768 9.374 39.236 22.582 50.847 39.286l55.836-38.812Zm-80.802-63.357a238.483 238.483 0 0 0-18.263-6.649l-20.667 64.784a170.709 170.709 0 0 1 13.058 4.751l25.872-62.886Zm-12.988 55.948c27.077-13.992 49.406-33.26 66.211-57.873l-56.159-38.344c-10.054 14.727-23.566 26.659-41.269 35.807l31.217 60.41Zm66.21-57.872c19.218-28.144 28.272-60.747 28.272-96.363h-68c0 23.664-5.847 42.521-16.428 58.017l56.156 38.346Zm28.272-96.363c0-55.381-23.831-100.973-68.927-134.086l-40.246 54.812c28.283 20.767 41.173 46.315 41.173 79.274h68Zm-68.935-134.091c-45.107-33.102-108.369-46.999-184.455-46.999v68c69.633 0 115.911 13.043 144.224 33.821l40.231-54.822ZM680.398 184.21h-32.88v68h32.88v-68Zm-60.539 14.226-70.49 98.6 55.317 39.548 70.49-98.6-55.317-39.548ZM577.028 350.81h86.81v-68h-86.81v68Zm86.81 0c29.526 0 47.066 5.157 56.689 11.269l36.461-57.398c-25.137-15.968-57.557-21.871-93.15-21.871v68Zm56.685 11.267c6.747 4.287 10.315 9.543 10.315 21.013h68c0-32.71-13.812-60.594-41.846-78.407l-36.469 57.394Zm10.315 21.013c0 12.015-3.988 17.8-10.291 21.798l36.422 57.424c28.476-18.062 41.869-47.057 41.869-79.222h-68Zm-10.315 21.813c-9.628 6.118-27.152 11.267-56.685 11.267v68c35.586 0 68.002-5.891 93.154-21.873l-36.469-57.394Zm-56.685 11.267h-231.59v68h231.59v-68Zm-203.869 53.686 167.71-236.17-55.443-39.372-167.71 236.17 55.443 39.372ZM599.958 180h-117.93v68h117.93v-68Zm-145.556 14.18L315.062 388.4l55.251 39.64 139.34-194.22-55.251-39.64Zm-84.395 193.801-58.6-79.1-54.639 40.478 58.6 79.1 54.639-40.478Zm-85.919-92.861h-127.76v68h127.76v-68Zm-155.079 54.241 123.51 166.7 54.637-40.482-123.51-166.7-54.637 40.482ZM252.212 476 44.472 765.55l55.251 39.64 207.74-289.55L252.212 476ZM72.098 819.37h122.14v-68H72.098v68Zm149.862-14.315 146.88-206.85-55.444-39.37-146.88 206.85 55.444 39.37Zm91.84-206.293 44.05 59.45 54.636-40.484-44.05-59.45-54.636 40.484Zm71.368 73.208h127.75v-68h-127.75v68Zm155.068-54.242-68.48-92.42-54.636 40.484 68.48 92.42 54.636-40.484Zm-95.798-38.178h242.59v-68h-242.59v68Zm242.59 0c31.935 0 50.628 5.496 60.621 11.946l36.877-57.132c-25.887-16.71-59.894-22.814-97.498-22.814v68Zm60.602 11.934c7.055 4.56 11.368 10.73 11.368 24.386h68c0-33.764-13.648-62.874-42.453-81.494l-36.915 57.108Zm11.368 24.386c0 14.177-4.651 20.241-10.737 23.988l35.653 57.904c29.774-18.333 43.084-48.649 43.084-81.892h-68Zm-10.741 23.991c-10.136 6.243-29.085 11.519-61.229 11.519v68c37.395 0 71.147-5.764 96.891-21.621l-35.662-57.898Zm-61.229 11.519h-373.47v68h373.47v-68Zm-401.129 14.227-70.49 98.599 55.317 39.547 70.49-98.599-55.317-39.547ZM243.068 817.98h453.89v-68h-453.89v68Zm453.89 0c79.302 0 145.05-13.998 192.422-46.893l-38.785-55.854c-31.027 21.545-80.6 34.747-153.637 34.747v68Zm192.419-46.891c48.512-33.678 73.391-82.068 73.391-141.479h-68c0 37.569-14.322 64.899-44.17 85.621l38.779 55.858Zm73.391-141.479c0-38.435-9.28-73.305-29.682-102.656l-55.836 38.812c11.058 15.908 17.518 36.559 17.518 63.844h68Z" mask="url(#a)"/></svg>