<svg width="63" height="56" viewBox="0 0 63 56" fill="none" xmlns="http://www.w3.org/2000/svg">
<path d="M53.4746 12.0682C50.9892 6.87062 46.408 2.93541 40.9096 1.26369C38.9814 0.676858 36.9695 0.380981 34.9328 0.380981C27.0673 0.380981 19.7887 4.96712 16.391 12.0682C16.0557 12.7636 16.3515 13.597 17.0469 13.9323C17.7422 14.2676 18.5756 13.9717 18.9109 13.2764C21.8451 7.14184 28.1374 3.17705 34.9328 3.17705C36.6933 3.17705 38.4291 3.43348 40.0959 3.94141C44.8448 5.38136 48.8047 8.7889 50.9547 13.2764C51.1964 13.7794 51.6944 14.0704 52.2171 14.0704C52.4193 14.0704 52.6264 14.026 52.8188 13.9323C53.5141 13.597 53.81 12.7636 53.4746 12.0682Z" fill="url(#paint0_linear_747_35659)"/>
<path d="M51.5022 30.6348C50.8661 30.1959 49.9982 30.3537 49.5593 30.9899C49.3226 31.3351 49.0711 31.6753 48.8097 31.9959C45.417 36.2418 40.3623 38.6778 34.9329 38.6778H17.1801V31.7838C17.1801 31.0145 16.5539 30.3883 15.7846 30.3883C15.0153 30.3883 14.389 31.0145 14.389 31.7838V38.6778H8.99411C4.48194 38.6778 0.808105 42.3517 0.808105 46.8638C0.808105 49.0484 1.66122 51.1048 3.20473 52.6532C4.75317 54.2017 6.80953 55.0499 8.99411 55.0499C13.5063 55.0499 17.1801 51.376 17.1801 46.8638V41.469H34.9329C41.2155 41.469 47.069 38.6532 50.9943 33.7366C51.2951 33.3619 51.586 32.9723 51.8622 32.5728C52.3011 31.9367 52.1433 31.0688 51.5072 30.6299L51.5022 30.6348ZM14.389 46.8688C14.389 49.8424 11.9677 52.2637 8.99411 52.2637C7.55416 52.2637 6.19805 51.7015 5.1822 50.6856C4.16141 49.6648 3.60416 48.3137 3.60416 46.8737C3.60416 43.9001 6.02545 41.4788 8.99905 41.4788H14.3939V46.8737L14.389 46.8688Z" fill="url(#paint1_linear_747_35659)"/>
<path d="M34.8245 16.7777C34.2426 16.7777 33.7593 17.2067 33.6755 17.7689C32.7878 17.1426 31.7029 16.7678 30.5342 16.7678C27.5211 16.7678 25.0752 19.2137 25.0752 22.2268C25.0752 25.2398 27.5211 27.6858 30.5342 27.6858C31.7029 27.6858 32.7829 27.3159 33.6755 26.6896C33.7544 27.2567 34.2376 27.6956 34.8245 27.6956C35.4705 27.6956 35.9932 27.1729 35.9932 26.5269V17.9464C35.9932 17.3004 35.4705 16.7777 34.8245 16.7777ZM30.5342 25.3483C28.8132 25.3483 27.4127 23.9478 27.4127 22.2268C27.4127 20.5058 28.8132 19.1053 30.5342 19.1053C32.2552 19.1053 33.6557 20.5058 33.6557 22.2268C33.6557 23.9478 32.2552 25.3483 30.5342 25.3483ZM5.12798 17.9365V26.517C5.12798 27.1631 4.60526 27.6858 3.95925 27.6858C3.31325 27.6858 2.79053 27.1631 2.79053 26.517V17.9365C2.79053 17.2905 3.31325 16.7678 3.95925 16.7678C4.60526 16.7678 5.12798 17.2905 5.12798 17.9365ZM43.4296 16.7678C40.4215 16.7678 37.9707 19.2187 37.9707 22.2268C37.9707 25.2349 40.4215 27.6858 43.4296 27.6858C44.5885 27.6858 45.6635 27.3209 46.5463 26.7044C46.4476 28.3416 45.0866 29.6435 43.4296 29.6435C42.468 29.6435 41.5755 29.2096 40.9788 28.4551C40.5793 27.9471 39.8446 27.8633 39.3366 28.2627C38.8287 28.6622 38.7449 29.3969 39.1443 29.9049C40.1848 31.2215 41.7481 31.976 43.4247 31.976C46.4328 31.976 48.8837 29.5252 48.8837 26.517V22.2268C48.8837 19.2187 46.4328 16.7678 43.4247 16.7678H43.4296ZM46.5512 22.2268C46.5512 23.9478 45.1507 25.3483 43.4296 25.3483C41.7086 25.3483 40.3081 23.9478 40.3081 22.2268C40.3081 20.5058 41.7086 19.1053 43.4296 19.1053C45.1507 19.1053 46.5512 20.5058 46.5512 22.2268ZM62.8936 20.274V26.517C62.8936 27.1631 62.3709 27.6858 61.7249 27.6858C61.0789 27.6858 60.5562 27.1631 60.5562 26.517V20.274C60.5562 19.6329 60.0334 19.1053 59.3874 19.1053C58.7414 19.1053 58.2187 19.628 58.2187 20.274V26.517C58.2187 27.1631 57.696 27.6858 57.05 27.6858C56.404 27.6858 55.8813 27.1631 55.8813 26.517V20.274C55.8813 18.3409 57.4543 16.7727 59.3825 16.7727C61.3107 16.7727 62.8838 18.3458 62.8838 20.274H62.8936ZM53.5537 17.9365V26.517C53.5537 27.1631 53.031 27.6858 52.385 27.6858C51.739 27.6858 51.2162 27.1631 51.2162 26.517V17.9365C51.2162 17.2905 51.739 16.7678 52.385 16.7678C53.031 16.7678 53.5537 17.2905 53.5537 17.9365ZM23.0386 20.2148V26.5072C23.0386 27.1483 22.5158 27.671 21.8748 27.671C21.2337 27.671 20.711 27.1483 20.711 26.5072V20.2148C20.711 19.5935 20.2031 19.0855 19.5817 19.0855C18.9604 19.0855 18.4524 19.5935 18.4524 20.2148V24.4656C18.4524 26.231 17.0125 27.671 15.2471 27.671C13.4816 27.671 12.0417 26.231 12.0417 24.4656V20.2148C12.0417 19.5935 11.5338 19.0855 10.9124 19.0855C10.2911 19.0855 9.78316 19.5935 9.78316 20.2148V26.5072C9.78316 27.1483 9.26044 27.671 8.61937 27.671C7.9783 27.671 7.45555 27.1483 7.45555 26.5072V20.2148C7.45555 18.3113 9.00399 16.7579 10.9124 16.7579C12.8208 16.7579 14.3693 18.3064 14.3693 20.2148V24.4656C14.3693 24.9489 14.7638 25.3434 15.2471 25.3434C15.7303 25.3434 16.1248 24.9489 16.1248 24.4656V20.2148C16.1248 18.3113 17.6733 16.7579 19.5817 16.7579C21.4901 16.7579 23.0386 18.3064 23.0386 20.2148Z" fill="white"/>
<defs>
<linearGradient id="paint0_linear_747_35659" x1="1.05947" y1="45.7838" x2="52.2221" y2="-5.37882" gradientUnits="userSpaceOnUse">
<stop stop-color="#19FFDD"/>
<stop offset="0.25" stop-color="#00E9C5"/>
<stop offset="0.5" stop-color="#00FC60"/>
<stop offset="0.75" stop-color="#00E9C5"/>
<stop offset="1" stop-color="#19FFDD"/>
</linearGradient>
<linearGradient id="paint1_linear_747_35659" x1="9.94094" y1="54.6652" x2="61.1035" y2="3.50263" gradientUnits="userSpaceOnUse">
<stop stop-color="#19FFDD"/>
<stop offset="0.25" stop-color="#00E9C5"/>
<stop offset="0.5" stop-color="#00FC60"/>
<stop offset="0.75" stop-color="#00E9C5"/>
<stop offset="1" stop-color="#19FFDD"/>
</linearGradient>
</defs>
</svg>
