<svg width="88" height="33" viewBox="0 0 88 33" fill="none" xmlns="http://www.w3.org/2000/svg">
<path d="M81.9493 0.564941H5.62215C2.75975 0.564941 0.439331 2.88538 0.439331 5.74777V27.3717C0.439331 30.2341 2.75975 32.5545 5.62215 32.5545H81.9493C84.8117 32.5545 87.1322 30.2341 87.1322 27.3717V5.74777C87.1322 2.88538 84.8117 0.564941 81.9493 0.564941Z" fill="#EC671B"/>
<path d="M56.6763 27.0906C55.7985 27.0906 55.0194 26.4692 55.0194 25.5471C55.0194 24.6693 55.7049 24.3192 55.7049 24.3192V21.4985C55.7049 21.3357 55.6555 21.2124 55.409 21.2026C52.9975 21.0941 51.3751 19.9993 51.3751 17.7506V11.69H53.6337V17.5731C53.6337 18.4953 53.9986 19.3583 56.1487 19.3583H57.199C59.3491 19.3583 59.714 18.4953 59.714 17.5731V11.69H61.9775V17.7506C61.9775 19.9993 60.3502 21.0941 57.9437 21.2026C57.6971 21.2124 57.6478 21.3407 57.6478 21.4985V24.3192C57.6478 24.3192 58.3332 24.6693 58.3332 25.5471C58.3332 26.4692 57.5541 27.0906 56.6763 27.0906ZM73.9853 15.5759C73.9853 13.7119 72.9004 13.3618 71.3421 13.3618H69.123C67.5598 13.3618 66.465 13.7119 66.465 15.5759V17.4055C66.465 19.2547 67.5647 19.6196 69.123 19.6196H71.3421C72.9053 19.6196 73.9853 19.2547 73.9853 17.4055V15.5759ZM64.2015 15.4822C64.2015 12.267 66.5291 11.5322 69.5866 11.5322H70.8835C73.9409 11.5322 76.2685 12.267 76.2685 15.4822V17.5041C76.2685 20.6749 73.9409 21.4541 70.8835 21.4541H69.5866C66.5291 21.4541 64.2015 20.6749 64.2015 17.5041V15.4822ZM35.3335 13.3963C33.1983 13.3963 32.8185 14.2543 32.8185 15.1321V21.3111H30.5551V15.0039C30.5551 12.696 32.1972 11.5618 34.8749 11.5618H36.6107C37.9471 11.5618 39.032 11.9119 39.8112 12.4544C40.5459 11.8972 41.7097 11.5618 43.0264 11.5618H44.7129C47.3709 11.5618 49.0623 12.6911 49.0623 15.0039V21.3111H46.7989V15.1321C46.7989 14.2543 46.4142 13.3963 44.2839 13.3963H43.4554C41.3202 13.3963 40.9405 14.2543 40.9405 15.1321V21.3111H38.677V15.1321C38.677 14.2543 38.2923 13.3963 36.162 13.3963H35.3335ZM13.4779 18.298C13.4779 19.1906 13.9217 19.595 15.2482 19.595H18.5275C20.5987 19.595 21.1559 19.5161 21.1559 18.4805V18.4164C21.1559 17.7457 21.0129 17.3512 19.4497 17.3512H14.8636C12.4916 17.3512 11.4412 16.5721 11.4412 14.6587V14.1015C11.4412 12.3804 12.3979 11.5372 16.3923 11.5372H18.7494C22.443 11.5372 23.0496 12.6566 23.0496 13.9486V14.3086H20.865C20.865 13.5541 20.1154 13.3667 18.6508 13.3667H15.9928C14.0203 13.3667 13.7145 13.5393 13.7145 14.3036V14.6538C13.7145 15.1962 13.8428 15.5266 15.1644 15.5266H19.0404C21.4765 15.5266 23.4293 15.7485 23.4293 18.4903C23.4293 21.3752 20.8157 21.4196 18.8431 21.4196H16.0569C15.4652 21.4196 14.8438 21.4196 14.3704 21.3702C13.828 21.3209 13.2411 21.2124 12.891 21.0497C11.9689 20.6207 11.313 19.8415 11.313 18.4065V18.2882H13.4779V18.298ZM28.0055 21.3111H25.7421V11.69H28.0055V21.3111ZM25.2194 8.32194C25.2194 7.4195 25.9541 6.7735 26.8763 6.7735C27.7984 6.7735 28.5332 7.4195 28.5332 8.32194C28.5332 9.22437 27.7935 9.85065 26.8763 9.85065C25.9591 9.85065 25.2194 9.22437 25.2194 8.32194Z" fill="white"/>
</svg>
