<svg width="84" height="46" viewBox="0 0 84 46" fill="none" xmlns="http://www.w3.org/2000/svg">
<path d="M83.5401 6.22767C83.5401 3.38722 81.2372 1.08429 78.3968 1.08429H6.09846C3.25801 1.08429 0.955078 3.38722 0.955078 6.22767V33.4092H0.960009C0.960009 34.1637 0.989597 34.9231 1.0685 35.6875C1.6356 42.0637 5.27986 45.7227 11.0643 45.7227C11.4687 45.7227 11.8928 45.703 12.3169 45.6685C13.959 45.5255 15.5173 45.126 17.0756 44.4505C18.6931 43.7453 19.9506 42.9513 20.927 42.0144L21.7998 41.176L21.8343 40.5794C22.0316 40.5794 22.2338 40.5646 22.4409 40.5498C23.654 40.4413 24.7142 40.1059 25.592 39.5438L26.9087 38.7005L26.9827 37.4923C27.2144 37.7586 27.4709 38.0052 27.7421 38.2419C29.1574 39.4599 30.8636 40.0764 32.8164 40.0764C33.0827 40.0764 33.3589 40.0665 33.6301 40.0418C34.9122 39.9284 36.1993 39.5832 37.3582 39.0556L37.3089 39.9038C37.3089 39.9038 38.2606 40.5991 38.6995 40.8308C39.4639 41.2352 40.7263 41.4423 41.7372 41.4423C41.9641 41.4423 42.2008 41.4325 42.4424 41.4127C43.6703 41.3043 45.1004 40.964 45.9782 40.4018C46.3086 40.1898 46.9348 39.5586 46.9348 39.5586L47.0532 37.5614C48.0296 38.3159 49.2328 38.7104 50.589 38.7104C50.7911 38.7104 50.9983 38.7005 51.2004 38.6857C52.2311 38.597 53.2568 38.2567 54.2135 37.6995C54.6672 37.8178 55.1455 37.872 55.6386 37.872C55.826 37.872 56.0184 37.8622 56.2057 37.8474C57.1575 37.7636 58.0698 37.4874 58.8637 37.0436C59.2533 37.1915 59.6675 37.3148 60.1163 37.4233C60.9842 37.6304 61.862 37.734 62.725 37.734C63.0406 37.734 63.3611 37.7192 63.6816 37.6945C65.9649 37.4923 67.8437 36.7378 69.2639 35.4409C70.3143 36.1905 71.5915 36.5899 72.9969 36.5899C73.2188 36.5899 73.4506 36.58 73.6775 36.5603C74.8117 36.4617 75.9064 36.1017 76.8927 35.5149C77.6373 35.8551 78.4756 36.0327 79.3732 36.0327C79.5457 36.0327 79.7183 36.0277 79.8959 36.0129C80.4975 35.9686 81.0745 35.7466 81.5528 35.3817C82.8054 34.4152 83.5401 32.8717 83.5303 31.269V6.22767H83.5401Z" fill="#E30613"/>
<g style="mix-blend-mode:multiply">
<path d="M83.5401 6.22767C83.5401 3.38722 81.2372 1.08429 78.3968 1.08429H6.09846C3.25801 1.08429 0.955078 3.38722 0.955078 6.22767V33.4092H0.960009C0.960009 34.1637 0.989597 34.9231 1.0685 35.6875C1.6356 42.0637 5.27986 45.7227 11.0643 45.7227C11.4687 45.7227 11.8928 45.703 12.3169 45.6685C13.959 45.5255 15.5173 45.126 17.0756 44.4505C18.6931 43.7453 19.9506 42.9513 20.927 42.0144L21.7998 41.176L21.8343 40.5794C22.0316 40.5794 22.2338 40.5646 22.4409 40.5498C23.654 40.4413 24.7142 40.1059 25.592 39.5438L26.9087 38.7005L26.9827 37.4923C27.2144 37.7586 27.4709 38.0052 27.7421 38.2419C29.1574 39.4599 30.8636 40.0764 32.8164 40.0764C33.0827 40.0764 33.3589 40.0665 33.6301 40.0418C34.9122 39.9284 36.1993 39.5832 37.3582 39.0556L37.3089 39.9038C37.3089 39.9038 38.2606 40.5991 38.6995 40.8309C39.4639 41.2352 40.7263 41.4423 41.7372 41.4423C41.9641 41.4423 42.2008 41.4325 42.4424 41.4127C43.6703 41.3043 45.1004 40.964 45.9782 40.4018C46.3086 40.1898 46.9348 39.5586 46.9348 39.5586L47.0532 37.5614C48.0296 38.3159 49.2328 38.7104 50.589 38.7104C50.7911 38.7104 50.9983 38.7005 51.2004 38.6857C52.2311 38.597 53.2568 38.2567 54.2135 37.6995C54.6672 37.8178 55.1455 37.872 55.6386 37.872C55.826 37.872 56.0184 37.8622 56.2057 37.8474C57.1575 37.7636 58.0698 37.4874 58.8637 37.0436C59.2533 37.1915 59.6675 37.3148 60.1163 37.4233C60.9842 37.6304 61.862 37.734 62.725 37.734C63.0406 37.734 63.3611 37.7192 63.6816 37.6945C65.9649 37.4923 67.8437 36.7378 69.2639 35.4409C70.3143 36.1905 71.5915 36.5899 72.9969 36.5899C73.2188 36.5899 73.4506 36.58 73.6775 36.5603C74.8117 36.4617 75.9064 36.1017 76.8927 35.5149C77.6373 35.8551 78.4757 36.0327 79.3732 36.0327C79.5457 36.0327 79.7183 36.0277 79.8959 36.0129C80.4975 35.9686 81.0745 35.7466 81.5528 35.3817C82.8054 34.4152 83.5401 32.8717 83.5303 31.269V6.22767H83.5401Z" stroke="#E30613" stroke-width="0.183423" stroke-miterlimit="10"/>
</g>
<path d="M31.1055 17.1605C31.1055 17.1309 31.1055 17.1161 31.1055 17.1161L30.9378 16.9829C30.6567 16.761 30.06 16.3123 29.4584 15.8783C28.694 15.3309 28.0037 14.9512 27.9741 14.9364L27.9149 14.9068V14.8773C27.9741 14.5912 28.0037 14.1622 28.0382 13.6592C28.1319 12.3278 28.2453 10.6659 28.8814 10.2221C29.0491 10.1037 29.2414 10.0791 29.4633 10.1432C29.5916 10.1925 29.6359 10.2221 29.6852 10.2714C29.705 10.2911 29.7198 10.3108 29.7346 10.3256C29.4831 9.81278 29.2414 9.37882 29.0639 9.07308C29.0047 9.05335 28.8864 9.03363 28.7779 9.16677C28.7779 9.16677 28.6398 9.3443 28.5905 9.46759C28.5757 9.50704 28.5362 9.57114 28.4623 9.57114C28.3982 9.56128 28.3489 9.52676 28.3341 9.43307C28.2847 9.12732 28.4623 8.74761 28.7877 8.61446C27.259 6.22277 25.247 4.87158 23.2055 4.87158C22.1058 4.87158 20.9962 5.26609 19.9459 6.10442C18.6785 7.01178 18.4122 9.21609 18.4122 9.22102C18.284 9.91141 18.1657 10.587 18.1657 10.5919C18.0868 10.9174 17.9487 11.2281 17.7909 11.4993C18.0868 11.7311 18.4911 11.9185 18.9054 12.0812L18.8215 12.1601H18.8166C18.4122 12.0713 18.0325 11.8987 17.6824 11.6768C17.6774 11.6768 17.6676 11.667 17.6627 11.662C17.5887 11.6176 17.5147 11.5634 17.4457 11.5092C17.4309 11.4944 17.4112 11.4845 17.3964 11.4697C17.3372 11.4204 17.278 11.376 17.2188 11.3218C17.1991 11.307 17.1794 11.2922 17.1597 11.2774C16.5334 10.7201 16.06 9.97551 15.8381 9.19143C15.8381 9.19143 15.8381 9.22595 15.8529 9.29006C16.1241 10.5969 14.3143 10.3897 13.6387 10.2418C15.6408 10.3355 16.4298 9.02377 14.0628 8.88569C10.5763 8.7772 13.6288 11.5634 15.7789 10.3552C15.4041 10.656 15.4929 11.7853 15.7592 12.2932C15.8381 12.4412 15.9219 12.5793 16.0107 12.7124C16.1093 12.8554 16.2079 12.9935 16.3115 13.1168C16.3115 13.1168 16.3115 13.1168 16.3164 13.1217C16.5728 13.4373 16.8243 13.674 16.9723 13.8072L16.9328 13.8367C16.9328 13.8367 16.5531 13.6839 16.129 13.2992C13.9296 15.4542 13.8458 17.6487 14.8518 19.4979C16.8884 19.5916 18.8117 20.3264 20.1875 21.5395L20.725 22.0129C20.8828 22.151 21.0456 22.3926 21.2231 22.6589C21.2379 22.8414 21.2625 23.0337 21.297 23.226C21.3513 23.517 21.4203 23.7931 21.5288 24.0347C22.3622 24.7449 23.5063 24.7399 24.9413 24.0545C25.0695 23.9263 25.1731 23.798 25.252 23.6896C25.9374 23.2803 26.618 23.1077 27.1999 23.0583C27.3133 23.0485 27.4218 23.0435 27.5352 23.0435C27.6092 23.0435 27.6782 23.0485 27.7522 23.0534C28.2897 22.7477 28.8075 22.363 29.2365 21.8748C29.8825 21.1351 30.3313 20.351 30.6321 19.5078C30.6518 19.4535 30.6666 19.4042 30.6863 19.35C30.9871 18.3686 31.071 17.5402 31.0956 17.2394C31.0956 17.2147 31.0956 17.1901 31.1005 17.1654L31.1055 17.1605ZM28.3587 15.7748C28.4475 15.903 28.6842 16.3517 28.4475 16.3961C28.2601 16.4306 28.3094 16.1002 27.9297 15.8043C27.5352 15.4986 27.2837 15.4542 26.6377 15.4345C26.5391 15.4345 26.4552 15.3803 26.4651 15.2619C26.5045 14.8625 27.7965 14.9956 28.3636 15.7748H28.3587ZM23.24 6.08469C23.2449 6.04031 23.3189 5.58663 23.7874 5.45348C23.8071 5.44855 24.315 5.3154 24.6701 5.53238C24.6849 5.54224 25.0153 5.72963 25.0942 5.80854C25.1484 5.85785 25.178 5.92196 25.1829 5.98606C25.1829 6.02551 25.1681 6.06497 25.1435 6.08469C25.0843 6.1488 24.9906 6.134 24.9265 6.09948C24.6208 5.95154 24.3446 5.90716 24.1474 5.96141C23.812 6.0551 23.5309 6.23263 23.4816 6.27701C23.4471 6.30167 23.4077 6.31153 23.3731 6.31153C23.3288 6.31153 23.2844 6.29674 23.2548 6.26715C23.2104 6.2277 23.2301 6.11921 23.24 6.07483V6.08469ZM28.9653 19.3303C28.4475 19.8727 27.4514 20.8836 27.0371 21.3225C26.5933 21.7861 25.9917 22.4321 25.109 22.9992C24.7391 23.2359 24.1572 23.6402 23.3436 23.3197C23.3436 23.3197 22.4608 23.0189 22.6581 21.8452C22.6581 21.8452 22.806 20.716 23.0082 19.7987C23.0082 19.7987 23.5507 17.4416 22.9589 15.8339C22.9589 15.8339 22.9096 15.7156 22.8356 15.5627C22.5102 15.8783 21.9036 16.3123 20.9716 16.4109C20.9716 16.4109 19.8916 16.5145 19.0977 16.0558C19.0829 16.046 19.0927 16.0263 19.1075 16.0312C19.3936 16.0904 20.3453 16.258 21.3612 15.9769C21.3612 15.9769 22.3967 15.7353 22.8455 14.9118C22.8455 14.9118 23.9107 12.5004 20.5179 11.9234C20.4982 11.9234 20.4982 11.9037 20.5179 11.8987C20.6905 11.8741 21.2675 11.8445 21.8543 11.9826C21.8543 11.9826 21.7902 11.6423 21.8099 11.1541C21.8494 10.1925 21.9973 8.80679 22.7419 7.76628C23.023 7.3767 23.6641 6.69618 24.6356 6.94767C25.0794 7.05123 26.0459 7.51971 26.7462 9.24074C26.7462 9.24074 27.8113 11.5733 27.4514 14.6997C27.4514 14.6997 25.464 13.7431 23.3682 13.4472C23.3682 13.4472 23.5803 14.468 23.1266 15.2372C23.5457 15.6761 24.3693 16.3862 25.8635 17.2246C25.8635 17.2246 27.1357 18.0185 28.7483 18.1467C29.9466 18.2404 30.1439 17.6092 30.4003 17.7867C30.6617 17.9643 29.7247 18.556 28.9702 19.3401L28.9653 19.3303Z" fill="#FFEC00" stroke="#FFED00" stroke-width="0.524067" stroke-miterlimit="10"/>
<path d="M33.8963 14.4028C34.0786 14.3388 34.3792 14.3289 34.7833 14.4176C34.8031 14.3831 35.2318 13.5749 34.5369 13.0476C34.394 12.9392 34.1723 12.8603 33.8273 12.954C33.7682 12.9687 33.6597 13.0131 33.709 13.1807C33.709 13.1807 33.8519 13.8213 33.8864 14.3979L33.8963 14.4028Z" fill="#FFEC00" stroke="#FFED00" stroke-width="0.524067" stroke-miterlimit="10"/>
<path d="M33.9457 15.2767C33.9655 15.2767 34.8383 15.4345 35.5238 15.903C35.5238 15.903 35.6323 15.9918 35.6421 16.0016C37.2892 14.9463 32.8855 13.96 33.9408 15.2767H33.9457Z" fill="#FFEC00" stroke="#FFED00" stroke-width="0.524067" stroke-miterlimit="10"/>
<path d="M33.4083 16.3368C33.4379 16.3368 34.577 16.4996 35.0553 16.9532C35.08 16.9779 35.1441 17.0469 35.149 17.0568C37.1857 16.3072 32.2593 14.4679 33.4034 16.3368H33.4083Z" fill="#FFEC00" stroke="#FFED00" stroke-width="0.524067" stroke-miterlimit="10"/>
<path d="M34.1134 17.8459C34.1134 17.8459 34.1134 17.8508 34.1134 17.8459C33.6597 17.7325 32.2148 17.4464 32.7967 16.5391C32.8214 16.4996 32.8362 16.475 32.8362 16.475C32.4762 16.9188 31.9979 17.2788 31.4604 17.5007C31.3765 18.2798 31.1891 18.9406 31.0856 19.2513C31.9584 18.9061 32.8066 17.7621 32.5107 17.2689C32.8411 17.9149 35.0849 18.5412 35.149 17.3675C34.2318 16.2038 31.2976 16.4996 34.1134 17.8459Z" fill="#FFEC00" stroke="#FFED00" stroke-width="0.524067" stroke-miterlimit="10"/>
<path d="M12.7853 8.73772C12.8445 8.70813 12.8987 8.68841 12.9628 8.66375C13.8751 8.35307 15.1819 8.71799 15.2214 8.72786C17.5144 7.01668 10.7684 6.76518 12.7853 8.73772Z" fill="#FFEC00" stroke="#FFED00" stroke-width="0.524067" stroke-miterlimit="10"/>
<path d="M12.741 7.19419C12.741 7.19419 12.884 7.14981 12.9334 7.13501C13.9689 6.85886 15.0884 7.14981 15.113 7.15474C17.0954 6.13888 11.311 5.00468 12.7262 7.19912H12.741V7.19419Z" fill="#FFEC00" stroke="#FFED00" stroke-width="0.524067" stroke-miterlimit="10"/>
<path d="M14.4917 5.72466C14.8566 5.80356 15.1722 5.90219 15.5717 6.12903C15.9613 5.26604 16.2719 4.95044 16.4692 4.57566C16.484 4.551 16.479 4.51648 16.4593 4.49676C15.4139 3.24913 14.3438 5.15262 14.4868 5.72466H14.4917Z" fill="#FFEC00" stroke="#FFED00" stroke-width="0.524067" stroke-miterlimit="10"/>
<g style="mix-blend-mode:multiply">
<path fill-rule="evenodd" clip-rule="evenodd" d="M35.8244 14.7638C35.6025 14.6553 35.4595 14.606 35.2376 14.5419C35.3411 14.2904 35.5433 13.6246 35.0206 13.0822C34.6409 12.6926 34.1576 12.5595 33.625 12.7074C33.5313 12.7321 33.3143 12.7912 33.3883 13.166C33.3883 13.1759 33.5708 14.0882 33.6004 14.532C33.5412 14.5715 33.3932 14.6849 33.3834 14.8871C33.3784 14.966 33.3883 15.0744 33.4672 15.1879C33.3242 15.2175 32.9987 15.3112 32.8952 15.6514C32.8607 15.7648 32.8311 15.9374 32.8804 16.1248C32.7916 16.2333 32.2492 16.8497 31.4947 17.1752C31.5045 17.0322 31.5144 16.8941 31.5243 16.7659C31.5785 15.8783 31.4799 14.7884 31.3467 13.9896C30.9572 11.7063 29.9808 10.0248 29.9808 10.0248C29.8969 9.85216 29.818 9.6845 29.7342 9.52177C29.7786 9.52177 29.8279 9.50204 29.8575 9.46259C29.9265 9.37876 29.9314 9.28013 29.8673 9.16671C29.6504 8.8511 29.4186 8.70316 29.246 8.63412C28.4964 7.36677 27.663 6.3805 26.731 5.68519C27.3819 5.51752 27.7025 4.62988 27.6926 4.18113C27.6926 4.07757 27.6532 3.92963 27.5003 3.95429C27.4017 3.96908 27.3671 4.08743 27.3524 4.1762C27.2784 4.61016 27.1206 4.87152 26.9036 5.06384C26.8494 5.11315 26.7853 5.15753 26.7162 5.18712C26.5535 5.26109 26.3661 5.3104 26.2132 5.33999C26.1097 5.27589 26.0061 5.22164 25.9025 5.16246C26.9085 4.68906 26.8346 3.51047 26.7458 3.27869C26.7113 3.18007 26.6324 3.07158 26.5239 3.10117C26.3957 3.13569 26.3809 3.24911 26.3957 3.35266C26.4992 4.20579 26.0061 4.77782 25.3305 4.9011C25.2122 4.85672 25.0987 4.81234 24.9755 4.77289C25.3601 4.5707 25.6609 4.13182 25.7546 3.75703C25.8335 3.44636 25.7398 3.11103 25.7102 3.05185C25.6708 2.98281 25.6215 2.94336 25.5426 2.97295C25.4637 3.00254 25.4834 3.1061 25.4834 3.1061C25.5327 3.64361 25.1776 4.08743 25.1776 4.08743C24.936 4.38825 24.6105 4.54112 24.3837 4.61509C24.1667 4.5707 23.9448 4.53125 23.713 4.51153C23.5897 4.50167 23.4665 4.49673 23.3481 4.4918C20.1082 4.32414 18.0814 6.67638 17.7757 8.99411C17.6574 9.89161 17.5045 10.5327 17.2776 11.0554C16.2421 10.0938 15.9462 8.74755 15.9412 8.71303C16.4393 8.14592 15.9215 7.40129 15.6355 7.30266C16.0152 7.14486 16.0004 6.61228 15.8574 6.43475C16.316 5.4041 16.7648 4.94055 16.8634 4.60029C16.8782 4.55098 16.8733 4.4918 16.8437 4.44742C16.5527 4.00853 16.178 3.80142 15.7982 3.78169C14.9057 3.73238 13.8504 4.75316 13.9687 5.66546C13.7616 5.62601 13.5643 5.61122 13.3868 5.61615C12.0208 5.61122 11.5672 6.67638 12.1589 7.43088C11.4439 7.89442 11.9518 8.8659 12.1786 9.01384C11.2614 10.3206 13.2734 10.9716 14.452 10.9519C14.7084 10.9519 14.9303 10.9223 15.0832 10.868C15.1226 11.7951 15.4432 12.4559 15.8081 12.9195C15.675 13.0427 15.5369 13.166 15.384 13.3041C14.0427 14.5024 12.7753 16.9829 13.9736 19.4929C14.1216 19.488 14.2745 19.4831 14.4273 19.4831C14.5802 19.4831 14.7281 19.4831 14.881 19.4929C13.8701 17.6437 13.9539 15.4492 16.1582 13.2942C16.5774 13.6789 16.962 13.8318 16.962 13.8318L17.0015 13.8022C16.8535 13.669 16.602 13.4323 16.3456 13.1167C16.2421 12.9934 16.1385 12.8553 16.0399 12.7074C15.9511 12.5743 15.8623 12.4362 15.7884 12.2882C15.5221 11.7803 15.4284 10.651 15.8081 10.3502C13.6531 11.5584 10.6055 8.7722 14.092 8.88069C16.459 9.01877 15.67 10.3305 13.6679 10.2368C14.3435 10.3847 16.1533 10.5919 15.8821 9.28506C15.8722 9.22095 15.8673 9.18643 15.8673 9.18643C16.0892 9.97052 16.5626 10.7151 17.1889 11.2724C17.2086 11.2872 17.2283 11.302 17.2481 11.3168C17.3072 11.3661 17.3664 11.4154 17.4256 11.4647C17.4404 11.4795 17.4601 11.4894 17.4749 11.5042C17.5489 11.5584 17.6179 11.6127 17.6919 11.657C17.7017 11.657 17.7067 11.6669 17.7116 11.6718C18.0617 11.8937 18.4414 12.0663 18.8458 12.16H18.8507L18.9346 12.0762C18.5253 11.9135 18.1209 11.7261 17.8201 11.4943C17.9779 11.2231 18.116 10.9173 18.1949 10.5869C18.1949 10.5869 18.3132 9.90641 18.4414 9.21602C18.4414 9.21602 18.7077 7.01172 19.9751 6.09942C21.0205 5.26109 22.1301 4.86658 23.2347 4.86658C25.2763 4.86658 27.2882 6.2227 28.817 8.60947C28.4915 8.74261 28.314 9.12233 28.3633 9.42807C28.383 9.51683 28.4323 9.55628 28.4915 9.56615C28.5655 9.56615 28.6049 9.50204 28.6197 9.46259C28.669 9.33931 28.8071 9.16671 28.8071 9.16178C28.9156 9.02863 29.0339 9.04836 29.0931 9.06808C29.2706 9.37383 29.5123 9.80285 29.7638 10.3206C29.749 10.3009 29.7342 10.2812 29.7145 10.2664C29.6652 10.2171 29.6208 10.1875 29.4926 10.1382C29.2756 10.0741 29.0783 10.0987 28.9107 10.2171C28.2696 10.6609 28.1562 12.3178 28.0674 13.6542C28.0329 14.1523 28.0033 14.5813 27.949 14.8723V14.9019L28.0033 14.9314C28.0329 14.9462 28.7233 15.3259 29.4876 15.8733C30.0892 16.3073 30.6859 16.756 30.967 16.9779L31.1347 17.1111C31.1347 17.1111 31.1347 17.1259 31.1347 17.1555C31.1347 17.1801 31.1347 17.2048 31.1298 17.2294C31.11 17.5303 31.0213 18.3538 30.7205 19.3401C30.7007 19.3943 30.6859 19.4485 30.6662 19.4979C30.3654 20.3362 29.9166 21.1203 29.2706 21.8649C28.8465 22.3531 28.3238 22.7427 27.7863 23.0435C27.9737 23.0533 28.1512 23.0829 28.3238 23.1224C30.0942 21.8896 30.6613 20.3658 30.6613 20.3658C30.8142 20.0403 30.9374 19.7296 31.041 19.4288C31.5341 19.3006 32.402 18.9258 32.905 17.8804C32.9889 17.9346 33.0727 17.979 33.1615 18.0234C34.4288 18.625 35.6173 18.4623 35.4841 17.3724C36.066 17.1062 36.3077 16.7264 35.997 16.2333C36.6183 15.8783 36.6183 15.1386 35.8392 14.7588L35.8244 14.7638ZM16.459 4.4918C16.459 4.4918 16.4837 4.54605 16.4689 4.5707C16.2716 4.94055 15.961 5.25616 15.5714 6.12408C15.172 5.89723 14.8613 5.80354 14.4914 5.71971C14.3435 5.14767 15.4185 3.24418 16.464 4.4918H16.459ZM15.1177 7.15472C15.0931 7.14979 13.9736 6.85884 12.9381 7.135C12.8888 7.14979 12.7457 7.19418 12.7457 7.19418H12.7309C11.3157 5.00466 17.1001 6.13887 15.1177 7.15472ZM15.2213 8.72782C15.1868 8.71796 13.8799 8.35304 12.9627 8.66371C12.9035 8.68344 12.8444 8.70809 12.7852 8.73768C10.7683 6.77008 17.5143 7.01665 15.2213 8.72782ZM33.8371 12.954C34.1823 12.8652 34.4042 12.9441 34.5472 13.0477C35.2425 13.5753 34.8135 14.3791 34.7937 14.4186C34.3844 14.3298 34.0886 14.3397 33.9061 14.4038C33.8716 13.8268 33.7286 13.1857 33.7286 13.1857C33.6842 13.0131 33.7927 12.9737 33.8469 12.9589L33.8371 12.954ZM32.5105 17.264C32.8113 17.7571 31.9632 18.8962 31.0854 19.2464C31.184 18.9357 31.3763 18.2749 31.4602 17.4957C31.9977 17.2788 32.476 16.9138 32.836 16.47C32.836 16.47 32.8212 16.4947 32.7965 16.5341C32.2146 17.4464 33.6595 17.7324 34.1132 17.8409C31.2925 16.4947 34.2266 16.1988 35.1488 17.3626C35.0847 18.5362 32.8409 17.91 32.5105 17.264ZM35.1537 17.0519C35.1439 17.042 35.0847 16.973 35.06 16.9484C34.5817 16.4947 33.4426 16.3369 33.413 16.3319C32.2689 14.463 37.1904 16.3023 35.1587 17.0519H35.1537ZM35.6469 15.9917C35.6321 15.9818 35.5285 15.893 35.5285 15.893C34.8431 15.4295 33.9702 15.2717 33.9505 15.2668C32.8952 13.9452 37.3038 14.9364 35.6518 15.9917H35.6469Z" fill="#1D1D1B"/>
<path fill-rule="evenodd" clip-rule="evenodd" d="M30.3953 17.7817C30.1388 17.6042 29.9416 18.2354 28.7433 18.1417C27.1307 18.0135 25.8584 17.2195 25.8584 17.2195C24.3642 16.3812 23.5407 15.6711 23.1215 15.2322C23.5752 14.4629 23.3632 13.4421 23.3632 13.4421C25.4639 13.738 27.4463 14.6947 27.4463 14.6947C27.8063 11.5682 26.7411 9.23571 26.7411 9.23571C26.0409 7.51467 25.0744 7.04619 24.6305 6.94264C23.6591 6.69114 23.018 7.37166 22.7369 7.76124C21.9923 8.80175 21.8443 10.1875 21.8049 11.1491C21.7852 11.6373 21.8493 11.9775 21.8493 11.9775C21.2624 11.8394 20.6855 11.869 20.5129 11.8937C20.4931 11.8937 20.4931 11.9134 20.5129 11.9184C23.9056 12.4953 22.8405 14.9067 22.8405 14.9067C22.3917 15.7303 21.3561 15.9719 21.3561 15.9719C20.3452 16.253 19.3885 16.0903 19.1025 16.0262C19.0877 16.0262 19.0779 16.0459 19.0926 16.0508C19.8866 16.5094 20.9666 16.4059 20.9666 16.4059C21.8986 16.3072 22.5051 15.8733 22.8306 15.5577C22.9095 15.7105 22.9539 15.8289 22.9539 15.8289C23.5456 17.4365 23.0032 19.7937 23.0032 19.7937C22.801 20.7109 22.6531 21.8402 22.6531 21.8402C22.4558 23.0139 23.3385 23.3147 23.3385 23.3147C24.1522 23.6401 24.7341 23.2358 25.1039 22.9941C25.9817 22.432 26.5883 21.781 27.0321 21.3175C27.4513 20.8835 28.4425 19.8677 28.9602 19.3252C29.7147 18.5411 30.6517 17.9494 30.3903 17.7718L30.3953 17.7817ZM25.6316 22.2742C25.3801 22.4911 25.0645 22.6933 25.0645 22.6933C24.9313 22.7919 24.4629 22.9645 24.0338 22.7426C23.5161 22.4714 22.9243 21.929 23.0525 21.0117C23.0525 21.0117 23.1857 20.1487 23.23 19.9811C23.2744 19.8085 23.4372 19.7542 23.6443 19.8627C23.8514 19.9762 24.739 20.6419 24.6651 21.5345C24.6651 21.5345 24.6503 21.6775 24.8081 21.6873C24.956 21.6972 24.9856 21.564 24.9856 21.5098C24.9955 21.3175 25.0004 21.1449 24.8722 20.7701C24.8722 20.7701 25.7894 20.7553 25.9965 21.8846C25.9965 21.8846 25.9472 21.998 25.6267 22.2742H25.6316Z" fill="#1D1D1B"/>
<path fill-rule="evenodd" clip-rule="evenodd" d="M25.3899 23.3246C25.2765 23.4528 24.2014 24.6018 22.6185 24.301C21.3709 24.0643 21.2821 21.6479 21.2772 21.6233C21.2772 21.6035 21.2574 21.5838 21.2377 21.5838C21.213 21.5838 21.1983 21.5986 21.1983 21.6233C21.1983 21.6331 21.1588 22.4271 21.3067 23.221C21.361 23.512 21.43 23.7881 21.5385 24.0297C21.6273 24.2319 21.7358 24.4045 21.864 24.5525C22.0958 24.804 22.4015 24.9519 22.8108 24.942C23.3237 24.9272 23.7773 24.8138 24.1866 24.6067C24.4677 24.4538 24.7291 24.2664 24.9559 24.0495C25.2518 23.7487 25.4195 23.4577 25.4639 23.3689C25.4737 23.3492 25.4639 23.3246 25.4491 23.3147C25.4343 23.3048 25.4047 23.3048 25.3948 23.3196L25.3899 23.3246Z" fill="#1D1D1B"/>
</g>
<path d="M81.9868 30.9681C81.9523 30.5687 81.8388 30.189 81.6564 29.8438L81.3556 29.2816L81.8684 20.8392L80.9512 20.3855C79.5014 19.6704 77.6423 19.2414 75.9804 19.2414C75.724 19.2414 75.4725 19.2513 75.2309 19.271C72.9871 19.4683 71.1724 20.4348 69.8409 22.141V21.8304L69.1554 21.3619C68.0558 20.6173 66.3347 20.134 64.7764 20.134C64.5693 20.134 64.3671 20.1438 64.1748 20.1586C62.3305 20.3214 60.8264 20.9033 59.7119 21.8846L58.8687 21.4901C58.3361 21.2386 57.7049 21.1153 56.9997 21.1153C56.8123 21.1153 56.6151 21.1252 56.4129 21.14C55.4069 21.2287 54.6031 21.4704 53.9571 21.8895L53.2963 22.3136L53.2864 22.432L52.4727 22.0523C51.9402 21.8008 51.3089 21.6775 50.6038 21.6775C50.4164 21.6775 50.2191 21.6874 50.0169 21.7021C49.7556 21.7268 49.509 21.7613 49.2723 21.8057C49.795 21.1301 50.0367 20.3164 49.9578 19.4189C49.9183 18.9751 49.795 18.551 49.583 18.1171L49.3167 17.5697L48.7447 17.3527C48.0641 17.0963 47.2948 16.9631 46.4664 16.9631C46.2198 16.9631 45.9634 16.973 45.702 16.9977C44.0845 17.1407 42.7284 17.7374 41.6633 18.7729C40.5636 19.8529 39.957 21.1893 39.8633 22.7427V22.7575L38.7982 23.1174L38.5072 23.5711C38.5072 23.5711 38.4776 23.6155 38.4628 23.6402C37.4963 22.9153 36.2092 22.506 34.7249 22.506C34.4882 22.506 34.2465 22.5158 34 22.5355C32.3036 22.6835 30.8538 23.2358 29.6604 24.1925C29.5223 23.9262 29.3497 23.7043 29.1327 23.5267L28.9651 23.3887L28.7678 23.2999C28.398 23.1322 27.9788 23.0484 27.5251 23.0484C27.4166 23.0484 27.3032 23.0533 27.1898 23.0632C26.6079 23.1125 25.9224 23.2851 25.2419 23.6944C25.163 23.8029 25.0595 23.9311 24.9312 24.0593C24.7044 24.2763 24.448 24.4588 24.162 24.6166C23.7527 24.8237 23.299 24.9322 22.7861 24.9519C22.3768 24.9618 22.0711 24.8138 21.8393 24.5623C21.716 24.4144 21.6075 24.2418 21.5138 24.0396C21.4053 23.8029 21.3363 23.5267 21.2821 23.2309C21.2475 23.0385 21.2229 22.8462 21.2081 22.6638C21.0306 22.3975 20.8629 22.1558 20.71 22.0178L20.1725 21.5443C18.6931 20.2375 16.5825 19.488 14.3831 19.488C14.1119 19.488 13.8357 19.4978 13.5694 19.5225L13.4708 19.5324C10.2901 19.8085 7.54828 21.3027 5.55109 23.8522C3.19885 26.8554 2.11395 31.1161 2.58243 35.5444C3.07556 41.1168 6.07875 44.189 11.0446 44.189C11.4046 44.189 11.7794 44.1742 12.1591 44.1397C13.6336 44.0115 15.034 43.6515 16.4345 43.04C17.8794 42.4138 18.989 41.7135 19.8322 40.9048L20.2711 40.4856L20.3599 38.8533C20.7643 38.9766 21.2179 39.0358 21.7111 39.0358C21.8935 39.0358 22.0859 39.0259 22.2831 39.0111C23.2447 38.9273 24.0732 38.6659 24.7389 38.2418L25.3997 37.8178L25.8337 30.6673C25.9865 30.3123 26.2282 29.9424 26.6079 29.7895C26.4895 30.6575 26.4698 31.5796 26.5536 32.5511C26.7213 34.4546 27.4512 35.9734 28.7234 37.0731C29.8527 38.0446 31.2187 38.5328 32.7967 38.5328C33.0186 38.5328 33.2455 38.5229 33.4772 38.5032C35.3906 38.3355 37.3927 37.5268 38.6995 36.3926L39.0496 36.0869L39.0595 36.0523L38.882 39.0013L39.7598 39.4648C40.3022 39.7508 40.9581 39.8988 41.7126 39.8988C41.895 39.8988 42.0874 39.8889 42.2846 39.8741C43.261 39.7903 44.0944 39.5289 44.7601 39.0999L45.4209 38.6758L46.0817 27.6345L46.5897 27.5902L46.3283 32.0037C46.2247 33.6212 46.6291 34.9724 47.5069 35.9044C48.2762 36.723 49.3315 37.1569 50.5692 37.1569C50.727 37.1569 50.8848 37.152 51.0476 37.1372C52.0585 37.0485 53.0892 36.6342 53.9817 35.9833C54.4798 36.2052 55.0321 36.3186 55.6189 36.3186C55.7619 36.3186 55.9049 36.3137 56.0529 36.2989C56.8863 36.2249 57.6753 35.9636 58.3312 35.5444L58.7257 35.2929C59.2237 35.5493 59.8007 35.7565 60.4615 35.9093C61.2111 36.0869 61.9705 36.1805 62.7102 36.1805C62.9814 36.1805 63.2576 36.1707 63.5337 36.146C65.5013 35.9734 67.0892 35.3373 68.2579 34.2475C68.6081 33.922 68.9089 33.5719 69.1505 33.202C70.0431 34.3855 71.3548 35.0414 72.9772 35.0414C73.1548 35.0414 73.3422 35.0315 73.5246 35.0168C74.7279 34.9132 75.867 34.4398 76.8138 33.6804C77.4746 34.1932 78.3524 34.4842 79.3584 34.4842C79.4915 34.4842 79.6296 34.4792 79.7726 34.4694L80.2362 34.4349L80.6011 34.1538C81.538 33.4338 82.0755 32.1862 81.9671 30.9731L81.9868 30.9681Z" fill="#E30613"/>
<path fill-rule="evenodd" clip-rule="evenodd" d="M23.3729 6.32129C23.4075 6.32129 23.4469 6.31143 23.4814 6.28678C23.5307 6.24239 23.8118 6.06487 24.1472 5.97117C24.3444 5.91199 24.6206 5.96131 24.9263 6.10925C24.9855 6.14377 25.0792 6.15856 25.1433 6.09445C25.1679 6.0698 25.1827 6.03528 25.1827 5.99583C25.1827 5.93172 25.1482 5.86761 25.094 5.8183C25.0151 5.7394 24.6797 5.54708 24.6699 5.54214C24.3148 5.32517 23.8118 5.45338 23.7872 5.46324C23.3187 5.59639 23.2447 6.055 23.2398 6.09445C23.2299 6.13884 23.2053 6.24732 23.2546 6.28678C23.2842 6.31143 23.3236 6.33116 23.3729 6.33116V6.32129Z" fill="#1D1D1B"/>
<path fill-rule="evenodd" clip-rule="evenodd" d="M26.4648 15.2619C26.4549 15.3802 26.5387 15.4295 26.6374 15.4345C27.2883 15.4542 27.5398 15.4986 27.9294 15.8043C28.3091 16.1002 28.2647 16.4306 28.4472 16.3961C28.6839 16.3517 28.4472 15.903 28.3584 15.7747C27.7913 14.9956 26.5042 14.8624 26.4598 15.2619H26.4648Z" fill="#1D1D1B"/>
<path fill-rule="evenodd" clip-rule="evenodd" d="M34.2266 14.7342C34.1231 14.7342 34.0048 14.7539 33.9407 14.8278C33.921 14.8476 33.9112 14.8771 33.9259 14.9018C33.9457 14.9313 33.99 14.9264 34.0245 14.9165C34.3005 14.8377 34.5912 14.7835 34.882 14.8229H34.951C34.7194 14.7539 34.473 14.7244 34.2315 14.7342H34.2266Z" fill="#FFF9A6"/>
<path fill-rule="evenodd" clip-rule="evenodd" d="M33.4329 15.6662C33.4329 15.6662 33.3934 15.7155 33.4082 15.7401C33.423 15.7697 33.4723 15.7697 33.5068 15.7598C33.7877 15.7056 34.0883 15.681 34.3741 15.7451L34.4382 15.7549C34.2115 15.6662 33.97 15.612 33.7285 15.5972C33.6201 15.5923 33.5068 15.5972 33.4329 15.6662Z" fill="#FFF9A6"/>
<path fill-rule="evenodd" clip-rule="evenodd" d="M21.7405 12.594L21.4891 12.87C21.8932 12.9833 22.2283 13.3036 22.3614 13.6979C22.4649 13.486 22.4205 13.2199 22.2875 13.0277C22.1544 12.8305 21.9524 12.6975 21.7405 12.594Z" fill="#FFF9A6"/>
<path fill-rule="evenodd" clip-rule="evenodd" d="M15.3243 6.70552C15.3539 6.68581 15.3539 6.64145 15.344 6.60696C15.2997 6.48375 15.1765 6.40491 15.0533 6.34577C14.7724 6.21271 14.4668 6.12893 14.1564 6.09937C14.4668 6.21764 14.8019 6.38519 15.2061 6.67595C15.2405 6.70552 15.2898 6.73509 15.3293 6.71045L15.3243 6.70552Z" fill="#FFF9A6"/>
<path fill-rule="evenodd" clip-rule="evenodd" d="M15.1517 7.63302C14.861 7.52953 14.5456 7.4704 14.2351 7.4704C14.5751 7.56896 14.9349 7.7168 15.3341 7.94349C15.3735 7.96813 15.4277 7.9977 15.4622 7.96813C15.4918 7.94349 15.4868 7.89914 15.4721 7.86957C15.4178 7.7513 15.2848 7.68231 15.1567 7.63795L15.1517 7.63302Z" fill="#FFF9A6"/>
<path fill-rule="evenodd" clip-rule="evenodd" d="M14.9544 9.12719C14.6538 9.03848 14.3384 8.99906 14.028 9.01877L14.1117 9.03848C14.4863 9.08283 14.8362 9.2356 15.1565 9.4278C15.1959 9.45244 15.2501 9.47215 15.2846 9.44258C15.3093 9.41794 15.3043 9.37359 15.2846 9.34402C15.2205 9.22575 15.0826 9.17154 14.9495 9.13211L14.9544 9.12719Z" fill="#FFF9A6"/>
<path fill-rule="evenodd" clip-rule="evenodd" d="M33.1172 16.7856C33.1172 16.7856 33.0778 16.83 33.0926 16.8546C33.1073 16.8842 33.1566 16.8842 33.1911 16.8792C33.4769 16.83 33.8416 16.825 34.1274 16.894C33.9008 16.8004 33.6642 16.7413 33.4178 16.7265C33.3094 16.7166 33.196 16.7265 33.1172 16.7856Z" fill="#FFF9A6"/>
<path fill-rule="evenodd" clip-rule="evenodd" d="M23.0623 21.0069C23.0623 21.0069 23.1955 20.1439 23.2399 19.9762C23.2842 19.8036 23.447 19.7494 23.6541 19.8579C23.8612 19.9713 24.7489 20.637 24.6749 21.5296C24.6749 21.5296 24.6601 21.6726 24.8179 21.6825C24.9658 21.6923 24.9954 21.5592 24.9954 21.505C25.0053 21.3126 25.0102 21.14 24.882 20.7653C24.882 20.7653 25.7992 20.7505 26.0063 21.8797C26.0063 21.8797 25.957 21.9932 25.6365 22.2693C25.385 22.4863 25.0694 22.6885 25.0694 22.6885C24.9362 22.7871 24.4678 22.9597 24.0387 22.7378C23.5209 22.4666 22.9292 21.9241 23.0574 21.0069H23.0623Z" fill="#E30613"/>
<path d="M26.2528 17.7966C24.6304 17.1161 23.3088 15.829 23.3088 15.829C23.6392 16.6772 23.5406 18.339 23.5406 18.339C24.8178 19.7001 27.5942 19.7938 27.5942 19.7938C28.0676 18.773 28.3684 18.4278 28.3684 18.4278L28.4325 18.3538C28.4325 18.3538 28.2648 18.3686 28.2155 18.3686C27.4413 18.3686 26.2479 17.7917 26.2479 17.7917L26.2528 17.7966Z" fill="white"/>
<path d="M23.7476 9.09277C25.1382 10.587 24.6747 13.3781 24.6747 13.3781C25.9716 13.6986 27.2044 14.3003 27.2044 14.3003C27.234 13.9748 27.2784 13.7332 27.2784 13.0822C27.2784 12.2143 27.091 11.1442 26.9036 10.3996C26.5091 8.82155 25.656 7.87473 25.656 7.87473C25.1333 7.24845 24.6352 7.11531 24.1273 7.16955C23.1953 7.26818 22.7465 8.43691 22.6134 9.02867C22.6084 9.05332 22.5936 9.15195 22.5936 9.15195C23.1311 8.33335 23.7476 9.09277 23.7476 9.09277Z" fill="white"/>
<path d="M23.7468 11.8341C23.7912 11.504 23.5645 11.1935 23.2392 11.1491C22.9091 11.0999 22.5986 11.3364 22.5542 11.6666C22.505 11.9968 22.7415 12.3023 23.0717 12.3467C23.3969 12.391 23.7025 12.1643 23.7518 11.8341H23.7468Z" fill="white"/>
<path d="M22.7465 10.5276C22.7268 10.6804 22.8254 10.8233 22.9831 10.843C23.1358 10.8628 23.2787 10.7593 23.2985 10.6065C23.3182 10.4587 23.2147 10.3108 23.0619 10.2911C22.9042 10.2665 22.7662 10.3798 22.7465 10.5276Z" fill="white"/>
<path d="M28.4916 12.0713C29.5765 10.7547 30.0597 14.0685 29.8625 15.7501C30.7304 16.337 31.1348 16.7413 31.1348 16.7413C31.1348 11.8149 29.0685 8.30874 28.4916 12.0713Z" fill="white"/>
<path d="M28.8905 13.605C28.5949 13.5606 28.3189 13.7676 28.2745 14.0682C28.2302 14.3688 28.4372 14.6399 28.7378 14.6842C29.0384 14.7286 29.3144 14.5216 29.3587 14.221C29.4031 13.9204 29.1912 13.6444 28.8905 13.605Z" fill="white"/>
<path d="M28.6448 13.4872C28.7732 13.5069 28.8917 13.418 28.9114 13.2897C28.9312 13.1613 28.8423 13.0378 28.7139 13.023C28.5855 13.0033 28.4621 13.0971 28.4423 13.2255C28.4226 13.3539 28.5164 13.4724 28.6448 13.4921V13.4872Z" fill="white"/>
<path d="M11.0692 42.542C7.01076 42.542 4.64865 40.0665 4.23935 35.3817C3.81032 31.3676 4.767 27.531 6.86282 24.8582C8.57399 22.6786 10.9114 21.3964 13.6286 21.1597L13.7223 21.1499C13.9442 21.1302 14.1711 21.1203 14.3979 21.1203C16.1584 21.1203 17.8991 21.7219 19.0629 22.7328C19.0186 24.0594 18.3923 25.016 17.2975 25.4352C16.3704 24.6462 15.3201 24.2418 14.1809 24.2418C14.0379 24.2418 13.89 24.2468 13.742 24.2615C12.3218 24.3848 11.1925 24.9963 10.2901 26.1256C9.43205 27.1957 8.85015 28.5074 8.5592 30.0213C8.28304 31.5007 8.21894 33.1034 8.36688 34.7801C8.63317 37.803 9.86107 39.3366 12.0161 39.3366C12.1541 39.3366 12.2972 39.3317 12.4402 39.3169C13.4116 39.2331 14.2352 38.9717 14.9601 38.5279L15.108 38.4391L15.4039 33.1182L12.9037 33.3352C12.8248 33.138 12.7706 32.8914 12.7459 32.5807C12.6818 31.8312 12.7952 31.1901 13.101 30.623L19.2207 30.0855L18.6882 39.7459C17.9928 40.4018 17.051 40.9886 15.8083 41.5262C14.5705 42.0637 13.3377 42.3793 12.0407 42.4927C11.7103 42.5223 11.3799 42.5371 11.0692 42.5371V42.542ZM41.7372 38.2517C41.2835 38.2517 40.9038 38.1827 40.6129 38.0397L41.3082 26.3574L39.7548 26.4954C39.6562 26.2834 39.5921 26.0418 39.5674 25.7705C39.528 25.3218 39.6315 24.5032 39.8781 24.1087L41.1849 24.0002C41.3476 23.9607 41.4611 23.8029 41.4709 23.6008L41.5104 22.8561C41.5843 21.7022 42.0134 20.7554 42.8221 19.9565C43.6013 19.1921 44.622 18.7532 45.8499 18.6448C46.062 18.625 46.2691 18.6152 46.4664 18.6152C47.0828 18.6152 47.64 18.7039 48.1282 18.8815C48.2416 19.1182 48.3008 19.3401 48.3255 19.5669C48.3896 20.277 48.1085 20.8343 47.4773 21.2682C47.1518 21.1943 46.8214 21.1548 46.5009 21.1548C46.3825 21.1548 46.2593 21.1597 46.1409 21.1696C45.1448 21.2584 44.5925 21.8353 44.4988 22.8906L44.4396 23.729L46.8165 23.5662C46.9102 23.729 46.9694 23.9657 46.994 24.2714C47.0433 24.8089 46.925 25.3662 46.6488 25.9382L44.5382 26.1207L43.8429 37.7438C43.4089 38.0101 42.8418 38.1728 42.1515 38.237C42.0035 38.2517 41.8605 38.2567 41.7224 38.2567L41.7372 38.2517ZM21.7357 37.3937C21.282 37.3937 20.9023 37.3247 20.6114 37.1816L21.282 25.9481C21.7308 25.6916 22.219 25.5437 22.7762 25.4944C22.8995 25.4845 23.0179 25.4796 23.1264 25.4796C23.5258 25.4796 23.8513 25.5486 24.1176 25.6867L24.3691 27.3338L24.5121 27.028C25.1877 25.5831 26.1443 24.7991 27.3574 24.6906C27.4216 24.6856 27.4857 24.6807 27.5498 24.6807C27.7618 24.6807 27.9492 24.7152 28.107 24.7843C28.2106 24.878 28.3388 25.0999 28.3832 25.6127C28.4818 26.7321 28.0971 27.7283 27.4265 28.1031C27.3081 28.0784 27.1799 28.0636 27.0369 28.0636C26.9531 28.0636 26.8692 28.0636 26.7854 28.0735C25.6265 28.177 24.6995 28.9858 24.2359 30.2975V30.3123L23.8315 36.8808C23.3976 37.1471 22.8354 37.3099 22.1648 37.369C22.0168 37.3838 21.8738 37.3888 21.7357 37.3888V37.3937ZM32.8164 36.8907C31.6477 36.8907 30.6368 36.5307 29.8182 35.8255C28.8812 35.0168 28.3388 33.8678 28.2106 32.4081C28.0084 30.1249 28.4621 28.1968 29.5568 26.6779C30.6614 25.1689 32.1704 24.3454 34.1627 24.1728C34.3599 24.158 34.5523 24.1481 34.7446 24.1481C36.9933 24.1481 38.5516 25.3366 38.7143 27.171C38.9609 30.0115 36.441 31.8558 31.6083 32.3687L31.4899 32.3835L31.5195 32.4969C31.8154 33.6853 32.5797 34.287 33.7928 34.287C33.9013 34.287 34.0197 34.282 34.138 34.2722C35.0405 34.1933 35.9084 33.8777 36.722 33.3401C37.1215 33.3895 37.4075 33.5374 37.5702 33.7741C37.7774 34.0798 37.7971 34.5532 37.6294 35.1795C36.584 36.0721 34.9172 36.7378 33.3638 36.8759C33.1814 36.8907 32.9989 36.9006 32.8263 36.9006L32.8164 36.8907ZM34.1676 26.5053C34.1035 26.5053 34.0394 26.5053 33.9704 26.5152C32.4121 26.6532 31.4258 28.0784 31.3272 30.332V30.4504L31.4406 30.4356C34.3304 30.115 35.7358 29.2077 35.6026 27.7381C35.5336 26.9738 34.9862 26.5004 34.1627 26.5004L34.1676 26.5053ZM50.584 35.5099C49.8147 35.5099 49.1737 35.2584 48.7249 34.7752C48.1677 34.1785 47.9112 33.2563 47.9852 32.1024L48.4784 23.8029C48.932 23.5465 49.4893 23.3936 50.1698 23.3295C50.3227 23.3147 50.4706 23.3098 50.6136 23.3098C51.0476 23.3098 51.4174 23.3739 51.7232 23.5021L51.2498 31.2246C51.2005 31.8164 51.2991 32.2503 51.5358 32.5067C51.7133 32.704 51.9747 32.8026 52.3051 32.8026C52.3593 32.8026 52.4136 32.8026 52.4678 32.7977C53.168 32.7385 53.7943 32.2454 54.3812 31.2986L54.396 31.2788L54.894 23.2408C55.3083 22.9893 55.8556 22.8364 56.5657 22.7723C56.7186 22.7575 56.8666 22.7526 57.0096 22.7526C57.4435 22.7526 57.8134 22.8167 58.1191 22.9449L57.4287 34.1785C57.0046 34.4398 56.4868 34.6026 55.9395 34.6519C55.8408 34.6617 55.7422 34.6667 55.6485 34.6667C55.254 34.6667 54.8989 34.5878 54.5883 34.4349L54.3318 33.2958L54.1987 33.4831C53.3998 34.5976 52.1177 35.3866 50.9342 35.4902C50.8207 35.5001 50.7073 35.505 50.5988 35.505L50.584 35.5099ZM62.725 34.5335C62.1036 34.5335 61.4921 34.4596 60.856 34.3067C59.9881 34.0996 59.3569 33.8185 58.8736 33.4289C58.9229 32.4426 59.3322 31.7473 60.1212 31.3134C60.9004 31.8312 61.7288 32.0826 62.651 32.0826C62.7989 32.0826 62.9518 32.0777 63.0998 32.0629C63.7408 32.0087 64.229 31.8657 64.5397 31.6388C64.8652 31.4071 65.0131 31.0816 64.9786 30.6772C64.9145 29.9375 64.3868 29.6762 62.7348 29.2175C60.5207 28.611 59.6478 27.8022 59.5097 26.2341C59.4062 25.0506 59.8007 24.0396 60.6785 23.226C61.5415 22.4123 62.7694 21.929 64.3227 21.791C64.4657 21.7762 64.6186 21.7712 64.7764 21.7712C65.9895 21.7712 67.3506 22.1361 68.1889 22.6885C68.1593 23.6944 67.75 24.3848 66.9413 24.7941C66.3495 24.4194 65.6542 24.232 64.8652 24.232C64.7172 24.232 64.5594 24.2369 64.4016 24.2517C63.8937 24.2961 63.4745 24.4292 63.1836 24.6363C62.8778 24.8582 62.7299 25.1492 62.7595 25.4796C62.7891 25.8297 62.9272 26.0763 63.1787 26.239C63.4055 26.387 63.9479 26.5645 64.7468 26.8061C67.6119 27.6346 68.2234 28.5518 68.3418 29.9622C68.4503 31.1901 68.0607 32.1961 67.1582 33.0344C66.2607 33.8678 64.9983 34.3609 63.4055 34.499C63.1787 34.5187 62.9518 34.5286 62.725 34.5286V34.5335ZM72.9969 33.3895C70.9899 33.3895 69.7571 31.9544 69.5302 29.3408C69.328 27.028 69.7817 25.0604 70.8814 23.4972C71.9515 21.9438 73.4605 21.071 75.3738 20.9082C75.5662 20.8934 75.7684 20.8836 75.9804 20.8836C77.3612 20.8836 78.954 21.2436 80.1622 21.8304L79.6888 29.6811C79.6493 30.0263 79.7036 30.2876 79.8466 30.4602C79.9403 30.5737 80.0734 30.6476 80.2361 30.6723C80.3052 30.8104 80.3397 30.9534 80.3545 31.1161C80.4087 31.7621 80.1277 32.4476 79.6444 32.8322C79.5556 32.8371 79.4669 32.8421 79.383 32.8421C78.0959 32.8421 77.2675 32.1862 77.1738 31.0914L77.1442 30.7709L76.9815 31.0471C76.1925 32.3785 74.8561 33.2514 73.4062 33.3796C73.2682 33.3895 73.135 33.3993 73.0019 33.3993L72.9969 33.3895ZM75.6944 23.1125C75.581 23.1125 75.4626 23.1175 75.3492 23.1273C74.4763 23.2062 73.781 23.7832 73.3372 24.8089C72.9033 25.81 72.7454 27.1562 72.8835 28.7047C73.0265 30.3123 73.8008 30.6476 74.432 30.6476C74.4862 30.6476 74.5454 30.6476 74.6046 30.6378C75.5021 30.5589 76.2171 30.0164 76.7941 28.9759L76.8039 28.9562L77.1097 23.3443L77.0308 23.3197C76.5623 23.1767 76.1283 23.1125 75.6944 23.1125Z" fill="white"/>
</svg>
