<svg width="44" height="44" viewBox="0 0 44 44" fill="none" xmlns="http://www.w3.org/2000/svg">
<path d="M38.7283 5.32455C34.6994 1.31044 28.9051 0.861694 21.8237 0.861694C14.7423 0.861694 8.92823 1.31537 4.90427 5.33934C0.875365 9.36331 0.466064 15.1576 0.466064 22.239C0.466064 29.3204 0.875365 35.1197 4.90427 39.1436C8.93317 43.1676 14.7324 43.5769 21.8237 43.5769C28.9149 43.5769 34.7142 43.1676 38.7431 39.1436C42.772 35.1197 43.1813 29.3204 43.1813 22.239C43.1813 15.1576 42.7671 9.34851 38.7283 5.32455Z" fill="#FF6900"/>
<path d="M20.2501 30.134C20.2501 30.277 20.1318 30.3954 19.9838 30.3954H16.3396C16.1916 30.3954 16.0684 30.277 16.0684 30.134V20.6067C16.0684 20.4637 16.1916 20.3453 16.3396 20.3453H19.9838C20.1318 20.3453 20.2501 20.4637 20.2501 20.6067V30.134Z" fill="white"/>
<path d="M27.3811 30.1341C27.3811 30.2771 27.2578 30.3955 27.1148 30.3955H23.6481C23.5001 30.3955 23.3768 30.2771 23.3768 30.1341V21.9136C23.3768 20.4785 23.293 19.0041 22.5484 18.2644C21.9122 17.6233 20.7238 17.4803 19.486 17.4507H13.1986C13.0506 17.4507 12.9323 17.5691 12.9323 17.7121V30.1341C12.9323 30.2771 12.809 30.3955 12.661 30.3955H9.18939C9.04145 30.3955 8.9231 30.2771 8.9231 30.1341V14.3045C8.9231 14.1615 9.04145 14.0432 9.18939 14.0432H19.2C21.8185 14.0432 24.5505 14.1615 25.9017 15.5127C27.2578 16.8688 27.3761 19.6008 27.3761 22.2193V30.1341H27.3811Z" fill="white"/>
<path d="M34.5265 30.1341C34.5265 30.2771 34.4032 30.3955 34.2553 30.3955H30.7836C30.6357 30.3955 30.5173 30.2771 30.5173 30.1341V14.3045C30.5173 14.1615 30.6357 14.0432 30.7836 14.0432H34.2553C34.4032 14.0432 34.5265 14.1615 34.5265 14.3045V30.1341Z" fill="white"/>
</svg>
