<svg width="89" height="37" viewBox="0 0 89 37" fill="none" xmlns="http://www.w3.org/2000/svg">
<path d="M88.4356 0.713257H0.297852V36.9832H88.4356V0.713257Z" fill="#CE0E2D"/>
<path d="M28.3133 30.8192L26.4049 29.4285L24.5013 30.8192L25.2312 28.5754L23.3228 27.1897H25.6799L26.4049 24.9509L27.1347 27.1897H29.487L27.5834 28.5754L28.3133 30.8192Z" fill="white"/>
<path d="M64.2381 30.8192L62.3297 29.4285L60.4213 30.8192L61.156 28.5754L59.2427 27.1897H61.5999L62.3297 24.9509L63.0546 27.1897H65.4167L63.5083 28.5754L64.2381 30.8192Z" fill="white"/>
<path d="M37.293 30.8192L35.3846 29.4285L33.4811 30.8192L34.2109 28.5754L32.3025 27.1897H34.6597L35.3846 24.9509L36.1193 27.1897H38.4716L36.5632 28.5754L37.293 30.8192Z" fill="white"/>
<path d="M46.2779 30.8192L44.3695 29.4285L42.4611 30.8192L43.1909 28.5754L41.2825 27.1897H43.6397L44.3695 24.9509L45.0993 27.1897H47.4565L45.5481 28.5754L46.2779 30.8192Z" fill="white"/>
<path d="M55.2527 30.8192L53.3492 29.4285L51.4457 30.8192L52.1706 28.5754L50.2671 27.1897H52.6243L53.3492 24.9509L54.0791 27.1897H56.4362L54.5278 28.5754L55.2527 30.8192Z" fill="white"/>
<path d="M58.4087 19.8617C60.3517 17.4651 60.3221 15.0734 59.3211 13.017C57.1414 15.2559 57.7578 18.836 58.4087 19.8617ZM37.9437 18.3774V13.4461C37.1251 13.4461 35.9761 14.6099 35.9761 15.9167C35.9761 17.2235 36.9377 18.3725 37.9437 18.3725M32.4946 18.4612C32.4749 18.4021 32.465 18.3675 32.4502 18.3084C31.2815 12.4894 36.3558 11.1875 37.9437 11.2516H41.7605C41.7605 11.2516 41.7605 16.7155 41.7605 18.1358C41.7605 19.6546 42.737 19.1664 43.4816 18.4612C43.4816 18.4612 43.4569 13.7271 43.4569 11.37C43.4569 8.87964 41.4055 9.06703 41.4055 9.06703L44.2509 6.57178H44.5764C46.3812 6.57178 47.1801 8.14487 47.2491 9.71304V13.7863C47.2491 13.7863 50.4643 10.9705 50.5777 10.862C52.067 10.9853 52.6045 12.1097 52.6144 12.9874V18.5056C52.6144 19.8667 53.6106 19.4327 54.2566 18.7719C52.9843 13.5447 56.0565 11.5376 57.5605 10.7585L62.9702 12.3365C63.0984 12.6077 63.2316 12.9825 63.3845 13.4165C63.3845 13.4165 65.9882 11.1283 66.4764 10.6944C67.7191 10.9163 68.4637 11.6954 68.5328 12.6225V18.3478C68.5328 19.9751 69.3563 19.4475 69.948 18.8903V11.1628H73.7107C73.7107 11.1628 73.7254 16.9424 73.7107 17.8399C73.7107 19.7335 75.4218 19.4672 75.4218 19.4672C74.7758 20.1083 73.7156 21.0403 73.257 21.4743C71.3387 21.3904 70.5004 20.5127 70.0763 19.63C69.4796 20.1872 68.6659 20.9614 68.0643 21.5236C65.0069 22.0167 64.7652 19.0579 64.7652 19.0579V14.5605C64.7652 13.8307 64.1044 13.9737 63.5915 13.9737C64.3263 19.1467 61.259 21.4052 59.035 21.568C56.7617 21.7307 55.3563 20.4091 54.5672 19.3834C53.5169 20.3549 52.2445 21.5532 52.2445 21.5532C50.198 21.78 48.842 20.7247 48.842 18.9544V15.6947C48.842 14.6296 47.9741 14.6345 47.2393 14.6345V21.3954H43.4717V19.2601C43.4717 19.2601 42.806 19.8814 41.149 21.4447C39.4625 21.9871 38.4763 20.705 38.0325 19.9456C37.7169 20.2266 37.4703 20.4633 36.415 21.4545C34.4819 21.4545 33.2392 19.8025 32.8348 19.1417L32.8201 19.1023L30.1127 21.4743C30.1127 21.4743 26.7249 22.5296 26.7249 18.3527V15.5912V11.4143C26.7249 10.359 25.9852 10.2062 25.1863 10.2062V21.3806H21.0588C21.0588 21.3806 21.0341 12.9283 21.0341 11.4143C21.0341 10.3738 20.3783 10.147 19.5005 10.147V21.3855H15.3237C15.3533 19.9604 15.3237 12.874 15.3237 12.0357C15.3237 9.54044 13.2722 9.73276 13.2722 9.73276L16.1176 7.23751H17.2025C17.8485 7.23751 19.5054 7.7405 19.5054 9.21004L21.7541 7.23751H22.8933C23.8006 7.23751 25.1912 7.8194 25.1912 9.25442L27.4893 7.23751H28.5643C29.3879 7.23751 30.8672 7.73064 30.8672 9.24949L30.9067 15.5912C30.8771 17.0163 30.9067 15.8378 30.9067 16.6712C30.9067 19.0826 31.9866 18.8557 32.5291 18.5697C32.5291 18.5697 32.4995 18.5056 32.4847 18.4612" fill="white"/>
</svg>
