<svg width="77" height="51" viewBox="0 0 77 51" fill="none" xmlns="http://www.w3.org/2000/svg">
<g clip-path="url(#clip0_747_35434)">
<path d="M50.9229 7.8965C48.5297 9.05933 46.142 10.2222 43.7488 11.385C45.2053 11.9395 46.6617 12.494 48.1182 13.0539C49.0224 13.3984 50.0891 13.8345 50.4843 14.895C50.8904 15.9825 50.2948 16.9515 49.7696 17.7752C48.9737 19.0134 48.1778 20.2516 47.3819 21.4897C44.5501 25.8988 41.7184 30.3079 38.8758 34.7115C38.8758 33.3495 38.8649 31.9929 38.8649 30.6309C39.9532 27.2285 41.0145 23.8208 42.0378 20.4023C42.3302 19.4333 42.6172 18.4589 42.8987 17.4898C43.072 16.903 42.9583 16.5531 42.3897 16.2732C40.9441 15.5626 39.493 14.8519 38.0419 14.1413C36.5909 14.8519 35.1452 15.5626 33.6942 16.2732C33.1256 16.5531 33.0173 16.903 33.1852 17.4898C33.4667 18.4642 33.7537 19.4333 34.0461 20.4023C35.0694 23.8208 36.1307 27.2285 37.219 30.6255C37.219 31.9875 37.2135 33.3441 37.2081 34.7062C34.3655 30.3025 31.5338 25.8934 28.702 21.4844C27.9061 20.2462 27.1102 19.008 26.3143 17.7698C25.7891 16.9515 25.1935 15.9825 25.5996 14.8896C25.9948 13.8291 27.0615 13.3984 27.9657 13.0485C29.4222 12.4886 30.8786 11.9341 32.3351 11.3796C29.9419 10.2168 27.5542 9.05395 25.161 7.89112C25.9082 9.12931 26.65 10.3729 27.3972 11.6165C26.1627 12.0848 24.9336 12.5586 23.6991 13.0323C21.111 9.00011 18.5175 4.9679 15.9402 0.930298C23.2984 3.52513 30.6512 6.14149 38.0474 8.65019C45.4381 6.14149 52.7909 3.52513 60.1545 0.930298C57.5773 4.9679 54.9837 9.00011 52.3956 13.0323C51.1612 12.5586 49.9321 12.0902 48.6976 11.6165C49.4448 10.3729 50.1865 9.12931 50.9337 7.89112" fill="white"/>
<path fill-rule="evenodd" clip-rule="evenodd" d="M49.098 44.574V46.2429H58.1239C58.3134 46.2429 58.4704 46.0975 58.4704 45.9253V44.897C58.4704 44.7194 58.3134 44.5794 58.1239 44.5794H49.098V44.574ZM46.824 50.1244V43.0182H58.5192C59.6075 43.0182 60.49 43.6804 60.49 44.6817V46.1514C60.49 47.1796 59.8024 47.8741 59.1094 47.8741L60.6687 50.1297H58.1185L56.7757 47.9656H49.1089V50.1297H46.8348L46.824 50.1244Z" fill="white"/>
<path d="M13.9421 50.1298H2.24144C1.15314 50.1298 0.276001 49.3169 0.276001 48.3155V44.827C0.276001 43.8257 1.15856 43.0128 2.24144 43.0128H13.9421V44.9562H2.6367C2.44719 44.9562 2.29017 45.1016 2.29017 45.2739V47.8526C2.29017 48.0302 2.44719 48.1702 2.6367 48.1702H13.9421V50.1136V50.1298ZM29.4653 43.0182V48.3155C29.4653 49.3169 28.5827 50.1298 27.4944 50.1298H17.7484C16.6601 50.1298 15.7776 49.3169 15.7776 48.3155V43.0182H18.1274V47.8633C18.1274 48.041 18.2844 48.1809 18.4739 48.1809H26.7635C26.953 48.1809 27.11 48.0356 27.11 47.8633V43.0182H29.4599H29.4653ZM73.8204 46.2375V44.574H64.8866C64.6971 44.574 64.54 44.7194 64.54 44.8916V46.2375C64.54 46.2375 70.6313 46.2321 73.8204 46.2375ZM76.0295 50.1298H73.8204V47.9656H64.5617V50.1298H62.3526L62.331 44.8324C62.331 43.8311 63.2135 43.0182 64.3018 43.0182H76.0024C76.0024 43.0182 76.0349 43.0236 76.0349 43.0182V50.1298H76.0295ZM33.4936 46.2429H42.6224C42.8119 46.2429 42.9689 46.0975 42.9689 45.9253V44.897C42.9689 44.7194 42.8119 44.5794 42.6224 44.5794H33.4936V46.2483V46.2429ZM43.0176 43.0182C44.4633 43.0182 44.9885 43.6804 44.9885 44.6817V46.1514C44.9885 47.1527 44.5445 47.9656 43.0176 47.9656H33.4936V50.1298H31.2845V43.0182H43.0176Z" fill="white"/>
</g>
<defs>
<clipPath id="clip0_747_35434">
<rect width="75.7589" height="49.1941" fill="white" transform="translate(0.276001 0.935669)"/>
</clipPath>
</defs>
</svg>
